<svg xmlns="http://www.w3.org/2000/svg" viewBox="0 0 100 100" fill-rule="evenodd"><rect x="0" y="0" width="100" height="100" fill="#ffffff" rx="10" ry="10"></rect><g class="t-group-origins" style="transform-origin:center;transform:scale(0.8);"><path d="M67.1 53.7c-16.928 0-30.7 13.771-30.7 30.699a1.5 1.5 0 0 0 1.5 1.5h58.4a1.5 1.5 0 0 0 1.5-1.5C97.8 67.472 84.027 53.7 67.1 53.7zM39.44 82.9c.782-14.578 12.889-26.2 27.66-26.2s26.878 11.622 27.66 26.2H39.44zM66.5 49.6c9.76 0 17.7-7.94 17.7-17.7s-7.94-17.7-17.7-17.7-17.7 7.94-17.7 17.7 7.94 17.7 17.7 17.7zm0-32.4c8.105 0 14.7 6.594 14.7 14.7 0 8.105-6.595 14.7-14.7 14.7s-14.7-6.594-14.7-14.7c0-8.106 6.595-14.7 14.7-14.7zm-41.1 47c3.623 0 7.161.965 10.234 2.79a1.5 1.5 0 0 0 1.533-2.58 23.045 23.045 0 0 0-11.766-3.21C12.607 61.2 2.2 71.608 2.2 84.4a1.5 1.5 0 0 0 1.5 1.5h27a1.5 1.5 0 1 0 0-3H5.255c.77-10.441 9.511-18.7 20.145-18.7zm-.3-7.6c7.499 0 13.6-6.101 13.6-13.6s-6.101-13.6-13.6-13.6S11.5 35.501 11.5 43s6.101 13.6 13.6 13.6zm0-24.2c5.845 0 10.6 4.755 10.6 10.6s-4.755 10.6-10.6 10.6S14.5 48.845 14.5 43s4.755-10.6 10.6-10.6z" stroke-width="0" stroke="#12284c" fill="#12284c" stroke-width-old="0"></path></g></svg>
