<svg xmlns="http://www.w3.org/2000/svg" viewBox="0 0 100 100" fill-rule="evenodd"><rect x="0" y="0" width="100" height="100" fill="#ffffff" rx="10" ry="10"></rect><g class="t-group-origins" style="transform-origin:center;transform:scale(0.8);"><path d="M85.5 16h-71a1.5 1.5 0 0 0-1.5 1.5v64a1.5 1.5 0 0 0 1.5 1.5h71a1.5 1.5 0 0 0 1.5-1.5v-64a1.5 1.5 0 0 0-1.5-1.5ZM84 19v15H16V19ZM16 80V37h68v43Z" stroke-width="0" stroke="#12284c" fill="#12284c" stroke-width-old="0"></path><path d="M21.5 28h6a1.5 1.5 0 0 0 0-3h-6a1.5 1.5 0 0 0 0 3ZM35 28h6a1.5 1.5 0 0 0 0-3h-6a1.5 1.5 0 0 0 0 3Zm27.37 28.5-18-12.73A1.5 1.5 0 0 0 42 45v24a1.5 1.5 0 0 0 2.3 1.27L62.3 59a1.5 1.5 0 0 0 .07-2.5ZM45 66.29V47.9l13.79 9.75Z" stroke-width="0" stroke="#12284c" fill="#12284c" stroke-width-old="0"></path></g></svg>
