<?xml version="1.0" encoding="UTF-8"?> <svg xmlns="http://www.w3.org/2000/svg" width="277" height="301" viewBox="0 0 277 301" fill="none"><g clip-path="url(#clip0_1159_16838)"><path d="M138.116 163.426L81.7419 85.8735V142.182H104.291V197.723H0V142.182H21.012V55.6717H0V0.131104H81.9981L138.372 78.1951L195.002 0.131104H277V55.6717H255.988V142.182H277V197.723H172.452V142.182H195.002V85.8735L138.116 163.426Z" fill="white"></path><path d="M221.139 299.845V297.798C223.701 297.542 225.751 297.542 225.751 295.494C225.751 294.726 225.495 293.958 225.239 293.191L224.214 289.351H211.145L210.12 292.679C209.864 293.447 209.608 294.214 209.608 294.982C209.608 297.542 212.426 297.798 214.733 297.798V299.845H199.358V297.798C203.202 297.542 204.483 296.774 206.02 292.935L216.014 265.292L215.501 264.524C218.064 263.757 220.626 262.733 222.932 261.197C223.701 263.757 223.701 264.013 224.726 266.572L232.926 291.911C234.463 296.262 234.976 297.542 239.076 297.798V299.845H221.139ZM218.064 269.899L212.683 285.256H223.189L218.064 269.899ZM102.754 291.399C99.679 297.286 93.5291 300.869 86.8668 300.613C75.5921 300.613 68.4172 292.423 68.4172 281.417C68.4172 271.435 74.5671 261.453 87.123 261.453C91.7354 261.453 96.0916 262.989 99.4228 265.804L101.985 263.501L102.241 274.762L100.448 275.018C99.679 272.459 98.1415 270.155 96.3478 268.364C94.2979 266.06 91.4792 264.78 88.6605 264.78C81.9982 264.78 76.617 270.155 76.617 279.881C76.617 288.072 80.9732 295.75 89.6855 295.75C94.2979 295.75 98.3978 293.447 100.704 289.351L102.754 291.399ZM105.316 299.845V297.798C109.673 297.542 109.673 296.518 109.673 292.935V273.483C109.673 270.923 109.673 268.62 109.416 267.596C109.16 265.292 108.135 265.036 105.316 264.78V262.733H121.204V264.78C118.129 265.036 116.847 265.292 116.591 267.34C116.335 269.387 116.079 271.435 116.335 273.483V278.602C119.666 278.858 121.716 278.858 124.791 278.858C127.866 278.858 130.428 278.858 133.503 278.602V272.459C133.503 265.548 133.503 265.292 128.378 265.036V262.989H144.522V265.036C140.166 265.548 140.166 265.548 140.166 272.715V288.328C140.166 289.863 140.166 294.47 140.422 295.494C140.678 297.542 141.703 297.798 144.522 298.054V300.101H128.378V298.054C132.222 297.542 132.991 297.542 133.503 294.982V282.953C130.428 282.953 128.122 282.697 125.047 282.697C121.972 282.697 119.41 282.697 116.079 282.953V289.607C116.079 297.286 116.335 297.286 120.947 297.798V299.845H105.316ZM147.597 299.845V297.798C151.184 297.286 151.953 296.774 151.953 292.935V273.227C151.953 265.548 151.953 265.292 147.597 264.78V262.733H162.971V264.78C158.615 265.292 158.615 265.292 158.615 273.227V288.328C158.615 289.607 158.615 293.702 158.871 294.982C159.128 297.286 160.153 297.798 162.971 298.054V300.101H147.597V299.845ZM52.2738 299.845V297.798C55.8612 297.286 56.63 296.774 56.63 292.935V273.227C56.63 265.548 56.63 265.292 52.2738 264.78V262.733H67.6485V264.78C63.2923 265.292 63.2923 265.292 63.2923 273.227V288.328C63.2923 289.607 63.2923 293.702 63.5486 294.982C63.8048 297.286 64.8298 297.798 67.6485 298.054V300.101H52.2738V299.845ZM32.2868 299.845V297.798C36.8992 297.542 36.8992 297.286 36.8992 290.375V271.691L23.8307 300.357H20.4995L8.45606 271.435L8.19982 293.191C8.19982 296.774 8.7123 297.542 12.556 297.798V299.845H0V297.798C3.07493 297.542 4.09991 297.286 4.35615 294.726C4.35615 293.702 4.6124 290.631 4.6124 288.584L5.12488 272.971V268.62C5.12488 265.036 4.35615 264.78 1.02498 264.524V262.477H12.556L24.087 290.631L36.8992 262.477H48.1739V264.78C43.8178 265.036 43.5615 265.548 43.8178 271.435V286.792C43.8178 289.351 43.8178 292.423 44.074 294.47C44.3302 297.286 45.3552 297.798 48.1739 298.054V300.101L32.2868 299.845ZM237.538 299.845V297.798C240.613 297.542 241.895 297.542 242.151 295.494C242.663 292.935 242.92 270.923 242.92 267.084C241.638 265.548 239.588 264.524 237.538 264.524V262.477H248.813C251.888 266.828 252.657 267.852 258.038 274.762L268.288 287.56V270.923C268.288 265.036 268.031 264.78 262.138 264.524V262.477H277V264.524C272.9 264.524 272.644 265.292 272.644 271.435L272.131 300.101H269.825L266.494 296.006C264.7 293.958 263.163 291.911 261.369 289.863L246.763 271.691V290.887C246.763 296.774 247.276 297.03 252.913 297.542V299.589L237.538 299.845ZM200.895 283.209V285.256C197.564 285.512 197.564 286.28 197.564 293.447V296.262C193.464 299.077 188.34 300.613 183.215 300.613C170.402 300.613 164.253 290.887 164.253 281.161C164.253 269.132 172.452 261.453 182.446 261.453C187.058 261.453 191.671 262.989 195.514 265.804L197.564 263.501L197.821 275.274L196.283 275.53C195.258 272.715 193.721 270.155 191.671 268.108C189.621 266.316 187.058 265.292 184.24 265.292C177.833 265.292 172.452 270.667 172.452 281.417C172.452 289.863 176.809 297.286 183.983 297.286C186.546 297.286 188.852 296.262 190.389 294.214C191.158 293.191 191.414 291.911 191.158 290.631C190.902 286.024 190.389 285.768 186.29 285.512V283.465L200.895 283.209ZM257.013 238.674C257.525 245.328 252.401 250.959 245.994 251.471H244.713C237.795 251.727 232.157 246.352 231.901 239.442V238.418C231.901 231.507 237.538 225.876 244.457 225.876C251.119 225.876 256.757 231.507 257.013 238.674ZM244.713 249.168C246.763 248.912 248.557 247.888 249.582 246.096C251.119 243.537 251.888 240.721 251.632 237.65C251.632 234.835 250.607 232.019 248.813 229.972C246.763 227.668 243.432 227.156 240.87 229.204L240.101 229.972C238.307 232.275 237.282 235.091 237.538 237.906C237.282 240.721 238.051 243.793 239.845 246.096C240.87 248.144 242.663 249.168 244.713 249.168ZM258.038 249.68V250.959H268.288V249.68C265.725 249.424 265.469 249.168 265.469 246.608V239.698H268.288C271.106 239.698 272.388 239.954 272.644 242.769H273.925V234.579H272.644C272.388 237.138 271.875 237.394 268.8 237.394H265.469V228.948H268.288C273.156 228.948 274.694 228.948 275.206 232.787H276.488L275.975 226.9H258.038V227.924C259.832 228.18 260.6 228.18 260.857 229.46C261.113 230.995 261.113 232.531 261.113 233.811V246.608C260.857 249.168 260.6 249.424 258.038 249.68ZM56.8862 250.703V249.424C59.1924 249.168 59.7049 248.912 59.7049 246.352V233.299C59.7049 228.18 59.7049 228.18 56.8862 227.668V226.388H67.136V227.668C64.0611 228.18 64.0611 228.18 64.0611 233.299V247.632C64.3173 249.168 64.8298 249.424 66.8797 249.68V250.959H56.8862V250.703ZM158.871 250.703V249.424C161.178 249.168 161.69 248.912 161.69 246.352V233.299C161.69 228.18 161.69 228.18 158.871 227.668V226.388H169.121V227.668C166.303 227.924 166.303 227.924 166.303 233.299V247.632C166.559 249.168 167.071 249.424 169.121 249.68V250.959H158.871V250.703ZM28.4431 250.703V249.424C30.4931 249.424 31.2618 249.168 31.518 247.888C31.7743 246.608 32.0305 231.763 32.0305 229.204C31.2618 228.18 29.9806 227.668 28.4431 227.668V226.388H35.6179C37.6679 229.204 38.1804 229.972 41.7678 234.579L48.6864 243.025V232.019C48.6864 228.18 48.6864 227.924 44.5865 227.668V226.388H54.3238V227.668C51.7613 227.668 51.5051 228.18 51.2488 232.275V250.959H49.7114L47.4052 248.4C46.3802 247.12 45.099 245.584 44.074 244.305L34.3367 232.275V245.072C34.3367 249.168 34.593 249.168 38.4366 249.68V250.959L28.4431 250.703ZM139.909 243.025L141.191 242.769C142.472 246.864 144.778 248.912 148.365 248.912C150.928 248.912 153.234 247.888 153.234 245.072C153.234 242.257 150.672 241.233 149.39 240.721C148.109 240.209 147.34 239.954 146.315 239.698C142.984 238.93 140.678 236.114 140.422 232.531C140.422 228.436 143.753 225.365 147.597 225.365H148.365C150.415 225.365 152.209 225.876 154.003 227.156L155.54 226.132L156.309 233.299L155.028 233.555C154.772 232.275 154.259 230.995 153.234 229.972C152.209 228.436 150.415 227.668 148.622 227.668C146.059 227.668 144.522 228.948 144.522 230.995C144.522 233.811 147.34 234.835 150.159 235.858C151.44 236.114 152.465 236.626 153.747 237.394C156.053 238.674 157.334 240.977 157.334 243.537C157.078 247.888 153.49 251.471 148.878 251.215H148.622C146.315 251.215 144.266 250.447 142.216 249.168L140.166 247.632L139.909 243.025ZM177.833 250.703V249.68C180.14 249.68 180.652 248.912 180.652 246.864V228.692H177.577C174.759 228.692 172.965 228.692 172.709 233.043H171.427L171.684 226.132H193.977L194.233 233.043H192.952C192.696 228.692 190.902 228.692 188.083 228.692H185.008V246.864C185.008 248.912 185.521 249.68 187.827 249.68V250.703H177.833ZM10.7623 226.132V227.412C7.68733 227.668 7.68733 227.924 7.43108 233.043V238.93C7.17484 241.745 7.68733 244.305 8.96855 246.864C9.99352 248.144 11.7872 248.912 13.5809 248.912C16.6559 249.168 19.2183 247.12 19.9871 244.305C20.4995 241.233 20.7558 237.906 20.7558 234.835V230.228C20.4995 227.924 19.4746 227.924 17.1684 227.668V226.388H26.3932V227.668C24.087 227.668 23.5745 228.18 23.5745 230.483C23.5745 230.995 23.3182 237.906 23.3182 238.93C23.3182 240.721 23.062 242.513 22.8057 244.561C21.5245 248.912 17.6809 251.727 13.0685 251.471C10.7623 251.471 8.45606 250.959 6.66235 249.68C3.07493 247.12 3.07493 243.537 3.07493 239.442V233.811V229.46C2.81869 227.924 2.04995 227.668 0.256244 227.412V226.132H10.7623ZM94.0416 226.132V227.412C91.7354 227.668 91.2229 228.436 89.4292 233.299L81.9981 251.215H80.7169L73.7983 233.043C72.0046 228.436 72.0046 227.924 69.4422 227.412V226.132H80.9732V227.412C78.9232 227.412 77.642 227.668 77.642 228.948C77.642 229.972 78.1545 231.251 78.4107 232.275L82.7669 244.817L87.8918 232.019C88.148 231.251 88.4043 230.228 88.6605 229.46C88.6605 227.668 86.8668 227.668 85.3293 227.668V226.388L94.0416 226.132ZM202.945 250.703V249.424C204.739 249.168 205.508 249.168 206.02 248.656C206.533 248.144 206.533 247.376 206.533 244.817V240.465L199.87 230.228C198.077 227.668 198.077 227.412 195.771 227.412V226.132H208.583V227.412C206.02 227.412 204.739 227.668 204.739 228.692C204.995 229.716 205.252 230.483 205.764 231.251L209.608 237.394L213.195 231.251C213.708 230.483 213.964 229.716 214.22 228.692C214.22 227.412 213.195 227.412 211.401 227.412V226.132H221.139V227.412C218.576 227.412 217.808 228.18 215.245 232.787L211.401 239.186V244.305C211.401 248.656 211.401 249.168 214.989 249.424V250.703H202.945ZM113.772 250.703C113.772 248.912 114.029 246.096 114.285 244.305H113.004C112.235 248.656 109.673 248.4 106.085 248.4C102.498 248.4 102.241 247.632 102.241 245.84V238.93H104.804C107.879 238.93 108.648 239.186 108.648 242.001H109.929V233.811H108.648C108.391 235.858 107.879 236.626 104.804 236.626H102.241V227.924H105.316C109.416 227.924 110.954 228.18 111.466 231.507H112.747L112.491 225.62H94.8104V226.9C96.6041 227.156 97.3728 227.156 97.6291 228.436C97.8853 229.972 97.8853 231.507 97.8853 232.787V245.84C97.8853 248.4 97.3728 248.656 95.0666 248.912V250.191L113.772 250.703ZM124.022 237.65C124.791 237.906 125.56 237.906 126.328 237.906C128.891 238.162 130.941 236.37 131.453 233.811C131.71 230.995 130.172 228.436 125.56 228.436H124.022V237.65ZM124.022 243.025C124.022 248.656 124.022 249.424 127.097 249.424V250.703H116.847V249.424C119.41 249.168 119.666 248.912 119.922 246.096V234.067C119.922 232.531 119.922 230.995 119.666 229.204C119.41 227.924 118.897 227.668 116.847 227.412V226.132H127.866C134.016 226.132 135.809 228.948 135.809 232.275C135.809 235.346 133.759 237.906 130.941 238.674L135.297 246.352C136.834 249.168 137.603 249.935 139.653 250.191V250.959H138.116C133.503 250.959 131.453 249.424 129.66 245.328L128.122 242.513C126.585 239.442 126.072 239.698 123.766 239.442L124.022 243.025Z" fill="white"></path></g><defs><clipPath id="clip0_1159_16838"><rect width="277" height="301" fill="white"></rect></clipPath></defs></svg> 