<?xml version="1.0" encoding="UTF-8"?> <svg xmlns="http://www.w3.org/2000/svg" width="25" height="25" viewBox="0 0 25 25" fill="none"><path d="M21.5613 6.27958C21.3323 5.9088 20.9565 5.63727 20.516 5.52654C20.0746 5.4158 19.6053 5.47404 19.2103 5.68814C18.5538 6.04329 17.7624 6.04289 17.1063 5.68708L16.4264 5.31839C15.811 4.98463 15.4277 4.34072 15.4277 3.64062C15.4277 2.74812 14.6595 2 13.7095 2H11.2904C10.3403 2 9.5721 2.74812 9.5721 3.64062C9.5721 4.34076 9.18891 4.98475 8.57357 5.31875L7.89452 5.68733C7.23843 6.04345 6.44678 6.04375 5.79041 5.68814C5.39537 5.47405 4.92516 5.41579 4.48381 5.52654C4.04331 5.63728 3.66751 5.9088 3.43851 6.27958L2.23067 8.24505C2.00257 8.61582 1.9405 9.05716 2.05849 9.47059C2.17648 9.88485 2.4649 10.2376 2.85993 10.4517C3.50628 10.8025 3.90886 11.4789 3.90907 12.2143L3.90924 12.7857C3.90946 13.521 3.50709 14.1975 2.86081 14.5483C2.46577 14.7632 2.17647 15.1151 2.05849 15.5286C1.94051 15.9429 2.00256 16.3842 2.23067 16.755L3.44026 18.7204C3.66836 19.0912 4.04418 19.3627 4.48468 19.4735C4.92606 19.5842 5.39537 19.526 5.79128 19.3119C6.44774 18.9567 7.23916 18.9571 7.89524 19.313L8.57266 19.6804C9.18852 20.0144 9.57208 20.6588 9.57208 21.3594C9.57208 22.2519 10.3403 23 11.2903 23H13.7088C14.6597 23 15.427 22.2519 15.427 21.3594C15.4276 20.6587 15.8114 20.0145 16.4274 19.6805L17.1056 19.3128C17.7617 18.9571 18.5531 18.9567 19.2096 19.3119C19.6055 19.526 20.0748 19.5842 20.5153 19.4735C20.9567 19.3627 21.3325 19.0912 21.5606 18.7204L22.7693 16.755C22.9974 16.3842 23.0595 15.9428 22.9415 15.5294C22.8235 15.1151 22.5351 14.7624 22.1401 14.5483C21.4938 14.1975 21.0913 13.5211 21.0913 12.7857V12.2143C21.0913 11.4789 21.4938 10.8025 22.1401 10.4517C22.5351 10.2367 22.8235 9.88483 22.9415 9.47139C23.0595 9.05712 22.9974 8.6158 22.7693 8.24503L21.5613 6.27958Z" stroke="white" stroke-linecap="round" stroke-linejoin="round"></path><path d="M16 12.5C16 14.433 14.433 16 12.5 16C10.567 16 9 14.433 9 12.5C9 10.567 10.567 9 12.5 9C14.433 9 16 10.567 16 12.5Z" stroke="white" stroke-linecap="round" stroke-linejoin="round"></path></svg> 