<?xml version="1.0" encoding="UTF-8"?> <svg xmlns="http://www.w3.org/2000/svg" width="200" height="74" viewBox="0 0 200 74" fill="none"><path d="M184.165 72.7742H14.2128V1.21496H184.165V72.7742ZM13 2.90023e-06V74H185.384V2.90023e-06" fill="white"></path><path d="M41.9808 27.8639C41.9721 30.5042 40.7181 33.2466 36.2466 33.2531C33.3914 33.2379 32.4433 32.3809 32.4259 29.81V22.607H36.0426C40.0021 22.6091 41.9786 25.2712 41.9808 27.8639ZM36.0773 21.8172H32.4259V13.5229C33.2851 13.4882 34.6324 13.4253 35.3592 13.4253C39.5335 13.4318 40.9133 15.5689 40.922 17.9272C40.9133 20.5545 39.3404 21.8064 36.0773 21.8172ZM40.3297 22.0342C42.5709 21.5699 44.1351 19.7692 44.1373 17.8252C44.1395 16.1655 43.4365 14.9744 42.0241 13.9764C40.768 13.0717 38.1319 12.6356 35.1205 12.6334C34.4697 12.6334 31.877 12.6681 29.996 12.7354C29.0067 12.7701 26.6505 12.9068 25.6959 12.9415H25.6265V13.7312H26.8935C29.254 13.7507 29.4297 14.6815 29.4514 16.6298V30.7993C29.4297 32.9363 28.9698 33.5069 26.1754 33.5286H25.3206V34.3184H37.8868C43.4214 34.3119 45.3241 30.4869 45.3328 27.7597C45.3328 25.0998 43.4756 23.0083 40.3297 22.0342Z" fill="white"></path><path d="M61.5023 13.4255C67.0955 13.4276 71.0897 17.8557 71.094 24.1757C71.0897 29.003 68.4493 33.8607 62.9364 33.8716C57.4799 33.8694 53.1755 29.4022 53.1733 23.0497C53.1755 18.9731 55.5468 13.4341 61.5023 13.4255ZM62.3897 12.4296C55.0869 12.4426 49.8343 17.2765 49.8213 24.1085C49.8235 30.5391 55.4991 34.8544 62.2183 34.8652C68.8767 34.8522 74.4308 29.988 74.4438 23.0497C74.4417 16.8577 68.8724 12.4405 62.3897 12.4296Z" fill="white"></path><path d="M80.3466 34.3195H80.3857L80.4052 34.2891C80.5311 34.0982 80.7502 33.9441 81.0301 33.9441C81.4683 33.9398 83.8831 34.8662 85.7749 34.8662C89.7952 34.8597 92.8087 32.3517 92.8087 28.9584C92.7783 22.5972 81.8024 21.2825 81.8523 16.5289C81.8523 14.6609 83.3754 13.3939 85.6057 13.3895C87.9272 13.3895 90.0881 14.9408 91.0362 17.3751L91.0535 17.4185H91.7608L91.1642 12.9426H90.5176L90.4981 12.9686C90.292 13.2355 90.2009 13.2789 89.9405 13.2854C88.7885 13.2897 88.1788 12.4306 85.2976 12.4306C81.7872 12.4349 79.1512 14.5698 79.149 17.451C79.1838 23.5063 90.1553 25.0207 90.1076 29.8458C90.1054 32.4927 87.7319 33.7988 85.4669 33.8031C82.8352 33.8009 80.4768 32.0544 79.7652 29.0431L79.7522 28.9888H78.9668L79.7045 34.3195" fill="white"></path><path d="M97.069 18.0986L97.0799 18.04C97.5984 15.033 98.1798 14.3148 99.5011 14.3105H105.37V31.1074C105.352 32.932 104.814 33.5091 102.742 33.5286H101.41V34.3184H112.306V33.5286H110.974C108.902 33.5091 108.364 32.932 108.346 31.1074V14.3105H114.215C115.536 14.3148 116.118 15.033 116.639 18.04L116.647 18.0986H117.4L116.84 12.4295H116.066L116.057 12.4859C116.009 12.8287 115.547 12.9415 115.07 12.9393H98.6485C98.4163 12.9393 98.182 12.9068 97.9889 12.8417C97.8002 12.7766 97.6895 12.6638 97.6591 12.4859L97.6483 12.4295H96.8759L96.3162 18.0986H97.0083" fill="white"></path><path d="M132.916 33.8704C127.459 33.8704 123.157 29.4032 123.155 23.0507C123.157 18.974 125.528 13.4351 131.482 13.4243C137.075 13.4264 141.069 17.8545 141.073 24.1767C141.069 29.004 138.431 33.8617 132.916 33.8704ZM132.371 12.4284C125.064 12.4414 119.816 17.2753 119.803 24.1094C119.805 30.5401 125.478 34.8532 132.2 34.8662C138.856 34.8532 144.412 29.9868 144.425 23.0507C144.423 16.8587 138.854 12.4414 132.371 12.4284Z" fill="white"></path><path d="M155.86 33.6011V33.5295H155.791C152.89 33.5056 152.435 33.0761 152.413 30.631V16.1599L169.997 34.5601H170.987V15.4374C171 14.1422 171.455 13.7516 174.022 13.7343H174.091V12.9424H165.962V13.7299L166.031 13.7321C168.769 13.8232 169.288 14.1291 169.307 16.1902V29.6004L153.326 12.9424H147.868V13.7299L147.935 13.7321C149.104 13.7668 149.968 14.0293 150.734 14.5522V31.3144C150.721 32.8569 150.111 33.5143 148.006 33.5295H147.8V34.3192H155.86" fill="white"></path><path d="M37.3168 46.406V46.9722L37.384 46.9788C39.2455 47.0894 39.5037 47.3801 39.5276 49.5475V54.8044C39.5211 58.599 36.9892 59.6187 34.4529 59.6274C31.1204 59.6209 29.3891 57.8418 29.3826 54.8261V48.556C29.3978 47.2716 29.8599 46.9961 31.0922 46.9788H31.3656V46.406H25.4253V46.9766L25.4969 46.9788C27.0308 47.0221 27.3454 47.174 27.3671 48.5994V55.1863C27.3736 58.4471 29.6213 60.9357 33.9582 60.9443C38.8875 60.9357 40.7013 57.9026 40.7056 55.0735V48.9834C40.723 47.5559 41.2003 47.0135 42.6908 46.9788L42.7602 46.9766V46.406H42.6886" fill="white"></path><path d="M56.9364 46.9065V46.9738L57.0058 46.9759C58.8153 47.0454 59.1277 47.2233 59.1472 48.5749V57.3769L48.6226 46.4075H44.9777V46.9738L45.0471 46.9759C45.8108 46.9976 46.3727 47.169 46.8739 47.5075V58.5702C46.8609 59.5834 46.4812 59.9956 45.0927 60.0108H44.9321V60.5814H50.3083V60.0108H50.2389C48.321 59.9869 48.052 59.7309 48.0303 58.1189V48.6161L59.6158 60.7397H60.3036V48.0803C60.3188 47.2363 60.5878 46.9955 62.2866 46.9781H62.356V46.4053H56.9364" fill="white"></path><path d="M65.4319 46.907V46.972L65.4991 46.9764C66.7553 47.061 67.1068 47.3322 67.1242 48.532V58.1432C67.1025 59.6489 66.8833 59.9244 65.4991 60.0112L65.4319 60.0156V60.584H71.0554V60.0112H70.9838C69.4413 59.9917 69.1592 59.6185 69.1397 58.3016V48.7337C69.1592 47.2389 69.5714 46.9981 70.9838 46.9764H71.0554V46.4058H65.4319" fill="white"></path><path d="M83.1152 46.9059V46.9775H83.1846C84.725 46.984 85.211 47.24 85.2131 47.854C85.2131 48.1491 85.0808 48.5982 84.8335 49.2252L81.3339 58.3765L77.3397 48.4376C77.2486 48.2163 77.2031 48.0276 77.2031 47.8692C77.1922 47.3138 77.7845 47.0144 79.4182 46.9753H79.4876V46.4047H73.1416V46.9753H73.2132C74.5757 46.9884 74.7796 47.2704 75.3589 48.6915L80.2708 60.9409H81.4967L86.1612 48.8716C86.708 47.483 87.2742 46.9818 88.4198 46.9753H88.4914V46.4047H83.1152" fill="white"></path><path d="M101.509 57.0801L101.494 57.1322C100.919 59.0696 100.498 59.6185 98.9468 59.6272L95.4712 59.6294C94.6445 59.6098 94.3408 59.4775 94.3234 58.4578V53.7238H98.066C98.9772 53.7411 99.3287 53.8496 99.5283 55.4443L99.5348 55.505H100.099V51.0791H99.5348L99.5283 51.142C99.4046 52.4459 99.0705 52.7583 98.2916 52.7692H94.3234V47.3626H99.0119C99.7886 47.3691 100.309 47.7119 100.613 49.6254L100.622 49.6862H101.164L100.975 46.4058H90.0082V46.9786H90.5766C92.0671 46.9959 92.2906 47.4559 92.3079 48.7142V58.2322C92.2884 59.5751 92.0541 59.9917 90.2577 60.0134H89.5569V60.584H101.672L102.047 57.0801H101.563" fill="white"></path><path d="M123.695 48.8034C123.698 47.5841 124.685 46.7553 126.149 46.7531C127.672 46.7531 129.093 47.7685 129.718 49.3696L129.733 49.4152H130.248L129.844 46.406H129.386L129.365 46.4364C129.228 46.6099 129.182 46.6273 129.015 46.6338C128.269 46.6403 127.855 46.0697 125.948 46.0697C123.62 46.0719 121.862 47.4908 121.86 49.413C121.895 53.4398 129.15 54.4464 129.102 57.6032C129.1 59.3323 127.551 60.1893 126.06 60.1915C124.331 60.1915 122.784 59.0438 122.316 57.0673L122.303 57.0131H121.739L122.231 60.5842H122.713L122.734 60.5516C122.815 60.4323 122.951 60.3347 123.127 60.3347C123.403 60.3282 125.008 60.9422 126.262 60.9443C128.931 60.9378 130.935 59.2738 130.935 57.0152C130.903 52.7889 123.646 51.9102 123.695 48.8034Z" fill="white"></path><path d="M134.883 46.907V46.9742L134.95 46.9764C136.204 47.061 136.557 47.3344 136.575 48.532V58.1432C136.553 59.6489 136.336 59.9244 134.95 60.0112L134.883 60.0156V60.584H140.506V60.0112H140.437C138.892 59.9917 138.608 59.6185 138.588 58.3016V48.7337C138.608 47.2389 139.02 46.9981 140.437 46.9764H140.506V46.4058H134.883" fill="white"></path><path d="M156.467 46.0695H156.407L156.396 46.1281C156.374 46.332 156.083 46.408 155.769 46.4058H144.914C144.765 46.4058 144.611 46.3863 144.487 46.3429C144.368 46.3038 144.305 46.2344 144.285 46.1281L144.276 46.0695H143.723L143.348 49.8641H143.892L143.903 49.8077C144.25 47.816 144.621 47.3647 145.481 47.3626H149.334V58.4361C149.316 59.6359 148.987 59.9939 147.622 60.0112L146.717 60.0134V60.584H153.968V60.0134H153.061C151.696 59.9939 151.367 59.6359 151.349 58.4361V47.3604L155.205 47.3626C156.062 47.3647 156.43 47.816 156.78 49.8077L156.791 49.8641H157.335L156.96 46.0695" fill="white"></path><path d="M168.855 46.405V46.9756H168.927C169.912 46.98 170.348 47.1535 170.348 47.5853C170.35 47.8001 170.244 48.1016 170.016 48.4922L166.889 53.8098L163.342 48.3316C163.099 47.9628 162.969 47.6742 162.971 47.4811C162.971 47.16 163.344 46.9756 164.479 46.9756H164.551V46.4029H158.408V46.9735L158.478 46.9756C159.931 47.0277 160.396 47.3076 161.511 49.0411L165.514 55.296V58.4549C165.499 59.544 165.162 59.9931 163.78 60.0105H163.281V60.5811H169.627V60.0105H169.265C167.903 59.9931 167.545 59.5896 167.529 58.4093L167.527 55.0269L171.265 48.7221C171.895 47.6721 172.513 47.0906 174.029 46.9756L174.095 46.9713V46.405" fill="white"></path><path d="M114.311 50.4688C114.302 53.1287 112.725 54.1397 110.249 54.1484C110.037 54.1484 109.857 54.1527 109.683 54.1527C109.442 54.1527 109.212 54.1462 108.926 54.1137V46.8716C109.295 46.8347 109.572 46.8347 109.978 46.8347C113.415 46.8456 114.298 48.4033 114.311 50.4688ZM117.517 58.5721C117.517 58.5743 114.651 54.9251 114.194 54.3436C114.048 54.1722 113.948 54.0572 113.864 53.9857C115.53 53.3608 116.565 52.0851 116.565 50.3342C116.558 47.9954 114.643 46.2685 110.473 46.2641C109.013 46.2641 108.559 46.288 107.639 46.3314C106.717 46.3769 105.346 46.4659 104.812 46.4659H104.741V47.0343H105.307C106.594 47.0538 106.902 47.3793 106.921 48.7613L106.919 58.2185C106.902 59.709 106.507 59.9932 105.194 60.0127H104.741V60.579H111.241V60.0127H110.651C109.403 59.9932 108.941 59.722 108.926 58.4007L108.937 54.6756C109.264 54.6973 109.564 54.719 110.026 54.7168C110.635 54.7168 111.234 54.6669 111.714 54.5823L111.722 54.5476V54.5801C111.931 54.5432 112.742 55.7083 113.584 56.7714L114.905 58.4007C116.693 60.4336 117.233 60.8263 120.286 60.8177C120.314 60.8177 120.342 60.8198 120.373 60.8198H120.442V60.2839L120.383 60.2731C119.008 60.0388 118.518 59.7654 117.517 58.5721Z" fill="white"></path></svg> 