<?xml version="1.0" encoding="UTF-8"?> <svg xmlns="http://www.w3.org/2000/svg" width="200" height="74" viewBox="0 0 200 74" fill="none"><path d="M52.2597 56.232C49.8159 55.772 47.9263 54.7949 46.0956 53.0447C44.0648 51.1033 42.7844 48.9086 42.1759 46.326C41.8457 44.9249 41.7583 42.3368 41.9927 40.9072C42.4592 38.0629 43.6976 35.777 46.0435 33.43C47.9493 31.5233 49.6049 30.4732 51.6301 29.8863C54.2608 29.1239 57.3555 29.4115 59.7965 30.6451C62.1048 31.8117 64.5948 34.4373 65.7367 36.9089C67.059 39.7708 67.3608 43.0238 66.6 46.2128C65.5118 50.7744 61.5819 54.9349 57.2991 56.0595C56.0875 56.3776 53.5032 56.4661 52.2597 56.232ZM55.6745 55.9851C57.6028 55.6355 58.9825 54.21 59.6621 51.865C60.2063 49.987 60.2562 49.2808 60.2567 43.4456C60.2573 37.7419 60.2131 36.9737 59.7715 34.9872C59.2129 32.4741 58.2494 30.9679 56.742 30.2513C54.8678 29.3604 52.5202 29.7624 51.1623 31.2068C50.1393 32.2949 49.3894 34.1911 49.0347 36.5862C48.7355 38.6066 48.6654 40.3823 48.7151 44.6847C48.7579 48.3934 48.7885 49.0458 48.9637 49.9887C49.5235 53.003 50.5257 54.7597 52.1388 55.5546C52.5225 55.7437 53.0341 55.9367 53.2758 55.9835C53.9079 56.1061 55.0031 56.1068 55.6745 55.9851ZM126.91 56.2262C123.451 55.6464 120.295 53.3522 118.275 49.9497C116.235 46.5127 115.918 41.8597 117.465 38.0644C118.391 35.7953 120.463 33.2521 122.656 31.6965C127.847 28.0129 134.319 28.9257 138.463 33.9256C140.155 35.9674 141.104 38.05 141.51 40.6078C141.704 41.83 141.643 44.6337 141.398 45.7402C141.005 47.5115 140.211 49.3149 139.185 50.7661C137.963 52.4938 135.811 54.4056 134.131 55.2557C133.387 55.6319 131.999 56.0848 131.119 56.2383C130.092 56.4174 128.015 56.4115 126.91 56.2262ZM131.039 55.8056C133.459 54.9492 134.589 52.6897 134.902 48.0836C135.028 46.231 135.027 40.5488 134.901 38.5636C134.667 34.8856 133.977 32.581 132.696 31.1973C131.464 29.8668 129.427 29.4172 127.582 30.0684C125.817 30.6911 124.565 32.4882 123.924 35.3172C123.461 37.3634 123.235 41.132 123.328 45.252C123.416 49.168 123.645 50.8081 124.369 52.6855C124.703 53.55 125.449 54.6613 125.956 55.0482C126.453 55.4272 127.148 55.7687 127.776 55.9419C128.538 56.1524 130.263 56.0804 131.039 55.8056ZM78.5648 56.0952C76.8191 55.7242 75.1407 54.8385 73.7555 53.5574C72.8115 52.6843 71.718 51.1831 71.097 49.9077C70.1557 47.9742 69.7619 46.1544 69.7619 43.7385C69.7619 39.7399 71.0271 36.5655 73.7074 33.8388C75.4839 32.0316 77.2549 31.033 79.5412 30.5493C80.7696 30.2894 82.94 30.3112 83.9839 30.594C86.516 31.2799 88.5931 33.0934 89.2447 35.1873C90.0389 37.7392 89.2755 40.138 87.371 41.0756C86.7919 41.3607 86.6466 41.3906 85.8456 41.39C85.0632 41.3894 84.8865 41.3547 84.3253 41.0913C82.3187 40.1496 81.5171 37.7803 82.5508 35.8463C82.9084 35.1771 83.8054 34.3793 84.4931 34.1187C85.613 33.6943 86.909 33.8734 88.0764 34.6138C88.3351 34.7778 88.5626 34.8961 88.5821 34.8767C88.6978 34.7609 87.7657 33.4585 87.0601 32.7501C86.1231 31.8094 85.4581 31.4119 84.2815 31.0891C83.3701 30.8391 81.9153 30.7933 81.1035 30.9892C78.9979 31.4973 77.6072 33.1819 77.0012 35.9584C76.3674 38.8625 76.2504 45.4488 76.7705 48.9495C77.2956 52.484 78.6904 54.431 81.1523 55.0661C81.8346 55.2421 83.3897 55.2714 84.0549 55.1207C85.6367 54.7625 86.9647 53.7786 87.9688 52.2208C89.065 50.5201 89.5596 49.078 89.6641 47.278C89.713 46.4363 89.7542 46.2284 89.8718 46.2284C90.0861 46.2284 89.9587 48.1246 89.6545 49.4629C88.8153 53.1545 86.6442 55.3882 83.2027 56.1008C82.0161 56.3466 79.7342 56.3438 78.5648 56.0952ZM101.803 56.0994C99.0331 55.4895 96.8571 53.926 95.0918 51.2772C92.3762 47.2023 92.2197 41.1807 94.7136 36.7212C95.6036 35.1296 97.2702 33.2779 98.7028 32.2887C101.372 30.4452 104.975 29.8366 107.75 30.7602C108.96 31.1631 109.857 31.7272 110.841 32.7051C112.235 34.0898 112.735 35.2639 112.738 37.1635C112.741 39.0946 111.937 40.4929 110.437 41.1683C110.051 41.3418 109.783 41.3834 109.078 41.3792C108.039 41.3729 107.556 41.2182 106.805 40.6514C104.966 39.2624 104.812 36.5596 106.482 34.9668C107.165 34.315 107.653 34.0594 108.456 33.932C109.456 33.7734 110.642 34.096 111.543 34.7717C111.718 34.9025 111.86 34.977 111.86 34.9371C111.86 34.8972 111.677 34.5544 111.453 34.1754C110.96 33.3394 109.761 32.1181 109.029 31.7057C107.42 30.7998 105.22 30.5974 103.594 31.2059C102.089 31.7689 100.889 33.3369 100.342 35.455C99.4833 38.7784 99.4295 46.8864 100.243 50.3137C100.884 53.0123 102.362 54.652 104.565 55.1093C105.337 55.2697 106.811 55.2496 107.492 55.0694C108.715 54.7454 109.833 53.9972 110.654 52.953C112.035 51.1964 112.761 49.3493 112.897 47.2488C112.95 46.4376 112.993 46.2284 113.109 46.2284C113.454 46.2284 113.006 49.3984 112.443 50.939C112 52.153 111.444 53.009 110.453 54.0011C109.703 54.7524 109.422 54.9605 108.638 55.3446C107.19 56.0541 106.463 56.2089 104.391 56.2485C102.945 56.2761 102.486 56.2497 101.803 56.0994ZM7.38452 55.2113C7.38452 55.0212 7.44962 55.0161 9.87463 55.0161H12.3647L12.3401 37.0745L12.3154 19.133L9.84996 19.1069C7.74797 19.0847 7.38452 19.0595 7.38452 18.9361C7.38452 18.8092 8.4173 18.7913 15.7084 18.7913C20.5278 18.7914 24.4845 18.8329 25.1064 18.8899C27.2853 19.0896 29.1466 19.5457 30.6868 20.2573C34.2541 21.9054 35.9725 24.592 35.7691 28.2034C35.7385 28.746 35.6442 29.4537 35.5595 29.7759C35.3314 30.6437 34.7092 31.8386 34.1057 32.5681C33.0422 33.8533 30.908 35.1614 29.205 35.5719C28.3717 35.7727 28.3866 35.8277 29.2998 35.9222C30.0832 36.0033 31.4705 36.4789 32.4661 37.0077C35.5502 38.6456 37.4281 40.7092 38.1615 43.2659C38.344 43.9023 38.381 44.2703 38.3806 45.4472C38.3803 46.2624 38.3252 47.1116 38.2506 47.4489C37.2713 51.8773 32.9613 54.8386 26.8151 55.3059C26.0481 55.3642 21.7102 55.4062 16.4407 55.4064C7.44954 55.4066 7.38452 55.4052 7.38452 55.2113ZM26.3757 54.7311C28.8285 53.922 30.0905 52.304 30.5707 49.3529C30.833 47.741 30.9501 45.1626 30.8226 43.8037C30.4843 40.1962 28.7886 37.6105 26.0305 36.4965C24.9623 36.065 24.2916 35.9796 21.9574 35.9778L19.7849 35.9761V45.5036V55.0311L22.7386 54.9938C25.506 54.9589 25.7353 54.9423 26.3757 54.7311ZM24.8134 35.4386C27.8646 34.798 29.3042 32.1186 29.1323 27.4004C29.046 25.0323 28.3967 23.1307 27.1352 21.551C26.5006 20.7564 26.0926 20.3946 25.2772 19.9034C24.2667 19.2948 23.6696 19.1652 21.6157 19.1088L19.7849 19.0586V27.322V35.5855L21.9574 35.5838C23.4876 35.5826 24.332 35.5397 24.8134 35.4386ZM145.058 55.2113C145.058 55.0226 145.123 55.0161 147.011 55.0161H148.964V42.8109V30.6058H146.767C144.879 30.6058 144.57 30.5852 144.57 30.4594C144.57 30.3309 145.237 30.3129 149.989 30.3129H155.408L155.417 33.0713L155.426 35.8296L155.602 35.1702C156.244 32.7613 158.138 30.6728 160.331 29.9551C161.024 29.7283 161.274 29.6974 162.39 29.701C164.506 29.7079 166.007 30.2397 167.308 31.4447C168.556 32.6002 169.32 34.0205 169.774 36.0315C169.991 36.9912 169.993 37.0953 170.029 46.0087L170.065 55.0161H172.208C174.285 55.0161 174.351 55.022 174.351 55.2113C174.351 55.4048 174.285 55.4066 167.418 55.4066C160.551 55.4066 160.486 55.4048 160.486 55.2113C160.486 55.0245 160.551 55.0161 161.999 55.0161H163.512L163.511 44.9346C163.511 39.0704 163.471 34.5092 163.416 34.0308C163.238 32.4844 162.753 31.4673 161.933 30.925C161.562 30.6795 161.443 30.6546 160.639 30.6546C159.85 30.6546 159.69 30.6865 159.181 30.9445C157.753 31.6681 156.446 33.8164 155.674 36.7084C155.469 37.4737 155.465 37.6666 155.433 46.2528L155.4 55.0161H156.966C158.467 55.0161 158.533 55.0242 158.533 55.2113C158.533 55.4047 158.467 55.4066 151.795 55.4066C145.123 55.4066 145.058 55.4048 145.058 55.2113ZM177.67 55.2113C177.67 55.0218 177.735 55.0161 179.867 55.0161H182.064V42.8109V30.6058H179.867C177.98 30.6058 177.67 30.5852 177.67 30.4594C177.67 30.3309 178.343 30.3129 183.138 30.3129H188.606V42.6645V55.0161H190.803C192.935 55.0161 193 55.0219 193 55.2113C193 55.405 192.935 55.4066 185.335 55.4066C177.735 55.4066 177.67 55.4051 177.67 55.2113ZM183.851 25.0582C182.862 24.7078 182.057 23.9723 181.588 22.9898C181.36 22.5109 181.332 22.3366 181.332 21.3788C181.332 20.1157 181.469 19.7278 182.202 18.9163C183.317 17.6822 185.318 17.2962 186.83 18.0231C187.441 18.3168 188.229 19.1362 188.572 19.8349C188.824 20.3495 188.85 20.4978 188.85 21.4276C188.85 22.3747 188.827 22.5011 188.546 23.0875C188.177 23.8551 187.487 24.5614 186.754 24.9214C186.04 25.2722 184.641 25.3381 183.851 25.0582Z" fill="#182849"></path></svg> 