<?xml version="1.0" encoding="UTF-8"?> <svg xmlns="http://www.w3.org/2000/svg" width="1084" height="243" viewBox="0 0 1084 243" fill="none"><g clip-path="url(#clip0_3092_384)"><mask id="mask0_3092_384" style="mask-type:luminance" maskUnits="userSpaceOnUse" x="145" y="-14" width="793" height="271"><path d="M938 -13.8203H145.2V256.76H938V-13.8203Z" fill="white"></path></mask><g mask="url(#mask0_3092_384)"><path d="M356.56 141.818L358.777 136.785C360.257 133.382 362.922 132.494 366.324 135.008C372.836 139.745 383.488 143.299 397.699 143.299C409.837 143.299 415.015 140.192 415.015 136.488C415.015 132.343 410.725 131.158 403.62 130.27L387.488 128.204C368.1 125.689 358.33 118.729 358.33 106.595C358.33 93.5722 368.988 83.209 393.699 83.209C407.463 83.209 416.344 85.2816 422.114 87.499C428.476 90.0134 429.365 92.086 429.365 97.2704V103.929C429.365 108.075 427.885 109.555 423.74 109.555H419.154C415.01 109.555 413.529 108.075 413.529 103.929V101.706C410.864 100.818 404.206 99.4884 396.364 99.4884C382.751 99.4884 376.087 102.002 376.087 106.147C376.087 109.254 380.081 111.03 387.331 112.069L403.168 114.142C422.555 116.656 432.767 122.432 432.767 136.343C432.767 150.55 419.299 159.584 395.325 159.584C377.713 159.584 363.508 153.958 357.883 148.779C355.816 146.851 355.521 144.332 356.56 141.818Z" fill="#12284C"></path><path d="M531.226 158.393H523.087C519.093 158.393 517.758 157.801 515.837 154.84L500.448 132.192C498.23 129.086 496.599 128.343 492.013 128.343H476.624V152.767C476.624 156.913 475.144 158.393 470.999 158.393H465.078C460.934 158.393 459.454 156.913 459.454 152.767V79.2082H453.979C449.835 79.2082 448.354 77.7282 448.354 73.5829V68.7003C448.354 64.555 449.835 63.0742 453.979 63.0742H470.999C475.144 63.0742 476.624 64.555 476.624 68.7003V111.773H490.388C494.973 111.773 496.605 111.035 498.822 107.924L511.697 88.0914C513.77 84.9851 515.099 84.3925 519.099 84.3925H527.237C531.678 84.3925 532.566 87.9459 530.047 91.6441L515.692 113.404C514.211 115.477 512.435 117.695 510.659 119.471C512.435 120.952 514.948 123.466 515.987 124.946L534.041 151.293C536.555 154.846 535.667 158.393 531.226 158.393Z" fill="#12284C"></path><path d="M559.24 172.018V167.134C559.24 162.99 560.72 161.509 564.864 161.509H571.97C576.259 161.509 578.332 160.621 579.963 157.218L580.851 155.297L546.962 91.207C544.889 87.358 546.515 84.3965 550.956 84.3965H558.653C562.647 84.3965 564.423 85.1345 565.903 87.9499L580.108 117.106C583.365 123.766 587.063 131.464 590.023 138.124C592.984 131.609 596.385 124.213 599.642 117.699L614.142 87.9499C615.472 85.1399 617.399 84.3965 621.393 84.3965H629.09C633.531 84.3965 635.156 87.358 633.084 91.207L594.458 164.475C590.017 172.911 584.839 177.649 573.294 177.649H564.859C560.72 177.643 559.24 176.163 559.24 172.018Z" fill="#12284C"></path><path d="M727.665 121.103V122.88C727.665 127.025 726.185 128.505 722.041 128.505H661.362C663.434 136.35 671.276 143.897 688 143.897C702.948 143.897 709.758 139.014 712.863 136.791C716.265 134.277 718.633 135.159 720.41 138.567L722.923 143.45C724.253 145.964 723.515 147.891 721.292 149.813C718.035 152.623 706.937 159.584 687.995 159.584C662.541 159.584 644.783 144.634 644.783 121.248C644.783 98.304 661.803 83.209 686.218 83.209C710.646 83.209 727.665 98.1592 727.665 121.103ZM661.362 114.148H711.238C709.316 106.45 701.468 99.1982 686.225 99.1982C670.981 99.1982 663.283 106.45 661.362 114.148Z" fill="#12284C"></path><path d="M835.584 118.576V152.766C835.584 156.911 834.102 158.392 829.956 158.392H824.037C819.891 158.392 818.411 156.911 818.411 152.766V119.017C818.411 107.028 811.305 100.514 799.318 100.514C789.995 100.514 778.897 106.285 773.417 112.352V152.76C773.417 156.905 771.937 158.386 767.791 158.386H761.871C757.726 158.386 756.246 156.905 756.246 152.76V100.514H750.772C746.627 100.514 745.146 99.0337 745.146 94.8884V90.0051C745.146 85.8598 746.627 84.3798 750.772 84.3798H765.127C769.272 84.3798 770.752 85.8598 770.752 90.0051V94.1504C778.746 87.6369 789.549 83.1953 801.24 83.1953C823.442 83.2007 835.584 96.3739 835.584 118.576Z" fill="#12284C"></path><path d="M937.764 90.0134V159.287C937.764 174.679 921.19 184.746 900.024 184.746C880.049 184.746 870.578 178.824 866.283 174.829C864.213 172.908 863.915 170.388 864.95 167.874L867.162 162.841C868.799 159.142 871.458 158.399 874.712 161.064C879.886 165.209 884.926 168.612 899.869 168.762C913.188 168.762 920.588 163.88 920.588 157.958V150.851C915.258 154.254 908.744 156.477 899.422 156.477C875.449 156.477 858.869 142.416 858.869 119.919C858.869 97.4212 875.442 83.209 899.422 83.209C909.779 83.209 916.591 86.1698 921.177 89.7225C922.368 87.2088 924.735 84.3928 927.691 84.3928H932.135C936.282 84.3874 937.764 85.8681 937.764 90.0134ZM920.602 131.756V108.075C916.455 103.041 910.388 99.9349 899.436 99.9349C886.265 99.9349 876.646 107.483 876.646 119.919C876.646 132.354 886.265 139.751 899.436 139.751C910.239 139.745 916.307 136.639 920.602 131.756Z" fill="#12284C"></path><path opacity="0.9" d="M166.608 175.509C154.15 182.659 145.2 176.701 145.2 166.102C145.2 154.82 145.2 120.966 145.2 120.966C145.2 120.966 145.2 87.1126 145.2 75.83C145.2 65.2321 154.144 59.2733 166.608 66.4233C186.012 77.557 244.218 110.969 244.218 110.969C251.958 115.411 251.958 126.516 244.218 130.958C244.218 130.958 186.012 164.375 166.608 175.509Z" fill="#12284C"></path><path opacity="0.6" d="M230.679 175.509C218.221 182.659 209.271 176.701 209.271 166.102C209.271 154.82 209.271 120.966 209.271 120.966C209.271 120.966 209.271 87.1126 209.271 75.83C209.271 65.2321 218.216 59.2733 230.679 66.4233C249.656 77.3142 306.585 109.993 306.585 109.993C315.085 114.87 315.085 127.062 306.585 131.94C306.585 131.94 249.656 164.618 230.679 175.509Z" fill="#12284C"></path><mask id="mask1_3092_384" style="mask-type:alpha" maskUnits="userSpaceOnUse" x="209" y="63" width="104" height="116"><g opacity="0.1"><path opacity="0.8" d="M230.679 175.509C218.221 182.659 209.271 176.701 209.271 166.102C209.271 154.82 209.271 120.966 209.271 120.966C209.271 120.966 209.271 87.1126 209.271 75.83C209.271 65.2321 218.216 59.2733 230.679 66.4233C249.656 77.3142 306.585 109.993 306.585 109.993C315.085 114.87 315.085 127.062 306.585 131.94C306.585 131.94 249.656 164.618 230.679 175.509Z" fill="#12284C"></path></g></mask><g mask="url(#mask1_3092_384)"><path d="M166.608 175.509C154.15 182.659 145.2 176.701 145.2 166.102C145.2 154.82 145.2 120.966 145.2 120.966C145.2 120.966 145.2 87.1126 145.2 75.83C145.2 65.2321 154.144 59.2733 166.608 66.4233C186.012 77.557 244.218 110.969 244.218 110.969C251.958 115.411 251.958 126.516 244.218 130.958C244.218 130.958 186.012 164.375 166.608 175.509Z" fill="#12284C"></path></g></g></g><defs><clipPath id="clip0_3092_384"><rect width="1084" height="243" fill="white"></rect></clipPath></defs></svg> 