<?xml version="1.0" encoding="UTF-8"?> <svg xmlns="http://www.w3.org/2000/svg" width="39" height="40" viewBox="0 0 39 40" fill="none"><path d="M19.9257 38.9999C30.4216 38.9999 38.9257 30.4958 38.9257 20C38.9257 9.50406 30.4216 1 19.9257 1C9.42984 1 0.925781 9.50406 0.925781 20C0.925781 30.4958 9.42984 38.9999 19.9257 38.9999ZM9.61984 19.5883L27.939 12.5251C28.7892 12.2179 29.5318 12.7325 29.2563 14.0181L29.2579 14.0166L26.1387 28.7114C25.9076 29.7533 25.2885 30.0066 24.4224 29.5158L19.6724 26.015L17.3813 28.2222C17.128 28.4755 16.9142 28.6893 16.4234 28.6893L16.7607 23.8554L25.564 15.9023C25.9471 15.565 25.4785 15.375 24.9734 15.7107L14.0943 22.5602L9.40451 21.0972C8.38643 20.7742 8.36426 20.0791 9.61984 19.5883Z" fill="#182849"></path></svg> 