<?xml version="1.0" encoding="UTF-8"?> <svg xmlns="http://www.w3.org/2000/svg" width="150" height="50" viewBox="0 0 150 50" fill="none"><rect x="3.15039" y="2.66699" width="144" height="44" rx="22" fill="#DDECF0" stroke="#52BEDA" stroke-width="5"></rect><g clip-path="url(#clip0_2038_1032)"><mask id="mask0_2038_1032" style="mask-type:luminance" maskUnits="userSpaceOnUse" x="24" y="7" width="104" height="36"><path d="M127.2 7.16699H24.6504V42.167H127.2V7.16699Z" fill="white"></path></mask><g mask="url(#mask0_2038_1032)"><path d="M51.9895 27.297L52.2763 26.6459C52.4678 26.2058 52.8125 26.0909 53.2524 26.4161C54.095 27.0289 55.4728 27.4885 57.311 27.4885C58.8811 27.4885 59.5508 27.0867 59.5508 26.6076C59.5508 26.0714 58.9959 25.9182 58.0768 25.8033L55.9901 25.536C53.4822 25.2107 52.2185 24.3104 52.2185 22.7408C52.2185 21.0563 53.5971 19.7158 56.7937 19.7158C58.5739 19.7158 59.7228 19.9839 60.4692 20.2707C61.2921 20.596 61.407 20.8641 61.407 21.5347V22.396C61.407 22.9322 61.2156 23.1238 60.6794 23.1238H60.0862C59.5501 23.1238 59.3586 22.9322 59.3586 22.396V22.1084C59.014 21.9935 58.1527 21.8216 57.1383 21.8216C55.3775 21.8216 54.5155 22.1467 54.5155 22.6829C54.5155 23.0847 55.0321 23.3145 55.9699 23.4489L58.0183 23.717C60.5262 24.0423 61.847 24.7894 61.847 26.5889C61.847 28.4265 60.105 29.595 57.0039 29.595C54.7258 29.595 52.8884 28.8673 52.1607 28.1975C51.8934 27.9481 51.8551 27.6222 51.9895 27.297Z" fill="black"></path><path d="M74.5809 29.442H73.5281C73.0115 29.442 72.8388 29.3654 72.5902 28.9824L70.5996 26.0528C70.3128 25.651 70.1018 25.5549 69.5087 25.5549H67.518V28.7143C67.518 29.2505 67.3266 29.442 66.7905 29.442H66.0246C65.4885 29.442 65.2969 29.2505 65.2969 28.7143V19.1993H64.5889C64.0528 19.1993 63.8613 19.0078 63.8613 18.4716V17.84C63.8613 17.3038 64.0528 17.1123 64.5889 17.1123H66.7905C67.3266 17.1123 67.518 17.3038 67.518 17.84V23.4116H69.2984C69.8916 23.4116 70.1025 23.3161 70.3894 22.9136L72.0548 20.3483C72.3229 19.9465 72.4949 19.8699 73.0122 19.8699H74.065C74.6393 19.8699 74.7542 20.3295 74.4284 20.8079L72.5714 23.6226C72.38 23.8907 72.1502 24.1776 71.9204 24.4074C72.1502 24.5989 72.4754 24.924 72.6098 25.1156L74.945 28.5235C75.2701 28.9832 75.1552 29.442 74.5809 29.442Z" fill="black"></path><path d="M78.2073 31.2041V30.5725C78.2073 30.0363 78.3989 29.8448 78.935 29.8448H79.854C80.4089 29.8448 80.677 29.7299 80.888 29.2898L81.0029 29.0412L76.6192 20.7511C76.3512 20.2532 76.5614 19.8701 77.1358 19.8701H78.1315C78.6481 19.8701 78.8778 19.9656 79.0694 20.3298L80.9068 24.1012C81.328 24.9626 81.8063 25.9584 82.1893 26.8198C82.5722 25.9772 83.0122 25.0205 83.4334 24.1778L85.3092 20.3298C85.4811 19.9663 85.7304 19.8701 86.247 19.8701H87.2427C87.8171 19.8701 88.0274 20.2532 87.7593 20.7511L82.7629 30.2285C82.1885 31.3197 81.5188 31.9324 80.0252 31.9324H78.9343C78.3989 31.9317 78.2073 31.7403 78.2073 31.2041Z" fill="black"></path><path d="M99.9944 24.6175V24.8473C99.9944 25.3835 99.8029 25.575 99.2668 25.575H91.4179C91.6859 26.5896 92.7004 27.5659 94.8636 27.5659C96.7971 27.5659 97.6779 26.9343 98.0797 26.6467C98.5197 26.3215 98.8261 26.4356 99.0558 26.8765L99.3809 27.508C99.5529 27.8333 99.4576 28.0826 99.1699 28.3312C98.7487 28.6946 97.313 29.5951 94.8629 29.5951C91.5703 29.5951 89.2734 27.6613 89.2734 24.6363C89.2734 21.6684 91.4749 19.7158 94.6332 19.7158C97.7928 19.7158 99.9944 21.6497 99.9944 24.6175ZM91.4179 23.7178H97.8694C97.6208 22.7221 96.6057 21.7841 94.6339 21.7841C92.662 21.7841 91.6664 22.7221 91.4179 23.7178Z" fill="black"></path><path d="M113.954 24.2923V28.7148C113.954 29.251 113.762 29.4426 113.226 29.4426H112.46C111.924 29.4426 111.733 29.251 111.733 28.7148V24.3494C111.733 22.7986 110.814 21.956 109.263 21.956C108.057 21.956 106.621 22.7025 105.913 23.4872V28.7141C105.913 29.2503 105.721 29.4419 105.185 29.4419H104.419C103.883 29.4419 103.692 29.2503 103.692 28.7141V21.956H102.983C102.447 21.956 102.256 21.7645 102.256 21.2283V20.5967C102.256 20.0605 102.447 19.869 102.983 19.869H104.84C105.376 19.869 105.568 20.0605 105.568 20.5967V21.1329C106.602 20.2903 107.999 19.7158 109.512 19.7158C112.383 19.7165 113.954 21.4205 113.954 24.2923Z" fill="black"></path><path d="M127.168 20.597V29.5577C127.168 31.5485 125.024 32.8507 122.286 32.8507C119.703 32.8507 118.478 32.0847 117.922 31.5681C117.654 31.3195 117.616 30.9935 117.75 30.6684L118.036 30.0173C118.247 29.5388 118.591 29.4428 119.012 29.7875C119.682 30.3236 120.333 30.7638 122.266 30.7833C123.989 30.7833 124.946 30.1517 124.946 29.3857V28.4665C124.257 28.9066 123.414 29.1942 122.209 29.1942C119.108 29.1942 116.963 27.3753 116.963 24.4652C116.963 21.5552 119.107 19.7168 122.209 19.7168C123.548 19.7168 124.429 20.0998 125.023 20.5593C125.177 20.2342 125.483 19.8699 125.865 19.8699H126.44C126.976 19.8692 127.168 20.0608 127.168 20.597ZM124.948 25.9965V22.9332C124.412 22.2821 123.627 21.8803 122.21 21.8803C120.507 21.8803 119.262 22.8566 119.262 24.4652C119.262 26.0738 120.507 27.0306 122.21 27.0306C123.608 27.0299 124.393 26.6281 124.948 25.9965Z" fill="black"></path><path d="M27.4196 31.6562C25.808 32.5811 24.6504 31.8103 24.6504 30.4394C24.6504 28.98 24.6504 24.601 24.6504 24.601C24.6504 24.601 24.6504 20.2219 24.6504 18.7625C24.6504 17.3917 25.8073 16.6209 27.4196 17.5458C29.9295 18.9859 37.4586 23.3078 37.4586 23.3078C38.4596 23.8823 38.4596 25.3189 37.4586 25.8934C37.4586 25.8941 29.9295 30.216 27.4196 31.6562Z" fill="#00C1FF"></path><path d="M35.7067 31.6562C34.0951 32.5811 32.9375 31.8103 32.9375 30.4394C32.9375 28.98 32.9375 24.601 32.9375 24.601C32.9375 24.601 32.9375 20.2219 32.9375 18.7625C32.9375 17.3917 34.0944 16.6209 35.7067 17.5458C38.1613 18.9545 45.5252 23.1815 45.5252 23.1815C46.6247 23.8124 46.6247 25.3895 45.5252 26.0204C45.5245 26.0204 38.1613 30.2474 35.7067 31.6562Z" fill="#6FE4FF"></path><mask id="mask1_2038_1032" style="mask-type:alpha" maskUnits="userSpaceOnUse" x="32" y="17" width="15" height="16"><path d="M35.7067 31.6562C34.0951 32.5811 32.9375 31.8103 32.9375 30.4394C32.9375 28.98 32.9375 24.601 32.9375 24.601C32.9375 24.601 32.9375 20.2219 32.9375 18.7625C32.9375 17.3917 34.0944 16.6209 35.7067 17.5458C38.1613 18.9545 45.5252 23.1815 45.5252 23.1815C46.6247 23.8124 46.6247 25.3895 45.5252 26.0204C45.5245 26.0204 38.1613 30.2474 35.7067 31.6562Z" fill="#6FE4FF"></path></mask><g mask="url(#mask1_2038_1032)"><path d="M27.4215 31.6572C25.81 32.582 24.6523 31.8113 24.6523 30.4404C24.6523 28.981 24.6523 24.602 24.6523 24.602C24.6523 24.602 24.6523 20.2229 24.6523 18.7635C24.6523 17.3926 25.8093 16.6219 27.4215 17.5467C29.9314 18.9869 37.4605 23.3088 37.4605 23.3088C38.4616 23.8833 38.4616 25.3199 37.4605 25.8944C37.4605 25.8944 29.9314 30.217 27.4215 31.6572Z" fill="#009EE4"></path></g></g></g><defs><clipPath id="clip0_2038_1032"><rect width="102.55" height="35" fill="white" transform="translate(24.6504 7.16699)"></rect></clipPath></defs></svg> 