<?xml version="1.0" encoding="UTF-8"?> <svg xmlns="http://www.w3.org/2000/svg" width="308" height="90" viewBox="0 0 308 90" fill="none"><g clip-path="url(#clip0_1092_70)"><path opacity="0.4" d="M37.1757 2.01554L41.2568 1.25868L42.0936 5.82681L48.7202 4.15896L49.9639 10.9224L56.5904 9.25459L58.2348 18.2004L54.1636 18.9607L53.3206 14.3793L46.6806 16.0533L45.4369 9.28956L38.8202 10.9611L37.1757 2.01554Z" fill="#12284C"></path><path opacity="0.4" d="M297.541 60.7239L279.606 49.791L297.977 39.6166L297.541 60.7239ZM286.32 49.9268L294.309 54.7955L294.503 45.3917L286.315 49.9202L286.32 49.9268Z" fill="#407BFF"></path><path opacity="0.4" d="M3.24146 64.9474C2.51143 56.5467 8.71251 49.107 17.055 48.3718C25.3974 47.6367 32.7856 53.881 33.5157 62.2817L27.7422 62.7949C27.2953 57.5973 22.7261 53.7354 17.5646 54.1855C12.4031 54.6356 8.56798 59.2367 9.01808 64.446L3.2446 64.9592L3.24146 64.9474Z" fill="#407BFF"></path><path opacity="0.4" d="M219.745 21.1829L222.828 18.385L225.917 21.8345L230.694 16.9177L235.272 22.0223L240.048 17.1056L246.104 23.8576L243.032 26.6532L239.93 23.1957L235.145 28.1248L230.567 23.0199L225.8 27.9347L219.745 21.1829Z" fill="#407BFF"></path><path opacity="0.4" d="M207.8 78.6132L216.565 51.1104L235.837 72.5063L207.8 78.6132ZM218.514 60.1514L214.611 72.4025L227.102 69.6811L218.521 60.1423L218.514 60.1514Z" fill="#12284C"></path></g><defs><clipPath id="clip0_1092_70"><rect width="308" height="90" fill="white"></rect></clipPath></defs></svg> 