<?xml version="1.0" encoding="UTF-8"?> <svg xmlns="http://www.w3.org/2000/svg" width="26" height="26" viewBox="0 0 26 26" fill="none"> <path d="M12.9999 25C19.6274 25 25 19.6273 25 12.9999C25 6.37249 19.6274 1 12.9999 1C6.37252 1 1 6.37249 1 12.9999C1 19.6273 6.37252 25 12.9999 25Z" fill="#182849"></path> <path d="M18.9498 13.1799C18.9498 16.3699 16.3698 18.95 13.1798 18.95C9.98981 18.95 7.40991 16.3699 7.40991 13.1799C7.40991 9.98993 9.98981 7.41016 13.1798 7.41016" fill="#182849"></path> <path d="M18.9498 13.1799C18.9498 16.3699 16.3698 18.95 13.1798 18.95C9.98981 18.95 7.40991 16.3699 7.40991 13.1799C7.40991 9.98993 9.98981 7.41016 13.1798 7.41016" stroke="white" stroke-width="1.97" stroke-miterlimit="10"></path> </svg> 