<?xml version="1.0" encoding="UTF-8"?> <svg xmlns="http://www.w3.org/2000/svg" width="24" height="24" viewBox="0 0 24 24" fill="none"><path d="M21.857 8.4852L18.857 3.4852C18.7684 3.33709 18.6428 3.21453 18.4926 3.12951C18.3423 3.0445 18.1726 2.99994 18 3.0002H13.414L12.707 2.2932C12.6142 2.20026 12.504 2.12652 12.3827 2.07621C12.2614 2.0259 12.1313 2 12 2C11.8687 2 11.7386 2.0259 11.6173 2.07621C11.496 2.12652 11.3858 2.20026 11.293 2.2932L10.586 3.0002H6C5.82739 2.99994 5.65767 3.0445 5.50744 3.12951C5.35722 3.21453 5.23164 3.33709 5.143 3.4852L2.143 8.4852C2.05024 8.64093 2.0015 8.81893 2.002 9.0002H2V19.0002C2 19.2654 2.10536 19.5198 2.29289 19.7073C2.48043 19.8948 2.73478 20.0002 3 20.0002H21C21.2652 20.0002 21.5196 19.8948 21.7071 19.7073C21.8946 19.5198 22 19.2654 22 19.0002V9.0002H21.998C21.998 8.8222 21.952 8.6442 21.857 8.4852ZM20 18.0002H14V14.0002H10V18.0002H4V10.0002H6.414L6.707 9.7072L8.707 7.7072L12 4.4142L16.293 8.7072L17.293 9.7072L17.586 10.0002H20V18.0002Z" fill="url(#paint0_linear_1962_674)"></path><path d="M11.895 12C13.0576 12 14 11.0576 14 9.89504C14 8.73248 13.0576 7.79004 11.895 7.79004C10.7325 7.79004 9.79004 8.73248 9.79004 9.89504C9.79004 11.0576 10.7325 12 11.895 12Z" fill="url(#paint1_linear_1962_674)"></path><path d="M6 12H8V15H6V12ZM16 12H18V15H16V12Z" fill="url(#paint2_linear_1962_674)"></path><defs><linearGradient id="paint0_linear_1962_674" x1="4.08333" y1="4.90326" x2="23.3069" y2="8.82301" gradientUnits="userSpaceOnUse"><stop stop-color="#00C1DE"></stop><stop offset="1" stop-color="#407BFF"></stop></linearGradient><linearGradient id="paint1_linear_1962_674" x1="10.2286" y1="8.46907" x2="14.3061" y2="9.21735" gradientUnits="userSpaceOnUse"><stop stop-color="#00C1DE"></stop><stop offset="1" stop-color="#407BFF"></stop></linearGradient><linearGradient id="paint2_linear_1962_674" x1="7.25" y1="12.4839" x2="15.0569" y2="18.2146" gradientUnits="userSpaceOnUse"><stop stop-color="#00C1DE"></stop><stop offset="1" stop-color="#407BFF"></stop></linearGradient></defs></svg> 