<?xml version="1.0" encoding="UTF-8"?> <svg xmlns="http://www.w3.org/2000/svg" width="300" height="100" viewBox="0 0 300 100" fill="none"><path d="M62.787 30.4163C62.787 37.3648 57.3512 42.485 50.6802 42.485C44.0091 42.485 38.5733 37.3648 38.5733 30.4163C38.5733 23.4188 44.0091 18.3475 50.6802 18.3475C57.3512 18.3475 62.787 23.4188 62.787 30.4163ZM57.4872 30.4163C57.4872 26.0741 54.3367 23.1032 50.6802 23.1032C47.0236 23.1032 43.8731 26.0741 43.8731 30.4163C43.8731 34.7149 47.0236 37.7293 50.6802 37.7293C54.3367 37.7293 57.4872 34.7094 57.4872 30.4163Z" fill="#12284C"></path><path d="M88.9052 30.4163C88.9052 37.3648 83.4694 42.485 76.7983 42.485C70.1273 42.485 64.6915 37.3648 64.6915 30.4163C64.6915 23.4242 70.1273 18.3475 76.7983 18.3475C83.4694 18.3475 88.9052 23.4188 88.9052 30.4163ZM83.6054 30.4163C83.6054 26.0741 80.4549 23.1032 76.7983 23.1032C73.1418 23.1032 69.9913 26.0741 69.9913 30.4163C69.9913 34.7149 73.1418 37.7293 76.7983 37.7293C80.4549 37.7293 83.6054 34.7094 83.6054 30.4163Z" fill="#12284C"></path><path d="M113.935 19.0766V40.7438C113.935 49.6566 108.679 53.2969 102.465 53.2969C96.6155 53.2969 93.095 49.3846 91.7673 46.1851L96.3815 44.2643C97.2032 46.2286 99.2164 48.5466 102.459 48.5466C106.437 48.5466 108.902 46.0926 108.902 41.4729V39.7372H108.717C107.531 41.2009 105.245 42.4796 102.362 42.4796C96.3271 42.4796 90.7988 37.2233 90.7988 30.4598C90.7988 23.6473 96.3271 18.3475 102.362 18.3475C105.24 18.3475 107.525 19.6262 108.717 21.0464H108.902V19.0821H113.935V19.0766ZM109.277 30.4598C109.277 26.2101 106.442 23.1032 102.835 23.1032C99.1784 23.1032 96.1149 26.2101 96.1149 30.4598C96.1149 34.6659 99.1784 37.7293 102.835 37.7293C106.442 37.7293 109.277 34.6659 109.277 30.4598Z" fill="#12284C"></path><path d="M122.233 6.37665V41.745H117.064V6.37665H122.233Z" fill="#12284C"></path><path d="M142.377 34.3884L146.49 37.1308C145.163 39.0951 141.963 42.4796 136.435 42.4796C129.579 42.4796 124.459 37.1798 124.459 30.4108C124.459 23.2338 129.622 18.342 135.842 18.342C142.105 18.342 145.168 23.3263 146.169 26.0197L146.719 27.3909L130.585 34.0728C131.821 36.4942 133.741 37.7293 136.435 37.7293C139.134 37.7293 141.006 36.4017 142.377 34.3884ZM129.715 30.0462L140.5 25.5681C139.906 24.0608 138.122 23.0107 136.021 23.0107C133.328 23.0107 129.579 25.3885 129.715 30.0462Z" fill="#12284C"></path><path d="M19.0064 27.2766V22.1564H36.2607C36.4294 23.0487 36.5165 24.1044 36.5165 25.247C36.5165 29.0886 35.4663 33.8388 32.0818 37.2233C28.7899 40.6513 24.5837 42.4796 19.0119 42.4796C8.68429 42.4796 0 34.0674 0 23.7398C0 13.4122 8.68429 5 19.0119 5C24.7252 5 28.7953 7.24181 31.8533 10.1638L28.2403 13.7768C26.0474 11.72 23.0765 10.1203 19.0064 10.1203C11.4648 10.1203 5.56644 16.1982 5.56644 23.7398C5.56644 31.2814 11.4648 37.3593 19.0064 37.3593C23.8981 37.3593 26.6841 35.395 28.4688 33.6103C29.9162 32.1629 30.8684 30.0952 31.2439 27.2712L19.0064 27.2766Z" fill="#12284C"></path></svg> 