<?xml version="1.0" encoding="UTF-8"?> <svg xmlns="http://www.w3.org/2000/svg" width="40" height="40" viewBox="0 0 40 40" fill="none"> <rect x="1" y="1" width="37" height="37" rx="6" fill="#330502"></rect> <path d="M15.5655 11.2712C16.1806 11.2712 16.7957 11.2789 17.4108 11.2668C17.639 11.2624 17.7636 11.345 17.8385 11.5611C18.2684 12.799 18.7049 14.0347 19.1426 15.2693C19.7422 16.9625 20.3441 18.6546 20.9438 20.3478C21.4641 21.8161 21.9811 23.2855 22.5014 24.7549C22.8199 25.6533 23.1407 26.5506 23.4604 27.449C23.467 27.4666 23.4714 27.4843 23.478 27.5008C23.6467 27.955 23.6191 27.9946 23.133 27.9946C22.2059 27.9946 21.2789 27.9858 20.3518 28.0001C20.0762 28.0046 19.9451 27.9131 19.8558 27.6474C19.4755 26.5087 19.0687 25.3777 18.6829 24.2412C18.6234 24.0659 18.5286 24.0207 18.3599 24.0207C16.5245 24.024 14.688 24.0273 12.8527 24.0174C12.6179 24.0163 12.5561 24.1497 12.501 24.3217C12.1968 25.2642 11.8936 26.2067 11.5905 27.148C11.5508 27.2704 11.51 27.3917 11.4714 27.514C11.3105 28.031 11.3039 27.9957 10.7682 27.9946C9.96015 27.9935 9.15214 27.9946 8.34524 27.9935C7.97265 27.9924 7.94289 27.9439 8.06304 27.5989C8.6594 25.8749 9.25025 24.1486 9.84772 22.4246C10.2953 21.1348 10.7527 19.8484 11.2014 18.5587C11.7966 16.8435 12.3853 15.126 12.9805 13.4119C13.1944 12.7957 13.4127 12.1828 13.3796 11.5148C13.3686 11.2921 13.5196 11.269 13.6915 11.2701C14.3166 11.2723 14.9405 11.2712 15.5655 11.2712ZM15.6184 14.2034C15.5864 14.2067 15.5556 14.21 15.5236 14.2133C15.4916 14.296 15.4553 14.3775 15.4288 14.4624C15.28 14.953 15.1334 15.4435 14.9857 15.9351C14.5249 17.4696 14.0652 19.0051 13.6045 20.5396C13.5119 20.8482 13.5207 20.8659 13.8459 20.867C14.9923 20.8681 16.1387 20.8681 17.2851 20.867C17.6357 20.867 17.6654 20.8383 17.564 20.5065C16.9721 18.562 16.3746 16.6186 15.7783 14.6752C15.7309 14.5164 15.6724 14.3599 15.6184 14.2034Z" fill="#F19F39"></path> <path d="M28.831 21.6441C28.831 23.6184 28.831 25.5926 28.831 27.5669C28.831 27.9968 28.8288 27.9979 28.4044 27.9979C27.5137 27.9979 26.6241 27.999 25.7334 27.9979C25.4027 27.9968 25.3696 27.9671 25.3696 27.6342C25.3685 23.6393 25.3707 19.6445 25.3652 15.6496C25.3652 15.4049 25.4501 15.3355 25.686 15.3377C26.6219 15.3487 27.5578 15.3509 28.4936 15.3366C28.7681 15.3321 28.8354 15.4402 28.8343 15.6926C28.8277 17.6768 28.8299 19.661 28.831 21.6441Z" fill="#F19F39"></path> <path d="M27.13 13.8901C25.913 13.8934 25.1744 13.0876 25.1777 11.9059C25.1822 10.7485 26.0133 10 27.1641 10C28.3282 10 29.0613 10.776 29.0524 11.9666C29.0447 13.1031 28.2532 13.8956 27.13 13.8901Z" fill="#F19F39"></path> </svg> 