<?xml version="1.0" encoding="UTF-8"?> <svg xmlns="http://www.w3.org/2000/svg" width="246" height="78" viewBox="0 0 246 78" fill="none"><g clip-path="url(#clip0_1733_406)"><path d="M39.5361 0.347656L50.3125 10.8457V26.5723L36.1396 26.5615C36.2181 26.9721 36.113 27.2835 36.0449 27.4395C35.8357 27.8965 35.3809 28.1873 34.8945 28.1875C34.8056 28.1875 34.7211 28.1838 34.6426 28.1631L34.3086 28.0381C34.2406 28.007 34.1657 27.9696 34.082 27.9385C34.0036 27.9124 33.8834 27.8866 33.7266 27.876L33.6699 27.8721C33.6335 27.8721 33.5905 27.8653 33.5488 27.8652H33.4707C32.8219 27.8444 31.4712 27.7547 30.2314 27.4014C30.3727 27.5832 30.5555 27.7925 30.7646 28.0107L30.7969 28.042C30.9067 28.1666 31.0538 28.3071 31.2314 28.4473C31.4354 28.6239 31.623 28.7581 31.8008 28.8672L31.8223 28.8799L31.9434 28.957C32.2729 29.1701 32.633 29.3889 32.9834 29.5967C32.9834 29.5967 32.9907 29.6016 32.9961 29.6016H40.9424L50.3135 39.0869V66.0654L39.5352 76.5693H11.1885L0.410156 66.0498L0.414062 51.6543H14.6729C14.6832 51.6181 14.6876 51.5756 14.6982 51.5342C14.8604 50.973 15.353 50.6467 15.918 50.4492C16.5851 50.2317 16.3898 50.0375 16.3789 50.0273H16.3721C15.8332 50.1001 15.4826 50.1309 15.2314 50.1309C15.0169 50.1309 14.4572 50.1304 14.1328 49.6523C13.8349 49.2212 13.9716 48.7809 14.0762 48.4951H9.7793L0.410156 38.9941V10.8301L11.1885 0.347656H39.5361ZM1.69434 11.3867V38.459L10.3115 47.1904L15.8682 47.1953C15.2455 47.7514 15.0516 48.3287 14.9521 48.6094C14.7377 49.2277 14.5128 49.4039 16.4639 49.1338C17.0813 49.0454 18.207 48.6513 18.7354 48.2979C19.2534 47.9446 20.2784 48.2302 20.1895 48.9941C19.7081 50.1634 18.4732 50.8964 17.2959 51.042C14.586 51.3798 15.7578 52.3828 15.7578 52.3828C16.0557 52.5853 16.2702 52.7824 16.4219 52.959H15.1035V52.9541H1.69922L1.69434 65.4951L11.7031 75.2656H39.0146L49.0225 65.5107V39.6289L40.4062 30.9082H33.4424C32.8878 30.5392 32.1392 30.1283 31.459 29.6865C31.459 29.6812 31.4594 29.6816 31.4541 29.6816C31.1925 29.5309 30.9363 29.343 30.6904 29.1299C30.4865 28.9688 30.3034 28.7974 30.1465 28.626C29.5451 28.0026 29.0952 27.3534 28.9746 27.0518C28.7497 26.501 28.8014 25.8045 29.3086 26.0898C30.5954 26.8277 32.7091 26.9681 33.4941 26.9941C33.583 26.9941 34.216 27.0666 34.3682 27.1133C34.5214 27.1742 34.7546 27.2848 34.7656 27.29C35.0848 27.4252 35.6605 26.9891 34.9961 26.1836C34.8234 25.9081 34.5616 25.5908 34.2529 25.2686H49.0225V11.4023L39.0146 1.64746H11.709L1.69434 11.3867Z" fill="#182849"></path><path d="M12.2231 2.9463L2.97852 11.9427V37.9156L10.8475 45.8892H18.2349C19.4957 45.3389 19.7627 45.386 20.113 44.6846C20.1654 44.573 20.2173 44.2508 20.2228 43.9361C20.2385 43.8468 20.3957 42.9 19.9351 43.1305C19.1452 43.5246 17.5493 42.4836 16.3563 43.1033C15.1634 43.7155 16.0372 42.2928 16.2046 42.0474C16.2046 42.0474 16.8429 41.2121 17.8055 40.6594C17.8422 40.6396 17.8736 40.6197 17.8996 40.5974C17.9939 40.5454 18.0882 40.5008 18.1878 40.4537C18.9201 40.1141 21.0073 38.7335 21.3841 38.3023C21.6091 38.0519 22.0069 37.4794 22.0226 37.1621C22.0905 36.887 22.1431 36.4508 21.8764 36.2798C21.4786 36.0195 21.1593 36.5276 20.5367 36.8052C19.9139 37.0803 19.4431 37.1944 18.8884 37.2142C18.3549 37.2315 17.8422 37.0283 17.5231 37.0754C17.2037 37.1274 17.0153 36.887 17.6014 36.2996C17.8681 36.0344 17.9837 35.9154 18.1092 35.8262C19.501 34.9389 20.7513 34.9289 21.4524 33.3526C21.4524 33.3526 21.9966 31.9398 20.9449 32.5421C20.3695 32.8742 20.0557 33.3526 18.4073 33.3526C16.7645 33.3526 16.1208 34.1284 15.8436 34.4655C15.8436 34.4655 14.7242 36.0195 15.0015 33.8409C15.2842 31.6696 15.7076 30.5617 16.7383 29.714C17.6276 28.9878 19.8353 28.0113 20.6308 26.9356C21.0387 26.5341 22.0645 25.3691 21.4679 24.3829C21.2166 23.967 20.6048 25.0444 19.9718 25.1832C19.2497 25.3716 18.3342 25.6046 17.6331 25.4633C16.7645 25.2923 16.2099 25.6195 15.8855 25.7657C15.5611 25.9119 14.9488 25.4484 15.6969 24.6013C16.7014 23.4631 19.1294 21.977 20.7618 21.0882C20.9868 20.9945 21.5358 20.7555 22.0381 20.4385C22.0485 20.4331 22.059 20.4279 22.0645 20.4279C22.19 20.3706 22.3732 20.2613 22.4777 20.121C22.8335 19.8246 23.0795 19.4925 22.9957 19.1546C22.9226 18.848 22.7704 18.7439 22.2891 18.6919C21.9073 18.6554 21.2745 19.0974 20.7408 19.056C19.9247 18.9883 18.7262 19.1752 19.124 18.5984C19.4952 18.0631 20.0968 17.7198 20.2695 17.6263C20.6043 17.4756 21.0545 17.2784 21.7189 16.9819C22.7602 16.5142 22.6134 15.3399 22.2107 15.2985C21.5827 15.2308 19.8877 15.7709 21.0804 14.4198C21.0804 14.4198 21.6458 13.8535 22.216 13.4844C22.6658 13.2247 23.0374 13.1258 23.482 12.9644C23.7595 12.8658 24.4871 12.2265 22.7604 12.1589C22.7604 12.1589 21.7975 12.1849 21.9807 11.7432C22.1324 11.4522 22.9802 10.9221 22.9802 10.9221C22.9802 10.9221 23.6599 10.4593 23.9374 10.184C24.2041 9.92916 24.3925 9.72666 24.3768 9.49789C24.3663 9.23814 23.6861 8.91592 23.3982 8.55207C23.1943 8.29207 23.367 8.19888 23.482 8.16765C23.5449 8.15748 23.6182 8.14683 23.7073 8.14683C24.4082 8.15203 24.6071 7.45555 25.0163 5.64695C25.1361 5.10637 25.146 4.99236 25.3232 4.98715C25.3407 4.98715 25.3506 4.99236 25.3606 4.99236C25.3606 4.99236 25.5328 5.90695 25.7848 6.93084C25.9994 7.49719 26.2339 7.73638 26.6481 7.73092C26.7305 7.73092 26.8053 7.74109 26.8677 7.75174C26.9825 7.78297 27.1596 7.87691 26.95 8.13666C26.7928 8.33941 26.3237 8.66683 26.2863 8.86437C26.1516 9.42552 26.6905 9.62826 27.2395 9.6699C28.018 9.72171 27.6936 10.205 26.8527 10.8234C26.0418 11.421 28.1178 12.6997 28.1178 12.6997C29.3005 13.6093 28.4571 13.8428 28.2176 13.9729C27.9755 14.0976 27.3118 14.5031 27.9755 14.7629C28.6467 15.0177 29.5675 15.9374 29.5675 15.9374C30.7552 17.2885 29.0634 16.7536 28.4371 16.8161C28.0329 16.8575 27.8882 18.037 28.9287 18.4998C30.5131 19.2116 30.8649 19.3313 31.4239 19.7472C32.4693 20.5163 31.9154 21.1712 30.6079 20.9424C30.6079 20.9424 29.7721 20.7347 29.1857 20.849C28.8189 20.9166 28.5669 20.9997 28.3947 21.0882C28.3049 21.2232 28.0978 21.7584 29.9168 22.3143C30.7851 22.5845 31.863 23.2346 32.8211 23.9777L47.7447 23.9623L47.7422 11.9519L38.4976 2.94531H12.2236L12.2231 2.9463ZM34.7574 32.2057C35.1866 32.9121 35.4361 33.8366 35.6207 35.1949C35.6257 36.0103 34.5428 35.6138 34.191 35.4006C33.9465 35.2346 33.6221 35.0809 33.2029 34.9817C32.4119 34.7934 30.5306 33.973 30.0166 33.7895C29.4926 33.5987 29.1108 33.9829 29.0485 34.1291H29.0535C28.9187 34.377 29.1957 34.8776 29.1957 34.8776C29.9342 36.5408 31.2941 36.4515 32.7887 37.5173C34.8447 38.9722 33.7469 39.2796 33.3227 39.0615C32.906 38.8384 32.2148 38.9772 32.2148 38.9772C30.5555 39.4308 30.059 38.7442 29.0859 38.4889C28.1178 38.2287 28.9137 39.4258 29.263 39.8249C29.6348 40.2561 31.7283 41.6392 32.4544 41.9762C34.0413 42.7099 34.8672 43.8996 35.3587 45.4115C35.8253 46.8417 35.3163 46.5294 34.9395 46.3534C34.5628 46.1749 34.453 45.7908 33.5173 45.8131C32.5766 45.8329 32.0476 45.766 31.3764 45.2405C31.1993 45.1042 31.0571 44.948 30.9373 44.8192C30.9273 44.8142 30.9223 44.8092 30.9173 44.8043C30.2736 44.316 30.3983 45.937 30.5306 46.2022C30.9947 47.1317 31.3091 46.7524 33.9889 48.1727C35.2589 48.8468 35.5583 49.7515 35.6931 50.1307C35.9077 50.7454 36.1272 50.9214 34.181 50.6512C33.5597 50.5669 32.4394 50.1729 31.9054 49.8135C31.3939 49.4615 30.3634 49.7465 30.4557 50.5099C30.9373 51.6798 32.1724 52.4135 33.3501 52.5572C34.3806 52.6886 34.8472 52.9117 35.0344 53.1397C35.5983 53.7792 34.5528 54.7161 34.5528 54.7161C34.0288 55.3184 34.5952 56.0247 34.982 56.2329C35.6107 56.5502 36.8284 57.2764 37.2326 58.3174C39.346 63.7207 37.3 62.1716 36.2994 61.5544C35.2963 60.9348 33.3851 59.346 31.6434 59.4848C29.9018 59.6211 29.3204 59.7153 28.2849 58.8974C27.2544 58.082 27.3542 59.403 27.3542 59.403V65.9192C27.4166 67.3791 27.6886 68.772 28.8563 69.9518C29.812 70.9259 30.5406 70.7425 31.8905 72.3808C32.5117 73.1343 34.5428 73.9448 35.8977 73.9596L38.4976 73.9646L47.7422 64.9575V40.1619L39.88 32.2057H34.7574ZM2.98401 54.2575L2.97877 64.9377L12.2233 73.9497H15.1951C17.9892 73.8134 19.0354 71.662 19.883 70.3385C20.5212 69.3346 21.6516 68.482 22.3684 67.7533C23.1269 66.9899 23.2632 65.2425 23.2839 63.3514V59.403L23.2894 59.4427V58.4984H23.2946V57.8688H23.2951V57.7226V56.0198C23.2951 55.6232 22.8348 55.5935 21.8302 56.6741C20.8204 57.7498 19.1307 57.6606 18.1523 57.7498C17.174 57.8366 14.3592 59.294 13.5533 60.3374C13.0562 60.9868 12.3498 60.4515 12.6375 59.1725H12.6271C12.763 58.5975 13.0141 57.8217 13.417 56.7981C13.9714 55.3704 16.0539 54.5327 16.0539 54.5327C16.0539 54.5327 16.2685 54.4385 16.4569 54.2575H2.98401Z" fill="#182849"></path></g><path d="M234.668 2.29989C234.668 1.93912 234.668 1.66573 234.668 1.4036C235.395 1.27114 236.084 1.13021 236.779 1.02029C238.604 0.729983 240.431 0.456589 242.258 0.174739C242.823 0.0873652 243.163 0.19165 243.107 0.887819C242.517 8.17646 242.959 15.4764 242.831 22.7735C242.786 25.4257 242.814 28.0807 242.857 30.7357C242.871 31.5475 243.002 32.3648 243.169 33.1597C243.3 33.7797 243.847 34.0588 244.42 34.2279C244.622 34.2871 244.84 34.2842 245.053 34.3124C246.066 34.4533 246.12 34.5351 245.879 35.6371C245.638 35.6512 245.379 35.6484 245.127 35.6794C243.197 35.9246 241.26 36.1191 239.342 36.446C237.889 36.6941 237.903 36.7702 237.792 35.2453C237.781 35.0903 237.724 34.9409 237.684 34.7718C236.995 35.1298 236.374 35.5441 235.69 35.7837C234.606 36.1614 233.499 36.5644 232.373 36.6884C230.909 36.8491 229.414 36.8124 227.969 36.3558C225.929 35.7104 224.179 34.6563 222.936 32.8919C221.883 31.3981 221.324 29.7295 220.964 27.9285C220.564 25.9387 220.72 23.9939 221.117 22.0914C221.937 18.1737 224.093 15.2565 227.935 13.6556C230.429 12.6156 233 12.5931 235.608 12.7086C236.11 12.7312 236.601 12.9369 237.106 13.0186C237.543 13.0891 237.758 12.889 237.753 12.4239C237.733 10.3101 237.753 8.19619 237.71 6.08232C237.693 5.26777 237.537 4.45886 237.46 3.64431C237.398 3.00733 236.586 2.49155 235.8 2.37035C235.454 2.31398 235.1 2.32244 234.668 2.29989ZM237.75 24.7521H237.753C237.753 22.4296 237.747 20.1072 237.755 17.7847C237.758 17.2379 237.611 16.8405 237.091 16.5249C235.664 15.6511 234.132 15.3693 232.478 15.4369C231.11 15.4933 229.921 15.933 228.886 16.787C227.209 18.168 226.738 20.1466 226.434 22.1252C226.236 23.4105 226.42 24.7492 226.361 26.0598C226.301 27.3141 226.715 28.4725 227.195 29.5463C228.313 32.052 230.432 33.2978 233.133 33.4641C234.217 33.5317 235.332 33.3541 236.41 33.154C237.506 32.9511 237.75 32.5452 237.75 31.4375C237.75 29.2081 237.75 26.9815 237.75 24.7521Z" fill="#182849"></path><path d="M158.079 35.5488C158.142 36.3267 158.071 36.3859 157.231 36.3859C153.9 36.3803 150.566 36.3887 147.235 36.3916C147.028 36.3916 146.818 36.3916 146.559 36.3916C146.559 36.0421 146.559 35.7489 146.559 35.4868C147.11 35.298 147.655 35.112 148.199 34.9203C148.829 34.6976 149.221 34.1847 149.323 33.6012C149.536 32.3837 149.7 31.1463 149.726 29.9146C149.783 27.2399 149.78 24.5595 149.723 21.8847C149.692 20.4248 149.57 18.9197 148.636 17.7134C148.174 17.1158 147.516 16.5042 146.823 16.2816C145.66 15.9123 144.423 15.622 143.157 16.0786C142.485 16.321 141.75 16.3943 141.055 16.5775C140.618 16.6931 140.351 16.9467 140.354 17.4738C140.383 22.4287 140.417 27.3836 140.394 32.3357C140.385 34.258 141.356 35.1627 143.214 35.3769C143.509 36.2337 143.407 36.3859 142.562 36.3859C139.134 36.3859 135.709 36.3859 132.282 36.3859C132.188 36.3859 132.097 36.3718 131.919 36.3577C131.904 36.0421 131.89 35.7349 131.879 35.4389C132.951 35.1993 134.027 34.9936 134.501 33.9648C134.81 33.2884 135.006 32.4992 135.014 31.7579C135.062 27.1553 135.125 22.5527 135 17.9529C134.955 16.321 134.651 15.56 132.446 15.4529C132.305 15.4473 132.165 15.4304 131.961 15.4135C131.961 14.9991 131.961 14.5933 131.961 14.1057C132.2 14.0944 132.452 14.0916 132.705 14.069C134.225 13.9422 135.752 13.8436 137.264 13.6604C137.806 13.5955 138.345 13.37 138.85 13.1389C139.821 12.6964 140.13 12.8571 140.136 13.8943C140.139 14.148 140.136 14.4016 140.136 14.7652C140.947 14.3537 141.651 13.976 142.372 13.6406C142.851 13.418 143.35 13.2404 143.85 13.0656C145.416 12.516 147.07 12.4653 148.645 12.719C150.764 13.06 152.714 13.9676 153.803 15.9687C154.266 16.8199 154.584 17.8092 154.714 18.7703C155.33 23.2573 154.845 27.7782 155.029 32.2822C155.069 33.263 155.222 34.227 156.141 34.7766C156.695 35.1148 157.361 35.2726 158.079 35.5488Z" fill="#182849"></path><path d="M87.6337 10.4137C86.8705 10.6081 86.5668 10.4588 86.4675 9.74004C86.3058 8.56191 85.9455 7.38377 84.7793 6.80034C83.9621 6.39166 83.057 6.04217 82.1576 5.93506C80.9233 5.7885 79.655 5.85333 78.4037 5.90124C76.6559 5.97171 75.0556 7.18648 74.491 8.78739C73.8923 10.4869 74.5392 12.9475 76.0288 14.0383C78.0576 15.5208 80.1856 16.868 82.2427 18.3139C84.0359 19.5738 86.0022 20.6843 87.0606 22.708C87.523 23.593 87.7614 24.6048 88.0253 25.58C88.187 26.1832 88.3118 26.8314 88.2693 27.4459C88.0877 29.9431 87.5202 32.3219 85.4518 34.013C84.1891 35.0474 82.7761 35.8394 81.1049 36.0592C79.5046 36.2678 77.9015 36.6314 76.3012 36.6398C74.7917 36.6483 73.2794 36.2931 71.7728 36.0705C71.0805 35.969 70.3995 35.8055 69.7157 35.6618C69.1283 35.5406 68.7737 35.2728 68.785 34.5767C68.8162 32.8151 68.7964 31.0535 68.7737 29.2948C68.768 28.8128 68.8616 28.5676 69.4319 28.5789C69.9654 28.5874 70.147 28.7226 70.1895 29.2835C70.3598 31.4425 71.4777 32.6235 73.444 33.2463C75.3876 33.8608 77.3369 33.9256 79.289 33.4944C81.4028 33.0237 82.813 31.7272 83.0286 29.4442C83.179 27.8489 83.0854 26.2424 81.8795 25.0642C80.7956 24.0073 79.533 23.1223 78.3044 22.2232C76.3807 20.8111 74.3917 19.4808 72.4821 18.049C71.0521 16.978 70.0817 15.5433 69.7838 13.7649C69.605 12.6938 69.3809 11.5664 69.5313 10.5151C69.9455 7.64871 71.3301 5.39109 74.1193 4.13968C76.1111 3.24621 78.1852 2.94464 80.3416 3.04328C80.9091 3.06865 81.4794 3.02355 82.0441 3.06583C83.7323 3.19548 85.4206 3.33641 87.106 3.51397C87.2932 3.5337 87.6082 3.79582 87.6082 3.95084C87.6451 6.09854 87.6337 8.25469 87.6337 10.4137Z" fill="#182849"></path><path d="M176.438 25.0934C176.438 24.5551 176.441 24.014 176.438 23.4756C176.432 21.7902 176.983 20.24 177.675 18.7434C178.833 16.2462 180.734 14.4536 183.29 13.4446C184.391 13.0105 185.614 12.8386 186.8 12.678C187.683 12.5596 188.596 12.6103 189.49 12.661C191.496 12.7738 193.338 13.4136 195.029 14.4874C196.643 15.5105 197.755 16.9846 198.473 18.6926C198.922 19.7608 199.058 20.9643 199.302 22.1143C199.424 22.6836 199.549 23.2642 199.546 23.842C199.534 25.753 199.285 27.6188 198.646 29.4509C197.997 31.3111 197.018 32.9176 195.545 34.2C194.263 35.3162 192.762 36.0321 191.076 36.4576C189.059 36.9678 187.007 36.934 185.041 36.6324C182.255 36.2068 179.837 34.8708 178.254 32.3877C177.582 31.3336 177.025 30.2147 176.813 28.9745C176.594 27.6921 176.432 26.4012 176.248 25.1132C176.31 25.1075 176.376 25.1019 176.438 25.0934ZM194.044 24.8482C194.019 24.8426 193.993 24.837 193.967 24.8341C193.925 23.9435 193.953 23.0444 193.823 22.165C193.695 21.2997 193.488 20.426 193.17 19.6115C192.85 18.7856 192.424 17.9796 191.916 17.2524C190.784 15.6289 189.124 15.2851 187.234 15.395C185.841 15.4767 184.808 16.094 183.957 17.0917C182.425 18.8843 182.096 21.1109 181.883 23.3206C181.69 25.302 181.9 27.2722 182.49 29.2085C183.205 31.5506 184.232 33.4729 186.934 34.0422C188.094 34.2874 189.152 34.1408 190.137 33.6899C192.205 32.7429 193.079 30.8488 193.556 28.7941C193.854 27.5089 193.891 26.1645 194.044 24.8482Z" fill="#182849"></path><path d="M121.399 34.4536C120.684 34.9102 120.015 35.4514 119.254 35.7981C117.532 36.5816 115.756 37.0213 113.824 36.4999C112.831 36.2321 111.837 36.0461 111.023 35.364C110.013 34.5128 109.145 33.5883 109.02 32.1819C108.946 31.3505 108.708 30.5162 108.762 29.6988C108.929 27.1988 110.308 25.4344 112.538 24.4226C113.983 23.7687 115.552 23.391 117.07 22.8978C118.219 22.5229 119.376 22.1819 120.514 21.7788C120.761 21.6915 121.096 21.4124 121.113 21.201C121.221 19.727 121.155 18.2642 120.114 17.0607C119.056 15.8402 117.623 15.5556 116.116 15.6768C114.431 15.8149 113.069 16.5731 112.135 18.0415C112.03 18.2078 111.571 18.2952 111.355 18.2134C110.952 18.0584 110.683 17.7117 110.898 17.2241C111.358 16.1813 111.928 15.2061 112.85 14.5015C114.542 13.2078 116.428 12.5539 118.607 12.6131C120.114 12.6553 121.595 12.6976 122.963 13.3741C124.305 14.0364 125.315 15.0088 125.82 16.4829C126.7 19.0533 126.478 21.7027 126.458 24.3352C126.444 26.4153 126.28 28.4953 126.246 30.5782C126.234 31.218 126.385 31.8775 126.555 32.5032C126.751 33.2163 127.88 33.532 128.709 33.0726C129.151 32.8274 129.353 33.0726 129.506 33.329C129.611 33.5038 129.614 33.8505 129.503 34.0196C128.425 35.6487 126.878 36.6436 124.929 36.6633C123.386 36.669 122.131 36.0743 121.399 34.4536ZM121.153 28.563C121.15 28.563 121.15 28.563 121.153 28.563C121.15 27.5314 121.155 26.4998 121.15 25.4654C121.144 24.6058 120.894 24.4564 120.066 24.7664C119.507 24.9778 118.928 25.1385 118.38 25.3724C117.467 25.7586 116.505 26.0855 115.679 26.6182C114.269 27.5286 113.9 28.9688 114.039 30.5613C114.124 31.5196 114.49 32.4243 115.373 32.8302C117.098 33.625 118.849 33.4333 120.562 32.6413C121.059 32.4102 121.172 32.0776 121.158 31.5872C121.136 30.581 121.153 29.572 121.153 28.563Z" fill="#182849"></path><path d="M161.201 16.1638C161.011 14.7799 161.119 14.6446 162.764 14.0612C163.565 13.7765 164.124 13.3397 164.135 12.3757C164.149 11.2032 164.291 10.0336 164.325 8.86106C164.393 6.56962 165.003 4.47547 166.493 2.68009C167.299 1.70771 168.329 1.051 169.498 0.616947C171.875 -0.259607 174.341 -0.0454009 176.756 0.304093C177.706 0.4422 178.597 1.13273 179.457 1.66543C179.641 1.78099 179.723 2.40669 179.582 2.62654C179.011 3.51718 178.347 4.35146 177.692 5.18292C177.275 5.7128 177.13 5.67616 176.747 5.08709C176.214 4.25845 175.76 3.39317 174.778 2.92248C172.908 2.0262 170.675 2.42924 169.813 4.41065C169.557 4.9969 169.407 5.67052 169.387 6.3075C169.327 8.41856 169.359 10.5324 169.33 12.6463C169.324 13.1705 169.523 13.3368 170.042 13.3227C171.319 13.2917 172.596 13.3256 173.873 13.3087C174.378 13.303 174.622 13.4693 174.591 14.002C174.562 14.4924 174.568 14.9885 174.588 15.4817C174.611 16.006 174.367 16.1807 173.859 16.1723C172.678 16.1497 171.495 16.1666 170.312 16.1666C170.031 16.1666 169.75 16.1666 169.393 16.1666C169.373 16.4456 169.344 16.6711 169.344 16.8938C169.344 21.5189 169.327 26.1469 169.361 30.7721C169.37 31.7445 169.551 32.7168 169.673 33.6864C169.747 34.2811 170.434 34.749 171.262 34.9491C171.648 35.0421 172.026 35.1746 172.417 35.2479C172.78 35.3155 173.158 35.3268 173.558 35.3662C173.558 35.696 173.558 35.9722 173.558 36.3273C173.294 36.3499 173.024 36.3922 172.755 36.395C169.021 36.3978 165.287 36.395 161.556 36.3865C161.252 36.3865 160.858 36.5105 160.812 35.9863C160.773 35.5579 160.937 35.4423 161.369 35.3042C162.066 35.0816 162.801 34.7518 163.321 34.2586C163.704 33.8922 163.936 33.1988 163.948 32.6464C164.024 28.5201 164.027 24.391 164.053 20.2619C164.061 19.1373 164.064 18.0099 164.09 16.8853C164.101 16.3611 163.933 16.1159 163.352 16.1553C162.651 16.2004 161.942 16.1638 161.201 16.1638Z" fill="#182849"></path><path d="M90.3289 16.1689C89.8862 15.2247 90.6325 15.0133 91.0694 14.8414C93.1038 14.0296 94.5282 12.533 95.7823 10.8476C96.3526 10.0809 96.7555 9.19028 97.3117 8.40674C97.4649 8.18971 97.899 8.06006 98.1884 8.08261C98.3558 8.0967 98.6112 8.49411 98.6197 8.72805C98.6623 9.99355 98.6622 11.2647 98.6367 12.533C98.6254 13.1277 98.8041 13.3504 99.4454 13.3391C101.525 13.2997 103.608 13.3391 105.688 13.3137C106.275 13.3053 106.519 13.4462 106.516 14.0945C106.499 16.1717 106.525 16.1717 104.445 16.1689C102.742 16.1661 101.04 16.183 99.3375 16.1604C98.824 16.152 98.6282 16.2957 98.6339 16.8341C98.6679 21.4141 98.6566 25.9942 98.7105 30.5714C98.7303 32.2823 100.05 34.0748 102.112 33.9593C103.327 33.8916 104.555 34.0354 105.645 33.3054C105.747 33.2377 106.119 33.3448 106.119 33.3871C106.142 33.7704 106.269 34.2975 106.071 34.5145C105.239 35.4249 104.153 35.9717 102.981 36.3832C101.437 36.9215 99.8539 36.7665 98.2906 36.6932C96.2448 36.5974 94.2359 34.7203 93.6685 32.86C93.2344 31.4423 93.311 30.0303 93.2996 28.6182C93.2684 24.7428 93.2996 20.8673 93.345 16.9919C93.3535 16.338 93.1521 16.1238 92.5051 16.1633C91.7589 16.2055 91.007 16.1689 90.3289 16.1689Z" fill="#182849"></path><path d="M201.86 36.3783C201.792 35.8005 201.65 35.4172 202.436 35.2453C203.211 35.0762 204.105 34.7972 204.476 33.9516C204.723 33.3907 204.947 32.7622 204.953 32.1619C204.993 27.3028 204.99 22.4437 204.979 17.5846C204.976 16.2881 204.065 15.5327 202.632 15.4679C202.181 15.4482 201.821 15.4735 201.815 14.8224C201.809 14.1911 202.011 14.0164 202.626 14.0361C204.352 14.0868 206.046 13.8501 207.711 13.3963C208.267 13.2441 208.84 13.1398 209.405 13.013C209.879 12.9087 210.14 13.0665 210.103 13.5823C210.097 13.6753 210.089 13.774 210.109 13.8642C210.171 14.146 210.245 14.4222 210.316 14.7013C210.571 14.5772 210.846 14.4842 211.076 14.3208C212.01 13.6584 213.045 13.1849 214.166 13.0581C215.468 12.9087 216.782 12.8833 218.067 13.3371C218.853 13.6161 219.673 14.3546 219.58 14.9126C219.526 15.2199 219.375 15.5214 219.225 15.8033C218.771 16.6573 218.3 17.5028 217.832 18.3484C217.599 18.7683 216.816 18.805 216.513 18.3738C215.429 16.8264 213.88 16.4064 212.106 16.584C211.652 16.6291 211.173 16.7728 210.79 17.0068C210.548 17.1533 210.338 17.5564 210.336 17.8467C210.321 22.7537 210.347 27.6579 210.353 32.5649C210.355 33.8614 211.082 34.8507 212.571 34.9747C212.949 35.0057 213.323 35.0565 213.701 35.0818C214.169 35.1128 214.416 35.2707 214.404 35.8146C214.39 36.3896 214.072 36.3868 213.664 36.3671C211.896 36.291 210.128 36.1641 208.361 36.167C206.451 36.1698 204.542 36.2994 202.632 36.3727C202.385 36.3868 202.153 36.3783 201.86 36.3783Z" fill="#182849"></path><path d="M87.6686 49.7605C87.5523 49.3123 87.643 49.1066 88.1254 49.1094C90.2761 49.1263 92.4297 49.1207 94.5804 49.1094C95.0685 49.1066 95.2047 49.3067 95.0599 49.7858C94.2286 49.8197 93.5703 50.1523 93.2157 50.9217C93.1022 51.1641 93.0255 51.4488 93.0227 51.7165C93.0142 55.8033 92.966 59.8902 93.0539 63.9742C93.088 65.5103 93.6413 66.9449 95.1734 67.72C95.5622 67.9173 95.9963 68.0638 96.4276 68.1371C98.3144 68.45 100.179 68.4612 101.756 67.1732C102.5 66.5672 102.917 65.6906 102.956 64.7436C103.09 61.6517 103.189 58.557 103.24 55.4651C103.263 54.1573 103.212 52.8383 103.061 51.539C102.911 50.2453 102.593 50.0085 101.299 49.7774C101.14 49.3208 101.24 49.1094 101.796 49.115C103.688 49.1348 105.578 49.132 107.471 49.1122C107.981 49.1066 108.101 49.3095 107.956 49.7492C107.664 49.845 107.377 49.9211 107.105 50.0339C105.836 50.5468 106.001 51.756 105.964 52.7227C105.862 55.561 105.919 58.4048 105.899 61.2459C105.893 62.1844 105.921 63.1343 105.799 64.0616C105.479 66.4347 104.605 68.4922 102.105 69.3603C101.217 69.6704 100.278 69.9212 99.3472 70.003C98.1271 70.1101 96.8815 70.1185 95.6643 69.9973C93.3887 69.7718 91.3997 68.9545 90.3556 66.7363C90.0662 66.1191 89.8761 65.4285 89.7796 64.7521C89.1809 60.5018 89.6207 56.2261 89.4959 51.9617C89.4533 50.6032 89.3313 50.2086 87.6686 49.7605Z" fill="#182849"></path><path d="M125.05 69.3487C125.161 69.8785 124.937 69.9885 124.517 69.9659C122.965 69.8842 121.416 69.8024 119.863 69.7686C119.356 69.7573 118.845 69.9236 118.331 69.949C118.136 69.9575 117.934 69.7968 117.735 69.7151C117.86 69.5572 117.96 69.3007 118.119 69.2585C119.506 68.8808 119.739 67.8379 119.736 66.626C119.73 64.5854 119.795 62.5392 119.722 60.5014C119.69 59.6953 119.469 58.8526 119.146 58.1085C118.78 57.2629 117.971 56.9022 117.04 56.905C116.13 56.905 115.179 56.7471 114.359 57.2827C114.089 57.4574 113.755 57.7956 113.752 58.0634C113.718 61.0679 113.729 64.0724 113.76 67.0769C113.772 68.0888 114.132 68.9146 115.244 69.219C115.451 69.2754 115.613 69.4868 115.798 69.6277C115.545 69.7404 115.292 69.9575 115.043 69.9518C113.633 69.9124 112.225 69.7827 110.815 69.763C110.049 69.7517 109.28 69.9011 108.488 69.9828C108.335 69.6361 108.21 69.3881 108.735 69.2444C110.199 68.8498 110.381 68.1649 110.432 66.7556C110.523 64.1542 110.469 61.547 110.466 58.9399C110.463 57.0205 110.324 56.8599 108.452 56.4963C108.227 55.9749 108.474 55.8114 108.974 55.7438C110.16 55.5831 111.34 55.3858 112.523 55.2026C112.546 55.1998 112.571 55.197 112.594 55.1885C112.918 55.1068 113.238 55.025 113.562 54.9405C113.638 55.2759 113.715 55.6113 113.817 56.0735C114.081 55.9016 114.299 55.7099 114.549 55.6028C116.308 54.8587 118.07 54.4923 120.003 55.0673C121.512 55.5183 122.304 56.5386 122.882 57.8492C122.936 57.9732 122.948 58.1226 122.951 58.2607C123.036 60.7381 123.115 63.2184 123.195 65.6959C123.214 66.3047 123.243 66.9163 123.257 67.5251C123.277 68.3453 123.535 68.971 124.463 69.1204C124.659 69.1514 124.849 69.2669 125.05 69.3487Z" fill="#182849"></path><path d="M210.668 55.199C212.992 55.199 215.159 55.199 217.375 55.199C217.449 55.5091 217.616 55.7656 217.089 55.9149C216.059 56.2052 215.713 56.8761 216.087 57.8653C216.862 59.9116 217.687 61.9381 218.476 63.9787C218.649 64.4296 218.746 64.9088 218.905 65.3654C218.956 65.5119 219.106 65.6275 219.208 65.7571C219.333 65.6388 219.517 65.5458 219.569 65.402C220.17 63.7081 220.76 62.0085 221.331 60.3033C221.623 59.4296 221.958 58.5531 222.114 57.6511C222.321 56.4645 222.23 56.4307 221.155 55.9121C220.987 55.8304 220.891 55.6077 220.763 55.4499C220.928 55.3569 221.089 55.1878 221.254 55.1849C222.931 55.1652 224.605 55.1737 226.492 55.1737C226.339 55.5006 226.287 55.8529 226.12 55.9206C224.914 56.4054 224.699 57.5581 224.279 58.5502C223.808 59.6692 223.416 60.8248 222.999 61.9663C222.46 63.4347 221.938 64.9088 221.39 66.3716C220.984 67.4539 220.545 68.5221 220.133 69.6016C219.603 70.9996 219.1 72.4088 218.558 73.804C217.929 75.4218 217.14 76.9438 215.432 77.6907C214.949 77.8993 214.382 77.9838 213.851 77.9951C212.912 78.012 211.964 77.9753 211.028 77.8682C210.588 77.8175 210.129 77.6202 209.76 77.3722C209.391 77.127 209.09 76.738 209.612 76.304C209.694 76.2335 209.743 76.1236 209.814 76.0419C210.812 74.8919 210.812 74.8919 211.953 75.7995C212.765 76.4421 214.64 76.1856 215.33 75.2189C215.897 74.4212 216.294 73.5052 216.748 72.6315C216.916 72.3073 216.992 71.9353 217.171 71.6224C217.784 70.5599 217.31 69.6608 216.873 68.6827C216.28 67.3637 215.849 65.9714 215.321 64.6241C214.901 63.5559 214.424 62.5102 214.002 61.442C213.596 60.4133 213.255 59.3563 212.833 58.336C212.43 57.3608 212.248 56.1968 210.943 55.8698C210.821 55.836 210.778 55.4809 210.668 55.199Z" fill="#182849"></path><path d="M153.616 61.8654C153.551 63.8947 153.858 65.6676 155.421 66.9641C156.099 67.5278 156.914 67.9308 157.83 67.8857C158.9 67.8322 159.967 67.6941 161.031 67.5616C161.218 67.539 161.385 67.2826 161.564 67.2797C161.822 67.2741 162.137 67.3389 162.319 67.4996C162.415 67.587 162.37 68.0125 162.242 68.1422C161.076 69.3372 159.64 70.0193 157.958 70.0052C156.843 69.9968 155.708 69.9122 154.615 69.7008C153.058 69.3993 151.894 68.4551 151.179 67.0514C150.368 65.4618 150.092 63.7679 150.314 61.981C150.487 60.5886 150.748 59.2498 151.463 58.0097C152.286 56.5807 153.387 55.521 155.035 55.1715C155.943 54.977 156.888 54.7938 157.804 54.8417C159.22 54.915 160.56 55.3659 161.496 56.5272C162.665 57.9759 163 59.6867 162.881 61.4905C162.872 61.6315 162.449 61.8485 162.217 61.8513C159.688 61.8767 157.158 61.8682 154.629 61.8682C154.323 61.8654 154.019 61.8654 153.616 61.8654ZM159.297 60.132C159.487 59.0864 159.291 58.1816 158.676 57.4009C158.026 56.5807 156.193 56.234 155.254 56.6822C154.204 57.1839 153.517 58.9201 153.636 59.7882C153.653 59.915 153.855 60.1151 153.974 60.1151C155.739 60.1405 157.501 60.132 159.297 60.132Z" fill="#182849"></path><path d="M134.496 55.1946C136.664 55.1946 138.832 55.1946 141.039 55.1946C141.175 55.5582 141.232 55.7865 140.707 55.9499C139.671 56.2741 139.498 56.8941 139.904 57.9229C140.591 59.6619 141.204 61.4291 141.865 63.1794C142.112 63.8305 142.398 64.4646 142.668 65.1073C142.727 65.0988 142.79 65.0903 142.849 65.0819C143.363 63.7826 143.874 62.4832 144.393 61.1867C144.787 60.2059 145.193 59.2279 145.585 58.247C145.678 58.0131 145.772 57.7679 145.803 57.5199C145.928 56.4601 145.851 56.3586 144.915 55.9302C144.722 55.84 144.583 55.6371 144.418 55.4877C144.64 55.3806 144.861 55.1833 145.085 55.1805C146.597 55.1523 148.113 55.1608 149.625 55.1777C149.804 55.1805 149.982 55.313 150.164 55.3834C150.068 55.5835 150.022 55.8992 149.866 55.9669C148.084 56.7476 147.959 58.5824 147.225 60.0199C146.782 60.8823 146.399 61.773 146.004 62.658C145.451 63.8953 144.912 65.1383 144.364 66.3784C143.879 67.4748 143.456 68.6078 142.858 69.6394C142.685 69.9353 141.995 70.0143 141.538 70.0312C141.334 70.0396 141.022 69.6845 140.914 69.4308C140.035 67.3282 139.183 65.2144 138.346 63.0948C137.722 61.5137 137.138 59.9156 136.522 58.3316C136.357 57.9088 136.215 57.455 135.952 57.0971C135.634 56.6715 135.188 56.3417 134.805 55.9584C134.629 55.7837 134.476 55.5864 134.314 55.3975C134.371 55.3242 134.434 55.2594 134.496 55.1946Z" fill="#182849"></path><path d="M186.785 55.2512C186.785 56.3532 186.802 57.4525 186.765 58.5517C186.759 58.6982 186.464 58.9745 186.354 58.9519C186.135 58.9068 185.834 58.7321 185.772 58.5432C185.534 57.8414 185.352 57.103 184.594 56.776C183.584 56.3392 182.478 56.2743 181.496 56.6858C180.301 57.1875 180.432 59.1689 181.394 59.7411C182.716 60.5303 184.016 61.3561 185.326 62.165C187.003 63.2022 187.585 65.3443 186.89 67.2242C186.359 68.6588 185.341 69.4762 183.922 69.696C182.52 69.9159 181.079 69.9328 179.655 69.9581C179.132 69.9694 178.579 69.8144 178.088 69.6171C177.844 69.5213 177.578 69.1831 177.538 68.9209C177.387 67.9514 177.308 66.9705 177.254 65.9925C177.246 65.829 177.475 65.5613 177.649 65.5049C177.949 65.4063 178.216 65.4655 178.293 65.908C178.454 66.8493 178.925 67.6132 179.799 68.0979C180.46 68.4672 182.739 68.3742 183.349 67.9796C184.484 67.2468 184.464 65.5838 183.442 64.8454C182.512 64.1718 181.55 63.5179 180.534 62.9852C178.366 61.8493 177.294 59.8538 177.935 57.5821C178.27 56.3955 179.141 55.5472 180.401 55.1667C182.523 54.5269 184.626 54.7439 186.785 55.2512Z" fill="#182849"></path><path d="M208.899 55.1655C208.899 55.7969 208.899 56.3042 208.899 56.9158C207.545 56.9158 206.231 56.9158 204.915 56.9158C203.933 56.9158 203.927 56.9158 203.927 57.8572C203.927 60.3685 203.916 62.8826 203.947 65.3939C203.962 66.4254 204.086 67.4767 205.145 68.0348C206.07 68.5224 207.046 68.373 208.016 68.1109C208.272 68.0433 208.561 68.1081 208.836 68.1137C208.731 68.3617 208.694 68.6859 208.513 68.8465C207.715 69.554 206.796 70.0698 205.69 70.0106C204.671 69.957 203.61 69.9542 202.654 69.6611C201.493 69.3031 200.815 68.311 200.73 67.1103C200.554 64.678 200.489 62.2371 200.523 59.7907C200.543 59.9006 200.562 60.0077 200.585 60.1374C200.619 60.0894 200.659 60.0613 200.659 60.0303C200.667 59.2552 200.653 58.4801 200.682 57.705C200.704 57.1244 200.443 56.8933 199.881 56.9102C199.484 56.9243 199.084 56.913 198.457 56.913C198.676 56.5832 198.755 56.3127 198.917 56.2478C200.752 55.5037 201.916 54.0945 202.878 52.4513C203.022 52.2033 203.4 52.0877 203.669 51.9102C203.757 52.1723 203.905 52.4288 203.919 52.6937C203.956 53.325 203.947 53.962 203.93 54.5934C203.919 55.0161 204.089 55.1683 204.518 55.1627C205.698 55.143 206.881 55.1599 208.062 55.1599C208.317 55.1683 208.572 55.1655 208.899 55.1655Z" fill="#182849"></path><path d="M169.63 55.0105C169.676 55.2557 169.747 55.6334 169.806 55.9519C170.703 55.6193 171.577 55.2698 172.468 54.9738C173.625 54.5905 174.63 55.1119 175.586 55.6418C175.742 55.7292 175.753 56.3183 175.64 56.5973C175.404 57.1638 175.001 57.6599 174.737 58.2207C174.425 58.8887 174.022 58.6858 173.73 58.3081C173.038 57.409 172.121 57.2145 171.069 57.285C170.138 57.347 169.783 57.6655 169.803 58.5928C169.866 61.6396 169.948 64.6836 170.036 67.7276C170.059 68.5195 170.513 68.9367 171.327 68.9959C171.562 69.0128 171.824 68.9621 172.028 69.0466C172.221 69.1255 172.354 69.3454 172.513 69.5032C172.351 69.6554 172.187 69.9344 172.028 69.9344C171.517 69.9316 171.009 69.7766 170.498 69.7681C169.012 69.74 167.522 69.7456 166.035 69.7653C165.712 69.7681 165.394 69.9344 165.071 69.9373C164.855 69.9401 164.636 69.7851 164.418 69.7005C164.543 69.5032 164.642 69.1509 164.793 69.1283C166.455 68.8719 166.489 67.6402 166.495 66.3972C166.503 63.6746 166.503 60.9547 166.495 58.232C166.492 57.161 166.069 56.7269 165.028 56.5663C164.812 56.5325 164.631 56.2901 164.435 56.1407C164.636 55.9434 164.804 55.6475 165.045 55.5685C165.368 55.4643 165.749 55.5629 166.098 55.5178C167.25 55.3656 168.399 55.188 169.63 55.0105Z" fill="#182849"></path><path d="M134.033 69.4276C133.701 70.1097 133.202 69.9209 132.748 69.9209C130.969 69.9124 129.19 69.9209 127.408 69.9209C127.385 69.9209 127.36 69.9349 127.34 69.9321C126.98 69.8504 126.622 69.7687 126.262 69.6869C126.545 69.4699 126.798 69.1599 127.119 69.0528C127.916 68.7822 128.33 68.3876 128.336 67.5674C128.356 64.3064 128.364 61.0454 128.35 57.7816C128.344 56.8458 128.132 56.6373 127.187 56.5724C126.492 56.5245 126.426 56.1609 126.597 55.5521C126.835 55.5409 127.087 55.5211 127.343 55.5183C128.662 55.5099 129.956 55.3605 131.193 54.8644C131.681 54.6699 131.877 54.8785 131.877 55.555C131.871 58.9569 131.86 62.3616 131.854 65.7636C131.854 66.3977 131.863 67.0319 131.883 67.6632C131.905 68.4045 132.285 68.8273 133.02 69.0274C133.349 69.1148 133.659 69.2754 134.033 69.4276Z" fill="#182849"></path><path d="M195.059 61.7498C195.059 63.3704 195.005 64.991 195.084 66.606C195.118 67.2909 195.357 67.9984 195.66 68.6213C195.788 68.8806 196.344 68.9116 196.665 69.1117C196.866 69.2357 196.988 69.4837 197.147 69.6782C196.937 69.7712 196.724 69.9488 196.517 69.9431C195.107 69.8981 193.702 69.7797 192.292 69.7571C191.617 69.7459 190.942 69.9178 190.263 69.9488C190.068 69.9572 189.861 69.7656 189.656 69.6669C189.804 69.4894 189.931 69.1822 190.102 69.1568C191.671 68.9229 191.79 67.7955 191.787 66.5722C191.784 63.827 191.793 61.0818 191.784 58.3337C191.781 57.0091 191.668 56.9104 190.354 56.5355C190.147 56.4764 190.014 56.1579 189.849 55.9606C190.053 55.814 190.241 55.566 190.462 55.5378C191.577 55.3856 192.704 55.2926 193.822 55.1629C193.997 55.1432 194.159 55.0051 194.338 54.9656C194.551 54.9177 194.86 54.8134 194.973 54.9121C195.141 55.0558 195.254 55.3574 195.246 55.5885C195.166 57.6432 195.056 59.6979 194.951 61.7526C194.991 61.7469 195.025 61.7498 195.059 61.7498Z" fill="#182849"></path><path d="M131.905 50.346C132.067 51.5805 130.815 52.2654 129.973 52.2315C128.792 52.1836 128.006 51.5269 127.981 50.284C127.961 49.2608 128.948 48.4322 130.089 48.4435C131.224 48.4547 131.916 49.1819 131.905 50.346Z" fill="#182849"></path><path d="M193.399 48.4414C194.452 48.4442 195.352 49.3011 195.346 50.296C195.337 51.3755 194.446 52.283 193.329 52.2379C192.364 52.1985 191.379 51.6348 191.427 50.3777C191.473 49.1714 192.177 48.4386 193.399 48.4414Z" fill="#182849"></path><defs><clipPath id="clip0_1733_406"><rect width="50.5268" height="76.8413" fill="white"></rect></clipPath></defs></svg> 