<?xml version="1.0" encoding="UTF-8"?> <svg xmlns="http://www.w3.org/2000/svg" width="44" height="44" viewBox="0 0 44 44" fill="none"><rect width="44" height="44" rx="8" fill="white"></rect><path d="M16.516 24.3225L15.026 30.7745C14.9799 30.9699 14.9937 31.1746 15.0658 31.362C15.1378 31.5494 15.2647 31.7107 15.4298 31.8248C15.5949 31.939 15.7906 32.0007 15.9914 32.0019C16.1921 32.0031 16.3886 31.9437 16.555 31.8315L22 28.2015L27.445 31.8315C27.6154 31.9446 27.8162 32.0028 28.0207 31.9983C28.2251 31.9939 28.4232 31.9269 28.5884 31.8064C28.7536 31.686 28.878 31.5178 28.9448 31.3246C29.0116 31.1313 29.0176 30.9223 28.962 30.7255L27.133 24.3255L31.669 20.2435C31.8143 20.1127 31.9181 19.9422 31.9674 19.753C32.0168 19.5639 32.0097 19.3644 31.9469 19.1793C31.8841 18.9941 31.7685 18.8314 31.6142 18.7113C31.46 18.5912 31.2739 18.519 31.079 18.5035L25.378 18.0495L22.911 12.5885C22.8324 12.4127 22.7045 12.2633 22.5428 12.1586C22.3812 12.0538 22.1927 11.998 22 11.998C21.8074 11.998 21.6189 12.0538 21.4572 12.1586C21.2956 12.2633 21.1677 12.4127 21.089 12.5885L18.622 18.0495L12.921 18.5025C12.7295 18.5177 12.5464 18.5877 12.3936 18.7042C12.2408 18.8208 12.1248 18.9788 12.0595 19.1595C11.9942 19.3403 11.9824 19.5359 12.0254 19.7232C12.0684 19.9105 12.1644 20.0814 12.302 20.2155L16.516 24.3225ZM19.369 19.9965C19.5475 19.9825 19.7189 19.9206 19.8653 19.8175C20.0117 19.7144 20.1277 19.5738 20.201 19.4105L22 15.4295L23.799 19.4105C23.8724 19.5738 23.9883 19.7144 24.1347 19.8175C24.2811 19.9206 24.4525 19.9825 24.631 19.9965L28.603 20.3115L25.332 23.2555C25.048 23.5115 24.935 23.9055 25.039 24.2735L26.292 28.6585L22.556 26.1675C22.392 26.0575 22.199 25.9987 22.0015 25.9987C21.804 25.9987 21.611 26.0575 21.447 26.1675L17.543 28.7705L18.593 24.2245C18.6315 24.0573 18.6264 23.883 18.578 23.7184C18.5297 23.5538 18.4398 23.4044 18.317 23.2845L15.279 20.3225L19.369 19.9965Z" fill="#182849"></path></svg> 