<?xml version="1.0" encoding="UTF-8"?> <svg xmlns="http://www.w3.org/2000/svg" width="33" height="34" viewBox="0 0 33 34" fill="none"><path fill-rule="evenodd" clip-rule="evenodd" d="M16.5 1.50671C7.9433 1.50671 1.00671 8.44329 1.00671 17C1.00671 25.5567 7.9433 32.4933 16.5 32.4933C25.0567 32.4933 31.9933 25.5567 31.9933 17C31.9933 8.44329 25.0567 1.50671 16.5 1.50671ZM0 17C0 7.88729 7.38731 0.5 16.5 0.5C25.6127 0.5 33 7.88729 33 17C33 26.1127 25.6127 33.5 16.5 33.5C7.38731 33.5 0 26.1127 0 17Z" fill="black"></path><path fill-rule="evenodd" clip-rule="evenodd" d="M18.9495 11.1572C19.1463 11.3536 19.1466 11.6723 18.9502 11.8691L14.1712 16.6574L19.0505 21.5368C19.2471 21.7333 19.2471 22.052 19.0505 22.2486C18.8539 22.4452 18.5352 22.4452 18.3386 22.2486L13.1038 17.0137C12.9074 16.8173 12.9072 16.4988 13.1034 16.3022L18.2376 11.1579C18.434 10.9611 18.7527 10.9608 18.9495 11.1572Z" fill="black"></path></svg> 