<?xml version="1.0" encoding="UTF-8"?> <svg xmlns="http://www.w3.org/2000/svg" width="177" height="177" viewBox="0 0 177 177" fill="none"> <path d="M163.293 75.8085L165.976 83.9781C166.136 84.4627 166.587 84.7884 167.108 84.7884H175.808C176.959 84.7884 177.44 86.2425 176.509 86.915L169.47 91.968C169.05 92.2647 168.88 92.7988 169.04 93.2834L171.723 101.453C172.083 102.531 170.822 103.431 169.891 102.768L162.852 97.7144C162.432 97.4177 161.871 97.4177 161.461 97.7144L154.423 102.768C153.492 103.441 152.24 102.541 152.59 101.453L155.274 93.2834C155.434 92.7988 155.254 92.2746 154.843 91.968L147.805 86.915C146.874 86.2425 147.354 84.7884 148.506 84.7884H157.206C157.717 84.7884 158.177 84.4627 158.337 83.9781L161.02 75.8085C161.381 74.7305 162.923 74.7305 163.283 75.8085H163.293Z" fill="#182849"></path> <path d="M126.46 75.8085L129.143 83.9781C129.303 84.4627 129.754 84.7884 130.274 84.7884H138.974C140.126 84.7884 140.606 86.2425 139.675 86.915L132.637 91.968C132.217 92.2647 132.046 92.7988 132.206 93.2834L134.89 101.453C135.25 102.531 133.989 103.431 133.058 102.768L126.019 97.7144C125.599 97.4177 125.038 97.4177 124.628 97.7144L117.589 102.768C116.658 103.441 115.407 102.541 115.757 101.453L118.44 93.2834C118.6 92.7988 118.42 92.2746 118.01 91.968L110.971 86.915C110.04 86.2425 110.521 84.7884 111.672 84.7884H120.373C120.883 84.7884 121.344 84.4627 121.504 83.9781L124.187 75.8085C124.547 74.7305 126.089 74.7305 126.45 75.8085H126.46Z" fill="#182849"></path> <path d="M89.6365 75.8085L92.3196 83.9781C92.4798 84.4627 92.9303 84.7884 93.4509 84.7884H102.151C103.303 84.7884 103.783 86.2425 102.852 86.915L95.8137 91.968C95.3932 92.2647 95.2231 92.7988 95.3832 93.2834L98.0663 101.453C98.4268 102.531 97.1653 103.431 96.2342 102.768L89.1959 97.7144C88.7754 97.4177 88.2147 97.4177 87.8042 97.7144L80.7659 102.768C79.8348 103.441 78.5834 102.541 78.9338 101.453L81.617 93.2834C81.7772 92.7988 81.597 92.2746 81.1865 91.968L74.1481 86.915C73.2171 86.2425 73.6977 84.7884 74.849 84.7884H83.5492C84.0598 84.7884 84.5204 84.4627 84.6806 83.9781L87.3638 75.8085C87.7242 74.7305 89.266 74.7305 89.6265 75.8085H89.6365Z" fill="#182849"></path> <path d="M52.803 75.8085L55.4861 83.9781C55.6462 84.4627 56.0968 84.7884 56.6174 84.7884H65.3177C66.4691 84.7884 66.9496 86.2425 66.0185 86.915L58.9802 91.968C58.5597 92.2647 58.3895 92.7988 58.5497 93.2834L61.2328 101.453C61.5932 102.531 60.3318 103.431 59.4007 102.768L52.3624 97.7144C51.9419 97.4177 51.3812 97.4177 50.9707 97.7144L43.9325 102.768C43.0014 103.441 41.7499 102.541 42.1003 101.453L44.7835 93.2834C44.9437 92.7988 44.7634 92.2746 44.3529 91.968L37.3148 86.915C36.3837 86.2425 36.8642 84.7884 38.0155 84.7884H46.7157C47.2263 84.7884 47.6869 84.4627 47.8471 83.9781L50.5303 75.8085C50.8907 74.7305 52.4325 74.7305 52.7929 75.8085H52.803Z" fill="#182849"></path> <path d="M15.9796 75.8085L18.6628 83.9781C18.823 84.4627 19.2735 84.7884 19.7941 84.7884H28.4943C29.6457 84.7884 30.1262 86.2425 29.1951 86.915L22.1569 91.968C21.7364 92.2647 21.5662 92.7988 21.7264 93.2834L24.4096 101.453C24.77 102.531 23.5084 103.431 22.5773 102.768L15.5391 97.7144C15.1186 97.4177 14.558 97.4177 14.1475 97.7144L7.10917 102.768C6.17807 103.441 4.92664 102.541 5.27705 101.453L7.96014 93.2834C8.12033 92.7988 7.94019 92.2746 7.5297 91.968L0.491386 86.915C-0.43971 86.2425 0.0408067 84.7884 1.19216 84.7884H9.89247C10.4031 84.7884 10.8636 84.4627 11.0238 83.9781L13.7069 75.8085C14.0673 74.7305 15.6092 74.7305 15.9696 75.8085H15.9796Z" fill="#182849"></path> </svg> 