<?xml version="1.0" encoding="UTF-8"?> <svg xmlns="http://www.w3.org/2000/svg" width="300" height="100" viewBox="0 0 300 100" fill="none"><path d="M0 7V51.8546H9.46913V7H0Z" fill="#12284C"></path><path d="M15.4567 7V37.6434H24.9259V7H15.4567Z" fill="#12284C"></path><path d="M30.8985 7V51.8546H40.3676V7H30.8985Z" fill="#12284C"></path><path d="M46.2952 7V15.9739H55.8244V7H46.2952Z" fill="#12284C"></path><path d="M46.3702 21.1662V51.8096H55.8394V21.1662H46.3702Z" fill="#12284C"></path><path d="M61.737 7V15.9739H86.7229V7H61.737Z" fill="#12284C"></path><path d="M61.797 21.2112V51.8546H71.2661V21.2112H61.797Z" fill="#12284C"></path><path d="M102.353 8.67982V17.5787H104.514L104.394 11.9663C104.356 11.1205 104.357 10.9764 104.319 10.2705L104.709 11.8612L106.33 17.5787H108.236L109.916 11.6061C110.017 11.2274 110.028 11.1643 110.141 10.6607L110.216 10.3456L110.201 11.231L110.051 17.5787H112.182V8.67984H108.941L107.515 13.9922C107.414 14.4081 107.416 14.47 107.29 15.0876L106.975 13.677L105.609 8.67984L102.353 8.67982Z" fill="#12284C"></path><path d="M116.729 10.8253C115.961 10.8253 115.189 10.9164 114.584 11.3948C113.992 11.8618 113.933 12.4107 113.895 12.8645H115.829C115.88 12.625 115.99 12.0883 116.848 12.0883C117.542 12.0883 117.576 12.5941 117.601 12.8966V13.2549C116.782 13.4061 115.531 13.629 115.002 13.8565C114.459 14.0828 113.606 14.6899 113.606 15.7487C113.606 16.6689 114.256 17.7603 115.769 17.7603C116.739 17.7603 117.29 17.3457 117.781 16.9796V17.5766H119.687C119.535 17.3497 119.489 17.2486 119.489 16.5433V12.7175C119.489 11.0164 117.536 10.8253 116.729 10.8253ZM117.601 14.426C117.589 15.1067 117.551 15.7036 116.908 16.1069C116.706 16.2336 116.491 16.332 116.251 16.332C115.797 16.332 115.512 15.972 115.512 15.6569C115.512 15.1526 116.011 14.9752 116.338 14.8485L117.601 14.426Z" fill="#12284C"></path><path d="M123.617 10.7807C121.777 10.7807 120.841 11.902 120.841 12.9867C120.841 13.4777 121.047 13.9279 121.336 14.2172C121.626 14.5084 122.028 14.6734 122.432 14.7875C122.722 14.8757 123.028 14.9471 123.317 14.9976C123.696 15.0606 124.153 15.087 124.443 15.2377C124.557 15.3013 124.698 15.4003 124.698 15.6278C124.698 16.1195 123.979 16.2731 123.512 16.2731C122.782 16.2731 122.135 15.8746 121.606 15.3577L120.376 16.4682C120.792 16.859 121.744 17.7438 123.572 17.7438C125.123 17.7438 126.679 16.9826 126.679 15.4328C126.679 13.8685 125.151 13.5113 123.827 13.2718C123.198 13.1584 122.777 13.0954 122.777 12.7166C122.777 12.5275 122.951 12.2214 123.707 12.2214C124.161 12.2214 124.74 12.402 125.358 12.8816L126.559 11.7712C126.104 11.4554 125.168 10.7807 123.617 10.7807Z" fill="#12284C"></path><path d="M130.19 10.7807C128.35 10.7807 127.414 11.902 127.414 12.9867C127.414 13.4777 127.62 13.9279 127.909 14.2172C128.199 14.5084 128.601 14.6734 129.005 14.7875C129.295 14.8757 129.601 14.9471 129.89 14.9976C130.269 15.0606 130.726 15.087 131.015 15.2377C131.13 15.3013 131.271 15.4003 131.271 15.6278C131.271 16.1195 130.552 16.2731 130.085 16.2731C129.355 16.2731 128.708 15.8746 128.179 15.3577L126.949 16.4682C127.365 16.859 128.317 17.7438 130.145 17.7438C131.696 17.7438 133.251 16.9826 133.251 15.4328C133.251 13.8685 131.724 13.5113 130.4 13.2718C129.771 13.1584 129.35 13.0954 129.35 12.7166C129.35 12.5275 129.524 12.2214 130.28 12.2214C130.734 12.2214 131.313 12.402 131.931 12.8816L133.131 11.7712C132.677 11.4554 131.741 10.7807 130.19 10.7807Z" fill="#12284C"></path><path d="M137.215 10.8253C136.446 10.8253 135.675 10.9164 135.07 11.3948C134.477 11.8618 134.419 12.4107 134.381 12.8645H136.315C136.366 12.625 136.476 12.0883 137.334 12.0883C138.027 12.0883 138.062 12.5941 138.087 12.8966V13.2549C137.268 13.4061 136.017 13.629 135.488 13.8565C134.945 14.0828 134.092 14.6899 134.092 15.7487C134.092 16.6689 134.742 17.7603 136.255 17.7603C137.225 17.7603 137.775 17.3457 138.266 16.9796V17.5766H140.172C140.021 17.3497 139.975 17.2486 139.975 16.5433V12.7175C139.975 11.0164 138.022 10.8253 137.215 10.8253ZM138.087 14.426C138.075 15.1067 138.037 15.7036 137.394 16.1069C137.192 16.2336 136.977 16.332 136.737 16.332C136.283 16.332 135.998 15.972 135.998 15.6569C135.998 15.1526 136.497 14.9752 136.824 14.8485L138.087 14.426Z" fill="#12284C"></path><path d="M144.611 10.8258C142.418 10.8258 141.31 12.4363 141.31 14.3523C141.31 17.0373 143.306 17.7888 144.566 17.7888C145.31 17.7888 145.954 17.5565 146.457 17.2036C146.987 16.8254 147.253 16.4112 147.493 16.0331L146.037 15.2677C145.974 15.4568 145.901 15.6045 145.737 15.7929C145.333 16.2467 144.862 16.2582 144.761 16.2581C143.728 16.2581 143.291 15.1621 143.291 14.2923C143.291 13.4987 143.655 12.2964 144.701 12.2964C145.004 12.2964 145.233 12.3949 145.422 12.5215C145.738 12.7478 145.864 12.9723 145.977 13.2118L147.418 12.4015C146.585 11.0275 145.343 10.8258 144.611 10.8258Z" fill="#12284C"></path><path d="M147.793 8.66483V17.5787H149.744V14.3073C149.744 13.74 149.746 13.1914 149.999 12.8517C150.161 12.638 150.454 12.4765 150.794 12.4765C150.996 12.4765 151.505 12.5293 151.695 13.1218C151.77 13.3487 151.785 13.6128 151.785 14.1422V17.5787H153.705V13.2568C153.705 12.3991 153.61 11.7826 153.03 11.291C152.639 10.9632 152.114 10.8258 151.634 10.8258C150.589 10.8258 150.021 11.4194 149.744 11.6962V8.66483H147.793Z" fill="#12284C"></path><path d="M155.356 10.9908V15.1327C155.356 16.2035 155.421 16.5907 155.761 17.0685C156.215 17.6994 157.013 17.7738 157.442 17.7738C157.871 17.7738 158.297 17.6604 158.688 17.4587C159.041 17.2816 159.158 17.1627 159.348 16.9484V17.5787H161.284V10.9908H159.348V15.0876C159.335 15.44 159.314 15.7809 158.898 16.0331C158.608 16.1975 158.351 16.1981 158.237 16.1981C157.847 16.1981 157.585 16.0192 157.472 15.868C157.321 15.6663 157.322 15.3782 157.322 15.0876V10.9908H155.356Z" fill="#12284C"></path><path d="M165.381 10.7807C163.54 10.7807 162.604 11.902 162.604 12.9867C162.604 13.4777 162.81 13.9279 163.099 14.2173C163.389 14.5084 163.792 14.6735 164.195 14.7875C164.485 14.8757 164.791 14.9472 165.08 14.9976C165.459 15.0606 165.916 15.087 166.206 15.2377C166.32 15.3013 166.461 15.4004 166.461 15.6279C166.461 16.1195 165.742 16.2731 165.275 16.2731C164.545 16.2731 163.898 15.8746 163.37 15.3577L162.139 16.4682C162.555 16.859 163.508 17.7438 165.335 17.7438C166.887 17.7438 168.442 16.9827 168.442 15.4328C168.442 13.8685 166.914 13.5113 165.591 13.2718C164.961 13.1584 164.54 13.0954 164.54 12.7166C164.54 12.5275 164.714 12.2214 165.471 12.2214C165.924 12.2214 166.503 12.4021 167.121 12.8817L168.322 11.7712C167.867 11.4554 166.932 10.7807 165.381 10.7807Z" fill="#12284C"></path><path d="M172.526 10.7794C169.929 10.7794 169.146 12.8239 169.146 14.4122C169.146 16.5678 170.508 17.82 172.462 17.82C173.52 17.82 174.387 17.4177 174.955 16.8877C175.295 16.5726 175.522 16.2372 175.75 15.8957L174.28 15.1608C174.041 15.6272 173.672 16.3182 172.613 16.3182C171.568 16.3182 171.098 15.5026 171.111 14.6832H175.823C175.799 13.9401 175.754 12.6451 174.896 11.7255C174.051 10.8173 172.917 10.7794 172.526 10.7794ZM172.508 12.1756C172.847 12.1756 173.213 12.2983 173.454 12.5384C173.73 12.8283 173.779 13.1882 173.816 13.4661H171.13C171.193 13.1882 171.255 12.888 171.52 12.5981C171.709 12.3958 172.04 12.1756 172.508 12.1756Z" fill="#12284C"></path><path d="M177.191 9.09995V11.1408H176.23V12.3264H177.191V15.4927C177.191 16.1218 177.197 16.5876 177.461 16.9784C177.877 17.584 178.608 17.6237 179.277 17.6237C179.63 17.6237 179.88 17.5973 180.297 17.5336V16.018L179.607 16.033C179.091 16.033 179.099 15.701 179.111 15.2976V12.3263H180.387V11.1558H179.111V9.09993L177.191 9.09995Z" fill="#12284C"></path><path d="M181.152 9.1V11.1409H180.192V12.3264H181.152V15.4928C181.152 16.1219 181.158 16.5877 181.422 16.9784C181.838 17.5841 182.57 17.6237 183.238 17.6237C183.591 17.6237 183.842 17.5973 184.259 17.5337V16.018L183.568 16.033C183.053 16.033 183.061 15.7011 183.073 15.2977V12.3264H184.349V11.1559H183.073V9.09998L181.152 9.1Z" fill="#12284C"></path><path d="M187.725 10.7807C185.885 10.7807 184.949 11.902 184.949 12.9867C184.949 13.4777 185.155 13.9279 185.444 14.2172C185.734 14.5084 186.136 14.6734 186.54 14.7875C186.83 14.8757 187.136 14.9471 187.425 14.9976C187.804 15.0606 188.261 15.087 188.551 15.2377C188.665 15.3013 188.806 15.4003 188.806 15.6278C188.806 16.1195 188.087 16.2731 187.62 16.2731C186.89 16.2731 186.243 15.8746 185.714 15.3577L184.484 16.4682C184.9 16.859 185.852 17.7438 187.68 17.7438C189.231 17.7438 190.787 16.9826 190.787 15.4328C190.787 13.8685 189.259 13.5113 187.935 13.2718C187.306 13.1584 186.885 13.0954 186.885 12.7166C186.885 12.5275 187.059 12.2214 187.815 12.2214C188.269 12.2214 188.848 12.402 189.466 12.8816L190.667 11.7712C190.212 11.4554 189.276 10.7807 187.725 10.7807Z" fill="#12284C"></path><path d="M102.338 23.8064V32.7053H104.559V23.8064H102.338Z" fill="#12284C"></path><path d="M112.212 32.7278V28.586C112.212 27.5151 112.147 27.1279 111.807 26.6501C111.353 26.0192 110.555 25.9448 110.126 25.9448C109.697 25.9448 109.271 26.0583 108.881 26.2599C108.528 26.437 108.41 26.5559 108.221 26.7702V26.1399H106.285V32.7278H108.221V28.631C108.233 28.2786 108.254 27.9377 108.671 27.6856C108.96 27.5211 109.217 27.5205 109.331 27.5205C109.721 27.5205 109.983 27.6994 110.096 27.8506C110.247 28.0523 110.246 28.3405 110.246 28.631V32.7278H112.212Z" fill="#12284C"></path><path d="M116.279 25.9074C114.439 25.9074 113.503 27.0287 113.503 28.1133C113.503 28.6043 113.709 29.0545 113.998 29.3439C114.288 29.635 114.69 29.8001 115.094 29.9141C115.384 30.0023 115.69 30.0738 115.979 30.1242C116.358 30.1872 116.815 30.2136 117.104 30.3643C117.218 30.4279 117.36 30.527 117.36 30.7545C117.36 31.2461 116.641 31.3997 116.174 31.3998C115.443 31.3998 114.797 31.0012 114.268 30.4844L113.038 31.5948C113.454 31.9856 114.406 32.8704 116.234 32.8704C117.785 32.8704 119.34 32.1093 119.34 30.5594C119.34 28.9951 117.813 28.6379 116.489 28.3984C115.859 28.285 115.439 28.222 115.439 27.8432C115.439 27.6541 115.613 27.348 116.369 27.348C116.823 27.348 117.402 27.5287 118.02 28.0083L119.22 26.8978C118.766 26.582 117.83 25.9074 116.279 25.9074Z" fill="#12284C"></path><path d="M120.721 24.2266V26.2675H119.761V27.453H120.721V30.6194C120.721 31.2485 120.727 31.7143 120.991 32.105C121.407 32.7107 122.139 32.7503 122.807 32.7503C123.16 32.7503 123.411 32.7239 123.827 32.6603V31.1446L123.137 31.1596C122.621 31.1596 122.63 30.8277 122.642 30.4243V27.453H123.917V26.2825H122.642V24.2266L120.721 24.2266Z" fill="#12284C"></path><path d="M124.968 23.7906V25.2924H126.888V23.7906H124.968ZM124.968 26.1191V32.7051H126.888V26.1191H124.968Z" fill="#12284C"></path><path d="M128.87 24.2266V26.2675H127.909V27.453H128.87V30.6194C128.87 31.2485 128.876 31.7143 129.14 32.105C129.556 32.7107 130.287 32.7503 130.955 32.7503C131.308 32.7503 131.559 32.7239 131.976 32.6603V31.1446L131.286 31.1596C130.77 31.1596 130.778 30.8277 130.79 30.4243V27.453H132.066V26.2825H130.79V24.2266L128.87 24.2266Z" fill="#12284C"></path><path d="M133.034 26.1174V30.2592C133.034 31.3301 133.099 31.7172 133.439 32.195C133.893 32.8259 134.691 32.9003 135.12 32.9003C135.549 32.9003 135.975 32.7869 136.365 32.5852C136.718 32.4081 136.836 32.2893 137.026 32.075V32.7053H138.961V26.1174H137.026V30.2142C137.013 30.5665 136.992 30.9075 136.575 31.1596C136.286 31.3241 136.029 31.3246 135.915 31.3247C135.525 31.3247 135.263 31.1458 135.15 30.9945C134.999 30.7928 135 30.5047 135 30.2142V26.1174H133.034Z" fill="#12284C"></path><path d="M140.942 24.2266V26.2675H139.982V27.453H140.942V30.6194C140.942 31.2485 140.948 31.7143 141.212 32.105C141.628 32.7107 142.36 32.7503 143.028 32.7503C143.381 32.7503 143.632 32.7239 144.049 32.6603V31.1446L143.358 31.1596C142.843 31.1596 142.851 30.8277 142.863 30.4243V27.453H144.139V26.2825H142.863V24.2266L140.942 24.2266Z" fill="#12284C"></path><path d="M148.09 25.9055C145.494 25.9055 144.71 27.9501 144.71 29.5384C144.71 31.6939 146.072 32.9462 148.026 32.9462C149.085 32.9462 149.951 32.5439 150.52 32.0139C150.86 31.6987 151.087 31.3634 151.314 31.0218L149.845 30.287C149.605 30.7534 149.236 31.4444 148.178 31.4444C147.132 31.4444 146.663 30.6287 146.676 29.8094H151.388C151.363 29.0662 151.318 27.7712 150.46 26.8516C149.616 25.9434 148.482 25.9055 148.09 25.9055ZM148.072 27.3017C148.412 27.3017 148.778 27.4244 149.018 27.6646C149.295 27.9545 149.343 28.3144 149.381 28.5923H146.694C146.758 28.3144 146.819 28.0142 147.084 27.7243C147.273 27.522 147.605 27.3017 148.072 27.3017Z" fill="#12284C"></path><path d="M159.037 25.917C158.959 25.9175 158.881 25.9192 158.807 25.9216C156.59 25.9906 155.478 27.5121 155.478 29.4029C155.478 31.8357 157.166 32.9025 159.019 32.9025C161.59 32.9025 162.546 31.0668 162.546 29.4029C162.546 28.2048 161.956 26.0729 159.271 25.9216C159.192 25.9172 159.115 25.9165 159.037 25.917ZM159.01 27.4464C159.289 27.4389 159.685 27.4968 160.038 27.8276C160.404 28.1805 160.58 28.7499 160.58 29.481C160.58 30.514 160.064 31.3548 159.019 31.3548C157.935 31.3548 157.425 30.4348 157.425 29.3891C157.425 28.9353 157.516 28.4773 157.756 28.0986C158.021 27.6826 158.345 27.4888 158.899 27.451C158.934 27.4478 158.97 27.4475 159.01 27.4464Z" fill="#12284C"></path><path d="M166.086 23.6714C165.178 23.6714 164.63 24.0195 164.39 24.3467C164.138 24.699 164.12 25.1444 164.12 25.4722V26.2825H163.069V27.453H164.105V32.7053H166.041V27.453H167.316V26.2825H166.026C166.013 25.4001 166.046 25.2471 166.776 25.2471H167.241V23.7914C166.863 23.741 166.477 23.6714 166.086 23.6714Z" fill="#12284C"></path><path d="M100.072 38.9181V40.6888H102.398V47.8319H104.619V40.6888H106.93V38.9181H100.072Z" fill="#12284C"></path><path d="M109.823 41.0327C107.226 41.0327 106.442 43.0772 106.442 44.6655C106.442 46.8211 107.804 48.0733 109.758 48.0733C110.817 48.0733 111.684 47.671 112.252 47.141C112.592 46.8258 112.819 46.4905 113.047 46.149L111.577 45.4141C111.337 45.8805 110.969 46.5715 109.91 46.5715C108.864 46.5715 108.395 45.7558 108.408 44.9365H113.12C113.096 44.1934 113.05 42.8984 112.192 41.9788C111.348 41.0706 110.214 41.0327 109.823 41.0327ZM109.804 42.4289C110.144 42.4289 110.51 42.5516 110.75 42.7917C111.027 43.0816 111.075 43.4415 111.113 43.7194H108.426C108.49 43.4415 108.551 43.1413 108.817 42.8514C109.005 42.6491 109.337 42.4288 109.804 42.4289Z" fill="#12284C"></path><path d="M117.104 41.0789C114.911 41.0789 113.803 42.6894 113.803 44.6055C113.803 47.2905 115.799 48.042 117.059 48.042C117.803 48.042 118.447 47.8097 118.95 47.4567C119.48 47.0786 119.746 46.6644 119.986 46.2862L118.53 45.5209C118.467 45.71 118.394 45.8576 118.23 46.0461C117.826 46.4999 117.355 46.5113 117.254 46.5113C116.221 46.5113 115.784 45.4152 115.784 44.5455C115.784 43.7519 116.148 42.5496 117.194 42.5496C117.497 42.5496 117.726 42.648 117.915 42.7747C118.231 43.001 118.357 43.2255 118.47 43.465L119.911 42.6546C119.078 41.2806 117.836 41.0789 117.104 41.0789Z" fill="#12284C"></path><path d="M120.301 38.9181V47.8319H122.252V44.5605C122.252 43.9933 122.254 43.4446 122.507 43.1049C122.669 42.8912 122.962 42.7297 123.302 42.7297C123.504 42.7297 124.013 42.7825 124.203 43.375C124.278 43.6019 124.293 43.866 124.293 44.3954V47.8319H126.213V43.51C126.213 42.6523 126.118 42.0358 125.538 41.5442C125.147 41.2165 124.622 41.079 124.142 41.079C123.097 41.079 122.529 41.6727 122.252 41.9494V38.9181H120.301Z" fill="#12284C"></path><path d="M133.829 47.8544V43.7126C133.829 42.6417 133.764 42.2545 133.424 41.7767C132.97 41.1459 132.172 41.0714 131.743 41.0714C131.314 41.0714 130.888 41.1849 130.498 41.3865C130.145 41.5636 130.027 41.6825 129.837 41.8968V41.2665H127.902V47.8544H129.837V43.7576C129.85 43.4052 129.871 43.0643 130.288 42.8122C130.577 42.6477 130.834 42.6471 130.948 42.6471C131.338 42.6471 131.6 42.826 131.713 42.9773C131.864 43.1789 131.863 43.4671 131.863 43.7576V47.8544H133.829Z" fill="#12284C"></path><path d="M138.627 41.0432C138.549 41.0436 138.471 41.0454 138.397 41.0477C136.18 41.1168 135.068 42.6382 135.068 44.529C135.068 46.9619 136.756 48.0287 138.609 48.0287C141.18 48.0287 142.136 46.193 142.136 44.529C142.136 43.3309 141.546 41.199 138.861 41.0477C138.782 41.0434 138.705 41.0427 138.627 41.0432ZM138.599 42.5725C138.879 42.5651 139.275 42.6229 139.628 42.9537C139.994 43.3067 140.17 43.876 140.17 44.6071C140.17 45.6402 139.654 46.481 138.609 46.481C137.525 46.481 137.015 45.5609 137.015 44.5153C137.015 44.0615 137.106 43.6035 137.346 43.2247C137.611 42.8087 137.935 42.615 138.489 42.5771C138.524 42.574 138.559 42.5736 138.599 42.5725Z" fill="#12284C"></path><path d="M143.396 38.933V47.8319H145.347V38.933H143.396Z" fill="#12284C"></path><path d="M150.189 41.0427C150.111 41.0431 150.033 41.0449 149.959 41.0472C147.742 41.1163 146.63 42.6377 146.63 44.5285C146.63 46.9614 148.318 48.0282 150.171 48.0282C152.742 48.0282 153.698 46.1925 153.698 44.5285C153.698 43.3304 153.108 41.1985 150.423 41.0472C150.345 41.0429 150.267 41.0422 150.189 41.0427ZM150.162 42.572C150.441 42.5646 150.837 42.6224 151.19 42.9532C151.556 43.3062 151.732 43.8755 151.732 44.6066C151.732 45.6397 151.216 46.4805 150.171 46.4805C149.087 46.4805 148.577 45.5604 148.577 44.5148C148.577 44.061 148.668 43.603 148.908 43.2242C149.173 42.8082 149.497 42.6144 150.051 42.5766C150.086 42.5735 150.122 42.5731 150.162 42.572Z" fill="#12284C"></path><path d="M157.292 41.1373C155.111 41.1373 154.499 43.0418 154.499 44.366C154.499 45.5005 154.834 46.5131 155.717 47.0803C156.145 47.3702 156.676 47.5166 157.218 47.5166C158.113 47.5166 158.581 47.2136 158.959 46.9609V47.6682C158.959 48.2108 158.96 48.899 157.788 48.899C157.485 48.899 157.298 48.8381 157.172 48.775C156.655 48.5349 156.628 48.1241 156.603 47.8335H154.591C154.591 48.1865 154.584 48.8461 155.101 49.3629C155.453 49.7291 156.311 50.1896 157.622 50.1896C158.214 50.1896 159.205 50.0826 159.873 49.6798C160.831 49.1246 160.854 48.2811 160.879 47.5625V41.243H159.065V41.8584C158.775 41.5805 158.301 41.1373 157.292 41.1373ZM157.65 42.5794C158.205 42.5549 158.551 42.8222 158.702 43.0617C158.916 43.3774 158.941 44.0371 158.941 44.3522C158.941 45.285 158.725 46.0469 157.742 46.0469C156.544 46.0469 156.497 44.9075 156.497 44.3522C156.497 43.4194 156.73 42.6185 157.65 42.5794Z" fill="#12284C"></path><path d="M161.719 41.244L163.685 47.6067C163.723 47.7448 163.775 47.9075 163.775 48.0719C163.775 48.5377 163.28 48.5389 162.964 48.5522H162.289V50.0828H163.685C164.188 50.0702 164.627 50.0498 165.08 49.5576C165.407 49.192 165.543 48.7857 165.696 48.3571L168.022 41.244H165.951L164.87 45.971L163.79 41.244H161.719Z" fill="#12284C"></path></svg> 