<?xml version="1.0" encoding="UTF-8"?> <svg xmlns="http://www.w3.org/2000/svg" width="567" height="340" viewBox="0 0 567 340" fill="none"><g clip-path="url(#clip0_1031_83)"><path d="M424.405 189.279C422.208 177.188 435.726 168.476 445.829 175.472L459.161 184.703C469.265 191.699 482.783 182.987 480.585 170.896L455.903 35.0905C454.54 27.5951 447.36 22.6233 439.864 23.9855L304.06 48.6667C291.969 50.8641 288.571 66.5833 298.674 73.5791L312.007 82.8105C322.11 89.8064 318.712 105.525 306.621 107.723L256.914 116.757C244.823 118.954 241.424 134.673 251.528 141.669L264.86 150.901C274.964 157.897 271.566 173.616 259.475 175.813L209.765 184.849C197.674 187.046 194.275 202.765 204.379 209.761L364.867 320.886C374.971 327.882 388.489 319.17 386.291 307.079L377.258 257.368C375.061 245.277 388.579 236.566 398.682 243.561L412.015 252.793C422.118 259.789 435.636 251.077 433.439 238.986L424.405 189.279Z" fill="#5B8DFE"></path></g><defs><clipPath id="clip0_1031_83"><rect width="567" height="340" fill="white"></rect></clipPath></defs></svg> 