<?xml version="1.0" encoding="UTF-8"?> <svg xmlns="http://www.w3.org/2000/svg" width="40" height="40" viewBox="0 0 40 40" fill="none"> <rect x="1" y="1" width="37" height="37" rx="6" fill="#051732"></rect> <path d="M9.00077 19.3579C9.00077 16.757 9.00225 14.1554 9.00002 11.5537C8.99928 11.0279 9.01413 11.1037 9.44935 11.094C10.8887 11.0621 12.328 11.0101 13.7673 11.0004C14.4446 10.996 15.1286 11.0242 15.7993 11.1156C17.2059 11.3079 18.4811 11.8189 19.4867 12.8676C20.1432 13.5523 20.5465 14.3715 20.7493 15.2984C20.9899 16.3968 20.9528 17.487 20.6334 18.5565C20.2041 19.9929 19.2557 21.0014 17.9271 21.6594C17.1034 22.0672 16.2174 22.2766 15.3061 22.3316C14.432 22.3843 13.5542 22.3709 12.6778 22.3843C12.3941 22.3888 12.3829 22.394 12.3829 22.6732C12.3822 24.2239 12.3829 25.7754 12.3822 27.3261C12.3822 27.6462 12.3644 27.6633 12.048 27.664C11.1516 27.6648 10.2559 27.664 9.35948 27.664C9.0171 27.664 9.00151 27.6492 9.00151 27.3105C9.00077 24.6599 9.00077 22.0092 9.00077 19.3579ZM12.4082 16.7681C12.4082 17.5836 12.4082 18.3991 12.4082 19.2145C12.4082 19.3415 12.4201 19.4544 12.5887 19.4559C13.5757 19.4656 14.5672 19.5413 15.5312 19.242C16.1008 19.0652 16.6177 18.7964 17.0099 18.3337C17.3745 17.9044 17.5008 17.3898 17.5127 16.8387C17.5253 16.2586 17.431 15.7046 17.0864 15.2219C16.5932 14.5297 15.8713 14.2074 15.0648 14.1323C14.2686 14.0581 13.4628 14.0848 12.6607 14.0752C12.4401 14.0722 12.4089 14.1167 12.4089 14.3418C12.4075 15.1498 12.4082 15.9593 12.4082 16.7681Z" fill="#4BA6F8"></path> <path d="M22.6364 25.6616C22.6364 25.2353 22.6334 24.809 22.6371 24.3827C22.6393 24.125 22.6943 24.0916 22.9164 24.2134C24.1819 24.9048 25.538 25.2175 26.9744 25.1544C27.3064 25.1395 27.6495 25.0563 27.9599 24.9345C28.4249 24.7511 28.5474 24.1718 28.1968 23.8153C27.9904 23.6051 27.7275 23.4284 27.4586 23.3043C26.7702 22.9857 26.0535 22.728 25.3695 22.4012C24.6498 22.0574 23.9658 21.6504 23.4444 21.0169C22.7545 20.1784 22.5361 19.2225 22.7322 18.1724C23.033 16.5563 24.092 15.6391 25.5975 15.1719C26.5808 14.8667 27.5938 14.8741 28.6098 14.9477C29.3814 15.0034 30.1449 15.0962 30.8727 15.3836C31.0339 15.4475 31.1104 15.5448 31.1104 15.7148C31.1097 16.5556 31.1126 17.3955 31.1097 18.2363C31.1089 18.4398 30.9693 18.5036 30.7376 18.41C30.4806 18.3061 30.2348 18.162 29.9689 18.0959C29.4082 17.957 28.84 17.8426 28.2696 17.7476C27.7817 17.6666 27.2863 17.6458 26.7947 17.7468C26.4627 17.8152 26.1418 17.8939 25.9837 18.2481C25.8485 18.5519 25.9176 18.8126 26.13 19.0495C26.4159 19.3688 26.8058 19.5233 27.1816 19.6912C27.8181 19.9749 28.4783 20.2088 29.1037 20.5148C29.6005 20.7577 30.0951 21.031 30.5289 21.3696C31.608 22.2126 31.9348 23.3645 31.7083 24.6783C31.4372 26.2506 30.4264 27.1707 28.9655 27.6579C27.9963 27.981 26.9944 28.033 25.9822 27.984C25.1652 27.9446 24.3601 27.8332 23.5766 27.5918C23.3471 27.5213 23.1258 27.4262 22.9008 27.3423C22.7158 27.2732 22.6349 27.141 22.6371 26.9427C22.6393 26.5149 22.6364 26.0879 22.6364 25.6616Z" fill="#4BA6F8"></path> </svg> 