<?xml version="1.0" encoding="UTF-8"?> <svg xmlns="http://www.w3.org/2000/svg" width="150" height="150" viewBox="0 0 150 150" fill="none"> <g clip-path="url(#clip0_174_2786)"> <g clip-path="url(#clip1_174_2786)"> <path d="M1.65723 57.6357V89.8263H8.45289V57.6357H1.65723Z" fill="#6D80B0"></path> <path d="M12.7498 57.6357V79.6274H19.5454V57.6357H12.7498Z" fill="#6D80B0"></path> <path d="M23.8315 57.6357V89.8263H30.6272V57.6357H23.8315Z" fill="#6D80B0"></path> <path d="M34.8813 57.6357V64.076H41.7201V57.6357H34.8813Z" fill="#6D80B0"></path> <path d="M34.9351 67.8027V89.7944H41.7307V67.8027H34.9351Z" fill="#A0A9C8"></path> <path d="M45.9634 57.6357V64.076H63.8949V57.6357H45.9634Z" fill="#6D80B0"></path> <path d="M46.0063 67.835V89.8266H52.802V67.835H46.0063Z" fill="#6D80B0"></path> <path d="M76.4131 57.6406V64.8508H78.164L78.0667 60.3034C78.036 59.6181 78.0365 59.5014 78.0059 58.9295L78.322 60.2183L79.6352 64.8508H81.1793L82.5411 60.0116C82.6228 59.7047 82.6316 59.6536 82.7235 59.2456L82.7843 58.9903L82.7721 59.7076L82.6506 64.8508H84.3771V57.6406H81.7508L80.5957 61.9449C80.514 62.2819 80.5155 62.332 80.4133 62.8324L80.158 61.6895L79.0516 57.6406L76.4131 57.6406Z" fill="#6D80B0"></path> <path d="M88.0607 59.3779C87.4381 59.3779 86.8131 59.4517 86.3229 59.8394C85.8429 60.2177 85.7953 60.6625 85.7647 61.0301H87.3313C87.3727 60.8361 87.4624 60.4012 88.1574 60.4013C88.7192 60.4013 88.7468 60.8111 88.7677 61.0562V61.3464C88.1038 61.469 87.0905 61.6496 86.6615 61.8339C86.2218 62.0173 85.5303 62.5091 85.5303 63.367C85.5303 64.1126 86.0569 64.9969 87.2829 64.9969C88.0689 64.9969 88.515 64.661 88.9128 64.3643V64.8481H90.4571C90.3345 64.6642 90.2971 64.5822 90.2971 64.0108V60.9111C90.2971 59.5327 88.7148 59.3779 88.0607 59.3779ZM88.7677 62.2953C88.7575 62.8469 88.7267 63.3304 88.2058 63.6573C88.0424 63.7599 87.8682 63.8396 87.6737 63.8396C87.306 63.8396 87.0746 63.5479 87.0746 63.2926C87.0746 62.8841 87.4793 62.7403 87.7444 62.6377L88.7677 62.2953Z" fill="#6D80B0"></path> <path d="M93.6417 59.3418C92.1505 59.3418 91.3923 60.2503 91.3923 61.1291C91.3923 61.527 91.5591 61.8917 91.7935 62.1262C92.0285 62.362 92.3543 62.4958 92.6811 62.5882C92.9165 62.6597 93.1641 62.7176 93.3985 62.7584C93.7054 62.8095 94.0755 62.8309 94.3104 62.953C94.4028 63.0045 94.5171 63.0847 94.5171 63.2691C94.5171 63.6674 93.9349 63.7919 93.5566 63.7919C92.9647 63.7919 92.4409 63.469 92.0124 63.0502L91.0154 63.95C91.3524 64.2666 92.1243 64.9835 93.6052 64.9835C94.8619 64.9835 96.1221 64.3668 96.1221 63.111C96.1221 61.8436 94.8843 61.5542 93.8119 61.3602C93.3017 61.2682 92.9608 61.2172 92.9608 60.9103C92.9608 60.7571 93.1018 60.509 93.7146 60.509C94.0823 60.509 94.5512 60.6554 95.0521 61.044L96.0248 60.1443C95.6566 59.8885 94.8984 59.3418 93.6417 59.3418Z" fill="#6D80B0"></path> <path d="M98.9669 59.3418C97.4757 59.3418 96.7175 60.2503 96.7175 61.1291C96.7175 61.527 96.8843 61.8917 97.1187 62.1262C97.3536 62.362 97.6795 62.4958 98.0063 62.5882C98.2417 62.6597 98.4893 62.7176 98.7237 62.7584C99.0306 62.8095 99.4007 62.8309 99.6356 62.953C99.728 63.0045 99.8423 63.0847 99.8423 63.2691C99.8423 63.6674 99.2601 63.7919 98.8818 63.7919C98.2899 63.7919 97.7661 63.469 97.3376 63.0502L96.3406 63.95C96.6776 64.2666 97.4495 64.9835 98.9304 64.9835C100.187 64.9835 101.447 64.3668 101.447 63.111C101.447 61.8436 100.21 61.5542 99.1371 61.3602C98.6269 61.2682 98.286 61.2172 98.286 60.9103C98.286 60.7571 98.427 60.509 99.0398 60.509C99.4075 60.509 99.8763 60.6554 100.377 61.044L101.35 60.1443C100.982 59.8885 100.224 59.3418 98.9669 59.3418Z" fill="#6D80B0"></path> <path d="M104.659 59.3779C104.036 59.3779 103.411 59.4517 102.921 59.8394C102.441 60.2177 102.393 60.6625 102.363 61.0301H103.929C103.971 60.8361 104.06 60.4012 104.755 60.4013C105.317 60.4013 105.345 60.8111 105.366 61.0562V61.3464C104.702 61.469 103.688 61.6496 103.259 61.8339C102.82 62.0173 102.128 62.5091 102.128 63.367C102.128 64.1126 102.655 64.9969 103.881 64.9969C104.667 64.9969 105.113 64.661 105.511 64.3643V64.8481H107.055C106.932 64.6642 106.895 64.5822 106.895 64.0108V60.9111C106.895 59.5327 105.313 59.3779 104.659 59.3779ZM105.366 62.2953C105.355 62.8469 105.325 63.3304 104.804 63.6573C104.64 63.7599 104.466 63.8396 104.272 63.8396C103.904 63.8396 103.672 63.5479 103.672 63.2926C103.672 62.8841 104.077 62.7403 104.342 62.6377L105.366 62.2953Z" fill="#6D80B0"></path> <path d="M110.652 59.3779C108.875 59.3779 107.977 60.6828 107.977 62.2352C107.977 64.4107 109.594 65.0196 110.616 65.0196C111.218 65.0196 111.74 64.8314 112.148 64.5454C112.577 64.239 112.793 63.9034 112.987 63.597L111.807 62.9769C111.756 63.1301 111.697 63.2498 111.564 63.4025C111.237 63.7702 110.856 63.7794 110.774 63.7794C109.936 63.7794 109.582 62.8913 109.582 62.1866C109.582 61.5437 109.877 60.5695 110.725 60.5695C110.97 60.5695 111.156 60.6493 111.309 60.7519C111.565 60.9352 111.667 61.1171 111.759 61.3112L112.926 60.6546C112.251 59.5413 111.245 59.3779 110.652 59.3779Z" fill="#6D80B0"></path> <path d="M113.23 57.6279V64.8502H114.81V62.1996C114.81 61.74 114.812 61.2955 115.017 61.0202C115.149 60.8471 115.386 60.7163 115.661 60.7163C115.825 60.7163 116.238 60.7591 116.391 61.2391C116.452 61.4229 116.464 61.6369 116.464 62.0659V64.8502H118.02V61.3485C118.02 60.6535 117.943 60.154 117.473 59.7557C117.157 59.4902 116.731 59.3788 116.342 59.3788C115.495 59.3788 115.035 59.8598 114.81 60.084V57.6279H113.23Z" fill="#6D80B0"></path> <path d="M119.358 59.5127V62.8685C119.358 63.7362 119.41 64.0499 119.686 64.437C120.054 64.9482 120.7 65.0085 121.048 65.0085C121.395 65.0085 121.741 64.9165 122.057 64.7531C122.343 64.6097 122.438 64.5134 122.592 64.3397V64.8504H124.16V59.5127H122.592V62.832C122.582 63.1175 122.565 63.3938 122.227 63.598C121.993 63.7313 121.785 63.7318 121.692 63.7318C121.376 63.7318 121.164 63.5869 121.072 63.4643C120.95 63.3009 120.95 63.0674 120.95 62.832V59.5127H119.358Z" fill="#6D80B0"></path> <path d="M127.48 59.3418C125.989 59.3418 125.23 60.2503 125.23 61.1291C125.23 61.527 125.397 61.8917 125.632 62.1262C125.867 62.362 126.192 62.4958 126.519 62.5882C126.755 62.6597 127.002 62.7176 127.237 62.7584C127.544 62.8095 127.914 62.8309 128.149 62.953C128.241 63.0045 128.355 63.0847 128.355 63.2691C128.355 63.6674 127.773 63.7919 127.395 63.7919C126.803 63.7919 126.279 63.469 125.851 63.0502L124.854 63.95C125.191 64.2666 125.962 64.9835 127.443 64.9835C128.7 64.9835 129.96 64.3668 129.96 63.111C129.96 61.8436 128.722 61.5542 127.65 61.3602C127.14 61.2682 126.799 61.2172 126.799 60.9103C126.799 60.7571 126.94 60.509 127.553 60.509C127.92 60.509 128.389 60.6554 128.89 61.044L129.863 60.1443C129.495 59.8885 128.737 59.3418 127.48 59.3418Z" fill="#6D80B0"></path> <path d="M133.27 59.3408C131.166 59.3408 130.531 60.9974 130.531 62.2843C130.531 64.0308 131.634 65.0454 133.217 65.0454C134.075 65.0454 134.777 64.7194 135.238 64.29C135.513 64.0346 135.697 63.7629 135.882 63.4862L134.691 62.8908C134.497 63.2687 134.198 63.8286 133.34 63.8286C132.493 63.8286 132.113 63.1677 132.123 62.5038H135.941C135.921 61.9017 135.885 60.8525 135.19 60.1074C134.505 59.3715 133.587 59.3408 133.27 59.3408ZM133.255 60.4721C133.53 60.4721 133.827 60.5715 134.021 60.766C134.245 61.0009 134.285 61.2925 134.315 61.5177H132.138C132.19 61.2925 132.24 61.0493 132.455 60.8144C132.607 60.6505 132.876 60.472 133.255 60.4721Z" fill="#6D80B0"></path> <path d="M137.049 57.9815V59.6351H136.271V60.5956H137.049V63.1611C137.049 63.6708 137.054 64.0482 137.268 64.3648C137.605 64.8556 138.197 64.8877 138.739 64.8877C139.025 64.8877 139.228 64.8663 139.566 64.8147V63.5867L139.006 63.5988C138.588 63.5988 138.595 63.3298 138.605 63.003V60.5956H139.638V59.6472H138.605V57.9814L137.049 57.9815Z" fill="#6D80B0"></path> <path d="M140.258 57.9815V59.6351H139.48V60.5956H140.258V63.1611C140.258 63.6708 140.263 64.0482 140.477 64.3648C140.814 64.8556 141.407 64.8877 141.948 64.8877C142.234 64.8877 142.438 64.8663 142.775 64.8147V63.5867L142.216 63.5988C141.798 63.5988 141.805 63.3298 141.815 63.003V60.5956H142.848V59.6472H141.815V57.9814L140.258 57.9815Z" fill="#6D80B0"></path> <path d="M145.584 59.3418C144.093 59.3418 143.335 60.2503 143.335 61.1291C143.335 61.527 143.502 61.8917 143.736 62.1262C143.971 62.362 144.297 62.4958 144.624 62.5882C144.859 62.6597 145.107 62.7176 145.341 62.7584C145.648 62.8095 146.018 62.8309 146.253 62.953C146.345 63.0045 146.46 63.0847 146.46 63.2691C146.46 63.6674 145.878 63.7919 145.499 63.7919C144.907 63.7919 144.384 63.469 143.955 63.0502L142.958 63.95C143.295 64.2666 144.067 64.9835 145.548 64.9835C146.805 64.9835 148.065 64.3668 148.065 63.111C148.065 61.8436 146.827 61.5542 145.755 61.3602C145.244 61.2682 144.903 61.2172 144.903 60.9103C144.903 60.7571 145.044 60.509 145.657 60.509C146.025 60.509 146.494 60.6554 146.995 61.044L147.967 60.1443C147.599 59.8885 146.841 59.3418 145.584 59.3418Z" fill="#6D80B0"></path> <path d="M76.4011 69.8955V77.1057H78.2006V69.8955H76.4011Z" fill="#6D80B0"></path> <path d="M84.4006 77.125V73.7692C84.4006 72.9015 84.3481 72.5878 84.0723 72.2007C83.7047 71.6895 83.0578 71.6292 82.7106 71.6292C82.3628 71.6292 82.0175 71.7212 81.7014 71.8846C81.4154 72.028 81.3201 72.1243 81.1664 72.298V71.7873H79.5979V77.125H81.1664V73.8057C81.1766 73.5202 81.1936 73.2439 81.5312 73.0396C81.7656 72.9064 81.9737 72.9059 82.0661 72.9059C82.3823 72.9059 82.5943 73.0508 82.6862 73.1734C82.8083 73.3368 82.8078 73.5703 82.8078 73.8057V77.125H84.4006Z" fill="#6D80B0"></path> <path d="M87.6959 71.5996C86.2047 71.5996 85.4465 72.5081 85.4465 73.387C85.4465 73.7848 85.6133 74.1496 85.8477 74.384C86.0826 74.6199 86.4085 74.7536 86.7353 74.846C86.9707 74.9175 87.2183 74.9754 87.4527 75.0162C87.7596 75.0673 88.1297 75.0887 88.3646 75.2108C88.457 75.2623 88.5713 75.3426 88.5713 75.5269C88.5713 75.9252 87.9891 76.0497 87.6108 76.0497C87.0189 76.0497 86.4951 75.7268 86.0666 75.308L85.0696 76.2078C85.4066 76.5244 86.1785 77.2413 87.6594 77.2413C88.9161 77.2413 90.1763 76.6246 90.1763 75.3688C90.1763 74.1014 88.9385 73.812 87.8661 73.618C87.3559 73.526 87.015 73.475 87.015 73.1681C87.015 73.0149 87.156 72.7669 87.7688 72.7669C88.1365 72.7669 88.6054 72.9132 89.1063 73.3018L90.079 72.4021C89.7108 72.1463 88.9526 71.5996 87.6959 71.5996Z" fill="#6D80B0"></path> <path d="M91.2953 70.2354V71.889H90.5171V72.8495H91.2953V75.415C91.2953 75.9247 91.3001 76.3021 91.5141 76.6187C91.8512 77.1095 92.444 77.1416 92.9853 77.1416C93.2713 77.1416 93.4746 77.1202 93.8121 77.0686V75.8406L93.2528 75.8527C92.835 75.8527 92.8419 75.5838 92.8516 75.2569V72.8495H93.8851V71.9011H92.8516V70.2354L91.2953 70.2354Z" fill="#6D80B0"></path> <path d="M94.7361 69.8828V71.0996H96.2915V69.8828H94.7361ZM94.7361 71.7694V77.1056H96.2915V71.7694H94.7361Z" fill="#6D80B0"></path> <path d="M97.8971 70.2354V71.889H97.1189V72.8495H97.8971V75.415C97.8971 75.9247 97.9019 76.3021 98.1159 76.6187C98.453 77.1095 99.0458 77.1416 99.5871 77.1416C99.8731 77.1416 100.076 77.1202 100.414 77.0686V75.8406L99.8546 75.8527C99.4368 75.8527 99.4437 75.5838 99.4534 75.2569V72.8495H100.487V71.9011H99.4534V70.2354L97.8971 70.2354Z" fill="#6D80B0"></path> <path d="M101.271 71.7676V75.1234C101.271 75.9911 101.324 76.3048 101.599 76.6919C101.967 77.203 102.614 77.2633 102.961 77.2633C103.309 77.2633 103.654 77.1714 103.97 77.008C104.256 76.8645 104.352 76.7682 104.505 76.5946V77.1053H106.074V71.7676H104.505V75.0869C104.495 75.3724 104.478 75.6487 104.14 75.8529C103.906 75.9862 103.698 75.9867 103.605 75.9867C103.289 75.9867 103.077 75.8417 102.985 75.7192C102.863 75.5558 102.864 75.3223 102.864 75.0869V71.7676H101.271Z" fill="#6D80B0"></path> <path d="M107.68 70.2354V71.889H106.901V72.8495H107.68V75.415C107.68 75.9247 107.684 76.3021 107.898 76.6187C108.235 77.1095 108.828 77.1416 109.37 77.1416C109.656 77.1416 109.859 77.1202 110.196 77.0686V75.8406L109.637 75.8527C109.219 75.8527 109.226 75.5838 109.236 75.2569V72.8495H110.269V71.9011H109.236V70.2354L107.68 70.2354Z" fill="#6D80B0"></path> <path d="M113.471 71.5967C111.367 71.5967 110.732 73.2532 110.732 74.5401C110.732 76.2866 111.836 77.3012 113.419 77.3012C114.277 77.3012 114.979 76.9753 115.439 76.5458C115.714 76.2905 115.899 76.0188 116.083 75.7421L114.892 75.1467C114.698 75.5246 114.399 76.0844 113.541 76.0844C112.694 76.0844 112.314 75.4236 112.325 74.7597H116.143C116.123 74.1576 116.086 73.1083 115.391 72.3632C114.707 71.6274 113.788 71.5967 113.471 71.5967ZM113.456 72.7279C113.731 72.7279 114.028 72.8273 114.222 73.0219C114.447 73.2568 114.486 73.5484 114.516 73.7736H112.339C112.391 73.5484 112.441 73.3052 112.656 73.0703C112.808 72.9064 113.077 72.7279 113.456 72.7279Z" fill="#6D80B0"></path> <path d="M122.339 71.6066C122.276 71.6069 122.213 71.6083 122.153 71.6103C120.356 71.6662 119.455 72.8989 119.455 74.4309C119.455 76.4021 120.823 77.2665 122.324 77.2665C124.408 77.2665 125.182 75.7791 125.182 74.4309C125.182 73.4602 124.704 71.7328 122.529 71.6103C122.465 71.6067 122.403 71.6062 122.339 71.6066ZM122.317 72.8457C122.543 72.8397 122.864 72.8865 123.15 73.1546C123.447 73.4405 123.59 73.9018 123.59 74.4942C123.59 75.3312 123.172 76.0124 122.324 76.0124C121.446 76.0124 121.033 75.267 121.033 74.4198C121.033 74.0521 121.107 73.681 121.301 73.3741C121.516 73.0371 121.779 72.8801 122.228 72.8494C122.256 72.8469 122.285 72.8466 122.317 72.8457Z" fill="#6D80B0"></path> <path d="M128.051 69.7861C127.315 69.7861 126.871 70.0682 126.677 70.3333C126.472 70.6188 126.458 70.9796 126.458 71.2452V71.9018H125.607V72.8501H126.446V77.1057H128.014V72.8501H129.048V71.9018H128.002C127.991 71.1868 128.018 71.0628 128.61 71.0628H128.987V69.8834C128.68 69.8425 128.367 69.7861 128.051 69.7861Z" fill="#6D80B0"></path> <path d="M74.5647 82.1406V83.5754H76.4493V89.3629H78.2488V83.5754H80.1213V82.1406H74.5647Z" fill="#6D80B0"></path> <path d="M82.4649 83.8535C80.3609 83.8535 79.7261 85.5101 79.7261 86.797C79.7261 88.5434 80.8297 89.5581 82.4128 89.5581C83.2707 89.5581 83.9728 89.2321 84.4334 88.8027C84.7086 88.5473 84.8928 88.2756 85.0771 87.9989L83.8863 87.4035C83.6923 87.7814 83.3935 88.3412 82.5356 88.3412C81.6883 88.3412 81.308 87.6804 81.3187 87.0165H85.1367C85.1168 86.4144 85.08 85.3652 84.385 84.6201C83.7007 83.8842 82.782 83.8535 82.4649 83.8535ZM82.45 84.9848C82.7252 84.9848 83.022 85.0842 83.2165 85.2787C83.4407 85.5136 83.4799 85.8052 83.5105 86.0304H81.3336C81.3852 85.8052 81.4349 85.562 81.6499 85.3271C81.8026 85.1632 82.0716 84.9847 82.45 84.9848Z" fill="#6D80B0"></path> <path d="M88.3651 83.8916C86.588 83.8916 85.6902 85.1965 85.6902 86.7489C85.6902 88.9244 87.3073 89.5333 88.3286 89.5333C88.9312 89.5333 89.4526 89.345 89.8606 89.0591C90.2896 88.7527 90.5055 88.4171 90.6996 88.1107L89.5202 87.4906C89.4691 87.6438 89.4098 87.7635 89.277 87.9162C88.9497 88.2838 88.5684 88.2931 88.4867 88.2931C87.6492 88.2931 87.2951 87.405 87.2951 86.7003C87.2951 86.0573 87.5904 85.0832 88.4381 85.0832C88.6832 85.0832 88.869 85.1629 89.0217 85.2655C89.2775 85.4489 89.3801 85.6308 89.4716 85.8248L90.6388 85.1683C89.9642 84.055 88.9575 83.8916 88.3651 83.8916Z" fill="#6D80B0"></path> <path d="M90.9548 82.1406V89.3629H92.5355V86.7123C92.5355 86.2527 92.5374 85.8082 92.7422 85.5329C92.874 85.3598 93.1108 85.2289 93.3866 85.229C93.55 85.229 93.9629 85.2718 94.1161 85.7518C94.1774 85.9356 94.1891 86.1496 94.1891 86.5786V89.3629H95.7454V85.8612C95.7454 85.1662 95.6681 84.6667 95.1982 84.2684C94.8816 84.0029 94.4561 83.8915 94.0675 83.8915C93.2203 83.8915 92.7602 84.3725 92.5355 84.5967V82.1406H90.9548Z" fill="#6D80B0"></path> <path d="M101.916 89.3799V86.0241C101.916 85.1564 101.863 84.8427 101.588 84.4556C101.22 83.9444 100.573 83.8841 100.226 83.8841C99.8782 83.8841 99.5329 83.976 99.2168 84.1394C98.9308 84.2829 98.8355 84.3792 98.6818 84.5528V84.0422H97.1133V89.3799H98.6818V86.0605C98.692 85.775 98.709 85.4988 99.0465 85.2945C99.281 85.1613 99.4891 85.1608 99.5815 85.1608C99.8977 85.1608 100.11 85.3057 100.202 85.4283C100.324 85.5917 100.323 85.8251 100.323 86.0605V89.3799H101.916Z" fill="#6D80B0"></path> <path d="M105.803 83.8624C105.74 83.8628 105.677 83.8642 105.617 83.8661C103.82 83.922 102.919 85.1548 102.919 86.6868C102.919 88.658 104.287 89.5223 105.788 89.5223C107.872 89.5223 108.646 88.0349 108.646 86.6868C108.646 85.716 108.168 83.9887 105.993 83.8661C105.929 83.8626 105.866 83.862 105.803 83.8624ZM105.781 85.1016C106.007 85.0955 106.328 85.1424 106.614 85.4104C106.911 85.6964 107.053 86.1577 107.053 86.75C107.053 87.5871 106.635 88.2683 105.788 88.2683C104.91 88.2683 104.497 87.5228 104.497 86.6756C104.497 86.3079 104.571 85.9369 104.765 85.63C104.98 85.2929 105.243 85.1359 105.691 85.1053C105.72 85.1027 105.748 85.1024 105.781 85.1016Z" fill="#6D80B0"></path> <path d="M109.667 82.1523V89.3625H111.248V82.1523H109.667Z" fill="#6D80B0"></path> <path d="M115.172 83.8624C115.108 83.8628 115.046 83.8642 114.986 83.8661C113.189 83.922 112.288 85.1548 112.288 86.6868C112.288 88.658 113.656 89.5223 115.157 89.5223C117.24 89.5223 118.015 88.0349 118.015 86.6868C118.015 85.716 117.537 83.9887 115.362 83.8661C115.298 83.8626 115.235 83.862 115.172 83.8624ZM115.149 85.1016C115.376 85.0955 115.697 85.1424 115.983 85.4104C116.279 85.6964 116.422 86.1577 116.422 86.75C116.422 87.5871 116.004 88.2683 115.157 88.2683C114.279 88.2683 113.866 87.5228 113.866 86.6756C113.866 86.3079 113.939 85.9369 114.134 85.63C114.349 85.2929 114.611 85.1359 115.06 85.1053C115.088 85.1027 115.117 85.1024 115.149 85.1016Z" fill="#6D80B0"></path> <path d="M120.926 83.9375C119.159 83.9375 118.663 85.4806 118.663 86.5535C118.663 87.4727 118.934 88.2931 119.649 88.7527C119.997 88.9876 120.427 89.1062 120.866 89.1062C121.591 89.1062 121.97 88.8607 122.277 88.6559V89.229C122.277 89.6687 122.278 90.2263 121.328 90.2263C121.083 90.2263 120.931 90.1769 120.829 90.1258C120.41 89.9313 120.388 89.5984 120.368 89.363H118.738C118.738 89.6489 118.732 90.1834 119.151 90.6021C119.436 90.8988 120.131 91.2719 121.194 91.2719C121.673 91.2719 122.476 91.1852 123.017 90.8589C123.793 90.409 123.812 89.7256 123.832 89.1434V84.0231H122.362V84.5217C122.127 84.2965 121.743 83.9375 120.926 83.9375ZM121.216 85.1059C121.665 85.086 121.946 85.3026 122.068 85.4967C122.242 85.7525 122.262 86.287 122.262 86.5423C122.262 87.2981 122.087 87.9154 121.29 87.9154C120.32 87.9154 120.282 86.9922 120.282 86.5423C120.282 85.7865 120.471 85.1376 121.216 85.1059Z" fill="#6D80B0"></path> <path d="M124.513 84.0244L126.106 89.1797C126.137 89.2916 126.179 89.4234 126.179 89.5567C126.179 89.9341 125.777 89.935 125.522 89.9457H124.975V91.1859H126.106C126.514 91.1757 126.869 91.1592 127.237 90.7604C127.502 90.4642 127.611 90.1349 127.735 89.7877L129.62 84.0244H127.942L127.066 87.8544L126.191 84.0244H124.513Z" fill="#6D80B0"></path> </g> </g> <defs> <clipPath id="clip0_174_2786"> <rect width="150" height="150" fill="white"></rect> </clipPath> <clipPath id="clip1_174_2786"> <rect width="149.371" height="36.75" fill="white" transform="translate(2.25 57)"></rect> </clipPath> </defs> </svg> 