<?xml version="1.0" encoding="UTF-8"?> <svg xmlns="http://www.w3.org/2000/svg" width="104" height="104" viewBox="0 0 104 104" fill="none"><path d="M52 104C80.7188 104 104 80.7188 104 52C104 23.2812 80.7188 0 52 0C23.2812 0 0 23.2812 0 52C0 80.7188 23.2812 104 52 104Z" fill="url(#paint0_linear_108_122)"></path><path d="M74.4124 46.1797V88.8619H27.9333C23.967 88.8619 20.7581 85.6431 20.7581 81.6868V46.1797H74.4124Z" fill="url(#paint1_linear_108_122)"></path><path d="M77.0433 46.1797V86.2609H30.5642C26.5979 86.2609 23.389 83.0421 23.389 79.0857V46.1897H77.0433V46.1797Z" fill="url(#paint2_linear_108_122)"></path><path d="M16.4929 81.3672H56.2353C59.7742 81.3672 62.6431 78.4983 62.6431 74.9594V57.4699C62.6431 53.931 59.7742 51.0621 56.2353 51.0621L16.4929 51.0621C12.9539 51.0621 10.0851 53.931 10.0851 57.4699V74.9594C10.0851 78.4983 12.9539 81.3672 16.4929 81.3672Z" fill="url(#paint3_linear_108_122)"></path><path d="M36.3641 77.2613C42.4623 77.2613 47.4059 72.3177 47.4059 66.2195C47.4059 60.1213 42.4623 55.1777 36.3641 55.1777C30.2659 55.1777 25.3224 60.1213 25.3224 66.2195C25.3224 72.3177 30.2659 77.2613 36.3641 77.2613Z" fill="url(#paint4_linear_108_122)"></path><path d="M16.7719 60.0215H22.3327C23.6701 60.0215 24.7543 58.9373 24.7543 57.5999V57.5899C24.7543 56.2525 23.6701 55.1683 22.3327 55.1683H16.7719C15.4345 55.1683 14.3503 56.2525 14.3503 57.5899V57.5999C14.3503 58.9373 15.4345 60.0215 16.7719 60.0215Z" fill="url(#paint5_linear_108_122)"></path><path d="M50.9237 60.0215H56.4845C57.8219 60.0215 58.9061 58.9373 58.9061 57.5999V57.5899C58.9061 56.2525 57.8219 55.1683 56.4845 55.1683H50.9237C49.5863 55.1683 48.5021 56.2525 48.5021 57.5899V57.5999C48.5021 58.9373 49.5863 60.0215 50.9237 60.0215Z" fill="url(#paint6_linear_108_122)"></path><path d="M25.432 71.2539H65.1744C68.7134 71.2539 71.5822 68.385 71.5822 64.8461V47.3566C71.5822 43.8177 68.7134 40.9488 65.1744 40.9488L25.432 40.9488C21.893 40.9488 19.0242 43.8177 19.0242 47.3566V64.8461C19.0242 68.385 21.893 71.2539 25.432 71.2539Z" fill="url(#paint7_linear_108_122)"></path><path d="M45.3131 67.1499C51.4113 67.1499 56.3549 62.2063 56.3549 56.1081C56.3549 50.0099 51.4113 45.0664 45.3131 45.0664C39.2149 45.0664 34.2714 50.0099 34.2714 56.1081C34.2714 62.2063 39.2149 67.1499 45.3131 67.1499Z" fill="url(#paint8_linear_108_122)"></path><path d="M25.711 49.9082H31.2717C32.6092 49.9082 33.6934 48.824 33.6934 47.4866V47.4766C33.6934 46.1392 32.6092 45.055 31.2717 45.055H25.711C24.3736 45.055 23.2894 46.1392 23.2894 47.4766V47.4866C23.2894 48.824 24.3736 49.9082 25.711 49.9082Z" fill="url(#paint9_linear_108_122)"></path><path d="M59.8727 49.9082H65.4335C66.7709 49.9082 67.8551 48.824 67.8551 47.4866V47.4766C67.8551 46.1392 66.7709 45.055 65.4335 45.055H59.8727C58.5353 45.055 57.4511 46.1392 57.4511 47.4766V47.4866C57.4511 48.824 58.5353 49.9082 59.8727 49.9082Z" fill="url(#paint10_linear_108_122)"></path><path d="M82.7735 5.44336H43.031C39.4921 5.44336 36.6232 8.31223 36.6232 11.8512V29.3406C36.6232 32.8796 39.4921 35.7484 43.031 35.7484H82.7735C86.3124 35.7484 89.1813 32.8796 89.1813 29.3406V11.8512C89.1813 8.31223 86.3124 5.44336 82.7735 5.44336Z" fill="url(#paint11_linear_108_122)"></path><path d="M62.9023 31.6343C69.0005 31.6343 73.944 26.6908 73.944 20.5926C73.944 14.4944 69.0005 9.55078 62.9023 9.55078C56.804 9.55078 51.8605 14.4944 51.8605 20.5926C51.8605 26.6908 56.804 31.6343 62.9023 31.6343Z" fill="url(#paint12_linear_108_122)"></path><path d="M82.4944 9.55078H76.9337C75.5963 9.55078 74.5121 10.635 74.5121 11.9724V11.9824C74.5121 13.3198 75.5963 14.404 76.9337 14.404H82.4944C83.8319 14.404 84.9161 13.3198 84.9161 11.9824V11.9724C84.9161 10.635 83.8319 9.55078 82.4944 9.55078Z" fill="url(#paint13_linear_108_122)"></path><path d="M48.3427 9.55078H42.7819C41.4445 9.55078 40.3603 10.635 40.3603 11.9724V11.9824C40.3603 13.3198 41.4445 14.404 42.7819 14.404H48.3427C49.6801 14.404 50.7643 13.3198 50.7643 11.9824V11.9724C50.7643 10.635 49.6801 9.55078 48.3427 9.55078Z" fill="url(#paint14_linear_108_122)"></path><path d="M32.0092 86.2608H76.0467C80.013 86.2608 83.2319 83.042 83.2319 79.0757V51.1523H40.45V79.5939C40.45 85.1845 35.9456 86.2608 32.0092 86.2608Z" fill="url(#paint15_linear_108_122)"></path><path d="M34.8494 88.862H78.8869C82.8532 88.862 86.0721 85.6432 86.0721 81.6769V51.1426H43.2901V82.1852C43.2901 87.7758 38.7857 88.8521 34.8494 88.8521V88.862Z" fill="url(#paint16_linear_108_122)"></path><defs><linearGradient id="paint0_linear_108_122" x1="-13.2613" y1="121.653" x2="104" y2="52" gradientUnits="userSpaceOnUse"><stop stop-color="#4391FF"></stop><stop offset="1" stop-color="#54E0FF"></stop></linearGradient><linearGradient id="paint1_linear_108_122" x1="46.6187" y1="88.8619" x2="15.7639" y2="71.1698" gradientUnits="userSpaceOnUse"><stop stop-color="#86C5FF"></stop><stop offset="1" stop-color="white"></stop></linearGradient><linearGradient id="paint2_linear_108_122" x1="23.389" y1="66.2203" x2="77.0433" y2="66.2203" gradientUnits="userSpaceOnUse"><stop stop-color="white"></stop><stop offset="1" stop-color="#6596D0"></stop></linearGradient><linearGradient id="paint3_linear_108_122" x1="62.6431" y1="66.2196" x2="10.095" y2="66.2196" gradientUnits="userSpaceOnUse"><stop stop-color="white"></stop><stop offset="1" stop-color="#86C5FF"></stop></linearGradient><linearGradient id="paint4_linear_108_122" x1="25.3224" y1="66.2159" x2="47.4017" y2="66.2159" gradientUnits="userSpaceOnUse"><stop stop-color="#86C5FF"></stop><stop offset="1" stop-color="white"></stop></linearGradient><linearGradient id="paint5_linear_108_122" x1="24.7543" y1="57.5957" x2="14.3523" y2="57.5957" gradientUnits="userSpaceOnUse"><stop stop-color="#86C5FF"></stop><stop offset="1" stop-color="white"></stop></linearGradient><linearGradient id="paint6_linear_108_122" x1="48.5021" y1="57.5999" x2="58.9061" y2="57.5999" gradientUnits="userSpaceOnUse"><stop stop-color="white"></stop><stop offset="1" stop-color="#65C8D0"></stop></linearGradient><linearGradient id="paint7_linear_108_122" x1="71.5822" y1="56.1064" x2="19.0341" y2="56.1064" gradientUnits="userSpaceOnUse"><stop stop-color="white"></stop><stop offset="1" stop-color="#86C5FF"></stop></linearGradient><linearGradient id="paint8_linear_108_122" x1="34.2714" y1="56.1045" x2="56.3507" y2="56.1045" gradientUnits="userSpaceOnUse"><stop stop-color="#86C5FF"></stop><stop offset="1" stop-color="white"></stop></linearGradient><linearGradient id="paint9_linear_108_122" x1="33.6934" y1="47.4824" x2="23.2913" y2="47.4824" gradientUnits="userSpaceOnUse"><stop stop-color="#86C5FF"></stop><stop offset="1" stop-color="white"></stop></linearGradient><linearGradient id="paint10_linear_108_122" x1="67.8551" y1="47.4824" x2="57.4531" y2="47.4824" gradientUnits="userSpaceOnUse"><stop stop-color="#86C5FF"></stop><stop offset="1" stop-color="white"></stop></linearGradient><linearGradient id="paint11_linear_108_122" x1="36.6232" y1="20.5909" x2="89.1713" y2="20.5909" gradientUnits="userSpaceOnUse"><stop stop-color="white"></stop><stop offset="1" stop-color="#86C5FF"></stop></linearGradient><linearGradient id="paint12_linear_108_122" x1="51.8605" y1="20.5889" x2="73.9398" y2="20.5889" gradientUnits="userSpaceOnUse"><stop stop-color="#86C5FF"></stop><stop offset="1" stop-color="white"></stop></linearGradient><linearGradient id="paint13_linear_108_122" x1="74.5121" y1="11.9766" x2="84.9141" y2="11.9766" gradientUnits="userSpaceOnUse"><stop stop-color="#86C5FF"></stop><stop offset="1" stop-color="white"></stop></linearGradient><linearGradient id="paint14_linear_108_122" x1="40.3603" y1="11.9766" x2="50.7623" y2="11.9766" gradientUnits="userSpaceOnUse"><stop stop-color="#86C5FF"></stop><stop offset="1" stop-color="white"></stop></linearGradient><linearGradient id="paint15_linear_108_122" x1="40.575" y1="68.7008" x2="83.2222" y2="68.7008" gradientUnits="userSpaceOnUse"><stop stop-color="#86C5FF"></stop><stop offset="1" stop-color="white"></stop></linearGradient><linearGradient id="paint16_linear_108_122" x1="43.4152" y1="69.9961" x2="86.0624" y2="69.9961" gradientUnits="userSpaceOnUse"><stop stop-color="#86C5FF"></stop><stop offset="1" stop-color="white"></stop></linearGradient></defs></svg> 