<?xml version="1.0" encoding="UTF-8"?> <svg xmlns="http://www.w3.org/2000/svg" width="25" height="25" viewBox="0 0 25 25" fill="none"><path d="M18.9348 10.7415V5.32246C18.9348 4.0398 17.895 3 16.6123 3H7.32246C6.0398 3 5 4.0398 5 5.32246V18.4831C5 19.7658 6.0398 20.8056 7.32246 20.8056H10.8062" stroke="white" stroke-width="0.9" stroke-linecap="round"></path><path d="M8.09668 7.64502H15.8382" stroke="white" stroke-width="0.9" stroke-linecap="round"></path><path d="M8.09668 10.7415H15.8382" stroke="white" stroke-width="0.9" stroke-linecap="round"></path><path d="M8.09668 13.8381H12.7416" stroke="white" stroke-width="0.9" stroke-linecap="round"></path><path d="M13.6249 18.3062L18.5529 13.1603C18.6768 13.031 18.882 13.0265 19.0113 13.1503L20.1295 14.2212C20.2588 14.3451 20.2632 14.5502 20.1394 14.6795L15.2114 19.8255C15.1839 19.8543 15.1513 19.8777 15.1152 19.8947L13.1654 20.8115C12.8968 20.9377 12.6139 20.6668 12.7284 20.393L13.56 18.4053C13.5754 18.3686 13.5974 18.335 13.6249 18.3062Z" stroke="white" stroke-width="0.9"></path><path d="M17.7733 14.2252L18.9347 15.3865" stroke="white" stroke-width="0.9" stroke-linecap="round"></path></svg> 