<?xml version="1.0" encoding="UTF-8"?> <svg xmlns="http://www.w3.org/2000/svg" width="24" height="24" viewBox="0 0 24 24" fill="none"><path d="M15.1649 15.5823C19.7519 11.5093 23.3059 6.15834 21.2219 3.81134C20.5609 3.06734 19.6379 2.72234 18.6469 2.82834C17.8149 2.91934 16.9599 3.33034 16.0979 4.02034C14.7429 3.31834 13.2304 2.97564 11.7051 3.02502C10.1798 3.07439 8.69272 3.51418 7.38592 4.30234C6.37003 4.90382 5.48369 5.70104 4.77833 6.64776C4.07297 7.59448 3.56263 8.67184 3.27692 9.81734C2.83161 11.5818 2.93842 13.4405 3.58292 15.1423C2.51792 16.3453 1.52892 18.8193 2.75992 20.2053C3.27692 20.7863 4.01692 21.0463 4.90692 21.0463C7.61392 21.0463 11.7149 18.6473 15.1649 15.5823ZM18.8639 4.81534C19.2219 4.78134 19.4959 4.87934 19.7249 5.13834C19.9559 5.39934 19.8939 6.08434 19.4729 7.06734C19.0207 6.37904 18.4766 5.75563 17.8559 5.21434C18.2869 4.95234 18.6319 4.84134 18.8639 4.81534ZM4.63292 17.1183C5.07758 17.7633 5.60472 18.3472 6.20092 18.8553C5.17592 19.1583 4.48692 19.1383 4.25592 18.8763C4.03892 18.6333 4.25792 17.8073 4.63292 17.1183ZM20.9429 11.2493C19.7279 13.0463 18.0369 14.9203 16.1649 16.5823C14.2309 18.3013 12.0989 19.7903 10.1149 20.7843C10.7305 20.9199 11.3586 20.9909 11.9889 20.9963C13.6152 20.9946 15.2106 20.5515 16.6049 19.7143C18.0534 18.8568 19.2295 17.6067 19.9972 16.1087C20.7649 14.6107 21.0928 12.9259 20.9429 11.2493Z" fill="url(#paint0_linear_1962_688)"></path><defs><linearGradient id="paint0_linear_1962_688" x1="4.23562" y1="5.75099" x2="23.1617" y2="9.49206" gradientUnits="userSpaceOnUse"><stop stop-color="#00C1DE"></stop><stop offset="1" stop-color="#407BFF"></stop></linearGradient></defs></svg> 