<?xml version="1.0" encoding="UTF-8"?> <svg xmlns="http://www.w3.org/2000/svg" width="25" height="25" viewBox="0 0 25 25" fill="none"><path d="M12.1198 10.4851C12.3134 9.18568 12.4372 6.2641 10.2353 4.01982C8.0333 1.77554 5.16681 1.90178 3.8919 2.09907C3.47633 2.16339 3.16037 2.48541 3.09727 2.90897C2.9037 4.20838 2.77984 7.12995 4.98181 9.37423C7.18378 11.6185 10.0503 11.4923 11.3252 11.295C11.7408 11.2307 12.0567 10.9086 12.1198 10.4851ZM12.1198 10.4851L12.12 24M19.4549 18.1747C22.2211 16.5469 22.8512 13.6137 22.9941 12.2862C23.0399 11.8604 22.817 11.4668 22.4322 11.2943C21.2328 10.7567 18.4254 9.84625 15.6592 11.474C12.8929 13.1018 12.2629 16.035 12.12 17.3625C12.0741 17.7884 12.2971 18.1819 12.6818 18.3544C13.8812 18.892 16.6886 19.8025 19.4549 18.1747Z" stroke="white" stroke-linecap="round" stroke-linejoin="round"></path></svg> 