<?xml version="1.0" encoding="UTF-8"?> <svg xmlns="http://www.w3.org/2000/svg" width="44" height="44" viewBox="0 0 44 44" fill="none"><rect width="44" height="44" rx="8" fill="white"></rect><path d="M12.7601 30.1992C13.0345 30.4895 13.3692 30.7161 13.7407 30.863C14.1122 31.0099 14.5114 31.0734 14.9101 31.0492C16.0792 30.988 17.2246 30.6957 18.2801 30.1892C19.8619 30.898 21.6147 31.135 23.328 30.8717C25.0412 30.6083 26.6419 29.8558 27.9378 28.7046C29.2337 27.5534 30.1696 26.0525 30.633 24.3823C31.0964 22.712 31.0676 20.9435 30.5501 19.2892C31.8601 17.0592 32.3001 15.0292 31.2201 13.8092C30.9062 13.4451 30.5077 13.1635 30.0596 12.9892C29.6116 12.8148 29.1276 12.753 28.6501 12.8092C27.7037 12.9536 26.8187 13.3666 26.1001 13.9992C24.487 13.1796 22.6643 12.8652 20.8699 13.0972C19.0754 13.3291 17.3925 14.0964 16.0408 15.2992C14.689 16.502 13.7312 18.0842 13.2923 19.8395C12.8533 21.5949 12.9536 23.4417 13.5801 25.1392C12.5201 26.3492 11.5301 28.8192 12.7601 30.1992ZM14.2601 28.8792C14.0401 28.6292 14.2601 27.8092 14.6301 27.1192C15.0777 27.7633 15.6052 28.348 16.2001 28.8592C15.1701 29.1592 14.4901 29.1392 14.2601 28.8792ZM28.7701 23.7092C28.3162 25.5049 27.1691 27.0475 25.5801 27.9992C24.4964 28.6436 23.2609 28.9887 22.0001 28.9992C21.5836 28.9961 21.1683 28.9525 20.7601 28.8692C22.329 27.9071 23.8083 26.806 25.1801 25.5792C26.5613 24.3596 27.8329 23.0211 28.9801 21.5792C29.0217 22.2958 28.9508 23.0145 28.7701 23.7092ZM28.8601 14.8192C29.0204 14.7928 29.1848 14.8084 29.3373 14.8645C29.4898 14.9206 29.6251 15.0152 29.7301 15.1392C29.9601 15.3992 29.8901 16.0792 29.4701 17.0692C29.0191 16.3799 28.4776 15.7543 27.8601 15.2092C28.161 15.0077 28.5023 14.8746 28.8601 14.8192ZM15.2201 20.3092C15.4394 19.4151 15.8344 18.5736 16.3821 17.8337C16.9297 17.0937 17.6191 16.4701 18.4101 15.9992C19.4944 15.3476 20.7351 15.002 22.0001 14.9992C23.2116 14.9908 24.4038 15.3016 25.4571 15.9002C26.5103 16.4988 27.3874 17.3641 28.0001 18.4092C28.1325 18.6205 28.2495 18.8411 28.3501 19.0692C27.064 20.9136 25.5561 22.5928 23.8601 24.0692C22.1932 25.6023 20.3424 26.9224 18.3501 27.9992C17.084 27.2214 16.0982 26.0608 15.5355 24.6855C14.9728 23.3102 14.8623 21.7915 15.2201 20.3492V20.3092Z" fill="#182849"></path></svg> 