<?xml version="1.0" encoding="UTF-8"?> <svg xmlns="http://www.w3.org/2000/svg" width="600" height="600" viewBox="0 0 600 600" fill="none"> <rect width="600" height="600" fill="#F4F4F5"></rect> <path d="M267.241 303.928C267.241 325.459 250.398 341.324 229.727 341.324C209.057 341.324 192.213 325.459 192.213 303.928C192.213 282.246 209.057 266.533 229.727 266.533C250.398 266.533 267.241 282.246 267.241 303.928ZM250.819 303.928C250.819 290.474 241.057 281.268 229.727 281.268C218.397 281.268 208.635 290.474 208.635 303.928C208.635 317.248 218.397 326.588 229.727 326.588C241.057 326.588 250.819 317.231 250.819 303.928Z" fill="#EA4335"></path> <path d="M348.169 303.928C348.169 325.459 331.326 341.324 310.656 341.324C289.985 341.324 273.142 325.459 273.142 303.928C273.142 282.263 289.985 266.533 310.656 266.533C331.326 266.533 348.169 282.246 348.169 303.928ZM331.748 303.928C331.748 290.474 321.986 281.268 310.656 281.268C299.326 281.268 289.564 290.474 289.564 303.928C289.564 317.248 299.326 326.588 310.656 326.588C321.986 326.588 331.748 317.231 331.748 303.928Z" fill="#FBBC05"></path> <path d="M425.726 268.792V335.929C425.726 363.546 409.439 374.825 390.185 374.825C372.06 374.825 361.152 362.703 357.038 352.789L371.335 346.837C373.881 352.924 380.119 360.106 390.168 360.106C402.493 360.106 410.13 352.502 410.13 338.188V332.81H409.557C405.881 337.345 398.8 341.307 389.864 341.307C371.166 341.307 354.037 325.02 354.037 304.063C354.037 282.954 371.166 266.533 389.864 266.533C398.783 266.533 405.865 270.495 409.557 274.895H410.13V268.809H425.726V268.792ZM411.293 304.063C411.293 290.896 402.509 281.268 391.331 281.268C380.001 281.268 370.509 290.896 370.509 304.063C370.509 317.096 380.001 326.588 391.331 326.588C402.509 326.588 411.293 317.096 411.293 304.063Z" fill="#4285F4"></path> <path d="M451.437 229.44V339.031H435.42V229.44H451.437Z" fill="#34A853"></path> <path d="M513.853 316.236L526.6 324.734C522.486 330.82 512.572 341.307 495.442 341.307C474.198 341.307 458.333 324.885 458.333 303.912C458.333 281.673 474.333 266.516 493.604 266.516C513.01 266.516 522.503 281.96 525.605 290.305L527.308 294.554L477.317 315.258C481.145 322.761 487.096 326.588 495.442 326.588C503.805 326.588 509.605 322.474 513.853 316.236ZM474.62 302.782L508.037 288.906C506.199 284.236 500.669 280.982 494.161 280.982C485.815 280.982 474.198 288.35 474.62 302.782Z" fill="#EA4335"></path> <path d="M131.585 294.2V278.335H185.048C185.571 281.1 185.84 284.371 185.84 287.911C185.84 299.814 182.586 314.533 172.099 325.02C161.899 335.642 148.866 341.307 131.601 341.307C99.601 341.307 72.6923 315.241 72.6923 283.241C72.6923 251.24 99.601 225.175 131.601 225.175C149.304 225.175 161.916 232.121 171.391 241.175L160.196 252.37C153.402 245.997 144.196 241.04 131.585 241.04C108.216 241.04 89.9401 259.873 89.9401 283.241C89.9401 306.609 108.216 325.442 131.585 325.442C146.742 325.442 155.374 319.355 160.904 313.825C165.389 309.34 168.34 302.934 169.503 294.183L131.585 294.2Z" fill="#4285F4"></path> </svg> 