<?xml version="1.0" encoding="UTF-8"?> <svg xmlns="http://www.w3.org/2000/svg" width="1000" height="1000" viewBox="0 0 1000 1000" fill="none"><g clip-path="url(#clip0_2719_3062)"><path d="M255.951 597.807C243.482 595.459 233.842 590.475 224.502 581.545C214.141 571.64 207.608 560.443 204.504 547.267C202.819 540.118 202.373 526.914 203.569 519.62C205.949 505.108 212.267 493.446 224.236 481.472C233.959 471.744 242.406 466.386 252.739 463.392C266.16 459.502 281.949 460.97 294.403 467.264C306.18 473.215 318.884 486.611 324.71 499.221C331.456 513.822 332.996 530.419 329.114 546.689C323.562 569.962 303.512 591.189 281.662 596.926C275.48 598.549 262.295 599.001 255.951 597.807ZM273.373 596.547C283.211 594.763 290.25 587.49 293.717 575.526C296.494 565.945 296.748 562.342 296.751 532.571C296.754 503.471 296.528 499.551 294.276 489.416C291.426 476.595 286.51 468.91 278.819 465.254C269.257 460.709 257.28 462.76 250.352 470.129C245.133 475.681 241.306 485.355 239.497 497.575C237.97 507.883 237.613 516.942 237.866 538.893C238.085 557.814 238.241 561.143 239.134 565.954C241.991 581.332 247.104 590.295 255.334 594.35C257.291 595.315 259.902 596.3 261.135 596.539C264.36 597.164 269.948 597.168 273.373 596.547ZM636.814 597.777C619.166 594.819 603.063 583.114 592.759 565.755C582.35 548.219 580.732 524.48 588.627 505.117C593.347 493.539 603.922 480.564 615.107 472.628C641.591 453.834 674.614 458.491 695.753 484C704.386 494.418 709.232 505.043 711.302 518.092C712.292 524.328 711.978 538.633 710.727 544.278C708.725 553.315 704.674 562.516 699.438 569.92C693.204 578.735 682.223 588.488 673.652 592.825C669.858 594.745 662.776 597.056 658.287 597.838C653.046 598.752 642.451 598.722 636.814 597.777ZM657.878 595.631C670.223 591.262 675.99 579.734 677.588 556.233C678.23 546.782 678.227 517.792 677.583 507.663C676.389 488.898 672.87 477.14 666.334 470.081C660.049 463.292 649.656 460.999 640.239 464.321C631.235 467.498 624.847 476.667 621.581 491.1C619.218 501.54 618.063 520.767 618.535 541.787C618.984 561.766 620.157 570.134 623.85 579.713C625.551 584.123 629.359 589.793 631.947 591.766C634.482 593.701 638.029 595.443 641.23 596.326C645.12 597.4 653.917 597.033 657.878 595.631ZM390.158 597.109C381.252 595.215 372.688 590.697 365.621 584.161C360.805 579.706 355.226 572.047 352.058 565.54C347.255 555.676 345.246 546.391 345.246 534.065C345.246 513.665 351.701 497.469 365.376 483.557C374.439 474.337 383.475 469.242 395.139 466.775C401.407 465.449 412.48 465.56 417.806 467.003C430.725 470.502 441.322 479.754 444.646 490.437C448.698 503.457 444.804 515.696 435.087 520.479C432.132 521.934 431.391 522.087 427.304 522.083C423.312 522.08 422.411 521.903 419.548 520.559C409.31 515.755 405.221 503.667 410.494 493.799C412.319 490.386 416.895 486.315 420.404 484.986C426.117 482.82 432.729 483.734 438.686 487.511C440.005 488.348 441.166 488.952 441.265 488.853C441.856 488.262 437.101 481.617 433.5 478.003C428.72 473.204 425.327 471.176 419.324 469.529C414.674 468.253 407.252 468.02 403.11 469.019C392.367 471.611 385.272 480.206 382.181 494.372C378.947 509.188 378.35 542.791 381.003 560.651C383.683 578.684 390.798 588.618 403.359 591.858C406.84 592.756 414.775 592.905 418.168 592.137C426.238 590.309 433.014 585.289 438.137 577.341C443.729 568.665 446.253 561.307 446.786 552.124C447.036 547.829 447.246 546.768 447.846 546.768C448.939 546.768 448.289 556.443 446.737 563.271C442.455 582.105 431.379 593.501 413.82 597.137C407.766 598.391 396.124 598.377 390.158 597.109ZM508.72 597.13C494.586 594.018 483.484 586.041 474.478 572.527C460.623 551.737 459.824 521.015 472.548 498.263C477.089 490.143 485.592 480.696 492.901 475.649C506.521 466.244 524.902 463.138 539.058 467.851C545.232 469.906 549.807 472.784 554.83 477.773C561.943 484.838 564.491 490.828 564.506 500.52C564.522 510.372 560.422 517.506 552.767 520.952C550.8 521.837 549.431 522.05 545.832 522.028C540.534 521.996 538.07 521.207 534.239 518.315C524.854 511.229 524.069 497.439 532.588 489.313C536.075 485.987 538.563 484.683 542.663 484.033C547.764 483.224 553.813 484.87 558.411 488.317C559.301 488.985 560.03 489.364 560.03 489.161C560.03 488.957 559.096 487.209 557.954 485.275C555.436 481.009 549.318 474.779 545.583 472.675C537.378 468.053 526.153 467.02 517.856 470.125C510.179 472.997 504.056 480.997 501.264 491.803C496.883 508.759 496.608 550.126 500.761 567.612C504.031 581.38 511.57 589.745 522.81 592.079C526.751 592.897 534.27 592.794 537.741 591.875C543.982 590.222 549.686 586.405 553.875 581.077C560.921 572.115 564.627 562.691 565.32 551.975C565.587 547.836 565.809 546.768 566.402 546.768C568.159 546.768 565.873 562.942 563.004 570.802C560.744 576.995 557.906 581.363 552.852 586.424C549.025 590.258 547.591 591.319 543.591 593.279C536.203 596.899 532.491 597.689 521.921 597.891C514.542 598.031 512.204 597.897 508.72 597.13ZM27 592.599C27 591.629 27.3321 591.603 39.7044 591.603H52.4088L52.2829 500.066L52.157 408.529L39.5785 408.396C28.8543 408.283 27 408.154 27 407.524C27 406.877 32.2692 406.786 69.4681 406.786C94.0562 406.786 114.243 406.998 117.416 407.289C128.533 408.308 138.029 410.635 145.887 414.265C164.087 422.674 172.854 436.381 171.816 454.806C171.661 457.574 171.179 461.185 170.747 462.829C169.584 467.256 166.409 473.353 163.33 477.074C157.904 483.631 147.016 490.305 138.327 492.4C134.075 493.424 134.151 493.705 138.811 494.187C142.807 494.601 149.885 497.027 154.965 499.725C170.7 508.082 180.281 518.61 184.022 531.654C184.954 534.901 185.142 536.779 185.14 542.783C185.139 546.942 184.858 551.274 184.477 552.995C179.481 575.589 157.491 590.697 126.134 593.082C122.221 593.379 100.089 593.593 73.2042 593.594C27.3317 593.595 27 593.588 27 592.599ZM123.892 590.149C136.406 586.021 142.845 577.766 145.295 562.71C146.633 554.486 147.23 541.331 146.58 534.398C144.854 515.993 136.203 502.801 122.131 497.117C116.681 494.916 113.259 494.48 101.35 494.47L90.2662 494.462V543.071V591.68L105.335 591.489C119.455 591.311 120.625 591.227 123.892 590.149ZM115.921 491.72C131.488 488.451 138.833 474.781 137.956 450.709C137.516 438.627 134.203 428.925 127.767 420.866C124.529 416.812 122.447 414.966 118.287 412.46C113.132 409.355 110.086 408.694 99.6067 408.406L90.2662 408.15V450.309V492.469L101.35 492.46C109.157 492.454 113.465 492.235 115.921 491.72ZM729.404 592.599C729.404 591.636 729.736 591.603 739.367 591.603H749.33V529.333V467.063H738.122C728.491 467.063 726.913 466.958 726.913 466.316C726.913 465.661 730.317 465.569 754.561 465.569H782.209L782.254 479.642L782.299 493.715L783.195 490.35C786.472 478.06 796.135 467.405 807.327 463.743C810.862 462.586 812.138 462.429 817.827 462.447C828.628 462.482 836.282 465.195 842.922 471.343C849.289 477.238 853.185 484.485 855.501 494.745C856.607 499.641 856.62 500.172 856.802 545.648L856.985 591.603H867.918C878.519 591.603 878.852 591.633 878.852 592.599C878.852 593.586 878.519 593.595 843.482 593.595C808.445 593.595 808.113 593.586 808.113 592.599C808.113 591.646 808.445 591.603 815.834 591.603H823.556L823.551 540.168C823.551 510.249 823.346 486.978 823.065 484.537C822.158 476.647 819.681 471.458 815.5 468.692C813.607 467.439 813 467.312 808.896 467.312C804.872 467.312 804.056 467.474 801.457 468.791C794.171 472.483 787.502 483.443 783.563 498.198C782.521 502.103 782.496 503.087 782.334 546.893L782.168 591.603H790.158C797.817 591.603 798.149 591.644 798.149 592.599C798.149 593.586 797.817 593.595 763.776 593.595C729.735 593.595 729.404 593.586 729.404 592.599ZM895.789 592.599C895.789 591.632 896.121 591.603 906.998 591.603H918.206V529.333V467.063H906.998C897.367 467.063 895.789 466.958 895.789 466.316C895.789 465.66 899.221 465.569 923.686 465.569H951.583V528.586V591.603H962.791C973.668 591.603 974 591.632 974 592.599C974 593.587 973.668 593.595 934.895 593.595C896.121 593.595 895.789 593.588 895.789 592.599ZM927.322 438.759C922.276 436.971 918.171 433.219 915.778 428.207C914.612 425.763 914.47 424.874 914.47 419.987C914.47 413.543 915.17 411.564 918.911 407.424C924.6 401.128 934.804 399.158 942.52 402.867C945.637 404.365 949.656 408.545 951.407 412.11C952.696 414.736 952.828 415.492 952.828 420.236C952.828 425.069 952.71 425.713 951.274 428.705C949.394 432.621 945.875 436.224 942.135 438.061C938.491 439.851 931.354 440.187 927.322 438.759Z" fill="#12284C"></path></g><defs><clipPath id="clip0_2719_3062"><rect width="947" height="197.505" fill="white" transform="translate(27 401)"></rect></clipPath></defs></svg> 