<?xml version="1.0" encoding="UTF-8"?> <svg xmlns="http://www.w3.org/2000/svg" width="80" height="80" viewBox="0 0 80 80" fill="none"><mask id="mask0_1523_1889" style="mask-type:luminance" maskUnits="userSpaceOnUse" x="1" y="30" width="78" height="21"><path d="M78.3996 30H1.59961V50.0915H78.3996V30Z" fill="white"></path></mask><g mask="url(#mask0_1523_1889)"><mask id="mask1_1523_1889" style="mask-type:luminance" maskUnits="userSpaceOnUse" x="1" y="30" width="78" height="21"><path d="M1.59961 30H78.3996V50.0915H1.59961V30Z" fill="white"></path></mask><g mask="url(#mask1_1523_1889)"><path d="M33.0167 43.6063C33.0167 43.4512 32.9156 43.3365 32.709 43.2918V43.1914C32.8234 43.1914 33.2043 43.2067 33.3115 43.2067C33.4042 43.2067 33.7731 43.1914 33.8879 43.1914V43.2918C33.6961 43.3292 33.5954 43.4423 33.5954 43.6063V45.575C33.5954 46.1984 33.9377 46.5508 34.6538 46.5508C35.2709 46.5508 35.751 46.2738 35.751 45.6213V43.5986C35.751 43.4524 35.6591 43.3365 35.428 43.2918V43.1914C35.5121 43.1914 35.8271 43.2067 35.9346 43.2067C36.0265 43.2067 36.3571 43.1914 36.4416 43.1914V43.2918C36.2186 43.345 36.1194 43.4447 36.1194 43.5986V45.5128C36.1194 46.372 35.6196 46.8654 34.5411 46.8654C33.537 46.8654 33.0167 46.4091 33.0167 45.6019V43.6063Z" fill="#182849"></path><path d="M37.3229 46.7095C37.5565 46.666 37.6487 46.5476 37.6487 46.4026V43.6816C37.6487 43.4508 37.5258 43.347 37.3164 43.2898V43.1895C37.4349 43.1983 37.6338 43.2035 37.7353 43.2035C37.8276 43.2035 37.9709 43.2019 38.0675 43.1895L40.4277 45.9644V43.597C40.4277 43.4512 40.3351 43.3352 40.1047 43.2898V43.1895C40.1893 43.1895 40.493 43.2051 40.6009 43.2051C40.6947 43.2051 41.0201 43.1895 41.1059 43.1895V43.2898C40.8808 43.3429 40.7721 43.4436 40.7721 43.597V46.8637H40.6299C40.5404 46.8432 40.3713 46.747 40.1136 46.4643L38.002 44.0046V46.4026C38.002 46.5484 38.0861 46.664 38.3165 46.7095V46.8102C38.2319 46.8102 37.9282 46.7941 37.8203 46.7941C37.7273 46.7941 37.4086 46.8102 37.3229 46.8102V46.7095Z" fill="#182849"></path><path d="M55.9469 45.9763H56.0467C56.0995 46.1797 56.2157 46.365 56.3789 46.4721C56.5485 46.5917 56.8147 46.6489 57.0296 46.6489C57.5048 46.6489 57.8056 46.4137 57.8056 46.0415C57.8056 45.6561 57.42 45.456 56.9581 45.2252C56.6147 45.0532 55.9395 44.7694 55.9395 44.1168C55.9395 43.509 56.4029 43.1309 57.1448 43.1309C57.6339 43.1309 57.8637 43.2505 58.1939 43.2351L58.1875 43.9726H58.0867C57.9544 43.538 57.5597 43.3866 57.1277 43.3866C56.6445 43.3866 56.4637 43.663 56.4637 43.944C56.4637 44.3464 56.8573 44.5493 57.3037 44.7484C57.8056 44.9719 58.3501 45.2542 58.3501 45.8829C58.3501 46.4781 57.8845 46.9092 57.0333 46.9092C56.5272 46.9092 56.2232 46.7646 55.9571 46.7318L55.9469 45.9763Z" fill="#182849"></path><path d="M66.0898 45.314L65.1288 43.7723C64.9645 43.5016 64.8392 43.359 64.6562 43.2914V43.1914C64.788 43.1914 65.1437 43.2072 65.2445 43.2072C65.3362 43.2072 65.7197 43.1914 65.8584 43.1914V43.2914C65.7357 43.3131 65.6781 43.3747 65.6781 43.4674C65.6781 43.5491 65.7336 43.6543 65.7896 43.7457C65.8445 43.8363 66.4984 44.9205 66.4984 44.9205L67.1805 43.7461C67.2498 43.6285 67.2984 43.5117 67.2984 43.4347C67.2984 43.3646 67.2488 43.3066 67.1325 43.2914V43.1914C67.2477 43.1914 67.4909 43.2072 67.5682 43.2072C67.6456 43.2072 67.9245 43.1914 68.0392 43.1914V43.2845C67.7768 43.3921 67.613 43.6224 67.4536 43.8894L66.58 45.3495M66.6397 45.1654V46.397C66.6397 46.519 66.733 46.6725 66.9432 46.7111V46.8119C66.8258 46.8119 66.4434 46.7957 66.3325 46.7957C66.2397 46.7957 65.8722 46.8119 65.74 46.8119V46.7111C65.9512 46.6725 66.052 46.519 66.052 46.397V45.2194" fill="#182849"></path><path d="M48.2336 43.1906H50.487C50.5567 43.1906 50.6788 43.1825 50.7484 43.1523H50.8492L50.8334 43.8845H50.7335C50.6477 43.6542 50.5587 43.4697 50.1226 43.4697H49.1442V44.7457H49.8983C50.0082 44.7457 50.1415 44.7363 50.1991 44.7227C50.3686 44.6856 50.4432 44.5913 50.4774 44.4468H50.5781C50.5709 44.5571 50.5709 44.8089 50.5709 44.8834C50.5709 44.9583 50.5781 45.2233 50.5781 45.3433H50.4774C50.429 45.1991 50.363 45.0896 50.1991 45.0494C50.1415 45.034 50.0058 45.0215 49.8983 45.0215H49.1442V46.5182H50.2083C50.6731 46.5182 50.8081 46.3245 50.9236 46.0506L51.0231 46.0739L50.9236 46.8259C50.5781 46.7953 50.3707 46.7953 49.9783 46.7953H48.8539C48.7455 46.7953 48.348 46.8111 48.2324 46.8111V46.7107C48.4354 46.672 48.5539 46.5717 48.5539 46.3772V43.6091C48.5539 43.4375 48.4616 43.3303 48.2336 43.2921V43.1906Z" fill="#182849"></path><path d="M42.4767 43.6294C42.4767 43.4438 42.3659 43.3416 42.1488 43.2947V43.1953C42.2697 43.1953 42.6608 43.2106 42.7748 43.2106C42.8702 43.2106 43.2722 43.1953 43.3946 43.1953V43.2947C43.1787 43.3416 43.0655 43.434 43.0655 43.6294V46.3783C43.0655 46.5639 43.1767 46.665 43.3946 46.7109V46.8117C43.2726 46.8117 42.8871 46.7959 42.7748 46.7959C42.6776 46.7959 42.2697 46.8117 42.1484 46.8117V46.7109C42.3704 46.6694 42.4767 46.5724 42.4767 46.3783V43.6294Z" fill="#182849"></path><path d="M59.5707 43.6294C59.5707 43.4438 59.4587 43.3416 59.2422 43.2947V43.1953C59.3627 43.1953 59.7542 43.2106 59.8673 43.2106C59.9638 43.2106 60.3654 43.1953 60.4875 43.1953V43.2947C60.2721 43.3416 60.159 43.434 60.159 43.6294V46.3783C60.159 46.5639 60.2705 46.665 60.4875 46.7109V46.8117C60.3665 46.8117 59.9814 46.7959 59.8673 46.7959C59.7718 46.7959 59.3627 46.8117 59.2422 46.8117V46.7109C59.4635 46.6694 59.5707 46.5724 59.5707 46.3783V43.6294Z" fill="#182849"></path><path d="M62.7034 43.2066C61.4677 43.2066 61.2704 43.1836 61.0176 43.168L61.0197 43.9139H61.1205C61.2128 43.5832 61.3968 43.5063 61.6352 43.5063H62.4101V46.3784C62.4101 46.5724 62.304 46.6696 62.0816 46.711V46.8118C62.2032 46.8118 62.6149 46.796 62.7098 46.796C62.8234 46.796 63.2101 46.8118 63.3301 46.8118V46.711C63.112 46.6651 63.001 46.564 63.001 46.3784V43.5063H63.7701C64.0176 43.5063 64.1941 43.5905 64.2864 43.9139H64.3861L64.3877 43.168C64.1365 43.1836 63.9386 43.2066 62.7034 43.2066Z" fill="#182849"></path><path d="M52.8461 46.3782C52.8461 46.5639 52.9641 46.6646 53.182 46.7108V46.8116C53.0612 46.8116 52.6661 46.7959 52.5533 46.7959C52.4566 46.7959 52.0708 46.8116 51.9492 46.8116V46.7108C52.1514 46.6723 52.2705 46.5724 52.2705 46.3782V43.6013C52.2705 43.4306 52.1775 43.323 51.95 43.2843V43.1844C52.0708 43.1844 52.4529 43.1997 52.5609 43.1997C52.7379 43.1997 53.2404 43.1699 53.4382 43.1699C54.3043 43.1699 54.7859 43.528 54.7859 44.1417C54.7859 44.6242 54.4275 44.9505 53.8744 45.0838C53.8744 45.0838 54.0008 45.1571 54.1267 45.3033C54.2792 45.4833 54.6915 46.075 54.8627 46.2819C55.0334 46.4894 55.252 46.721 55.4867 46.7315V46.8124C55.3742 46.8369 55.1939 46.8583 55.0563 46.8583C54.7624 46.8583 54.5278 46.7545 54.2995 46.4786C54.1022 46.2385 53.7678 45.7403 53.5704 45.4885C53.4446 45.3283 53.2919 45.203 53.0124 45.1571C52.9584 45.1478 52.9073 45.1402 52.8461 45.133V46.3782ZM52.8461 44.9025C52.9613 44.9182 53.1308 44.9255 53.2984 44.9255C53.9763 44.9255 54.1896 44.5356 54.1896 44.1905C54.1896 43.7024 53.8638 43.3999 53.2706 43.3999C53.1478 43.3999 52.9697 43.4152 52.8461 43.4385V44.9025Z" fill="#182849"></path><path d="M44.2642 43.6397C44.1853 43.465 44.064 43.3369 43.8574 43.2914V43.1895C43.9859 43.1895 44.431 43.2056 44.5287 43.2056C44.6187 43.2056 45.0077 43.1895 45.1399 43.1895V43.2885C45.0225 43.3111 44.8889 43.3759 44.8889 43.496C44.8889 43.5817 44.9408 43.6986 45.0404 43.9185L45.9731 46.0409L46.8559 43.9148C46.9256 43.7433 46.976 43.6104 46.976 43.5088C46.976 43.3965 46.8725 43.3187 46.7258 43.2885V43.1895C46.8431 43.1895 47.1306 43.2056 47.22 43.2056C47.3017 43.2056 47.6393 43.1895 47.7682 43.1895V43.2914C47.5479 43.351 47.4137 43.4722 47.2901 43.7594L45.9908 46.8231H45.6968L44.2642 43.6397Z" fill="#182849"></path><path d="M47.595 33.9777C47.4449 33.6462 47.2145 33.4045 46.8242 33.318V33.125C47.067 33.125 47.8733 33.154 48.0586 33.154C48.2294 33.154 49.0104 33.125 49.2592 33.125V33.3131C49.0385 33.3563 48.7848 33.4795 48.7848 33.707C48.7848 33.8677 48.8846 34.0897 49.0699 34.5057L50.8392 38.528L52.5134 34.4989C52.644 34.1726 52.7414 33.9233 52.7414 33.7304C52.7414 33.5161 52.5433 33.3708 52.2658 33.3131V33.125C52.4873 33.125 53.0258 33.154 53.1969 33.154C53.3523 33.154 53.9917 33.125 54.2355 33.125V33.3071C53.8179 33.4203 53.5629 33.6599 53.3302 34.204L50.8691 40.0114H50.3121L47.595 33.9777Z" fill="#182849"></path><path d="M23.7715 39.7902C24.0929 39.7169 24.3188 39.5707 24.3188 39.2067V33.8826C24.3188 33.533 24.1086 33.388 23.7715 33.3002V33.1113C23.9403 33.1113 24.6672 33.14 24.844 33.14C25.0478 33.14 25.8098 33.1113 25.9774 33.1113V33.3002C25.6563 33.3731 25.4184 33.5189 25.4184 33.8826V36.1066H29.3847V33.8826C29.3847 33.5189 29.1732 33.3731 28.8382 33.3002V33.1113C29.0056 33.1113 29.754 33.14 29.9574 33.14C30.133 33.14 30.8769 33.1113 31.0427 33.1113V33.3002C30.7215 33.3731 30.4833 33.5189 30.4833 33.8826V39.2067C30.4833 39.5562 30.7068 39.7028 31.0427 39.7902V39.9646C30.8769 39.9646 30.133 39.9502 29.9574 39.9502C29.754 39.9502 29.0056 39.9646 28.8382 39.9646V39.7902C29.1571 39.7169 29.3847 39.5707 29.3847 39.2067V36.6905H25.4184V39.2067C25.4184 39.5707 25.6415 39.7028 25.9774 39.7902V39.9646C25.8098 39.9646 25.0478 39.9502 24.844 39.9502C24.6672 39.9502 23.9403 39.9646 23.7715 39.9646V39.7902Z" fill="#182849"></path><path d="M69.6484 39.7915C70.0602 39.7182 70.2868 39.5547 70.2868 39.179V33.8839C70.2868 33.519 70.0634 33.3744 69.6655 33.3015V33.1126C69.8948 33.1126 70.6404 33.1413 70.8474 33.1413C71.1807 33.1413 72.1108 33.0684 72.8351 33.0684C75.2751 33.0684 76.7562 34.4309 76.7562 36.5027C76.7562 38.5164 75.2148 40.0086 72.6996 40.0086C71.9743 40.0086 71.114 39.9515 70.777 39.9515C70.5727 39.9515 69.8767 39.9804 69.6484 39.9804V39.7915ZM71.3855 39.4407C71.634 39.4859 72.0932 39.514 72.4554 39.514C74.505 39.514 75.5716 38.2804 75.5716 36.5598C75.5716 34.7761 74.4463 33.521 72.53 33.521C72.1386 33.521 71.649 33.5504 71.3855 33.5932V39.4407Z" fill="#182849"></path><path d="M42.0316 39.1602C42.0316 39.5131 42.2551 39.7048 42.6663 39.7922V39.9811C42.4372 39.9811 41.6908 39.9521 41.4762 39.9521C41.2949 39.9521 40.5627 39.9811 40.334 39.9811V39.7922C40.7158 39.7189 40.9409 39.5288 40.9409 39.1602V33.9032C40.9409 33.5796 40.7661 33.3752 40.3347 33.3022V33.1132C40.564 33.1132 41.2873 33.1419 41.4903 33.1419C41.8258 33.1419 42.7771 33.0859 43.1524 33.0859C44.7933 33.0859 45.7067 33.7646 45.7067 34.9253C45.7067 35.8403 45.0252 36.4561 43.9794 36.7103C43.9794 36.7103 44.2165 36.8484 44.4553 37.1267C44.7449 37.4671 45.5441 38.6109 45.867 39.0027C46.19 39.3951 46.6044 39.8332 47.0475 39.8533V40.0077C46.8352 40.0535 46.4953 40.0927 46.2355 40.0927C45.6761 40.0927 45.2319 39.8969 44.7997 39.3732C44.4272 38.9189 43.7755 37.9532 43.4021 37.4763C43.1637 37.1726 42.8762 36.9359 42.3482 36.8484C42.2442 36.8307 42.1464 36.817 42.0316 36.8041V39.1602ZM42.0316 36.368C42.2487 36.3966 42.5696 36.4111 42.8879 36.4111C44.171 36.4111 44.5741 35.6724 44.5741 35.0199C44.5741 34.0932 43.9571 33.5217 42.8331 33.5217C42.6015 33.5217 42.264 33.5511 42.0316 33.5938V36.368Z" fill="#182849"></path><path d="M63.6575 39.1602C63.6575 39.5131 63.882 39.7048 64.2937 39.7922V39.9811C64.0649 39.9811 63.3193 39.9521 63.1044 39.9521C62.9204 39.9521 62.1903 39.9811 61.9609 39.9811V39.7922C62.3417 39.7189 62.5673 39.5288 62.5673 39.1602V33.9032C62.5673 33.5796 62.3908 33.3752 61.962 33.3022V33.1132C62.1919 33.1132 62.9129 33.1419 63.1177 33.1419C63.4537 33.1419 64.4047 33.0859 64.7775 33.0859C66.4212 33.0859 67.3321 33.7646 67.3321 34.9253C67.3321 35.8403 66.6521 36.4561 65.6052 36.7103C65.6052 36.7103 65.8436 36.8484 66.0804 37.1267C66.3732 37.4671 67.1721 38.6109 67.4937 39.0027C67.818 39.3951 68.2324 39.8332 68.6729 39.8533V40.0077C68.4639 40.0535 68.122 40.0927 67.8649 40.0927C67.3044 40.0927 66.858 39.8969 66.4271 39.3732C66.0543 38.9189 65.4047 37.9532 65.0281 37.4763C64.7897 37.1726 64.5033 36.9359 63.9764 36.8484C63.8708 36.8307 63.7737 36.817 63.6575 36.8041V39.1602ZM63.6575 36.368C63.8777 36.3966 64.1967 36.4111 64.5151 36.4111C65.7988 36.4111 66.2009 35.6724 66.2009 35.0199C66.2009 34.0932 65.5833 33.5217 64.4612 33.5217C64.2276 33.5217 63.8916 33.5511 63.6575 33.5938V36.368Z" fill="#182849"></path><path d="M32.0863 39.7885C32.5204 39.6871 32.7589 39.4059 32.9171 39.0297L35.1138 33.7444C35.2072 33.5257 35.316 33.0762 35.316 33.0762H35.9306C35.9306 33.0762 36.0406 33.5269 36.132 33.746L38.4534 39.0442C38.619 39.4091 38.7982 39.6725 39.2597 39.7885L39.2585 39.9645C39.0072 39.9645 38.2259 39.95 38.0482 39.95C37.8714 39.95 37.1251 39.9645 36.8743 39.9645L36.8751 39.7885C37.2129 39.7056 37.3197 39.5336 37.3197 39.3672C37.3197 39.2259 37.2613 39.0664 37.1904 38.9009L36.6913 37.7626H34.1334L33.6764 38.9073C33.6252 39.037 33.5644 39.2202 33.5644 39.3439C33.5644 39.5348 33.6643 39.6871 34.0477 39.7885L34.0468 39.9645C33.8197 39.9645 33.22 39.95 33.0795 39.95L32.0859 39.9645L32.0863 39.7885ZM36.4598 37.2229L35.3675 34.6779L34.3502 37.2229H36.4598Z" fill="#182849"></path><path d="M53.8482 39.7885C54.2823 39.6871 54.5213 39.4059 54.6786 39.0297L56.8759 33.7444C56.9698 33.5257 57.0797 33.0762 57.0797 33.0762H57.6941C57.6941 33.0762 57.8029 33.5269 57.8941 33.746L60.2162 39.0442C60.3805 39.4091 60.5613 39.6725 61.021 39.7885L61.0199 39.9645C60.7698 39.9645 59.9874 39.95 59.8087 39.95C59.6333 39.95 58.8877 39.9645 58.6365 39.9645V39.7885C58.9762 39.7056 59.0813 39.5336 59.0813 39.3672C59.0813 39.2259 59.0237 39.0664 58.9538 38.9009L58.453 37.7626H55.8951L55.4375 38.9073C55.3863 39.037 55.3261 39.2202 55.3261 39.3439C55.3261 39.5348 55.4258 39.6871 55.8093 39.7885V39.9645C55.5815 39.9645 54.9826 39.95 54.8413 39.95L53.8477 39.9645L53.8482 39.7885ZM58.2215 37.2229L57.1287 34.6779L56.1122 37.2229H58.2215Z" fill="#182849"></path><path d="M3.49023 30.9746H18.8062V36.7602C18.8062 39.411 17.8194 45.0327 11.2053 49.2165C11.2053 49.2165 4.03876 46.2236 3.49023 36.7602V30.9746Z" fill="#182849"></path><path d="M3.45898 30.959H18.7898V36.7486C18.7898 39.4003 17.8018 45.0251 11.1818 49.2118C11.1818 49.2118 4.00833 46.2169 3.45898 36.7486V30.959Z" stroke="#182849" stroke-width="0.0210726"></path><path d="M15.0822 38.4108C15.0822 38.4108 14.9456 38.8461 14.3384 38.3987L12.2533 38.3483C12.2533 38.3483 11.9803 38.4362 11.9431 38.1505C11.9431 38.1505 11.9931 37.5799 11.9678 37.5299C11.9678 37.5299 11.9803 37.3688 11.7063 37.3688C11.7063 37.3688 11.2851 37.4183 11.2725 37.0454C11.2725 37.0454 11.1989 36.6484 11.7816 36.6616C11.7816 36.6616 11.9678 36.7481 11.9803 36.5118C11.9803 36.5118 11.9557 34.898 11.9678 34.7747C11.9678 34.7747 12.0176 34.6265 11.7317 34.6011C11.7317 34.6011 11.3226 34.6877 11.2725 34.4155C11.2725 34.4155 11.248 34.0059 11.5215 33.9805C11.5215 33.9805 11.8562 34.0059 11.9181 33.9185C11.9181 33.9185 11.9931 33.9676 11.9803 33.6712L11.9931 33.1612C11.9931 33.1612 12.029 33.0251 12.2404 33.0384C12.2404 33.0384 12.6254 33.063 12.6757 33.0251C12.6757 33.0251 12.7616 32.914 12.7869 32.8636C12.7869 32.8636 12.9859 32.8516 13.0226 32.9014C13.0226 32.9014 13.3206 33.1 14.4499 33.0251C14.4499 33.0251 14.6239 33.0251 14.6602 33.0751C14.6602 33.0751 14.8719 33.2361 14.9957 33.063C14.9957 33.063 15.1818 33.0251 15.7399 33.0384C15.7399 33.0384 16.3488 33.1991 16.7698 32.8516L16.9067 32.8765C16.9067 32.8765 17.0803 33.1612 17.2044 33.0751C17.2044 33.0751 17.5769 33.0384 17.6385 33.1125C17.6385 33.1125 17.7622 33.2974 17.7005 33.7831C17.7005 33.7831 17.6269 33.9934 17.9865 33.9934C17.9865 33.9934 18.3965 33.9185 18.3461 34.3031C18.3461 34.3031 18.4576 34.7377 17.7759 34.676C17.7759 34.676 17.6885 34.8 17.7005 34.8871C17.7005 34.8871 17.6885 36.3012 17.676 36.4635C17.676 36.4635 17.6638 36.687 17.9611 36.6741C17.9611 36.6741 18.3587 36.6484 18.3719 37.0088C18.3719 37.0088 18.4211 37.4804 17.8496 37.393C17.8496 37.393 17.676 37.4183 17.6502 37.5299L17.6269 38.1505C17.6269 38.1505 17.6385 38.4607 17.2917 38.3858C17.2422 38.3858 15.3561 38.4241 15.1942 38.3745C15.1942 38.3745 15.1064 38.3621 15.0822 38.4108Z" fill="white"></path><path d="M11.074 40.484C11.074 40.484 11.161 40.4473 11.1855 40.3861C11.1855 40.3861 11.4465 40.3606 11.4831 40.3237L12.3027 40.3861C12.3027 40.3861 13.1091 40.4473 13.4566 40.198C13.4566 40.198 13.5815 40.198 13.6684 40.2358C13.6684 40.2358 13.8412 40.2737 13.8908 40.347L14.3628 40.3345C14.3628 40.3345 14.6359 40.4223 14.6105 40.5962V40.819C14.6105 40.819 14.5606 41.2661 14.6847 41.2915H15.0454C15.0454 41.2915 15.3436 41.4277 15.3061 41.6012C15.3061 41.6012 15.3186 41.8485 15.0584 41.8989C15.0584 41.8989 14.7966 41.9729 14.7108 41.9613C14.7108 41.9613 14.6234 42.0725 14.6105 42.2089L14.5743 43.8349C14.5743 43.8349 14.5489 44.0085 14.8099 43.9838C14.8099 43.9838 15.1937 43.9464 15.3061 44.1583C15.3061 44.1583 15.4055 44.5175 15.207 44.5795L15.0584 44.6533L14.7349 44.7049C14.7349 44.7049 14.5993 44.7161 14.5863 44.9517V45.3854C14.5863 45.3854 14.5993 45.6843 14.3628 45.6843L14.0153 45.7093C14.0153 45.7093 13.9286 45.7826 13.7551 45.733C13.7551 45.733 11.645 45.7713 11.5705 45.746L11.3221 45.7962C11.3221 45.7962 11.0493 46.0444 10.8258 45.8575L10.6522 45.7209C10.6522 45.7209 10.5278 45.746 10.4791 45.733C10.4292 45.7209 8.14549 45.7584 8.14549 45.7584C8.14549 45.7584 7.66139 45.8088 7.62469 45.6465C7.62469 45.6465 7.56277 45.0141 7.58731 44.9384C7.58731 44.9384 7.58731 44.7531 7.47573 44.7411C7.47573 44.7411 6.99163 44.7161 6.97915 44.6657C6.97915 44.6657 6.71813 44.4806 6.79269 44.2947C6.79269 44.2947 6.88005 44.0455 7.14021 44.0209C7.14021 44.0209 7.53733 44.0837 7.53733 43.9718C7.53733 43.9718 7.56277 43.8973 7.56277 43.7737C7.56277 43.7737 7.58731 42.2959 7.57483 42.1969C7.57483 42.1969 7.61184 42.0107 7.4504 42.0107C7.4504 42.0107 7.2768 42.0599 7.1656 41.9858C7.1656 41.9858 6.86757 41.9984 6.80555 41.7623C6.80555 41.7623 6.75563 41.6137 6.82971 41.4884C6.82971 41.4884 6.96672 41.2158 7.36384 41.3031C7.36384 41.3031 7.58731 41.3655 7.61184 41.2048L7.60016 40.6079C7.60016 40.6079 7.54981 40.4473 7.86032 40.3606C7.86032 40.3606 8.25744 40.4718 8.38112 40.2737C8.38112 40.2737 8.51808 39.9998 8.62843 40.1859C8.62843 40.1859 8.86528 40.4099 9.51051 40.3861C9.51051 40.3861 10.6277 40.2983 10.6522 40.347C10.6522 40.347 10.9253 40.3861 10.9994 40.4718L11.074 40.484Z" fill="white"></path><path d="M7.70147 38.4104C7.70147 38.4104 7.56456 38.8457 6.95646 38.398L4.87172 38.348C4.87172 38.348 4.59869 38.4358 4.5612 38.1499C4.5612 38.1499 4.61119 37.5796 4.58537 37.5296C4.58537 37.5296 4.59869 37.3677 4.3252 37.3677C4.3252 37.3677 3.90393 37.4184 3.8918 37.046C3.8918 37.046 3.8169 36.6476 4.40009 36.6613C4.40009 36.6613 4.58537 36.7478 4.59869 36.5119C4.59869 36.5119 4.57369 34.8988 4.58537 34.774C4.58537 34.774 4.63609 34.6266 4.35056 34.6012C4.35056 34.6012 3.94051 34.6873 3.8918 34.4143C3.8918 34.4143 3.86644 34.0055 4.13911 33.9802C4.13911 33.9802 4.47426 34.0055 4.53666 33.9197C4.53666 33.9197 4.61119 33.9677 4.59869 33.6696L4.61119 33.1614C4.61119 33.1614 4.64859 33.0248 4.8584 33.0373C4.8584 33.0373 5.24427 33.0619 5.29417 33.0248C5.29417 33.0248 5.38083 32.9137 5.40456 32.8632C5.40456 32.8632 5.60435 32.8516 5.64136 32.8999C5.64136 32.8999 5.93859 33.0997 7.0691 33.0248C7.0691 33.0248 7.2419 33.0248 7.27939 33.0748C7.27939 33.0748 7.49 33.2358 7.61406 33.0619C7.61406 33.0619 7.80019 33.0248 8.35907 33.0373C8.35907 33.0373 8.96611 33.1984 9.38862 32.8516L9.52472 32.8771C9.52472 32.8771 9.69832 33.1614 9.8236 33.0748C9.8236 33.0748 10.1953 33.0373 10.2577 33.1122C10.2577 33.1122 10.3822 33.2983 10.319 33.7828C10.319 33.7828 10.2452 33.9934 10.6049 33.9934C10.6049 33.9934 11.0141 33.9197 10.965 34.3028C10.965 34.3028 11.0769 34.7374 10.3943 34.6757C10.3943 34.6757 10.3069 34.8001 10.319 34.8868C10.319 34.8868 10.3069 36.3008 10.2947 36.4631C10.2947 36.4631 10.2827 36.6851 10.5804 36.6738C10.5804 36.6738 10.9775 36.6476 10.9895 37.0089C10.9895 37.0089 11.0391 37.4801 10.4687 37.3927C10.4687 37.3927 10.2947 37.4184 10.2694 37.5296L10.2452 38.1499C10.2452 38.1499 10.2577 38.4604 9.90936 38.3863C9.85982 38.3863 7.97459 38.423 7.81256 38.3742C7.81256 38.3742 7.726 38.3617 7.70147 38.4104Z" fill="white"></path><path d="M15.0822 38.4108C15.0822 38.4108 14.9456 38.8461 14.3384 38.3987L12.2533 38.3483C12.2533 38.3483 11.9803 38.4362 11.9431 38.1505C11.9431 38.1505 11.9931 37.5799 11.9678 37.5299C11.9678 37.5299 11.9803 37.3688 11.7063 37.3688C11.7063 37.3688 11.2851 37.4183 11.2725 37.0454C11.2725 37.0454 11.1989 36.6484 11.7816 36.6616C11.7816 36.6616 11.9678 36.7481 11.9803 36.5118C11.9803 36.5118 11.9557 34.898 11.9678 34.7747C11.9678 34.7747 12.0176 34.6265 11.7317 34.6011C11.7317 34.6011 11.3226 34.6877 11.2725 34.4155C11.2725 34.4155 11.248 34.0059 11.5215 33.9805C11.5215 33.9805 11.8562 34.0059 11.9181 33.9185C11.9181 33.9185 11.9931 33.9676 11.9803 33.6712L11.9931 33.1612C11.9931 33.1612 12.029 33.0251 12.2404 33.0384C12.2404 33.0384 12.6254 33.063 12.6757 33.0251C12.6757 33.0251 12.7616 32.914 12.7869 32.8636C12.7869 32.8636 12.9859 32.8516 13.0226 32.9014C13.0226 32.9014 13.3206 33.1 14.4499 33.0251C14.4499 33.0251 14.6239 33.0251 14.6602 33.0751C14.6602 33.0751 14.8719 33.2361 14.9957 33.063C14.9957 33.063 15.1818 33.0251 15.7399 33.0384C15.7399 33.0384 16.3488 33.1991 16.7698 32.8516L16.9067 32.8765C16.9067 32.8765 17.0803 33.1612 17.2044 33.0751C17.2044 33.0751 17.5769 33.0384 17.6385 33.1125C17.6385 33.1125 17.7622 33.2974 17.7005 33.7831C17.7005 33.7831 17.6269 33.9934 17.9865 33.9934C17.9865 33.9934 18.3965 33.9185 18.3461 34.3031C18.3461 34.3031 18.4576 34.7377 17.7759 34.676C17.7759 34.676 17.6885 34.8 17.7005 34.8871C17.7005 34.8871 17.6885 36.3012 17.676 36.4635C17.676 36.4635 17.6638 36.687 17.9611 36.6741C17.9611 36.6741 18.3587 36.6484 18.3719 37.0088C18.3719 37.0088 18.4211 37.4804 17.8496 37.393C17.8496 37.393 17.676 37.4183 17.6502 37.5299L17.6269 38.1505C17.6269 38.1505 17.6385 38.4607 17.2917 38.3858C17.2422 38.3858 15.3561 38.4241 15.1942 38.3745C15.1942 38.3745 15.1064 38.3621 15.0822 38.4108Z" fill="#182849"></path><path d="M15.0826 38.4096C15.0826 38.4096 14.946 38.845 14.3387 38.3975L12.2532 38.3472C12.2532 38.3472 11.9802 38.4349 11.9431 38.149C11.9431 38.149 11.9934 37.5784 11.9676 37.5283C11.9676 37.5283 11.9802 37.3673 11.7067 37.3673C11.7067 37.3673 11.285 37.4172 11.2725 37.0442C11.2725 37.0442 11.1988 36.6471 11.7815 36.66C11.7815 36.66 11.9676 36.7466 11.9802 36.5107C11.9802 36.5107 11.9556 34.8968 11.9676 34.7731C11.9676 34.7731 12.018 34.6245 11.732 34.5995C11.732 34.5995 11.3225 34.6862 11.2725 34.4139C11.2725 34.4139 11.2484 34.0038 11.5214 33.9789C11.5214 33.9789 11.8561 34.0039 11.9182 33.9169C11.9182 33.9169 11.9934 33.966 11.9802 33.6691L11.9934 33.1593C11.9934 33.1593 12.0289 33.0232 12.2411 33.0365C12.2411 33.0365 12.6258 33.061 12.6757 33.0232C12.6757 33.0232 12.7615 32.9124 12.7873 32.862C12.7873 32.862 12.9859 32.8496 13.0229 32.8996C13.0229 32.8996 13.3206 33.0981 14.4502 33.0232C14.4502 33.0232 14.6243 33.0232 14.6605 33.0731C14.6605 33.0731 14.8723 33.2342 14.996 33.061C14.996 33.061 15.1821 33.0232 15.7403 33.0365C15.7403 33.0365 16.3492 33.1971 16.7705 32.8496L16.9075 32.8741C16.9075 32.8741 17.081 33.1593 17.2047 33.0731C17.2047 33.0731 17.5772 33.0365 17.6388 33.1101C17.6388 33.1101 17.7629 33.2958 17.7013 33.7807C17.7013 33.7807 17.6273 33.9918 17.9872 33.9918C17.9872 33.9918 18.3969 33.9169 18.3465 34.3011C18.3465 34.3011 18.458 34.7361 17.7762 34.674C17.7762 34.674 17.6892 34.7981 17.7013 34.8855C17.7013 34.8855 17.6892 36.2996 17.6767 36.4615C17.6767 36.4615 17.6642 36.685 17.9619 36.6729C17.9619 36.6729 18.3597 36.6471 18.3726 37.0072C18.3726 37.0072 18.4214 37.4788 17.8503 37.3914C17.8503 37.3914 17.6767 37.4172 17.6509 37.5283L17.6273 38.149C17.6273 38.149 17.6388 38.4595 17.2925 38.3846C17.243 38.3846 15.3564 38.4225 15.1946 38.373C15.1946 38.373 15.1067 38.3609 15.0826 38.4096Z" stroke="#182849" stroke-width="0.000916201"></path><path d="M12.7379 33.2959C12.7379 33.2959 12.7625 33.5444 12.7625 33.6072C12.7625 33.6688 12.7259 37.1929 12.7259 37.1929C12.7259 37.1929 12.7625 37.466 12.5276 37.6029C12.5276 37.6029 12.4648 37.6271 12.4531 37.4535L12.4774 33.7317C12.4774 33.7317 12.5023 33.2712 12.7379 33.2959Z" fill="white"></path><path d="M12.7392 33.2959C12.7392 33.2959 12.7633 33.5444 12.7633 33.6072C12.7633 33.6692 12.7271 37.1937 12.7271 37.1937C12.7271 37.1937 12.7633 37.4668 12.5285 37.6033C12.5285 37.6033 12.4657 37.6279 12.4531 37.4543L12.4781 33.7317C12.4781 33.7317 12.5027 33.2712 12.7392 33.2959Z" stroke="#182849" stroke-width="0.00109944"></path><path d="M12.3283 37.64C12.3283 37.64 12.3529 34.1405 12.3412 34.0785C12.3283 34.0173 12.3529 34.1292 12.3529 34.1292C12.3529 34.1292 12.3158 33.5202 12.4773 33.2714C12.4773 33.2714 12.427 33.0615 12.1418 33.3217L12.1293 33.8299C12.1293 33.8299 12.1293 34.1159 11.8692 34.1034C11.8692 34.1034 11.5711 34.0906 11.4345 34.2271C11.4345 34.2271 11.3601 34.5005 11.6452 34.4514C11.6452 34.4514 12.0923 34.4514 12.1173 34.6363L12.0923 36.5107C12.0923 36.5107 12.1917 36.8224 11.8446 36.8224C11.8446 36.8224 11.4213 36.7958 11.4345 37.0565C11.4345 37.0565 11.522 37.2795 11.8816 37.2058C11.8816 37.2058 12.1418 37.2546 12.1293 37.5038V37.9751C12.1293 37.9751 12.1043 38.1624 12.3529 38.1741H14.2888C14.2888 38.1741 14.3876 38.1861 14.3876 38.062C14.3876 38.062 14.3755 37.9631 14.2268 37.9631L12.6138 37.9381C12.6138 37.9381 12.3529 38.0254 12.3283 37.64Z" fill="white"></path><path d="M12.7014 37.6341C12.7014 37.6341 12.6515 37.8077 12.8375 37.7714H14.1159L14.4626 37.8468C14.4626 37.8468 14.8223 37.759 14.4626 37.5608C14.4626 37.5608 13.3212 37.5721 13.2222 37.5479C13.2222 37.5479 12.9862 37.4862 12.9354 37.4738C12.9354 37.4738 12.8126 37.4243 12.7014 37.6341Z" fill="white"></path><path d="M12.7014 37.6346C12.7014 37.6346 12.6515 37.8086 12.8375 37.7723H14.1162L14.4631 37.8476C14.4631 37.8476 14.8231 37.7594 14.4631 37.5609C14.4631 37.5609 13.3216 37.5721 13.2221 37.5483C13.2221 37.5483 12.9862 37.4863 12.9358 37.4738C12.9358 37.4738 12.8126 37.4243 12.7014 37.6346Z" stroke="#182849" stroke-width="0.00109944"></path><path d="M14.8216 37.81C14.8216 37.81 14.586 37.81 14.5981 38.1209C14.5981 38.1209 14.623 38.3557 14.8711 38.3557C14.8711 38.3557 15.0938 38.3191 15.0701 38.0709C15.0701 38.0709 14.9332 37.7608 14.8216 37.81Z" fill="white"></path><path d="M14.9968 37.6854C14.9968 37.6854 15.1084 37.5618 15.1833 37.5618C15.1833 37.5618 16.4242 37.6729 16.6336 37.5243C16.6336 37.5243 16.8209 37.4872 16.8708 37.5243C16.8708 37.5243 17.0565 37.6729 17.0565 37.7599C17.0565 37.7599 17.0444 37.8722 16.8209 37.8086C16.8209 37.8086 15.4185 37.8223 15.344 37.8223C15.344 37.8223 14.9586 37.9085 14.9968 37.6854Z" fill="white"></path><path d="M14.9968 37.6858C14.9968 37.6858 15.1084 37.5618 15.1833 37.5618C15.1833 37.5618 16.4245 37.673 16.6345 37.5243C16.6345 37.5243 16.8217 37.4872 16.8716 37.5243C16.8716 37.5243 17.0573 37.673 17.0573 37.7607C17.0573 37.7607 17.0452 37.8731 16.8217 37.8095C16.8217 37.8095 15.4185 37.8231 15.344 37.8231C15.344 37.8231 14.9586 37.9093 14.9968 37.6858Z" stroke="#182849" stroke-width="0.00109944"></path><path d="M15.1582 38.0879C15.1582 38.0879 15.1582 37.9876 15.3322 37.9876L17.0689 37.9755C17.0689 37.9755 17.2308 38.0625 17.2308 37.7652C17.2308 37.7652 17.2944 36.4125 17.3 34.9231C17.302 34.4796 17.3222 34.0145 17.3065 33.5835C17.3065 33.5835 17.2678 33.397 17.2179 33.3591C17.2179 33.3591 17.2179 33.161 17.4293 33.2355C17.4293 33.2355 17.6154 33.248 17.5658 33.5344L17.5787 33.9669C17.5787 33.9669 17.5413 34.1542 17.8755 34.1039C17.8755 34.1039 18.2103 34.1542 18.2236 34.2774C18.2236 34.2774 18.3226 34.5267 17.9263 34.5013H17.6395C17.6395 34.5013 17.516 34.5755 17.553 34.7249L17.516 36.5248C17.516 36.5248 17.4909 36.8345 17.789 36.8228C17.789 36.8228 18.0987 36.8099 18.1611 36.9095C18.1611 36.9095 18.3733 37.2195 17.9134 37.1946C17.9134 37.1946 17.6279 37.1817 17.5658 37.232C17.5658 37.232 17.516 37.2936 17.4788 37.8776C17.4788 37.8776 17.5042 38.2252 17.2432 38.187C17.2432 38.187 15.5179 38.2115 15.3568 38.1749C15.3568 38.1749 15.1832 38.2252 15.1582 38.0879Z" fill="white"></path><path d="M12.9243 33.1849L12.8868 37.1698C12.8868 37.1698 12.8747 37.3547 13.1849 37.3921C13.1849 37.3921 13.5445 37.4291 13.6307 37.3921C13.6307 37.3921 13.868 37.3792 14.4749 37.4046C14.4749 37.4046 14.6246 37.5548 14.6372 37.3672C14.6372 37.3672 14.7354 34.1419 14.6872 33.4701C14.6872 33.4701 14.6734 33.1849 14.4632 33.1725C14.4632 33.1725 13.52 33.2486 13.433 33.1725L13.0604 33.0742C13.0604 33.0742 12.9114 33.0863 12.9243 33.1849Z" fill="white"></path><path d="M14.8847 33.383C14.8847 33.383 14.8476 35.257 14.86 35.3191L14.8355 36.8946L14.7852 37.4411C14.7852 37.4411 14.86 37.5527 14.9222 37.4786C14.9222 37.4786 15.3192 37.3778 15.5673 37.417C15.5673 37.417 16.3624 37.4907 16.523 37.3658C16.523 37.3658 16.6474 37.4279 16.6838 37.2292C16.6838 37.2292 16.7328 33.7555 16.71 33.6935C16.71 33.6935 16.7578 33.1957 16.7328 33.1474C16.7328 33.1474 16.722 33.0358 16.5105 33.1345C16.5105 33.1345 16.5347 33.2344 15.3567 33.1957C15.3567 33.1957 14.91 33.1836 14.8847 33.383Z" fill="white"></path><path d="M16.8578 33.333L16.8457 37.2538C16.8457 37.2538 16.9448 37.6025 17.1059 37.5659C17.1059 37.5659 17.1301 37.4906 17.1421 37.3665L17.1925 33.6307C17.1925 33.6307 17.0676 33.0362 16.8578 33.333Z" fill="white"></path><path d="M16.8578 33.333L16.8457 37.2546C16.8457 37.2546 16.9452 37.6035 17.1062 37.5668C17.1062 37.5668 17.1309 37.4914 17.1429 37.3674L17.1928 33.6307C17.1928 33.6307 17.068 33.0362 16.8578 33.333Z" stroke="#182849" stroke-width="0.00109944"></path><path d="M15.3347 34.51C15.2977 34.4109 15.5457 34.3984 15.5457 34.3984L15.6702 34.423C15.7573 34.4109 15.8442 34.4483 15.8442 34.4483C15.9309 34.5845 15.7818 34.6586 15.7818 34.6586L15.7323 34.8205C15.7194 34.9574 15.7323 36.1363 15.7323 36.1363C15.7573 36.1975 15.8563 36.3087 15.8563 36.3087C15.8563 36.421 15.7194 36.3965 15.7194 36.3965L15.3601 36.409C15.2481 36.3965 15.2852 36.272 15.2852 36.272C15.4092 36.21 15.4467 35.9861 15.4467 35.9861V34.7581L15.3347 34.51Z" fill="#182849"></path><path d="M13.6585 35.6624L13.634 36.047L13.7447 36.2327C13.8201 36.3317 13.6955 36.4071 13.6955 36.4071L13.2985 36.37C13.2248 36.3317 13.2985 36.2081 13.2985 36.2081C13.398 36.147 13.4104 35.9845 13.4104 35.9845L13.398 35.2649L13.4104 34.7437C13.4104 34.6812 13.3113 34.5705 13.3113 34.5705C13.2248 34.558 13.2493 34.4464 13.2493 34.4464C13.2739 34.384 13.4841 34.4211 13.4841 34.4211H14.0061C14.5027 34.5826 14.4282 34.9426 14.4282 34.9426C14.4657 35.3019 14.081 35.4517 14.081 35.4517L14.0552 35.6503L14.4157 36.2202C14.4777 36.2701 14.4657 36.3204 14.4657 36.3204C14.4157 36.457 14.2167 36.3204 14.2167 36.3204L13.7705 35.6249C13.733 35.5749 13.6585 35.6624 13.6585 35.6624ZM13.671 34.6812C13.6831 34.9551 13.6831 35.3273 13.6831 35.3273C13.9195 35.5137 14.0552 35.2524 14.0552 35.2524C14.3649 34.9551 14.0552 34.6812 14.0061 34.6075C13.9557 34.5327 13.7077 34.5947 13.7077 34.5947L13.671 34.6812Z" fill="#182849"></path><path d="M11.074 40.484C11.074 40.484 11.161 40.4473 11.1855 40.3861C11.1855 40.3861 11.4465 40.3606 11.4831 40.3237L12.3027 40.3861C12.3027 40.3861 13.1091 40.4473 13.4566 40.198C13.4566 40.198 13.5815 40.198 13.6684 40.2358C13.6684 40.2358 13.8412 40.2737 13.8908 40.347L14.3628 40.3345C14.3628 40.3345 14.6359 40.4223 14.6105 40.5962V40.819C14.6105 40.819 14.5606 41.2661 14.6847 41.2915H15.0454C15.0454 41.2915 15.3436 41.4277 15.3061 41.6012C15.3061 41.6012 15.3186 41.8485 15.0584 41.8989C15.0584 41.8989 14.7966 41.9729 14.7108 41.9613C14.7108 41.9613 14.6234 42.0725 14.6105 42.2089L14.5743 43.8349C14.5743 43.8349 14.5489 44.0085 14.8099 43.9838C14.8099 43.9838 15.1937 43.9464 15.3061 44.1583C15.3061 44.1583 15.4055 44.5175 15.207 44.5795L15.0584 44.6533L14.7349 44.7049C14.7349 44.7049 14.5993 44.7161 14.5863 44.9517V45.3854C14.5863 45.3854 14.5993 45.6843 14.3628 45.6843L14.0153 45.7093C14.0153 45.7093 13.9286 45.7826 13.7551 45.733C13.7551 45.733 11.645 45.7713 11.5705 45.746L11.3221 45.7962C11.3221 45.7962 11.0493 46.0444 10.8258 45.8575L10.6522 45.7209C10.6522 45.7209 10.5278 45.746 10.4791 45.733C10.4292 45.7209 8.14549 45.7584 8.14549 45.7584C8.14549 45.7584 7.66139 45.8088 7.62469 45.6465C7.62469 45.6465 7.56277 45.0141 7.58731 44.9384C7.58731 44.9384 7.58731 44.7531 7.47573 44.7411C7.47573 44.7411 6.99163 44.7161 6.97915 44.6657C6.97915 44.6657 6.71813 44.4806 6.79269 44.2947C6.79269 44.2947 6.88005 44.0455 7.14021 44.0209C7.14021 44.0209 7.53733 44.0837 7.53733 43.9718C7.53733 43.9718 7.56277 43.8973 7.56277 43.7737C7.56277 43.7737 7.58731 42.2959 7.57483 42.1969C7.57483 42.1969 7.61184 42.0107 7.4504 42.0107C7.4504 42.0107 7.2768 42.0599 7.1656 41.9858C7.1656 41.9858 6.86757 41.9984 6.80555 41.7623C6.80555 41.7623 6.75563 41.6137 6.82971 41.4884C6.82971 41.4884 6.96672 41.2158 7.36384 41.3031C7.36384 41.3031 7.58731 41.3655 7.61184 41.2048L7.60016 40.6079C7.60016 40.6079 7.54981 40.4473 7.86032 40.3606C7.86032 40.3606 8.25744 40.4718 8.38112 40.2737C8.38112 40.2737 8.51808 39.9998 8.62843 40.1859C8.62843 40.1859 8.86528 40.4099 9.51051 40.3861C9.51051 40.3861 10.6277 40.2983 10.6522 40.347C10.6522 40.347 10.9253 40.3861 10.9994 40.4718L11.074 40.484Z" fill="#182849"></path><path d="M11.0744 40.4682C11.0744 40.4682 11.1605 40.432 11.186 40.37C11.186 40.37 11.4465 40.3446 11.4836 40.3075L12.3028 40.37C12.3028 40.37 13.1095 40.432 13.457 40.1827C13.457 40.1827 13.582 40.1827 13.6689 40.2206C13.6689 40.2206 13.8421 40.258 13.8908 40.3313L14.3637 40.3192C14.3637 40.3192 14.6363 40.4071 14.611 40.5805V40.8037C14.611 40.8037 14.5614 41.2508 14.6855 41.2754H15.0459C15.0459 41.2754 15.3436 41.4123 15.3069 41.5859C15.3069 41.5859 15.3194 41.8332 15.0589 41.8836C15.0589 41.8836 14.7975 41.9577 14.7117 41.9455C14.7117 41.9455 14.6242 42.0571 14.611 42.1937L14.5743 43.82C14.5743 43.82 14.5494 43.9928 14.8099 43.9686C14.8099 43.9686 15.1941 43.932 15.3069 44.1425C15.3069 44.1425 15.4064 44.5023 15.2078 44.5647L15.0589 44.6388L14.7354 44.6891C14.7354 44.6891 14.5993 44.7012 14.5872 44.936V45.3714C14.5872 45.3714 14.5993 45.669 14.3637 45.669L14.0161 45.694C14.0161 45.694 13.929 45.7681 13.7556 45.7186C13.7556 45.7186 11.6455 45.756 11.5709 45.7303L11.3221 45.7805C11.3221 45.7805 11.0498 46.029 10.8263 45.8418L10.6523 45.7052C10.6523 45.7052 10.5282 45.7303 10.4792 45.7186C10.4292 45.7052 8.14595 45.7435 8.14595 45.7435C8.14595 45.7435 7.66147 45.7935 7.62441 45.6316C7.62441 45.6316 7.56275 44.9984 7.58729 44.9235C7.58729 44.9235 7.58729 44.7382 7.47539 44.7257C7.47539 44.7257 6.99171 44.7012 6.97886 44.6512C6.97886 44.6512 6.71822 44.4648 6.79267 44.2791C6.79267 44.2791 6.88003 44.0302 7.14067 44.0051C7.14067 44.0051 7.53742 44.0689 7.53742 43.9556C7.53742 43.9556 7.56275 43.8816 7.56275 43.7583C7.56275 43.7583 7.58729 42.2806 7.57523 42.1815C7.57523 42.1815 7.6123 41.9947 7.45038 41.9947C7.45038 41.9947 7.27689 42.0442 7.16521 41.9705C7.16521 41.9705 6.86766 41.9826 6.80563 41.747C6.80563 41.747 6.75523 41.5984 6.83017 41.4735C6.83017 41.4735 6.96633 41.2004 7.36382 41.2874C7.36382 41.2874 7.58729 41.3503 7.6123 41.1892L7.59982 40.5926C7.59982 40.5926 7.5499 40.432 7.86041 40.3446C7.86041 40.3446 8.25753 40.4565 8.38158 40.258C8.38158 40.258 8.51769 39.9846 8.62889 40.1699C8.62889 40.1699 8.86569 40.3938 9.51049 40.37C9.51049 40.37 10.6281 40.2821 10.6523 40.3313C10.6523 40.3313 10.9258 40.37 10.9999 40.4565L11.0744 40.4682Z" stroke="#182849" stroke-width="0.000916201"></path><path d="M11.3966 45.3617C11.3966 45.3617 11.546 45.2864 11.6455 45.3122C11.745 45.3368 13.1965 45.3 13.1965 45.3C13.1965 45.3 13.8292 45.3492 13.9291 45.2614L14.0769 45.2123C14.0769 45.2123 14.1393 45.1382 14.1393 45.0395C14.1393 44.9393 14.1518 44.6041 14.1518 44.6041L14.1897 44.4809C14.1897 44.4809 14.1768 44.3568 14.1897 41.0426C14.1897 41.0426 14.2384 40.7832 14.0769 40.6209C14.0769 40.6209 14.0769 40.5226 14.1264 40.5344C14.1768 40.5476 14.1518 40.5476 14.1518 40.5476C14.1518 40.5476 14.3749 40.4843 14.4116 40.5713C14.4116 40.5713 14.5119 40.8681 14.4244 41.0426C14.4244 41.0426 14.3995 41.403 14.5872 41.403C14.5872 41.403 14.6604 41.478 14.8095 41.4401C14.8095 41.4401 15.1321 41.478 15.1321 41.5762C15.1321 41.5762 15.1321 41.8006 14.9086 41.7631L14.6102 41.7872C14.6102 41.7872 14.4116 41.8255 14.437 42.0604C14.4623 42.2963 14.4244 43.9842 14.4244 43.9842C14.4244 43.9842 14.4244 44.1836 14.7354 44.1712C14.7354 44.1712 15.1197 44.1583 15.1197 44.2694C15.1197 44.2694 15.2186 44.5175 14.9461 44.5305C14.9461 44.5305 14.4244 44.5175 14.4623 44.6662C14.4623 44.6662 14.4244 45.0145 14.3995 45.0757C14.3995 45.0757 14.4503 45.3617 14.3871 45.4117C14.3871 45.4117 14.3504 45.5723 14.0157 45.5478C14.0157 45.5478 11.8815 45.5356 11.546 45.5603C11.546 45.5603 11.3471 45.5356 11.3966 45.3617Z" fill="white"></path><path d="M11.0137 45.125C11.0137 45.125 11.2243 45.1617 11.2243 45.3606C11.2243 45.5588 11.2368 45.6707 11.112 45.6953C10.9883 45.7203 10.8522 45.6837 10.8156 45.5224C10.7773 45.3606 10.8392 45.1617 11.0137 45.125Z" fill="white"></path><path d="M11.2603 45.0265C11.2603 45.0265 11.4835 44.8767 11.5704 44.9026C11.5704 44.9026 12.6994 44.9762 13.0478 44.9153C13.3949 44.8529 13.1839 44.9026 13.1839 44.9026C13.1839 44.9026 13.482 44.9026 13.5681 44.7901C13.5681 44.7901 13.6555 44.7663 13.705 44.8529L13.8903 45.0523C13.8903 45.0523 13.9044 45.1752 13.6925 45.1626C13.6925 45.1626 11.6691 45.1626 11.6079 45.1752C11.6079 45.1752 11.2233 45.2364 11.2603 45.0265Z" fill="white"></path><path d="M11.2603 45.0253C11.2603 45.0253 11.4835 44.8754 11.5704 44.9008C11.5704 44.9008 12.7002 44.9749 13.0481 44.9141C13.3958 44.8513 13.1842 44.9008 13.1842 44.9008C13.1842 44.9008 13.4827 44.9008 13.5689 44.788C13.5689 44.788 13.6559 44.7647 13.7058 44.8513L13.8911 45.051C13.8911 45.051 13.9048 45.1743 13.6933 45.1614C13.6933 45.1614 11.6699 45.1614 11.6079 45.1743C11.6079 45.1743 11.2233 45.2356 11.2603 45.0253Z" stroke="#182849" stroke-width="0.00109944"></path><path d="M8.32041 40.6211C8.32041 40.6211 8.40745 40.6211 8.39486 40.7702L8.36958 44.5177C8.36958 44.5177 8.40745 44.7665 8.19636 44.9273C8.19636 44.9273 8.08398 45.0634 8.08398 44.8532L8.1347 41.0307C8.1347 41.0307 8.14649 40.745 8.32041 40.6211Z" fill="white"></path><path d="M8.31931 40.6191C8.31931 40.6191 8.40635 40.6191 8.39456 40.7681L8.36849 44.5165C8.36849 44.5165 8.40635 44.7654 8.19488 44.9261C8.19488 44.9261 8.08203 45.0622 8.08203 44.852L8.13286 41.0291C8.13286 41.0291 8.14491 40.7431 8.31931 40.6191Z" stroke="#182849" stroke-width="0.00109944"></path><path d="M8.1208 40.6455C8.1208 40.6455 7.97174 40.919 7.98427 40.9815L7.97174 41.8119C7.97174 41.8119 7.95926 42.3455 7.97174 42.4079C7.98427 42.4696 7.95926 44.0335 7.95926 44.0335C7.95926 44.0335 7.94683 44.3307 7.95926 44.4306V45.1004C7.95926 45.1004 7.93435 45.3988 8.1575 45.3231C8.1575 45.3231 10.342 45.274 10.4789 45.3118C10.4789 45.3118 10.6767 45.3485 10.6034 45.4479C10.6034 45.4479 10.6034 45.5355 10.4656 45.51C10.4656 45.51 9.43579 45.6086 8.50539 45.572C8.50539 45.572 7.8848 45.6086 7.84694 45.5355C7.84694 45.5355 7.74827 45.5229 7.74827 45.1625C7.74827 45.1625 7.74827 44.8282 7.72406 44.7661C7.72406 44.7661 7.74827 44.5901 7.43819 44.5542C7.43819 44.5542 7.00395 44.6291 6.99147 44.3686C6.99147 44.3686 7.05312 44.1825 7.47558 44.2067C7.47558 44.2067 7.78576 44.2566 7.72406 44.0077L7.76075 42.1723C7.76075 42.1723 7.79899 41.8482 7.58715 41.8352C7.58715 41.8352 7.38939 41.8252 7.32614 41.8482C7.32614 41.8482 6.96656 41.8482 6.99147 41.6388C6.99147 41.6388 7.11552 41.4148 7.47558 41.4647C7.47558 41.4647 7.74827 41.514 7.76075 41.2045C7.76075 41.2045 7.74827 40.5711 7.89686 40.5469C7.89686 40.5469 8.20784 40.5581 8.1208 40.6455Z" fill="white"></path><path d="M8.49254 44.752C8.49254 44.752 8.66646 44.9372 8.95249 44.9264L10.6387 44.9506C10.6387 44.9506 10.8261 44.9638 10.8144 45.062C10.8144 45.062 10.7878 45.2107 10.5655 45.1612L8.52993 45.1366L8.30604 45.1502C8.30604 45.1502 8.15702 45.1245 8.39382 44.8394L8.49254 44.752Z" fill="white"></path><path d="M8.49237 44.752C8.49237 44.752 8.66639 44.9376 8.95274 44.9263L10.6395 44.9509C10.6395 44.9509 10.8263 44.9638 10.8151 45.0624C10.8151 45.0624 10.7889 45.2114 10.5666 45.1624L8.52986 45.1377L8.30586 45.1506C8.30586 45.1506 8.15727 45.1253 8.39365 44.8394L8.49237 44.752Z" stroke="#182849" stroke-width="0.00109944"></path><path d="M13.7051 44.5903C13.7051 44.5903 13.854 44.8763 13.9285 44.9153C13.9285 44.9153 14.0651 45.0752 14.0281 44.79L14.0526 41.2156C14.0526 41.2156 14.0151 41.0912 14.0526 40.8934L13.904 40.6203C13.904 40.6203 13.7421 40.4964 13.7421 40.6945L13.7176 44.5049L13.7051 44.5903Z" fill="white"></path><path d="M13.7051 44.5909C13.7051 44.5909 13.8545 44.8764 13.9294 44.9159C13.9294 44.9159 14.066 45.0761 14.0289 44.7903L14.0535 41.215C14.0535 41.215 14.016 41.0913 14.0535 40.8936L13.9045 40.6202C13.9045 40.6202 13.7421 40.4965 13.7421 40.6946L13.7176 44.5054L13.7051 44.5909Z" stroke="#182849" stroke-width="0.00109944"></path><path d="M10.9514 42.8926C10.9514 42.8926 10.9639 43.1895 10.926 43.4743C10.9059 43.6317 10.9763 44.3567 10.9135 44.7284C10.9135 44.7284 10.9022 44.8528 10.6404 44.7417C10.6404 44.7417 9.05242 44.7783 9.00288 44.7284C9.00288 44.7284 8.56874 44.7417 8.53125 44.5177C8.53125 44.5177 8.59328 42.8177 8.55621 42.7545C8.55621 42.7545 8.53125 41.8241 8.55621 41.7375C8.55621 41.7375 8.59328 40.8813 8.56874 40.7822C8.56874 40.7822 8.58122 40.5836 8.54373 40.4838C8.54373 40.4838 8.54373 40.3597 8.7552 40.4338C8.7552 40.4338 8.82853 40.5708 9.2385 40.51C9.2385 40.51 9.5369 40.5591 9.8225 40.5216C9.8225 40.5216 10.4548 40.4721 10.6167 40.5216C10.6167 40.5216 10.8652 40.4721 10.9384 40.746L10.926 41.5148L11.0001 41.7629L11.0875 41.7012L11.1242 41.5148L11.1367 40.6956C11.1367 40.6956 11.1862 40.5462 11.3855 40.5216C11.3855 40.5216 11.6957 40.4838 11.746 40.51C11.7956 40.5337 12.4645 40.5708 12.6518 40.5337C12.8374 40.4966 12.8741 40.6577 13.4336 40.373C13.4336 40.373 13.5826 40.3855 13.5826 40.4838C13.5826 40.4838 13.5318 41.5402 13.5826 41.7375C13.5826 41.7375 13.5826 43.6732 13.5439 43.8098L13.5692 44.4303C13.5692 44.4303 13.5939 44.7035 13.1605 44.7284C13.1605 44.7284 13.4336 44.7658 11.7198 44.7162C11.7198 44.7162 11.4472 44.7035 11.1495 44.8396C11.1495 44.8396 11.0875 44.8274 11.0875 44.6664C11.0875 44.6664 11.1367 44.0836 11.0875 43.5117L11.0634 42.879L10.9514 42.8926Z" fill="white"></path><path d="M9.83406 42.0115C9.83406 42.0115 9.87156 42.9295 9.83406 43.0535L9.82238 43.2525C9.82238 43.2525 9.87156 43.3881 9.94606 43.4385C9.94606 43.4385 10.0085 43.6117 9.85908 43.5996C9.85908 43.5996 9.54937 43.5746 9.47481 43.5864C9.47481 43.5864 9.30041 43.5864 9.47481 43.3643C9.47481 43.3643 9.53684 43.2761 9.52398 43.0535C9.52398 43.0535 9.52398 42.0115 9.54937 41.9499C9.54937 41.9499 9.5739 41.8126 9.48686 41.7751L9.33742 41.788L9.15214 41.9616C9.15214 41.9616 9.11433 42.1485 9.02734 41.9499V41.8497L9.13977 41.552L9.21428 41.5391C9.21428 41.5391 9.32537 41.6137 9.42446 41.6394H10.0085L10.2191 41.5391C10.2191 41.5391 10.3057 41.552 10.282 41.6636C10.282 41.6636 10.3182 41.9499 10.1571 41.9862C10.1571 41.9862 10.0576 41.9499 10.0085 41.8126C10.0085 41.8126 9.84702 41.7264 9.83406 42.0115Z" fill="#182849"></path><path d="M12.5763 41.6767C12.5763 41.6767 12.1055 41.6392 12.0939 42.1478C12.0939 42.1478 12.0427 42.4962 12.5647 42.7198C12.5647 42.7198 12.9497 42.9051 12.9239 43.1407C12.9239 43.1407 12.8744 43.5628 12.4648 43.3521C12.4648 43.3521 12.2666 43.2522 12.2799 43.1407C12.2799 43.1407 12.2168 43.0037 12.1426 43.029C12.1426 43.029 12.0552 43.0533 12.0939 43.4633C12.0939 43.4633 12.0939 43.6247 12.2799 43.4633L12.3777 43.4886C12.3777 43.4886 12.7132 43.7617 12.998 43.4259C12.998 43.4259 13.309 43.1407 13.085 42.7935C13.085 42.7935 12.9239 42.5462 12.6388 42.4218C12.6388 42.4218 12.3657 42.2965 12.3041 42.0858C12.3041 42.0858 12.3911 41.7129 12.7254 41.9115C12.7254 41.9115 12.8498 42.0605 12.9239 42.0858C12.9239 42.0858 13.0234 42.0858 12.998 41.8614L12.9746 41.6767C12.9746 41.6767 12.9497 41.5385 12.7753 41.6767C12.7753 41.6767 12.6138 41.7379 12.5763 41.6767Z" fill="#182849"></path><path d="M11.0617 41.4152C11.1482 41.4784 11.1607 41.6021 11.1607 41.6021C11.4089 42.2593 11.6203 43.2158 11.6203 43.2158C11.6819 43.3387 11.7939 43.4386 11.7939 43.4386C12.0049 43.5127 11.7939 43.5743 11.7939 43.5743C11.7069 43.6122 11.4222 43.563 11.4222 43.563C11.2723 43.5365 11.3339 43.4881 11.3339 43.4881C11.3967 43.4261 11.3468 43.1772 11.3468 43.1772C11.3339 43.0789 11.2232 42.9171 11.2232 42.9171C11.1737 42.892 11.0866 43.0036 11.0866 43.0036C11.0866 43.0036 10.9505 43.0535 10.9372 43.0036C10.9247 42.9532 10.8381 42.9062 10.8381 42.9062C10.6891 42.9062 10.6275 43.2762 10.6275 43.2762C10.7141 43.5868 10.6275 43.5365 10.6275 43.5365C10.5535 43.6368 10.317 43.563 10.317 43.563C10.2054 43.5365 10.2807 43.4499 10.2807 43.4499C10.4164 43.4261 10.4535 43.2762 10.4535 43.2762C10.516 43.1896 10.9122 41.5767 10.9122 41.5767C10.9505 41.5017 10.9746 41.3531 11.0617 41.4152ZM10.864 42.234C10.851 42.2964 10.7636 42.6439 10.7636 42.6439L10.8381 42.7692C10.8381 42.7692 11.0371 42.7805 11.1112 42.7805C11.1849 42.7805 11.1982 42.7197 11.1982 42.6564C11.1982 42.5949 11.0617 42.2227 11.0617 42.2227L10.9989 42.1482L10.864 42.234Z" fill="#182849"></path><path d="M7.70147 38.4104C7.70147 38.4104 7.56456 38.8457 6.95646 38.398L4.87172 38.348C4.87172 38.348 4.59869 38.4358 4.5612 38.1499C4.5612 38.1499 4.61119 37.5796 4.58537 37.5296C4.58537 37.5296 4.59869 37.3677 4.3252 37.3677C4.3252 37.3677 3.90393 37.4184 3.8918 37.046C3.8918 37.046 3.8169 36.6476 4.40009 36.6613C4.40009 36.6613 4.58537 36.7478 4.59869 36.5119C4.59869 36.5119 4.57369 34.8988 4.58537 34.774C4.58537 34.774 4.63609 34.6266 4.35056 34.6012C4.35056 34.6012 3.94051 34.6873 3.8918 34.4143C3.8918 34.4143 3.86644 34.0055 4.13911 33.9802C4.13911 33.9802 4.47426 34.0055 4.53666 33.9197C4.53666 33.9197 4.61119 33.9677 4.59869 33.6696L4.61119 33.1614C4.61119 33.1614 4.64859 33.0248 4.8584 33.0373C4.8584 33.0373 5.24427 33.0619 5.29417 33.0248C5.29417 33.0248 5.38083 32.9137 5.40456 32.8632C5.40456 32.8632 5.60435 32.8516 5.64136 32.8999C5.64136 32.8999 5.93859 33.0997 7.0691 33.0248C7.0691 33.0248 7.2419 33.0248 7.27939 33.0748C7.27939 33.0748 7.49 33.2358 7.61406 33.0619C7.61406 33.0619 7.80019 33.0248 8.35907 33.0373C8.35907 33.0373 8.96611 33.1984 9.38862 32.8516L9.52472 32.8771C9.52472 32.8771 9.69832 33.1614 9.8236 33.0748C9.8236 33.0748 10.1953 33.0373 10.2577 33.1122C10.2577 33.1122 10.3822 33.2983 10.319 33.7828C10.319 33.7828 10.2452 33.9934 10.6049 33.9934C10.6049 33.9934 11.0141 33.9197 10.965 34.3028C10.965 34.3028 11.0769 34.7374 10.3943 34.6757C10.3943 34.6757 10.3069 34.8001 10.319 34.8868C10.319 34.8868 10.3069 36.3008 10.2947 36.4631C10.2947 36.4631 10.2827 36.6851 10.5804 36.6738C10.5804 36.6738 10.9775 36.6476 10.9895 37.0089C10.9895 37.0089 11.0391 37.4801 10.4687 37.3927C10.4687 37.3927 10.2947 37.4184 10.2694 37.5296L10.2452 38.1499C10.2452 38.1499 10.2577 38.4604 9.90936 38.3863C9.85982 38.3863 7.97459 38.423 7.81256 38.3742C7.81256 38.3742 7.726 38.3617 7.70147 38.4104Z" fill="#182849"></path><path d="M7.69982 38.4092C7.69982 38.4092 7.56292 38.8446 6.95481 38.3967L4.86973 38.3468C4.86973 38.3468 4.5966 38.4346 4.5592 38.1483C4.5592 38.1483 4.60956 37.578 4.58374 37.528C4.58374 37.528 4.5966 37.3665 4.32312 37.3665C4.32312 37.3665 3.90185 37.4172 3.88981 37.0447C3.88981 37.0447 3.81528 36.6459 4.39847 36.6596C4.39847 36.6596 4.58374 36.7463 4.5966 36.5107C4.5966 36.5107 4.57161 34.8969 4.58374 34.7724C4.58374 34.7724 4.63446 34.6245 4.34857 34.5995C4.34857 34.5995 3.93852 34.6858 3.88981 34.4123C3.88981 34.4123 3.86445 34.0035 4.13748 33.9786C4.13748 33.9786 4.47218 34.0035 4.53503 33.9174C4.53503 33.9174 4.60956 33.9661 4.5966 33.668L4.60956 33.1593C4.60956 33.1593 4.6466 33.0228 4.85677 33.0357C4.85677 33.0357 5.24228 33.0598 5.29218 33.0228C5.29218 33.0228 5.37918 32.9121 5.40292 32.8617C5.40292 32.8617 5.60222 32.8496 5.63972 32.8983C5.63972 32.8983 5.93657 33.0977 7.0675 33.0228C7.0675 33.0228 7.24025 33.0228 7.27774 33.0728C7.27774 33.0728 7.48836 33.2338 7.61246 33.0598C7.61246 33.0598 7.79892 33.0228 8.35748 33.0357C8.35748 33.0357 8.96494 33.196 9.38702 32.8496L9.5235 32.8749C9.5235 32.8749 9.6971 33.1593 9.82196 33.0728C9.82196 33.0728 10.1937 33.0357 10.2569 33.1098C10.2569 33.1098 10.3805 33.2963 10.3177 33.7804C10.3177 33.7804 10.2436 33.9918 10.6033 33.9918C10.6033 33.9918 11.0133 33.9174 10.9633 34.3008C10.9633 34.3008 11.0753 34.7357 10.3931 34.6737C10.3931 34.6737 10.3053 34.7981 10.3177 34.8852C10.3177 34.8852 10.3053 36.2992 10.2936 36.4611C10.2936 36.4611 10.2811 36.6838 10.5788 36.6726C10.5788 36.6726 10.9758 36.6459 10.9884 37.0076C10.9884 37.0076 11.0374 37.4785 10.4671 37.3911C10.4671 37.3911 10.2936 37.4172 10.2682 37.528L10.2436 38.1483C10.2436 38.1483 10.2569 38.4592 9.9082 38.385C9.85865 38.385 7.97294 38.4213 7.81097 38.3727C7.81097 38.3727 7.72436 38.3605 7.69982 38.4092Z" stroke="#182849" stroke-width="0.000916201"></path><path d="M5.35621 33.2979C5.35621 33.2979 5.38122 33.5455 5.38122 33.6076C5.38122 33.6696 5.34336 37.1941 5.34336 37.1941C5.34336 37.1941 5.38122 37.468 5.14484 37.6037C5.14484 37.6037 5.08317 37.6291 5.07031 37.4555L5.09567 33.7325C5.09567 33.7325 5.12021 33.2729 5.35621 33.2979Z" fill="white"></path><path d="M5.35664 33.2978C5.35664 33.2978 5.38154 33.5455 5.38154 33.6075C5.38154 33.6696 5.34373 37.1944 5.34373 37.1944C5.34373 37.1944 5.38154 37.4683 5.14484 37.6048C5.14484 37.6048 5.08317 37.6298 5.07031 37.4562L5.09485 33.7328C5.09485 33.7328 5.11984 33.2732 5.35664 33.2978Z" stroke="#182849" stroke-width="0.00109944"></path><path d="M4.94575 37.6401C4.94575 37.6401 4.96992 34.1405 4.95824 34.0781C4.94575 34.0169 4.96992 34.1284 4.96992 34.1284C4.96992 34.1284 4.9337 33.5211 5.09472 33.2722C5.09472 33.2722 5.04481 33.0611 4.75929 33.3213L4.74798 33.8304C4.74798 33.8304 4.74798 34.116 4.48662 34.1034C4.48662 34.1034 4.18859 34.0906 4.05167 34.228C4.05167 34.228 3.9775 34.5005 4.2623 34.4515C4.2623 34.4515 4.70975 34.4515 4.73429 34.6363L4.70975 36.5107C4.70975 36.5107 4.80919 36.8209 4.46126 36.8209C4.46126 36.8209 4.03953 36.7971 4.05167 37.0577C4.05167 37.0577 4.13861 37.2812 4.49912 37.2063C4.49912 37.2063 4.75929 37.2562 4.74798 37.5032V37.9759C4.74798 37.9759 4.72179 38.1624 4.96992 38.1737H6.90631C6.90631 38.1737 7.00545 38.1861 7.00545 38.0617C7.00545 38.0617 6.99287 37.9638 6.84476 37.9638L5.2321 37.9381C5.2321 37.9381 4.96992 38.0251 4.94575 37.6401Z" fill="white"></path><path d="M5.2813 37.6665C5.2813 37.6665 5.23213 37.841 5.41741 37.8026H6.69571L7.04328 37.8768C7.04328 37.8768 7.40413 37.7901 7.04328 37.5911C7.04328 37.5911 5.90152 37.6045 5.802 37.5795C5.802 37.5795 5.56685 37.5175 5.51693 37.505C5.51693 37.505 5.39251 37.4559 5.2813 37.6665Z" fill="white"></path><path d="M5.27935 37.6662C5.27935 37.6662 5.23018 37.8413 5.41545 37.8023H6.69422L7.04222 37.8772C7.04222 37.8772 7.40302 37.7906 7.04222 37.5913C7.04222 37.5913 5.89993 37.6045 5.80052 37.5788C5.80052 37.5788 5.56489 37.5171 5.51497 37.5051C5.51497 37.5051 5.39044 37.4555 5.27935 37.6662Z" stroke="#182849" stroke-width="0.00109944"></path><path d="M7.40215 37.8396C7.40215 37.8396 7.16578 37.8396 7.17821 38.1481C7.17821 38.1481 7.20322 38.3853 7.45085 38.3853C7.45085 38.3853 7.67447 38.3467 7.65026 38.0997C7.65026 38.0997 7.51325 37.7889 7.40215 37.8396Z" fill="white"></path><path d="M7.57679 37.7143C7.57679 37.7143 7.68799 37.5903 7.76324 37.5903C7.76324 37.5903 9.00378 37.7023 9.21482 37.5536C9.21482 37.5536 9.40164 37.5165 9.45044 37.5536C9.45044 37.5536 9.63652 37.7022 9.63652 37.7888C9.63652 37.7888 9.62442 37.9016 9.40164 37.8395C9.40164 37.8395 7.99807 37.8512 7.92436 37.8512C7.92436 37.8512 7.5393 37.9378 7.57679 37.7143Z" fill="white"></path><path d="M7.57484 37.7145C7.57484 37.7145 7.68641 37.59 7.76129 37.59C7.76129 37.59 9.00225 37.7024 9.21324 37.5537C9.21324 37.5537 9.40049 37.5163 9.44924 37.5537C9.44924 37.5537 9.63532 37.7024 9.63532 37.7893C9.63532 37.7893 9.62326 37.9022 9.40049 37.8397C9.40049 37.8397 7.99697 37.8519 7.92241 37.8519C7.92241 37.8519 7.53734 37.9384 7.57484 37.7145Z" stroke="#182849" stroke-width="0.00109944"></path><path d="M7.77539 38.0874C7.77539 38.0874 7.77539 37.9887 7.94814 37.9887L9.68686 37.9759C9.68686 37.9759 9.8475 38.0616 9.8475 37.7648C9.8475 37.7648 9.91118 36.4115 9.91683 34.9221C9.91923 34.4792 9.93854 34.014 9.92168 33.5829C9.92168 33.5829 9.88467 33.3973 9.83512 33.359C9.83512 33.359 9.83512 33.1605 10.0469 33.2358C10.0469 33.2358 10.2318 33.2475 10.1826 33.5326L10.1947 33.9672C10.1947 33.9672 10.1577 34.1533 10.4927 34.1037C10.4927 34.1037 10.8274 34.1533 10.8395 34.2773C10.8395 34.2773 10.9398 34.5262 10.5431 34.5009H10.258C10.258 34.5009 10.1335 34.575 10.1705 34.7244L10.1335 36.5235C10.1335 36.5235 10.1077 36.8336 10.4065 36.8223C10.4065 36.8223 10.7167 36.8095 10.7779 36.9085C10.7779 36.9085 10.9897 37.2191 10.5302 37.1941C10.5302 37.1941 10.2446 37.1812 10.1826 37.2307C10.1826 37.2307 10.1335 37.2939 10.096 37.8764C10.096 37.8764 10.1206 38.224 9.86003 38.1865C9.86003 38.1865 8.13496 38.2106 7.97432 38.174C7.97432 38.174 7.79992 38.224 7.77539 38.0874Z" fill="white"></path><path d="M5.54019 33.1843L5.50398 37.1683C5.50398 37.1683 5.49144 37.3532 5.80152 37.3906C5.80152 37.3906 6.16206 37.4281 6.24824 37.3906C6.24824 37.3906 6.48344 37.3785 7.09198 37.4035C7.09198 37.4035 7.24104 37.5517 7.2531 37.3665C7.2531 37.3665 7.35262 34.1392 7.30296 33.4694C7.30296 33.4694 7.29091 33.1843 7.07912 33.1718C7.07912 33.1718 6.13667 33.2459 6.04963 33.1718L5.6779 33.0723C5.6779 33.0723 5.52814 33.084 5.54019 33.1843Z" fill="white"></path><path d="M9.475 33.3335L9.46289 37.2555C9.46289 37.2555 9.56241 37.604 9.72433 37.5668C9.72433 37.5668 9.74886 37.492 9.76097 37.367L9.81132 33.6312C9.81132 33.6312 9.68684 33.0354 9.475 33.3335Z" fill="white" stroke="#182849" stroke-width="0.00109944"></path><path d="M9.475 33.3335L9.46289 37.2555C9.46289 37.2555 9.56241 37.604 9.72433 37.5668C9.72433 37.5668 9.74886 37.492 9.76097 37.367L9.81132 33.6312C9.81132 33.6312 9.68684 33.0354 9.475 33.3335Z" stroke="#182849" stroke-width="0.00109944"></path><path d="M7.50181 33.3671C7.50181 33.3671 7.46437 35.2407 7.47605 35.3036L7.45264 36.8799L7.40234 37.4244C7.40234 37.4244 7.47605 37.5377 7.53845 37.4627C7.53845 37.4627 7.936 37.3639 8.18405 37.4007C8.18405 37.4007 8.97872 37.4756 9.13941 37.3511C9.13941 37.3511 9.26352 37.4127 9.3009 37.2142C9.3009 37.2142 9.35008 33.74 9.32544 33.6777C9.32544 33.6777 9.37541 33.1818 9.35008 33.1327C9.35008 33.1327 9.33754 33.0199 9.12773 33.1186C9.12773 33.1186 9.15184 33.2189 7.97344 33.1818C7.97344 33.1818 7.5264 33.169 7.50181 33.3671Z" fill="white"></path><path d="M7.11937 34.5147L7.00705 34.7515C7.00705 34.7515 6.73516 35.9546 6.58652 36.2023C6.58652 36.2023 6.56156 36.4512 6.35052 36.2521C6.35052 36.2521 5.86604 34.7261 5.8414 34.6762L5.67996 34.5646C5.67996 34.5646 5.58209 34.4281 5.75484 34.416L6.21399 34.4281C6.21399 34.4281 6.36257 34.5517 6.16444 34.6898C6.16444 34.6898 6.18908 34.8881 6.44961 35.644C6.44961 35.644 6.52369 35.9296 6.61073 35.7185L6.85921 34.8372L6.78465 34.5767C6.78465 34.5767 6.70977 34.4527 6.82215 34.4406C6.82215 34.4406 7.08279 34.416 7.11937 34.5147Z" fill="#182849"></path><path d="M7.83883 34.7135L7.8255 36.0289L7.78929 36.128C7.78929 36.128 7.66486 36.2887 7.75142 36.3016C7.75142 36.3016 7.6407 36.3765 8.54523 36.3885C8.54523 36.3885 8.89361 36.4502 8.80625 36.0036C8.80625 36.0036 8.76918 35.8424 8.64433 36.0785C8.64433 36.0785 8.60726 36.2761 8.16144 36.2146C8.16144 36.2146 8.06193 36.128 8.06193 36.0289V35.4824C8.06193 35.4824 8.0487 35.3454 8.26006 35.3595C8.26006 35.3595 8.49568 35.5077 8.53318 35.4449C8.53318 35.4449 8.61979 35.2472 8.53318 35.1227C8.53318 35.1227 8.42118 35.111 8.40913 35.1605C8.40913 35.1605 8.33462 35.3087 8.12363 35.2218C8.12363 35.2218 8.02454 35.0236 8.08646 34.8621C8.08646 34.8621 8.06192 34.5516 8.27302 34.5769C8.27302 34.5769 8.52107 34.6261 8.54523 34.7014C8.54523 34.7014 8.60726 34.8508 8.67014 34.6769L8.60726 34.465C8.60726 34.465 8.57105 34.378 8.50859 34.4029C8.50859 34.4029 8.08646 34.465 8.03622 34.4146L7.70107 34.4525C7.70107 34.4525 7.65201 34.5769 7.80139 34.6382C7.80139 34.6382 7.83883 34.6636 7.83883 34.7135Z" fill="#182849"></path></g></g></svg> 