<?xml version="1.0" encoding="UTF-8"?> <svg xmlns="http://www.w3.org/2000/svg" width="1160" height="280" viewBox="0 0 1160 280" fill="none"> <g clip-path="url(#clip0_404_2315)"> <mask id="mask0_404_2315" style="mask-type:alpha" maskUnits="userSpaceOnUse" x="0" y="-57" width="1160" height="357"> <rect y="-57" width="1160" height="356.923" fill="url(#paint0_linear_404_2315)"></rect> </mask> <g mask="url(#mask0_404_2315)"> <path d="M303.78 276.231H340.325H344.893V237.194L357.351 213.107L369.81 237.194V276.231H384.76L396.388 218.921H404.694V191.928H407.601V206.463L427.534 230.549H460.757V179.885H464.079V216.014L477.784 230.549H482.352V214.769H502.701V227.227H510.591V196.496L533.017 176.147V296.58H540.907V138.356H583.266V302.809H589.911V115.931H593.233V125.898H597.801V99.3196H627.286V318.59H638.914V191.928H650.127V138.356H671.722V83.954H678.781V78.14H682.104L692.486 61.944L693.732 19.585L695.393 61.944L705.775 78.14H708.682V83.954H716.157V169.087H735.675V183.207H752.287V260.035H764.745V153.722H774.297V147.493H781.357V138.356H785.925V107.625H795.476V138.356H800.46V147.493H808.35V153.722H817.902V209.785H824.131C825.1 196.496 832.187 169.17 852.785 166.18L854.031 233.041H871.889V191.928H883.932V128.389L895.56 99.3196L899.297 70.6649L903.45 99.3196L915.493 128.389V287.859H925.045V182.792H934.181V136.28L953.284 152.061V182.792H959.098V253.805V300.317H978.617V260.035H1003.53V174.901H1019.31V300.317H1049.63V240.101H1084.51V318.59H1125.63H1162.15V456.748H1125.63H303.78H-9.89233V276.231H65.4437V303.122H99.6874V213.107H112.472V146.971H138.497V214.769H152.194V309.971H196.939V276.231H239.858V222.764L253.099 179.885L272.732 222.764V303.122H303.78V276.231Z" fill="#57C4E0"></path> <path fill-rule="evenodd" clip-rule="evenodd" d="M324.654 239.162H323.236C322.746 239.053 322.247 238.938 321.74 238.817V226.182C322.713 226.776 323.685 227.359 324.654 227.93V239.162ZM327.569 239.162H330.483V231.249C329.518 230.718 328.546 230.174 327.569 229.618V239.162ZM336.312 239.162H333.397V232.824C334.379 233.346 335.351 233.853 336.312 234.347V239.162ZM339.226 239.162H346.294C344.052 238.151 341.684 237.034 339.226 235.816V239.162ZM339.226 232.556C344.567 235.244 349.512 237.467 353.694 239.162H357.524C351.337 236.599 345.203 232.889 339.226 228.385V232.556ZM336.312 226.117C335.335 225.333 334.364 224.53 333.397 223.708V229.515C334.378 230.045 335.35 230.56 336.312 231.062V226.117ZM327.569 218.476C328.534 219.388 329.506 220.283 330.483 221.16V227.913C329.517 227.373 328.545 226.82 327.569 226.254V218.476ZM324.857 215.859C323.809 214.826 322.77 213.776 321.74 212.71V222.756C322.713 223.361 323.685 223.955 324.654 224.536V215.818L324.857 215.859ZM318.826 224.371V238.069C317.418 237.685 315.958 237.254 314.454 236.773V221.524C315.907 222.497 317.366 223.447 318.826 224.371ZM318.826 220.908V209.631C317.347 208.037 315.889 206.414 314.454 204.772V218.001C315.905 218.995 317.364 219.964 318.826 220.908ZM311.54 201.372V215.962C310.561 215.262 309.589 214.552 308.626 213.832V197.845C309.273 198.643 309.926 199.438 310.584 200.229C310.901 200.611 311.22 200.992 311.54 201.372ZM311.54 219.532V235.796C310.583 235.46 309.611 235.105 308.626 234.729V217.456C309.557 218.134 310.494 218.802 311.435 219.459L311.54 219.532ZM311.54 238.882C310.583 238.556 309.611 238.21 308.626 237.845V239.162H311.54V238.882ZM305.711 215.288V233.574C304.75 233.178 303.778 232.763 302.797 232.328V213.016C303.759 213.784 304.731 214.542 305.711 215.288ZM305.711 211.602V194.19C304.726 192.932 303.754 191.67 302.797 190.406V209.259C303.756 210.05 304.728 210.832 305.711 211.602ZM305.711 239.162V236.722C304.75 236.338 303.778 235.934 302.797 235.512V238.587C303.203 238.782 303.608 238.973 304.011 239.162H305.711ZM299.883 186.492V206.784C298.383 205.473 296.923 204.136 295.511 202.776V180.368C296.925 182.399 298.384 184.444 299.883 186.492ZM299.883 210.626V230.991C298.441 230.305 296.982 229.578 295.511 228.806V206.781C296.933 208.09 298.393 209.372 299.883 210.626ZM299.883 234.212C298.441 233.546 296.982 232.84 295.511 232.09V234.895C296.978 235.675 298.437 236.431 299.883 237.157V234.212ZM292.597 204.008V227.225C291.147 226.413 289.689 225.558 288.225 224.657V199.436C289.621 200.99 291.082 202.514 292.597 204.008ZM292.597 199.858V176.112C291.079 173.858 289.62 171.632 288.225 169.449V194.981C289.602 196.635 291.064 198.261 292.597 199.858ZM292.597 233.318V230.556C291.148 229.77 289.689 228.941 288.225 228.068V230.861C289.333 231.497 290.444 232.125 291.555 232.742C291.707 232.827 291.859 232.911 292.011 232.995C292.138 233.065 292.265 233.135 292.392 233.205L292.597 233.318ZM290.141 235.294C290.959 235.748 291.778 236.198 292.597 236.641V239.162H288.225V234.219C288.863 234.58 289.502 234.938 290.141 235.294ZM295.511 238.193V239.162H297.385C296.762 238.844 296.137 238.521 295.511 238.193ZM285.311 164.805V191.262C283.301 188.526 281.535 185.723 280.068 182.861L279.656 155.252C281.359 158.255 283.251 161.461 285.311 164.805ZM285.311 196.027V222.806C283.746 221.781 282.179 220.703 280.615 219.57L280.157 188.883C281.696 191.32 283.426 193.703 285.311 196.027ZM285.311 226.276C283.766 225.297 282.217 224.268 280.669 223.188L280.717 226.413C282.229 227.335 283.763 228.256 285.311 229.167V226.276ZM285.311 232.546C283.784 231.659 282.267 230.759 280.768 229.855L280.907 239.162H285.311V232.546ZM365.455 239.162V238.79L364.398 238.488C346.486 233.364 328.329 217.011 312.824 198.362C298.563 181.21 286.717 162.328 279.564 149.067L279.482 143.601H276.568L273.654 134.848L270.739 144.331L259.811 145.06L256.896 137.036L253.982 145.79L221.924 147.978L219.739 140.683L216.096 148.708L206.624 149.437L204.438 142.872L201.524 149.437H199.338V150.339C182.112 169.608 164.382 184.094 147.039 195.392H146.88V195.495C119.567 213.26 93.2203 223.128 71.3189 231.331L71.3185 231.331L71.3177 231.332L71.3164 231.332L71.3163 231.332L71.3162 231.332C65.8401 233.383 60.6419 235.33 55.7761 237.271C54.6584 237.669 53.5247 238.087 52.3732 238.527L52.4137 238.634C51.9873 238.81 51.5636 238.986 51.1429 239.162H50.7077V252.292H197.881V300.437H209.539V252.292H219.739V300.437H231.396V252.292H250.339V300.437H261.996V252.292H272.196V300.437H283.854V252.292H368.369V239.162H365.455ZM146.88 198.959C144.443 200.521 142.013 202.021 139.595 203.463V208.636C141.943 207.29 144.369 205.846 146.88 204.297V198.959ZM146.88 207.718C144.371 209.244 141.945 210.665 139.595 211.992V223.879C142.141 223.098 144.578 222.291 146.88 221.456V207.718ZM149.795 220.357V205.921C151.69 204.737 153.632 203.495 155.624 202.19V217.827C153.829 218.695 151.879 219.538 149.795 220.357ZM146.88 227.117C144.509 227.663 142.076 228.202 139.595 228.732V239.162H146.88V227.117ZM149.795 239.162V226.434C151.791 225.958 153.737 225.477 155.624 224.991V239.162H149.795ZM149.795 202.476V197.066C151.733 195.788 153.677 194.471 155.624 193.111V198.697C153.631 200.018 151.689 201.276 149.795 202.476ZM238.682 160.419V164.296L240.817 162.676L238.682 160.419ZM235.767 166.506V162.353L232.574 166.303L233.876 167.941L235.767 166.506ZM235.767 170.167V170.318L235.692 170.224L235.767 170.167ZM238.682 173.983V167.956L242.833 164.807L247.514 169.754C245.235 171.598 242.713 173.612 240.051 175.704L238.682 173.983ZM238.682 180.474C238.979 180.243 239.275 180.013 239.57 179.783L251.068 194.24V205.51L250.939 205.385C247.534 202.093 243.287 197.766 238.682 192.958V180.474ZM235.767 182.722V189.903C234.466 188.533 233.147 187.136 231.818 185.724C233.142 184.727 234.461 183.724 235.767 182.722ZM235.767 175.003V179.042C234.329 180.153 232.867 181.273 231.396 182.387V173.482L233.369 171.986L235.767 175.003ZM235.767 194.13C235.424 193.771 235.078 193.408 234.731 193.044C233.633 191.891 232.519 190.717 231.396 189.527V235.181L235.767 234.931V194.13ZM238.682 197.166V234.764L251.068 234.055V209.533C250.392 208.902 249.672 208.217 248.914 207.484C246.001 204.667 242.491 201.114 238.682 197.166ZM231.553 169.703L231.396 169.506V169.822L231.553 169.703ZM228.482 171.364V172.032L227.084 173.093L228.482 171.364ZM228.482 182.165V175.693L225.567 177.904V179.038C226.536 180.08 227.509 181.124 228.482 182.165ZM228.482 235.348V188.214C228.387 188.284 228.292 188.355 228.197 188.425C228.119 188.483 228.04 188.541 227.962 188.598C227.161 189.189 226.362 189.774 225.567 190.351V235.514L228.482 235.348ZM218.282 179.769V175.698L206.624 176.427V188.611L218.282 179.769ZM210.524 189.314L218.282 183.43V188.828L210.524 189.314ZM199.338 193.815V169.641C197.861 170.848 196.404 172.03 194.967 173.187V196.491C196.658 195.476 198.118 194.58 199.338 193.815ZM192.053 198.22V175.52C190.574 176.698 189.117 177.848 187.681 178.973V200.754C189.245 199.859 190.703 199.012 192.053 198.22ZM187.681 175.264C189.117 174.131 190.574 172.972 192.053 171.787V162.351C190.598 163.824 189.14 165.266 187.681 166.677V175.264ZM194.967 159.356V169.438C196.404 168.274 197.861 167.085 199.338 165.871V154.686C197.884 156.276 196.427 157.832 194.967 159.356ZM187.681 204.112C189.233 203.23 190.691 202.391 192.053 201.599V206.573C190.751 207.281 189.298 208.076 187.681 208.967V204.112ZM187.681 212.299C189.284 211.413 190.737 210.614 192.053 209.895V239.162H187.681V212.299ZM194.967 208.312V239.162H199.338V205.984C198.178 206.59 196.738 207.355 194.967 208.312ZM194.967 199.887V204.999C196.263 204.304 197.354 203.728 198.266 203.253C198.654 203.052 199.011 202.867 199.338 202.7V197.248C198.067 198.031 196.607 198.914 194.967 199.887ZM184.767 202.409V181.242C182.784 182.776 180.842 184.26 178.938 185.696V205.649C180.999 204.519 182.943 203.437 184.767 202.409ZM184.767 205.755V210.578C183 211.558 181.067 212.634 178.956 213.815L178.938 213.825V208.973C180.99 207.855 182.934 206.781 184.767 205.755ZM184.767 213.914C183.398 214.675 181.937 215.49 180.378 216.362C179.922 216.617 179.442 216.871 178.938 217.124V239.162H184.767V213.914ZM158.538 196.743C160.896 195.146 163.323 193.463 165.823 191.688V185.612C163.392 187.493 160.963 189.303 158.538 191.046V196.743ZM176.024 184.238C173.528 186.109 171.101 187.896 168.738 189.601V183.325C171.166 181.39 173.596 179.383 176.024 177.3V184.238ZM158.538 200.26C160.897 198.681 163.324 197.015 165.823 195.259V212.643C163.489 213.855 161.059 215.099 158.538 216.371V200.26ZM168.738 193.193V211.121C171.292 209.779 173.723 208.482 176.024 207.237V187.878C173.529 189.733 171.101 191.503 168.738 193.193ZM158.538 219.637C161.055 218.373 163.485 217.135 165.823 215.928V219.068C163.558 219.783 161.122 220.495 158.538 221.2V219.637ZM168.738 214.414V218.113C171.497 217.173 173.944 216.228 176.024 215.283V210.551C173.715 211.794 171.285 213.083 168.738 214.414ZM158.538 224.223C161.093 223.534 163.531 222.834 165.823 222.125V239.162H158.538V224.223ZM168.738 221.191V239.162H176.024V218.47C173.873 219.39 171.427 220.297 168.738 221.191ZM178.938 174.763V182.038C180.842 180.59 182.784 179.095 184.767 177.549V169.454C182.826 171.275 180.883 173.044 178.938 174.763ZM155.624 221.052V221.977C153.853 222.438 152.026 222.896 150.15 223.348C152.082 222.604 153.912 221.839 155.624 221.052ZM136.68 210.28V205.177C134.729 206.309 132.786 207.404 130.852 208.465V213.398C132.741 212.425 134.682 211.388 136.68 210.28ZM127.937 214.868V210.042C125.492 211.348 123.062 212.6 120.651 213.804V218.267C122.995 217.238 125.42 216.111 127.937 214.868ZM120.651 221.447C123 220.438 125.424 219.333 127.937 218.115V227.098C125.555 227.694 123.121 228.27 120.651 228.826V221.447ZM130.852 226.352V216.672C132.743 215.717 134.684 214.697 136.68 213.609V224.748C134.786 225.297 132.84 225.831 130.852 226.352ZM123.231 231.988C124.808 231.694 126.377 231.397 127.937 231.095V239.162H120.651V232.464C121.513 232.307 122.373 232.148 123.231 231.988ZM130.852 239.162V230.526C132.815 230.138 134.76 229.744 136.68 229.345V239.162H130.852ZM117.737 229.47V222.667C115.531 223.565 113.391 224.379 111.305 225.125C111.02 225.227 110.735 225.328 110.452 225.427V230.977C112.898 230.494 115.331 229.991 117.737 229.47ZM107.537 231.544C106.697 231.704 105.855 231.863 105.013 232.019C103.424 232.313 101.836 232.6 100.251 232.878V228.63C102.619 227.968 105.04 227.239 107.537 226.418V231.544ZM107.537 223.343C105.04 224.182 102.619 224.925 100.251 225.599V223.151C102.651 222.138 105.081 221.086 107.537 219.99V223.343ZM110.452 222.332V218.674C112.857 217.575 115.287 216.432 117.737 215.24V219.512C115.223 220.557 112.8 221.49 110.452 222.332ZM107.537 234.759V239.162H100.251V235.954C102.665 235.567 105.097 235.168 107.537 234.759ZM110.452 239.162V234.266C112.881 233.851 115.313 233.426 117.737 232.992V239.162H110.452ZM97.3368 226.403V224.368C92.8994 226.203 88.5707 227.91 84.3719 229.525C88.6447 228.562 92.9123 227.585 97.3368 226.403ZM97.3368 233.382V229.421C92.6962 230.643 88.2394 231.645 83.8051 232.643L83.805 232.643L83.8048 232.643L83.8046 232.643L83.8045 232.643L83.8044 232.643L83.8043 232.643L83.8042 232.643L83.804 232.643L83.8038 232.643L83.8036 232.643L83.8034 232.643L83.8033 232.643C83.336 232.749 82.869 232.854 82.4021 232.959C75.7122 234.467 69.0235 236.017 61.7239 238.343C71.6472 237.262 84.2684 235.603 97.3368 233.382ZM78.95 239.162C84.7801 238.339 90.9776 237.419 97.3368 236.417V239.162H78.95ZM206.624 202.672V205.607L218.282 204.878V195.497C216.814 196.499 215.391 197.446 214.029 198.323C211.306 200.076 208.784 201.578 206.624 202.672ZM218.282 191.956C216.249 193.368 214.291 194.685 212.453 195.869C210.299 197.255 208.336 198.44 206.624 199.375V192.477L218.282 191.748V191.956ZM227.46 185.341C227.051 185.645 226.642 185.948 226.233 186.249C226.011 186.413 225.789 186.576 225.567 186.739V183.316C226.198 183.992 226.829 184.668 227.46 185.341ZM241.866 177.987L251.068 189.556V173.509L249.525 171.879C247.193 173.766 244.604 175.835 241.866 177.987ZM272.197 204.672V212.887C269.502 210.545 266.843 208.023 264.244 205.31L272.197 204.672ZM272.197 216.718C268.223 213.404 264.312 209.718 260.539 205.626V213.185C262.743 214.74 265.247 216.459 267.967 218.273L272.197 218.008V216.718ZM260.539 201.26C260.937 201.716 261.337 202.167 261.739 202.613L272.197 201.958V188.828L260.539 189.557V201.26ZM218.282 159.65V171.154C214.686 167.242 211.299 163.526 208.353 160.271L218.282 159.65ZM215.949 172.926C212.592 169.271 209.42 165.793 206.624 162.706V173.509L215.949 172.926ZM260.539 218.737V216.746C261.388 217.336 262.274 217.946 263.192 218.572L260.539 218.737ZM260.539 221.655L267.163 221.241C268.776 222.31 270.459 223.408 272.197 224.522V233.327L260.539 234.056V221.655ZM272.197 220.926V221.052L272.019 220.937L272.197 220.926ZM218.282 207.794L206.624 208.524V221.654L218.282 220.924V207.794ZM206.624 224.572L218.282 223.843V236.244L206.624 236.973V224.572ZM272.197 156.733L260.539 157.462V170.593L272.197 169.863V156.733ZM260.539 173.51L272.197 172.78V185.911L260.539 186.64V173.51Z" fill="#5FC8E3"></path> <path fill-rule="evenodd" clip-rule="evenodd" d="M309.997 248.187H302.234V204.665H278.691V227.935H273.646V224.424H270.283V289.586H264.818V254.272H248.422V247.125H225.72V303.46H219.414V284.962L212.687 273.191L208.063 252.591L204.279 273.191L197.132 284.962V303.46H187.883V308.084H159.296V266.885L139.116 258.056V308.084H121.459V284.962H104.223V254.272H68.4884V266.885H61.7619V238.297H53.3538L57.5579 402.2H302.234H970.899H1143.04H1255.29V258.617H1230.91V276.133H1225.86V268.987H1221.24V254.904H1214.51V246.285H1204.84V254.904H1188.03V262.33H1178.78V232.832H1163.64V262.33H1156.5V258.617H1152.29V254.904H1143.04H1137.64V258.617H1135.28V262.33H1129.54V256.929H1127.85V252.204H1121.78V247.478H1119.75V243.428H1111.65V247.478H1110.64V251.191H1107.6V222.163V217.1H1105.58V208.661H1101.86V204.948H1098.49V208.661H1094.78V217.1H1093.09V222.163H1091.4V243.428H1089.04V247.478H1083.3L1081.61 253.216H1075.87V249.166H1068.45V253.216H1064.74V225.538H1061.7V217.1H1046.51V225.538H1042.12V249.166H1033.01V269.081H1028.28V264.052H1026.59V259.967H1024.23V247.478H1022.21V236.002H1020.18V219.125L1001.95 226.213V242.753H995.202V259.292H994.189V264.052H982.375V267.056H976.3V264.052H970.899H964.148V251.225H949.972V264.052H933.095V267.427H929.382V276.541H922.631V270.465H920.943V259.326L913.855 249.2H907.104L904.066 252.575H903.054V199.582H853.435V221.859H839.934C836.153 222.129 835.433 225.572 835.546 227.26V232.323H833.183V220.172H830.483V212.746H833.183V211.396H828.12V192.493H826.77V186.08H826.095V177.979H824.745V170.216H823.057V162.452H821.369V155.702H820.019V147.938H818.669V135.449H817.319V119.922H814.618V135.449H813.268V147.938H811.581V155.702H810.23V162.452H808.543V170.216H807.193V177.979H806.18V186.08H805.505V192.493H804.155V211.396H798.754V212.746H801.454V220.172H798.754V265.064H796.729V243.462H792.003V233.673H793.691V228.948H789.641L778.839 217.809H763.987V211.396L748.123 195.531L730.909 211.396V185.068H714.032V226.922H701.88V249.875H696.48L687.029 238.399H679.603V231.985H676.227V223.209L670.152 217.809L666.776 172.241L664.076 217.809L658 223.209V231.985H655.3V255.276H653.612V257.301L644.499 262.364V247.512H598.931V249.538H596.23V239.411H592.518V258.314H590.83V254.938H589.142V258.314H583.404V261.689H563.827V269.452H556.738V256.626H543.912V253.926H533.786V241.774H528.723V232.323H506.445V237.386H495.306V258.651H491.931V262.364H482.48V255.613H476.742V219.159C467.831 218.619 460.652 226.135 458.177 229.96H451.764V253.25L445.35 258.314V245.825H428.811V223.885L426.111 223.885V212.746H423.748V202.957H420.372V202.62L418.685 195.869V192.156L420.372 190.468V183.717L421.048 182.367V162.452C422.128 162.182 423.748 160.315 424.423 159.415V152.326C427.393 151.786 428.361 149.851 428.473 148.951V140.512C428.136 139.612 426.988 137.745 425.098 137.474C423.208 137.204 421.61 140.062 421.048 141.525H419.697L418.01 139.5V132.749L411.934 124.986V117.56L417.672 116.547L412.609 115.872V114.859L417.672 111.822L411.934 112.834L411.596 111.822L414.297 107.096L409.571 111.146H407.546L406.196 103.721L405.183 111.146H402.483L397.42 107.096L401.808 112.497H398.095L396.07 107.433L393.707 92.2442C394.607 91.6817 396.407 90.2865 396.407 89.2064C396.407 88.1263 394.607 86.7311 393.707 86.1685V83.8058L394.719 82.4556C395.282 82.0055 396.07 80.8354 394.719 79.7553C393.369 78.6752 391.682 80.2053 391.007 81.1054V86.5061C389.994 86.9561 387.969 88.1263 387.969 89.2064C387.969 90.2865 389.544 91.9067 390.331 92.5818L392.019 108.784L391.682 109.121V111.822L392.694 112.497L393.032 120.935C392.357 121.723 390.939 123.568 390.669 124.648C390.331 125.998 390.331 127.348 390.331 128.361C390.331 129.171 393.032 130.949 394.382 131.736C394.269 134.099 394.044 139.095 394.044 140.175C394.044 141.255 396.07 141.525 397.082 141.525V147.938C396.407 148.613 394.855 150.571 394.044 153.001C393.294 155.254 394.769 155.65 395.995 155.98C396.423 156.095 396.82 156.202 397.082 156.377C397.304 157.93 396.068 160.941 395.098 163.302C394.593 164.533 394.16 165.587 394.044 166.165C393.774 167.515 395.282 168.303 396.07 168.528C395.53 172.309 395.17 193.056 395.057 202.957H392.694V209.033H390.331V216.796H386.619V223.885H382.568V244.474H368.054V263.714H361.978V248.187H344.764V227.935H309.997V248.187Z" fill="#65CDE8"></path> <path fill-rule="evenodd" clip-rule="evenodd" d="M-670.88 246.22H-678.643V202.697H-702.186V225.967H-707.231V222.456H-710.594V287.619H-716.059V252.305H-732.455V245.158H-755.157V301.492H-761.463V282.994L-768.189 271.223L-772.814 250.623L-776.597 271.223L-783.744 282.994V301.492H-792.993V306.116H-821.581V264.917L-841.76 256.088V306.116H-859.417V282.994H-876.654V252.305H-912.388V264.917H-919.115V236.329H-927.523L-923.319 400.232H-678.643H-9.97772H162.167H274.416V256.649H250.032V274.166H244.987V267.019H240.363V252.936H233.636V244.317H223.967V252.936H207.151V260.362H197.902V230.864H182.767V260.362H175.62V256.649H171.416V252.936H162.167H156.767V256.649H154.404V260.362H148.666V254.962H146.978V250.236H140.902V245.511H138.877V241.46H130.776V245.511H129.764V249.223H126.726V220.195V215.132H124.7V206.694H120.988V202.981H117.612V206.694H113.899V215.132H112.212V220.195H110.524V241.46H108.161V245.511H102.423L100.735 251.249H94.9971V247.198H87.5712V251.249H83.8583V223.57H80.8204V215.132H65.6312V223.57H61.2431V247.198H52.1296V267.113H47.404V262.084H45.7164V258H43.3535V245.511H41.3284V234.034H39.3031V217.157L21.0759 224.246V240.785H14.3251V257.324H13.3125V262.084H1.49866V265.088H-4.57709V262.084H-9.97772H-16.7284V249.257H-30.9052V262.084H-47.7822V265.459H-51.495V274.573H-58.2458V268.497H-59.9335V257.358L-67.0219 247.232H-73.7726L-76.8105 250.608H-77.8231V197.614H-127.441V219.892H-140.943C-144.723 220.162 -145.443 223.604 -145.331 225.292V230.355H-147.694V218.204H-150.394V210.778H-147.694V209.428H-152.757V190.526H-154.107V184.112H-154.782V176.011H-156.132V168.248H-157.82V160.485H-159.508V153.734H-160.858V145.97H-162.208V133.481H-163.558V117.955H-166.258V133.481H-167.609V145.97H-169.296V153.734H-170.646V160.485H-172.334V168.248H-173.684V176.011H-174.697V184.112H-175.372V190.526H-176.722V209.428H-182.123V210.778H-179.422V218.204H-182.123V263.097H-184.148V241.494H-188.874V231.705H-187.186V226.98H-191.236L-202.038 215.841H-216.889V209.428L-232.754 193.563L-249.968 209.428V183.1H-266.845V224.955H-278.997V247.907H-284.397L-293.848 236.431H-301.274V230.018H-304.65V221.242L-310.725 215.841L-314.101 170.273L-316.801 215.841L-322.877 221.242V230.018H-325.577V253.308H-327.265V255.333L-336.378 260.396V245.545H-381.946V247.57H-384.646V237.444H-388.359V256.346H-390.047V252.97H-391.735V256.346H-397.473V259.721H-417.05V267.485H-424.138V254.658H-436.965V251.958H-447.091V239.806H-452.154V230.355H-474.432V235.418H-485.571V256.683H-488.946V260.396H-498.397V253.645H-504.135V217.191C-513.046 216.651 -520.225 224.167 -522.7 227.992H-529.113V251.283L-535.526 256.346V243.857H-552.066V221.917L-554.766 221.917V210.778H-557.129V200.989H-560.504V200.652L-562.192 193.901V190.188L-560.504 188.5V181.75L-559.829 180.399V160.485C-558.749 160.215 -557.129 158.347 -556.454 157.447V150.358C-553.483 149.818 -552.516 147.883 -552.403 146.983V138.545C-552.741 137.644 -553.889 135.777 -555.779 135.507C-557.669 135.237 -559.267 138.095 -559.829 139.557H-561.179L-562.867 137.532V130.781L-568.943 123.018V115.592L-563.205 114.579L-568.268 113.904V112.892L-563.205 109.854L-568.943 110.866L-569.28 109.854L-566.58 105.128L-571.306 109.179H-573.331L-574.681 101.753L-575.694 109.179H-578.394L-583.457 105.128L-579.069 110.529H-582.782L-584.807 105.466L-587.17 90.2765C-586.27 89.7139 -584.47 88.3187 -584.47 87.2386C-584.47 86.1585 -586.27 84.7633 -587.17 84.2008V81.838L-586.157 80.4878C-585.595 80.0378 -584.807 78.8676 -586.157 77.7875C-587.507 76.7074 -589.195 78.2376 -589.87 79.1377V84.5383C-590.883 84.9884 -592.908 86.1585 -592.908 87.2386C-592.908 88.3187 -591.333 89.9389 -590.545 90.614L-588.858 106.816L-589.195 107.153V109.854L-588.183 110.529L-587.845 118.967C-588.52 119.755 -589.938 121.6 -590.208 122.68C-590.545 124.03 -590.545 125.381 -590.545 126.393C-590.545 127.203 -587.845 128.981 -586.495 129.769C-586.607 132.131 -586.832 137.127 -586.832 138.207C-586.832 139.287 -584.807 139.557 -583.795 139.557V145.97C-584.47 146.646 -586.022 148.603 -586.832 151.034C-587.583 153.286 -586.107 153.683 -584.881 154.012C-584.454 154.127 -584.056 154.234 -583.795 154.409C-583.573 155.962 -584.809 158.974 -585.779 161.334C-586.284 162.565 -586.717 163.619 -586.832 164.198C-587.102 165.548 -585.595 166.335 -584.807 166.56C-585.347 170.341 -585.707 191.088 -585.82 200.989H-588.183V207.065H-590.545V214.828H-594.258V221.917H-598.309V242.507H-612.823V261.746H-618.899V246.22H-636.113V225.967H-670.88V246.22Z" fill="#65CDE8"></path> </g> </g> <defs> <linearGradient id="paint0_linear_404_2315" x1="529.25" y1="-70.9851" x2="534.555" y2="300.016" gradientUnits="userSpaceOnUse"> <stop stop-color="#3397D1"></stop> <stop offset="1" stop-color="#ADE1FE"></stop> </linearGradient> <clipPath id="clip0_404_2315"> <rect width="1160" height="280" fill="white"></rect> </clipPath> </defs> </svg> 