<?xml version="1.0" encoding="UTF-8"?> <svg xmlns="http://www.w3.org/2000/svg" width="1300" height="400" viewBox="0 0 1300 400" fill="none"> <mask id="mask0_174_2229" style="mask-type:alpha" maskUnits="userSpaceOnUse" x="0" y="0" width="1300" height="400"> <rect width="1300" height="400" fill="#182849"></rect> </mask> <g mask="url(#mask0_174_2229)"> <path d="M318.029 328.62H358.984H364.104V284.872L378.066 257.879L392.028 284.872V328.62H408.783L421.814 264.394H431.122V234.143H434.38V250.432L456.719 277.426H493.952V220.646H497.675V261.136L513.033 277.426H518.153V259.74H540.958V273.702H549.8V239.262L574.932 216.458V351.425H583.775V174.106H631.246V358.406H638.693V148.974H642.416V160.144H647.535V130.358H680.579V376.091H693.611V234.143H706.177V174.106H730.378V113.138H738.289V106.622H742.013L753.648 88.4713L755.044 41L756.906 88.4713L768.541 106.622H771.799V113.138H780.176V208.546H802.05V224.37H820.666V310.469H834.628V191.326H845.333V184.345H853.244V174.106H858.364V139.666H869.068V174.106H874.653V184.345H883.496V191.326H894.2V254.155H901.181C902.267 239.262 910.21 208.639 933.294 205.288L934.69 280.218H954.703V234.143H968.199V162.936L981.231 130.358L985.419 98.2448L990.073 130.358L1003.57 162.936V341.652H1014.27V223.904H1024.51V171.779L1045.92 189.464V223.904H1052.44V303.488V355.614H1074.31V310.469H1102.24V215.061H1119.92V355.614H1153.9V288.13H1192.99V376.091H1239.07H1280V530.924H1239.07H318.029H-33.5V328.62H50.9283V358.758H89.3048V257.879H103.632V183.761H132.798V259.74H148.149V366.433H198.294V328.62H246.393V268.701L261.232 220.646L283.234 268.701V358.758H318.029V328.62Z" fill="#1A2C52"></path> <path fill-rule="evenodd" clip-rule="evenodd" d="M314.009 321.904H312.417C311.868 321.783 311.31 321.654 310.743 321.518V307.358C311.834 308.024 312.923 308.677 314.009 309.317V321.904ZM317.275 321.904H320.541V313.036C319.46 312.441 318.37 311.832 317.275 311.209V321.904ZM327.073 321.904H323.807V314.802C324.907 315.387 325.997 315.955 327.073 316.508V321.904ZM330.34 321.904H338.26C335.748 320.772 333.094 319.52 330.34 318.155V321.904ZM330.34 314.501C336.325 317.514 341.866 320.005 346.552 321.904H350.845C343.912 319.032 337.038 314.874 330.34 309.827V314.501ZM327.073 307.285C325.979 306.407 324.891 305.507 323.807 304.585V311.093C324.906 311.687 325.996 312.265 327.073 312.827V307.285ZM317.275 298.723C318.357 299.744 319.446 300.747 320.541 301.73V309.298C319.459 308.693 318.369 308.073 317.275 307.439V298.723ZM314.236 295.789C313.062 294.632 311.897 293.455 310.743 292.261V303.518C311.833 304.197 312.922 304.862 314.009 305.514V295.743L314.236 295.789ZM307.477 305.328V320.68C305.899 320.25 304.264 319.767 302.578 319.228V302.138C304.206 303.229 305.841 304.293 307.477 305.328ZM307.477 301.448V288.81C305.82 287.023 304.186 285.205 302.578 283.364V298.189C304.203 299.303 305.839 300.39 307.477 301.448ZM299.312 279.554V295.904C298.215 295.12 297.126 294.325 296.046 293.518V275.601C296.772 276.495 297.503 277.386 298.241 278.273C298.596 278.701 298.953 279.128 299.312 279.554ZM299.312 299.905V318.132C298.24 317.756 297.15 317.358 296.046 316.938V297.579C297.09 298.339 298.14 299.087 299.194 299.823L299.312 299.905ZM299.312 321.591C298.24 321.225 297.15 320.839 296.046 320.43V321.904H299.312V321.591ZM292.78 295.149V315.643C291.703 315.199 290.614 314.734 289.514 314.247V292.603C290.592 293.464 291.682 294.313 292.78 295.149ZM292.78 291.019V271.505C291.675 270.096 290.586 268.681 289.514 267.265V288.392C290.588 289.279 291.678 290.155 292.78 291.019ZM292.78 321.904V319.171C291.703 318.74 290.614 318.288 289.514 317.814V321.261C289.969 321.478 290.422 321.693 290.873 321.904H292.78ZM286.248 262.878V285.619C284.567 284.15 282.93 282.652 281.349 281.127V256.015C282.934 258.291 284.568 260.583 286.248 262.878ZM286.248 289.925V312.748C284.632 311.98 282.997 311.164 281.349 310.299V285.616C282.942 287.082 284.578 288.519 286.248 289.925ZM286.248 316.357C284.632 315.612 282.998 314.82 281.349 313.98V317.123C282.992 317.998 284.628 318.845 286.248 319.658V316.357ZM278.083 282.507V308.527C276.458 307.617 274.823 306.659 273.184 305.649V277.384C274.747 279.126 276.384 280.834 278.083 282.507ZM278.083 277.857V251.245C276.382 248.719 274.747 246.224 273.184 243.778V272.391C274.727 274.245 276.365 276.068 278.083 277.857ZM278.083 315.356V312.261C276.459 311.379 274.824 310.45 273.184 309.472V312.602C274.424 313.314 275.669 314.018 276.915 314.711C277.304 314.927 277.694 315.142 278.083 315.356ZM275.33 317.57C276.247 318.08 277.165 318.583 278.083 319.08V321.904H273.184V316.365C273.898 316.77 274.614 317.172 275.33 317.57ZM281.349 320.82V321.904H283.447C282.749 321.548 282.05 321.186 281.349 320.82ZM269.918 238.574V268.224C267.664 265.158 265.686 262.016 264.041 258.809L263.58 227.868C265.488 231.233 267.608 234.826 269.918 238.574ZM269.918 273.563V303.575C268.164 302.426 266.408 301.218 264.655 299.949L264.142 265.557C265.867 268.289 267.805 270.96 269.918 273.563ZM269.918 307.464C268.186 306.367 266.45 305.214 264.715 304.003L264.769 307.617C266.463 308.651 268.183 309.683 269.918 310.704V307.464ZM269.918 314.491C268.206 313.496 266.506 312.488 264.826 311.475L264.982 321.904H269.918V314.491ZM359.734 321.904V321.488L358.55 321.149C338.476 315.407 318.127 297.08 300.751 276.181C284.769 256.959 271.493 235.798 263.477 220.936L263.385 214.81H260.119L256.853 205L253.587 215.628L241.34 216.445L238.073 207.453L234.807 217.263L198.881 219.715L196.431 211.54L192.349 220.533L181.734 221.35L179.284 213.993L176.018 221.35H173.569V222.362C154.263 243.956 134.393 260.191 114.956 272.853H114.78V272.967C84.1699 292.877 54.6435 303.936 30.0987 313.129L30.0982 313.129L30.0965 313.129C23.953 315.43 18.1216 317.615 12.6634 319.791C11.4163 320.236 10.1513 320.702 8.86652 321.194L8.91169 321.312C8.43387 321.509 7.95923 321.707 7.4878 321.904H7V336.619H171.936V390.575H185V336.619H196.431V390.575H209.495V336.619H230.725V390.575H243.789V336.619H255.22V390.575H268.284V336.619H363V321.904H359.734ZM114.78 276.85C112.048 278.6 109.325 280.28 106.615 281.897V287.695C109.246 286.186 111.965 284.569 114.78 282.832V276.85ZM114.78 286.666C111.968 288.376 109.249 289.969 106.615 291.456V304.777C109.468 303.902 112.199 302.997 114.78 302.062V286.666ZM118.046 300.83V284.653C120.17 283.326 122.346 281.934 124.578 280.471V297.995C122.567 298.967 120.381 299.912 118.046 300.83ZM114.78 308.406C112.122 309.018 109.395 309.622 106.615 310.215V321.904H114.78V308.406ZM118.046 321.904V307.641C120.283 307.107 122.464 306.568 124.578 306.023V321.904H118.046ZM118.046 280.791V274.728C120.218 273.296 122.396 271.819 124.578 270.296V276.556C122.345 278.037 120.169 279.447 118.046 280.791ZM217.661 233.657V238.003L220.055 236.187L217.661 233.657ZM214.394 240.48V235.824L210.814 240.252L212.275 242.088L214.394 240.48ZM214.394 244.583V244.753L214.31 244.647L214.394 244.583ZM217.661 248.859V242.105L222.314 238.575L227.56 244.119C225.005 246.186 222.178 248.443 219.194 250.788L217.661 248.859ZM217.661 256.133C217.993 255.875 218.325 255.617 218.655 255.36L231.541 271.562V284.191L231.397 284.052C227.581 280.363 222.822 275.514 217.661 270.125V256.133ZM214.394 258.653V266.7C212.936 265.165 211.457 263.6 209.968 262.017C211.452 260.9 212.931 259.775 214.394 258.653ZM214.394 250.002V254.529C212.782 255.774 211.144 257.029 209.496 258.278V248.298L211.706 246.622L214.394 250.002ZM214.394 271.439C214.009 271.035 213.622 270.629 213.233 270.221C212.002 268.929 210.754 267.613 209.496 266.28V317.441L214.394 317.161V271.439ZM217.661 274.841V316.974L231.541 316.18V288.7C230.784 287.993 229.977 287.225 229.128 286.404C225.863 283.247 221.929 279.265 217.661 274.841ZM209.671 244.063L209.496 243.843V244.196L209.671 244.063ZM206.23 245.922V246.673L204.659 247.864L206.23 245.922ZM206.23 258.029V250.776L202.963 253.253V254.525C204.049 255.693 205.14 256.863 206.23 258.029ZM206.23 317.628V264.808C206.035 264.952 205.841 265.095 205.647 265.239C204.749 265.9 203.854 266.556 202.963 267.203V317.815L206.23 317.628ZM194.798 255.344V250.78L181.734 251.598V265.253L194.798 255.344ZM186.106 266.039L194.798 259.446V265.495L186.106 266.039ZM173.569 271.085V243.994C171.914 245.346 170.281 246.671 168.67 247.967V274.083C170.564 272.947 172.201 271.942 173.569 271.085ZM165.404 276.021V250.582C163.747 251.902 162.114 253.192 160.505 254.452V278.861C162.258 277.858 163.892 276.909 165.404 276.021ZM160.505 250.295C162.114 249.025 163.747 247.727 165.404 246.398V235.824C163.773 237.474 162.14 239.09 160.505 240.672V250.295ZM168.67 232.466V243.766C170.281 242.461 171.913 241.129 173.569 239.768V227.234C171.939 229.014 170.306 230.758 168.67 232.466ZM160.505 282.624C162.244 281.636 163.878 280.696 165.404 279.808V285.383C163.945 286.176 162.317 287.067 160.505 288.065V282.624ZM160.505 291.799C162.301 290.806 163.93 289.911 165.404 289.106V321.904H160.505V291.799ZM168.67 287.331V321.904H173.569V284.722C172.268 285.401 170.654 286.259 168.67 287.331ZM168.67 277.889V283.619C170.122 282.84 171.345 282.194 172.367 281.662C172.802 281.436 173.202 281.23 173.569 281.042V274.933C172.144 275.81 170.508 276.799 168.67 277.889ZM157.239 280.716V256.995C155.017 258.714 152.84 260.377 150.707 261.986V284.347C153.016 283.08 155.195 281.868 157.239 280.716ZM157.239 284.466V289.871C155.258 290.969 153.093 292.175 150.726 293.499L150.707 293.51V288.073C153.006 286.819 155.185 285.615 157.239 284.466ZM157.239 293.61C155.705 294.462 154.068 295.375 152.32 296.353C151.809 296.639 151.271 296.924 150.707 297.207V321.904H157.239V293.61ZM127.844 274.367C130.486 272.577 133.206 270.691 136.009 268.701V261.892C133.284 263.999 130.562 266.028 127.844 267.982V274.367ZM147.441 260.352C144.644 262.449 141.923 264.451 139.275 266.363V259.328C141.997 257.16 144.719 254.911 147.441 252.577V260.352ZM127.844 278.308C130.488 276.538 133.207 274.672 136.009 272.703V292.185C133.393 293.543 130.67 294.938 127.844 296.363V278.308ZM139.275 270.388V290.479C142.138 288.976 144.862 287.522 147.441 286.126V264.432C144.644 266.51 141.924 268.494 139.275 270.388ZM127.844 300.023C130.665 298.607 133.388 297.219 136.009 295.866V299.385C133.47 300.187 130.74 300.984 127.844 301.775V300.023ZM139.275 294.17V298.315C142.367 297.261 145.11 296.202 147.441 295.144V289.841C144.854 291.233 142.13 292.679 139.275 294.17ZM127.844 305.163C130.708 304.391 133.44 303.606 136.009 302.811V321.904H127.844V305.163ZM139.275 301.765V321.904H147.441V298.716C145.03 299.746 142.289 300.763 139.275 301.765ZM150.707 249.733V257.886C152.84 256.265 155.017 254.589 157.239 252.856V243.783C155.064 245.824 152.886 247.806 150.707 249.733ZM124.578 301.609V302.645C122.593 303.162 120.546 303.675 118.444 304.183C120.609 303.349 122.66 302.491 124.578 301.609ZM103.349 289.537V283.818C101.162 285.086 98.9841 286.314 96.8167 287.503V293.031C98.9336 291.941 101.109 290.779 103.349 289.537ZM93.5506 294.679V289.27C90.8097 290.733 88.0869 292.137 85.3852 293.486V298.488C88.0121 297.336 90.7291 296.072 93.5506 294.679ZM85.3852 302.052C88.017 300.921 90.7341 299.682 93.5506 298.318V308.385C90.8804 309.052 88.1526 309.698 85.3852 310.321V302.052ZM96.8167 307.549V296.701C98.9359 295.63 101.111 294.488 103.349 293.268V305.751C101.225 306.366 99.0445 306.965 96.8167 307.549ZM88.2767 313.865C90.0431 313.536 91.8022 313.202 93.5506 312.865V321.904H85.3852V314.398C86.3509 314.222 87.3149 314.044 88.2767 313.865ZM96.8167 321.904V312.227C99.0171 311.792 101.197 311.35 103.349 310.903V321.904H96.8167ZM82.1191 311.043V303.419C79.647 304.425 77.2486 305.338 74.9111 306.174C74.591 306.288 74.2721 306.401 73.9543 306.513V312.732C76.6957 312.19 79.4226 311.627 82.1191 311.043ZM70.6882 313.367C69.7461 313.547 68.803 313.724 67.8596 313.899C66.0791 314.229 64.2986 314.55 62.5228 314.862V310.103C65.1759 309.36 67.8902 308.544 70.6882 307.623V313.367ZM70.6882 304.177C67.8892 305.118 65.1762 305.95 62.5228 306.705V303.961C65.2124 302.826 67.9354 301.647 70.6882 300.419V304.177ZM73.9543 303.043V298.944C76.6503 297.712 79.373 296.431 82.1191 295.095V299.883C79.3017 301.055 76.5866 302.1 73.9543 303.043ZM70.6882 316.971V321.904H62.5228V318.309C65.228 317.876 67.9539 317.429 70.6882 316.971ZM73.9543 321.904V316.418C76.6765 315.953 79.4021 315.477 82.1191 314.99V321.904H73.9543ZM59.2567 307.606V305.325C54.2822 307.382 49.4296 309.295 44.7226 311.106C49.5127 310.026 54.2967 308.932 59.2567 307.606ZM59.2567 315.427V310.989C54.0556 312.358 49.0604 313.482 44.0906 314.6L44.0902 314.6L44.0899 314.6C43.5662 314.718 43.0429 314.835 42.5195 314.953C35.0229 316.643 27.5276 318.38 19.3478 320.987C30.4685 319.775 44.6121 317.916 59.2567 315.427ZM38.6532 321.904C45.1862 320.982 52.1308 319.951 59.2567 318.829V321.904H38.6532ZM181.734 281.011V284.299L194.798 283.482V272.97C193.154 274.093 191.559 275.154 190.032 276.137C186.981 278.102 184.155 279.784 181.734 281.011ZM194.798 269.001C192.52 270.583 190.326 272.06 188.266 273.387C185.852 274.94 183.653 276.268 181.734 277.316V269.584L194.798 268.767V269.001ZM205.084 261.588C204.625 261.929 204.167 262.268 203.71 262.606C203.461 262.789 203.212 262.972 202.963 263.155V259.32C203.67 260.077 204.377 260.834 205.084 261.588ZM221.229 253.346L231.541 266.312V248.327L229.813 246.5C227.2 248.616 224.297 250.935 221.229 253.346ZM255.22 283.252V292.459C252.2 289.834 249.219 287.008 246.307 283.966L255.22 283.252ZM255.22 296.752C250.768 293.038 246.384 288.907 242.156 284.321V292.793C244.626 294.535 247.431 296.462 250.478 298.493L255.22 298.197V296.752ZM242.156 279.429C242.602 279.939 243.05 280.444 243.5 280.944L255.22 280.21V265.495L242.156 266.313V279.429ZM194.798 232.794V245.69C190.768 241.304 186.972 237.139 183.669 233.49L194.798 232.794ZM192.183 247.673C188.42 243.578 184.867 239.68 181.734 236.222V248.327L192.183 247.673ZM242.156 299.014V296.784C243.107 297.445 244.099 298.128 245.127 298.828L242.156 299.014ZM242.156 302.284L249.577 301.82C251.385 303.018 253.272 304.249 255.22 305.498V315.364L242.156 316.182V302.284ZM255.22 301.466V301.609L255.019 301.479L255.22 301.466ZM194.798 286.75L181.734 287.568V302.283L194.798 301.465V286.75ZM181.734 305.553L194.798 304.735V318.633L181.734 319.45V305.553ZM255.22 229.525L242.156 230.343V245.058L255.22 244.24V229.525ZM242.156 248.328L255.22 247.51V262.225L242.156 263.043V248.328Z" fill="#1E325E"></path> <path fill-rule="evenodd" clip-rule="evenodd" d="M358.617 334.176H349.917V285.401H323.533V311.48H317.879V307.545H314.11V380.572H307.985V340.996H289.611V332.986H264.169V396.12H257.102V375.389L249.563 362.197L244.381 339.111L240.141 362.197L232.131 375.389V396.12H221.766V401.302H189.728V355.13L167.113 345.236V401.302H147.325V375.389H128.008V340.996H87.9612V355.13H80.4229V323.092H71L75.7114 506.777H349.917H1099.28H1292.2H1418V345.865H1390.67V365.495H1385.02V357.486H1379.84V341.704H1372.3V332.044H1361.46V341.704H1342.62V350.026H1332.25V316.967H1315.29V350.026H1307.28V345.865H1302.57V341.704H1292.2H1286.15V345.865H1283.5V350.026H1277.07V343.974H1275.18V338.678H1268.37V333.382H1266.1V328.842H1257.02V333.382H1255.89V337.543H1252.49V305.011V299.337H1250.22V289.88H1246.05V285.719H1242.27V289.88H1238.11V299.337H1236.22V305.011H1234.33V328.842H1231.68V333.382H1225.25L1223.36 339.813H1216.93V335.273H1208.61V339.813H1204.44V308.794H1201.04V299.337H1184.02V308.794H1179.1V335.273H1168.89V357.592H1163.59V351.955H1161.7V347.378H1159.05V333.382H1156.78V320.52H1154.51V301.607L1134.08 309.55V328.086H1126.52V346.622H1125.38V351.955H1112.14V355.322H1105.34V351.955H1099.28H1091.72V337.581H1075.83V351.955H1056.92V355.738H1052.76V365.952H1045.19V359.143H1043.3V346.66L1035.35 335.311H1027.79L1024.38 339.094H1023.25V279.705H967.643V304.671H952.512C948.275 304.973 947.468 308.832 947.594 310.723V316.397H944.947V302.779H941.92V294.457H944.947V292.944H939.272V271.761H937.759V264.574H937.003V255.495H935.49V246.794H933.598V238.094H931.707V230.529H930.194V221.828H928.681V207.832H927.168V190.431H924.141V207.832H922.628V221.828H920.737V230.529H919.224V238.094H917.332V246.794H915.819V255.495H914.684V264.574H913.928V271.761H912.415V292.944H906.362V294.457H909.388V302.779H906.362V353.09H904.093V328.881H898.797V317.911H900.688V312.615H896.149L884.044 300.132H867.4V292.944L849.621 275.165L830.329 292.944V263.439H811.415V310.345H797.797V336.068H791.744L781.153 323.206H772.831V316.019H769.048V306.184L762.239 300.132L758.456 249.064L755.43 300.132L748.621 306.184V316.019H745.595V342.12H743.703V344.39L733.49 350.064V333.42H682.422V335.69H679.396V324.341H675.235V345.525H673.344V341.742H671.452V345.525H665.022V349.307H643.082V358.008H635.138V343.633H620.763V340.607H609.415V326.989H603.741V316.397H578.775V322.072H566.291V345.903H562.509V350.064H551.917V342.499H545.486V301.645C535.5 301.039 527.455 309.462 524.681 313.749H517.494V339.851L510.306 345.525V331.528H491.771V306.941L488.745 306.94V294.457H486.097V283.487H482.314V283.109L480.423 275.544V271.382L482.314 269.491V261.926L483.071 260.412V238.094C484.281 237.792 486.097 235.698 486.853 234.69V226.746C490.182 226.141 491.267 223.972 491.393 222.963V213.506C491.014 212.497 489.728 210.404 487.61 210.102C485.491 209.799 483.701 213.002 483.071 214.641H481.557L479.666 212.371V204.806L472.857 196.105V187.783L479.288 186.648L473.614 185.892V184.757L479.288 181.353L472.857 182.487L472.479 181.353L475.505 176.057L470.209 180.596H467.939L466.426 172.274L465.292 180.596H462.265L456.591 176.057L461.509 182.109H457.348L455.078 176.435L452.43 159.413C453.439 158.782 455.456 157.219 455.456 156.008C455.456 154.798 453.439 153.234 452.43 152.604V149.956L453.565 148.443C454.195 147.938 455.078 146.627 453.565 145.416C452.052 144.206 450.16 145.921 449.404 146.929V152.982C448.269 153.486 445.999 154.798 445.999 156.008C445.999 157.219 447.765 159.034 448.647 159.791L450.539 177.948L450.16 178.326V181.353L451.295 182.109L451.674 191.566C450.917 192.449 449.328 194.517 449.026 195.727C448.647 197.24 448.647 198.753 448.647 199.888C448.647 200.796 451.674 202.788 453.187 203.671C453.061 206.319 452.808 211.917 452.808 213.128C452.808 214.338 455.078 214.641 456.213 214.641V221.828C455.456 222.585 453.716 224.779 452.808 227.502C451.967 230.026 453.621 230.471 454.995 230.841C455.474 230.97 455.919 231.09 456.213 231.285C456.462 233.026 455.076 236.401 453.989 239.046C453.423 240.426 452.938 241.607 452.808 242.255C452.506 243.768 454.195 244.651 455.078 244.903C454.473 249.14 454.069 272.391 453.943 283.487H451.295V290.296H448.647V298.997H444.486V306.941H439.947V330.015H423.681V351.577H416.872V334.176H397.58V311.48H358.617V334.176Z" fill="#203563"></path> <path fill-rule="evenodd" clip-rule="evenodd" d="M-771.383 334.176H-780.083V285.401H-806.467V311.48H-812.121V307.545H-815.89V380.572H-822.015V340.996H-840.389V332.986H-865.831V396.12H-872.898V375.389L-880.437 362.197L-885.619 339.111L-889.859 362.197L-897.869 375.389V396.12H-908.234V401.302H-940.272V355.13L-962.887 345.236V401.302H-982.675V375.389H-1001.99V340.996H-1042.04V355.13H-1049.58V323.092H-1059L-1054.29 506.777H-780.083H-30.7166H162.205H288V345.865H260.674V365.495H255.02V357.486H249.837V341.704H242.299V332.044H231.463V341.704H212.617V350.026H202.252V316.967H185.291V350.026H177.281V345.865H172.57V341.704H162.205H156.152V345.865H153.504V350.026H147.073V343.974H145.182V338.678H138.373V333.382H136.104V328.842H127.025V333.382H125.89V337.543H122.486V305.011V299.337H120.216V289.88H116.055V285.719H112.272V289.88H108.111V299.337H106.22V305.011H104.328V328.842H101.68V333.382H95.2496L93.3583 339.813H86.9275V335.273H78.6055V339.813H74.4445V308.794H71.0399V299.337H54.0176V308.794H49.0999V335.273H38.8864V357.592H33.5906V351.955H31.6992V347.378H29.0511V333.382H26.7816V320.52H24.512V301.607L4.08496 309.55V328.086H-3.48059V346.622H-4.61548V351.955H-17.8551V355.322H-24.6642V351.955H-30.7166H-38.282V337.581H-54.1698V351.955H-73.0836V355.738H-77.2446V365.952H-84.8101V359.143H-86.7015V346.66L-94.6453 335.311H-102.211L-105.615 339.094H-106.75V279.705H-162.357V304.671H-177.488C-181.725 304.973 -182.532 308.832 -182.406 310.723V316.397H-185.053V302.779H-188.08V294.457H-185.053V292.944H-190.728V271.761H-192.241V264.574H-192.997V255.495H-194.51V246.794H-196.402V238.094H-198.293V230.529H-199.806V221.828H-201.319V207.832H-202.832V190.431H-205.859V207.832H-207.372V221.828H-209.263V230.529H-210.776V238.094H-212.668V246.794H-214.181V255.495H-215.316V264.574H-216.072V271.761H-217.585V292.944H-223.638V294.457H-220.612V302.779H-223.638V353.09H-225.907V328.881H-231.203V317.911H-229.312V312.615H-233.851L-245.956 300.132H-262.6V292.944L-280.379 275.165L-299.671 292.944V263.439H-318.585V310.345H-332.203V336.068H-338.256L-348.847 323.206H-357.169V316.019H-360.952V306.184L-367.761 300.132L-371.544 249.064L-374.57 300.132L-381.379 306.184V316.019H-384.405V342.12H-386.297V344.39L-396.51 350.064V333.42H-447.578V335.69H-450.604V324.341H-454.765V345.525H-456.656V341.742H-458.548V345.525H-464.978V349.307H-486.918V358.008H-494.862V343.633H-509.237V340.607H-520.585V326.989H-526.259V316.397H-551.225V322.072H-563.709V345.903H-567.491V350.064H-578.083V342.499H-584.514V301.645C-594.5 301.039 -602.545 309.462 -605.319 313.749H-612.506V339.851L-619.694 345.525V331.528H-638.229V306.941L-641.255 306.94V294.457H-643.903V283.487H-647.686V283.109L-649.577 275.544V271.382L-647.686 269.491V261.926L-646.929 260.412V238.094C-645.719 237.792 -643.903 235.698 -643.147 234.69V226.746C-639.818 226.141 -638.733 223.972 -638.607 222.963V213.506C-638.986 212.497 -640.272 210.404 -642.39 210.102C-644.509 209.799 -646.299 213.002 -646.929 214.641H-648.443L-650.334 212.371V204.806L-657.143 196.105V187.783L-650.712 186.648L-656.386 185.892V184.757L-650.712 181.353L-657.143 182.487L-657.521 181.353L-654.495 176.057L-659.791 180.596H-662.061L-663.574 172.274L-664.708 180.596H-667.735L-673.409 176.057L-668.491 182.109H-672.652L-674.922 176.435L-677.57 159.413C-676.561 158.782 -674.544 157.219 -674.544 156.008C-674.544 154.798 -676.561 153.234 -677.57 152.604V149.956L-676.435 148.443C-675.805 147.938 -674.922 146.627 -676.435 145.416C-677.948 144.206 -679.84 145.921 -680.596 146.929V152.982C-681.731 153.486 -684.001 154.798 -684.001 156.008C-684.001 157.219 -682.235 159.034 -681.353 159.791L-679.461 177.948L-679.84 178.326V181.353L-678.705 182.109L-678.326 191.566C-679.083 192.449 -680.672 194.517 -680.974 195.727C-681.353 197.24 -681.353 198.753 -681.353 199.888C-681.353 200.796 -678.326 202.788 -676.813 203.671C-676.939 206.319 -677.192 211.917 -677.192 213.128C-677.192 214.338 -674.922 214.641 -673.787 214.641V221.828C-674.544 222.585 -676.284 224.779 -677.192 227.502C-678.033 230.026 -676.379 230.471 -675.005 230.841C-674.526 230.97 -674.081 231.09 -673.787 231.285C-673.538 233.026 -674.924 236.401 -676.011 239.046C-676.577 240.426 -677.062 241.607 -677.192 242.255C-677.494 243.768 -675.805 244.651 -674.922 244.903C-675.527 249.14 -675.931 272.391 -676.057 283.487H-678.705V290.296H-681.353V298.997H-685.514V306.941H-690.053V330.015H-706.319V351.577H-713.128V334.176H-732.42V311.48H-771.383V334.176Z" fill="#203563"></path> </g> </svg> 