<?xml version="1.0" encoding="UTF-8"?> <svg xmlns="http://www.w3.org/2000/svg" width="293" height="83" viewBox="0 0 293 83" fill="none"><path d="M268.776 0H24C10.7452 0 0 10.7452 0 24V58.692C0 71.9468 10.7452 82.692 24 82.692H268.776C282.031 82.692 292.776 71.9468 292.776 58.692V24C292.776 10.7452 282.031 0 268.776 0Z" fill="#407BFF"></path><path d="M42.2879 68.3044C57.1731 68.3044 69.2399 56.2376 69.2399 41.3524C69.2399 26.4672 57.1731 14.4004 42.2879 14.4004C27.4028 14.4004 15.3359 26.4672 15.3359 41.3524C15.3359 56.2376 27.4028 68.3044 42.2879 68.3044Z" fill="white"></path><path d="M28.5355 52.3798V30.2998C25.6675 33.1558 24.2275 36.8278 24.2275 41.3158C24.2275 45.8038 25.6675 49.4878 28.5355 52.3798Z" fill="#407BFF"></path><path d="M54.6959 37.2712H59.9999C59.6039 35.4712 58.8359 33.9712 57.6959 32.7472C56.5439 31.5352 55.2479 30.6592 53.7839 30.1432C53.2799 29.9632 52.7519 29.8192 52.2119 29.6992V34.6792C52.3199 34.7392 52.4399 34.7992 52.5479 34.8592C53.5319 35.4472 54.2519 36.2512 54.6959 37.2592V37.2712Z" fill="#407BFF"></path><path d="M40.9432 40.7031V44.3031H47.0272C46.7032 45.7071 46.0312 46.7631 44.9872 47.4951C44.9272 47.5311 44.8792 47.5671 44.8192 47.6151C43.6792 48.3471 42.3952 48.7071 40.9552 48.7071C40.1752 48.7071 39.4432 48.6111 38.7592 48.4071C37.6432 48.0831 36.6712 47.4831 35.8312 46.6311C34.4751 45.2391 33.8032 43.4871 33.8032 41.3511C33.8032 39.2151 34.4752 37.4391 35.8192 36.0711C36.6472 35.2191 37.6312 34.6311 38.7592 34.3191C39.4552 34.1151 40.1992 34.0191 41.0032 34.0191C42.2992 34.0191 43.4392 34.3071 44.4352 34.8951C44.6152 35.0031 44.7832 35.1111 44.9392 35.2311C45.6712 35.7711 46.2112 36.4671 46.5712 37.2951H51.8752C51.6232 36.1311 51.2032 35.0871 50.6272 34.1631C50.3152 33.6711 49.9672 33.2031 49.5592 32.7831C48.4072 31.5711 47.1112 30.6951 45.6472 30.1791C45.4072 30.0951 45.1672 30.0231 44.9272 29.9511C43.6672 29.5911 42.3352 29.4111 40.9072 29.4111C37.2232 29.4111 34.2472 30.5271 31.9672 32.7471C29.6872 34.9671 28.5352 37.8351 28.5352 41.3631C28.5352 44.8911 29.6512 47.7111 31.8952 49.9551C34.1392 52.1991 36.9472 53.3151 40.3192 53.3151C41.8072 53.3151 43.1272 53.0991 44.3032 52.6551C44.7112 52.4991 45.0952 52.3191 45.4672 52.1151C46.8832 51.3111 48.0112 50.2551 48.8272 48.9471L48.8752 53.3151C50.0992 53.2791 51.2152 53.0871 52.2112 52.7391V40.7271H40.9312L40.9432 40.7031Z" fill="#407BFF"></path><path d="M60.3479 40.6914V53.2794H57.0119L56.9639 48.9114C56.1479 50.2314 55.0319 51.2874 53.6039 52.0794C53.1719 52.3194 52.7039 52.5234 52.2119 52.6914V47.9994C52.4639 47.8794 52.7039 47.7474 52.9319 47.6034C54.0719 46.8714 54.8039 45.7674 55.1399 44.2914H52.2119V40.6914H60.3479Z" fill="#407BFF"></path><path d="M86.6718 36.6514V25.3714H96.5438V36.6514H94.4958V27.0514H88.7038V36.6514H86.6718ZM98.9832 40.1074V30.5874C98.9832 30.2567 98.9725 29.9207 98.9512 29.5794C98.9299 29.238 98.8979 28.902 98.8552 28.5714H100.791L100.967 30.2674H100.791C100.951 29.702 101.287 29.254 101.799 28.9234C102.322 28.582 102.925 28.4114 103.607 28.4114C104.322 28.4114 104.946 28.582 105.479 28.9234C106.013 29.254 106.429 29.734 106.727 30.3634C107.026 30.982 107.175 31.7287 107.175 32.6034C107.175 33.478 107.026 34.23 106.727 34.8594C106.429 35.4887 106.013 35.974 105.479 36.3154C104.946 36.646 104.322 36.8114 103.607 36.8114C102.935 36.8114 102.343 36.646 101.831 36.3154C101.319 35.9847 100.978 35.542 100.807 34.9874H100.983V40.1074H98.9832ZM103.047 35.2754C103.687 35.2754 104.199 35.0567 104.583 34.6194C104.967 34.1714 105.159 33.4994 105.159 32.6034C105.159 31.7074 104.967 31.0407 104.583 30.6034C104.199 30.166 103.687 29.9474 103.047 29.9474C102.418 29.9474 101.911 30.166 101.527 30.6034C101.143 31.0407 100.951 31.7074 100.951 32.6034C100.951 33.4994 101.143 34.1714 101.527 34.6194C101.911 35.0567 102.418 35.2754 103.047 35.2754ZM109.06 36.6514V28.5714H110.868V34.6834H110.388L114.98 28.5714H116.628V36.6514H114.82V30.5234H115.316L110.708 36.6514H109.06ZM118.904 36.6514V28.5714H123.208C124.221 28.5714 124.962 28.758 125.432 29.1314C125.901 29.494 126.136 30.0114 126.136 30.6834C126.136 31.1954 125.965 31.622 125.624 31.9634C125.282 32.3047 124.829 32.518 124.264 32.6034V32.3794C124.957 32.422 125.49 32.6247 125.864 32.9874C126.237 33.35 126.424 33.8194 126.424 34.3954C126.424 35.0887 126.157 35.638 125.624 36.0434C125.09 36.4487 124.333 36.6514 123.352 36.6514H118.904ZM120.76 35.4194H123.144C123.613 35.4194 123.97 35.3234 124.216 35.1314C124.472 34.9394 124.6 34.6567 124.6 34.2834C124.6 33.91 124.472 33.6274 124.216 33.4354C123.97 33.2434 123.613 33.1474 123.144 33.1474H120.76V35.4194ZM120.76 31.9154H122.968C123.394 31.9154 123.725 31.8247 123.96 31.6434C124.194 31.4514 124.312 31.1847 124.312 30.8434C124.312 30.502 124.194 30.2407 123.96 30.0594C123.725 29.878 123.394 29.7874 122.968 29.7874H120.76V31.9154ZM132.137 36.8114C130.783 36.8114 129.721 36.438 128.953 35.6914C128.185 34.9447 127.801 33.9207 127.801 32.6194C127.801 31.7767 127.967 31.0407 128.297 30.4114C128.628 29.782 129.087 29.2914 129.673 28.9394C130.271 28.5874 130.964 28.4114 131.753 28.4114C132.532 28.4114 133.183 28.5767 133.705 28.9074C134.228 29.238 134.623 29.702 134.889 30.2994C135.167 30.8967 135.305 31.5954 135.305 32.3954V32.9234H129.417V31.8674H133.881L133.609 32.0914C133.609 31.3447 133.449 30.774 133.129 30.3794C132.82 29.9847 132.367 29.7874 131.769 29.7874C131.108 29.7874 130.596 30.022 130.233 30.4914C129.881 30.9607 129.705 31.6167 129.705 32.4594V32.6674C129.705 33.542 129.919 34.198 130.345 34.6354C130.783 35.062 131.396 35.2754 132.185 35.2754C132.644 35.2754 133.071 35.2167 133.465 35.0994C133.871 34.9714 134.255 34.7687 134.617 34.4914L135.209 35.8354C134.825 36.1447 134.367 36.3847 133.833 36.5554C133.3 36.726 132.735 36.8114 132.137 36.8114ZM138.898 36.6514V30.1394H136.13V28.5714H143.666V30.1394H140.882V36.6514H138.898ZM145.144 33.3074L144.52 25.3714H146.984L146.36 33.3074H145.144ZM144.632 36.6514V34.4274H146.872V36.6514H144.632ZM153.375 36.6514V25.3714H158.319C159.546 25.3714 160.49 25.6327 161.151 26.1554C161.812 26.6674 162.143 27.382 162.143 28.2994C162.143 28.982 161.94 29.558 161.535 30.0274C161.13 30.4967 160.57 30.8114 159.855 30.9714V30.7314C160.676 30.8487 161.311 31.1474 161.759 31.6274C162.218 32.0967 162.447 32.7207 162.447 33.4994C162.447 34.502 162.1 35.2807 161.407 35.8354C160.714 36.3794 159.748 36.6514 158.511 36.6514H153.375ZM155.359 35.0834H158.271C158.964 35.0834 159.503 34.9554 159.887 34.6994C160.271 34.4327 160.463 34.0007 160.463 33.4034C160.463 32.7954 160.271 32.3634 159.887 32.1074C159.503 31.8407 158.964 31.7074 158.271 31.7074H155.359V35.0834ZM155.359 30.1554H157.967C158.703 30.1554 159.247 30.022 159.599 29.7554C159.962 29.478 160.143 29.0727 160.143 28.5394C160.143 28.006 159.962 27.606 159.599 27.3394C159.247 27.062 158.703 26.9234 157.967 26.9234H155.359V30.1554ZM168.022 36.8114C167.19 36.8114 166.47 36.6407 165.862 36.2994C165.254 35.958 164.779 35.4727 164.438 34.8434C164.107 34.214 163.942 33.4674 163.942 32.6034C163.942 31.7394 164.107 30.998 164.438 30.3794C164.779 29.75 165.254 29.2647 165.862 28.9234C166.47 28.582 167.19 28.4114 168.022 28.4114C168.854 28.4114 169.574 28.582 170.182 28.9234C170.8 29.2647 171.275 29.75 171.606 30.3794C171.947 30.998 172.118 31.7394 172.118 32.6034C172.118 33.4674 171.947 34.214 171.606 34.8434C171.275 35.4727 170.8 35.958 170.182 36.2994C169.574 36.6407 168.854 36.8114 168.022 36.8114ZM168.022 35.2754C168.651 35.2754 169.152 35.0567 169.526 34.6194C169.899 34.1714 170.086 33.4994 170.086 32.6034C170.086 31.7074 169.899 31.0407 169.526 30.6034C169.152 30.166 168.651 29.9474 168.022 29.9474C167.392 29.9474 166.891 30.166 166.518 30.6034C166.144 31.0407 165.958 31.7074 165.958 32.6034C165.958 33.4994 166.144 34.1714 166.518 34.6194C166.891 35.0567 167.392 35.2754 168.022 35.2754ZM175.757 36.6514V30.1394H172.989V28.5714H180.525V30.1394H177.741V36.6514H175.757ZM189.93 36.8114C189.098 36.8114 188.367 36.6407 187.738 36.2994C187.119 35.958 186.639 35.4727 186.298 34.8434C185.956 34.2034 185.786 33.446 185.786 32.5714C185.786 31.6967 185.956 30.95 186.298 30.3314C186.65 29.7127 187.135 29.238 187.754 28.9074C188.372 28.5767 189.098 28.4114 189.93 28.4114C190.463 28.4114 190.98 28.4967 191.482 28.6674C191.994 28.8274 192.41 29.062 192.73 29.3714L192.122 30.7634C191.834 30.4967 191.508 30.2994 191.146 30.1714C190.794 30.0327 190.447 29.9634 190.106 29.9634C189.391 29.9634 188.831 30.1874 188.426 30.6354C188.031 31.0834 187.834 31.734 187.834 32.5874C187.834 33.4407 188.031 34.0967 188.426 34.5554C188.831 35.014 189.391 35.2434 190.106 35.2434C190.436 35.2434 190.778 35.1794 191.13 35.0514C191.492 34.9234 191.823 34.726 192.122 34.4594L192.73 35.8354C192.399 36.1447 191.978 36.3847 191.466 36.5554C190.964 36.726 190.452 36.8114 189.93 36.8114ZM198.211 36.8114C197.379 36.8114 196.648 36.6407 196.019 36.2994C195.4 35.958 194.92 35.4727 194.579 34.8434C194.237 34.2034 194.067 33.446 194.067 32.5714C194.067 31.6967 194.237 30.95 194.579 30.3314C194.931 29.7127 195.416 29.238 196.035 28.9074C196.653 28.5767 197.379 28.4114 198.211 28.4114C198.744 28.4114 199.261 28.4967 199.763 28.6674C200.275 28.8274 200.691 29.062 201.011 29.3714L200.403 30.7634C200.115 30.4967 199.789 30.2994 199.427 30.1714C199.075 30.0327 198.728 29.9634 198.387 29.9634C197.672 29.9634 197.112 30.1874 196.707 30.6354C196.312 31.0834 196.115 31.734 196.115 32.5874C196.115 33.4407 196.312 34.0967 196.707 34.5554C197.112 35.014 197.672 35.2434 198.387 35.2434C198.717 35.2434 199.059 35.1794 199.411 35.0514C199.773 34.9234 200.104 34.726 200.403 34.4594L201.011 35.8354C200.68 36.1447 200.259 36.3847 199.747 36.5554C199.245 36.726 198.733 36.8114 198.211 36.8114ZM202.716 36.6514V28.5714H204.7V31.2754H206.828C207.905 31.2754 208.716 31.5047 209.26 31.9634C209.804 32.4114 210.076 33.062 210.076 33.9154C210.076 34.47 209.948 34.9554 209.692 35.3714C209.436 35.7767 209.063 36.0914 208.572 36.3154C208.092 36.5394 207.511 36.6514 206.828 36.6514H202.716ZM204.7 35.3394H206.556C207.1 35.3394 207.516 35.2274 207.804 35.0034C208.092 34.7687 208.236 34.4167 208.236 33.9474C208.236 33.478 208.092 33.1367 207.804 32.9234C207.527 32.6994 207.111 32.5874 206.556 32.5874H204.7V35.3394ZM211.084 36.6514V28.5714H213.068V36.6514H211.084ZM215.133 36.8754L214.509 35.3074C214.861 35.1794 215.154 35.014 215.389 34.8114C215.634 34.598 215.826 34.3314 215.965 34.0114C216.114 33.6807 216.221 33.2754 216.285 32.7954C216.349 32.3047 216.381 31.7234 216.381 31.0514V28.5714H222.813V36.6514H220.829V30.1074H218.205V31.1154C218.205 32.278 218.098 33.254 217.885 34.0434C217.672 34.822 217.341 35.4407 216.893 35.8994C216.445 36.358 215.858 36.6834 215.133 36.8754ZM225.091 36.6514V28.5714H227.075V31.7394H228.291L230.659 28.5714H232.803L229.827 32.6034L229.395 31.9794C229.694 32.0114 229.955 32.0914 230.179 32.2194C230.414 32.3474 230.632 32.5287 230.835 32.7634C231.048 32.9874 231.256 33.2754 231.459 33.6274L233.155 36.6514H231.027L229.651 34.2194C229.512 33.974 229.374 33.782 229.235 33.6434C229.096 33.5047 228.942 33.4087 228.771 33.3554C228.6 33.302 228.392 33.2754 228.147 33.2754H227.075V36.6514H225.091ZM237.4 36.8114C236.696 36.8114 236.077 36.646 235.544 36.3154C235.011 35.974 234.595 35.4887 234.296 34.8594C233.997 34.23 233.848 33.478 233.848 32.6034C233.848 31.7287 233.997 30.982 234.296 30.3634C234.595 29.734 235.011 29.254 235.544 28.9234C236.077 28.582 236.696 28.4114 237.4 28.4114C238.083 28.4114 238.68 28.582 239.192 28.9234C239.715 29.254 240.061 29.702 240.232 30.2674H240.056L240.232 28.5714H242.152C242.12 28.902 242.088 29.238 242.056 29.5794C242.035 29.9207 242.024 30.2567 242.024 30.5874V36.6514H240.04L240.024 34.9874H240.216C240.045 35.542 239.699 35.9847 239.176 36.3154C238.653 36.646 238.061 36.8114 237.4 36.8114ZM237.96 35.2754C238.589 35.2754 239.096 35.0567 239.48 34.6194C239.864 34.1714 240.056 33.4994 240.056 32.6034C240.056 31.7074 239.864 31.0407 239.48 30.6034C239.096 30.166 238.589 29.9474 237.96 29.9474C237.331 29.9474 236.824 30.166 236.44 30.6034C236.056 31.0407 235.864 31.7074 235.864 32.6034C235.864 33.4994 236.051 34.1714 236.424 34.6194C236.808 35.0567 237.32 35.2754 237.96 35.2754ZM86.5598 56.6514V48.5714H88.5438V51.7394H92.1918V48.5714H94.1758V56.6514H92.1918V53.2754H88.5438V56.6514H86.5598ZM99.6345 56.8114C98.9305 56.8114 98.3118 56.646 97.7785 56.3154C97.2451 55.974 96.8291 55.4887 96.5305 54.8594C96.2318 54.23 96.0825 53.478 96.0825 52.6034C96.0825 51.7287 96.2318 50.982 96.5305 50.3634C96.8291 49.734 97.2451 49.254 97.7785 48.9234C98.3118 48.582 98.9305 48.4114 99.6345 48.4114C100.317 48.4114 100.914 48.582 101.426 48.9234C101.949 49.254 102.296 49.702 102.466 50.2674H102.29L102.466 48.5714H104.386C104.354 48.902 104.322 49.238 104.29 49.5794C104.269 49.9207 104.258 50.2567 104.258 50.5874V56.6514H102.274L102.258 54.9874H102.45C102.28 55.542 101.933 55.9847 101.41 56.3154C100.888 56.646 100.296 56.8114 99.6345 56.8114ZM100.194 55.2754C100.824 55.2754 101.33 55.0567 101.714 54.6194C102.098 54.1714 102.29 53.4994 102.29 52.6034C102.29 51.7074 102.098 51.0407 101.714 50.6034C101.33 50.166 100.824 49.9474 100.194 49.9474C99.5651 49.9474 99.0585 50.166 98.6745 50.6034C98.2905 51.0407 98.0985 51.7074 98.0985 52.6034C98.0985 53.4994 98.2851 54.1714 98.6585 54.6194C99.0425 55.0567 99.5545 55.2754 100.194 55.2754ZM110.982 56.6514V48.5714H118.55V56.6514H116.566V50.1074H112.966V56.6514H110.982ZM124.537 56.8114C123.705 56.8114 122.985 56.6407 122.377 56.2994C121.769 55.958 121.295 55.4727 120.953 54.8434C120.623 54.214 120.457 53.4674 120.457 52.6034C120.457 51.7394 120.623 50.998 120.953 50.3794C121.295 49.75 121.769 49.2647 122.377 48.9234C122.985 48.582 123.705 48.4114 124.537 48.4114C125.369 48.4114 126.089 48.582 126.697 48.9234C127.316 49.2647 127.791 49.75 128.121 50.3794C128.463 50.998 128.633 51.7394 128.633 52.6034C128.633 53.4674 128.463 54.214 128.121 54.8434C127.791 55.4727 127.316 55.958 126.697 56.2994C126.089 56.6407 125.369 56.8114 124.537 56.8114ZM124.537 55.2754C125.167 55.2754 125.668 55.0567 126.041 54.6194C126.415 54.1714 126.601 53.4994 126.601 52.6034C126.601 51.7074 126.415 51.0407 126.041 50.6034C125.668 50.166 125.167 49.9474 124.537 49.9474C123.908 49.9474 123.407 50.166 123.033 50.6034C122.66 51.0407 122.473 51.7074 122.473 52.6034C122.473 53.4994 122.66 54.1714 123.033 54.6194C123.407 55.0567 123.908 55.2754 124.537 55.2754ZM129.809 58.7314V55.1314H130.737C131.057 54.63 131.286 54.0434 131.425 53.3714C131.574 52.6887 131.649 51.8567 131.649 50.8754V48.5714H137.873V55.1314H139.185V58.7314H137.489V56.6514H131.505V58.7314H129.809ZM132.529 55.1474H136.001V50.0754H133.345V51.3234C133.345 52.038 133.275 52.7367 133.137 53.4194C132.998 54.102 132.795 54.678 132.529 55.1474ZM140.718 60.1074V50.5874C140.718 50.2567 140.707 49.9207 140.686 49.5794C140.664 49.238 140.632 48.902 140.59 48.5714H142.526L142.702 50.2674H142.526C142.686 49.702 143.022 49.254 143.534 48.9234C144.056 48.582 144.659 48.4114 145.342 48.4114C146.056 48.4114 146.68 48.582 147.214 48.9234C147.747 49.254 148.163 49.734 148.462 50.3634C148.76 50.982 148.91 51.7287 148.91 52.6034C148.91 53.478 148.76 54.23 148.462 54.8594C148.163 55.4887 147.747 55.974 147.214 56.3154C146.68 56.646 146.056 56.8114 145.342 56.8114C144.67 56.8114 144.078 56.646 143.566 56.3154C143.054 55.9847 142.712 55.542 142.542 54.9874H142.718V60.1074H140.718ZM144.782 55.2754C145.422 55.2754 145.934 55.0567 146.318 54.6194C146.702 54.1714 146.894 53.4994 146.894 52.6034C146.894 51.7074 146.702 51.0407 146.318 50.6034C145.934 50.166 145.422 49.9474 144.782 49.9474C144.152 49.9474 143.646 50.166 143.262 50.6034C142.878 51.0407 142.686 51.7074 142.686 52.6034C142.686 53.4994 142.878 54.1714 143.262 54.6194C143.646 55.0567 144.152 55.2754 144.782 55.2754ZM154.506 56.8114C153.674 56.8114 152.954 56.6407 152.346 56.2994C151.738 55.958 151.264 55.4727 150.922 54.8434C150.592 54.214 150.426 53.4674 150.426 52.6034C150.426 51.7394 150.592 50.998 150.922 50.3794C151.264 49.75 151.738 49.2647 152.346 48.9234C152.954 48.582 153.674 48.4114 154.506 48.4114C155.338 48.4114 156.058 48.582 156.666 48.9234C157.285 49.2647 157.76 49.75 158.09 50.3794C158.432 50.998 158.602 51.7394 158.602 52.6034C158.602 53.4674 158.432 54.214 158.09 54.8434C157.76 55.4727 157.285 55.958 156.666 56.2994C156.058 56.6407 155.338 56.8114 154.506 56.8114ZM154.506 55.2754C155.136 55.2754 155.637 55.0567 156.01 54.6194C156.384 54.1714 156.57 53.4994 156.57 52.6034C156.57 51.7074 156.384 51.0407 156.01 50.6034C155.637 50.166 155.136 49.9474 154.506 49.9474C153.877 49.9474 153.376 50.166 153.002 50.6034C152.629 51.0407 152.442 51.7074 152.442 52.6034C152.442 53.4994 152.629 54.1714 153.002 54.6194C153.376 55.0567 153.877 55.2754 154.506 55.2754ZM164.289 56.8114C163.02 56.8114 162.007 56.4274 161.249 55.6594C160.503 54.8914 160.129 53.766 160.129 52.2834V50.9074C160.129 49.382 160.476 48.1554 161.169 47.2274C161.863 46.2994 162.908 45.686 164.305 45.3874L167.265 44.7154L167.809 46.2834L164.481 47.0194C163.927 47.1367 163.468 47.3607 163.105 47.6914C162.743 48.0114 162.471 48.3954 162.289 48.8434C162.108 49.2914 162.017 49.7714 162.017 50.2834V51.1314H161.745C161.863 50.6514 162.06 50.2354 162.337 49.8834C162.615 49.5207 162.967 49.238 163.393 49.0354C163.82 48.8327 164.305 48.7314 164.849 48.7314C165.532 48.7314 166.129 48.8914 166.641 49.2114C167.164 49.5207 167.575 49.974 167.873 50.5714C168.172 51.158 168.321 51.862 168.321 52.6834C168.321 53.526 168.151 54.2567 167.809 54.8754C167.479 55.494 167.009 55.974 166.401 56.3154C165.804 56.646 165.1 56.8114 164.289 56.8114ZM164.225 55.2914C164.887 55.2914 165.399 55.0834 165.761 54.6674C166.135 54.2407 166.321 53.606 166.321 52.7634C166.321 51.942 166.135 51.318 165.761 50.8914C165.388 50.454 164.876 50.2354 164.225 50.2354C163.575 50.2354 163.063 50.4487 162.689 50.8754C162.316 51.302 162.129 51.91 162.129 52.6994C162.129 53.5634 162.316 54.214 162.689 54.6514C163.063 55.078 163.575 55.2914 164.225 55.2914ZM170.216 56.6514V48.5714H172.2V51.7394H175.848V48.5714H177.832V56.6514H175.848V53.2754H172.2V56.6514H170.216ZM180.107 56.6514V48.5714H182.091V51.2754H184.219C185.296 51.2754 186.107 51.5047 186.651 51.9634C187.195 52.4114 187.467 53.062 187.467 53.9154C187.467 54.47 187.339 54.9554 187.083 55.3714C186.827 55.7767 186.453 56.0914 185.963 56.3154C185.483 56.5394 184.901 56.6514 184.219 56.6514H180.107ZM182.091 55.3394H183.947C184.491 55.3394 184.907 55.2274 185.195 55.0034C185.483 54.7687 185.627 54.4167 185.627 53.9474C185.627 53.478 185.483 53.1367 185.195 52.9234C184.917 52.6994 184.501 52.5874 183.947 52.5874H182.091V55.3394ZM188.475 56.6514V48.5714H190.459V56.6514H188.475ZM192.732 56.6514V48.5714H194.54V54.6834H194.06L198.652 48.5714H200.3V56.6514H198.492V50.5234H198.988L194.38 56.6514H192.732ZM196.508 47.8354C195.974 47.8354 195.505 47.75 195.1 47.5794C194.694 47.398 194.358 47.1474 194.092 46.8274C193.825 46.4967 193.633 46.1074 193.516 45.6594L194.54 45.3074C194.721 45.798 194.972 46.1607 195.292 46.3954C195.612 46.6194 196.022 46.7314 196.524 46.7314C197.025 46.7314 197.436 46.6194 197.756 46.3954C198.076 46.1714 198.337 45.814 198.54 45.3234L199.516 45.6594C199.292 46.374 198.918 46.918 198.396 47.2914C197.884 47.654 197.254 47.8354 196.508 47.8354ZM207.03 60.1074V50.5874C207.03 50.2567 207.019 49.9207 206.998 49.5794C206.977 49.238 206.945 48.902 206.902 48.5714H208.838L209.014 50.2674H208.838C208.998 49.702 209.334 49.254 209.846 48.9234C210.369 48.582 210.971 48.4114 211.654 48.4114C212.369 48.4114 212.993 48.582 213.526 48.9234C214.059 49.254 214.475 49.734 214.774 50.3634C215.073 50.982 215.222 51.7287 215.222 52.6034C215.222 53.478 215.073 54.23 214.774 54.8594C214.475 55.4887 214.059 55.974 213.526 56.3154C212.993 56.646 212.369 56.8114 211.654 56.8114C210.982 56.8114 210.39 56.646 209.878 56.3154C209.366 55.9847 209.025 55.542 208.854 54.9874H209.03V60.1074H207.03ZM211.094 55.2754C211.734 55.2754 212.246 55.0567 212.63 54.6194C213.014 54.1714 213.206 53.4994 213.206 52.6034C213.206 51.7074 213.014 51.0407 212.63 50.6034C212.246 50.166 211.734 49.9474 211.094 49.9474C210.465 49.9474 209.958 50.166 209.574 50.6034C209.19 51.0407 208.998 51.7074 208.998 52.6034C208.998 53.4994 209.19 54.1714 209.574 54.6194C209.958 55.0567 210.465 55.2754 211.094 55.2754ZM220.291 56.8114C219.587 56.8114 218.968 56.646 218.435 56.3154C217.901 55.974 217.485 55.4887 217.187 54.8594C216.888 54.23 216.739 53.478 216.739 52.6034C216.739 51.7287 216.888 50.982 217.187 50.3634C217.485 49.734 217.901 49.254 218.435 48.9234C218.968 48.582 219.587 48.4114 220.291 48.4114C220.973 48.4114 221.571 48.582 222.083 48.9234C222.605 49.254 222.952 49.702 223.123 50.2674H222.947L223.123 48.5714H225.043C225.011 48.902 224.979 49.238 224.947 49.5794C224.925 49.9207 224.915 50.2567 224.915 50.5874V56.6514H222.931L222.915 54.9874H223.107C222.936 55.542 222.589 55.9847 222.067 56.3154C221.544 56.646 220.952 56.8114 220.291 56.8114ZM220.851 55.2754C221.48 55.2754 221.987 55.0567 222.371 54.6194C222.755 54.1714 222.947 53.4994 222.947 52.6034C222.947 51.7074 222.755 51.0407 222.371 50.6034C221.987 50.166 221.48 49.9474 220.851 49.9474C220.221 49.9474 219.715 50.166 219.331 50.6034C218.947 51.0407 218.755 51.7074 218.755 52.6034C218.755 53.4994 218.941 54.1714 219.315 54.6194C219.699 55.0567 220.211 55.2754 220.851 55.2754ZM230.223 56.8114C229.498 56.8114 228.815 56.726 228.175 56.5554C227.546 56.3847 227.018 56.1394 226.591 55.8194L227.151 54.5074C227.546 54.7954 228.005 55.014 228.527 55.1634C229.061 55.3127 229.621 55.3874 230.207 55.3874C230.89 55.3874 231.386 55.2967 231.695 55.1154C232.015 54.9234 232.175 54.646 232.175 54.2834C232.175 53.942 232.053 53.686 231.807 53.5154C231.562 53.334 231.199 53.2434 230.719 53.2434H228.623V51.8674H230.527C230.965 51.8674 231.301 51.782 231.535 51.6114C231.77 51.4407 231.887 51.2007 231.887 50.8914C231.887 50.5607 231.743 50.2994 231.455 50.1074C231.178 49.9154 230.719 49.8194 230.079 49.8194C229.525 49.8194 229.018 49.8887 228.559 50.0274C228.101 50.1554 227.669 50.3474 227.263 50.6034L226.719 49.3554C227.157 49.046 227.685 48.8114 228.303 48.6514C228.933 48.4914 229.615 48.4114 230.351 48.4114C231.429 48.4114 232.255 48.6087 232.831 49.0034C233.407 49.398 233.695 49.958 233.695 50.6834C233.695 51.174 233.525 51.5954 233.183 51.9474C232.853 52.2994 232.405 52.518 231.839 52.6034V52.3794C232.501 52.422 233.023 52.6194 233.407 52.9714C233.791 53.3234 233.983 53.798 233.983 54.3954C233.983 55.1314 233.658 55.718 233.007 56.1554C232.357 56.5927 231.429 56.8114 230.223 56.8114ZM239.524 56.8114C238.254 56.8114 237.241 56.4274 236.484 55.6594C235.737 54.8914 235.364 53.766 235.364 52.2834V50.9074C235.364 49.382 235.71 48.1554 236.404 47.2274C237.097 46.2994 238.142 45.686 239.54 45.3874L242.5 44.7154L243.044 46.2834L239.716 47.0194C239.161 47.1367 238.702 47.3607 238.34 47.6914C237.977 48.0114 237.705 48.3954 237.524 48.8434C237.342 49.2914 237.252 49.7714 237.252 50.2834V51.1314H236.98C237.097 50.6514 237.294 50.2354 237.572 49.8834C237.849 49.5207 238.201 49.238 238.628 49.0354C239.054 48.8327 239.54 48.7314 240.084 48.7314C240.766 48.7314 241.364 48.8914 241.876 49.2114C242.398 49.5207 242.809 49.974 243.108 50.5714C243.406 51.158 243.556 51.862 243.556 52.6834C243.556 53.526 243.385 54.2567 243.044 54.8754C242.713 55.494 242.244 55.974 241.636 56.3154C241.038 56.646 240.334 56.8114 239.524 56.8114ZM239.46 55.2914C240.121 55.2914 240.633 55.0834 240.996 54.6674C241.369 54.2407 241.556 53.606 241.556 52.7634C241.556 51.942 241.369 51.318 240.996 50.8914C240.622 50.454 240.11 50.2354 239.46 50.2354C238.809 50.2354 238.297 50.4487 237.924 50.8754C237.55 51.302 237.364 51.91 237.364 52.6994C237.364 53.5634 237.55 54.214 237.924 54.6514C238.297 55.078 238.809 55.2914 239.46 55.2914ZM249.162 56.8114C248.33 56.8114 247.61 56.6407 247.002 56.2994C246.394 55.958 245.92 55.4727 245.578 54.8434C245.248 54.214 245.082 53.4674 245.082 52.6034C245.082 51.7394 245.248 50.998 245.578 50.3794C245.92 49.75 246.394 49.2647 247.002 48.9234C247.61 48.582 248.33 48.4114 249.162 48.4114C249.994 48.4114 250.714 48.582 251.322 48.9234C251.941 49.2647 252.416 49.75 252.746 50.3794C253.088 50.998 253.258 51.7394 253.258 52.6034C253.258 53.4674 253.088 54.214 252.746 54.8434C252.416 55.4727 251.941 55.958 251.322 56.2994C250.714 56.6407 249.994 56.8114 249.162 56.8114ZM249.162 55.2754C249.792 55.2754 250.293 55.0567 250.666 54.6194C251.04 54.1714 251.226 53.4994 251.226 52.6034C251.226 51.7074 251.04 51.0407 250.666 50.6034C250.293 50.166 249.792 49.9474 249.162 49.9474C248.533 49.9474 248.032 50.166 247.658 50.6034C247.285 51.0407 247.098 51.7074 247.098 52.6034C247.098 53.4994 247.285 54.1714 247.658 54.6194C248.032 55.0567 248.533 55.2754 249.162 55.2754ZM255.218 60.1074V50.5874C255.218 50.2567 255.207 49.9207 255.186 49.5794C255.164 49.238 255.132 48.902 255.09 48.5714H257.026L257.202 50.2674H257.026C257.186 49.702 257.522 49.254 258.034 48.9234C258.556 48.582 259.159 48.4114 259.842 48.4114C260.556 48.4114 261.18 48.582 261.714 48.9234C262.247 49.254 262.663 49.734 262.962 50.3634C263.26 50.982 263.41 51.7287 263.41 52.6034C263.41 53.478 263.26 54.23 262.962 54.8594C262.663 55.4887 262.247 55.974 261.714 56.3154C261.18 56.646 260.556 56.8114 259.842 56.8114C259.17 56.8114 258.578 56.646 258.066 56.3154C257.554 55.9847 257.212 55.542 257.042 54.9874H257.218V60.1074H255.218ZM259.282 55.2754C259.922 55.2754 260.434 55.0567 260.818 54.6194C261.202 54.1714 261.394 53.4994 261.394 52.6034C261.394 51.7074 261.202 51.0407 260.818 50.6034C260.434 50.166 259.922 49.9474 259.282 49.9474C258.652 49.9474 258.146 50.166 257.762 50.6034C257.378 51.0407 257.186 51.7074 257.186 52.6034C257.186 53.4994 257.378 54.1714 257.762 54.6194C258.146 55.0567 258.652 55.2754 259.282 55.2754Z" fill="white"></path></svg> 