<?xml version="1.0" encoding="UTF-8"?> <svg xmlns="http://www.w3.org/2000/svg" width="352" height="352" viewBox="0 0 352 352" fill="none"><path d="M313.23 135.516C291.84 168.78 252.908 205.274 206.26 235.762C202.694 238.096 198.982 240.452 195.19 242.79C236.567 240.959 274.758 233.319 303.057 221.181C332.079 208.733 348.062 192.67 348.062 175.952C348.062 161.252 336.021 147.28 313.23 135.516ZM188.248 244.882L191.245 243.063C196.061 240.138 200.777 237.168 205.261 234.234C252.026 203.669 290.981 167.075 312.137 133.835L312.583 133.135L313.322 133.51C337.243 145.685 349.888 160.361 349.888 175.952C349.888 193.447 333.512 210.106 303.777 222.86C274.478 235.427 234.693 243.203 191.752 244.756L188.248 244.882Z" fill="#182849"></path><path d="M175.652 108.694C170.257 108.694 164.86 108.791 159.611 108.981C116.887 110.526 77.3333 118.25 48.2366 130.729C19.2166 143.176 3.23452 159.236 3.23452 175.951C3.23452 190.814 15.5336 204.931 38.8027 216.774C71.7905 233.578 121.669 243.217 175.652 243.217C180.957 243.217 186.27 243.124 191.448 242.939C196.194 240.055 200.839 237.126 205.261 234.234C251.63 203.928 290.318 167.698 311.593 134.683C278.604 118.158 229.143 108.694 175.652 108.694ZM175.652 245.044C121.391 245.044 71.2091 235.332 37.9745 218.401C14.0519 206.226 1.40802 191.547 1.40802 175.951C1.40802 158.459 17.7833 141.803 47.5168 129.051C76.816 116.485 116.601 108.709 159.545 107.156C164.816 106.965 170.235 106.868 175.652 106.868C229.909 106.868 280.088 116.579 313.323 133.511L314.217 133.967L313.678 134.814C292.387 168.266 253.235 205.061 206.26 235.762C201.759 238.708 197.027 241.688 192.193 244.623L191.989 244.747L191.752 244.755C186.477 244.947 181.06 245.044 175.652 245.044Z" fill="#182849"></path><path d="M38.7161 218.776C24.1285 241.931 19.8546 260.891 26.3609 273.639C29.7307 280.245 35.911 284.865 44.7295 287.373C74.5745 295.855 130.647 279.2 188.241 244.868C184.086 244.985 179.866 245.044 175.652 245.044C121.795 245.044 71.9538 235.475 38.7161 218.776ZM62.3617 291.364C55.6039 291.364 49.5169 290.633 44.2296 289.13C34.9033 286.477 28.344 281.545 24.7337 274.469C17.8525 260.984 22.3076 241.145 37.6181 217.097L38.0635 216.397L38.8031 216.774C71.7901 233.579 121.67 243.217 175.652 243.217C181.038 243.217 186.433 243.121 191.685 242.931L195.195 242.803L192.192 244.624C143.266 274.285 95.007 291.363 62.3617 291.364Z" fill="#182849"></path><path d="M175.652 106.868C229.505 106.868 279.344 116.436 312.581 133.135C327.167 109.982 331.443 91.022 324.944 78.2721C321.574 71.6653 315.394 67.0441 306.577 64.5365C276.738 56.0479 220.66 72.7095 163.056 107.044C167.209 106.927 171.431 106.868 175.652 106.868ZM313.232 135.515L312.494 135.138C279.507 118.333 229.63 108.695 175.652 108.695C170.257 108.695 164.86 108.791 159.611 108.982L156.101 109.109L159.104 107.288C218.17 71.4834 276.252 54.0117 307.076 62.7796C316.402 65.4319 322.961 70.3649 326.57 77.4423C333.446 90.9294 328.987 110.768 313.678 134.815L313.232 135.515Z" fill="#182849"></path><path d="M101.91 219.739V101.36C86.5222 116.677 78.8128 136.352 78.8128 160.408C78.8128 184.463 86.5167 204.237 101.91 219.739Z" fill="#182849"></path><path d="M242.175 138.709H270.626C268.529 129.083 264.407 121.005 258.259 114.475C252.112 107.947 245.129 103.3 237.314 100.535C234.582 99.569 231.764 98.7827 228.87 98.1539V124.859C229.478 125.169 230.078 125.492 230.666 125.841C235.956 128.986 239.791 133.276 242.175 138.709Z" fill="#182849"></path><path d="M168.391 157.009V176.311H200.991C199.272 183.816 195.621 189.524 190.04 193.42C189.743 193.631 189.438 193.835 189.125 194.038C183.027 197.951 176.116 199.899 168.391 199.899C164.208 199.899 160.286 199.366 156.644 198.299C150.673 196.545 145.439 193.369 140.942 188.753C133.7 181.317 130.074 171.881 130.074 160.439C130.074 148.912 133.674 139.476 140.874 132.133C145.329 127.577 150.588 124.443 156.652 122.715C160.362 121.648 164.368 121.123 168.679 121.123C175.633 121.123 181.765 122.698 187.05 125.84C188.007 126.408 188.913 127.01 189.777 127.653C193.682 130.567 196.612 134.259 198.56 138.706H227.01C225.646 132.447 223.427 126.848 220.344 121.902C218.701 119.234 216.796 116.752 214.644 114.474C208.495 107.944 201.516 103.303 193.699 100.533C192.429 100.084 191.132 99.669 189.828 99.2964C183.103 97.3568 175.913 96.3917 168.247 96.3917C148.521 96.3917 132.53 102.346 120.284 114.263C108.037 126.179 101.913 141.569 101.913 160.439C101.913 179.123 107.918 194.47 119.928 206.48C131.938 218.49 146.997 224.495 165.105 224.495C173.075 224.495 180.19 223.318 186.449 220.955C188.642 220.134 190.725 219.168 192.699 218.058C200.322 213.773 206.327 208.098 210.714 201.043L211.002 224.461C217.566 224.266 223.529 223.242 228.873 221.395V157.009H168.391Z" fill="#182849"></path><path d="M272.483 157.009V224.495H254.612L254.324 201.043C249.946 208.098 243.94 213.773 236.309 218.058C233.989 219.371 231.49 220.455 228.874 221.361V196.181C230.195 195.537 231.49 194.843 232.735 194.038C238.833 190.134 242.797 184.222 244.602 176.311H228.874V157.009H272.483Z" fill="#182849"></path></svg> 