<?xml version="1.0" encoding="UTF-8"?> <svg xmlns="http://www.w3.org/2000/svg" width="1161" height="441" viewBox="0 0 1161 441" fill="none"> <rect width="1161" height="441" fill="white"></rect> <path d="M1114.51 438.96H46.2501C21.8801 438.96 2.12012 419.2 2.12012 394.83V46.25C2.12012 21.88 21.8801 2.12 46.2501 2.12H1114.51C1138.88 2.12 1158.64 21.88 1158.64 46.25V394.83C1158.64 419.2 1138.88 438.96 1114.51 438.96Z" fill="white"></path> <mask id="mask0_259_60" style="mask-type:luminance" maskUnits="userSpaceOnUse" x="2" y="2" width="1157" height="437"> <path d="M1114.51 438.96H46.2501C21.8801 438.96 2.12012 419.2 2.12012 394.83V46.25C2.12012 21.88 21.8801 2.12 46.2501 2.12H1114.51C1138.88 2.12 1158.64 21.88 1158.64 46.25V394.83C1158.64 419.2 1138.88 438.96 1114.51 438.96Z" fill="white"></path> </mask> <g mask="url(#mask0_259_60)"> <g opacity="0.3"> <path d="M867.35 33.6C754.29 21.6 690.05 72.7 538.12 78.25C387.17 68.61 329.61 15.88 215.21 24.81C92.1199 34.42 -3.22013 165.11 23.9099 295.85C51.0399 426.58 219.17 499.66 305.12 499.21C373.81 498.85 434.5 476.07 512.82 470.62C590.31 478.16 647.95 502.54 716.48 504.75C802.23 507.51 979.48 439.09 1023.4 309.31C1067.33 179.54 988.99 46.5 867.35 33.6Z" fill="#52BEDA"></path> <path opacity="0.7" d="M867.35 33.6C754.29 21.6 690.05 72.7 538.12 78.25C387.17 68.61 329.61 15.88 215.21 24.81C92.1199 34.42 -3.22013 165.11 23.9099 295.85C51.0399 426.58 219.17 499.66 305.12 499.21C373.81 498.85 434.5 476.07 512.82 470.62C590.31 478.16 647.95 502.54 716.48 504.75C802.23 507.51 979.48 439.09 1023.4 309.31C1067.33 179.54 988.99 46.5 867.35 33.6Z" fill="#52BEDA"></path> </g> <path opacity="0.5" d="M795.55 35.0699H340.82V291.34H795.55V35.0699Z" stroke="#12284C" stroke-width="1.1827" stroke-miterlimit="10" stroke-linejoin="round"></path> <g opacity="0.5"> <path d="M865.3 34.76H812.45V129.03H865.3V34.76Z" stroke="#12284C" stroke-width="1.1827" stroke-miterlimit="10" stroke-linejoin="round"></path> <path d="M923.32 34.76H870.47V129.03H923.32V34.76Z" stroke="#12284C" stroke-width="1.1827" stroke-miterlimit="10" stroke-linejoin="round"></path> <path d="M981.35 34.76H928.5V129.03H981.35V34.76Z" stroke="#12284C" stroke-width="1.1827" stroke-miterlimit="10" stroke-linejoin="round"></path> <path d="M865.3 137.07H812.45V231.34H865.3V137.07Z" stroke="#12284C" stroke-width="1.1827" stroke-miterlimit="10" stroke-linejoin="round"></path> <path d="M923.32 137.07H870.47V231.34H923.32V137.07Z" stroke="#12284C" stroke-width="1.1827" stroke-miterlimit="10" stroke-linejoin="round"></path> <path d="M981.35 137.07H928.5V231.34H981.35V137.07Z" stroke="#12284C" stroke-width="1.1827" stroke-miterlimit="10" stroke-linejoin="round"></path> <path d="M865.3 239.39H812.45V333.66H865.3V239.39Z" stroke="#12284C" stroke-width="1.1827" stroke-miterlimit="10" stroke-linejoin="round"></path> <path d="M923.32 239.39H870.47V333.66H923.32V239.39Z" stroke="#12284C" stroke-width="1.1827" stroke-miterlimit="10" stroke-linejoin="round"></path> <path d="M981.35 239.39H928.5V333.66H981.35V239.39Z" stroke="#12284C" stroke-width="1.1827" stroke-miterlimit="10" stroke-linejoin="round"></path> <path d="M865.3 341.71H812.45V435.98H865.3V341.71Z" stroke="#12284C" stroke-width="1.1827" stroke-miterlimit="10" stroke-linejoin="round"></path> <path d="M923.32 341.71H870.47V435.98H923.32V341.71Z" stroke="#12284C" stroke-width="1.1827" stroke-miterlimit="10" stroke-linejoin="round"></path> <path d="M981.35 341.71H928.5V435.98H981.35V341.71Z" stroke="#12284C" stroke-width="1.1827" stroke-miterlimit="10" stroke-linejoin="round"></path> </g> <g opacity="0.5"> <path d="M208.35 34.76H155.5V129.03H208.35V34.76Z" stroke="#12284C" stroke-width="1.1827" stroke-miterlimit="10" stroke-linejoin="round"></path> <path d="M266.38 34.76H213.53V129.03H266.38V34.76Z" stroke="#12284C" stroke-width="1.1827" stroke-miterlimit="10" stroke-linejoin="round"></path> <path d="M324.4 34.76H271.55V129.03H324.4V34.76Z" stroke="#12284C" stroke-width="1.1827" stroke-miterlimit="10" stroke-linejoin="round"></path> <path d="M208.35 137.07H155.5V231.34H208.35V137.07Z" stroke="#12284C" stroke-width="1.1827" stroke-miterlimit="10" stroke-linejoin="round"></path> <path d="M266.38 137.07H213.53V231.34H266.38V137.07Z" stroke="#12284C" stroke-width="1.1827" stroke-miterlimit="10" stroke-linejoin="round"></path> <path d="M324.4 137.07H271.55V231.34H324.4V137.07Z" stroke="#12284C" stroke-width="1.1827" stroke-miterlimit="10" stroke-linejoin="round"></path> <path d="M208.35 239.39H155.5V333.66H208.35V239.39Z" stroke="#12284C" stroke-width="1.1827" stroke-miterlimit="10" stroke-linejoin="round"></path> <path d="M266.38 239.39H213.53V333.66H266.38V239.39Z" stroke="#12284C" stroke-width="1.1827" stroke-miterlimit="10" stroke-linejoin="round"></path> <path d="M324.4 239.39H271.55V333.66H324.4V239.39Z" stroke="#12284C" stroke-width="1.1827" stroke-miterlimit="10" stroke-linejoin="round"></path> <path d="M208.35 341.71H155.5V435.98H208.35V341.71Z" stroke="#12284C" stroke-width="1.1827" stroke-miterlimit="10" stroke-linejoin="round"></path> <path d="M266.38 341.71H213.53V435.98H266.38V341.71Z" stroke="#12284C" stroke-width="1.1827" stroke-miterlimit="10" stroke-linejoin="round"></path> <path d="M324.4 341.71H271.55V435.98H324.4V341.71Z" stroke="#12284C" stroke-width="1.1827" stroke-miterlimit="10" stroke-linejoin="round"></path> </g> <path d="M1041.76 349.39C1041.79 349.32 1041.76 349.26 1041.7 349.23C1041.64 349.2 1041.57 349.23 1041.55 349.29C1038.04 357.4 1035.57 365.92 1033.5 374.51C1031.51 383.12 1030.07 391.86 1029.06 400.66L1028.43 407.27C1028.33 408.37 1028.21 409.47 1028.13 410.58L1027.95 413.9C1027.85 416.11 1027.72 418.32 1027.66 420.54L1027.72 427.18L1027.79 430.5C1027.84 431.61 1027.92 432.71 1027.99 433.81C1028.16 436.02 1028.29 475 1028.49 477.21C1028.91 481.61 1029.58 485.99 1030.26 490.35C1030.27 490.41 1030.32 490.45 1030.38 490.45C1030.44 490.45 1030.5 490.4 1030.5 490.33V490.32C1030.49 488.11 1030.39 485.9 1030.35 483.7C1030.29 481.5 1030.09 479.31 1030.13 477.1C1030.14 474.9 1030.08 435.93 1030.06 433.73L1030 430.44L1030.06 427.15L1030.09 420.57L1030.27 413.99L1030.34 410.7C1030.38 409.6 1030.46 408.51 1030.52 407.41L1030.92 400.84C1031.69 392.09 1032.89 383.38 1034.64 374.76C1036.38 366.16 1038.55 357.58 1041.76 349.39Z" fill="#12284C"></path> <path d="M1042.7 383.8C1042.72 383.74 1042.69 383.68 1042.63 383.65C1042.57 383.63 1042.5 383.66 1042.48 383.72C1040.59 389.19 1039.07 394.78 1037.79 400.43C1036.57 406.09 1035.61 411.83 1035.02 417.61C1034.44 423.37 1033.79 429.14 1033.71 434.93C1033.62 440.72 1033.71 483.29 1034.33 489.07C1034.34 489.12 1034.38 489.17 1034.43 489.17C1034.49 489.18 1034.55 489.13 1034.56 489.07C1035.23 483.3 1035.64 440.77 1036.04 435.03C1036.45 429.28 1036.5 423.52 1036.88 417.77C1037.23 412.04 1037.95 406.33 1038.93 400.66C1039.9 394.99 1041.11 389.34 1042.7 383.8Z" fill="#12284C"></path> <path d="M1061.78 395.91C1061.75 395.86 1061.67 395.84 1061.62 395.87C1056.84 398.89 1052.58 402.7 1048.86 406.99C1047.03 409.17 1045.33 411.45 1043.87 413.93L1042.84 415.86L1042.04 417.87C1041.75 418.54 1041.55 419.22 1041.34 419.91C1041.13 420.6 1040.9 421.28 1040.72 421.97C1039.29 427.5 1038.34 469.91 1038.08 475.58C1037.85 481.24 1037.96 486.91 1038.71 492.53C1038.72 492.58 1038.76 492.63 1038.82 492.63C1038.88 492.63 1038.94 492.59 1038.94 492.52L1040.39 475.74C1040.97 470.19 1041.32 427.84 1042.52 422.42C1042.67 421.75 1042.87 421.09 1043.04 420.42C1043.21 419.75 1043.38 419.08 1043.63 418.44L1044.31 416.5L1045.19 414.67C1046.48 412.25 1048.06 409.93 1049.76 407.73C1053.17 403.33 1057.18 399.32 1061.74 396.07H1061.75C1061.8 396.03 1061.81 395.96 1061.78 395.91Z" fill="#12284C"></path> <path d="M1052.55 417.47C1049.95 419.15 1048.21 421.79 1046.75 424.44C1045.36 427.15 1044.26 430.03 1043.5 432.98C1043.27 433.71 1043.09 434.45 1042.93 435.2L1042.4 437.43C1042.13 438.93 1041.92 477.22 1041.84 478.74C1041.82 480.26 1041.78 481.78 1041.88 483.3C1042.01 484.82 1042.18 486.33 1042.48 487.83C1042.49 487.87 1042.53 487.91 1042.57 487.92C1042.63 487.93 1042.7 487.89 1042.71 487.83C1043.08 486.33 1043.32 484.85 1043.51 483.37C1043.75 481.89 1043.98 480.43 1044.15 478.96C1044.37 477.5 1044.56 476.04 1044.67 474.56C1044.87 473.11 1044.98 434.84 1045.3 433.4C1045.81 430.49 1046.65 427.65 1047.79 424.94C1048.92 422.25 1050.4 419.56 1052.66 417.67L1052.68 417.65C1052.72 417.61 1052.73 417.55 1052.7 417.5C1052.67 417.45 1052.6 417.43 1052.55 417.47Z" fill="#12284C"></path> <path d="M1025.79 434.27C1025.16 426.82 1023.93 419.45 1022.77 412.08C1021.61 404.71 1020.32 397.36 1018.97 390.02C1017.57 382.69 1016.11 375.38 1014.53 368.09C1014.52 368.03 1014.46 367.99 1014.4 368C1014.34 368.01 1014.3 368.07 1014.31 368.14C1015.58 375.48 1016.74 382.85 1017.83 390.22C1018.95 397.58 1020 404.96 1020.93 412.35C1021.84 419.74 1022.55 427.15 1023.48 434.53L1026.2 493.48C1026.21 493.54 1026.25 493.58 1026.31 493.58C1026.37 493.58 1026.43 493.53 1026.43 493.47C1026.51 491.6 1026.52 489.73 1026.56 487.86C1026.58 485.99 1026.48 484.12 1026.45 482.25C1026.39 478.5 1026.07 438 1025.79 434.27Z" fill="#12284C"></path> <path d="M1021.32 434.17C1020.92 431.22 1020.38 428.29 1019.82 425.36L1018.77 421.01C1018.43 419.56 1018.1 418.11 1017.68 416.68C1016.19 410.91 1014.29 405.24 1011.99 399.74L1011.1 397.69L1010.11 395.68C1009.48 394.33 1008.72 393.04 1007.99 391.74C1006.43 389.2 1004.82 386.67 1002.61 384.61C1002.57 384.57 1002.5 384.57 1002.45 384.61C1002.4 384.65 1002.4 384.73 1002.45 384.77L1002.46 384.78C1004.5 386.89 1005.98 389.5 1007.38 392.07C1008.03 393.39 1008.71 394.7 1009.27 396.06L1010.14 398.09L1010.92 400.16C1012.98 405.67 1014.64 411.34 1015.88 417.1C1016.56 419.97 1017.01 422.89 1017.56 425.78L1018.26 430.15C1018.51 431.6 1018.82 433.04 1019.03 434.5C1019.5 437.41 1020.03 477.09 1020.54 480.01C1020.99 482.93 1021.53 485.85 1022.14 488.77C1022.15 488.82 1022.2 488.87 1022.25 488.87C1022.31 488.87 1022.37 488.82 1022.37 488.75C1022.38 485.77 1022.31 482.8 1022.16 479.82C1021.98 476.86 1021.63 437.13 1021.32 434.17Z" fill="#12284C"></path> <path d="M1015.16 434.54C1013.78 430.63 1012.18 426.81 1010.44 423.06C1008.65 419.33 1006.73 415.67 1004.51 412.18C1004.48 412.13 1004.41 412.11 1004.35 412.14C1004.29 412.17 1004.28 412.24 1004.31 412.3C1006.25 415.92 1007.89 419.7 1009.37 423.52C1010.88 427.33 1012.24 431.2 1013.39 435.12C1014.55 439.04 1015.39 479.82 1016.43 483.76C1017.53 487.7 1018.42 491.68 1019.63 495.66C1019.64 495.71 1019.69 495.75 1019.74 495.75C1019.8 495.75 1019.86 495.7 1019.86 495.63C1019.92 491.47 1019.51 487.31 1018.7 483.24C1017.97 479.15 1016.53 438.45 1015.16 434.54Z" fill="#12284C"></path> <path d="M1014.9 484.34C1014.19 481.89 1012.99 479.61 1011.62 477.46C1010.28 475.3 1008.72 436.48 1006.85 434.75C1005.89 433.92 1004.9 433.11 1003.81 432.46C1002.74 431.79 1001.6 431.22 1000.37 430.9C1000.32 430.89 1000.26 430.91 1000.24 430.97C1000.21 431.03 1000.24 431.1 1000.3 431.12L1000.31 431.13C1002.54 432.12 1004.43 433.77 1006.02 435.57C1007.64 437.37 1008.92 476.22 1010 478.37C1011.13 480.51 1011.71 482.87 1012.7 485.08C1013.13 486.21 1013.56 487.35 1014.07 488.48C1014.5 489.63 1014.97 490.78 1015.57 491.92V491.93C1015.59 491.97 1015.63 491.99 1015.67 491.99C1015.74 491.99 1015.79 491.94 1015.79 491.88C1015.84 490.61 1015.77 489.34 1015.65 488.07C1015.47 486.82 1015.2 485.58 1014.9 484.34Z" fill="#12284C"></path> <path d="M1015.36 378.76C1015.36 378.76 1003.15 375.94 1000.34 362.8C997.521 349.66 1006.6 355.29 998.461 334.63C990.321 313.97 992.201 309.28 995.021 303.33C997.841 297.38 999.401 299.26 1001.91 307.09C1004.41 314.91 1013.49 327.12 1016.93 349.97C1020.37 372.81 1015.36 378.76 1015.36 378.76Z" fill="#52BEDA"></path> <path d="M1039.46 356.54C1039.46 356.54 1031.32 353.72 1031.01 338.39C1030.7 323.05 1036.96 326.18 1037.9 307.09C1038.84 288 1040.09 274.54 1043.53 274.23C1046.97 273.92 1056.05 283.62 1059.18 304.9C1062.31 326.18 1055.11 340.26 1048.85 346.52C1042.59 352.78 1039.46 356.54 1039.46 356.54Z" fill="#52BEDA"></path> <path d="M1010.98 397.22C1010.98 397.22 1009.1 385.95 1005.35 380.63C1001.59 375.31 993.46 370.61 988.14 360.29C982.82 349.96 976.87 344.95 977.19 359.66C977.5 374.37 984.08 381.88 992.21 386.89C1000.34 391.9 1010.98 397.22 1010.98 397.22Z" fill="#52BEDA"></path> <path d="M1007.54 416.63C1007.54 416.63 1000.03 402.23 989.08 391.59C978.13 380.95 969.36 375.63 972.49 380.95C975.62 386.27 979.38 385.96 984.7 395.35C990.02 404.74 988.46 411.62 995.97 416.94C1003.47 422.26 1007.54 416.63 1007.54 416.63Z" fill="#52BEDA"></path> <path d="M1006.6 435.09C1006.29 434.15 1005.97 427.27 995.33 421.63C984.69 416 974.67 418.19 975.93 421C977.18 423.82 983.75 428.51 990.33 431.33C996.9 434.15 1006.6 435.09 1006.6 435.09Z" fill="#52BEDA"></path> <path d="M1038.84 397.85C1038.84 397.85 1034.15 391.9 1036.65 379.39C1039.15 366.87 1044.79 370 1051.05 363.43C1057.31 356.86 1056.06 355.92 1062.32 349.03C1068.58 342.14 1074.21 338.39 1076.72 341.21C1079.22 344.03 1075.47 352.79 1071.71 357.8C1067.95 362.81 1062.01 365.31 1059.19 371.57C1056.37 377.83 1057.63 387.84 1050.43 392.54C1043.22 397.22 1038.84 397.85 1038.84 397.85Z" fill="#52BEDA"></path> <path d="M1054.48 401.29C1054.48 401.29 1065.75 388.46 1073.88 379.07C1082.02 369.68 1085.15 362.48 1085.46 368.74C1085.77 375 1088.28 380.01 1081.7 388.14C1075.14 396.28 1054.48 401.29 1054.48 401.29Z" fill="#52BEDA"></path> <path d="M1048.54 421.95C1048.54 421.95 1048.23 416.94 1066.07 405.36C1083.91 393.78 1091.42 391.59 1089.54 396.28C1087.66 400.97 1079.84 405.67 1071.39 414.12C1062.93 422.57 1048.54 421.95 1048.54 421.95Z" fill="#52BEDA"></path> <path d="M1016.11 377.42C1016.11 377.42 1011.92 354.97 1007.54 339.01C1003.16 323.05 1000.34 313.35 1000.34 313.35" stroke="#ABABAB" stroke-width="1.1827" stroke-miterlimit="10" stroke-linecap="round" stroke-linejoin="round"></path> <path d="M1038.74 356.77C1038.74 356.77 1046.35 332.44 1048.85 317.73C1051.35 303.02 1048.54 292.07 1047.29 285.49" stroke="#ABABAB" stroke-width="1.1827" stroke-miterlimit="10" stroke-linecap="round" stroke-linejoin="round"></path> <path d="M1010 396.75C1010 396.75 1005.35 388.46 998.47 380.32C991.58 372.18 986.26 367.8 983.13 359.98" stroke="#ABABAB" stroke-width="1.1827" stroke-miterlimit="10" stroke-linecap="round" stroke-linejoin="round"></path> <path d="M1038.84 397.85C1038.84 397.85 1041.34 382.83 1047.29 375C1053.24 367.18 1065.13 354.97 1069.82 347.15" stroke="#ABABAB" stroke-width="1.1827" stroke-miterlimit="10" stroke-linecap="round" stroke-linejoin="round"></path> <path d="M1005.87 434.75C1005.87 434.75 995.34 427.89 987.83 424.14" stroke="#ABABAB" stroke-width="1.1827" stroke-miterlimit="10" stroke-linecap="round" stroke-linejoin="round"></path> <path d="M1035.83 397.06C1035.83 397.06 1029.97 403.29 1025.2 401.46C1020.44 399.63 1017.1 395.83 1011.99 399.74C1006.88 403.66 1010.18 411.35 1016.04 419.42C1021.9 427.48 1025.73 431.24 1030.05 427.16C1034.37 423.08 1044.99 417.59 1045.36 406.96C1045.73 396.32 1046.46 392.66 1035.83 397.06Z" fill="#52BEDA"></path> <path d="M1044.26 427.84C1044.26 427.84 1041.61 431.47 1035.83 432.6C1030.05 433.73 1023.22 428.35 1023.48 434.51C1023.74 440.66 1029.24 446.16 1037.67 445.8C1046.1 445.43 1051.96 447.27 1053.43 450.56C1054.9 453.86 1059.29 450.93 1057.46 441.03C1055.62 431.14 1051.96 426.38 1044.26 427.84Z" fill="#52BEDA"></path> <path d="M174.419 349.17C174.449 349.1 174.419 349.04 174.359 349.01C174.299 348.98 174.229 349.01 174.209 349.07C170.699 357.18 168.229 365.7 166.159 374.29C164.169 382.9 162.729 391.64 161.719 400.44L161.089 407.05C160.989 408.15 160.869 409.25 160.789 410.36L160.609 413.68C160.509 415.89 160.379 418.1 160.319 420.32L160.379 426.96L160.449 430.28C160.499 431.39 160.579 432.49 160.649 433.59C160.819 435.8 160.949 474.78 161.149 476.99C161.569 481.39 162.239 485.77 162.919 490.13C162.929 490.19 162.979 490.23 163.039 490.23C163.099 490.23 163.159 490.18 163.159 490.11V490.1C163.149 487.89 163.049 485.68 163.009 483.48C162.949 481.28 162.749 479.09 162.789 476.88C162.799 474.68 162.739 435.71 162.719 433.51L162.659 430.22L162.719 426.93L162.749 420.35L162.929 413.77L162.999 410.48C163.039 409.38 163.119 408.29 163.179 407.19L163.579 400.62C164.349 391.87 165.549 383.16 167.299 374.54C169.039 365.94 171.209 357.37 174.419 349.17Z" fill="#12284C"></path> <path d="M175.359 383.59C175.379 383.53 175.349 383.47 175.289 383.44C175.229 383.42 175.159 383.45 175.139 383.51C173.249 388.98 171.729 394.57 170.449 400.22C169.229 405.88 168.269 411.62 167.679 417.4C167.099 423.16 166.449 428.93 166.369 434.72C166.279 440.51 166.37 483.08 166.99 488.86C167 488.91 167.039 488.96 167.089 488.96C167.149 488.97 167.209 488.92 167.219 488.86C167.889 483.09 168.299 440.56 168.699 434.82C169.109 429.07 169.159 423.31 169.539 417.56C169.889 411.83 170.609 406.12 171.589 400.45C172.559 394.78 173.769 389.13 175.359 383.59Z" fill="#12284C"></path> <path d="M194.44 395.69C194.41 395.64 194.33 395.62 194.28 395.65C189.5 398.67 185.24 402.48 181.52 406.77C179.69 408.95 177.99 411.23 176.53 413.71L175.51 415.64L174.71 417.65C174.42 418.32 174.22 419 174.01 419.69C173.8 420.38 173.57 421.06 173.39 421.75C171.96 427.28 171.01 469.69 170.75 475.36C170.52 481.02 170.63 486.69 171.38 492.31C171.39 492.36 171.43 492.41 171.49 492.41C171.55 492.41 171.61 492.37 171.61 492.3L173.06 475.52C173.64 469.97 173.99 427.62 175.19 422.2C175.34 421.53 175.54 420.87 175.71 420.2C175.88 419.53 176.05 418.86 176.3 418.22L176.98 416.28L177.86 414.45C179.15 412.03 180.73 409.71 182.43 407.51C185.84 403.11 189.85 399.1 194.41 395.85H194.42C194.46 395.82 194.47 395.75 194.44 395.69Z" fill="#12284C"></path> <path d="M185.21 417.25C182.61 418.93 180.87 421.57 179.41 424.22C178.02 426.93 176.92 429.81 176.16 432.76C175.93 433.49 175.75 434.23 175.59 434.98L175.06 437.21C174.79 438.71 174.58 477 174.5 478.52C174.48 480.04 174.44 481.56 174.54 483.08C174.67 484.6 174.84 486.11 175.14 487.61C175.15 487.65 175.19 487.69 175.23 487.7C175.29 487.71 175.36 487.67 175.37 487.61C175.74 486.11 175.98 484.63 176.17 483.15C176.41 481.67 176.64 480.21 176.81 478.74C177.03 477.28 177.22 475.82 177.33 474.34C177.53 472.89 177.64 434.62 177.96 433.18C178.47 430.27 179.31 427.43 180.45 424.72C181.58 422.03 183.06 419.34 185.32 417.45L185.34 417.43C185.38 417.39 185.39 417.33 185.36 417.28C185.33 417.23 185.26 417.22 185.21 417.25Z" fill="#12284C"></path> <path d="M158.449 434.06C157.819 426.61 156.589 419.24 155.429 411.87C154.269 404.5 152.979 397.15 151.629 389.81C150.229 382.48 148.769 375.17 147.189 367.88C147.179 367.82 147.119 367.78 147.059 367.79C146.999 367.8 146.959 367.86 146.969 367.93C148.239 375.27 149.399 382.64 150.489 390.01C151.609 397.37 152.659 404.75 153.589 412.14C154.499 419.53 155.209 426.94 156.139 434.32L158.859 493.27C158.869 493.33 158.909 493.37 158.969 493.37C159.029 493.37 159.089 493.32 159.089 493.26C159.169 491.39 159.179 489.52 159.219 487.65C159.239 485.78 159.139 483.91 159.109 482.04C159.049 478.29 158.729 437.79 158.449 434.06Z" fill="#12284C"></path> <path d="M153.98 433.95C153.58 431 153.04 428.07 152.48 425.14L151.43 420.79C151.09 419.34 150.76 417.89 150.34 416.46C148.85 410.69 146.95 405.02 144.65 399.52L143.76 397.47L142.77 395.46C142.14 394.11 141.38 392.82 140.65 391.52C139.09 388.98 137.48 386.45 135.27 384.39C135.23 384.35 135.15 384.35 135.11 384.39C135.06 384.43 135.06 384.51 135.11 384.55L135.12 384.56C137.16 386.67 138.64 389.28 140.04 391.85C140.69 393.17 141.37 394.48 141.93 395.84L142.8 397.87L143.58 399.94C145.64 405.45 147.3 411.12 148.54 416.88C149.22 419.75 149.67 422.67 150.22 425.56L150.92 429.93C151.17 431.38 151.48 432.82 151.69 434.28C152.15 437.19 152.69 476.87 153.2 479.79C153.65 482.71 154.19 485.63 154.8 488.55C154.81 488.6 154.86 488.65 154.91 488.65C154.97 488.65 155.03 488.6 155.03 488.53C155.04 485.55 154.97 482.58 154.82 479.6C154.64 476.65 154.29 436.91 153.98 433.95Z" fill="#12284C"></path> <path d="M147.82 434.33C146.44 430.42 144.84 426.6 143.1 422.85C141.31 419.12 139.39 415.46 137.17 411.97C137.14 411.92 137.07 411.9 137.01 411.93C136.95 411.96 136.94 412.03 136.97 412.09C138.91 415.71 140.55 419.49 142.03 423.31C143.54 427.12 144.9 430.99 146.05 434.91C147.21 438.83 148.05 479.61 149.09 483.55C150.19 487.49 151.08 491.47 152.29 495.45C152.3 495.5 152.35 495.54 152.4 495.54C152.46 495.54 152.52 495.49 152.52 495.42C152.58 491.26 152.17 487.1 151.36 483.03C150.63 478.94 149.19 438.24 147.82 434.33Z" fill="#12284C"></path> <path d="M147.559 484.13C146.849 481.68 145.649 479.4 144.279 477.25C142.939 475.09 141.379 436.27 139.509 434.54C138.549 433.71 137.559 432.9 136.469 432.25C135.399 431.58 134.259 431.01 133.029 430.69C132.979 430.68 132.919 430.7 132.899 430.76C132.869 430.82 132.899 430.89 132.959 430.91L132.969 430.92C135.199 431.91 137.089 433.56 138.679 435.36C140.299 437.16 141.579 476.01 142.659 478.16C143.789 480.3 144.369 482.66 145.359 484.87C145.789 486 146.219 487.14 146.729 488.27C147.159 489.42 147.629 490.57 148.229 491.71V491.72C148.249 491.76 148.289 491.78 148.329 491.78C148.399 491.78 148.449 491.73 148.449 491.67C148.499 490.4 148.429 489.13 148.309 487.86C148.119 486.61 147.859 485.36 147.559 484.13Z" fill="#12284C"></path> <path d="M148.02 378.54C148.02 378.54 135.81 375.72 133 362.58C130.18 349.44 139.26 355.07 131.12 334.41C122.98 313.75 124.86 309.06 127.68 303.11C130.5 297.16 132.06 299.04 134.57 306.87C137.07 314.69 146.15 326.9 149.59 349.75C153.03 372.6 148.02 378.54 148.02 378.54Z" fill="#52BEDA"></path> <path d="M172.119 356.32C172.119 356.32 163.979 353.5 163.669 338.17C163.359 322.83 169.619 325.96 170.559 306.87C171.499 287.78 172.749 274.32 176.189 274.01C179.629 273.7 188.709 283.4 191.839 304.68C194.969 325.96 187.769 340.04 181.509 346.3C175.249 352.57 172.119 356.32 172.119 356.32Z" fill="#52BEDA"></path> <path d="M143.639 397.01C143.639 397.01 141.759 385.74 138.009 380.42C134.249 375.1 126.119 370.4 120.799 360.08C115.479 349.75 109.529 344.74 109.849 359.45C110.159 374.16 116.739 381.67 124.869 386.68C132.999 391.69 143.639 397.01 143.639 397.01Z" fill="#52BEDA"></path> <path d="M140.2 416.41C140.2 416.41 132.69 402.01 121.73 391.37C110.78 380.73 102.01 375.41 105.14 380.73C108.27 386.05 112.03 385.74 117.35 395.13C122.67 404.52 121.11 411.4 128.62 416.72C136.13 422.05 140.2 416.41 140.2 416.41Z" fill="#52BEDA"></path> <path d="M139.26 434.88C138.95 433.94 138.63 427.06 127.99 421.42C117.35 415.79 107.33 417.98 108.59 420.79C109.84 423.61 116.41 428.3 122.99 431.12C129.56 433.94 139.26 434.88 139.26 434.88Z" fill="#52BEDA"></path> <path d="M171.5 397.64C171.5 397.64 166.81 391.69 169.31 379.18C171.81 366.66 177.45 369.79 183.71 363.22C189.97 356.65 188.72 355.71 194.98 348.82C201.24 341.93 206.87 338.18 209.38 341C211.88 343.82 208.13 352.58 204.37 357.59C200.61 362.6 194.67 365.1 191.85 371.36C189.03 377.62 190.29 387.63 183.09 392.33C175.88 397.01 171.5 397.64 171.5 397.64Z" fill="#52BEDA"></path> <path d="M187.14 401.08C187.14 401.08 198.41 388.25 206.54 378.86C214.68 369.47 217.81 362.27 218.12 368.53C218.43 374.79 220.94 379.8 214.36 387.93C207.8 396.07 187.14 401.08 187.14 401.08Z" fill="#52BEDA"></path> <path d="M181.2 421.73C181.2 421.73 180.89 416.72 198.73 405.14C216.57 393.56 224.08 391.37 222.2 396.06C220.32 400.75 212.5 405.45 204.05 413.9C195.59 422.36 181.2 421.73 181.2 421.73Z" fill="#52BEDA"></path> <path d="M148.77 377.21C148.77 377.21 144.58 354.76 140.2 338.8C135.82 322.84 133 313.14 133 313.14" stroke="#ABABAB" stroke-width="1.1827" stroke-miterlimit="10" stroke-linecap="round" stroke-linejoin="round"></path> <path d="M171.399 356.56C171.399 356.56 179.009 332.23 181.509 317.52C184.009 302.81 181.199 291.86 179.949 285.28" stroke="#ABABAB" stroke-width="1.1827" stroke-miterlimit="10" stroke-linecap="round" stroke-linejoin="round"></path> <path d="M142.649 396.54C142.649 396.54 137.999 388.25 131.119 380.11C124.229 371.97 118.909 367.59 115.779 359.77" stroke="#ABABAB" stroke-width="1.1827" stroke-miterlimit="10" stroke-linecap="round" stroke-linejoin="round"></path> <path d="M171.5 397.64C171.5 397.64 174 382.62 179.95 374.79C185.9 366.97 197.79 354.76 202.48 346.94" stroke="#ABABAB" stroke-width="1.1827" stroke-miterlimit="10" stroke-linecap="round" stroke-linejoin="round"></path> <path d="M138.519 434.54C138.519 434.54 127.989 427.68 120.479 423.93" stroke="#ABABAB" stroke-width="1.1827" stroke-miterlimit="10" stroke-linecap="round" stroke-linejoin="round"></path> <path d="M164.19 402.66C164.19 402.66 155.71 404.89 151.25 400.88C146.79 396.87 140.1 395.97 138.76 401.77C137.42 407.57 139.21 413.37 143.22 421.84C147.23 430.32 153.37 424.42 153.48 420.95C153.59 417.48 157.76 414.74 162.98 415.84C168.2 416.94 177.12 404.45 164.19 402.66Z" fill="#52BEDA"></path> <path d="M178.91 425.41C178.91 425.41 182.77 430.31 172.59 427.41C162.41 424.51 158.03 422.14 157.09 428.23C156.16 434.32 164.19 435.66 169.54 437C174.89 438.34 179.35 447.71 182.92 453.5C186.49 459.3 193.63 452.61 189.61 438.78C185.6 424.97 186.32 418.96 178.91 425.41Z" fill="#52BEDA"></path> <path opacity="0.3" d="M795.55 267.51H340.82V291.35H795.55V267.51Z" stroke="#12284C" stroke-width="1.1827" stroke-miterlimit="10" stroke-linejoin="round"></path> <g opacity="0.5"> <path d="M733.23 134.76H681.71V146.55H733.23V134.76Z" stroke="#12284C" stroke-width="1.1827" stroke-miterlimit="10" stroke-linejoin="round"></path> <path d="M733.23 155.99H681.71V167.78H733.23V155.99Z" stroke="#12284C" stroke-width="1.1827" stroke-miterlimit="10" stroke-linejoin="round"></path> <path d="M733.23 177.21H681.71V189H733.23V177.21Z" stroke="#12284C" stroke-width="1.1827" stroke-miterlimit="10" stroke-linejoin="round"></path> <path d="M733.23 198.44H681.71V210.23H733.23V198.44Z" stroke="#12284C" stroke-width="1.1827" stroke-miterlimit="10" stroke-linejoin="round"></path> <path d="M733.23 219.66H681.71V231.45H733.23V219.66Z" stroke="#12284C" stroke-width="1.1827" stroke-miterlimit="10" stroke-linejoin="round"></path> </g> <g opacity="0.5"> <path d="M411.86 150.09H385V178.98H411.86V150.09Z" stroke="#12284C" stroke-width="1.1827" stroke-miterlimit="10" stroke-linejoin="round"></path> <path d="M430.39 204.33H366.46V220.31H430.39V204.33Z" stroke="#12284C" stroke-width="1.1827" stroke-miterlimit="10" stroke-linejoin="round"></path> <path d="M455.71 150.09H428.85V178.98H455.71V150.09Z" stroke="#12284C" stroke-width="1.1827" stroke-miterlimit="10" stroke-linejoin="round"></path> <path d="M523.39 150.09H496.53V178.98H523.39V150.09Z" stroke="#12284C" stroke-width="1.1827" stroke-miterlimit="10" stroke-linejoin="round"></path> <path d="M428.85 109.41V134.76" stroke="#12284C" stroke-width="1.1827" stroke-miterlimit="10" stroke-linejoin="round"></path> <path d="M707.47 109.41V134.76" stroke="#12284C" stroke-width="1.1827" stroke-miterlimit="10" stroke-linejoin="round"></path> <path d="M398.43 178.98V204.33" stroke="#12284C" stroke-width="1.1827" stroke-miterlimit="10" stroke-linejoin="round"></path> <path d="M398.15 149.5V134.18H509.96V149.5" stroke="#12284C" stroke-width="1.331" stroke-miterlimit="10" stroke-linejoin="round"></path> <path d="M442.55 150.09V134.76" stroke="#12284C" stroke-width="1.1827" stroke-miterlimit="10" stroke-linejoin="round"></path> </g> <path d="M509.33 426.32C509.33 426.32 507.74 436.13 507.47 436.93C507.2 437.73 502.96 446.74 502.43 449.13C501.9 451.52 505.35 452.84 507.47 452.84C509.59 452.84 521.26 453.64 522.59 452.57C523.92 451.51 525.24 448.06 524.98 445.41C524.71 442.76 522.86 426.58 522.86 426.58L509.33 426.32Z" fill="white" stroke="#12284C" stroke-width="1.1827" stroke-miterlimit="10" stroke-linejoin="round"></path> <path d="M579.08 427.91C579.08 427.91 582.26 432.95 583.85 434.27C585.44 435.6 594.99 445.41 598.17 446.47C601.35 447.53 600.82 449.92 598.97 451.77C597.11 453.63 587.04 453.1 581.73 452.57C576.43 452.04 570.33 452.54 569.54 452.27C568.74 452 563.71 452 561.32 450.68C558.93 449.35 559.99 439.54 559.99 439.54L579.08 427.91Z" fill="white" stroke="#12284C" stroke-width="1.1827" stroke-miterlimit="10" stroke-linejoin="round"></path> <path d="M522.59 253.83C522.59 253.83 516.49 278.23 517.02 294.94C517.55 311.65 513.84 354.61 513.84 355.94C513.84 357.27 510.92 364.96 510.92 372.12C510.92 379.28 510.12 419.69 510.12 419.69C510.12 419.69 506.94 420.22 507.47 423.14C508 426.06 508.53 430.3 508.53 430.3C508.53 430.3 513.3 430.57 517.02 431.1C520.73 431.63 523.92 430.83 523.92 430.83C523.92 430.83 526.31 424.2 526.57 420.75C526.84 417.3 526.04 416.14 526.04 412.16C526.04 408.18 548.85 293.88 548.85 293.88L557.34 361.24C557.34 361.24 557.88 395.42 559.47 404.97C561.06 414.52 561.06 421.52 561.06 421.52C561.06 421.52 560.26 428.68 560 429.48C559.73 430.28 558.67 430.81 559.2 432.93C559.73 435.05 560 439.56 560 439.56C560 439.56 564.5 436.68 569.81 434.82C575.11 432.96 581.21 430.05 581.21 430.05C581.21 430.05 580.15 425.81 580.15 424.48C580.15 423.15 578.82 422.62 578.82 421.56C578.82 420.5 580.94 372.92 581.74 356.21C582.54 339.5 582.54 281.42 582.54 281.42L576.18 253.84L574.85 248.54L523.66 248.27L522.59 253.83Z" fill="#12284C"></path> <path d="M529.21 253.6C529.21 253.6 543.49 257.93 553.44 257.06C563.39 256.19 567.72 254.25 567.72 254.25L570.32 219.42L572.27 172.04L572.49 164.25C572.49 164.25 559.29 160.36 555.4 159.92C551.51 159.49 539.83 158.86 539.83 158.86L526.84 165.97L529.21 253.6Z" fill="white" stroke="#12284C" stroke-width="1.1827" stroke-miterlimit="10" stroke-linejoin="round"></path> <path d="M538.699 147.01L539.819 158.86C539.819 158.86 540.619 161.74 542.219 163.83C543.819 165.91 549.429 169.92 549.429 169.92L552.149 178.89L554.869 169.6C554.869 169.6 558.069 168.32 559.839 165.27C561.599 162.23 562.399 157.42 562.399 157.42L563.039 151.65C563.039 151.65 556.469 154.05 551.509 152.77C546.549 151.5 538.699 147.01 538.699 147.01Z" fill="white" stroke="#12284C" stroke-width="1.1827" stroke-miterlimit="10" stroke-linejoin="round"></path> <path d="M549.429 169.92L544.349 181.34L541.319 174.2" stroke="#12284C" stroke-width="1.1827" stroke-miterlimit="10" stroke-linejoin="round"></path> <path d="M554.879 169.6L558.849 179.83L561.659 175.5" stroke="#12284C" stroke-width="1.1827" stroke-miterlimit="10" stroke-linejoin="round"></path> <path d="M533.95 133.46C533.95 133.46 530.91 130.57 530 134.98C529.09 139.39 532.74 143.04 533.8 143.65C534.86 144.26 536.69 144.56 536.69 144.56C536.69 144.56 538.36 149.73 542.16 152.92C545.96 156.11 552.04 159.46 559.64 156.26C567.24 153.07 566.63 143.64 566.18 136.34C565.72 129.04 564.05 115.97 561.62 111.1C559.19 106.24 549.61 104.87 542.01 106.54C534.41 108.21 530.61 116.42 530.3 120.98C529.99 125.55 533.95 133.46 533.95 133.46Z" fill="white" stroke="#12284C" stroke-width="1.1827" stroke-miterlimit="10" stroke-linejoin="round"></path> <path d="M533.95 133.46C533.95 133.46 533.03 132.59 532.05 132.54L533.95 133.46Z" fill="white" stroke="#12284C" stroke-width="1.1827" stroke-miterlimit="10" stroke-linejoin="round"></path> <path d="M554.169 124.79C554.169 124.79 554.779 135.74 556.299 138.02C557.819 140.3 557.669 141.21 555.239 140.76C552.809 140.31 550.529 137.72 550.529 136.2" fill="white"></path> <path d="M554.169 124.79C554.169 124.79 554.779 135.74 556.299 138.02C557.819 140.3 557.669 141.21 555.239 140.76C552.809 140.31 550.529 137.72 550.529 136.2" stroke="#12284C" stroke-width="1.1827" stroke-miterlimit="10" stroke-linejoin="round"></path> <path d="M547.01 130.27C547.19 131.44 546.85 132.46 546.25 132.55C545.65 132.64 545.02 131.77 544.84 130.6C544.66 129.43 545 128.41 545.6 128.32C546.2 128.23 546.83 129.1 547.01 130.27Z" fill="#12284C"></path> <path d="M560.27 129.34C560.45 130.51 560.11 131.53 559.51 131.62C558.91 131.71 558.28 130.84 558.1 129.67C557.92 128.5 558.26 127.48 558.86 127.39C559.46 127.3 560.09 128.17 560.27 129.34Z" fill="#12284C"></path> <path d="M542.31 125.56C542.31 125.56 543.95 123.92 547.9 123.81" stroke="#12284C" stroke-width="1.1827" stroke-miterlimit="10" stroke-linecap="round" stroke-linejoin="round"></path> <path d="M556.229 123.26C556.229 123.26 558.31 120.96 562.15 123.92" stroke="#12284C" stroke-width="1.1827" stroke-miterlimit="10" stroke-linecap="round" stroke-linejoin="round"></path> <path d="M565.55 128.52C565.55 128.52 567.74 127.42 568.07 131.04C568.4 134.66 566.54 137.62 566.54 137.62L565.55 128.52Z" fill="white" stroke="#12284C" stroke-width="1.1827" stroke-miterlimit="10" stroke-linejoin="round"></path> <path d="M494.81 189.63C494.81 189.63 492.25 182.1 492.41 181.46C492.57 180.82 491.93 176.65 490.97 175.05C490.01 173.45 490.17 173.93 488.73 171.53C487.29 169.13 485.21 166.08 484.73 164.8C484.25 163.52 482.65 166.72 483.61 168.64C484.57 170.56 486.81 173.93 486.81 173.93C486.81 173.93 486.01 174.09 485.21 173.61C484.41 173.13 483.61 172.81 483.61 172.81L480.89 171.37C480.89 171.37 476.72 167.69 476.08 167.37C475.44 167.05 472.72 158.88 471.27 159.84C469.82 160.8 471.43 162.88 471.59 164.49C471.75 166.09 473.35 172.66 473.67 173.46C473.99 174.26 477.51 178.91 479.44 181.47C481.36 184.03 485.53 186.92 485.53 186.92L488.41 196.69L494.81 189.63Z" fill="white" stroke="#12284C" stroke-width="1.1827" stroke-miterlimit="10" stroke-linejoin="round"></path> <path d="M479.6 179.62C479.6 179.62 479.7 177.25 479.91 175.91C480.12 174.57 483.41 166.22 484.03 167.35C484.65 168.48 484.65 170.65 484.24 171.47C483.83 172.29 482.59 175.28 482.59 175.28L483.72 179.82C483.72 179.82 486.71 180.13 488.05 181.37C489.39 182.61 490.21 185.39 490.21 185.39" fill="white"></path> <path d="M479.6 179.62C479.6 179.62 479.7 177.25 479.91 175.91C480.12 174.57 483.41 166.22 484.03 167.35C484.65 168.48 484.65 170.65 484.24 171.47C483.83 172.29 482.59 175.28 482.59 175.28L483.72 179.82C483.72 179.82 486.71 180.13 488.05 181.37C489.39 182.61 490.21 185.39 490.21 185.39" stroke="#12284C" stroke-width="1.1827" stroke-miterlimit="10" stroke-linejoin="round"></path> <path d="M478.05 177.97C478.05 177.97 476.81 175.19 477.02 173.85C477.23 172.51 479.29 164.26 479.29 164.26C479.29 164.26 480.73 163.54 480.84 165.08C480.94 166.63 480.02 171.06 479.81 171.68C479.6 172.3 479.91 175.91 479.91 175.91" fill="white"></path> <path d="M478.05 177.97C478.05 177.97 476.81 175.19 477.02 173.85C477.23 172.51 479.29 164.26 479.29 164.26C479.29 164.26 480.73 163.54 480.84 165.08C480.94 166.63 480.02 171.06 479.81 171.68C479.6 172.3 479.91 175.91 479.91 175.91" stroke="#12284C" stroke-width="1.1827" stroke-miterlimit="10" stroke-linejoin="round"></path> <path d="M476.92 174.67C476.92 174.67 474.76 171.89 474.76 170.44C474.76 169 475.28 161.47 475.58 160.54C475.89 159.61 476.71 159.82 477.02 162.19C477.33 164.56 476.71 168.89 476.71 168.89L477.53 171.36" fill="white"></path> <path d="M476.92 174.67C476.92 174.67 474.76 171.89 474.76 170.44C474.76 169 475.28 161.47 475.58 160.54C475.89 159.61 476.71 159.82 477.02 162.19C477.33 164.56 476.71 168.89 476.71 168.89L477.53 171.36" stroke="#12284C" stroke-width="1.1827" stroke-miterlimit="10" stroke-linejoin="round"></path> <path d="M539.18 157.43L539.98 187.55C539.98 187.55 542.7 225.36 543.34 230.64C543.98 235.93 536.13 291.35 536.13 291.35C536.13 291.35 527.16 290.07 517.87 287.99C508.58 285.91 504.89 283.82 504.89 283.82L518.83 228.55C518.83 228.55 504.73 243.93 503.77 244.25C502.81 244.57 502.01 244.25 500.73 242.33C499.45 240.41 483.91 197.32 483.91 197.32L494.8 189.63L505.53 207.09C505.53 207.09 511.94 171.69 512.58 170.41C513.23 169.12 539.18 157.43 539.18 157.43Z" fill="#52BEDA"></path> <path d="M533.41 160.95C533.41 160.95 529.89 182.74 532.29 194.11C534.69 205.48 541.42 226.79 541.42 226.79" stroke="#12284C" stroke-width="1.1827" stroke-miterlimit="10" stroke-linejoin="round"></path> <path d="M518.84 228.55L519.96 222.95L515.95 182.9" stroke="#12284C" stroke-width="1.1827" stroke-miterlimit="10" stroke-linejoin="round"></path> <path d="M505.54 207.09L508.58 216.54" stroke="#12284C" stroke-width="1.1827" stroke-miterlimit="10" stroke-linejoin="round"></path> <path d="M621.16 192.84C621.16 192.84 625.8 186.38 625.83 185.72C625.86 185.06 627.69 181.26 629.07 180.01C630.45 178.76 630.16 179.17 632.24 177.29C634.32 175.41 637.19 173.1 638.03 172.01C638.87 170.92 639.46 174.45 637.99 176.01C636.51 177.57 633.39 180.14 633.39 180.14C633.39 180.14 634.11 180.53 635.02 180.3C635.93 180.07 636.79 180 636.79 180L639.81 179.41C639.81 179.41 644.87 177.09 645.57 176.97C646.28 176.85 651.25 169.82 652.35 171.16C653.45 172.5 651.31 174.03 650.69 175.51C650.07 177 646.63 182.82 646.09 183.49C645.55 184.16 640.83 187.59 638.25 189.48C635.67 191.37 630.84 192.92 630.84 192.92L625.24 201.43L621.16 192.84Z" fill="white" stroke="#12284C" stroke-width="1.1827" stroke-miterlimit="10" stroke-linejoin="round"></path> <path d="M638.61 187.68C638.61 187.68 639.2 185.38 639.39 184.04C639.58 182.7 638.85 173.75 637.93 174.66C637.01 175.57 636.38 177.64 636.54 178.55C636.7 179.46 637.01 182.68 637.01 182.68L634.61 186.69C634.61 186.69 631.66 186.12 630.02 186.91C628.38 187.7 626.78 190.13 626.78 190.13" fill="white"></path> <path d="M638.61 187.68C638.61 187.68 639.2 185.38 639.39 184.04C639.58 182.7 638.85 173.75 637.93 174.66C637.01 175.57 636.38 177.64 636.54 178.55C636.7 179.46 637.01 182.68 637.01 182.68L634.61 186.69C634.61 186.69 631.66 186.12 630.02 186.91C628.38 187.7 626.78 190.13 626.78 190.13" stroke="#12284C" stroke-width="1.1827" stroke-miterlimit="10" stroke-linejoin="round"></path> <path d="M640.57 186.55C640.57 186.55 642.56 184.25 642.75 182.9C642.94 181.56 643.36 173.07 643.36 173.07C643.36 173.07 642.19 171.96 641.64 173.41C641.09 174.86 640.69 179.37 640.71 180.02C640.73 180.67 639.38 184.03 639.38 184.03" fill="white"></path> <path d="M640.57 186.55C640.57 186.55 642.56 184.25 642.75 182.9C642.94 181.56 643.36 173.07 643.36 173.07C643.36 173.07 642.19 171.96 641.64 173.41C641.09 174.86 640.69 179.37 640.71 180.02C640.73 180.67 639.38 184.03 639.38 184.03" stroke="#12284C" stroke-width="1.1827" stroke-miterlimit="10" stroke-linejoin="round"></path> <path d="M642.61 183.73C642.61 183.73 645.49 181.7 645.91 180.31C646.33 178.93 648.02 171.58 647.99 170.6C647.96 169.62 647.11 169.58 646.13 171.76C645.15 173.94 644.48 178.26 644.48 178.26L642.97 180.39" fill="white"></path> <path d="M642.61 183.73C642.61 183.73 645.49 181.7 645.91 180.31C646.33 178.93 648.02 171.58 647.99 170.6C647.96 169.62 647.11 169.58 646.13 171.76C645.15 173.94 644.48 178.26 644.48 178.26L642.97 180.39" stroke="#12284C" stroke-width="1.1827" stroke-miterlimit="10" stroke-linejoin="round"></path> <path d="M562.41 157.43C562.41 157.43 563.18 173.34 562.09 185.67C561.01 198 556.68 229.37 557.11 230.24C557.54 231.11 563.6 290.6 563.6 290.6C563.6 290.6 575.93 291.03 582.86 289.52C589.78 288.01 595.19 285.63 595.19 285.63C595.19 285.63 579.4 227.43 579.18 226.57C578.96 225.7 581.56 218.13 581.56 218.13C581.56 218.13 596.92 235.65 599.52 235.22C602.12 234.79 629.16 199.09 629.16 199.09L620.72 190L601.9 206.23C601.9 206.23 589.78 176.37 588.49 173.78C587.19 171.18 584.16 168.16 583.51 167.51C582.86 166.85 562.41 157.43 562.41 157.43Z" fill="#52BEDA"></path> <path d="M567.72 161.87C567.72 161.87 570.1 172.9 568.59 186.75C567.08 200.6 558.64 227.64 558.64 227.64" stroke="#12284C" stroke-width="1.1827" stroke-miterlimit="10" stroke-linejoin="round"></path> <path d="M581.57 218.12L586.54 187.18" stroke="#12284C" stroke-width="1.1827" stroke-miterlimit="10" stroke-linejoin="round"></path> <path d="M601.9 206.22L601.69 214.88" stroke="#12284C" stroke-width="1.1827" stroke-miterlimit="10" stroke-linejoin="round"></path> <path d="M534.049 133.89C534.049 133.89 536.009 137.15 538.119 136.2C539.419 135.61 538.7 132.35 538.02 130.44C537.11 127.86 536.76 128.27 539.27 122.41C540.37 119.83 537.61 112.93 539.89 114.45C542.17 115.97 547.389 118.36 554.499 118.86C564.979 119.6 562.039 119.49 563.859 119.94C564.859 120.19 563.769 123.76 564.929 124.68C564.589 123.57 567.479 117.28 567.259 111.62C566.879 101.97 550.589 100.24 542.979 101.88C528.649 104.97 527.83 115.12 527.52 119.68C527.22 124.24 533.949 133.45 533.949 133.45L534.049 133.89Z" fill="#12284C"></path> <path d="M547.07 143.82C547.07 143.82 546.25 147.82 552.18 147.35C555.6 147.08 555.76 144.76 555.76 144.76L547.07 143.82Z" fill="white" stroke="#12284C" stroke-width="1.1827" stroke-miterlimit="10" stroke-linejoin="round"></path> <path d="M851.56 285.63C851.28 287.69 850.16 293.07 848.33 295.3C846.2 297.9 836.76 302.86 824.48 300.26C815.64 298.39 811.95 292.74 810.58 289.72C811.59 286.56 812.88 283.52 814.09 281.61C816.92 277.12 827.31 274.76 827.31 274.76C836.05 272.87 838.88 274.53 847.15 280.9C849.17 282.46 850.59 284.05 851.56 285.63Z" fill="#12284C"></path> <path d="M853.49 295.95V296.06C853.45 296.47 853.41 296.86 853.38 297.24C853.34 297.64 853.31 298.01 853.29 298.37C853.05 302.62 850.45 312.07 849.51 315.37C848.56 318.68 838.88 325.53 833.69 325.53C828.49 325.53 821.41 321.51 817.87 318.68C814.33 315.85 809.84 304.75 808.9 300.74C808.87 300.62 808.85 300.49 808.83 300.36C808.69 299.48 808.71 298.36 808.86 297.08C808.87 297.06 808.87 297.04 808.87 297.02C808.92 296.66 808.97 296.28 809.03 295.9C809.13 295.32 809.24 294.72 809.38 294.11C809.42 293.91 809.47 293.7 809.52 293.5C809.62 293.08 809.72 292.67 809.83 292.25C809.92 291.92 810.01 291.58 810.11 291.25C810.26 290.74 810.42 290.23 810.58 289.72C811.95 292.74 815.64 298.39 824.48 300.26C836.76 302.86 846.2 297.9 848.33 295.3C850.16 293.07 851.28 287.69 851.56 285.63C851.57 285.65 851.58 285.67 851.6 285.69C851.69 285.84 851.78 285.98 851.86 286.13C851.95 286.3 852.04 286.47 852.13 286.63C852.21 286.8 852.29 286.96 852.37 287.13C852.45 287.3 852.52 287.46 852.59 287.63C852.66 287.79 852.72 287.96 852.78 288.12C852.84 288.28 852.9 288.45 852.95 288.61C853 288.77 853.05 288.94 853.1 289.1C853.14 289.26 853.18 289.42 853.22 289.58C853.22 289.59 853.22 289.6 853.23 289.6C853.26 289.76 853.3 289.91 853.33 290.06C853.36 290.22 853.39 290.38 853.42 290.54C853.75 292.49 853.64 294.33 853.49 295.95Z" fill="white" stroke="#12284C" stroke-width="1.1827" stroke-miterlimit="10" stroke-linejoin="round"></path> <path d="M853.49 295.95V296.06C853.45 296.47 853.41 296.86 853.38 297.24C853.34 297.64 853.31 298.01 853.29 298.37C853.05 302.62 850.45 312.07 849.51 315.37C848.56 318.68 838.88 325.53 833.69 325.53C828.49 325.53 821.41 321.51 817.87 318.68C814.33 315.85 809.84 304.75 808.9 300.74C808.87 300.62 808.85 300.49 808.83 300.36C808.69 299.48 808.71 298.36 808.86 297.08C808.87 297.06 808.87 297.04 808.87 297.02C808.92 296.66 808.97 296.28 809.03 295.9C809.13 295.32 809.24 294.72 809.38 294.11C809.42 293.91 809.47 293.7 809.52 293.5C809.62 293.08 809.72 292.67 809.83 292.25C809.92 291.92 810.01 291.58 810.11 291.25C810.26 290.74 810.42 290.23 810.58 289.72C811.95 292.74 815.64 298.39 824.48 300.26C836.76 302.86 846.2 297.9 848.33 295.3C850.16 293.07 851.28 287.69 851.56 285.63C851.57 285.65 851.58 285.67 851.6 285.69C851.69 285.84 851.78 285.98 851.86 286.13C851.95 286.3 852.04 286.47 852.13 286.63C852.21 286.8 852.29 286.96 852.37 287.13C852.45 287.3 852.52 287.46 852.59 287.63C852.66 287.79 852.72 287.96 852.78 288.12C852.84 288.28 852.9 288.45 852.95 288.61C853 288.77 853.05 288.94 853.1 289.1C853.14 289.26 853.18 289.42 853.22 289.58C853.22 289.59 853.22 289.6 853.23 289.6C853.26 289.76 853.3 289.91 853.33 290.06C853.36 290.22 853.39 290.38 853.42 290.54C853.74 292.49 853.64 294.33 853.49 295.95Z" fill="white" stroke="#12284C" stroke-width="1.1827" stroke-miterlimit="10" stroke-linejoin="round"></path> <path d="M808.9 300.74C808.9 300.74 805.83 299.56 805.36 302.63C804.89 305.7 806.78 312.07 809.37 313.49C811.97 314.91 814.33 313.49 814.33 313.49L808.9 300.74Z" fill="white" stroke="#12284C" stroke-width="1.1827" stroke-miterlimit="10" stroke-linejoin="round"></path> <path d="M853.29 300.27C853.29 300.27 858.01 296.49 857.54 302.39C857.07 308.29 850.69 312.78 850.69 312.78L853.29 300.27Z" fill="white" stroke="#12284C" stroke-width="1.1827" stroke-miterlimit="10" stroke-linejoin="round"></path> <path d="M846.75 310.75C846.75 310.75 851.68 301.27 853.29 298.37C854.91 295.47 855.62 294.36 854.83 288.57C854.04 282.79 852.61 277.88 849.13 275.5C845.64 273.12 843.8 273.04 840.97 274.02C838.14 275 838.44 276.21 838.44 276.21" fill="#12284C"></path> <path d="M841.76 276.46C841.68 276.14 842.87 272.74 838.87 271.63C834.87 270.52 825.6 268.22 822.04 269.97C818.48 271.71 812.04 275.83 810.59 278.13C809.13 280.43 808.02 282.49 807.15 287.95C806.28 293.41 808.04 298.28 808.84 300.37C809.64 302.46 809.66 302.89 814.34 309.26C819.79 316.68 823.46 318.24 831.08 318.34C837.96 318.44 852.07 316.48 853.39 297.25" fill="#12284C"></path> <path d="M856.589 333.08C856.589 333.08 849.979 322.69 849.269 321.98C848.559 321.27 837.939 319.62 831.329 319.62C824.719 319.62 813.859 322.45 813.859 322.45L808.189 334.26C808.189 334.26 834.639 327.42 856.589 333.08Z" fill="#12284C"></path> <path d="M775.609 404.39C775.609 404.39 773.719 414.07 774.899 416.67C776.079 419.27 780.569 421.86 782.929 421.86C785.289 421.86 790.249 420.68 790.249 420.68L791.189 406.99L775.609 404.39Z" stroke="#12284C" stroke-width="1.1827" stroke-miterlimit="10" stroke-linejoin="round"></path> <path d="M886.58 397.07C886.58 397.07 887.52 408.4 886.82 410.29C886.11 412.18 882.1 415.72 879.26 416.43C876.43 417.14 872.41 417.61 871.7 417.37C870.99 417.13 868.63 400.37 868.63 400.37L886.58 397.07Z" stroke="#12284C" stroke-width="1.1827" stroke-miterlimit="10" stroke-linejoin="round"></path> <path d="M786.23 429.89C786.23 429.89 785.05 438.15 785.52 441.93C785.99 445.71 786.7 450.43 798.51 454.92C810.32 459.41 822.12 462.48 831.56 461.77C841 461.06 858.48 456.81 862.25 454.92C866.03 453.03 869.17 449.45 871.73 446.99C874.29 444.53 875 435.56 874.53 432.02C874.06 428.48 873.11 426.12 873.11 426.12C873.11 426.12 833.46 436.5 786.23 429.89Z" fill="#52BEDA"></path> <path d="M808.19 334.26C808.19 334.26 796.86 344.65 791.66 348.66C786.47 352.67 781.27 357.63 781.27 359.05C781.27 360.47 767.34 403.2 767.34 403.2C767.34 403.2 772.77 410.05 784.58 411.23H787.89C787.89 411.23 786.24 428.23 786.24 429.88C786.24 431.53 808.43 439.32 834.41 437.2C860.38 435.08 872.66 428.46 873.13 426.1C873.6 423.74 872.66 419.02 872.66 415.48C872.66 411.94 871.95 405.09 871.95 405.09C871.95 405.09 878.56 405.8 883.52 403.91C888.48 402.02 895.8 395.41 895.8 395.41C895.8 395.41 881.63 364.95 879.51 358.11C877.39 351.26 856.61 333.08 856.61 333.08C856.61 333.08 837.23 326.95 808.19 334.26Z" fill="#12284C"></path> <path d="M787.03 373.03L788.89 427.13C788.89 427.13 831.32 436.68 870.84 427.13L874.02 373.82C874.02 373.82 802.67 376.48 787.03 373.03Z" fill="#B2B2B2" stroke="#12284C" stroke-width="1.1827" stroke-miterlimit="10" stroke-linejoin="round"></path> <path d="M788.88 427.13L781.46 541.12" stroke="#12284C" stroke-width="3.5481" stroke-miterlimit="10" stroke-linecap="round" stroke-linejoin="round"></path> <path d="M870.61 427.13L878.03 541.12" stroke="#12284C" stroke-width="3.5481" stroke-miterlimit="10" stroke-linecap="round" stroke-linejoin="round"></path> <path d="M660.28 331.01C660.28 331.01 646.05 337.01 645.83 339.68C645.61 342.35 636.49 377.25 635.83 381.25C635.16 385.25 631.38 394.81 634.27 398.81C637.16 402.81 642.27 405.48 645.61 405.7C648.94 405.92 650.28 403.92 650.28 403.92L647.39 423.48C647.39 423.48 642.94 437.26 644.06 442.82C645.17 448.38 648.95 453.94 670.07 458.6C691.19 463.27 703.42 460.82 711.2 457.27C718.98 453.71 728.32 449.27 729.21 443.71C730.1 438.15 726.54 420.59 726.54 420.59L724.76 401.69C724.76 401.69 735.43 401.47 739.43 396.35C743.43 391.24 742.1 386.12 740.54 381.68C738.98 377.23 734.32 361 732.76 355.22C731.2 349.44 730.09 339.44 728.31 336.99C726.53 334.54 708.52 330.54 708.52 330.54C708.52 330.54 685.4 321.89 660.28 331.01Z" fill="white" stroke="#12284C" stroke-width="1.1827" stroke-miterlimit="10" stroke-linejoin="round"></path> <path d="M652.05 359.91L656.94 382.81" stroke="#12284C" stroke-width="1.1827" stroke-miterlimit="10" stroke-linejoin="round"></path> <path d="M725.64 361.47L722.3 381.7" stroke="#12284C" stroke-width="1.1827" stroke-miterlimit="10" stroke-linejoin="round"></path> <path d="M729.19 443.72C729.93 439.12 727.62 426.33 726.8 422.03C700.32 429.45 662.86 424.58 647.59 422.06L647.38 423.49C647.38 423.49 642.93 437.27 644.05 442.83C645.16 448.39 648.94 453.95 670.06 458.61C691.18 463.28 703.41 460.83 711.19 457.28C718.97 453.72 728.3 449.28 729.19 443.72Z" fill="#52BEDA"></path> <path d="M675.84 268.98C675.84 268.98 667.84 265.87 666.73 276.09C665.62 286.32 670.51 298.54 670.73 301.21C670.95 303.88 655.61 326.78 659.17 334.33C662.73 341.89 670.51 351.89 681.62 353.45C692.74 355.01 701.41 353.01 709.63 345.67C717.86 338.33 719.63 336.78 719.41 332.78C719.19 328.78 710.74 305.21 709.85 299.43C708.96 293.65 714.3 282.53 707.85 271.86C701.4 261.19 687.84 258.74 682.51 261.86C677.17 264.98 675.84 268.98 675.84 268.98Z" fill="#12284C"></path> <path d="M643.82 373.03L645.68 427.13C645.68 427.13 688.11 436.68 727.63 427.13L730.81 373.82C730.8 373.82 659.46 376.48 643.82 373.03Z" fill="#B2B2B2" stroke="#12284C" stroke-width="1.1827" stroke-miterlimit="10" stroke-linejoin="round"></path> <path d="M645.67 427.13L638.25 541.12" stroke="#12284C" stroke-width="3.5481" stroke-miterlimit="10" stroke-linecap="round" stroke-linejoin="round"></path> <path d="M727.4 427.13L734.82 541.12" stroke="#12284C" stroke-width="3.5481" stroke-miterlimit="10" stroke-linecap="round" stroke-linejoin="round"></path> <path d="M422.79 297.74L421.01 320.24L455.72 319.06L453.05 299.07L422.79 297.74Z" fill="white" stroke="#12284C" stroke-width="1.1827" stroke-miterlimit="10" stroke-linejoin="round"></path> <path d="M462.6 265.6C460.98 260.73 454.49 260.46 452.33 259.11C450.17 257.76 450.71 254.24 444.76 252.08C438.81 249.92 435.3 250.19 432.33 252.89C429.81 255.18 426.53 259.39 425.58 260.63C422.41 262.21 419.24 264.17 418 266.13C415.17 270.62 414.24 281.22 415.19 285.23C416.13 289.24 420.62 300.34 424.16 303.17C427.7 306 434.78 310.02 439.98 310.02C445.18 310.02 454.85 303.17 455.8 299.87C456.74 296.56 459.34 287.12 459.58 282.87C460.34 279.61 460.72 278.83 461.26 277.48C461.8 276.13 464.23 270.47 462.6 265.6Z" fill="#12284C"></path> <path d="M415.19 285.25C415.19 285.25 412.12 284.07 411.65 287.14C411.18 290.21 413.07 296.58 415.66 298C418.26 299.42 420.62 298 420.62 298L415.19 285.25Z" fill="white" stroke="#12284C" stroke-width="1.1827" stroke-miterlimit="10" stroke-linejoin="round"></path> <path d="M459.58 284.77C459.58 284.77 464.3 280.99 463.83 286.89C463.36 292.79 456.98 297.28 456.98 297.28L459.58 284.77Z" fill="white" stroke="#12284C" stroke-width="1.1827" stroke-miterlimit="10" stroke-linejoin="round"></path> <path d="M467.29 327.74C467.29 327.74 459.47 315.65 458.64 314.82C457.8 314 445.24 312.07 437.43 312.07C429.61 312.07 416.77 315.37 416.77 315.37L410.07 329.11C410.07 329.11 441.33 321.14 467.29 327.74Z" fill="#52BEDA"></path> <path d="M381.899 404.39C381.899 404.39 380.009 414.07 381.189 416.67C382.369 419.27 386.859 421.86 389.219 421.86C391.579 421.86 396.539 420.68 396.539 420.68L397.479 406.99L381.899 404.39Z" fill="white" stroke="#12284C" stroke-width="1.1827" stroke-miterlimit="10" stroke-linejoin="round"></path> <path d="M492.87 397.07C492.87 397.07 493.81 408.4 493.11 410.29C492.4 412.18 488.39 415.72 485.55 416.43C482.72 417.14 478.7 417.61 477.99 417.37C477.28 417.13 474.92 400.37 474.92 400.37L492.87 397.07Z" fill="white" stroke="#12284C" stroke-width="1.1827" stroke-miterlimit="10" stroke-linejoin="round"></path> <path d="M400.64 428.08C400.64 428.08 390.88 428.97 387.92 437.55C384.96 446.13 392.95 514.47 392.95 514.47C392.95 514.47 391.47 518.91 391.77 519.79C392.07 520.68 392.66 525.41 392.66 525.41C392.66 525.41 394.14 528.07 400.65 528.07C407.16 528.07 412.78 524.82 412.78 524.82C412.78 524.82 412.19 516.24 412.19 512.1C412.19 507.96 411.89 498.79 411.89 498.79L416.92 446.43C416.91 446.42 421.35 430.74 400.64 428.08Z" fill="#12284C"></path> <path d="M471.209 428.08C471.209 428.08 480.969 428.97 483.929 437.55C486.889 446.13 478.899 514.47 478.899 514.47C478.899 514.47 480.379 518.91 480.079 519.79C479.779 520.68 479.189 525.41 479.189 525.41C479.189 525.41 477.709 528.07 471.199 528.07C464.689 528.07 459.069 524.82 459.069 524.82C459.069 524.82 459.659 516.24 459.659 512.1C459.659 507.96 459.959 498.79 459.959 498.79L454.929 446.43C454.939 446.42 450.499 430.74 471.209 428.08Z" fill="#12284C"></path> <path d="M392.52 429.89C392.52 429.89 391.34 438.15 391.81 441.93C392.28 445.71 392.99 450.43 404.8 454.92C416.61 459.41 428.41 462.48 437.85 461.77C447.29 461.06 464.77 456.81 468.54 454.92C472.32 453.03 475.46 449.45 478.02 446.99C480.58 444.53 481.29 435.56 480.82 432.02C480.35 428.48 479.4 426.12 479.4 426.12C479.4 426.12 439.74 436.5 392.52 429.89Z" fill="#12284C"></path> <path d="M414.48 326.71C414.48 326.71 403.15 331.31 397.95 335.32C392.76 339.33 387.56 344.29 387.56 345.71C387.56 347.13 373.63 403.2 373.63 403.2C373.63 403.2 379.06 410.05 390.87 411.23H394.18C394.18 411.23 392.53 428.23 392.53 429.88C392.53 431.53 414.72 439.32 440.7 437.2C466.67 435.08 478.95 428.46 479.42 426.1C479.89 423.74 478.95 419.02 478.95 415.48C478.95 411.94 478.24 405.09 478.24 405.09C478.24 405.09 484.85 405.8 489.81 403.91C494.77 402.02 502.09 395.41 502.09 395.41C502.09 395.41 487.92 351.61 485.8 344.76C483.68 337.91 462.9 325.52 462.9 325.52C462.9 325.52 443.52 319.39 414.48 326.71Z" fill="#52BEDA"></path> <path d="M393.47 356.05L399.18 379.84" stroke="#12284C" stroke-width="1.1827" stroke-miterlimit="10" stroke-linejoin="round"></path> <path d="M478.43 365.42L474.82 379.84" stroke="#12284C" stroke-width="1.1827" stroke-miterlimit="10" stroke-linejoin="round"></path> <path d="M480.53 357L479.49 361.18" stroke="#12284C" stroke-width="1.1827" stroke-miterlimit="10" stroke-linejoin="round"></path> <path d="M393.95 373.03L395.81 427.13C395.81 427.13 438.24 436.68 477.76 427.13L480.94 373.82C480.94 373.82 409.6 376.48 393.95 373.03Z" fill="#B2B2B2" stroke="#12284C" stroke-width="1.1827" stroke-miterlimit="10" stroke-linejoin="round"></path> <path d="M395.81 427.13L388.38 541.12" stroke="#12284C" stroke-width="3.5481" stroke-miterlimit="10" stroke-linecap="round" stroke-linejoin="round"></path> <path d="M477.53 427.13L484.96 541.12" stroke="#12284C" stroke-width="3.5481" stroke-miterlimit="10" stroke-linecap="round" stroke-linejoin="round"></path> <path d="M283.92 331.01C283.92 331.01 269.69 337.01 269.47 339.68C269.25 342.35 260.13 377.25 259.47 381.25C258.8 385.25 255.02 394.81 257.91 398.81C260.8 402.81 265.91 405.48 269.25 405.7C272.58 405.92 273.92 403.92 273.92 403.92L271.03 423.48C271.03 423.48 266.58 437.26 267.7 442.82C268.81 448.38 272.59 453.94 293.71 458.6C314.83 463.27 327.06 460.82 334.84 457.27C342.62 453.71 351.96 449.27 352.85 443.71C353.74 438.15 350.18 420.59 350.18 420.59L348.4 401.69C348.4 401.69 359.07 401.47 363.07 396.35C367.07 391.24 365.74 386.12 364.18 381.68C362.62 377.23 357.96 361 356.4 355.22C354.84 349.44 353.73 339.44 351.95 336.99C350.17 334.54 332.16 330.54 332.16 330.54C332.16 330.54 309.04 321.89 283.92 331.01Z" fill="#52BEDA"></path> <path d="M277.79 369.71L280.59 382.81" stroke="#12284C" stroke-width="1.1827" stroke-miterlimit="10" stroke-linejoin="round"></path> <path d="M275.689 359.91L276.709 364.68" stroke="#12284C" stroke-width="1.1827" stroke-miterlimit="10" stroke-linejoin="round"></path> <path d="M349.279 361.47L345.939 381.7" stroke="#12284C" stroke-width="1.1827" stroke-miterlimit="10" stroke-linejoin="round"></path> <path d="M352.839 443.72C353.579 439.12 351.269 426.33 350.449 422.03C323.969 429.45 286.509 424.58 271.239 422.06L271.029 423.49C271.029 423.49 266.579 437.27 267.699 442.83C268.809 448.39 272.589 453.95 293.709 458.61C314.829 463.28 327.059 460.83 334.839 457.28C342.609 453.72 351.949 449.28 352.839 443.72Z" fill="#12284C"></path> <path d="M288.679 287.18C288.679 287.18 287.459 283.21 285.319 286.57C283.179 289.93 285.319 295.73 286.849 297.56C288.379 299.39 292.099 301.22 292.099 301.22L294.169 298.78L288.679 287.18Z" fill="white" stroke="#12284C" stroke-width="1.1827" stroke-miterlimit="10" stroke-linejoin="round"></path> <path d="M331.13 287.18C331.13 287.18 332.35 283.21 334.49 286.57C336.63 289.93 334.49 295.73 332.96 297.56C331.43 299.39 327.71 301.22 327.71 301.22L325.64 298.78L331.13 287.18Z" fill="white" stroke="#12284C" stroke-width="1.1827" stroke-miterlimit="10" stroke-linejoin="round"></path> <path d="M297.089 308.5L289.079 346.28C292.839 349.86 297.509 352.69 302.999 353.46C313.909 354.99 322.469 353.07 330.559 346.06C329.239 334.14 325.319 306.15 325.319 306.15L329.359 297.49C331.519 292.87 332.679 287.81 332.429 282.71C332.259 279.2 331.429 275.5 329.229 271.86C322.779 261.19 309.219 258.74 303.889 261.86C298.549 264.97 297.219 268.97 297.219 268.97C297.219 268.97 289.219 265.86 288.109 276.08C286.999 286.31 288.689 296.02 292.109 301.2L297.089 308.5Z" fill="#12284C"></path> <path d="M310.359 269.17C310.359 269.17 306.999 269.17 305.169 271.61C303.339 274.05 303.949 277.11 303.949 277.11C303.949 277.11 306.389 274.36 309.749 274.36C313.109 274.36 314.329 277.11 314.329 277.11C314.329 277.11 317.069 271.61 310.359 269.17Z" fill="white" stroke="#12284C" stroke-width="1.1827" stroke-miterlimit="10" stroke-linejoin="round"></path> <path d="M267.38 373.03L269.24 427.13C269.24 427.13 311.67 436.68 351.19 427.13L354.37 373.82C354.37 373.82 283.03 376.48 267.38 373.03Z" fill="#B2B2B2" stroke="#12284C" stroke-width="1.1827" stroke-miterlimit="10" stroke-linejoin="round"></path> <path d="M269.24 427.13L261.81 541.12" stroke="#12284C" stroke-width="3.5481" stroke-miterlimit="10" stroke-linecap="round" stroke-linejoin="round"></path> <path d="M350.96 427.13L358.39 541.12" stroke="#12284C" stroke-width="3.5481" stroke-miterlimit="10" stroke-linecap="round" stroke-linejoin="round"></path> <path d="M619.84 112.8H588.4C584.06 112.8 580.55 116.31 580.55 120.65V141.66C580.55 146 584.06 149.51 588.4 149.51H592.44L587.23 159.94L601.38 149.51H619.84C624.18 149.51 627.69 146 627.69 141.66V120.65C627.69 116.32 624.18 112.8 619.84 112.8Z" fill="white" stroke="#12284C" stroke-width="1.1827" stroke-miterlimit="10" stroke-linejoin="round"></path> <path d="M594.11 133.45C595.375 133.45 596.4 132.425 596.4 131.16C596.4 129.895 595.375 128.87 594.11 128.87C592.846 128.87 591.82 129.895 591.82 131.16C591.82 132.425 592.846 133.45 594.11 133.45Z" fill="#12284C"></path> <path d="M604.12 133.45C605.385 133.45 606.41 132.425 606.41 131.16C606.41 129.895 605.385 128.87 604.12 128.87C602.855 128.87 601.83 129.895 601.83 131.16C601.83 132.425 602.855 133.45 604.12 133.45Z" fill="#12284C"></path> <path d="M614.13 133.45C615.395 133.45 616.42 132.425 616.42 131.16C616.42 129.895 615.395 128.87 614.13 128.87C612.865 128.87 611.84 129.895 611.84 131.16C611.84 132.425 612.865 133.45 614.13 133.45Z" fill="#12284C"></path> <g opacity="0.4"> <path d="M657.759 77.5499C657.279 77.2199 656.759 76.9399 656.179 76.7199C655.609 76.4999 655.029 76.3199 654.459 76.1799L652.559 75.6899C652.129 75.5799 651.699 75.4399 651.269 75.2799C650.849 75.1199 650.459 74.9199 650.109 74.6899C649.759 74.4599 649.489 74.1899 649.279 73.8699C649.079 73.5499 648.969 73.1799 648.969 72.7499C648.969 72.1699 649.149 71.6599 649.509 71.1999C649.869 70.7499 650.369 70.3899 650.999 70.1299C651.629 69.8699 652.369 69.7399 653.209 69.7399C654.399 69.7399 655.379 69.9999 656.169 70.5299C656.949 71.0599 657.399 71.7699 657.499 72.6699H659.089C659.049 71.8499 658.779 71.1199 658.279 70.4799C657.769 69.8399 657.089 69.3299 656.229 68.9699C655.369 68.5999 654.379 68.4199 653.259 68.4199C652.149 68.4199 651.159 68.5999 650.269 68.9699C649.379 69.3399 648.679 69.8499 648.159 70.5099C647.639 71.1699 647.379 71.9299 647.379 72.7999C647.379 73.8299 647.769 74.6799 648.549 75.3499C649.329 76.0199 650.419 76.5399 651.829 76.9199L653.999 77.4999C654.739 77.6899 655.399 77.9199 655.959 78.1699C656.519 78.4199 656.969 78.7299 657.279 79.0999C657.589 79.4699 657.749 79.9299 657.749 80.4699C657.749 81.1099 657.549 81.6799 657.149 82.1699C656.749 82.6499 656.199 83.0299 655.499 83.2999C654.799 83.5699 653.999 83.6999 653.109 83.6999C652.299 83.6999 651.569 83.5899 650.919 83.3599C650.259 83.1299 649.729 82.7999 649.319 82.3599C648.909 81.9199 648.679 81.3799 648.619 80.7499H646.939C646.999 81.5999 647.289 82.3499 647.809 82.9899C648.319 83.6299 649.029 84.1399 649.929 84.4999C650.829 84.8599 651.889 85.0499 653.119 85.0499C654.419 85.0499 655.529 84.8499 656.459 84.4499C657.389 84.0499 658.099 83.4999 658.599 82.8199C659.099 82.1299 659.349 81.3599 659.349 80.4999C659.349 79.8299 659.209 79.2499 658.919 78.7699C658.619 78.2899 658.229 77.8899 657.759 77.5499Z" fill="#12284C"></path> <path d="M675.249 68.6699H662.209V69.9899H667.909V84.7799H669.549V69.9899H675.249V68.6699Z" fill="#12284C"></path> <path d="M676.85 84.7799L678.78 79.9299H686.32L688.25 84.7799H689.97L683.43 68.6699H681.67L675.13 84.7799H676.85ZM682.49 70.5799H682.61L685.79 78.5999H679.3L682.49 70.5799Z" fill="#12284C"></path> <path d="M707.05 84.7799V68.6699H705.43V82.1699H705.29L694.64 68.6699H693.05V84.7799H694.69V71.2899H694.83L705.45 84.7799H707.05Z" fill="#12284C"></path> <path d="M713.459 77.3799H721.409V76.0499H713.459V69.9899H722.219V68.6699H711.819V84.7799H713.459V77.3799Z" fill="#12284C"></path> <path d="M741.05 76.7199C741.05 75.0399 740.72 73.5799 740.05 72.3399C739.38 71.0999 738.47 70.1399 737.3 69.4599C736.13 68.7799 734.79 68.4399 733.28 68.4399C731.77 68.4399 730.43 68.7799 729.26 69.4599C728.09 70.1399 727.17 71.0999 726.51 72.3399C725.85 73.5799 725.51 75.0399 725.51 76.7199C725.51 78.3999 725.84 79.8599 726.51 81.0999C727.17 82.3399 728.09 83.2999 729.26 83.9799C730.43 84.6599 731.77 84.9999 733.28 84.9999C734.8 84.9999 736.14 84.6599 737.3 83.9799C738.46 83.2999 739.38 82.3399 740.05 81.0999C740.72 79.8599 741.05 78.3999 741.05 76.7199ZM738.66 80.4299C738.12 81.4599 737.39 82.2499 736.45 82.7899C735.52 83.3399 734.46 83.6099 733.28 83.6099C732.1 83.6099 731.04 83.3399 730.11 82.7899C729.18 82.2399 728.45 81.4499 727.91 80.4299C727.37 79.3999 727.1 78.1699 727.1 76.7299C727.1 75.2799 727.37 74.0399 727.91 73.0199C728.45 71.9899 729.19 71.2099 730.12 70.6599C731.05 70.1099 732.1 69.8399 733.28 69.8399C734.46 69.8399 735.52 70.1099 736.45 70.6599C737.38 71.2099 738.11 71.9899 738.65 73.0199C739.19 74.0499 739.46 75.2899 739.46 76.7299C739.46 78.1699 739.19 79.3999 738.66 80.4299Z" fill="#12284C"></path> <path d="M754.02 77.6599C754.87 77.2599 755.52 76.6999 755.96 75.9799C756.4 75.2599 756.609 74.4299 756.609 73.4899C756.609 72.5499 756.39 71.7199 755.96 70.9899C755.52 70.2599 754.88 69.6899 754.02 69.2799C753.16 68.8699 752.1 68.6599 750.82 68.6599H745.02V84.7699H746.659V78.2599H750.849C751.089 78.2599 751.31 78.2499 751.53 78.2299L755.469 84.7699H757.37L753.219 77.9499C753.499 77.8699 753.77 77.7799 754.02 77.6599ZM750.799 76.9199H746.659V69.9899H750.78C751.73 69.9899 752.51 70.1299 753.14 70.4199C753.76 70.7099 754.229 71.1199 754.539 71.6399C754.849 72.1699 755 72.7799 755 73.4799C755 74.1799 754.849 74.7899 754.539 75.2999C754.229 75.8099 753.77 76.2099 753.14 76.4899C752.52 76.7799 751.739 76.9199 750.799 76.9199Z" fill="#12284C"></path> <path d="M773.399 72.3799C772.749 71.1899 771.819 70.2699 770.599 69.6299C769.379 68.9899 767.909 68.6699 766.199 68.6699H760.619V84.7799H765.889C767.689 84.7799 769.229 84.4599 770.489 83.8099C771.759 83.1699 772.719 82.2399 773.389 81.0299C774.049 79.8199 774.389 78.3699 774.389 76.6799C774.379 75.0099 774.049 73.5799 773.399 72.3799ZM772.009 80.2999C771.489 81.3099 770.709 82.0899 769.669 82.6399C768.629 83.1899 767.329 83.4599 765.789 83.4599H762.259V69.9899H766.099C767.559 69.9899 768.779 70.2599 769.769 70.7899C770.759 71.3199 771.509 72.0899 772.019 73.0999C772.529 74.0999 772.779 75.2999 772.789 76.6899C772.789 78.0799 772.529 79.2899 772.009 80.2999Z" fill="#12284C"></path> <path d="M680.76 95.2199C680.76 95.5899 680.67 95.9199 680.49 96.1999C680.31 96.4899 680.05 96.7099 679.72 96.8699C679.38 97.0299 678.99 97.1099 678.52 97.1099C678.06 97.1099 677.66 97.0299 677.32 96.8699C676.98 96.7099 676.73 96.4799 676.55 96.1999C676.37 95.9099 676.28 95.5899 676.28 95.2199V90.0099H674.97V95.3199C674.97 95.8799 675.12 96.3799 675.41 96.8099C675.7 97.2399 676.12 97.5799 676.65 97.8299C677.18 98.0799 677.81 98.1999 678.52 98.1999C679.23 98.1999 679.86 98.0799 680.4 97.8299C680.93 97.5799 681.35 97.2399 681.64 96.8099C681.93 96.3799 682.08 95.8799 682.08 95.3199V90.0099H680.76V95.2199Z" fill="#12284C"></path> <path d="M690.02 95.9999H689.94L685.31 90.0099H684.09V98.0699H685.4V92.0899H685.49L690.11 98.0699H691.32V90.0099H690.02V95.9999Z" fill="#12284C"></path> <path d="M694.639 90.0099H693.329V98.0699H694.639V90.0099Z" fill="#12284C"></path> <path d="M699.999 96.6099H699.899L697.369 90.0099H695.959L699.199 98.0699H700.699L703.939 90.0099H702.529L699.999 96.6099Z" fill="#12284C"></path> <path d="M706.57 94.5399H710.57V93.5299H706.57V91.0299H710.86V90.0099H705.26V98.0699H710.91V97.0599H706.57V94.5399Z" fill="#12284C"></path> <path d="M717.599 94.6899C718.059 94.4799 718.399 94.1899 718.629 93.8199C718.859 93.4499 718.969 93.0099 718.969 92.5199C718.969 92.0299 718.859 91.5999 718.629 91.2199C718.399 90.8399 718.059 90.5499 717.599 90.3299C717.139 90.1099 716.569 90.0099 715.869 90.0099H712.689V98.0699H713.999V95.0099H715.869C715.909 95.0099 715.939 94.9999 715.969 94.9999L717.809 98.0699H719.309L717.299 94.7799C717.399 94.7499 717.519 94.7299 717.599 94.6899ZM714.009 91.0299H715.749C716.199 91.0299 716.569 91.0899 716.849 91.2099C717.129 91.3299 717.329 91.5099 717.459 91.7299C717.589 91.9499 717.659 92.2199 717.659 92.5299C717.659 92.8399 717.599 93.0999 717.469 93.3199C717.339 93.5399 717.139 93.6999 716.859 93.8199C716.579 93.9399 716.219 93.9899 715.769 93.9899H714.019V91.0299H714.009Z" fill="#12284C"></path> <path d="M726.07 94.2599C725.81 94.0899 725.53 93.9499 725.23 93.8399C724.93 93.7299 724.64 93.6499 724.36 93.5899L723.48 93.3899C723.3 93.3499 723.12 93.2999 722.93 93.2399C722.74 93.1799 722.56 93.0999 722.39 92.9999C722.22 92.9099 722.09 92.7899 721.98 92.6499C721.88 92.5099 721.82 92.3399 721.82 92.1499C721.82 91.9199 721.9 91.7099 722.05 91.5199C722.2 91.3399 722.41 91.1899 722.69 91.0899C722.96 90.9799 723.29 90.9299 723.66 90.9299C724.18 90.9299 724.61 91.0299 724.95 91.2399C725.29 91.4499 725.49 91.7399 725.54 92.1199H726.81C726.8 91.6899 726.66 91.3099 726.39 90.9799C726.12 90.6499 725.75 90.3899 725.29 90.1999C724.83 90.0099 724.29 89.9099 723.69 89.9099C723.09 89.9099 722.56 90.0099 722.08 90.1999C721.6 90.3899 721.22 90.6599 720.95 91.0099C720.67 91.3599 720.53 91.7599 720.53 92.2199C720.53 92.7799 720.74 93.2299 721.16 93.5699C721.58 93.9099 722.14 94.1699 722.86 94.3399L723.93 94.5999C724.25 94.6799 724.54 94.7599 724.8 94.8599C725.06 94.9599 725.27 95.0899 725.42 95.2399C725.57 95.3999 725.65 95.5999 725.65 95.8399C725.65 96.0999 725.56 96.3399 725.38 96.5399C725.2 96.7399 724.96 96.8899 724.66 97.0099C724.36 97.1199 724.01 97.1799 723.62 97.1799C723.27 97.1799 722.95 97.1299 722.66 97.0399C722.37 96.9499 722.12 96.7999 721.94 96.6099C721.75 96.4199 721.64 96.1699 721.62 95.8799H720.3C720.33 96.3599 720.48 96.7699 720.76 97.1199C721.04 97.4699 721.42 97.7399 721.91 97.9299C722.4 98.1199 722.97 98.2099 723.64 98.2099C724.34 98.2099 724.94 98.1099 725.43 97.8999C725.92 97.6999 726.3 97.4199 726.56 97.0599C726.82 96.7099 726.95 96.2999 726.95 95.8499C726.95 95.4799 726.87 95.1699 726.71 94.9099C726.54 94.6499 726.33 94.4399 726.07 94.2599Z" fill="#12284C"></path> <path d="M729.9 90.0099H728.59V98.0699H729.9V90.0099Z" fill="#12284C"></path> <path d="M731.459 91.0299H734.269V98.0699H735.579V91.0299H738.379V90.0099H731.459V91.0299Z" fill="#12284C"></path> <path d="M743.2 93.6899H743.099L740.729 90.0099H739.229L742.49 94.8799V98.0699H743.799V94.8799L747.06 90.0099H745.57L743.2 93.6899Z" fill="#12284C"></path> </g> <path opacity="0.4" d="M387.83 104.96C365.23 93.02 370.37 65.82 370.42 65.54L370.68 64.26H406.47L406.73 65.54C406.78 65.81 411.86 92.65 389.78 104.71L388.58 105.35L387.83 104.96Z" stroke="#12284C" stroke-width="1.1827" stroke-miterlimit="10" stroke-linejoin="round"></path> <path opacity="0.4" d="M389.12 108.05C415.88 93.43 409.41 61 409.41 61H387.95H367.74C367.74 61 361.18 93.87 388.57 108.34C388.76 108.25 388.94 108.15 389.12 108.05Z" stroke="#12284C" stroke-width="1.1827" stroke-miterlimit="10" stroke-linejoin="round"></path> <path opacity="0.4" d="M388.91 87.94V96L383.9 94.91V85.25L388.91 86.22L394.17 85.14V94.5L390.06 96" stroke="#12284C" stroke-width="1.1827" stroke-miterlimit="10" stroke-linejoin="round"></path> <path opacity="0.4" d="M382.08 86.2499V95.9999" stroke="#12284C" stroke-width="1.1827" stroke-miterlimit="10" stroke-linejoin="round"></path> <path opacity="0.4" d="M395.99 86.2499V95.9999" stroke="#12284C" stroke-width="1.1827" stroke-miterlimit="10" stroke-linejoin="round"></path> <path opacity="0.4" d="M380.16 72.16V80.22L375.15 79.13V69.47L380.16 70.45L385.42 69.36V78.72L381.31 80.22" stroke="#12284C" stroke-width="1.1827" stroke-miterlimit="10" stroke-linejoin="round"></path> <path opacity="0.4" d="M373.33 70.47V80.22" stroke="#12284C" stroke-width="1.1827" stroke-miterlimit="10" stroke-linejoin="round"></path> <path opacity="0.4" d="M387.24 70.47V80.22" stroke="#12284C" stroke-width="1.1827" stroke-miterlimit="10" stroke-linejoin="round"></path> <path opacity="0.4" d="M397.66 72.16V80.22L392.65 79.13V69.47L397.66 70.45L402.92 69.36V78.72L398.81 80.22" stroke="#12284C" stroke-width="1.1827" stroke-miterlimit="10" stroke-linejoin="round"></path> <path opacity="0.4" d="M390.83 70.47V80.22" stroke="#12284C" stroke-width="1.1827" stroke-miterlimit="10" stroke-linejoin="round"></path> <path opacity="0.4" d="M404.74 70.47V80.22" stroke="#12284C" stroke-width="1.1827" stroke-miterlimit="10" stroke-linejoin="round"></path> <g opacity="0.4"> <path d="M436.73 75.8799H426.46V68.4399H424.8V84.6699H426.46V77.2099H436.73V84.6699H438.39V68.4399H436.73V75.8799Z" fill="#12284C"></path> <path d="M452.77 79.7799L454.71 84.6699H456.44L449.85 68.4299H448.08L441.49 84.6699H443.22L445.16 79.7799H452.77ZM448.91 70.3699H449.03L452.24 78.4599H445.7L448.91 70.3699Z" fill="#12284C"></path> <path d="M465.42 78.1099C465.66 78.1099 465.88 78.0999 466.11 78.0799L470.08 84.6699H471.99L467.81 77.7899C468.1 77.7099 468.37 77.6099 468.62 77.4899C469.48 77.0799 470.13 76.5199 470.57 75.7899C471.01 75.0699 471.23 74.2299 471.23 73.2899C471.23 72.3399 471.01 71.5099 470.57 70.7699C470.13 70.0399 469.48 69.4599 468.61 69.0499C467.75 68.6299 466.67 68.4299 465.39 68.4299H459.54V84.6699H461.19V78.1099H465.42ZM465.35 69.7699C466.31 69.7699 467.1 69.9199 467.73 70.2099C468.36 70.4999 468.83 70.9099 469.14 71.4399C469.45 71.9699 469.61 72.5899 469.61 73.2999C469.61 74.0099 469.46 74.6199 469.15 75.1399C468.84 75.6599 468.37 76.0599 467.74 76.3399C467.11 76.6199 466.33 76.7599 465.38 76.7599H461.2V69.7799H465.35V69.7699Z" fill="#12284C"></path> <path d="M486.39 68.4399L480.73 82.7499H480.57L474.91 68.4399H473.18L479.77 84.6699H481.54L488.13 68.4399H486.39Z" fill="#12284C"></path> <path d="M489.7 84.6699L491.64 79.7799H499.24L501.18 84.6699H502.91L496.32 68.4299H494.55L487.96 84.6699H489.7ZM495.38 70.3699H495.5L498.71 78.4599H492.17L495.38 70.3699Z" fill="#12284C"></path> <path d="M515.1 77.4999C515.96 77.0899 516.61 76.5299 517.05 75.7999C517.49 75.0799 517.71 74.2399 517.71 73.2999C517.71 72.3499 517.49 71.5199 517.05 70.7799C516.61 70.0499 515.96 69.4699 515.09 69.0599C514.23 68.6399 513.15 68.4399 511.87 68.4399H506.02V84.6799H507.67V78.1199H511.89C512.13 78.1199 512.35 78.1099 512.58 78.0899L516.55 84.6799H518.46L514.28 77.7999C514.57 77.7199 514.84 77.6199 515.1 77.4999ZM511.85 76.7499H507.67V69.7699H511.82C512.78 69.7699 513.57 69.9199 514.2 70.2099C514.83 70.4999 515.3 70.9099 515.61 71.4399C515.92 71.9699 516.08 72.5899 516.08 73.2999C516.08 74.0099 515.93 74.6199 515.62 75.1399C515.31 75.6599 514.84 76.0599 514.21 76.3399C513.58 76.6199 512.79 76.7499 511.85 76.7499Z" fill="#12284C"></path> <path d="M534.62 72.1799C533.97 70.9799 533.02 70.0499 531.79 69.4099C530.56 68.7699 529.08 68.4399 527.35 68.4399H521.72V84.6799H527.03C528.85 84.6799 530.39 84.3599 531.67 83.6999C532.95 83.0499 533.92 82.1199 534.59 80.8999C535.26 79.6799 535.59 78.2199 535.59 76.5199C535.61 74.8299 535.28 73.3899 534.62 72.1799ZM533.22 80.1599C532.7 81.1799 531.91 81.9599 530.86 82.5099C529.81 83.0599 528.51 83.3299 526.95 83.3299H523.39V69.7699H527.26C528.73 69.7699 529.96 70.0399 530.96 70.5799C531.96 71.1199 532.71 71.8899 533.22 72.8999C533.73 73.9099 533.99 75.1099 533.99 76.5099C534.01 77.9299 533.74 79.1399 533.22 80.1599Z" fill="#12284C"></path> <path d="M449.67 95.2C449.67 95.57 449.58 95.9 449.4 96.19C449.22 96.48 448.96 96.71 448.62 96.87C448.28 97.03 447.88 97.12 447.41 97.12C446.94 97.12 446.54 97.04 446.2 96.87C445.86 96.71 445.6 96.48 445.42 96.19C445.24 95.9 445.15 95.57 445.15 95.2V89.95H443.83V95.3C443.83 95.87 443.98 96.37 444.27 96.8C444.57 97.24 444.98 97.58 445.52 97.83C446.06 98.08 446.69 98.2 447.41 98.2C448.13 98.2 448.76 98.08 449.3 97.83C449.84 97.58 450.26 97.24 450.55 96.8C450.84 96.36 450.99 95.86 450.99 95.3V89.95H449.66V95.2H449.67Z" fill="#12284C"></path> <path d="M459 95.98H458.92L454.25 89.95H453.02V98.07H454.35V92.05H454.43L459.09 98.07H460.31V89.95H459V95.98Z" fill="#12284C"></path> <path d="M463.66 89.95H462.34V98.07H463.66V89.95Z" fill="#12284C"></path> <path d="M469.06 96.6H468.96L466.41 89.95H464.99L468.25 98.07H469.76L473.03 89.95H471.61L469.06 96.6Z" fill="#12284C"></path> <path d="M475.68 94.51H479.71V93.49H475.68V90.97H480V89.95H474.35V98.07H480.05V97.05H475.68V94.51Z" fill="#12284C"></path> <path d="M486.79 94.67C487.25 94.46 487.6 94.17 487.83 93.79C488.06 93.41 488.17 92.98 488.17 92.48C488.17 91.99 488.06 91.55 487.83 91.17C487.6 90.79 487.25 90.49 486.79 90.27C486.33 90.05 485.75 89.95 485.05 89.95H481.85V98.07H483.17V94.98H485.05C485.09 94.98 485.12 94.97 485.15 94.97L487.01 98.07H488.52L486.49 94.76C486.59 94.72 486.71 94.71 486.79 94.67ZM483.17 90.97H484.92C485.38 90.97 485.75 91.03 486.03 91.15C486.31 91.27 486.52 91.45 486.65 91.67C486.78 91.89 486.85 92.16 486.85 92.47C486.85 92.78 486.79 93.04 486.66 93.26C486.53 93.48 486.32 93.65 486.04 93.76C485.76 93.88 485.39 93.94 484.94 93.94H483.18V90.97H483.17Z" fill="#12284C"></path> <path d="M495.33 94.23C495.07 94.06 494.79 93.92 494.49 93.81C494.19 93.7 493.9 93.62 493.62 93.56L492.73 93.35C492.55 93.31 492.37 93.26 492.18 93.2C491.99 93.14 491.81 93.06 491.64 92.96C491.47 92.87 491.34 92.75 491.23 92.61C491.12 92.47 491.07 92.3 491.07 92.1C491.07 91.86 491.15 91.65 491.3 91.47C491.45 91.29 491.67 91.14 491.94 91.03C492.22 90.92 492.54 90.87 492.92 90.87C493.44 90.87 493.88 90.97 494.22 91.18C494.57 91.39 494.77 91.68 494.81 92.06H496.09C496.08 91.63 495.94 91.25 495.67 90.91C495.4 90.57 495.03 90.31 494.56 90.12C494.09 89.93 493.55 89.83 492.94 89.83C492.34 89.83 491.8 89.93 491.32 90.12C490.84 90.31 490.46 90.59 490.18 90.93C489.9 91.28 489.76 91.68 489.76 92.14C489.76 92.7 489.97 93.16 490.39 93.5C490.81 93.84 491.38 94.1 492.11 94.28L493.19 94.55C493.51 94.63 493.8 94.71 494.06 94.81C494.32 94.91 494.53 95.04 494.68 95.2C494.83 95.36 494.91 95.56 494.91 95.8C494.91 96.07 494.82 96.3 494.64 96.5C494.46 96.7 494.22 96.86 493.91 96.97C493.6 97.08 493.25 97.14 492.86 97.14C492.51 97.14 492.19 97.09 491.89 97C491.59 96.91 491.35 96.76 491.16 96.57C490.97 96.38 490.86 96.13 490.84 95.83H489.51C489.54 96.31 489.69 96.73 489.97 97.08C490.25 97.43 490.63 97.7 491.13 97.9C491.62 98.09 492.2 98.19 492.87 98.19C493.58 98.19 494.18 98.09 494.68 97.88C495.18 97.67 495.56 97.39 495.82 97.04C496.08 96.68 496.21 96.28 496.21 95.82C496.21 95.45 496.13 95.13 495.96 94.87C495.8 94.62 495.59 94.41 495.33 94.23Z" fill="#12284C"></path> <path d="M499.19 89.95H497.87V98.07H499.19V89.95Z" fill="#12284C"></path> <path d="M500.76 90.97H503.59V98.07H504.91V90.97H507.74V89.95H500.76V90.97Z" fill="#12284C"></path> <path d="M512.59 93.66H512.49L510.1 89.95H508.59L511.87 94.86V98.07H513.2V94.86L516.48 89.95H514.98L512.59 93.66Z" fill="#12284C"></path> </g> <path opacity="0.4" d="M639.76 74.3599V65.9399C639.76 65.7799 639.7 65.6299 639.59 65.5199L633.67 59.5999C633.56 59.4899 633.41 59.4299 633.26 59.4299H617.51C617.34 59.4299 617.19 59.4899 617.08 59.6099L611.2 65.8199C611.1 65.9299 611.04 66.0799 611.04 66.2299L611.26 81.7299C611.26 81.8799 611.33 82.0399 611.44 82.1499L616.83 87.2199C616.94 87.3299 617.08 87.3899 617.23 87.3899H619.18L618.28 88.8299H611.63C611.31 88.8299 611.04 89.0999 611.04 89.4199V97.8499C611.04 97.9999 611.1 98.1499 611.22 98.2599L617.13 104.18C617.24 104.29 617.39 104.36 617.55 104.36H633.3C633.46 104.36 633.62 104.29 633.73 104.17L639.6 97.9699C639.71 97.8499 639.77 97.6999 639.76 97.5499L639.55 82.0599C639.54 81.8999 639.48 81.7399 639.36 81.6399L633.98 76.5599C633.87 76.4499 633.73 76.3999 633.57 76.3999H631.91L631.22 74.9499H639.17C639.5 74.9499 639.76 74.6799 639.76 74.3599ZM633.34 77.5799L638.37 82.3199L638.58 97.3299L633.05 103.17H617.8L612.22 97.5999V90.0199H617.53L617.02 90.8299H613.63C613.31 90.8299 613.04 91.0999 613.04 91.4299V97.0199C613.04 97.1799 613.1 97.3299 613.22 97.4399L617.96 102.18C618.07 102.29 618.22 102.36 618.38 102.36H632.44C632.6 102.36 632.76 102.29 632.87 102.17L637.59 97.1799C637.7 97.0699 637.76 96.9199 637.75 96.7699L637.56 82.9299C637.56 82.7699 637.49 82.6199 637.37 82.5099L633.19 78.5599C633.08 78.4499 632.93 78.3999 632.78 78.3999H630.21V77.6699L631.83 78.2099C632.02 78.2799 632.23 78.2199 632.36 78.0699C632.49 77.9399 632.52 77.7399 632.46 77.5799H633.34ZM615.85 93.1599C615.94 93.3199 616.11 93.4199 616.29 93.4199H623.93L622.88 98.7299L621.45 100.6L622.2 101.17H618.62L614.22 96.7699V92.0199H616.27L615.87 92.6599C615.77 92.8099 615.77 93.0099 615.85 93.1599ZM628.31 98.7299L627.26 93.4199H634.36C634.55 93.4199 634.71 93.3299 634.8 93.1699C634.89 93.0099 634.89 92.8099 634.79 92.6599L629.48 84.0799H632.83C633.02 84.0799 633.18 83.9799 633.27 83.8199C633.36 83.6499 633.35 83.4599 633.25 83.2999L630.84 79.5799H632.55L636.38 83.1999L636.57 96.5399L632.19 101.17H629L629.74 100.6L628.31 98.7299ZM630.8 76.3999L631.03 76.8899L629.61 76.4099L628.4 76.0099C628.2 75.9399 627.98 76.0099 627.85 76.1799C627.72 76.3499 627.71 76.5799 627.82 76.7599L629.02 78.6099L629.64 79.5799L631.91 83.0799H628.58C628.4 83.0799 628.23 83.1699 628.14 83.3299C628.06 83.4899 628.06 83.6899 628.16 83.8399L633.46 92.4199H626.65C626.5 92.4199 626.36 92.4899 626.27 92.5999C626.17 92.7199 626.13 92.8699 626.16 93.0199L627.35 99.0399C627.36 99.1199 627.4 99.1899 627.44 99.2499L628.92 101.17H622.28L623.75 99.2499C623.8 99.1899 623.83 99.1199 623.85 99.0399L625.03 93.0199C625.06 92.8699 625.03 92.7199 624.93 92.5999C624.83 92.4899 624.69 92.4199 624.54 92.4199H617.2L617.45 92.0199L618.2 90.8299L618.71 90.0199L619.36 88.9799L620.36 87.3899L620.74 86.7899L621.11 86.1999L621.78 85.1399L622.79 83.5299C622.9 83.3499 622.89 83.1299 622.77 82.9599C622.65 82.7999 622.44 82.7199 622.24 82.7699L619.79 83.4199L623.32 77.4099C623.42 77.2399 623.41 77.0299 623.3 76.8699C623.19 76.7099 623 76.6299 622.81 76.6599L620.19 77.0799L623.68 70.5499C623.76 70.3899 623.76 70.2099 623.67 70.0599C623.59 69.9099 623.43 69.8199 623.26 69.8099L621.48 69.7299L625.65 63.3399L629.85 69.6199L628.36 69.6899C628.19 69.6999 628.04 69.7899 627.95 69.9299C627.87 70.0799 627.86 70.2499 627.93 70.4099L628.58 71.7599L629.15 72.9499L629.54 73.7599L630.11 74.9499L630.8 76.3999ZM620.77 84.1999L621.27 84.0699L621.19 84.1999H620.77ZM629.16 70.6499L630.79 70.5699C630.97 70.5599 631.13 70.4599 631.21 70.2999C631.29 70.1299 631.28 69.9399 631.18 69.7899L626.37 62.6099H632.18L636.58 67.0099V71.7599H629.69L629.16 70.6499ZM620.14 70.4199C620.22 70.5799 620.38 70.6799 620.56 70.6899L622.42 70.7699L618.83 77.4999C618.74 77.6699 618.76 77.8699 618.87 78.0299C618.98 78.1799 619.16 78.2599 619.36 78.2299L621.92 77.8199L618.31 83.9599C618.27 84.0299 618.25 84.0999 618.24 84.1799L614.43 80.5799L614.24 67.2399L618.62 62.6099H624.93L620.16 69.9199C620.06 70.0699 620.05 70.2599 620.14 70.4199ZM638.58 73.7599H630.65L630.26 72.9499H637.17C637.5 72.9499 637.76 72.6799 637.76 72.3599V66.7599C637.76 66.6099 637.7 66.4599 637.59 66.3499L632.85 61.5999C632.73 61.4899 632.58 61.4299 632.43 61.4299H618.37C618.2 61.4299 618.05 61.4899 617.94 61.6099L613.21 66.5999C613.11 66.7099 613.05 66.8599 613.05 67.0199L613.25 80.8499C613.25 81.0099 613.32 81.1599 613.43 81.2699L617.62 85.2199C617.73 85.3299 617.88 85.3899 618.03 85.3899H620.44L619.93 86.1999H617.47L612.44 81.4599L612.23 66.4499L617.76 60.6099H633.01L638.58 66.1799V73.7599Z" fill="#12284C"></path> </g> </svg> 