<?xml version="1.0" encoding="UTF-8"?> <svg xmlns="http://www.w3.org/2000/svg" width="1404" height="139" viewBox="0 0 1404 139" fill="none"><path d="M1108.22 45.5933C1099.44 52.5084 1086.68 51.0084 1079.76 42.233C1072.85 33.4575 1074.35 20.686 1083.14 13.7584C1091.93 6.83084 1104.68 8.34327 1111.61 17.1345C1118.53 25.9257 1117.01 38.6657 1108.22 45.5933ZM1088.09 20.0405C1082.77 24.2318 1081.85 31.964 1086.04 37.2829C1090.23 42.6019 1097.96 43.5188 1103.28 39.3274C1108.6 35.1361 1109.52 27.4034 1105.33 22.0845C1101.13 16.7656 1093.4 15.8491 1088.09 20.0405Z" fill="#00C1DE"></path><path d="M218.466 113.589C225.426 105.023 238.068 103.719 246.631 110.68C255.194 117.642 256.498 130.288 249.538 138.853L243.608 134.039C247.919 128.744 247.112 120.924 241.819 116.612C236.525 112.301 228.707 113.107 224.388 118.416L218.458 113.603L218.466 113.589Z" fill="#00C1DE"></path><path d="M10.2527 97.6288C5.02182 87.9104 8.67631 75.7344 18.3919 70.502C28.1076 65.2697 40.2803 68.9251 45.5112 78.6434L38.7897 82.2698C35.559 76.2546 28.0309 73.9937 22.0173 77.2253C16.0038 80.4569 13.7436 87.9871 16.9841 94.0149L10.2626 97.6413L10.2527 97.6288Z" fill="#00C1DE"></path><path d="M871.927 113.731L865.665 114.895L864.369 107.933L854.203 110.492L852.278 100.184L842.112 102.744L839.566 89.1096L845.812 87.9402L847.117 94.9227L857.304 92.3538L859.229 102.662L869.38 100.097L871.927 113.731Z" fill="#00C1DE"></path><path d="M1374.02 73.1065L1372.11 67.0334L1378.87 64.9044L1375.12 55.1265L1385.12 51.977L1381.37 42.1842L1394.61 38.0349L1396.53 44.108L1389.74 46.2278L1393.5 56.0355L1383.49 59.1702L1387.24 68.963L1374.02 73.1065Z" fill="#00C1DE"></path><path d="M524.145 44.8902L490.125 24.29L524.972 5.11883L524.145 44.8902ZM502.86 24.546L518.014 33.7198L518.382 16.0006L502.85 24.5334L502.86 24.546Z" fill="#00C1DE"></path></svg> 