<?xml version="1.0" encoding="UTF-8"?> <svg xmlns="http://www.w3.org/2000/svg" width="30" height="30" viewBox="0 0 30 30" fill="none"><circle cx="15" cy="15" r="15" fill="#52BEDA"></circle><path d="M9.75 22.5H20.25C21.0773 22.5 21.75 21.8273 21.75 21V9.75C21.75 8.92275 21.0773 8.25 20.25 8.25H18.75C18.75 8.05109 18.671 7.86032 18.5303 7.71967C18.3897 7.57902 18.1989 7.5 18 7.5H12C11.8011 7.5 11.6103 7.57902 11.4697 7.71967C11.329 7.86032 11.25 8.05109 11.25 8.25H9.75C8.92275 8.25 8.25 8.92275 8.25 9.75V21C8.25 21.8273 8.92275 22.5 9.75 22.5ZM9.75 9.75H11.25V11.25H18.75V9.75H20.25V21H9.75V9.75Z" fill="white"></path><path d="M14.25 16.1895L12.9052 14.8447L11.8447 15.9052L14.25 18.3105L18.1552 14.4052L17.0947 13.3447L14.25 16.1895Z" fill="white"></path></svg> 