<?xml version="1.0" encoding="UTF-8"?> <svg xmlns="http://www.w3.org/2000/svg" width="25" height="25" viewBox="0 0 25 25" fill="none"><g clip-path="url(#clip0_986_157)"><path d="M0.54278 25C0.248327 24.8559 0.0453403 24.686 0.00572117 24.3422V11.8159C0.0301774 11.5278 0.255175 11.247 0.539356 11.1787C0.67142 11.1469 0.802506 11.1704 0.935058 11.1352C1.42614 11.0053 1.49462 10.1439 1.15468 9.84062C0.876363 9.59255 0.373054 9.81816 0.110883 9.37182C-0.170364 8.89276 0.108437 8.29748 0.665061 8.234C1.81548 8.10264 3.18063 8.34974 4.35355 8.21251L11.7237 5.38408L11.7736 5.23904L11.775 0.658951C11.8293 0.35423 12.0441 0.130572 12.3434 0.0568338C13.8108 0.139851 15.4787 -0.0921084 16.9226 0.0436487C17.4225 0.0905289 17.7135 0.473383 17.6069 0.974415C17.5369 1.30355 16.8301 2.06535 16.8463 2.25971C17.109 2.82765 18.0407 3.5787 17.4332 4.21207C17.3804 4.26726 17.1231 4.43183 17.0679 4.43183H13.2356V5.33329L20.6527 8.21203C21.8148 8.36585 23.2568 8.07773 24.3857 8.23791C24.7031 8.28283 24.8689 8.50649 25 8.7697V9.15939C24.8249 9.68289 24.5285 9.59792 24.1294 9.72782C23.7302 9.85771 23.6784 10.43 23.7924 10.7792C23.9924 11.3906 24.7965 10.9643 25 11.6939V24.4633C24.8758 24.7304 24.731 24.875 24.4629 24.9995H0.54278V25ZM15.4807 1.50768H13.2351V2.96975H15.4807C15.3652 2.6914 15.1759 2.54978 15.1838 2.2143C15.1911 1.90616 15.3794 1.76747 15.4807 1.50768ZM8.49986 8.234H16.5059L16.1278 8.05136L12.5234 6.67475L8.87796 8.05136L8.49986 8.234ZM22.3641 9.69608H2.73944C2.87688 10.1742 2.87737 10.6791 2.73944 11.1581H22.3641C22.2267 10.6801 22.2262 10.1751 22.3641 9.69608ZM7.32841 12.6202H1.47016V23.5374H7.32841V12.6202ZM16.1155 12.6202H8.84176V23.5374H10.2573V21.5148C10.2573 20.5518 11.2634 19.601 12.1908 19.4974C13.4224 19.3597 14.6995 20.3257 14.6995 21.6124V23.5374H16.115V12.6202H16.1155ZM23.5356 12.6202H17.6289V23.5374H23.5356V12.6202ZM13.1862 23.5374V21.4659C13.1862 21.4518 13.0668 21.2525 13.0404 21.2213C12.8047 20.9405 12.3742 20.8741 12.0656 21.0782C11.9898 21.1285 11.7702 21.399 11.7702 21.4654V23.5369H13.1857L13.1862 23.5374Z" fill="white"></path><path d="M20.4472 15.6049C20.8645 15.537 21.2685 15.7758 21.3355 16.2051C21.3692 16.42 21.3663 17.2951 21.3154 17.4953C21.1232 18.2512 19.9645 18.1843 19.873 17.422C19.8441 17.1808 19.8397 16.3389 19.8852 16.1162C19.9351 15.872 20.2056 15.6445 20.4472 15.6049Z" fill="white"></path><path d="M20.4472 19.5043C20.8645 19.4364 21.2685 19.6752 21.3355 20.1044C21.3692 20.3193 21.3663 21.1944 21.3154 21.3946C21.1232 22.1506 19.9645 22.0837 19.873 21.3214C19.8441 21.0801 19.8397 20.2382 19.8852 20.0156C19.9351 19.7714 20.2056 19.5438 20.4472 19.5043Z" fill="white"></path><path d="M4.04394 15.6049C5.04126 15.3979 5.05153 16.6041 4.98452 17.2745C4.8823 18.2952 3.59492 18.2395 3.47606 17.3683C3.44182 17.1153 3.4428 16.377 3.50492 16.1387C3.56117 15.9233 3.82187 15.6513 4.04394 15.6049Z" fill="white"></path><path d="M4.04394 19.5038C5.04126 19.2967 5.05153 20.5029 4.98452 21.1734C4.8823 22.194 3.59492 22.1384 3.47606 21.2672C3.44182 21.0142 3.4428 20.2758 3.50492 20.0375C3.56117 19.8222 3.82187 19.5502 4.04394 19.5038Z" fill="white"></path><path d="M10.4691 17.8185C10.1849 17.5338 10.1961 16.4268 10.3165 16.0664C10.538 15.4042 11.5779 15.4643 11.7105 16.1157C11.7525 16.3218 11.7501 17.3473 11.6987 17.5436C11.5647 18.0559 10.8315 18.1814 10.4691 17.8181V17.8185Z" fill="white"></path><path d="M14.5366 15.8047C14.8208 16.0894 14.8096 17.1964 14.6892 17.5568C14.4677 18.219 13.4278 18.1589 13.2952 17.5075C13.2532 17.3014 13.2556 16.2759 13.307 16.0796C13.441 15.5673 14.1742 15.4418 14.5366 15.8051V15.8047Z" fill="white"></path></g><defs><clipPath id="clip0_986_157"><rect width="25" height="25" fill="white"></rect></clipPath></defs></svg> 