<?xml version="1.0" encoding="UTF-8"?> <svg xmlns="http://www.w3.org/2000/svg" width="1667" height="923" viewBox="0 0 1667 923" fill="none"><g opacity="0.1"><path d="M659.713 668.878C652.148 650.238 661.178 628.9 679.826 621.338C698.474 613.777 719.823 622.802 727.388 641.442L714.485 646.685C709.816 635.149 696.613 629.567 685.072 634.235C673.531 638.902 667.946 652.099 672.631 663.66L659.728 668.903L659.713 668.878Z" fill="white"></path><path d="M884.762 549.589C903.666 542.69 924.682 552.462 931.585 571.357C938.487 590.252 928.71 611.259 909.806 618.158L905.019 605.085C916.718 600.827 922.765 587.835 918.505 576.142C914.245 564.449 901.248 558.405 889.524 562.677L884.736 549.603L884.762 549.589Z" fill="white"></path><path d="M704.837 68.561C695.297 50.8498 701.962 28.6597 719.681 19.124C737.401 9.58834 759.601 16.2501 769.142 33.9613L756.883 40.5701C750.991 29.6077 737.261 25.4874 726.293 31.3768C715.326 37.2661 711.203 50.9897 717.114 61.975L704.855 68.5839L704.837 68.561Z" fill="white"></path><path d="M482.424 351.099L486.671 340.293L498.691 345.008L504.551 326.818L522.354 333.788L528.214 315.598L551.76 324.819L547.536 335.607L535.476 330.886L529.611 349.118L511.807 342.147L505.97 360.319L482.424 351.099Z" fill="white"></path><path d="M116.13 744.955L112.636 733.887L124.967 730.007L118.134 712.187L136.38 706.447L129.537 688.601L153.681 681.039L157.174 692.107L144.806 695.97L151.66 713.844L133.403 719.557L140.247 737.403L116.13 744.955Z" fill="white"></path><path d="M290.665 534.013L301.922 531.169L305.082 543.698L323.276 537.914L327.951 556.454L346.173 550.66L352.325 575.191L341.068 578.035L337.927 565.469L319.677 571.271L315.03 552.722L296.808 558.516L290.665 534.013Z" fill="white"></path><path d="M35.8436 73.9876L47.1007 71.1436L50.2606 83.6729L68.4551 77.8885L73.1294 96.4282L91.3515 90.635L97.5036 115.166L86.2464 118.009L83.1055 105.443L64.8554 111.245L60.2088 92.697L41.9867 98.4902L35.8436 73.9876Z" fill="white"></path><path d="M415.873 162.794L353.827 125.251L417.382 90.3125L415.873 162.794ZM377.053 125.717L404.693 142.436L405.363 110.144L377.035 125.694L377.053 125.717Z" fill="white"></path><path d="M927.208 305.189C911.208 317.792 887.921 315.058 875.313 299.065C862.705 283.072 865.439 259.797 881.468 247.172C897.497 234.547 920.755 237.303 933.386 253.324C946.017 269.346 943.237 292.564 927.208 305.189ZM890.494 258.62C880.796 266.259 879.124 280.35 886.766 290.044C894.408 299.737 908.507 301.408 918.205 293.77C927.903 286.131 929.575 272.039 921.933 262.346C914.29 252.652 900.192 250.982 890.494 258.62Z" fill="white"></path><path d="M526.832 827.312C510.832 839.915 487.545 837.181 474.937 821.188C462.329 805.195 465.063 781.92 481.092 769.295C497.121 756.67 520.379 759.426 533.01 775.448C545.641 791.469 542.861 814.687 526.832 827.312ZM490.118 780.744C480.42 788.382 478.748 802.474 486.39 812.167C494.033 821.86 508.131 823.531 517.829 815.893C527.527 808.254 529.199 794.162 521.557 784.469C513.914 774.775 499.816 773.105 490.118 780.744Z" fill="white"></path><path d="M74.7763 497.492C58.776 510.094 35.4897 507.361 22.8813 491.368C10.2729 475.375 13.0073 452.1 29.0364 439.475C45.0655 426.849 68.3232 429.606 80.9543 445.627C93.5854 461.649 90.8054 484.867 74.7763 497.492ZM38.0624 450.923C28.3643 458.562 26.6925 472.653 34.3347 482.347C41.9768 492.04 56.0756 493.711 65.7736 486.073C75.4716 478.434 77.143 464.342 69.5009 454.648C61.8587 444.955 47.7604 443.285 38.0624 450.923Z" fill="white"></path><path d="M891.482 861.91L852.432 923L819.025 858.649L891.482 861.91ZM853.46 899.803L870.851 872.589L838.569 871.138L853.437 899.82L853.46 899.803Z" fill="white"></path><path d="M1370.47 668.878C1362.9 650.238 1371.93 628.9 1390.58 621.338C1409.23 613.777 1430.58 622.802 1438.14 641.442L1425.24 646.685C1420.57 635.149 1407.37 629.567 1395.83 634.235C1384.29 638.902 1378.7 652.099 1383.39 663.66L1370.48 668.903L1370.47 668.878Z" fill="white"></path><path d="M1595.52 549.589C1614.42 542.69 1635.44 552.462 1642.34 571.357C1649.24 590.252 1639.47 611.259 1620.56 618.158L1615.77 605.085C1627.47 600.827 1633.52 587.835 1629.26 576.142C1625 564.449 1612 558.405 1600.28 562.677L1595.49 549.603L1595.52 549.589Z" fill="white"></path><path d="M1415.59 68.56C1406.05 50.8488 1412.72 28.6587 1430.44 19.123C1448.16 9.58737 1470.36 16.2491 1479.9 33.9603L1467.64 40.5692C1461.75 29.6067 1448.02 25.4864 1437.05 31.3758C1426.08 37.2652 1421.96 50.9887 1427.87 61.974L1415.61 68.5829L1415.59 68.56Z" fill="white"></path><path d="M1193.18 351.099L1197.43 340.293L1209.45 345.008L1215.31 326.818L1233.11 333.788L1238.97 315.598L1262.52 324.819L1258.29 335.607L1246.23 330.886L1240.37 349.118L1222.56 342.147L1216.73 360.319L1193.18 351.099Z" fill="white"></path><path d="M826.885 744.953L823.391 733.885L835.722 730.005L828.889 712.185L847.135 706.446L840.292 688.599L864.436 681.037L867.929 692.105L855.561 695.968L862.414 713.842L844.158 719.555L851.001 737.401L826.885 744.953Z" fill="white"></path><path d="M1001.42 534.011L1012.68 531.167L1015.84 543.696L1034.03 537.912L1038.71 556.452L1056.93 550.658L1063.08 575.19L1051.82 578.033L1048.68 565.467L1030.43 571.269L1025.79 552.72L1007.56 558.514L1001.42 534.011Z" fill="white"></path><path d="M746.6 73.9876L757.857 71.1436L761.016 83.6729L779.211 77.8885L783.885 96.4282L802.107 90.635L808.259 115.166L797.002 118.009L793.861 105.443L775.611 111.245L770.965 92.697L752.743 98.4902L746.6 73.9876Z" fill="white"></path><path d="M1126.63 162.793L1064.58 125.25L1128.14 90.3115L1126.63 162.793ZM1087.81 125.716L1115.45 142.435L1116.12 110.143L1087.79 125.693L1087.81 125.716Z" fill="white"></path><path d="M1637.96 305.187C1621.96 317.79 1598.68 315.056 1586.07 299.063C1573.46 283.07 1576.19 259.795 1592.22 247.17C1608.25 234.545 1631.51 237.301 1644.14 253.323C1656.77 269.344 1653.99 292.562 1637.96 305.187ZM1601.25 258.619C1591.55 266.257 1589.88 280.349 1597.52 290.042C1605.16 299.735 1619.26 301.406 1628.96 293.768C1638.66 286.129 1640.33 272.037 1632.69 262.344C1625.05 252.65 1610.95 250.98 1601.25 258.619Z" fill="white"></path><path d="M1237.59 827.312C1221.59 839.915 1198.3 837.181 1185.69 821.188C1173.08 805.195 1175.82 781.92 1191.85 769.295C1207.88 756.67 1231.13 759.426 1243.77 775.448C1256.4 791.469 1253.62 814.687 1237.59 827.312ZM1200.87 780.744C1191.18 788.382 1189.5 802.474 1197.15 812.167C1204.79 821.86 1218.89 823.531 1228.59 815.893C1238.28 808.254 1239.95 794.162 1232.31 784.469C1224.67 774.775 1210.57 773.105 1200.87 780.744Z" fill="white"></path><path d="M785.532 497.492C769.532 510.094 746.246 507.361 733.637 491.368C721.029 475.375 723.763 452.1 739.792 439.475C755.821 426.849 779.079 429.606 791.71 445.627C804.341 461.649 801.561 484.867 785.532 497.492ZM748.818 450.923C739.12 458.562 737.448 472.653 745.091 482.347C752.733 492.04 766.831 493.711 776.529 486.073C786.227 478.434 787.899 464.342 780.257 454.648C772.615 444.955 758.516 443.285 748.818 450.923Z" fill="white"></path><path d="M1602.24 861.91L1563.19 923L1529.78 858.649L1602.24 861.91ZM1564.22 899.803L1581.61 872.589L1549.32 871.138L1564.19 899.82L1564.22 899.803Z" fill="white"></path></g></svg> 