<?xml version="1.0" encoding="UTF-8"?> <svg xmlns="http://www.w3.org/2000/svg" width="200" height="74" viewBox="0 0 200 74" fill="none"><path d="M101.514 29.1438H96.095V25.4522C101.862 24.1706 105.846 19.0442 107.128 13.4302H110.611V25.4522H117.994V29.1438H110.611V50.0395C110.611 53.5221 111.112 54.8734 112.881 54.8734C114.507 54.6248 116.035 53.9359 117.297 52.8813L118.439 55.3749C115.528 57.9381 111.962 59.9998 108.688 59.9998C103.715 59.9998 101.5 57.0883 101.5 52.5331V29.1438H101.514Z" fill="#182849"></path><path d="M175.833 35.0502C175.123 29.8541 173.047 27.3745 168.868 27.3745C165.887 27.3745 163.672 29.2272 163.672 31.6372C163.672 38.6721 180.11 37.2094 180.11 48.5627C180.11 57.0325 174.203 59.9439 167.099 59.9439C163.854 59.9554 160.64 59.3257 157.64 58.0912V48.9946H160.621C160.621 54.4693 163.895 56.9628 167.948 56.9628C171.361 56.9628 173.284 55.1101 173.284 52.5469C173.284 45.2194 157.278 46.9747 157.278 35.2591C157.278 28.7814 161.972 24.3794 168.798 24.3794C172.194 24.4419 175.565 24.9764 178.814 25.9675V35.078H175.833V35.0502Z" fill="#182849"></path><path d="M81.1613 51.5439C78.9881 53.2573 77.4558 54.2464 75.6866 54.2464C73.9174 54.2464 72.7194 52.8533 72.3851 50.8055C72.3106 50.3449 72.2733 49.8791 72.2736 49.4125C72.2736 46.8493 72.8448 45.2333 76.8289 43.4363L81.1752 41.5836V51.5439H81.1613ZM91.5256 54.2464C90.7455 54.2464 90.3136 53.4663 90.3136 51.2653V33.0581C90.3136 27.2909 86.9703 24.3794 80.214 24.3794C75.1712 24.3794 70.6577 25.7724 64.9741 30.6063L66.7711 33.5317C69.5572 31.0521 72.9562 28.8093 75.9234 28.7814H76.1742C79.6568 28.7814 81.2309 30.4113 81.2309 33.7546V38.5885L76.1045 40.4552C64.584 44.7876 63.1631 47.4204 63.1631 51.9061C63.1631 52.1011 63.1631 52.2822 63.1631 52.4772C63.386 56.9907 66.2557 59.944 70.7552 59.944C74.0289 59.944 77.3025 58.6623 81.3563 54.4693C81.3563 58.4534 83.6966 59.944 85.9812 59.944C88.2658 59.944 91.3863 58.1609 95.0918 55.3887L94.0331 52.9648C93.3377 53.624 92.4672 54.0689 91.5256 54.2464Z" fill="#182849"></path><path d="M39.8297 55.7927H35.553V37.1119H39.4954C45.5551 37.1119 49.0238 40.7896 49.0238 46.32C49.074 47.9312 48.8041 49.5363 48.2298 51.0424C46.8367 54.3997 43.7999 55.8484 39.8715 55.8484M35.553 17.1356H39.4396C42.6019 17.1356 44.4685 17.9714 45.8755 19.5874C47.1679 21.1486 47.8333 23.1348 47.7422 25.1596C47.7502 26.0996 47.633 27.0365 47.3939 27.9457C46.3631 31.7208 43.0755 33.699 38.0884 33.699H35.553V17.1356ZM48.6338 35.1059V34.9806C52.6179 33.9776 54.9721 32.3338 56.3095 30.3417C57.3927 28.6189 57.9271 26.6077 57.8418 24.5745C57.8418 17.7485 52.6875 13.7505 43.9113 13.7505C40.3033 13.7505 34.6336 14.0012 29.9808 14.0012C26.735 14.043 23.6424 13.9177 20.4802 13.7923V16.4948C24.9241 16.4948 25.1887 17.5257 25.1887 20.4928V52.4355C25.1887 55.4027 24.938 56.4335 20.4942 56.4335V59.136C23.6564 59.0107 26.7489 58.8714 29.8972 58.8714C34.2714 58.8714 39.565 59.136 43.8277 59.136C49.7343 59.136 54.3174 57.2972 56.9363 53.9539C58.6273 51.7012 59.5017 48.9404 59.416 46.125C59.416 40.3299 55.4876 35.886 48.6616 35.1059" fill="#182849"></path><path d="M136.73 27.3608C141.425 27.3608 142.567 31.5399 142.637 37.2514H130.977C130.977 31.0663 132.607 27.3608 136.744 27.3608M140.715 53.5501C134.669 53.5501 131.186 48.0754 130.963 40.539H151.748C151.748 30.509 146.551 24.3936 137.232 24.3936C129.124 24.3936 121.908 30.3697 121.908 42.74C121.908 53.9819 128.595 59.9581 136.703 59.9581C142.47 59.9581 146.593 57.9661 153.21 51.0705L151.218 48.4376C147.875 52.0595 144.601 53.564 140.756 53.564" fill="#182849"></path></svg> 