<?xml version="1.0" encoding="UTF-8"?> <svg xmlns="http://www.w3.org/2000/svg" width="159" height="44" viewBox="0 0 159 44" fill="none"><g clip-path="url(#clip0_2724_4198)"><path d="M50 3.86475H51.4L56.8 10.9999V3.86475H58.3V13.1801H56.8L51.4 5.94583V13.1801H50V3.86475Z" fill="white"></path><path d="M60.6 9.117V3.86475H62V8.9188C62 11.3963 63.6 11.8918 64.6 11.8918C65.7 11.8918 67.3 11.2972 67.3 8.9188V3.86475H68.7V9.117C68.7 12.1891 67.2 13.3783 64.6 13.3783C62.2 13.3783 60.6 12.1891 60.6 9.117Z" fill="white"></path><path d="M78.4 8.42326C78.4 7.13497 77.9 5.05389 75.4 5.05389C72.9 5.05389 72.4 7.13497 72.4 8.42326C72.4 9.81065 73 11.9908 75.4 11.9908C77.7 11.9908 78.4 9.90975 78.4 8.42326ZM70.9 8.42326C70.9 6.44128 71.8 3.6665 75.4 3.6665C79 3.6665 79.9 6.44128 79.9 8.42326C79.9 10.6034 78.8 13.3782 75.4 13.3782C72 13.3782 70.9 10.6034 70.9 8.42326Z" fill="white"></path><path d="M81.1 3.86475H82.7L85.7 11.6936L88.7 3.86475H90.2L86.6 13.1801H84.8L81.1 3.86475Z" fill="white"></path><path d="M96.9 9.0179L95.2 4.95484L93.6 9.0179H96.9ZM94.4 3.86475H96.1L100 13.1801H98.5L97.3 10.4053H93L91.8 13.1801H90.3L94.4 3.86475Z" fill="white"></path><path d="M56.4 22.5946L54.8 18.5315L53.2 22.5946H56.4ZM53.9 17.4414H55.6L59.5 26.7567H58L56.8 23.9819H52.5L51.5 26.7567H50L53.9 17.4414Z" fill="white"></path><path d="M61 21.9999C61 18.7297 62.9 17.2432 65.4 17.2432C67.3 17.2432 69.5 18.1351 69.7 20.5134H68.2C67.9 19.2251 66.7 18.6306 65.5 18.6306C63.8 18.6306 62.5 19.6215 62.5 21.9999C62.5 24.3783 63.8 25.5675 65.6 25.5675C67.2 25.5675 68 24.5765 68.2 23.7837H69.8C69.6 24.9729 68.5 26.9549 65.6 26.9549C62.9 26.9549 61 25.2702 61 21.9999Z" fill="white"></path><path d="M71.7 21.9999C71.7 18.7297 73.6 17.2432 76.1 17.2432C78 17.2432 80.2 18.1351 80.4 20.5134H78.9C78.6 19.2251 77.4 18.6306 76.2 18.6306C74.5 18.6306 73.2 19.6215 73.2 21.9999C73.2 24.3783 74.5 25.5675 76.3 25.5675C77.9 25.5675 78.7 24.5765 78.9 23.7837H80.5C80.3 24.9729 79.2 26.9549 76.3 26.9549C73.6 26.9549 71.7 25.2702 71.7 21.9999Z" fill="white"></path><path d="M88.2 22.5946L86.6 18.5315L85 22.5946H88.2ZM85.7 17.4414H87.4L91.3 26.7567H89.8L88.6 23.9819H84.3L83.2 26.7567H81.7L85.7 17.4414Z" fill="white"></path><path d="M97.3 25.4684C99.6 25.4684 100.6 23.9819 100.6 22C100.6 20.4144 99.9 18.8288 97.3 18.8288H94.4V25.4684H97.3ZM93 17.4414H97.3C100.7 17.4414 102 19.4234 102 22.0991C102 24.7747 100.7 26.7567 97.3 26.7567H94.4H93V17.4414Z" fill="white"></path><path d="M104.1 17.4414H111.6V18.8288H105.6V21.3063H111.2V22.6937H105.6V25.4684H111.8V26.7567H104.1V17.4414Z" fill="white"></path><path d="M114.2 17.4414H115.7L119.1 25.5675L122.5 17.4414H124.1V26.7567H122.6V20.4144L120.1 26.7567H118.1L115.6 20.4144V26.7567H114.2V17.4414Z" fill="white"></path><path d="M127.8 17.4414H126.4V26.7567H127.8V17.4414Z" fill="white"></path><path d="M136 22.5946L134.4 18.5315L132.8 22.5946H136ZM133.5 17.4414H135.2L139.1 26.7567H137.6L136.4 23.9819H132.1L131 26.7567H129.5L133.5 17.4414Z" fill="white"></path><path d="M54.3 38.8469C56.6 38.8469 57.6 37.3604 57.6 35.3784C57.6 33.7928 56.9 32.2072 54.3 32.2072H51.4V38.8469H54.3ZM50 30.9189H54.3C57.7 30.9189 59 32.9009 59 35.5766C59 38.2523 57.7 40.2343 54.3 40.2343H51.4H50V30.9189Z" fill="white"></path><path d="M62.5 30.9189H61.1V40.2343H62.5V30.9189Z" fill="white"></path><path d="M74.2 38.8469C76.8 38.8469 77.4 38.3514 77.4 37.4595C77.4 36.2703 76.5 36.0721 74.2 36.0721H71.2V38.946H74.2V38.8469ZM74.2 34.6847C76 34.6847 76.7 34.1892 76.7 33.2973C76.7 32.4054 76 32.2072 74.3 32.2072H71.2V34.6847H74.2ZM69.8 30.9189H74.3C77.1 30.9189 78.1 31.7117 78.1 33.0991C78.1 34.6847 76.9 35.0811 75.8 35.2793C77 35.3784 78.7 35.4775 78.7 37.5586C78.7 39.2433 77.7 40.1352 74.1 40.1352H69.7V30.9189H69.8Z" fill="white"></path><path d="M80.9 30.9189H88.3V32.2072H82.3V34.6847H87.9V36.0721H82.3V38.8469H88.6V40.1352H80.9V30.9189Z" fill="white"></path><path d="M90.9 30.9189H92.3V38.8469H98.6V40.1352H90.9V30.9189Z" fill="white"></path><path d="M100.9 30.9189H102.4V38.8469H108.6V40.1352H100.9V30.9189Z" fill="white"></path><path d="M111 30.9189H118.4V32.2072H112.4V34.6847H118V36.0721H112.4V38.8469H118.7V40.1352H111V30.9189Z" fill="white"></path><path d="M131.6 36.0721L130 32.009L128.4 36.0721H131.6ZM129.1 30.9189H130.8L134.7 40.2343H133.2L132 37.4595H127.7L126.5 40.2343H125L129.1 30.9189Z" fill="white"></path><path d="M141.8 34.982C143 34.982 143.8 34.5856 143.8 33.5946C143.8 32.5045 142.8 32.1081 141.8 32.1081H137.9V34.8829H141.8V34.982ZM136.5 30.9189H141.8C144.2 30.9189 145.1 32.1081 145.1 33.4955C145.1 34.7838 144.3 35.4775 143 35.6757C143.7 35.6757 144.9 35.973 144.9 37.6577V38.8469C144.9 39.8379 145.2 40.1352 145.2 40.1352H143.7C143.7 40.1352 143.4 39.7388 143.4 38.8469V37.6577C143.4 36.4685 142.3 36.2703 141.6 36.2703H137.9V40.1352H136.5V30.9189Z" fill="white"></path><path d="M150.6 32.2072H146.8V30.9189H155.7V32.2072H152V40.1352H150.6V32.2072Z" fill="white"></path><path d="M159 30.9189H157.6V40.2343H159V30.9189Z" fill="white"></path><path d="M37.7998 6.63965L44.4004 44H0V0L37.7998 6.63965ZM29.5 15.3604L30.7002 15.5586L31.2998 13.3779L34.7002 13.874L36 16.252L37.0996 16.3516L32.9004 8.62109L31.5996 8.42285L29.5 15.3604ZM22.2998 14.3691L25.5 14.7656C28.4999 15.162 29.2 14.4684 29 13.0811C28.8 11.3965 27.4004 11.0986 26.4004 10.9004C27.3003 10.9003 28.2 10.7022 28 9.41406C27.8999 8.32414 26.9999 7.53167 24.7002 7.23438L21.5 6.73828L22.2998 14.3691ZM12.9004 13.0811L14.2998 13.2793L15.2002 11L19.0996 11.4951L20.4004 13.9727L21.7002 14.1709L17.5 6.04492L16 5.84668L12.9004 13.0811ZM25.0996 11.2969C26.9993 11.5941 27.8002 11.8916 27.9004 12.7832C28.0004 13.5759 27.5 13.8739 25.4004 13.6758L23.5 13.3779L23.2002 11L25.0996 11.2969ZM4 11.9912L5.40039 12.1895L5.2998 5.84668L10.7998 12.8828L12.0996 12.9814L11.7002 5.15332L10.4004 4.95508L10.7002 11L5.2002 4.0625L3.7998 3.86523L4 11.9912ZM34.0996 12.5859L31.5996 12.2881L32.4004 9.31543L34.0996 12.5859ZM18.5 10.5049L15.5996 10.0088L16.7998 6.93652L18.5 10.5049ZM24.7998 8.22559C26.1997 8.42377 26.8003 8.72051 26.9004 9.41406C27.0004 10.1078 26.4 10.5043 25 10.207L23.0996 9.91016L22.7998 7.92773L24.7998 8.22559Z" fill="white"></path></g><defs><clipPath id="clip0_2724_4198"><rect width="159" height="44" fill="white"></rect></clipPath></defs></svg> 