<?xml version="1.0" encoding="UTF-8"?> <svg xmlns="http://www.w3.org/2000/svg" width="103" height="103" viewBox="0 0 103 103" fill="none"> <path d="M89.3386 38.8085L92.0128 46.9781C92.1725 47.4627 92.6215 47.7884 93.1404 47.7884H101.812C102.959 47.7884 103.438 49.2425 102.51 49.915L95.4953 54.968C95.0762 55.2647 94.9066 55.7988 95.0663 56.2834L97.7405 64.453C98.0997 65.531 96.8424 66.431 95.9144 65.7684L88.8995 60.7144C88.4804 60.4177 87.9216 60.4177 87.5125 60.7144L80.4976 65.7684C79.5696 66.4409 78.3223 65.5408 78.6716 64.453L81.3458 56.2834C81.5054 55.7988 81.3258 55.2746 80.9167 54.968L73.9018 49.915C72.9738 49.2425 73.4528 47.7884 74.6003 47.7884H83.2716C83.7805 47.7884 84.2396 47.4627 84.3992 46.9781L87.0735 38.8085C87.4327 37.7305 88.9694 37.7305 89.3286 38.8085H89.3386Z" fill="#182849"></path> <path d="M52.6277 38.8085L55.3019 46.9781C55.4616 47.4627 55.9106 47.7884 56.4295 47.7884H65.1008C66.2484 47.7884 66.7273 49.2425 65.7993 49.915L58.7844 54.968C58.3653 55.2647 58.1957 55.7988 58.3553 56.2834L61.0296 64.453C61.3888 65.531 60.1315 66.431 59.2035 65.7684L52.1886 60.7144C51.7695 60.4177 51.2107 60.4177 50.8016 60.7144L43.7866 65.7684C42.8586 66.4409 41.6114 65.5408 41.9606 64.453L44.6349 56.2834C44.7945 55.7988 44.6149 55.2746 44.2058 54.968L37.1908 49.915C36.2628 49.2425 36.7418 47.7884 37.8894 47.7884H46.5607C47.0696 47.7884 47.5286 47.4627 47.6883 46.9781L50.3625 38.8085C50.7217 37.7305 52.2585 37.7305 52.6177 38.8085H52.6277Z" fill="#182849"></path> <path d="M15.9265 38.8085L18.6008 46.9781C18.7604 47.4627 19.2095 47.7884 19.7283 47.7884H28.3997C29.5472 47.7884 30.0262 49.2425 29.0982 49.915L22.0833 54.968C21.6642 55.2647 21.4945 55.7988 21.6542 56.2834L24.3285 64.453C24.6877 65.531 23.4304 66.431 22.5024 65.7684L15.4875 60.7144C15.0684 60.4177 14.5096 60.4177 14.1005 60.7144L7.08556 65.7684C6.15756 66.4409 4.91022 65.5408 5.25947 64.453L7.93371 56.2834C8.09337 55.7988 7.91376 55.2746 7.50464 54.968L0.489735 49.915C-0.438268 49.2425 0.0407136 47.7884 1.18824 47.7884H9.85959C10.3685 47.7884 10.8275 47.4627 10.9871 46.9781L13.6614 38.8085C14.0206 37.7305 15.5573 37.7305 15.9165 38.8085H15.9265Z" fill="#182849"></path> </svg> 