<?xml version="1.0" encoding="UTF-8"?> <svg xmlns="http://www.w3.org/2000/svg" width="413" height="64" viewBox="0 0 413 64" fill="none"><path fill-rule="evenodd" clip-rule="evenodd" d="M319.224 3.297C319.864 3.26759 320.499 3.38639 321.104 3.67169C322.234 4.204 322.959 5.17666 323.416 6.06362C324.059 7.31394 324.394 8.83125 324.484 10.1678C325.002 10.4168 325.619 10.771 326.215 11.2589C326.973 11.8782 327.75 12.7565 328.203 13.9539C328.522 14.7974 328.653 15.7291 328.559 16.7359C331.036 18.774 331.854 21.6151 331.595 24.2834C331.38 26.4919 330.431 28.6502 329.056 30.2802C330.286 32.2533 330.746 34.8474 330.566 37.3551C330.342 40.4738 329.117 43.8456 326.655 46.5096C326.308 52.778 321.991 56.1772 318.159 56.8446C317.619 58.1135 316.874 59.4571 315.714 60.4796C314.061 61.9376 311.848 62.5166 309.016 62.0101L308.946 61.9974L308.876 61.9796C307.8 61.7039 306.283 61.1374 305.478 59.6074C304.775 58.2721 304.872 56.6957 305.401 55.0112C305.121 54.1096 304.851 52.9359 304.734 51.6893C303.34 52.3771 301.844 52.7633 300.303 52.7983C299.242 52.8224 298.19 52.6792 297.168 52.3725C297.584 54.2527 297.617 56.4458 296.358 58.1798C296.64 59.4306 296.424 60.5812 295.921 61.5237C295.312 62.6662 294.309 63.4512 293.467 63.7673C292.63 64.0816 291.762 64.0292 291.088 63.8914C290.384 63.7473 289.692 63.47 289.089 63.1212C288.111 62.5559 287.224 61.6462 286.847 60.1645C283.786 60.5119 281.05 59.4041 279.398 57.7311C278.484 56.8056 277.758 55.5507 277.74 54.1363C277.738 53.9847 277.744 53.8353 277.758 53.6883C276.45 53.4158 275.349 53.0221 274.447 52.5036C272.845 51.5834 271.874 50.2639 271.588 48.6997C271.319 47.2296 271.704 45.8104 272.231 44.6731C272.416 44.2732 272.628 43.887 272.857 43.5196C272.335 43.0999 271.839 42.6239 271.385 42.118C270.334 40.9475 269.394 39.4903 268.829 37.9145C268.265 36.3431 268.032 34.5255 268.602 32.7523C268.916 31.7743 269.449 30.8877 270.197 30.1152C268.637 28.6416 267.497 26.7312 267.231 24.5975C266.896 21.9084 267.993 19.3148 270.54 17.2447C270.164 16.5303 269.935 15.7461 269.819 14.996C269.552 13.2706 269.793 11.2964 270.578 9.48112C271.371 7.64761 272.749 5.91259 274.804 4.77583C276.659 3.75039 278.947 3.27667 281.641 3.53644C282.602 2.7335 283.906 1.85379 285.316 1.33436C286.675 0.834275 288.463 0.579742 290.057 1.41401C291.78 0.385695 293.786 0.303626 295.465 0.919145C297.08 1.51099 298.51 2.808 299.063 4.59487C299.476 4.734 299.851 4.94078 300.184 5.1893C300.955 4.10404 301.946 3.13213 302.997 2.38314C304.163 1.55283 305.581 0.870633 307.01 0.766591C307.747 0.712909 308.552 0.810186 309.311 1.19222C309.385 1.22963 309.458 1.2692 309.529 1.31088C311.729 -0.103077 313.932 -0.333764 315.874 0.429178C317.356 1.0113 318.488 2.10136 319.224 3.297ZM302.516 9.52921C302.52 9.55742 302.525 9.58562 302.529 9.61382C302.53 9.63008 302.532 9.64603 302.533 9.66165C302.537 9.70159 302.543 9.73938 302.55 9.77515L298.723 10.5324C298.704 10.4355 298.688 10.3386 298.674 10.2418L298.678 10.2379C298.675 10.219 298.672 10.1999 298.669 10.1809C298.666 10.1631 298.663 10.1454 298.66 10.1277C298.664 10.1657 298.669 10.2038 298.674 10.2418C298.664 10.2513 298.652 10.2617 298.639 10.2729C298.551 10.3474 298.435 10.4215 298.313 10.481C298.254 10.5096 298.204 10.5303 298.166 10.5437C298.139 10.5531 298.126 10.5567 298.126 10.5567C298.126 10.5567 298.13 10.5557 298.137 10.5542L298.912 14.3804C299.581 14.2449 300.45 13.8544 301.162 13.2511C301.885 12.638 302.772 11.4994 302.572 9.90923C302.559 9.81098 302.545 9.71245 302.529 9.61382C302.503 9.18474 302.666 8.53249 303.176 7.73117C303.688 6.92527 304.442 6.14635 305.26 5.56354C306.106 4.9608 306.841 4.69329 307.293 4.6604C307.393 4.65309 307.462 4.65875 307.504 4.66582C307.525 4.66929 307.538 4.67305 307.546 4.67566C307.552 4.67736 307.557 4.67945 307.557 4.67945L307.559 4.68134C307.564 4.68653 307.588 4.7126 307.622 4.77813L308.77 7.03401L310.658 5.34861C312.51 3.69493 313.758 3.7918 314.449 4.06337C315.323 4.40657 316.018 5.29832 316.252 6.1197L316.898 8.38083L319 7.329C319.227 7.21534 319.354 7.19945 319.396 7.19735C319.426 7.19583 319.433 7.19927 319.441 7.20308L319.442 7.20381C319.49 7.2264 319.697 7.36356 319.947 7.85067C320.458 8.84267 320.676 10.3649 320.592 11.3328L320.448 12.9799L322.035 13.389L322.038 13.3898C322.041 13.3905 322.044 13.3916 322.049 13.393C322.067 13.3982 322.101 13.4083 322.148 13.4238C322.243 13.4551 322.389 13.5069 322.564 13.582C322.925 13.7363 323.362 13.9675 323.747 14.2821C324.128 14.594 324.406 14.9441 324.554 15.3364C324.693 15.7039 324.773 16.2477 324.54 17.0713L324.135 18.4995L325.402 19.2714C327.296 20.4252 327.885 22.1293 327.712 23.9053C327.528 25.7984 326.472 27.6267 325.231 28.5779L323.36 30.0117L325.117 31.5831C326.106 32.4674 326.862 34.4663 326.675 37.0751C326.493 39.6013 325.436 42.2978 323.374 44.2847L322.776 44.8606V45.6908C322.776 50.9903 319.012 53.063 316.781 53.063H315.416L314.948 54.3459C314.401 55.8477 313.862 56.9096 313.135 57.5503C312.546 58.0696 311.622 58.4949 309.775 58.1795C309.435 58.0882 309.216 57.9962 309.079 57.914C308.956 57.8405 308.934 57.797 308.93 57.7892C308.922 57.7729 308.691 57.3014 309.29 55.6984L309.546 55.0136L309.289 54.329C309.029 53.6354 308.697 52.4084 308.602 51.1291C308.507 49.8534 308.671 48.8377 309.046 48.2023C312.641 43.8436 314.48 36.7593 312.972 27.9251L312.695 26.3016H311.049C310.373 26.3016 309.319 26.0053 308.457 25.4044C307.611 24.8144 307.246 24.1575 307.246 23.523V20.7529L304.639 21.6847C304.636 21.6858 304.633 21.6869 304.63 21.6881C304.554 21.7165 304.395 21.7754 303.917 21.3862C303.363 20.9348 302.814 20.2163 302.141 19.3129L302.13 19.2973C301.899 18.9868 301.65 18.6524 301.403 18.346L298.335 14.5277L297.944 19.3477C297.933 19.3758 297.89 19.4759 297.768 19.6459C297.581 19.9083 297.283 20.2243 296.889 20.5291C296.081 21.1528 295.079 21.571 294.129 21.571H291.493L292.264 24.0936C292.335 24.327 292.33 24.4483 292.326 24.4857C292.322 24.514 292.318 24.5194 292.311 24.5294C292.278 24.5794 292.104 24.7658 291.572 24.9559C290.498 25.3393 288.899 25.407 287.698 25.3033L285.58 25.1205V27.2481C285.58 37.0818 287.774 44.0076 291.181 48.1793C292.051 49.66 292.813 51.2389 293.221 52.6706C293.812 54.7481 293.477 55.7303 292.904 56.1925L291.682 57.1792L292.385 58.5846C292.555 58.9257 292.584 59.1593 292.582 59.2997C292.579 59.4427 292.543 59.5673 292.48 59.6852C292.413 59.8108 292.316 59.9265 292.212 60.0179C292.17 60.0542 292.136 60.0794 292.112 60.0959C292.07 60.0957 291.991 60.0913 291.87 60.0664C291.617 60.0147 291.317 59.9008 291.041 59.7411C290.893 59.6557 290.818 59.585 290.772 59.5269C290.731 59.4744 290.667 59.3741 290.618 59.1636C290.569 58.9499 290.541 58.5982 290.638 58.0535L291.24 54.6654L288.025 55.8867C287.709 56.0068 287.4 56.0993 287.099 56.1675C284.897 56.6672 283.065 55.8907 282.172 54.9865C281.714 54.5229 281.642 54.1796 281.641 54.0862C281.64 54.0585 281.644 54.053 281.649 54.0439L281.65 54.0425C281.66 54.0265 281.719 53.9369 281.921 53.8174L287.374 50.603L281.059 50.1876C278.636 50.0283 277.198 49.5826 276.389 49.1177C275.649 48.6925 275.479 48.2875 275.425 47.9965C275.355 47.6115 275.432 47.045 275.77 46.3147C276.1 45.6024 276.607 44.8929 277.138 44.3158L279.033 42.2539L276.444 41.1887C275.866 40.9511 275.07 40.3818 274.287 39.5088C273.517 38.6518 272.869 37.6223 272.5 36.5956C272.131 35.5646 272.085 34.6641 272.316 33.947C272.53 33.2804 273.06 32.5241 274.36 31.8736L277.655 30.2246L274.44 28.4242C272.519 27.3484 271.295 25.659 271.102 24.1145C270.936 22.7776 271.481 20.9691 274.442 19.3063L277.641 17.51L274.364 15.8602C274.229 15.7923 273.834 15.4344 273.674 14.3987C273.524 13.4302 273.654 12.1992 274.159 11.0321C274.655 9.88323 275.487 8.8587 276.691 8.1929C277.886 7.53235 279.592 7.14449 281.982 7.51242L282.937 7.65946L283.632 6.9884C284.36 6.28651 285.538 5.41267 286.664 4.9983C287.784 4.58568 288.264 4.78591 288.578 5.15608L289.988 6.81613L291.483 5.23217C292.256 4.41257 293.281 4.2762 294.123 4.58508C294.981 4.89937 295.44 5.56781 295.401 6.32805L295.263 8.99946L297.847 8.3159L297.851 8.3149C297.881 8.33634 297.934 8.38238 298.007 8.47294C298.27 8.80126 298.53 9.40602 298.66 10.1277M300.032 22.9641C299.794 23.1933 299.54 23.4132 299.272 23.6202C298.428 24.2717 297.363 24.861 296.163 25.193C296.067 25.7321 295.862 26.2471 295.539 26.7222C294.851 27.7372 293.803 28.3044 292.882 28.6331C291.819 29.0128 290.617 29.1824 289.514 29.2335C289.792 37.5368 291.817 42.8494 294.28 45.8038C296.166 48.0663 298.284 48.9391 300.215 48.8952C302.171 48.8508 304.239 47.8575 305.97 45.7979C308.539 42.7405 310.291 37.3626 309.339 29.9945C308.266 29.741 307.171 29.2661 306.226 28.6074C305.211 27.8995 304.231 26.8715 303.716 25.5367C302.824 25.3581 302.056 24.9041 301.455 24.414C300.933 23.9887 300.454 23.4735 300.032 22.9641Z" fill="#182849"></path><path d="M343.721 43.5914C342.005 43.5914 340.707 43.1082 339.827 42.142C338.947 41.1542 338.507 39.7478 338.507 37.9226V36.6343H341.855V38.1803C341.855 39.6404 342.466 40.3705 343.689 40.3705C344.29 40.3705 344.741 40.1987 345.041 39.8551C345.363 39.4901 345.524 38.9103 345.524 38.1159C345.524 37.1711 345.309 36.3444 344.88 35.6358C344.451 34.9057 343.657 34.0361 342.498 33.0269C341.039 31.7385 340.02 30.579 339.441 29.5483C338.861 28.4962 338.572 27.3152 338.572 26.0053C338.572 24.2231 339.022 22.8489 339.924 21.8826C340.825 20.8949 342.134 20.401 343.85 20.401C345.545 20.401 346.822 20.8949 347.68 21.8826C348.56 22.8489 349 24.2446 349 26.0698V27.0038H345.653V25.8443C345.653 25.0713 345.502 24.513 345.202 24.1694C344.902 23.8044 344.462 23.6219 343.882 23.6219C342.702 23.6219 342.112 24.3412 342.112 25.7799C342.112 26.5958 342.327 27.3581 342.756 28.0667C343.206 28.7753 344.011 29.6342 345.17 30.6434C346.65 31.9318 347.67 33.102 348.227 34.1542C348.785 35.2063 349.064 36.441 349.064 37.8582C349.064 39.7048 348.603 41.122 347.68 42.1098C346.779 43.0975 345.459 43.5914 343.721 43.5914Z" fill="#182849"></path><path d="M353.736 20.7231H358.531L362.2 43.2693H358.66L358.016 38.7922V38.8567H353.993L353.349 43.2693H350.066L353.736 20.7231ZM357.598 35.7968L356.021 24.6526H355.956L354.411 35.7968H357.598Z" fill="#182849"></path><path d="M363.918 20.7231H367.458V30.2247L371.964 20.7231H375.505L371.288 29.0008L375.569 43.2693H371.868L368.874 33.2201L367.458 36.0867V43.2693H363.918V20.7231Z" fill="#182849"></path><path d="M381.627 43.5914C379.911 43.5914 378.612 43.1082 377.733 42.142C376.853 41.1542 376.413 39.7478 376.413 37.9226V36.6343H379.76V38.1803C379.76 39.6404 380.372 40.3705 381.595 40.3705C382.196 40.3705 382.646 40.1987 382.947 39.8551C383.269 39.4901 383.43 38.9103 383.43 38.1159C383.43 37.1711 383.215 36.3444 382.786 35.6358C382.357 34.9057 381.563 34.0361 380.404 33.0269C378.945 31.7385 377.926 30.579 377.347 29.5483C376.767 28.4962 376.478 27.3152 376.478 26.0053C376.478 24.2231 376.928 22.8489 377.829 21.8826C378.73 20.8949 380.039 20.401 381.756 20.401C383.451 20.401 384.728 20.8949 385.586 21.8826C386.466 22.8489 386.906 24.2446 386.906 26.0698V27.0038H383.558V25.8443C383.558 25.0713 383.408 24.513 383.108 24.1694C382.807 23.8044 382.367 23.6219 381.788 23.6219C380.608 23.6219 380.018 24.3412 380.018 25.7799C380.018 26.5958 380.232 27.3581 380.662 28.0667C381.112 28.7753 381.917 29.6342 383.075 30.6434C384.556 31.9318 385.575 33.102 386.133 34.1542C386.691 35.2063 386.97 36.441 386.97 37.8582C386.97 39.7048 386.509 41.122 385.586 42.1098C384.685 43.0975 383.365 43.5914 381.627 43.5914Z" fill="#182849"></path><path d="M394.117 43.5914C392.379 43.5914 391.049 43.0975 390.126 42.1098C389.204 41.122 388.742 39.7263 388.742 37.9226V26.0698C388.742 24.2661 389.204 22.8704 390.126 21.8826C391.049 20.8949 392.379 20.401 394.117 20.401C395.855 20.401 397.186 20.8949 398.108 21.8826C399.031 22.8704 399.492 24.2661 399.492 26.0698V37.9226C399.492 39.7263 399.031 41.122 398.108 42.1098C397.186 43.0975 395.855 43.5914 394.117 43.5914ZM394.117 40.3705C395.34 40.3705 395.952 39.6297 395.952 38.1481V25.8443C395.952 24.3627 395.34 23.6219 394.117 23.6219C392.894 23.6219 392.283 24.3627 392.283 25.8443V38.1481C392.283 39.6297 392.894 40.3705 394.117 40.3705Z" fill="#182849"></path><path d="M401.887 20.7231H406.328L409.772 34.2186H409.836V20.7231H412.99V43.2693H409.353L405.105 26.8106H405.041V43.2693H401.887V20.7231Z" fill="#182849"></path><path fill-rule="evenodd" clip-rule="evenodd" d="M339.82 42.1485L339.82 42.1485C338.938 41.1584 338.498 39.7493 338.498 37.9226V36.6245H341.864V38.1803C341.864 38.9092 342.017 39.4541 342.321 39.8167C342.624 40.1789 343.08 40.3607 343.689 40.3607C344.288 40.3607 344.736 40.1895 345.034 39.8487L345.034 39.8487C345.353 39.4863 345.514 38.9094 345.514 38.1159C345.514 37.1726 345.3 36.3477 344.872 35.6408L344.872 35.6407C344.443 34.912 343.65 34.0432 342.492 33.0342L342.492 33.0342C341.032 31.7455 340.012 30.5852 339.432 29.5531L339.432 29.553C338.852 28.4993 338.562 27.3167 338.562 26.0054C338.562 24.2216 339.013 22.8446 339.916 21.876C340.82 20.8857 342.132 20.3913 343.85 20.3913C345.547 20.3913 346.827 20.8857 347.687 21.8761C348.569 22.8448 349.009 24.2432 349.009 26.0698V27.0136H345.643V25.8443C345.643 25.0722 345.493 24.5168 345.195 24.1759L345.194 24.1758L345.194 24.1757C344.896 23.8134 344.459 23.6317 343.882 23.6317C343.294 23.6317 342.855 23.8108 342.562 24.1676C342.269 24.5248 342.122 25.0617 342.122 25.7799C342.122 26.594 342.336 27.3545 342.764 28.0616C343.214 28.769 344.018 29.6271 345.176 30.6361C346.657 31.9248 347.677 33.0959 348.236 34.1496C348.795 35.2034 349.074 36.4397 349.074 37.8582C349.074 39.7064 348.612 41.1263 347.687 42.1164C346.784 43.1067 345.461 43.6011 343.721 43.6011C342.003 43.6011 340.702 43.1174 339.82 42.1485ZM347.68 42.1098C348.603 41.122 349.064 39.7048 349.064 37.8582C349.064 36.441 348.785 35.2063 348.227 34.1542C347.669 33.102 346.65 31.9318 345.17 30.6434C344.011 29.6342 343.206 28.7753 342.756 28.0667C342.327 27.3581 342.112 26.5959 342.112 25.7799C342.112 24.3412 342.702 23.6219 343.882 23.6219C344.462 23.6219 344.901 23.8044 345.202 24.1695C345.502 24.513 345.652 25.0713 345.652 25.8443V27.0038H349V26.0698C349 24.2446 348.56 22.8489 347.68 21.8826C346.822 20.8949 345.545 20.401 343.85 20.401C342.134 20.401 340.825 20.8949 339.923 21.8826C339.022 22.8489 338.572 24.2231 338.572 26.0054C338.572 27.3152 338.861 28.4962 339.441 29.5483C340.02 30.579 341.039 31.7385 342.498 33.0269C343.657 34.0361 344.451 34.9057 344.88 35.6358C345.309 36.3444 345.524 37.1711 345.524 38.1159C345.524 38.9104 345.363 39.4901 345.041 39.8551C344.741 40.1987 344.29 40.3705 343.689 40.3705C342.466 40.3705 341.855 39.6404 341.855 38.1803V36.6343H338.507V37.9226C338.507 39.7478 338.947 41.1542 339.827 42.142C340.707 43.1082 342.005 43.5914 343.721 43.5914C345.459 43.5914 346.779 43.0975 347.68 42.1098ZM353.727 20.7134H358.539L362.212 43.279H358.651L358.017 38.8664H354.001L353.358 43.279H350.055L353.727 20.7134ZM353.993 38.8567H358.016V38.7923L358.66 43.2693H362.2L358.531 20.7231H353.735L350.066 43.2693H353.349L353.993 38.8567ZM363.908 20.7134H367.468V30.1814L371.958 20.7134H375.52L371.299 29.0017L375.582 43.279H371.86L368.872 33.2467L367.468 36.089V43.279H363.908V20.7134ZM367.458 36.0867L368.874 33.2201L371.868 43.2693H375.569L371.288 29.0008L375.505 20.7231H371.964L367.458 30.2247V20.7231H363.918V43.2693H367.458V36.0867ZM377.725 42.1485L377.725 42.1485C376.843 41.1584 376.403 39.7493 376.403 37.9226V36.6245H379.77V38.1803C379.77 38.9092 379.923 39.4541 380.226 39.8167C380.53 40.1789 380.985 40.3607 381.595 40.3607C382.194 40.3607 382.641 40.1895 382.939 39.8487L382.939 39.8487C383.259 39.4863 383.42 38.9094 383.42 38.1159C383.42 37.1726 383.205 36.3477 382.777 35.6408L382.777 35.6407C382.349 34.912 381.556 34.0432 380.398 33.0342L380.398 33.0342C378.938 31.7455 377.918 30.5852 377.338 29.5531L377.338 29.553C376.758 28.4993 376.468 27.3167 376.468 26.0054C376.468 24.2216 376.919 22.8447 377.822 21.8761C378.725 20.8857 380.037 20.3913 381.756 20.3913C383.453 20.3913 384.732 20.8857 385.593 21.8761C386.475 22.8447 386.915 24.2431 386.915 26.0698V27.0136H383.548V25.8443C383.548 25.0722 383.398 24.5168 383.1 24.1759L383.1 24.1758L383.1 24.1757C382.802 23.8134 382.365 23.6317 381.788 23.6317C381.2 23.6317 380.761 23.8108 380.468 24.1676C380.175 24.5248 380.027 25.0617 380.027 25.7799C380.027 26.594 380.242 27.3544 380.67 28.0615C381.12 28.7689 381.923 29.6271 383.082 30.6361C384.563 31.9248 385.583 33.0959 386.142 34.1496C386.7 35.2034 386.98 36.4397 386.98 37.8582C386.98 39.7064 386.518 41.1263 385.593 42.1164C384.689 43.1067 383.367 43.6011 381.627 43.6011C379.909 43.6011 378.607 43.1174 377.725 42.1485ZM385.586 42.1098C386.508 41.122 386.97 39.7048 386.97 37.8582C386.97 36.441 386.691 35.2063 386.133 34.1542C385.575 33.102 384.556 31.9318 383.075 30.6434C381.917 29.6342 381.112 28.7753 380.661 28.0667C380.232 27.3581 380.018 26.5959 380.018 25.7799C380.018 24.3412 380.608 23.6219 381.788 23.6219C382.367 23.6219 382.807 23.8044 383.108 24.1695C383.408 24.513 383.558 25.0713 383.558 25.8443V27.0038H386.905V26.0698C386.905 24.2446 386.466 22.8489 385.586 21.8826C384.728 20.8949 383.451 20.401 381.756 20.401C380.039 20.401 378.73 20.8949 377.829 21.8826C376.928 22.8489 376.477 24.2231 376.477 26.0054C376.477 27.3152 376.767 28.4962 377.346 29.5483C377.926 30.579 378.945 31.7385 380.404 33.0269C381.563 34.0361 382.357 34.9057 382.786 35.6358C383.215 36.3444 383.429 37.1711 383.429 38.1159C383.429 38.9104 383.268 39.4901 382.947 39.8551C382.646 40.1987 382.196 40.3705 381.595 40.3705C380.372 40.3705 379.76 39.6404 379.76 38.1803V36.6343H376.413V37.9226C376.413 39.7478 376.853 41.1542 377.733 42.142C378.612 43.1082 379.91 43.5914 381.627 43.5914C383.365 43.5914 384.685 43.0975 385.586 42.1098ZM401.877 20.7134H406.336L409.779 34.2088H409.826V20.7134H413V43.279H409.346L405.097 26.8203H405.05V43.279H401.877V20.7134ZM405.041 26.8106H405.105L409.353 43.2693H412.99V20.7231H409.836V34.2186H409.772L406.328 20.7231H401.886V43.2693H405.041V26.8106ZM356.012 24.6623H355.965L354.423 35.7871H357.586L356.012 24.6623ZM356.021 24.6526H355.956L354.411 35.7968H357.598L356.021 24.6526ZM394.117 43.6011C392.377 43.6011 391.044 43.1067 390.119 42.1164C389.194 41.1263 388.732 39.7279 388.732 37.9226V26.0698C388.732 24.2645 389.194 22.866 390.119 21.876C391.044 20.8857 392.377 20.3913 394.117 20.3913C395.857 20.3913 397.19 20.8857 398.115 21.876C399.04 22.866 399.502 24.2645 399.502 26.0698V37.9226C399.502 39.7279 399.04 41.1263 398.115 42.1164C397.19 43.1067 395.857 43.6011 394.117 43.6011ZM395.486 39.8087C395.789 39.4407 395.942 38.8878 395.942 38.1481V25.8443C395.942 25.1046 395.789 24.5516 395.486 24.1837C395.182 23.8162 394.727 23.6317 394.117 23.6317C393.508 23.6317 393.052 23.8162 392.749 24.1837C392.445 24.5516 392.292 25.1046 392.292 25.8443V38.1481C392.292 38.8878 392.445 39.4407 392.749 39.8087C393.052 40.1762 393.508 40.3607 394.117 40.3607C394.727 40.3607 395.182 40.1762 395.486 39.8087ZM394.117 43.5914C392.379 43.5914 391.049 43.0975 390.126 42.1098C389.204 41.122 388.742 39.7263 388.742 37.9226V26.0698C388.742 24.2661 389.204 22.8704 390.126 21.8826C391.049 20.8949 392.379 20.401 394.117 20.401C395.855 20.401 397.185 20.8949 398.108 21.8826C399.031 22.8704 399.492 24.2661 399.492 26.0698V37.9226C399.492 39.7263 399.031 41.122 398.108 42.1098C397.185 43.0975 395.855 43.5914 394.117 43.5914ZM394.117 40.3705C395.34 40.3705 395.952 39.6297 395.952 38.1481V25.8443C395.952 24.3627 395.34 23.6219 394.117 23.6219C392.894 23.6219 392.283 24.3627 392.283 25.8443V38.1481C392.283 39.6297 392.894 40.3705 394.117 40.3705Z" fill="#182849"></path><g clip-path="url(#clip0_1449_2948)"><path fill-rule="evenodd" clip-rule="evenodd" d="M102.404 28.5261C102.018 29.0484 101.477 29.4812 100.781 29.8245C100.085 30.1679 99.1811 30.3397 98.0693 30.3397C97.1611 30.3397 96.349 30.2213 95.6339 29.9845C94.9186 29.7474 94.3121 29.404 93.8144 28.9544C93.3161 28.5045 92.9374 27.9582 92.676 27.315C92.4152 26.6721 92.2848 25.9394 92.2848 25.117C92.2848 24.8416 92.2848 24.8417 92.2848 24.8417C92.2848 23.981 92.4152 23.2216 92.676 22.5637C92.9374 21.9061 93.3161 21.3528 93.8144 20.903C94.3121 20.4535 94.9186 20.1149 95.6339 19.8876C96.349 19.6603 97.1611 19.5465 98.0693 19.5465C99.6063 19.5465 100.855 19.8608 101.817 20.4897C102.778 21.1183 103.366 22.066 103.578 23.3328C102.042 23.3328 102.042 23.3328 102.042 23.3328C101.945 22.9555 101.783 22.6097 101.556 22.2954C101.329 21.9812 101.044 21.7153 100.701 21.4978C100.358 21.2802 99.9659 21.111 99.5266 20.9899C99.0865 20.8692 98.601 20.8087 98.0693 20.8087C97.3637 20.8087 96.7427 20.9101 96.2066 21.1131C95.67 21.3161 95.2228 21.6016 94.8656 21.9692C94.5078 22.3367 94.2396 22.7744 94.0606 23.2823C93.8818 23.7901 93.7926 24.3535 93.7926 24.9722C93.7926 25.5621 93.8818 26.1088 94.0606 26.6112C94.2396 27.1144 94.5078 27.5472 94.8656 27.9096C95.2228 28.2725 95.67 28.5577 96.2066 28.7654C96.7427 28.9739 97.3637 29.0774 98.0693 29.0774C98.7461 29.0774 99.3356 29.0004 99.8382 28.8457C100.341 28.6907 100.769 28.4781 101.121 28.2073C101.474 27.9365 101.754 27.6247 101.962 27.2716C102.17 26.9187 102.308 26.5438 102.375 26.1471C96.8807 26.1471 96.8807 26.1471 96.8807 26.1471V24.8417H103.825V30.0061H102.404V28.5261Z" fill="#182849"></path><path fill-rule="evenodd" clip-rule="evenodd" d="M98.0693 19.5482C97.1612 19.5482 96.3493 19.662 95.6344 19.8892C94.9193 20.1164 94.313 20.4549 93.8155 20.9042C93.3174 21.3539 92.9388 21.9069 92.6776 22.5643C92.4168 23.222 92.2865 23.9812 92.2865 24.8417V25.117C92.2865 25.9392 92.4168 26.6717 92.6776 27.3144C92.9388 27.9574 93.3174 28.5034 93.8155 28.9531C94.313 29.4026 94.9193 29.7459 95.6345 29.9829C96.3493 30.2196 97.1612 30.338 98.0693 30.338C99.1809 30.338 100.085 30.1662 100.78 29.823C101.476 29.4797 102.017 29.0471 102.403 28.5251L102.406 28.521V30.0044H103.823V24.8434H96.8824V26.1454H102.377L102.377 26.1474C102.309 26.5443 102.171 26.9194 101.964 27.2725C101.756 27.6258 101.475 27.9378 101.122 28.2086C100.769 28.4796 100.341 28.6923 99.8387 28.8473C99.3359 29.002 98.7462 29.0791 98.0693 29.0791C97.3636 29.0791 96.7423 28.9755 96.206 28.7669C95.6692 28.5592 95.2218 28.2739 94.8643 27.9107C94.5064 27.5482 94.2381 27.1152 94.059 26.6118C93.8801 26.1092 93.7909 25.5623 93.7909 24.9722C93.7909 24.3533 93.8801 23.7897 94.059 23.2817C94.2381 22.7736 94.5063 22.3357 94.8643 21.968C95.2218 21.6002 95.6692 21.3146 96.206 21.1115C96.7423 20.9084 97.3636 20.807 98.0693 20.807C98.6011 20.807 99.0867 20.8675 99.527 20.9883C99.9665 21.1094 100.359 21.2787 100.702 21.4964C101.045 21.714 101.331 21.98 101.557 22.2945C101.784 22.6085 101.946 22.9541 102.044 23.3311H103.576C103.364 22.0657 102.777 21.1191 101.816 20.4912C100.855 19.8625 99.606 19.5482 98.0693 19.5482ZM103.58 23.3345L103.58 23.3326C103.367 22.0653 102.78 21.1171 101.818 20.4883C100.856 19.8592 99.6065 19.5448 98.0693 19.5448C97.1609 19.5448 96.3487 19.6587 95.6334 19.886C94.9178 20.1133 94.3111 20.4521 93.8132 20.9017C93.3147 21.3517 92.9359 21.9052 92.6744 22.5631C92.4135 23.2212 92.2831 23.9809 92.2831 24.8417V25.117C92.2831 25.9396 92.4135 26.6725 92.6744 27.3156C92.9359 27.9591 93.3147 28.5055 93.8132 28.9556C94.3111 29.4055 94.9178 29.7489 95.6334 29.9861C96.3487 30.2229 97.1609 30.3414 98.0693 30.3414C99.1812 30.3414 100.085 30.1695 100.781 29.826C101.476 29.4835 102.016 29.0519 102.403 28.5313V30.0078H103.827V24.84H96.879V26.1488H102.373C102.306 26.5445 102.168 26.9186 101.961 27.2707C101.753 27.6237 101.473 27.9353 101.12 28.206C100.768 28.4766 100.34 28.6891 99.8377 28.844C99.3353 28.9987 98.746 29.0757 98.0693 29.0757C97.3639 29.0757 96.743 28.9722 96.2072 28.7638C95.6708 28.5562 95.2238 28.2711 94.8668 27.9084C94.5091 27.5462 94.2411 27.1136 94.0622 26.6106C93.8835 26.1084 93.7943 25.562 93.7943 24.9722C93.7943 24.3536 93.8835 23.7904 94.0622 23.2828C94.2411 22.7752 94.5091 22.3377 94.8668 21.9703C95.2238 21.603 95.6708 21.3176 96.2072 21.1147C96.743 20.9118 97.3639 20.8104 98.0693 20.8104C98.6009 20.8104 99.0862 20.8709 99.5261 20.9915C99.9653 21.1126 100.357 21.2817 100.7 21.4992C101.043 21.7166 101.328 21.9823 101.555 22.2964C101.782 22.6105 101.943 22.9561 102.041 23.3333L102.042 23.3328V23.3345H103.58Z" fill="#182849"></path><path fill-rule="evenodd" clip-rule="evenodd" d="M114.336 28.744C114.336 30.0207 114.336 30.0206 114.336 30.0206H105.724V19.8657H107.145V28.744H114.336Z" fill="#182849"></path><path fill-rule="evenodd" clip-rule="evenodd" d="M105.723 19.864H107.147V28.7423H114.338V30.0206L114.336 30.0206L114.336 30.0206V30.0223H105.723V19.864ZM114.334 30.0189V28.7457H107.143V19.8674H105.726V30.0189H114.334Z" fill="#182849"></path><path fill-rule="evenodd" clip-rule="evenodd" d="M121.12 20.8231C120.454 20.8231 119.847 20.9102 119.301 21.0842C118.755 21.2585 118.291 21.5171 117.909 21.8605C117.527 22.2038 117.233 22.6345 117.025 23.1515C116.817 23.6689 116.713 24.2757 116.713 24.9725C116.713 25.6396 116.817 26.2268 117.025 26.7347C117.233 27.2425 117.527 27.6682 117.909 28.0113C118.291 28.3546 118.755 28.6157 119.301 28.7949C119.847 28.9737 120.454 29.0629 121.12 29.0629C121.787 29.0629 122.394 28.9764 122.94 28.8019C123.486 28.6279 123.95 28.3691 124.332 28.026C124.713 27.6826 125.008 27.2566 125.216 26.7493C125.424 26.2417 125.528 25.6492 125.528 24.9725C125.528 24.3051 125.424 23.7148 125.216 23.2024C125.008 22.6899 124.713 22.2572 124.332 21.904C123.95 21.5514 123.486 21.2827 122.94 21.0989C122.394 20.9151 121.787 20.8231 121.12 20.8231ZM115.205 24.8415C115.235 23.9226 115.396 23.1299 115.691 22.4627C115.986 21.7953 116.392 21.2465 116.909 20.8159C117.426 20.386 118.04 20.0666 118.75 19.8586C119.461 19.6509 120.251 19.5469 121.12 19.5469C121.99 19.5469 122.781 19.6556 123.491 19.873C124.201 20.0905 124.815 20.4172 125.332 20.8522C125.849 21.2875 126.255 21.8363 126.55 22.4988C126.845 23.1614 127.006 23.9422 127.036 24.8415C127.036 25.103 127.036 25.103 127.036 25.103C127.006 26.0023 126.845 26.7833 126.55 27.4455C126.255 28.108 125.849 28.6523 125.332 29.0777C124.815 29.5032 124.201 29.8197 123.491 30.0279C122.781 30.2356 121.99 30.3395 121.12 30.3395C120.251 30.3395 119.461 30.2356 118.75 30.0279C118.04 29.8197 117.426 29.5008 116.909 29.0702C116.392 28.6398 115.986 28.0958 115.691 27.4382C115.396 26.7809 115.235 26.0023 115.205 25.103C115.205 24.8415 115.205 24.8415 115.205 24.8415Z" fill="#182849"></path><path fill-rule="evenodd" clip-rule="evenodd" d="M121.12 19.5486C120.251 19.5486 119.461 19.6525 118.751 19.8602C118.04 20.0682 117.427 20.3875 116.91 20.8172C116.393 21.2477 115.988 21.7962 115.693 22.4634C115.398 23.1303 115.236 23.9228 115.207 24.8415V25.103C115.236 26.0021 115.398 26.7804 115.693 27.4375C115.988 28.0949 116.393 28.6387 116.91 29.0689C117.427 29.4993 118.04 29.8181 118.751 30.0263C119.461 30.2339 120.251 30.3378 121.12 30.3378C121.99 30.3378 122.78 30.2339 123.491 30.0263C124.2 29.8181 124.814 29.5017 125.331 29.0764C125.848 28.6511 126.254 28.1071 126.548 27.4448C126.843 26.7828 127.005 26.0021 127.034 25.1029V24.8415C127.005 23.9424 126.843 23.1618 126.548 22.4995C126.254 21.8372 125.848 21.2886 125.331 20.8534C124.814 20.4186 124.2 20.0921 123.491 19.8747C122.78 19.6572 121.99 19.5486 121.12 19.5486ZM127.037 25.103L127.037 24.8415L127.037 24.8414C127.008 23.942 126.847 23.1609 126.552 22.4981C126.257 21.8354 125.85 21.2864 125.333 20.8509C124.816 20.4157 124.202 20.089 123.492 19.8714C122.781 19.6539 121.991 19.5452 121.12 19.5452C120.25 19.5452 119.46 19.6492 118.75 19.8569C118.039 20.0651 117.425 20.3846 116.908 20.8146C116.39 21.2454 115.985 21.7944 115.689 22.462C115.395 23.1294 115.233 23.9224 115.204 24.8414L115.205 24.8415H115.204V25.103L115.204 25.103C115.233 26.0025 115.395 26.7813 115.69 27.4389C115.985 28.0968 116.39 28.6409 116.908 29.0715C117.425 29.5022 118.039 29.8212 118.75 30.0295C119.46 30.2373 120.25 30.3411 121.12 30.3411C121.991 30.3411 122.781 30.2373 123.492 30.0295C124.202 29.8212 124.816 29.5047 125.333 29.079C125.85 28.6534 126.257 28.1089 126.552 27.4462C126.847 26.7837 127.008 26.0025 127.037 25.103L127.036 25.103H127.037ZM119.301 21.0826C119.846 20.9085 120.454 20.8214 121.12 20.8214C121.788 20.8214 122.394 20.9135 122.94 21.0973C123.487 21.2812 123.951 21.55 124.333 21.9028C124.715 22.2561 125.01 22.6891 125.218 23.2017C125.425 23.7144 125.53 24.3049 125.53 24.9725C125.53 25.6493 125.425 26.2421 125.218 26.7499C125.01 27.2574 124.715 27.6837 124.333 28.0273C123.951 28.3705 123.487 28.6294 122.94 28.8035C122.394 28.9781 121.788 29.0646 121.12 29.0646C120.454 29.0646 119.846 28.9754 119.301 28.7965C118.754 28.6172 118.29 28.3561 117.908 28.0125C117.526 27.6693 117.231 27.2434 117.024 26.7353C116.815 26.2272 116.712 25.6398 116.712 24.9725C116.712 24.2756 116.815 23.6685 117.024 23.1509C117.231 22.6336 117.526 22.2028 117.908 21.8592C118.29 21.5157 118.754 21.257 119.301 21.0826ZM121.12 20.8248C120.454 20.8248 119.847 20.9118 119.302 21.0858C118.756 21.2601 118.292 21.5186 117.91 21.8617C117.529 22.2049 117.234 22.6353 117.027 23.1522C116.819 23.6693 116.715 24.2759 116.715 24.9725C116.715 25.6395 116.819 26.2264 117.027 26.734C117.234 27.2416 117.529 27.6671 117.91 28.01C118.292 28.3532 118.756 28.6142 119.302 28.7932C119.847 28.9721 120.454 29.0612 121.12 29.0612C121.787 29.0612 122.394 28.9747 122.939 28.8003C123.485 28.6264 123.949 28.3677 124.33 28.0247C124.712 27.6816 125.007 27.2557 125.215 26.7486C125.422 26.2413 125.526 25.649 125.526 24.9725C125.526 24.3053 125.422 23.7152 125.215 23.203C125.007 22.6908 124.712 22.2582 124.33 21.9053C123.949 21.5528 123.485 21.2842 122.939 21.1005C122.394 20.9168 121.787 20.8248 121.12 20.8248Z" fill="#182849"></path><path fill-rule="evenodd" clip-rule="evenodd" d="M129.906 28.744C135.227 28.744 135.227 28.744 135.227 28.744C135.72 28.744 136.121 28.7029 136.43 28.6206C136.739 28.5387 136.978 28.4172 137.148 28.2582C137.317 28.0983 137.433 27.9078 137.496 27.6851C137.558 27.4625 137.59 27.2161 137.59 26.9453C137.59 26.6648 137.561 26.4179 137.503 26.205C137.445 25.9927 137.329 25.809 137.155 25.654C136.981 25.4993 136.737 25.3832 136.423 25.3057C136.109 25.2285 135.696 25.1897 135.183 25.1897C129.906 25.1897 129.906 25.1897 129.906 25.1897V28.744ZM129.906 23.9131C134.691 23.9131 134.691 23.9131 134.691 23.9131C135.106 23.9131 135.463 23.8939 135.763 23.8551C136.063 23.8167 136.307 23.7442 136.495 23.6376C136.684 23.5313 136.824 23.3835 136.916 23.1951C137.008 23.0067 137.053 22.7669 137.053 22.4771C137.053 22.187 137.003 21.9524 136.901 21.7735C136.8 21.5946 136.65 21.4591 136.452 21.3671C136.254 21.2754 136.005 21.2149 135.705 21.1859C135.406 21.1569 135.057 21.1423 134.661 21.1423C129.906 21.1423 129.906 21.1423 129.906 21.1423V23.9131ZM139.127 27.0611C139.127 28.1154 138.795 28.8722 138.134 29.3314C137.472 29.7911 136.502 30.0206 135.227 30.0206C128.485 30.0206 128.485 30.0206 128.485 30.0206V19.8657H134.821C135.391 19.8657 135.906 19.902 136.365 19.9745C136.824 20.047 137.218 20.1775 137.546 20.3663C137.875 20.5548 138.128 20.8063 138.308 21.1206C138.487 21.4348 138.576 21.8387 138.576 22.3318C138.576 22.8544 138.465 23.282 138.242 23.6159C138.02 23.9494 137.735 24.218 137.387 24.4208C137.957 24.6239 138.389 24.9265 138.685 25.3275C138.979 25.7287 139.127 26.307 139.127 27.0611Z" fill="#182849"></path><path fill-rule="evenodd" clip-rule="evenodd" d="M128.484 19.864H134.821C135.391 19.864 135.906 19.9003 136.365 19.9728C136.824 20.0453 137.218 20.1759 137.547 20.3648C137.876 20.5535 138.13 20.8052 138.309 21.1197C138.488 21.4343 138.578 21.8385 138.578 22.3318C138.578 22.8546 138.466 23.2826 138.244 23.6168C138.022 23.9496 137.738 24.2177 137.391 24.4205C137.959 24.6236 138.391 24.9259 138.686 25.3265C138.981 25.7281 139.128 26.3068 139.128 27.0611C139.128 28.1157 138.797 28.8732 138.135 29.3328C137.472 29.7928 136.503 30.0223 135.227 30.0223H128.484V19.864ZM128.487 19.8674V30.0189H135.227C136.502 30.0189 137.471 29.7894 138.133 29.33C138.794 28.8712 139.125 28.115 139.125 27.0611C139.125 26.3071 138.978 25.7293 138.683 25.3285C138.388 24.9278 137.956 24.6254 137.386 24.4224L137.383 24.4212L137.386 24.4194C137.734 24.2167 138.018 23.9483 138.241 23.6149C138.463 23.2814 138.574 22.8541 138.574 22.3318C138.574 21.8389 138.485 21.4353 138.306 21.1214C138.127 20.8074 137.874 20.5561 137.546 20.3678C137.217 20.179 136.823 20.0486 136.364 19.9761C135.906 19.9037 135.391 19.8674 134.821 19.8674H128.487ZM129.906 21.1423C129.906 21.1419 129.906 21.1413 129.906 21.1406H134.661C135.057 21.1406 135.406 21.1552 135.705 21.1842C136.005 21.2132 136.254 21.2737 136.452 21.3655C136.651 21.4577 136.801 21.5935 136.903 21.7727C137.004 21.9519 137.055 22.1868 137.055 22.4771C137.055 22.767 137.009 23.0071 136.917 23.1958C136.825 23.3845 136.685 23.5327 136.496 23.6391C136.307 23.7458 136.063 23.8184 135.763 23.8567C135.464 23.8956 135.106 23.9148 134.691 23.9148V23.9131C134.691 23.9114 134.691 23.9131 134.691 23.9148H129.904V21.1423H129.906ZM129.908 21.144H134.661C135.057 21.144 135.405 21.1586 135.705 21.1876C136.004 21.2165 136.253 21.277 136.451 21.3686C136.649 21.4605 136.799 21.5958 136.9 21.7744C137.001 21.9529 137.052 22.1872 137.052 22.4771C137.052 22.7667 137.006 23.0062 136.914 23.1943C136.822 23.3824 136.683 23.53 136.494 23.6362C136.306 23.7426 136.062 23.8151 135.763 23.8534C135.463 23.8923 135.106 23.9114 134.691 23.9114H129.908V21.144ZM135.183 25.188C135.696 25.188 136.109 25.2268 136.423 25.304C136.737 25.3816 136.982 25.4978 137.156 25.6527C137.33 25.8079 137.446 25.9919 137.505 26.2046C137.563 26.4176 137.592 26.6647 137.592 26.9453C137.592 27.2162 137.56 27.4628 137.497 27.6856C137.434 27.9085 137.318 28.0993 137.149 28.2594C136.979 28.4187 136.74 28.5403 136.43 28.6222C136.121 28.7046 135.72 28.7457 135.227 28.7457H129.904V25.1897H129.906L129.906 25.188H135.183ZM129.908 25.1914V28.7423H135.227C135.72 28.7423 136.12 28.7012 136.429 28.6189C136.739 28.5371 136.978 28.4157 137.147 28.2569C137.315 28.0973 137.431 27.907 137.494 27.6847C137.557 27.4622 137.588 27.216 137.588 26.9453C137.588 26.6649 137.559 26.4182 137.501 26.2055C137.443 25.9935 137.328 25.81 137.154 25.6553C136.98 25.5008 136.736 25.3848 136.423 25.3073C136.109 25.2302 135.696 25.1914 135.183 25.1914H129.908Z" fill="#182849"></path><path fill-rule="evenodd" clip-rule="evenodd" d="M143.577 25.6685C148.521 25.6685 148.521 25.6685 148.521 25.6685L146.057 20.6488L143.577 25.6685ZM142.94 26.945C141.432 30.0206 141.432 30.0206 141.432 30.0206H139.851L144.853 19.8658H147.26L152.262 30.0206H150.667L149.159 26.945H142.94Z" fill="#182849"></path><path fill-rule="evenodd" clip-rule="evenodd" d="M144.852 19.8642H147.261L152.264 30.0223H150.666L149.158 26.9467H142.941C142.187 28.4839 141.81 29.2525 141.622 29.6369C141.528 29.8291 141.481 29.9252 141.457 29.9733L141.433 30.0213C141.433 30.0199 141.432 30.0191 141.432 30.02L141.432 30.0223L141.432 30.0206C141.432 30.0207 141.432 30.0208 141.432 30.0209V30.0223H139.849L144.852 19.8642ZM141.431 30.0189L141.454 29.9718C141.478 29.9237 141.525 29.8276 141.619 29.6354C141.807 29.2509 142.184 28.4821 142.938 26.9443L142.938 26.9434H149.16L150.668 30.0189H152.259L147.259 19.8675H144.854L139.854 30.0189H141.431ZM146.057 20.6449L148.523 25.6677L148.521 25.6685L148.521 25.6701H143.575L146.057 20.6449ZM148.518 25.6668L146.057 20.6526L143.58 25.6668H148.518Z" fill="#182849"></path><path fill-rule="evenodd" clip-rule="evenodd" d="M162.033 28.744C162.033 30.0207 162.033 30.0206 162.033 30.0206H153.422V19.8657H154.842V28.744H162.033Z" fill="#182849"></path><path fill-rule="evenodd" clip-rule="evenodd" d="M153.42 19.864H154.844V28.7423H162.035V30.0206L162.033 30.0206L162.033 30.0206V30.0223H153.42V19.864ZM162.031 30.0189V28.7457H154.841V19.8674H153.423V30.0189H162.031Z" fill="#182849"></path><path fill-rule="evenodd" clip-rule="evenodd" d="M102.404 45.9347C102.018 46.4569 101.477 46.8897 100.781 47.2325C100.085 47.5759 99.1811 47.7479 98.0693 47.7479C97.1611 47.7479 96.349 47.6294 95.6339 47.3929C94.9186 47.1558 94.3121 46.8122 93.8144 46.3625C93.3161 45.9128 92.9374 45.3665 92.676 44.7235C92.4152 44.08 92.2848 43.3479 92.2848 42.5256C92.2848 42.2499 92.2848 42.2498 92.2848 42.2498C92.2848 41.3891 92.4152 40.6301 92.676 39.9722C92.9374 39.3146 93.3161 38.7609 93.8144 38.3112C94.3121 37.8616 94.9186 37.5227 95.6339 37.2955C96.349 37.0682 97.1611 36.9548 98.0693 36.9548C99.6063 36.9548 100.855 37.2692 101.817 37.898C102.778 38.5265 103.366 39.4745 103.578 40.7414C102.042 40.7414 102.042 40.7414 102.042 40.7414C101.945 40.3637 101.783 40.0182 101.556 39.7037C101.329 39.3894 101.044 39.1235 100.701 38.906C100.358 38.6886 99.9659 38.5194 99.5266 38.3982C99.0865 38.2775 98.601 38.2166 98.0693 38.2166C97.3637 38.2166 96.7427 38.3185 96.2066 38.5216C95.67 38.7244 95.2228 39.0099 94.8656 39.3774C94.5078 39.7452 94.2396 40.1824 94.0606 40.6902C93.8818 41.1983 93.7926 41.7616 93.7926 42.3803C93.7926 42.9703 93.8818 43.5168 94.0606 44.0192C94.2396 44.5224 94.5078 44.9551 94.8656 45.3181C95.2228 45.6805 95.67 45.9662 96.2066 46.1739C96.7427 46.3818 97.3637 46.486 98.0693 46.486C98.7461 46.486 99.3356 46.4082 99.8382 46.2538C100.341 46.0991 100.769 45.8862 101.121 45.6152C101.474 45.3447 101.754 45.0326 101.962 44.68C102.17 44.3266 102.308 43.9523 102.375 43.5554C96.8807 43.5554 96.8807 43.5554 96.8807 43.5554V42.2498H103.825V47.4146H102.404V45.9347Z" fill="#182849"></path><path fill-rule="evenodd" clip-rule="evenodd" d="M98.0693 36.9565C97.1612 36.9565 96.3493 37.0699 95.6344 37.2971C94.9193 37.5243 94.313 37.863 93.8155 38.3125C93.3174 38.7619 92.9388 39.3155 92.6776 39.9729C92.4168 40.6305 92.2865 41.3893 92.2865 42.2498V42.5256C92.2865 43.3477 92.4168 44.0796 92.6776 44.7229C92.9388 45.3656 93.3174 45.9118 93.8155 46.3612C94.313 46.8107 94.9193 47.1543 95.6345 47.3912C96.3493 47.6277 97.1612 47.7462 98.0693 47.7462C99.1809 47.7462 100.085 47.5742 100.78 47.231C101.476 46.8883 102.017 46.4556 102.403 45.9337L102.406 45.9295V47.4129H103.823V42.2515H96.8824V43.5537H102.377L102.377 43.5557C102.309 43.9528 102.171 44.3272 101.964 44.6808C101.756 45.0336 101.475 45.3459 101.122 45.6165C100.769 45.8877 100.341 46.1007 99.8387 46.2554C99.3359 46.4099 98.7462 46.4876 98.0693 46.4876C97.3636 46.4876 96.7423 46.3835 96.206 46.1754C95.6692 45.9677 95.2218 45.6818 94.8643 45.3193C94.5064 44.9561 94.2381 44.5232 94.059 44.0197C93.8801 43.5172 93.7909 42.9704 93.7909 42.3803C93.7909 41.7614 93.8801 41.198 94.059 40.6897C94.2381 40.1816 94.5063 39.7442 94.8643 39.3762C95.2218 39.0085 95.6692 38.7229 96.206 38.52C96.7423 38.3169 97.3636 38.2149 98.0693 38.2149C98.6011 38.2149 99.0867 38.2758 99.527 38.3965C99.9665 38.5178 100.359 38.687 100.702 38.9046C101.045 39.1222 101.331 39.3883 101.557 39.7027C101.784 40.0171 101.946 40.3623 102.044 40.7397H103.576C103.364 39.4742 102.777 38.5273 101.816 37.8994C100.855 37.2708 99.606 36.9565 98.0693 36.9565ZM103.58 40.743L103.58 40.7411C103.367 39.4738 102.78 38.5254 101.818 37.8966C100.856 37.2675 99.6065 36.9532 98.0693 36.9532C97.1609 36.9532 96.3487 37.0665 95.6334 37.2939C94.9178 37.5212 94.3111 37.8601 93.8132 38.31C93.3147 38.7598 92.9359 39.3138 92.6744 39.9716C92.4135 40.6297 92.2831 41.389 92.2831 42.2498V42.5256C92.2831 43.3481 92.4135 44.0804 92.6744 44.7242C92.9359 45.3673 93.3147 45.9139 93.8132 46.3638C94.3111 46.8136 94.9178 47.1573 95.6334 47.3945C96.3487 47.631 97.1609 47.7496 98.0693 47.7496C99.1812 47.7496 100.085 47.5775 100.781 47.234C101.476 46.892 102.016 46.4604 102.403 45.9398V47.4163H103.827V42.2482H96.879V43.5571H102.373C102.306 43.953 102.168 44.3265 101.961 44.6791C101.753 45.0315 101.473 45.3434 101.12 45.6138C100.768 45.8847 100.34 46.0975 99.8377 46.2522C99.3353 46.4065 98.746 46.4843 98.0693 46.4843C97.3639 46.4843 96.743 46.3802 96.2072 46.1723C95.6708 45.9647 95.2238 45.6791 94.8668 45.3169C94.5091 44.9541 94.2411 44.5216 94.0622 44.0186C93.8835 43.5164 93.7943 42.9701 93.7943 42.3803C93.7943 41.7617 93.8835 41.1987 94.0622 40.6908C94.2411 40.1832 94.5091 39.7462 94.8668 39.3786C95.2238 39.0112 95.6708 38.7259 96.2072 38.5232C96.743 38.3202 97.3639 38.2183 98.0693 38.2183C98.6009 38.2183 99.0862 38.2791 99.5261 38.3998C99.9653 38.521 100.357 38.6901 100.7 38.9075C101.043 39.1248 101.328 39.3906 101.555 39.7047C101.782 40.0191 101.943 40.3644 102.041 40.7418L102.042 40.7414V40.743H103.58Z" fill="#182849"></path><path fill-rule="evenodd" clip-rule="evenodd" d="M115.408 46.1521C115.408 47.4285 115.408 47.4285 115.408 47.4285H105.724V37.2741H114.93V38.5507H107.145V41.2923H113.466V42.5687H107.145V46.1521H115.408Z" fill="#182849"></path><path fill-rule="evenodd" clip-rule="evenodd" d="M105.722 37.2724H114.932V38.5524H107.146V41.2907H113.468V42.5704H107.146V46.1504H115.41V47.4302H105.722V37.2724ZM105.726 37.2758V47.4269H115.407V46.1538H107.143V42.567H113.464V41.294H107.143V38.549H114.929V37.2758H105.726Z" fill="#182849"></path><path fill-rule="evenodd" clip-rule="evenodd" d="M118.424 38.2168C118.424 47.4287 118.424 47.4288 118.424 47.4288H117.003V37.2741H119.483L126.064 46.4857V37.2741H127.471V47.4288H124.977L118.424 38.2168Z" fill="#182849"></path><path fill-rule="evenodd" clip-rule="evenodd" d="M117.002 37.2724H119.484L126.063 46.4804V37.2724H127.472V47.4305H124.976L118.426 38.2221V47.4305H117.002V37.2724ZM117.005 37.2758V47.4271H118.423V38.2115L124.978 47.4271H127.469V37.2758H126.066V46.4909L119.482 37.2758H117.005Z" fill="#182849"></path><path fill-rule="evenodd" clip-rule="evenodd" d="M139.185 46.1521C139.185 47.4285 139.185 47.4285 139.185 47.4285H129.501V37.2741H138.707V38.5507H130.921V41.2923H137.242V42.5687H130.921V46.1521H139.185Z" fill="#182849"></path><path fill-rule="evenodd" clip-rule="evenodd" d="M129.499 37.2724H138.708V38.5524H130.923V41.2907H137.244V42.5704H130.923V46.1504H139.187V47.4302H129.499V37.2724ZM129.502 37.2758V47.4269H139.183V46.1538H130.92V42.567H137.241V41.294H130.92V38.549H138.705V37.2758H129.502Z" fill="#182849"></path><path fill-rule="evenodd" clip-rule="evenodd" d="M142.201 42.4382C147.072 42.4382 147.072 42.4382 147.072 42.4382C147.912 42.4382 148.538 42.2737 148.949 41.9453C149.36 41.6161 149.565 41.1377 149.565 40.5089C149.565 39.8901 149.372 39.4089 148.986 39.0653C148.599 38.7225 148.014 38.5507 147.231 38.5507C142.2 38.5507 142.201 38.5507 142.201 38.5507V42.4382ZM142.201 43.7152C142.201 47.4285 142.201 47.4285 142.201 47.4285H140.78V37.2738H147.55C148.082 37.2738 148.565 37.3445 149 37.4842C149.435 37.6245 149.805 37.8327 150.109 38.1078C150.414 38.3835 150.65 38.7293 150.82 39.1455C150.989 39.5617 151.073 40.0448 151.073 40.5961C151.044 41.4084 150.849 42.0514 150.486 42.5253C150.123 42.9994 149.624 43.3333 148.986 43.5265C151.232 47.4144 151.233 47.4143 151.233 47.4143H149.565L147.463 43.7152H142.201Z" fill="#182849"></path><path fill-rule="evenodd" clip-rule="evenodd" d="M140.778 37.2721H147.55C148.082 37.2721 148.565 37.3428 149.001 37.4826C149.435 37.6229 149.805 37.8313 150.11 38.1066C150.415 38.3824 150.651 38.7284 150.821 39.1448C150.99 39.5613 151.075 40.0446 151.075 40.5961L151.075 40.5962C151.046 41.4087 150.85 42.0521 150.487 42.5263C150.125 43.0002 149.625 43.3341 148.988 43.5275C150.111 45.4702 150.672 46.4417 150.953 46.9275C151.094 47.1705 151.164 47.292 151.199 47.3527L151.233 47.4125L151.233 47.4126H151.234L151.234 47.4145L151.232 47.4143C151.234 47.4144 151.233 47.4152 151.232 47.4154V47.416H149.564L147.462 43.7169H142.202V47.4302H140.778V37.2721ZM151.23 47.4126L151.196 47.3544C151.161 47.2937 151.091 47.1722 150.95 46.9292C150.669 46.4433 150.108 45.4713 148.984 43.5274L148.983 43.5255L148.985 43.5249C149.623 43.3317 150.122 42.998 150.485 42.5242C150.847 42.0508 151.043 41.4081 151.072 40.5961C151.072 40.0449 150.987 39.5621 150.818 39.1461C150.648 38.7301 150.412 38.3846 150.108 38.1091C149.804 37.8341 149.434 37.626 149 37.4858C148.565 37.3461 148.081 37.2755 147.55 37.2755H140.782V47.4268H142.199V43.7135H147.464L149.566 47.4126H151.23ZM142.201 38.5507C142.201 38.5502 142.201 38.5496 142.201 38.549H147.231C148.014 38.549 148.599 38.7208 148.987 39.064C149.373 39.4081 149.567 39.8898 149.567 40.5089C149.567 41.1381 149.362 41.617 148.95 41.9466C148.539 42.2754 147.913 42.4399 147.072 42.4399V42.4382C147.072 42.4365 147.072 42.4382 147.072 42.4399H142.199V38.5507H142.201ZM142.202 38.5524H147.231C148.014 38.5524 148.598 38.7241 148.984 39.0666C149.37 39.4098 149.564 39.8905 149.564 40.5089C149.564 41.1373 149.359 41.6151 148.948 41.944C148.538 42.272 147.912 42.4365 147.072 42.4365H142.202V38.5524Z" fill="#182849"></path><path fill-rule="evenodd" clip-rule="evenodd" d="M155.828 43.0765C160.772 43.0765 160.772 43.0765 160.772 43.0765L158.307 38.0573L155.828 43.0765ZM155.19 44.3535C153.683 47.4288 153.683 47.4288 153.683 47.4288H152.102L157.104 37.2741H159.511L164.513 47.4288H162.917L161.41 44.3535H155.19Z" fill="#182849"></path><path fill-rule="evenodd" clip-rule="evenodd" d="M157.103 37.2724H159.512L164.515 47.4305H162.916L161.409 44.3552H155.191C154.438 45.8922 154.061 46.6608 153.873 47.0451C153.778 47.2373 153.731 47.3334 153.708 47.3815L153.684 47.4295L153.684 47.4295L153.684 47.4296L153.684 47.4296L153.684 47.4296C153.684 47.4302 153.683 47.4305 153.683 47.4288L153.683 47.4305L153.683 47.4305H152.099L157.103 37.2724ZM153.682 47.4271L153.684 47.4221C153.687 47.416 153.693 47.404 153.705 47.38C153.728 47.332 153.775 47.2359 153.87 47.0437C154.058 46.6592 154.435 45.8904 155.189 44.3528L155.189 44.3519H161.411L162.918 47.4271H164.51L159.51 37.2758H157.105L152.105 47.4271H153.682ZM158.307 38.0534L160.775 43.0782H155.825L158.307 38.0534ZM155.831 43.0749H160.769L158.307 38.0611L155.831 43.0749Z" fill="#182849"></path><path fill-rule="evenodd" clip-rule="evenodd" d="M170.877 38.5509C170.877 47.4287 170.877 47.4288 170.877 47.4288H169.456V38.5509H164.947V37.2738H175.4V38.5509H170.877Z" fill="#182849"></path><path fill-rule="evenodd" clip-rule="evenodd" d="M164.945 37.2721H175.402V38.5526H170.878V47.4305H169.454V38.5526H164.945V37.2721ZM164.949 37.2755V38.5492H169.458V47.4271H170.875V38.5492H175.398V37.2755H164.949Z" fill="#182849"></path><path fill-rule="evenodd" clip-rule="evenodd" d="M186.056 46.1521C186.056 47.4285 186.056 47.4285 186.056 47.4285H176.705V46.1521H180.634V38.5507H176.705V37.2741H186.056V38.5507H182.054V46.1521H186.056Z" fill="#182849"></path><path fill-rule="evenodd" clip-rule="evenodd" d="M176.703 37.2724H186.058V38.5524H182.056V46.1504H186.058V47.4302H176.703V46.1504H180.632V38.5524H176.703V37.2724ZM176.706 37.2758V38.549H180.635V46.1538H176.706V47.4269H186.054V46.1538H182.053V38.549H186.054V37.2758H176.706Z" fill="#182849"></path><path fill-rule="evenodd" clip-rule="evenodd" d="M193.276 38.2316C192.609 38.2316 192.002 38.3186 191.456 38.4925C190.91 38.6668 190.446 38.9253 190.064 39.2684C189.683 39.6121 189.388 40.0424 189.18 40.5598C188.972 41.0774 188.869 41.6841 188.869 42.3806C188.869 43.0477 188.972 43.6352 189.18 44.1428C189.388 44.6506 189.683 45.0761 190.064 45.4195C190.446 45.7631 190.91 46.0241 191.456 46.2027C192.002 46.3821 192.609 46.4709 193.276 46.4709C193.943 46.4709 194.549 46.3845 195.095 46.2102C195.641 46.0363 196.105 45.7775 196.487 45.4338C196.868 45.091 197.163 44.6651 197.371 44.1575C197.579 43.6502 197.683 43.057 197.683 42.3806C197.683 41.7129 197.579 41.1233 197.371 40.6109C197.163 40.0979 196.868 39.6652 196.487 39.3118C196.105 38.9592 195.641 38.6909 195.095 38.5071C194.549 38.3234 193.943 38.2316 193.276 38.2316ZM187.36 42.2498C187.389 41.331 187.551 40.538 187.846 39.8708C188.141 39.2031 188.547 38.6545 189.064 38.2241C189.581 37.7943 190.195 37.4749 190.905 37.2669C191.615 37.0587 192.405 36.9551 193.276 36.9551C194.145 36.9551 194.936 37.0639 195.646 37.2814C196.356 37.4986 196.97 37.8251 197.487 38.2604C198.004 38.6953 198.41 39.2445 198.705 39.9073C199 40.5698 199.161 41.3503 199.191 42.2498C199.191 42.5111 199.191 42.5111 199.191 42.5111C199.161 43.4104 199 44.1918 198.705 44.854C198.41 45.5165 198.004 46.0605 197.487 46.4857C196.97 46.9114 196.356 47.2282 195.646 47.4361C194.936 47.6436 194.145 47.7479 193.276 47.7479C192.405 47.7479 191.615 47.6436 190.905 47.4361C190.195 47.2282 189.581 46.9087 189.064 46.4786C188.547 46.0483 188.141 45.5043 187.846 44.8464C187.551 44.1891 187.389 43.4104 187.36 42.5111C187.36 42.2498 187.36 42.2498 187.36 42.2498Z" fill="#182849"></path><path fill-rule="evenodd" clip-rule="evenodd" d="M193.276 36.9568C192.405 36.9568 191.616 37.0604 190.905 37.2685C190.195 37.4765 189.582 37.7958 189.065 38.2254C188.548 38.6556 188.142 39.204 187.848 39.8715C187.553 40.5384 187.391 41.3312 187.362 42.2499V42.5111C187.391 43.4102 187.553 44.1886 187.848 44.8457C188.142 45.5034 188.548 46.0472 189.065 46.4773C189.582 46.9073 190.195 47.2266 190.905 47.4345C191.616 47.6419 192.405 47.7462 193.276 47.7462C194.145 47.7462 194.936 47.6419 195.646 47.4345C196.356 47.2266 196.969 46.9099 197.486 46.4844C198.003 46.0594 198.409 45.5156 198.703 44.8533C198.998 44.1913 199.16 43.4102 199.189 42.511V42.2499C199.16 41.3505 198.998 40.5703 198.703 39.908C198.409 39.2454 198.003 38.6965 197.486 38.2617C196.969 37.8266 196.356 37.5002 195.646 37.283C194.936 37.0656 194.145 36.9568 193.276 36.9568ZM199.192 42.5111L199.192 42.2498L199.192 42.2498C199.163 41.35 199.001 40.5694 198.706 39.9066C198.412 39.2436 198.005 38.6942 197.488 38.2591C196.971 37.8237 196.357 37.497 195.647 37.2798C194.936 37.0622 194.145 36.9534 193.276 36.9534C192.405 36.9534 191.615 37.057 190.905 37.2653C190.194 37.4733 189.58 37.7929 189.063 38.2228C188.545 38.6534 188.139 39.2022 187.845 39.8701C187.55 40.5375 187.388 41.3307 187.359 42.2498L187.36 42.2498H187.359V42.5111L187.359 42.5111C187.388 43.4106 187.55 44.1895 187.845 44.8471C188.139 45.5052 188.546 46.0494 189.063 46.4799C189.58 46.9102 190.194 47.2297 190.905 47.4377C191.615 47.6452 192.405 47.7496 193.276 47.7496C194.145 47.7496 194.936 47.6452 195.647 47.4377C196.357 47.2297 196.971 46.9129 197.488 46.487C198.005 46.0616 198.412 45.5174 198.706 44.8547C199.001 44.1922 199.163 43.4106 199.192 42.5111L199.191 42.5111L199.192 42.5111ZM191.456 38.4909C192.002 38.3169 192.608 38.2299 193.276 38.2299C193.943 38.2299 194.549 38.3217 195.095 38.5055C195.642 38.6894 196.106 38.9578 196.488 39.3106C196.87 39.6642 197.165 40.097 197.373 40.6102C197.581 41.1229 197.684 41.7127 197.684 42.3806C197.684 43.0571 197.581 43.6506 197.373 44.1581C197.165 44.6659 196.87 45.0921 196.488 45.4351C196.106 45.7789 195.642 46.0378 195.095 46.2119C194.549 46.3862 193.943 46.4726 193.276 46.4726C192.608 46.4726 192.002 46.3838 191.456 46.2043C190.909 46.0256 190.445 45.7645 190.063 45.4207C189.681 45.0772 189.387 44.6515 189.178 44.1434C188.97 43.6356 188.867 43.0479 188.867 42.3806C188.867 41.6839 188.97 41.077 189.178 40.5591C189.387 40.0416 189.681 39.611 190.063 39.2672C190.445 38.9239 190.909 38.6653 191.456 38.4909ZM193.276 38.2333C192.609 38.2333 192.002 38.3202 191.457 38.4942C190.911 38.6683 190.447 38.9268 190.065 39.2697C189.684 39.6131 189.389 40.0433 189.181 40.5604C188.974 41.0778 188.87 41.6843 188.87 42.3806C188.87 43.0476 188.974 43.6348 189.181 44.1421C189.389 44.6497 189.684 45.0751 190.065 45.4182C190.447 45.7617 190.911 46.0225 191.457 46.2011C192.002 46.3804 192.609 46.4693 193.276 46.4693C193.942 46.4693 194.549 46.3828 195.094 46.2086C195.64 46.0347 196.104 45.776 196.486 45.4326C196.867 45.0899 197.162 44.6642 197.37 44.1569C197.577 43.6498 197.681 43.0568 197.681 42.3806C197.681 41.7131 197.577 41.1237 197.37 40.6115C197.162 40.0987 196.867 39.6663 196.486 39.3131C196.104 38.9607 195.64 38.6925 195.094 38.5087C194.549 38.325 193.942 38.2333 193.276 38.2333Z" fill="#182849"></path><path fill-rule="evenodd" clip-rule="evenodd" d="M202.061 38.2168C202.061 47.4287 202.061 47.4288 202.061 47.4288H200.641V37.2741H203.12L209.701 46.4857V37.2741H211.108V47.4288H208.614L202.061 38.2168Z" fill="#182849"></path><path fill-rule="evenodd" clip-rule="evenodd" d="M200.639 37.2724H203.121L209.7 46.4804V37.2724H211.109V47.4305H208.613L202.063 38.2221V47.4305H200.639V37.2724ZM200.642 37.2758V47.4271H202.06V38.2115L208.615 47.4271H211.106V37.2758H209.703V46.4909L203.119 37.2758H200.642Z" fill="#182849"></path><path fill-rule="evenodd" clip-rule="evenodd" d="M9.90259 58.3428C9.90259 8.9519 9.90259 8.95183 9.90259 8.95183C3.48603 15.3427 0.271698 23.5514 0.271698 33.5885C0.271698 43.6247 3.48386 51.8748 9.90259 58.3428Z" fill="#182849"></path><path fill-rule="evenodd" clip-rule="evenodd" d="M9.90426 8.94775V58.3469L9.90137 58.344C3.4823 51.8756 0.269989 43.6251 0.269989 33.5885C0.269989 23.551 3.48447 15.3418 9.90138 8.95062L9.90426 8.94775ZM9.90088 8.95589C3.4866 15.346 0.273368 23.5533 0.273368 33.5885C0.273368 43.6228 3.48442 51.8715 9.90088 58.3387V8.95589Z" fill="#182849"></path><path fill-rule="evenodd" clip-rule="evenodd" d="M68.3882 24.5347C80.2517 24.5347 80.2517 24.5347 80.2517 24.5347C79.3769 20.5185 77.6582 17.1482 75.0951 14.4238C72.5317 11.7001 69.62 9.76151 66.3614 8.60737C65.2222 8.20466 64.0474 7.87626 62.8408 7.61418C62.8408 18.7564 62.8408 18.7564 62.8408 18.7564C63.094 18.8858 63.3446 19.0203 63.5897 19.166C65.7953 20.4782 67.3943 22.2681 68.3882 24.5347Z" fill="#182849"></path><path fill-rule="evenodd" clip-rule="evenodd" d="M62.8391 7.61208L62.8412 7.61252C64.0478 7.87461 65.2226 8.20303 66.3619 8.60576C69.6208 9.76 72.5327 11.6988 75.0963 14.4226C77.6596 17.1472 79.3785 20.5178 80.2534 24.5343L80.2538 24.5364H68.387L68.3866 24.5354C67.3929 22.2692 65.7941 20.4795 63.5888 19.1675C63.3438 19.0218 63.0932 18.8873 62.84 18.7579L62.8391 18.7574V7.61208ZM62.8425 7.61627V18.7553C63.0954 18.8846 63.3457 19.019 63.5905 19.1646C65.7961 20.4767 67.3952 22.2666 68.3892 24.533H80.2496C79.3747 20.5179 77.6563 17.1486 75.0938 14.4249C72.5306 11.7014 69.6191 9.763 66.3608 8.60895C65.2223 8.2065 64.0483 7.87826 62.8425 7.61627Z" fill="#182849"></path><path fill-rule="evenodd" clip-rule="evenodd" d="M37.6229 32.2142C37.6229 40.2678 37.6229 40.2677 37.6229 40.2677H51.216C50.499 43.3984 48.9771 45.7803 46.6496 47.406C46.5259 47.4941 46.3987 47.5788 46.268 47.6636C43.7253 49.2961 40.8438 50.109 37.6229 50.109C35.8784 50.109 34.2432 49.8864 32.7247 49.4413C30.235 48.7098 28.0522 47.3845 26.1773 45.4586C23.1575 42.3559 21.6462 38.4195 21.6462 33.6453C21.6462 28.8359 23.147 24.8994 26.149 21.8354C28.0065 19.9342 30.1996 18.6267 32.7282 17.906C34.2749 17.4605 35.9452 17.2417 37.7433 17.2417C40.6422 17.2417 43.1993 17.8988 45.403 19.2098C45.8018 19.4466 46.18 19.6975 46.54 19.9661C48.1679 21.1818 49.39 22.7223 50.2024 24.5775C62.0648 24.5775 62.0649 24.5775 62.0649 24.5775C61.4965 21.9662 60.5708 19.6303 59.2855 17.5667C58.6006 16.4536 57.8059 15.418 56.9087 14.4676C54.3448 11.7428 51.4347 9.8065 48.1753 8.65091C47.6458 8.46351 47.1051 8.29057 46.5615 8.13507C43.7574 7.32566 40.759 6.92299 37.5628 6.92299C29.3377 6.92299 22.6703 9.40706 17.5636 14.3792C12.4569 19.3513 9.90378 25.7723 9.90378 33.6453C9.90378 41.4406 12.4076 47.8439 17.4154 52.8548C22.4232 57.8657 28.7021 60.3712 36.2526 60.3712C39.5759 60.3712 42.5424 59.8799 45.1522 58.8939C46.067 58.5513 46.9357 58.1485 47.7583 57.6855C50.9368 55.8975 53.4407 53.5295 55.27 50.5864C55.3903 60.357 55.3903 60.357 55.3903 60.357C58.127 60.2757 60.6132 59.8484 62.8419 59.0777C62.8419 32.2142 62.8419 32.2142 62.8419 32.2142H37.6229Z" fill="#182849"></path><path fill-rule="evenodd" clip-rule="evenodd" d="M17.5624 14.378C22.6695 9.40549 29.3374 6.9213 37.5629 6.9213C40.7591 6.9213 43.7577 7.32398 46.562 8.13344C47.1056 8.28895 47.6463 8.4619 48.1759 8.64931C51.4356 9.805 54.3459 11.7415 56.91 14.4664C57.8072 15.4169 58.602 16.4526 59.2869 17.5659C60.5724 19.6296 61.4981 21.9656 62.0665 24.5771L62.067 24.5791H50.2013L50.2008 24.5781C49.3886 22.7232 48.1667 21.183 46.539 19.9674C46.1791 19.6989 45.8009 19.448 45.4021 19.2113C43.1987 17.9004 40.6419 17.2433 37.7433 17.2433C35.9454 17.2433 34.2752 17.4622 32.7286 17.9077C30.2003 18.6282 28.0075 19.9356 26.1502 21.8366C23.1486 24.9002 21.6479 28.8363 21.6479 33.6453C21.6479 38.4191 23.1591 42.3551 26.1785 45.4575C28.0532 47.3831 30.2357 48.7082 32.7252 49.4397C34.2435 49.8847 35.8786 50.1074 37.623 50.1074C40.8435 50.1074 43.7247 49.2945 46.2671 47.6622C46.3978 47.5774 46.525 47.4927 46.6486 47.4046L46.6496 47.406L46.6486 47.4046C48.9753 45.7795 50.4968 43.3988 51.2139 40.2694H37.623V40.2677L37.6213 40.2677V32.2125H62.8436V59.0789L62.8424 59.0793C60.6136 59.8501 58.1272 60.2774 55.3904 60.3587L55.3903 60.358C55.3901 60.3579 55.3901 60.3575 55.3903 60.357L55.3896 60.3585L55.3902 60.3559C55.3897 60.3558 55.3891 60.3562 55.3886 60.3569V60.3567L55.3886 60.3546L55.3736 59.1357C55.3586 57.9148 55.3285 55.4736 55.2684 50.5922C53.4392 53.5333 50.9361 55.8998 47.7592 57.687C46.9364 58.15 46.0677 58.5529 45.1528 58.8954C42.5428 59.8816 39.576 60.3729 36.2526 60.3729C28.7016 60.3729 22.4223 57.8673 17.4142 52.856C12.4061 47.8448 9.9021 41.441 9.9021 33.6453C9.9021 25.7719 12.4554 19.3504 17.5624 14.378ZM55.392 60.3552C58.1274 60.2738 60.6125 59.8468 62.8402 59.0765V32.2159H37.6246V40.266H51.2181L51.2177 40.2681C50.5006 43.3992 48.9785 45.7814 46.6505 47.4074C46.5269 47.4955 46.3997 47.5802 46.269 47.6651C43.7259 49.2978 40.8441 50.1107 37.623 50.1107C35.8783 50.1107 34.2429 49.888 32.7243 49.443C30.2342 48.7113 28.0511 47.3859 26.1761 45.4598C23.156 42.3568 21.6446 38.4199 21.6446 33.6453C21.6446 28.8355 23.1455 24.8986 26.1478 21.8342C28.0055 19.9328 30.1988 18.6251 32.7277 17.9044C34.2746 17.4589 35.9451 17.24 37.7433 17.24C40.6425 17.24 43.1999 17.8971 45.4038 19.2084C45.8027 19.4451 46.181 19.6961 46.541 19.9647C48.1689 21.1804 49.391 22.7208 50.2035 24.5758H62.0628C61.4944 21.9655 60.569 19.6305 59.2841 17.5676C58.5992 16.4546 57.8046 15.4191 56.9075 14.4687C54.3438 11.7442 51.4339 9.808 48.1747 8.6525C47.6453 8.46511 47.1046 8.29219 46.561 8.13669C43.7571 7.32733 40.7589 6.92468 37.5629 6.92468C29.3381 6.92468 22.6711 9.40862 17.5648 14.3804C12.4585 19.3521 9.90548 25.7727 9.90548 33.6453C9.90548 41.4402 12.4092 47.8431 17.4166 52.8536C22.4241 57.8642 28.7025 60.3695 36.2526 60.3695C39.5757 60.3695 42.542 59.8782 45.1516 58.8923C46.0663 58.5498 46.9349 58.147 47.7575 57.684C50.9358 55.8961 53.4394 53.5284 55.2686 50.5855L55.2716 50.5806L55.2717 50.5864C55.3319 55.4717 55.3619 57.9143 55.377 59.1356L55.392 60.3546L55.392 60.3552Z" fill="#182849"></path><path fill-rule="evenodd" clip-rule="evenodd" d="M81.0258 32.1698C81.0258 60.3268 81.0258 60.3268 81.0258 60.3268H73.5745L73.454 50.5422C71.6283 53.4853 69.1244 55.8531 65.9424 57.6412C64.9749 58.1889 63.933 58.6413 62.8419 59.0192C62.8419 48.5135 62.8419 48.5135 62.8419 48.5135C63.3928 48.2449 63.933 47.955 64.4522 47.6193C66.9952 45.9903 68.6476 43.5239 69.4002 40.2235C62.8419 40.2235 62.8419 40.2235 62.8419 40.2235V32.1698H81.0258Z" fill="#182849"></path><path fill-rule="evenodd" clip-rule="evenodd" d="M62.8401 32.1681H81.0274V60.3285H73.5728L73.4524 50.548C71.6268 53.4891 69.1237 55.8555 65.9432 57.6426C64.9756 58.1905 63.9336 58.6429 62.8424 59.0208L62.8401 59.0215V48.5124L62.8411 48.5119C63.392 48.2434 63.9322 47.9536 64.4513 47.6179C66.9933 45.9895 68.6454 43.5241 69.3981 40.2252H62.8401V32.1681ZM62.8435 32.1715V40.2218H69.4023L69.4018 40.2239C68.6492 43.5246 66.9965 45.9915 64.4531 47.6207C63.9341 47.9563 63.3942 48.246 62.8435 48.5145V59.0168C63.9337 58.6391 64.9748 58.187 65.9416 57.6397C69.1233 55.8518 71.627 53.4842 73.4526 50.5413L73.4556 50.5364L73.5761 60.3251L81.0241 60.3251V32.1715H62.8435Z" fill="#182849"></path></g><path d="M216.935 60.8505L236.135 32.1381L235.85 33.5945L225.184 6.85864H227.743L237.628 31.6179L236.632 31.4099L252.917 6.85864H255.761L237.628 34.1147L237.841 32.2421L249.361 60.8505H246.73L236.348 34.6348H237.272L219.921 60.8505H216.935Z" fill="#182849"></path><defs><clipPath id="clip0_1449_2948"><rect width="211.661" height="53.9919" fill="white" transform="translate(0 6.65112)"></rect></clipPath></defs></svg> 