<?xml version="1.0" encoding="UTF-8"?> <svg xmlns="http://www.w3.org/2000/svg" width="239" height="119" viewBox="0 0 239 119" fill="none"><rect x="186.5" y="37.5" width="45" height="45" rx="22.5" fill="#A5D5FF"></rect><rect x="186.5" y="37.5" width="45" height="45" rx="22.5" stroke="white" stroke-width="5" stroke-linejoin="round"></rect><path d="M217.039 53.5263C215.918 53.2796 214.903 52.6841 214.141 51.8251C213.38 50.9661 212.909 49.8879 212.798 48.745V48.25H208.917V63.6288C208.918 64.3111 208.704 64.9765 208.305 65.5305C207.907 66.0845 207.344 66.4992 206.697 66.7157C206.05 66.9323 205.351 66.9397 204.7 66.737C204.048 66.5343 203.477 66.1317 203.067 65.5862C202.7 65.1034 202.475 64.5275 202.417 63.9235C202.36 63.3195 202.473 62.7116 202.744 62.1685C203.014 61.6254 203.431 61.1688 203.947 60.8503C204.464 60.5318 205.059 60.3641 205.666 60.3663C206.001 60.3643 206.335 60.4136 206.656 60.5125V56.575C206.283 56.5288 205.907 56.51 205.531 56.5188C204.146 56.5557 202.802 56.9957 201.664 57.7847C200.526 58.5737 199.642 59.6775 199.122 60.961C198.601 62.2444 198.466 63.6519 198.733 65.0109C199 66.3699 199.658 67.6215 200.626 68.6125C201.617 69.6207 202.886 70.3114 204.271 70.5968C205.657 70.8821 207.095 70.7493 208.405 70.2152C209.714 69.681 210.835 68.7697 211.625 67.5969C212.416 66.4242 212.84 65.0429 212.843 63.6288V55.7538C214.409 56.8719 216.286 57.4701 218.209 57.4637V53.6387C217.832 53.6403 217.454 53.6026 217.084 53.5263H217.039Z" fill="white"></path><rect x="8.5" y="37.5" width="45" height="45" rx="22.5" fill="#9A82F4"></rect><rect x="8.5" y="37.5" width="45" height="45" rx="22.5" stroke="white" stroke-width="5" stroke-linejoin="round"></rect><path fill-rule="evenodd" clip-rule="evenodd" d="M25.6404 49.0044C25.2705 49.0321 24.7082 49.1364 24.3605 49.2418C23.5899 49.4754 22.9146 49.8305 22.2699 50.3412C22.0636 50.5046 21.622 50.9357 21.4436 51.148C20.6624 52.0771 20.1983 53.131 20.0335 54.3496C20.0017 54.5847 20 54.8717 20 60.0007C20 65.1395 20.0017 65.4161 20.0337 65.6517C20.1889 66.7944 20.5987 67.7749 21.2977 68.6764C21.484 68.9167 22.03 69.4691 22.2653 69.6554C22.7761 70.0598 23.2791 70.3521 23.8664 70.5858C24.2933 70.7558 24.7362 70.8729 25.2736 70.9579L25.5395 71H30.9965H36.4535L36.7195 70.9579C37.8949 70.7719 38.8275 70.3681 39.7277 69.6554C39.9696 69.464 40.5117 68.9136 40.7045 68.6638C41.4528 67.6943 41.8869 66.5818 41.9838 65.3857C41.9989 65.1996 42.0028 63.6698 41.9982 59.8355C41.991 53.9766 42.0014 54.4748 41.874 53.8542C41.566 52.3536 40.6887 51.0208 39.4021 50.0991C39.1684 49.9316 38.876 49.7603 38.5629 49.6074C37.9761 49.3208 37.4466 49.1585 36.7195 49.0421L36.4719 49.0026L31.0974 49.0004C28.1415 48.9992 25.6858 49.001 25.6404 49.0044ZM38.6271 51.4793C39.0526 51.5793 39.4154 51.9427 39.516 52.3697C39.5519 52.5222 39.5519 52.7954 39.5159 52.9537C39.4198 53.3762 39.0484 53.7454 38.618 53.8461C38.4381 53.8882 38.1123 53.8751 37.9485 53.8191C37.5943 53.6981 37.2975 53.4012 37.1765 53.047C37.1206 52.8831 37.1074 52.5572 37.1495 52.3773C37.2502 51.9467 37.6082 51.5826 38.0312 51.4803C38.178 51.4448 38.4784 51.4443 38.6271 51.4793ZM31.4918 53.9093C33.5039 54.0811 35.2523 55.183 36.277 56.9247C36.6849 57.6181 36.9426 58.3805 37.0624 59.2484C37.1073 59.5733 37.1071 60.4302 37.0621 60.7529C36.8744 62.0995 36.3546 63.2046 35.4482 64.1839C35.3408 64.2999 35.2423 64.4031 35.2293 64.4132C35.2162 64.4233 35.152 64.4805 35.0867 64.5404C34.362 65.2034 33.408 65.7059 32.4203 65.9447C31.5179 66.1629 30.4741 66.1627 29.5698 65.944C27.2442 65.3817 25.4608 63.5204 25.0001 61.1749C24.9169 60.7512 24.8989 60.5451 24.8982 60.0098C24.8975 59.4742 24.9175 59.2411 25.0007 58.8172C25.3354 57.1119 26.3953 55.6192 27.9058 54.726C28.6614 54.2791 29.5705 53.9896 30.4646 53.9113C30.715 53.8893 31.246 53.8883 31.4918 53.9093ZM30.6572 56.3432C29.948 56.4275 29.3927 56.6347 28.8688 57.0103C27.3286 58.1144 26.8756 60.1769 27.8118 61.8216C28.2977 62.6752 29.1421 63.3192 30.0886 63.5581C30.484 63.6579 30.9708 63.6943 31.3643 63.6536C33.2382 63.4598 34.6651 61.8807 34.6651 60.0007C34.6651 58.1283 33.2554 56.5543 31.3962 56.3507C31.2312 56.3326 30.7843 56.3281 30.6572 56.3432Z" fill="white"></path><path opacity="0.3" d="M150.323 59.8232C150.226 59.9209 150.226 60.0791 150.323 60.1768L151.914 61.7678C152.012 61.8654 152.17 61.8654 152.268 61.7678C152.365 61.6701 152.365 61.5118 152.268 61.4142L150.854 60L152.268 58.5858C152.365 58.4882 152.365 58.3299 152.268 58.2322C152.17 58.1346 152.012 58.1346 151.914 58.2322L150.323 59.8232ZM172.677 60.1768C172.774 60.0791 172.774 59.9209 172.677 59.8232L171.086 58.2322C170.988 58.1346 170.83 58.1346 170.732 58.2322C170.635 58.3299 170.635 58.4882 170.732 58.5858L172.146 60L170.732 61.4142C170.635 61.5118 170.635 61.6701 170.732 61.7678C170.83 61.8654 170.988 61.8654 171.086 61.7678L172.677 60.1768ZM150.5 60V60.25H172.5V60V59.75H150.5V60Z" fill="#12284C"></path><path opacity="0.3" d="M67.8232 59.8232C67.7256 59.9209 67.7256 60.0791 67.8232 60.1768L69.4142 61.7678C69.5118 61.8654 69.6701 61.8654 69.7678 61.7678C69.8654 61.6701 69.8654 61.5118 69.7678 61.4142L68.3536 60L69.7678 58.5858C69.8654 58.4882 69.8654 58.3299 69.7678 58.2322C69.6701 58.1346 69.5118 58.1346 69.4142 58.2322L67.8232 59.8232ZM90.1768 60.1768C90.2744 60.0791 90.2744 59.9209 90.1768 59.8232L88.5858 58.2322C88.4882 58.1346 88.3299 58.1346 88.2322 58.2322C88.1346 58.3299 88.1346 58.4882 88.2322 58.5858L89.6464 60L88.2322 61.4142C88.1346 61.5118 88.1346 61.6701 88.2322 61.7678C88.3299 61.8654 88.4882 61.8654 88.5858 61.7678L90.1768 60.1768ZM68 60V60.25H90V60V59.75H68V60Z" fill="#12284C"></path><rect x="102" y="42" width="36" height="36" rx="8" fill="white"></rect><path d="M112 71H121.62C122.197 71.0003 122.767 70.8756 123.292 70.6345C123.816 70.3933 124.282 70.0414 124.657 69.603L129.759 63.651C129.866 63.5266 129.94 63.3778 129.976 63.2178C130.012 63.0577 130.008 62.8914 129.964 62.7333C129.921 62.5752 129.839 62.4303 129.726 62.3113C129.613 62.1923 129.473 62.103 129.317 62.051L127.349 61.395C126.873 61.2404 126.367 61.2054 125.875 61.2932C125.382 61.3809 124.919 61.5886 124.526 61.898L121.341 64.445L120.724 63.21C120.393 62.5443 119.883 61.9844 119.251 61.5938C118.618 61.2033 117.889 60.9976 117.146 61H112C110.897 61 110 61.897 110 63V69C110 70.103 110.897 71 112 71ZM112 63H117.146C117.909 63 118.594 63.423 118.935 64.105L119.382 65H115V67H121.014C121.168 66.998 121.319 66.9603 121.456 66.89L121.459 66.889L121.463 66.887H121.466L121.468 66.886H121.472L121.473 66.885C121.482 66.888 121.476 66.884 121.476 66.884C121.486 66.884 121.478 66.883 121.478 66.883H121.479L121.481 66.882L121.484 66.881L121.486 66.88L121.488 66.879L121.491 66.878L121.493 66.877C121.496 66.877 121.495 66.876 121.495 66.876L121.498 66.874L121.5 66.873L121.502 66.872L121.505 66.871L121.507 66.87H121.508L121.51 66.869L121.513 66.868L121.515 66.867C121.524 66.866 121.518 66.866 121.518 66.866L121.52 66.865C121.559 66.8418 121.595 66.8157 121.63 66.787L125.776 63.47C126.038 63.262 126.399 63.197 126.716 63.303L127.273 63.489L123.14 68.312C122.95 68.5279 122.716 68.7009 122.454 68.8195C122.192 68.9381 121.908 68.9996 121.62 69H112V63Z" fill="#52BEDA"></path><path d="M120.167 52.9583C118.583 52.9583 118.583 52.4596 118.583 52.1667C118.583 51.8738 119.138 51.375 120.167 51.375C121.196 51.375 121.267 51.8817 121.275 52.1667H122.858C122.848 51.6273 122.654 51.1077 122.308 50.6933C121.963 50.2789 121.487 49.9944 120.958 49.8867V49H119.375V49.8629C117.792 50.1242 117 51.1454 117 52.1667C117 53.0533 117.412 54.5417 120.167 54.5417C121.75 54.5417 121.75 55.08 121.75 55.3333C121.75 55.5867 121.259 56.125 120.167 56.125C118.71 56.125 118.583 55.4442 118.583 55.3333H117C117 56.0617 117.523 57.3521 119.375 57.645V58.5H120.958V57.645C122.542 57.3758 123.333 56.3546 123.333 55.3333C123.333 54.4467 122.922 52.9583 120.167 52.9583Z" fill="#52BEDA"></path></svg> 