<?xml version="1.0" encoding="UTF-8"?> <svg xmlns="http://www.w3.org/2000/svg" width="86" height="27" viewBox="0 0 86 27" fill="none"><rect x="0.892578" y="0.783203" width="82" height="26" rx="13" fill="#9A82F4"></rect><path d="M22.1769 19.9449L22.2501 10.3611L18.5222 10.3327L18.5352 8.63673L28.0549 8.70943L28.0419 10.4054L24.314 10.3769L24.2409 19.9606L22.1769 19.9449ZM28.4146 14.3443C28.4237 13.1604 28.6448 12.138 29.0781 11.2773C29.522 10.4167 30.151 9.7548 30.9653 9.29167C31.7796 8.81787 32.7467 8.58525 33.8667 8.5938C34.976 8.60227 35.9341 8.8496 36.7411 9.33578C37.5482 9.81129 38.1671 10.4827 38.5978 11.35C39.0392 12.2174 39.2554 13.2378 39.2464 14.4111C39.2374 15.595 39.0055 16.6226 38.5509 17.4938C38.1069 18.3545 37.4778 19.0217 36.6635 19.4955C35.8492 19.9693 34.8874 20.2019 33.7781 20.1935C32.6581 20.1849 31.6947 19.9375 30.8877 19.4514C30.0914 18.9653 29.4779 18.2886 29.0471 17.4213C28.6165 16.5433 28.4057 15.5176 28.4146 14.3443ZM30.5746 14.3608C30.5649 15.6301 30.8293 16.6242 31.3678 17.343C31.9063 18.0618 32.7142 18.4253 33.7915 18.4335C34.8368 18.4415 35.6449 18.0903 36.2157 17.38C36.7864 16.6697 37.0767 15.6799 37.0864 14.4106C37.0961 13.1306 36.8211 12.1365 36.2611 11.4282C35.7118 10.72 34.9092 10.3618 33.8532 10.3538C32.7759 10.3455 31.9626 10.6913 31.4133 11.3911C30.8639 12.091 30.5843 13.0809 30.5746 14.3608ZM41.3329 20.0912L41.419 8.81148L49.0188 8.86952L49.0064 10.4855L43.3906 10.4426L43.3668 13.5625L48.6146 13.6026L48.6022 15.2345L43.3543 15.1944L43.3293 18.4744L48.9451 18.5172L48.9326 20.1492L41.3329 20.0912ZM50.8482 20.1638L50.9343 8.88415L58.3741 8.94096L58.3618 10.5569L52.9859 10.5159L52.9615 13.7158L57.9694 13.754L57.957 15.37L52.9492 15.3317L52.9121 20.1796L50.8482 20.1638ZM60.0042 20.2337L60.0903 8.95407L62.1543 8.96983L62.0814 18.5056L67.3933 18.5461L67.38 20.2901L60.0042 20.2337Z" fill="white"></path></svg> 