<?xml version="1.0" encoding="UTF-8"?> <svg xmlns="http://www.w3.org/2000/svg" width="800" height="800" viewBox="0 0 800 800" fill="none"> <path d="M320.387 459.693V334.092C304.06 350.343 295.88 371.218 295.88 396.742C295.88 422.265 304.054 443.245 320.387 459.693Z" fill="white"></path> <path d="M469.209 373.719H499.396C497.17 363.505 492.797 354.934 486.274 348.006C479.752 341.08 472.343 336.15 464.051 333.216C461.153 332.191 458.163 331.357 455.093 330.69V359.024C455.737 359.353 456.374 359.696 456.998 360.066C462.61 363.403 466.68 367.955 469.209 373.719Z" fill="white"></path> <path d="M273.179 311.868C237.555 345.337 221.333 388.511 228.669 430.358C236.022 472.3 266.067 507.435 311.102 526.752C344.32 540.991 382.194 545.261 420.632 539.097C421.168 539.025 421.686 538.944 422.194 538.855C422.721 538.773 423.227 538.684 423.733 538.596L423.841 538.577C424.382 538.482 424.924 538.387 425.464 538.282C425.992 538.189 426.507 538.088 427.012 537.979C465.276 530.695 499.44 513.796 525.833 489.107C561.604 455.62 577.903 412.361 570.551 370.421C563.199 328.482 533.156 293.348 488.127 274.027C454.91 259.787 417.036 255.52 378.597 261.681L377.015 261.927C376.492 262.008 375.97 262.1 375.447 262.191C374.846 262.297 374.304 262.392 373.764 262.497L372.199 262.803C333.952 270.084 299.789 286.983 273.395 311.672L273.179 311.868ZM386.603 543.779C359.826 543.779 333.926 538.644 310.338 528.532C264.691 508.952 234.229 473.291 226.76 430.693C219.294 388.107 235.806 344.211 272.062 310.26L272.28 310.062C298.913 285.229 333.331 268.23 371.832 260.9L373.394 260.595C373.946 260.487 374.5 260.39 375.054 260.293C375.647 260.189 376.182 260.095 376.717 260.012L378.294 259.767C417.09 253.546 455.335 257.862 488.891 272.246C534.533 291.83 564.992 327.491 572.46 370.087C579.927 412.684 563.415 456.58 527.158 490.521C500.496 515.462 466 532.53 427.398 539.879C426.891 539.989 426.35 540.094 425.816 540.187C425.283 540.292 424.729 540.388 424.175 540.485L424.068 540.504C423.549 540.595 423.031 540.686 422.51 540.767C421.997 540.857 421.452 540.942 420.914 541.015C409.396 542.861 397.919 543.779 386.603 543.779Z" fill="white"></path> <path d="M274.615 310.542C280.462 312.337 286.977 313.803 294.007 314.905C319.764 318.942 351.787 318.038 384.181 312.359C416.571 306.68 446.989 296.638 469.835 284.08C476.086 280.644 481.716 277.048 486.596 273.379C453.747 259.659 416.445 255.613 378.597 261.681L377.015 261.927C376.492 262.008 375.97 262.1 375.448 262.191C374.846 262.297 374.304 262.392 373.764 262.497L372.199 262.803C334.538 269.973 300.837 286.466 274.615 310.542ZM328.558 319.327C316.152 319.327 304.397 318.496 293.707 316.819C285.934 315.601 278.778 313.941 272.435 311.887L270.872 311.38L272.072 310.258C298.733 285.317 333.229 268.249 371.832 260.9L373.394 260.595C373.946 260.487 374.5 260.39 375.054 260.293C375.647 260.189 376.182 260.096 376.717 260.012L378.294 259.767C417.09 253.545 455.335 257.862 488.891 272.246L490.401 272.894L489.103 273.902C483.849 277.983 477.68 281.978 470.769 285.779C447.741 298.435 417.11 308.553 384.516 314.267C365.34 317.629 346.284 319.327 328.558 319.327Z" fill="white"></path> <path d="M395.671 260.431C389.98 260.431 384.273 260.846 378.585 261.683L377.015 261.927C376.491 262.008 375.969 262.1 375.447 262.191C374.846 262.297 374.304 262.392 373.764 262.497L372.198 262.803C340.74 269.208 313.202 288.241 294.666 316.396C274.519 347.017 267.071 384.686 273.694 422.466C280.317 460.243 300.134 493.133 329.497 515.074C356.504 535.244 388.873 543.775 420.644 539.096C421.167 539.026 421.686 538.944 422.195 538.855C422.721 538.773 423.228 538.684 423.734 538.596L423.84 538.577C424.382 538.482 424.924 538.387 425.465 538.282C425.992 538.189 426.507 538.088 427.012 537.979C458.494 531.569 486.028 512.537 504.553 484.385C524.708 453.767 532.159 416.097 525.535 378.314C518.911 340.531 499.09 307.643 469.722 285.706C447.557 269.146 421.774 260.431 395.671 260.431ZM403.552 542.286C377.039 542.286 350.851 533.439 328.337 516.627C298.577 494.388 278.494 461.067 271.785 422.8C265.077 384.533 272.628 346.365 293.048 315.331C311.869 286.742 339.844 267.413 371.819 260.903L373.394 260.595C373.946 260.487 374.5 260.39 375.054 260.293C375.647 260.189 376.182 260.096 376.717 260.012L378.294 259.767C410.591 255.01 443.469 263.672 470.882 284.153C500.647 306.387 520.734 339.709 527.444 377.979C534.153 416.25 526.599 454.418 506.172 485.451C487.36 514.036 459.388 533.364 427.409 539.876C426.891 539.989 426.35 540.094 425.816 540.187C425.283 540.291 424.729 540.389 424.175 540.485L424.068 540.504C423.549 540.595 423.031 540.686 422.511 540.767C421.997 540.857 421.452 540.942 420.915 541.015C415.135 541.865 409.335 542.286 403.552 542.286Z" fill="white"></path> <path d="M312.633 527.4C345.972 541.322 383.819 545.284 422.202 538.853C422.721 538.773 423.228 538.684 423.734 538.596L423.84 538.577C424.382 538.482 424.925 538.387 425.464 538.282C463.759 531.269 498.001 514.668 524.614 490.237C518.775 488.445 512.258 486.98 505.213 485.875C479.459 481.838 447.436 482.741 415.047 488.42C382.654 494.099 352.231 504.142 329.385 516.7C323.145 520.131 317.519 523.725 312.633 527.4ZM386.62 543.789C359.845 543.789 333.954 538.654 310.338 528.533L308.828 527.886L310.126 526.877C315.388 522.79 321.554 518.794 328.451 515.002C351.48 502.344 382.115 492.226 414.713 486.512C447.306 480.798 479.552 479.892 505.513 483.96C513.302 485.182 520.462 486.841 526.794 488.892L528.357 489.399L527.157 490.522C500.102 515.827 465.062 533 425.824 540.186C425.283 540.291 424.729 540.389 424.175 540.485L424.068 540.504C423.549 540.595 423.031 540.686 422.511 540.766C410.458 542.786 398.451 543.789 386.62 543.789Z" fill="white"></path> <path d="M227.885 431.481L227.551 429.572L571.342 369.3L571.677 371.209L227.885 431.481Z" fill="white"></path> <path d="M423.053 539.699L374.267 261.417L376.175 261.083L424.961 539.365L423.053 539.699Z" fill="white"></path> <path d="M390.924 393.135V413.615H425.512C423.689 421.578 419.815 427.634 413.893 431.768C413.578 431.992 413.255 432.208 412.923 432.424C406.453 436.576 399.12 438.642 390.924 438.642C386.485 438.642 382.324 438.076 378.459 436.944C372.124 435.084 366.571 431.714 361.799 426.816C354.116 418.926 350.269 408.915 350.269 396.775C350.269 384.544 354.089 374.533 361.727 366.742C366.454 361.907 372.035 358.582 378.469 356.749C382.405 355.617 386.655 355.06 391.229 355.06C398.608 355.06 405.113 356.732 410.721 360.065C411.736 360.667 412.698 361.306 413.614 361.988C417.757 365.08 420.867 368.998 422.933 373.716H453.119C451.672 367.075 449.317 361.134 446.047 355.886C444.303 353.056 442.282 350.423 439.999 348.005C433.475 341.077 426.07 336.153 417.776 333.214C416.428 332.738 415.052 332.297 413.669 331.902C406.533 329.844 398.904 328.82 390.771 328.82C369.842 328.82 352.875 335.137 339.881 347.781C326.887 360.424 320.389 376.753 320.389 396.775C320.389 416.599 326.761 432.882 339.503 445.625C352.246 458.367 368.224 464.739 387.437 464.739C395.893 464.739 403.442 463.49 410.083 460.983C412.41 460.111 414.621 459.087 416.715 457.909C424.802 453.363 431.174 447.342 435.829 439.856L436.135 464.703C443.099 464.496 449.426 463.409 455.096 461.45V393.135H390.924Z" fill="white"></path> <path d="M501.367 393.135V464.739H482.405L482.1 439.856C477.454 447.342 471.082 453.363 462.985 457.909C460.524 459.302 457.872 460.452 455.095 461.414V434.697C456.498 434.014 457.872 433.277 459.194 432.424C465.664 428.281 469.869 422.009 471.784 413.615H455.095V393.135H501.367Z" fill="white"></path> </svg> 