<?xml version="1.0" encoding="UTF-8"?> <svg xmlns="http://www.w3.org/2000/svg" width="1384" height="531" viewBox="0 0 1384 531" fill="none"><g opacity="0.23"><path d="M544.953 401.116C546.448 392.58 554.616 386.848 563.148 388.344C571.679 389.84 577.409 398.011 575.914 406.547L570.008 405.516C570.938 400.236 567.395 395.182 562.117 394.252C556.84 393.322 551.789 396.867 550.859 402.159L544.953 401.129V401.116Z" fill="#407BFF" style="mix-blend-mode:screen"></path></g><path d="M9.62238 283.684C4.31447 276.836 5.56697 266.932 12.4109 261.621C19.2547 256.309 29.1516 257.563 34.4595 264.411L29.7256 268.091C26.4457 263.851 20.325 263.076 16.088 266.358C11.8511 269.64 11.0764 275.765 14.3656 280.013L9.63169 283.693L9.62238 283.684Z" fill="#1887BE" style="mix-blend-mode:screen"></path><path d="M741.827 179.426C735.171 173.88 734.268 163.939 739.812 157.281C745.356 150.622 755.292 149.718 761.947 155.265L758.113 159.876C753.999 156.441 747.854 157 744.421 161.116C740.987 165.232 741.546 171.38 745.671 174.821L741.838 179.433L741.827 179.426Z" fill="#159FD4" style="mix-blend-mode:screen"></path><path d="M1172.54 531C1165.56 531 1159.87 525.318 1159.87 518.328C1159.87 511.338 1165.54 505.643 1172.54 505.643C1179.54 505.643 1185.22 511.326 1185.22 518.328C1185.22 525.33 1179.54 531 1172.54 531ZM1172.54 510.647C1168.31 510.647 1164.87 514.091 1164.87 518.328C1164.87 522.564 1168.31 526.009 1172.54 526.009C1176.78 526.009 1180.22 522.564 1180.22 518.328C1180.22 514.091 1176.78 510.647 1172.54 510.647Z" fill="#407BFF" style="mix-blend-mode:screen"></path><path d="M1364.17 29.241L1353.2 0L1384 5.11632L1364.17 29.241ZM1360.93 6.34829L1365.82 19.3724L1374.65 8.62378L1360.93 6.33571V6.34829Z" fill="#30D2FB" style="mix-blend-mode:screen"></path><path d="M151.365 378.287L176.336 359.544L180.075 390.553L151.365 378.287ZM172.416 368.747L161.294 377.097L174.085 382.561L172.428 368.743L172.416 368.747Z" fill="#16649A" style="mix-blend-mode:screen"></path><path d="M598.334 46.3016L623.305 27.5581L627.044 58.5676L598.334 46.3016ZM619.385 36.761L608.263 45.1114L621.055 50.5755L619.397 36.7574L619.385 36.761Z" fill="#0BB8EC" style="mix-blend-mode:screen"></path><path d="M324.167 310.581C317.181 310.581 311.489 304.898 311.489 297.908C311.489 290.919 317.168 285.224 324.167 285.224C331.166 285.224 336.845 290.906 336.845 297.908C336.845 304.911 331.166 310.581 324.167 310.581ZM324.167 290.228C319.933 290.228 316.49 293.672 316.49 297.908C316.49 302.145 319.933 305.59 324.167 305.59C328.402 305.59 331.845 302.145 331.845 297.908C331.845 293.672 328.402 290.228 324.167 290.228Z" fill="#1A7CB4" style="mix-blend-mode:screen"></path><path d="M81.5588 50.7918L77.274 53.369L74.4091 48.6044L67.6364 53.2809L63.3894 46.2285L56.6167 50.905L51 41.5769L55.2722 39L58.1496 43.7769L64.9349 39.0878L69.182 46.1404L75.9421 41.4639L81.5588 50.7918Z" fill="#32CFFA" style="mix-blend-mode:screen"></path><path d="M584.236 295.464L585.242 290.565L590.686 291.682L591.834 283.529L599.896 285.179L601.043 277.026L611.707 279.208L610.709 284.098L605.248 282.982L604.101 291.152L596.038 289.503L594.9 297.646L584.236 295.464Z" fill="#177FB5" style="mix-blend-mode:screen"></path><path d="M1255.65 384.423L1250.66 384.121L1251 378.565H1242.78L1243.28 370.343H1235.05L1235.73 359.469L1240.72 359.771L1240.37 365.34H1248.61L1248.1 373.561H1256.33L1255.65 384.423Z" fill="#267BB9" style="mix-blend-mode:screen"></path></svg> 