<?xml version="1.0" encoding="UTF-8"?> <svg xmlns="http://www.w3.org/2000/svg" width="308" height="89" viewBox="0 0 308 89" fill="none"><g clip-path="url(#clip0_1092_79)"><g opacity="0.4"><path d="M3.23683 64.4048C2.50784 56.0743 8.70007 48.6967 17.0306 47.9677C25.3612 47.2387 32.7388 53.4309 33.4678 61.7614L27.7026 62.2703C27.2563 57.1161 22.6937 53.2865 17.5396 53.7328C12.3854 54.1792 8.55574 58.7418 9.0052 63.9077L3.23996 64.4165L3.23683 64.4048Z" fill="#407BFF"></path><path d="M219.431 21.0061L222.509 18.2316L225.594 21.6522L230.364 16.7765L234.936 21.8385L239.706 16.9628L245.752 23.6584L242.684 26.4307L239.587 23.0021L234.809 27.89L230.237 22.8278L225.478 27.7015L219.431 21.0061Z" fill="#407BFF"></path><path d="M37.1226 1.99857L41.1979 1.24803L42.0335 5.77801L48.6506 4.12409L49.8926 10.8311L56.5097 9.17717L58.1517 18.0483L54.0863 18.8022L53.2445 14.2591L46.614 15.9191L45.3721 9.21185L38.7648 10.8694L37.1226 1.99857Z" fill="#00C1DE"></path><path d="M297.116 60.2166L279.207 49.375L297.552 39.2855L297.116 60.2166ZM285.911 49.5097L293.889 54.3377L294.083 45.0124L285.906 49.5031L285.911 49.5097Z" fill="#407BFF"></path><path d="M207.504 77.9568L216.256 50.6836L235.5 71.9009L207.504 77.9568ZM218.202 59.6492L214.305 71.7979L226.778 69.0992L218.209 59.6401L218.202 59.6492Z" fill="#00C1DE"></path></g></g><defs><clipPath id="clip0_1092_79"><rect width="308" height="89" fill="white"></rect></clipPath></defs></svg> 