<?xml version="1.0" encoding="UTF-8"?> <svg xmlns="http://www.w3.org/2000/svg" width="211" height="55" viewBox="0 0 211 55" fill="none"><g clip-path="url(#clip0_2226_230)"><mask id="mask0_2226_230" style="mask-type:luminance" maskUnits="userSpaceOnUse" x="-1" y="0" width="212" height="55"><path d="M-0.000244141 1.43564e-06H211V55H-0.000244141V1.43564e-06Z" fill="white"></path></mask><g mask="url(#mask0_2226_230)"><path d="M86.3146 37.2462C86.3146 36.8216 86.0369 36.5075 85.4692 36.3851V36.1104C85.7835 36.1104 86.8301 36.1524 87.1246 36.1524C87.3793 36.1524 88.3928 36.1104 88.7081 36.1104V36.3851C88.1813 36.4875 87.9046 36.7974 87.9046 37.2462V42.6354C87.9046 44.342 88.8452 45.3067 90.8126 45.3067C92.5078 45.3067 93.8269 44.5483 93.8269 42.7623V37.2252C93.8269 36.8249 93.5745 36.5075 92.9394 36.3851V36.1104C93.1705 36.1104 94.0359 36.1524 94.3314 36.1524C94.5838 36.1524 95.492 36.1104 95.7244 36.1104V36.3851C95.1116 36.5307 94.8392 36.8039 94.8392 37.2252V42.4653C94.8392 44.8172 93.466 46.168 90.5028 46.168C87.7442 46.168 86.3146 44.9186 86.3146 42.7091V37.2462Z" fill="white"></path><path d="M98.1482 45.7457C98.79 45.6266 99.0434 45.3027 99.0434 44.9056V37.4569C99.0434 36.8251 98.7058 36.5409 98.1304 36.3844V36.1097C98.4559 36.1339 99.0023 36.1481 99.2812 36.1481C99.5346 36.1481 99.9286 36.1439 100.194 36.1097L106.678 43.7062V37.2254C106.678 36.8261 106.424 36.5087 105.791 36.3844V36.1097C106.023 36.1097 106.858 36.1526 107.154 36.1526C107.412 36.1526 108.306 36.1097 108.542 36.1097V36.3844C107.923 36.5297 107.625 36.8054 107.625 37.2254V46.168H107.234C106.988 46.1118 106.523 45.8483 105.815 45.0744L100.014 38.3412V44.9056C100.014 45.3047 100.245 45.6211 100.878 45.7457V46.0214C100.646 46.0214 99.8113 45.9774 99.5148 45.9774C99.2592 45.9774 98.3838 46.0214 98.1482 46.0214V45.7457Z" fill="white"></path><path d="M149.314 43.7364H149.588C149.733 44.293 150.053 44.8004 150.501 45.0936C150.967 45.421 151.698 45.5776 152.289 45.5776C153.594 45.5776 154.421 44.9338 154.421 43.9149C154.421 42.8599 153.361 42.312 152.092 41.6802C151.148 41.2094 149.294 40.4323 149.294 38.6461C149.294 36.9822 150.568 35.9471 152.605 35.9471C153.949 35.9471 154.58 36.2744 155.487 36.2325L155.47 38.2512H155.193C154.83 37.0616 153.746 36.647 152.558 36.647C151.23 36.647 150.734 37.4037 150.734 38.1731C150.734 39.2746 151.815 39.83 153.042 40.3749C154.421 40.9867 155.917 41.7596 155.917 43.4807C155.917 45.1101 154.637 46.29 152.299 46.29C150.908 46.29 150.074 45.8942 149.343 45.8046L149.314 43.7364Z" fill="white"></path><path d="M177.179 41.9211L174.539 37.7008C174.088 36.9598 173.743 36.5693 173.241 36.3842V36.1105C173.603 36.1105 174.58 36.1537 174.857 36.1537C175.108 36.1537 176.163 36.1105 176.544 36.1105V36.3842C176.206 36.4437 176.048 36.6122 176.048 36.8659C176.048 37.0897 176.201 37.3776 176.355 37.6278C176.505 37.8758 178.301 40.844 178.301 40.844L180.176 37.6291C180.366 37.3069 180.5 36.9873 180.5 36.7765C180.5 36.5847 180.363 36.4259 180.044 36.3842V36.1105C180.361 36.1105 181.028 36.1537 181.241 36.1537C181.454 36.1537 182.22 36.1105 182.535 36.1105V36.3655C181.814 36.6599 181.364 37.2905 180.927 38.0214L178.527 42.0182M178.69 41.5143V44.8857C178.69 45.2199 178.946 45.6399 179.523 45.7455V46.0215C179.202 46.0215 178.15 45.9773 177.846 45.9773C177.591 45.9773 176.582 46.0215 176.218 46.0215V45.7455C176.798 45.6399 177.076 45.2199 177.076 44.8857V41.6621" fill="white"></path><path d="M128.122 36.1099H134.313C134.504 36.1099 134.84 36.0879 135.031 36.0052H135.308L135.265 38.0095H134.99C134.754 37.3789 134.51 36.874 133.312 36.874H130.624V40.3669H132.695C132.997 40.3669 133.364 40.3414 133.522 40.3039C133.988 40.2025 134.193 39.9443 134.287 39.5488H134.563C134.543 39.8507 134.543 40.5399 134.543 40.7439C134.543 40.949 134.563 41.6744 134.563 42.003H134.287C134.153 41.6082 133.972 41.3083 133.522 41.1982C133.364 41.1562 132.991 41.122 132.695 41.122H130.624V45.2192H133.547C134.824 45.2192 135.195 44.6888 135.512 43.9391L135.786 44.0028L135.512 46.0615C134.563 45.9776 133.993 45.9776 132.915 45.9776H129.826C129.528 45.9776 128.436 46.0208 128.119 46.0208V45.7461C128.676 45.6402 129.002 45.3655 129.002 44.8331V37.2556C129.002 36.7859 128.748 36.4924 128.122 36.3878V36.1099Z" fill="white"></path><path d="M112.309 37.3102C112.309 36.802 112.005 36.5221 111.409 36.394V36.1218C111.741 36.1218 112.815 36.1635 113.129 36.1635C113.391 36.1635 114.495 36.1218 114.832 36.1218V36.394C114.238 36.5221 113.927 36.7753 113.927 37.3102V44.8351C113.927 45.3432 114.233 45.6199 114.832 45.7455V46.0215C114.496 46.0215 113.437 45.9783 113.129 45.9783C112.862 45.9783 111.741 46.0215 111.408 46.0215V45.7455C112.017 45.6322 112.309 45.3665 112.309 44.8351V37.3102Z" fill="white"></path><path d="M159.273 37.3102C159.273 36.802 158.966 36.5221 158.37 36.394V36.1218C158.702 36.1218 159.778 36.1635 160.089 36.1635C160.353 36.1635 161.458 36.1218 161.793 36.1218V36.394C161.2 36.5221 160.89 36.7753 160.89 37.3102V44.8351C160.89 45.3432 161.195 45.6199 161.793 45.7455V46.0215C161.46 46.0215 160.402 45.9783 160.089 45.9783C159.827 45.9783 158.702 46.0215 158.37 46.0215V45.7455C158.979 45.6322 159.273 45.3665 159.273 44.8351V37.3102Z" fill="white"></path><path d="M167.879 36.1525C164.485 36.1525 163.942 36.0895 163.248 36.0466L163.254 38.0886H163.53C163.784 37.1833 164.289 36.9728 164.945 36.9728H167.073V44.8351C167.073 45.3662 166.781 45.6322 166.171 45.7455V46.0215C166.506 46.0215 167.637 45.9783 167.898 45.9783C168.209 45.9783 169.271 46.0215 169.602 46.0215V45.7455C169.002 45.6199 168.698 45.3432 168.698 44.8351V36.9728H170.81C171.489 36.9728 171.975 37.2033 172.228 38.0886H172.502L172.506 36.0466C171.817 36.0895 171.274 36.1525 167.879 36.1525Z" fill="white"></path><path d="M140.798 44.8342C140.798 45.3423 141.122 45.618 141.721 45.7446V46.0206C141.389 46.0206 140.303 45.9774 139.994 45.9774C139.728 45.9774 138.668 46.0206 138.334 46.0206V45.7446C138.889 45.639 139.217 45.3656 139.217 44.8342V37.2324C139.217 36.7649 138.961 36.4705 138.336 36.3646V36.0911C138.668 36.0911 139.718 36.1328 140.015 36.1328C140.501 36.1328 141.881 36.0514 142.425 36.0514C144.804 36.0514 146.128 37.0316 146.128 38.7117C146.128 40.0325 145.142 40.9258 143.624 41.2906C143.624 41.2906 143.971 41.4911 144.316 41.8914C144.735 42.3841 145.868 44.0041 146.338 44.5704C146.808 45.1386 147.408 45.7724 148.052 45.8011V46.0226C147.744 46.0898 147.249 46.1484 146.871 46.1484C146.063 46.1484 145.418 45.864 144.792 45.1088C144.25 44.4516 143.33 43.0878 142.789 42.3986C142.443 41.9599 142.023 41.617 141.255 41.4911C141.107 41.4659 140.966 41.4449 140.798 41.4252V44.8342ZM140.798 40.7944C141.115 40.8374 141.58 40.8573 142.041 40.8573C143.903 40.8573 144.49 39.79 144.49 38.8453C144.49 37.5091 143.594 36.681 141.964 36.681C141.627 36.681 141.138 36.7229 140.798 36.7866V40.7944Z" fill="white"></path><path d="M117.217 37.3423C117 36.8639 116.667 36.5133 116.099 36.3889V36.1097C116.452 36.1097 117.675 36.1539 117.944 36.1539C118.191 36.1539 119.26 36.1097 119.623 36.1097V36.3809C119.3 36.4426 118.933 36.6202 118.933 36.9488C118.933 37.1835 119.076 37.5034 119.349 38.1055L121.912 43.9155L124.337 38.0955C124.529 37.6258 124.667 37.2619 124.667 36.984C124.667 36.6766 124.383 36.4636 123.98 36.3809V36.1097C124.302 36.1097 125.092 36.1539 125.338 36.1539C125.562 36.1539 126.49 36.1097 126.844 36.1097V36.3889C126.238 36.552 125.87 36.8839 125.53 37.67L121.961 46.0566H121.153L117.217 37.3423Z" fill="white"></path><path d="M126.369 10.8921C125.956 9.98458 125.323 9.32307 124.251 9.08608V8.55792C124.918 8.55792 127.133 8.63733 127.642 8.63733C128.111 8.63733 130.257 8.55792 130.941 8.55792V9.07285C130.334 9.19097 129.637 9.52834 129.637 10.1511C129.637 10.5909 129.912 11.1987 130.421 12.3375L135.282 23.3485L139.881 12.3187C140.24 11.4257 140.508 10.7432 140.508 10.2151C140.508 9.62848 139.963 9.23067 139.201 9.07285V8.55792C139.809 8.55792 141.289 8.63733 141.759 8.63733C142.186 8.63733 143.943 8.55792 144.612 8.55792V9.05637C143.466 9.36627 142.764 10.0223 142.125 11.5116L135.364 27.4092H133.833L126.369 10.8921Z" fill="white"></path><path d="M60.9146 26.804C61.7975 26.6033 62.4183 26.2032 62.4183 25.2066V10.632C62.4183 9.6751 61.8406 9.27805 60.9146 9.03782V8.52064C61.3782 8.52064 63.3755 8.59905 63.8612 8.59905C64.4211 8.59905 66.5146 8.52064 66.975 8.52064V9.03782C66.093 9.23734 65.4391 9.6364 65.4391 10.632V16.7203H76.3361V10.632C76.3361 9.6364 75.7552 9.23734 74.8346 9.03782V8.52064C75.2948 8.52064 77.3509 8.59905 77.9095 8.59905C78.392 8.59905 80.4359 8.52064 80.8915 8.52064V9.03782C80.0088 9.23734 79.3546 9.6364 79.3546 10.632V25.2066C79.3546 26.1635 79.9687 26.5648 80.8915 26.804V27.2812C80.4359 27.2812 78.392 27.2418 77.9095 27.2418C77.3509 27.2418 75.2948 27.2812 74.8346 27.2812V26.804C75.711 26.6033 76.3361 26.2032 76.3361 25.2066V18.3187H65.4391V25.2066C65.4391 26.2032 66.0521 26.5648 66.975 26.804V27.2812C66.5146 27.2812 64.4211 27.2418 63.8612 27.2418C63.3755 27.2418 61.3782 27.2812 60.9146 27.2812V26.804Z" fill="white"></path><path d="M186.958 26.8041C188.089 26.6033 188.712 26.1558 188.712 25.1272V10.6321C188.712 9.63322 188.098 9.23741 187.005 9.03788V8.52071C187.634 8.52071 189.684 8.59912 190.251 8.59912C191.168 8.59912 193.724 8.3996 195.713 8.3996C202.417 8.3996 206.486 12.1294 206.486 17.8009C206.486 23.3135 202.252 27.3984 195.34 27.3984C193.347 27.3984 190.984 27.2419 190.059 27.2419C189.497 27.2419 187.586 27.321 186.958 27.321V26.8041ZM191.731 25.8437C192.414 25.9673 193.675 26.0444 194.67 26.0444C200.301 26.0444 203.232 22.6675 203.232 17.9575C203.232 13.0744 200.139 9.63872 194.875 9.63872C193.799 9.63872 192.455 9.71913 191.731 9.83625V25.8437Z" fill="white"></path><path d="M111.083 25.0736C111.083 26.0395 111.697 26.5642 112.827 26.8034V27.3206C112.198 27.3206 110.147 27.2412 109.558 27.2412C109.06 27.2412 107.048 27.3206 106.419 27.3206V26.8034C107.468 26.6029 108.087 26.0824 108.087 25.0736V10.6823C108.087 9.79683 107.607 9.23695 106.421 9.03718V8.52C107.051 8.52 109.038 8.59842 109.596 8.59842C110.518 8.59842 113.132 8.44534 114.163 8.44534C118.671 8.44534 121.18 10.303 121.18 13.4805C121.18 15.9854 119.308 17.6711 116.435 18.3668C116.435 18.3668 117.086 18.7451 117.742 19.5068C118.538 20.4385 120.733 23.5697 121.621 24.6423C122.508 25.7164 123.647 26.9158 124.864 26.971V27.3935C124.281 27.5188 123.347 27.626 122.633 27.626C121.096 27.626 119.876 27.0901 118.689 25.6567C117.665 24.4131 115.875 21.7692 114.849 20.464C114.194 19.6324 113.404 18.9844 111.953 18.7451C111.668 18.6964 111.399 18.659 111.083 18.6238V25.0736ZM111.083 17.4298C111.68 17.508 112.562 17.5477 113.436 17.5477C116.961 17.5477 118.069 15.5257 118.069 13.7394C118.069 11.2028 116.374 9.63801 113.285 9.63801C112.649 9.63801 111.722 9.71867 111.083 9.83554V17.4298Z" fill="white"></path><path d="M170.499 25.0736C170.499 26.0395 171.115 26.5642 172.246 26.8034V27.3206C171.618 27.3206 169.569 27.2412 168.98 27.2412C168.473 27.2412 166.468 27.3206 165.837 27.3206V26.8034C166.884 26.6029 167.504 26.0824 167.504 25.0736V10.6823C167.504 9.79683 167.019 9.23695 165.84 9.03718V8.52C166.472 8.52 168.453 8.59842 169.015 8.59842C169.939 8.59842 172.551 8.44534 173.576 8.44534C178.092 8.44534 180.594 10.303 180.594 13.4805C180.594 15.9854 178.726 17.6711 175.85 18.3668C175.85 18.3668 176.505 18.7451 177.156 19.5068C177.959 20.4385 180.154 23.5697 181.038 24.6423C181.929 25.7164 183.068 26.9158 184.278 26.971V27.3935C183.703 27.5188 182.764 27.626 182.057 27.626C180.517 27.626 179.291 27.0901 178.107 25.6567C177.084 24.4131 175.299 21.7692 174.264 20.464C173.609 19.6324 172.822 18.9844 171.374 18.7451C171.084 18.6964 170.818 18.659 170.499 18.6238V25.0736ZM170.499 17.4298C171.103 17.508 171.979 17.5477 172.854 17.5477C176.381 17.5477 177.486 15.5257 177.486 13.7394C177.486 11.2028 175.789 9.63801 172.707 9.63801C172.064 9.63801 171.142 9.71867 170.499 9.83554V17.4298Z" fill="white"></path><path d="M83.7583 26.8003C84.9511 26.5226 85.6062 25.7529 86.041 24.7231L92.0761 10.2547C92.3328 9.65611 92.6315 8.42547 92.6315 8.42547H94.3202C94.3202 8.42547 94.6222 9.65935 94.8734 10.2592L101.251 24.7628C101.706 25.7617 102.198 26.4829 103.467 26.8003L103.463 27.2822C102.773 27.2822 100.626 27.2425 100.138 27.2425C99.6523 27.2425 97.6019 27.2822 96.9127 27.2822L96.915 26.8003C97.8433 26.5733 98.1365 26.1025 98.1365 25.647C98.1365 25.2602 97.9761 24.8235 97.7814 24.3705L96.4102 21.2544H89.3826L88.127 24.3879C87.9864 24.7431 87.8192 25.2447 87.8192 25.5831C87.8192 26.1058 88.0937 26.5226 89.147 26.8003L89.1448 27.2822C88.5207 27.2822 86.8731 27.2425 86.4871 27.2425L83.7573 27.2822L83.7583 26.8003ZM95.7741 19.7771L92.7731 12.8103L89.9781 19.7771H95.7741Z" fill="white"></path><path d="M143.547 26.8003C144.739 26.5226 145.397 25.7529 145.829 24.7231L151.866 10.2547C152.123 9.65611 152.425 8.42547 152.425 8.42547H154.114C154.114 8.42547 154.413 9.65935 154.663 10.2592L161.043 24.7628C161.494 25.7617 161.991 26.4829 163.254 26.8003L163.251 27.2822C162.563 27.2822 160.414 27.2425 159.923 27.2425C159.442 27.2425 157.392 27.2822 156.702 27.2822V26.8003C157.636 26.5733 157.925 26.1025 157.925 25.647C157.925 25.2602 157.766 24.8235 157.575 24.3705L156.199 21.2544H149.171L147.914 24.3879C147.773 24.7431 147.607 25.2447 147.607 25.5831C147.607 26.1058 147.882 26.5226 148.935 26.8003V27.2822C148.309 27.2822 146.664 27.2425 146.275 27.2425L143.545 27.2822L143.547 26.8003ZM155.563 19.7771L152.56 12.8103L149.767 19.7771H155.563Z" fill="white"></path><path d="M5.19629 2.67054H47.2752V18.5084C47.2752 25.7651 44.5642 41.1542 26.3928 52.6074C26.3928 52.6074 6.70331 44.4143 5.19629 18.5084L5.19629 2.67054Z" fill="white"></path><path d="M5.10986 2.62812H47.2297V18.477C47.2297 25.7361 44.5154 41.1337 26.3274 52.5947C26.3274 52.5947 6.61914 44.3964 5.10986 18.477L5.10986 2.62812Z" stroke="#8F8F8F" stroke-width="0.0578532"></path><path d="M37.0459 23.0221C37.0459 23.0221 36.6708 24.2137 35.0023 22.9889L29.2738 22.851C29.2738 22.851 28.5236 23.0915 28.4216 22.3096C28.4216 22.3096 28.559 20.7476 28.4893 20.6108C28.4893 20.6108 28.5236 20.1697 27.771 20.1697C27.771 20.1697 26.6136 20.3053 26.5793 19.2845C26.5793 19.2845 26.377 18.1974 27.978 18.2336C27.978 18.2336 28.4893 18.4706 28.5236 17.8236C28.5236 17.8236 28.4562 13.4058 28.4893 13.0684C28.4893 13.0684 28.6264 12.6626 27.8407 12.5932C27.8407 12.5932 26.7166 12.8302 26.5793 12.085C26.5793 12.085 26.5119 10.9637 27.2632 10.8943C27.2632 10.8943 28.1828 10.9637 28.353 10.7245C28.353 10.7245 28.559 10.8589 28.5236 10.0475L28.559 8.65157C28.559 8.65157 28.6575 8.27898 29.2384 8.31544C29.2384 8.31544 30.2961 8.38262 30.4344 8.27898C30.4344 8.27898 30.6703 7.97482 30.7399 7.83672C30.7399 7.83672 31.2865 7.80376 31.3873 7.94036C31.3873 7.94036 32.2061 8.484 35.3086 8.27898C35.3086 8.27898 35.7868 8.27898 35.8863 8.41583C35.8863 8.41583 36.4682 8.85659 36.8081 8.38262C36.8081 8.38262 37.3194 8.27898 38.853 8.31544C38.853 8.31544 40.5259 8.7552 41.6823 7.80376L42.0585 7.87218C42.0585 7.87218 42.5354 8.65157 42.8763 8.41583C42.8763 8.41583 43.8998 8.31544 44.069 8.51822C44.069 8.51822 44.4088 9.0244 44.2394 10.3539C44.2394 10.3539 44.0372 10.9295 45.0251 10.9295C45.0251 10.9295 46.1517 10.7245 46.0131 11.7773C46.0131 11.7773 46.3196 12.967 44.4464 12.7982C44.4464 12.7982 44.2063 13.1378 44.2394 13.3761C44.2394 13.3761 44.2063 17.247 44.172 17.6913C44.172 17.6913 44.1387 18.3033 44.9555 18.2679C44.9555 18.2679 46.0477 18.1974 46.084 19.1841C46.084 19.1841 46.2191 20.4752 44.6489 20.2359C44.6489 20.2359 44.172 20.3053 44.1011 20.6108L44.0372 22.3096C44.0372 22.3096 44.069 23.1587 43.1164 22.9536C42.9803 22.9536 37.7983 23.0585 37.3537 22.9229C37.3537 22.9229 37.1124 22.8887 37.0459 23.0221Z" fill="white"></path><path d="M26.0328 28.6999C26.0328 28.6999 26.2719 28.5995 26.3393 28.4319C26.3393 28.4319 27.0564 28.3623 27.1569 28.2611L29.4088 28.4319C29.4088 28.4319 31.6241 28.5995 32.5789 27.917C32.5789 27.917 32.922 27.917 33.1609 28.0206C33.1609 28.0206 33.6356 28.1243 33.7717 28.325L35.0687 28.2908C35.0687 28.2908 35.8188 28.5311 35.7491 29.0073V29.6171C35.7491 29.6171 35.612 30.841 35.9529 30.9104H36.9441C36.9441 30.9104 37.7631 31.2832 37.6601 31.7582C37.6601 31.7582 37.6945 32.4352 36.9797 32.5731C36.9797 32.5731 36.2604 32.7758 36.0246 32.7439C36.0246 32.7439 35.7845 33.0483 35.7491 33.4219L35.6496 37.8729C35.6496 37.8729 35.5799 38.3481 36.297 38.2807C36.297 38.2807 37.3514 38.1783 37.6601 38.7582C37.6601 38.7582 37.9333 39.7416 37.388 39.9114L36.9797 40.1132L36.091 40.2545C36.091 40.2545 35.7183 40.2852 35.6827 40.9303V42.1174C35.6827 42.1174 35.7183 42.9358 35.0687 42.9358L34.1138 43.0039C34.1138 43.0039 33.8757 43.2047 33.399 43.0691C33.399 43.0691 27.6017 43.1738 27.397 43.1046L26.7145 43.2422C26.7145 43.2422 25.9652 43.9214 25.3511 43.4097L24.8742 43.0359C24.8742 43.0359 24.5323 43.1046 24.3985 43.0691C24.2614 43.0359 17.9872 43.1385 17.9872 43.1385C17.9872 43.1385 16.6571 43.2764 16.5564 42.8321C16.5564 42.8321 16.3862 41.1011 16.4536 40.8938C16.4536 40.8938 16.4536 40.3866 16.1471 40.3536C16.1471 40.3536 14.817 40.2852 14.7827 40.1474C14.7827 40.1474 14.0657 39.6404 14.2704 39.1318C14.2704 39.1318 14.5105 38.4495 15.2253 38.3821C15.2253 38.3821 16.3163 38.5542 16.3163 38.2477C16.3163 38.2477 16.3862 38.0437 16.3862 37.7053C16.3862 37.7053 16.4536 33.6601 16.4193 33.3889C16.4193 33.3889 16.521 32.8795 16.0774 32.8795C16.0774 32.8795 15.6005 33.0141 15.295 32.8113C15.295 32.8113 14.4762 32.8455 14.3058 32.1992C14.3058 32.1992 14.1687 31.7924 14.3722 31.4496C14.3722 31.4496 14.7486 30.7031 15.8396 30.9421C15.8396 30.9421 16.4536 31.1132 16.521 30.6732L16.489 29.0392C16.489 29.0392 16.3506 28.5995 17.2038 28.3623C17.2038 28.3623 18.2947 28.6667 18.6346 28.1243C18.6346 28.1243 19.0108 27.3744 19.314 27.884C19.314 27.884 19.9647 28.4971 21.7373 28.4319C21.7373 28.4319 24.8068 28.1917 24.8742 28.325C24.8742 28.325 25.6246 28.4319 25.8281 28.6667L26.0328 28.6999Z" fill="white"></path><path d="M16.7631 23.0224C16.7631 23.0224 16.3869 24.214 14.7162 22.9881L8.98867 22.8513C8.98867 22.8513 8.23854 23.0918 8.13553 22.3091C8.13553 22.3091 8.27288 20.7479 8.20195 20.611C8.20195 20.611 8.23854 20.1678 7.48716 20.1678C7.48716 20.1678 6.32977 20.3066 6.29643 19.287C6.29643 19.287 6.09067 18.1965 7.69293 18.2339C7.69293 18.2339 8.20195 18.4709 8.23854 17.8251C8.23854 17.8251 8.16987 13.4093 8.20195 13.0677C8.20195 13.0677 8.3413 12.6641 7.55684 12.5945C7.55684 12.5945 6.43027 12.8305 6.29643 12.083C6.29643 12.083 6.22676 10.964 6.97588 10.8946C6.97588 10.8946 7.89669 10.964 8.06811 10.729C8.06811 10.729 8.27288 10.8604 8.23854 10.0443L8.27288 8.6531C8.27288 8.6531 8.37563 8.27927 8.95207 8.31348C8.95207 8.31348 10.0122 8.38066 10.1493 8.27927C10.1493 8.27927 10.3874 7.97511 10.4526 7.83701C10.4526 7.83701 11.0014 7.80505 11.1032 7.9374C11.1032 7.9374 11.9197 8.48429 15.0258 8.27927C15.0258 8.27927 15.5004 8.27927 15.6035 8.41612C15.6035 8.41612 16.1821 8.85688 16.523 8.38066C16.523 8.38066 17.0343 8.27927 18.5699 8.31348C18.5699 8.31348 20.2375 8.75449 21.3984 7.80505L21.7724 7.87472C21.7724 7.87472 22.2493 8.6531 22.5934 8.41612C22.5934 8.41612 23.6147 8.31348 23.7862 8.5185C23.7862 8.5185 24.128 9.02794 23.9543 10.3542C23.9543 10.3542 23.7518 10.9308 24.74 10.9308C24.74 10.9308 25.8641 10.729 25.7293 11.7776C25.7293 11.7776 26.0368 12.9673 24.1613 12.7985C24.1613 12.7985 23.9212 13.1391 23.9543 13.3763C23.9543 13.3763 23.9212 17.2473 23.8879 17.6915C23.8879 17.6915 23.8548 18.2991 24.6726 18.2681C24.6726 18.2681 25.7636 18.1965 25.7967 19.1856C25.7967 19.1856 25.9328 20.4754 24.3659 20.2362C24.3659 20.2362 23.8879 20.3066 23.8182 20.611L23.7518 22.3091C23.7518 22.3091 23.7862 23.159 22.829 22.9562C22.6929 22.9562 17.5135 23.0566 17.0684 22.9232C17.0684 22.9232 16.8305 22.889 16.7631 23.0224Z" fill="white"></path><path d="M37.0459 23.0221C37.0459 23.0221 36.6708 24.2137 35.0023 22.9889L29.2738 22.851C29.2738 22.851 28.5236 23.0915 28.4216 22.3096C28.4216 22.3096 28.559 20.7476 28.4893 20.6108C28.4893 20.6108 28.5236 20.1697 27.771 20.1697C27.771 20.1697 26.6136 20.3053 26.5793 19.2845C26.5793 19.2845 26.377 18.1974 27.978 18.2336C27.978 18.2336 28.4893 18.4706 28.5236 17.8236C28.5236 17.8236 28.4562 13.4058 28.4893 13.0684C28.4893 13.0684 28.6264 12.6626 27.8407 12.5932C27.8407 12.5932 26.7166 12.8302 26.5793 12.085C26.5793 12.085 26.5119 10.9637 27.2632 10.8943C27.2632 10.8943 28.1828 10.9637 28.353 10.7245C28.353 10.7245 28.559 10.8589 28.5236 10.0475L28.559 8.65157C28.559 8.65157 28.6575 8.27898 29.2384 8.31544C29.2384 8.31544 30.2961 8.38262 30.4344 8.27898C30.4344 8.27898 30.6703 7.97482 30.7399 7.83672C30.7399 7.83672 31.2865 7.80376 31.3873 7.94036C31.3873 7.94036 32.2061 8.484 35.3086 8.27898C35.3086 8.27898 35.7868 8.27898 35.8863 8.41583C35.8863 8.41583 36.4682 8.85659 36.8081 8.38262C36.8081 8.38262 37.3194 8.27898 38.853 8.31544C38.853 8.31544 40.5259 8.7552 41.6823 7.80376L42.0585 7.87218C42.0585 7.87218 42.5354 8.65157 42.8763 8.41583C42.8763 8.41583 43.8998 8.31544 44.069 8.51822C44.069 8.51822 44.4088 9.0244 44.2394 10.3539C44.2394 10.3539 44.0372 10.9295 45.0251 10.9295C45.0251 10.9295 46.1517 10.7245 46.0131 11.7773C46.0131 11.7773 46.3196 12.967 44.4464 12.7982C44.4464 12.7982 44.2063 13.1378 44.2394 13.3761C44.2394 13.3761 44.2063 17.247 44.172 17.6913C44.172 17.6913 44.1387 18.3033 44.9555 18.2679C44.9555 18.2679 46.0477 18.1974 46.084 19.1841C46.084 19.1841 46.2191 20.4752 44.6489 20.2359C44.6489 20.2359 44.172 20.3053 44.1011 20.6108L44.0372 22.3096C44.0372 22.3096 44.069 23.1587 43.1164 22.9536C42.9803 22.9536 37.7983 23.0585 37.3537 22.9229C37.3537 22.9229 37.1124 22.8887 37.0459 23.0221Z" fill="#8F8F8F"></path><path d="M37.0457 23.0238C37.0457 23.0238 36.6706 24.2158 35.0021 22.9909L29.2723 22.853C29.2723 22.853 28.5222 23.0933 28.4204 22.3106C28.4204 22.3106 28.5588 20.7484 28.4879 20.6115C28.4879 20.6115 28.5222 20.1705 27.7708 20.1705C27.7708 20.1705 26.6124 20.3074 26.5781 19.2862C26.5781 19.2862 26.3756 18.1992 27.9766 18.2344C27.9766 18.2344 28.4879 18.4717 28.5222 17.8256C28.5222 17.8256 28.4548 13.4075 28.4879 13.0692C28.4879 13.0692 28.6262 12.6624 27.8405 12.594C27.8405 12.594 26.7152 12.8312 26.5781 12.0858C26.5781 12.0858 26.5117 10.9633 27.2618 10.8951C27.2618 10.8951 28.1813 10.9633 28.352 10.7253C28.352 10.7253 28.5588 10.8596 28.5222 10.047L28.5588 8.65134C28.5588 8.65134 28.656 8.27875 29.2392 8.31521C29.2392 8.31521 30.2959 8.38239 30.4332 8.27875C30.4332 8.27875 30.6691 7.97559 30.7397 7.8375C30.7397 7.8375 31.2853 7.80353 31.3871 7.94038C31.3871 7.94038 32.2049 8.48378 35.3084 8.27875C35.3084 8.27875 35.7866 8.27876 35.8861 8.41535C35.8861 8.41535 36.4681 8.85636 36.8079 8.38239C36.8079 8.38239 37.3192 8.27875 38.8528 8.31521C38.8528 8.31521 40.5257 8.75497 41.6831 7.80353L42.0595 7.87071C42.0595 7.87071 42.5362 8.65134 42.8761 8.41535C42.8761 8.41535 43.8996 8.31522 44.0688 8.51674C44.0688 8.51674 44.4097 9.02517 44.2405 10.3524C44.2405 10.3524 44.037 10.9303 45.0259 10.9303C45.0259 10.9303 46.1515 10.7253 46.0129 11.7771C46.0129 11.7771 46.3194 12.9678 44.4462 12.798C44.4462 12.798 44.2072 13.1376 44.2405 13.3768C44.2405 13.3768 44.2072 17.2478 44.1728 17.691C44.1728 17.691 44.1385 18.3028 44.9563 18.2699C44.9563 18.2699 46.0495 18.1992 46.0848 19.1849C46.0848 19.1849 46.2189 20.4759 44.6498 20.2367C44.6498 20.2367 44.1728 20.3074 44.1021 20.6115L44.037 22.3106C44.037 22.3106 44.0688 23.1607 43.1174 22.9557C42.9813 22.9557 37.7981 23.0593 37.3535 22.9237C37.3535 22.9237 37.1122 22.8905 37.0457 23.0238Z" stroke="#8F8F8F" stroke-width="0.00251536"></path><path d="M30.6023 9.02583C30.6023 9.02583 30.6697 9.70607 30.6697 9.87813C30.6697 10.0467 30.5692 19.6939 30.5692 19.6939C30.5692 19.6939 30.6697 20.4414 30.0246 20.8162C30.0246 20.8162 29.8519 20.8824 29.8198 20.4072L29.8865 10.2187C29.8865 10.2187 29.9549 8.9584 30.6023 9.02583Z" fill="white"></path><path d="M30.6038 9.02467C30.6038 9.02467 30.6702 9.70491 30.6702 9.87697C30.6702 10.0465 30.5707 19.695 30.5707 19.695C30.5707 19.695 30.6702 20.4425 30.0251 20.816C30.0251 20.816 29.8525 20.8835 29.8181 20.4082L29.8868 10.2176C29.8868 10.2176 29.9542 8.95725 30.6038 9.02467Z" stroke="#8F8F8F" stroke-width="0.00301843"></path><path d="M29.478 20.9171C29.478 20.9171 29.5457 11.3373 29.5136 11.1675C29.478 10.9999 29.5457 11.3063 29.5457 11.3063C29.5457 11.3063 29.4437 9.6392 29.8875 8.95796C29.8875 8.95796 29.7492 8.3836 28.9657 9.0958L28.9314 10.487C28.9314 10.487 28.9314 11.2699 28.2166 11.2357C28.2166 11.2357 27.3978 11.2005 27.0226 11.5743C27.0226 11.5743 26.8181 12.3227 27.6013 12.1884C27.6013 12.1884 28.8296 12.1884 28.8983 12.6943L28.8296 17.8256C28.8296 17.8256 29.1028 18.6789 28.1492 18.6789C28.1492 18.6789 26.9863 18.6062 27.0226 19.3197C27.0226 19.3197 27.2627 19.9302 28.2509 19.7285C28.2509 19.7285 28.9657 19.8618 28.9314 20.5443V21.8344C28.9314 21.8344 28.8627 22.347 29.5457 22.379H34.8645C34.8645 22.379 35.1356 22.412 35.1356 22.0724C35.1356 22.0724 35.1026 21.8014 34.694 21.8014L30.2625 21.733C30.2625 21.733 29.5457 21.9722 29.478 20.9171Z" fill="white"></path><path d="M30.5016 20.9013C30.5016 20.9013 30.3645 21.3765 30.8755 21.2771H34.3878L35.3404 21.4834C35.3404 21.4834 36.3286 21.2432 35.3404 20.7005C35.3404 20.7005 32.2046 20.7315 31.9324 20.6653C31.9324 20.6653 31.284 20.4965 31.1444 20.4625C31.1444 20.4625 30.8071 20.3269 30.5016 20.9013Z" fill="white"></path><path d="M30.5006 20.9013C30.5006 20.9013 30.3635 21.3775 30.8745 21.2784H34.3878L35.3407 21.4844C35.3407 21.4844 36.3297 21.2431 35.3407 20.6995C35.3407 20.6995 32.2046 20.7302 31.9312 20.6653C31.9312 20.6653 31.2831 20.4955 31.1447 20.4613C31.1447 20.4613 30.8061 20.3257 30.5006 20.9013Z" stroke="#8F8F8F" stroke-width="0.00301843"></path><path d="M36.3296 21.3773C36.3296 21.3773 35.6823 21.3773 35.7156 22.2283C35.7156 22.2283 35.784 22.8711 36.4657 22.8711C36.4657 22.8711 37.0775 22.771 37.0123 22.0917C37.0123 22.0917 36.6362 21.2427 36.3296 21.3773Z" fill="white"></path><path d="M36.8076 21.0393C36.8076 21.0393 37.1141 20.7009 37.3199 20.7009C37.3199 20.7009 40.7292 21.0051 41.3046 20.5983C41.3046 20.5983 41.8191 20.4969 41.9562 20.5983C41.9562 20.5983 42.4665 21.0051 42.4665 21.2433C42.4665 21.2433 42.4332 21.5507 41.8191 21.3767C41.8191 21.3767 37.9663 21.4141 37.7615 21.4141C37.7615 21.4141 36.7026 21.6501 36.8076 21.0393Z" fill="white"></path><path d="M36.8066 21.0384C36.8066 21.0384 37.1132 20.6988 37.3189 20.6988C37.3189 20.6988 40.7292 21.0032 41.3059 20.5961C41.3059 20.5961 41.8202 20.4948 41.9575 20.5961C41.9575 20.5961 42.4675 21.0032 42.4675 21.2434C42.4675 21.2434 42.4345 21.5511 41.8202 21.3768C41.8202 21.3768 37.9653 21.4142 37.7605 21.4142C37.7605 21.4142 36.7016 21.6502 36.8066 21.0384Z" stroke="#8F8F8F" stroke-width="0.00301843"></path><path d="M37.25 22.1403C37.25 22.1403 37.25 21.8656 37.7279 21.8656L42.4994 21.8327C42.4994 21.8327 42.9442 22.0709 42.9442 21.2571C42.9442 21.2571 43.1189 17.554 43.1345 13.4767C43.14 12.2628 43.1954 10.9895 43.1523 9.80958C43.1523 9.80958 43.046 9.29914 42.9089 9.19551C42.9089 9.19551 42.9089 8.65311 43.4896 8.85714C43.4896 8.85714 44.0009 8.89135 43.8648 9.67523L43.9001 10.8592C43.9001 10.8592 43.7974 11.3718 44.7157 11.2342C44.7157 11.2342 45.6352 11.3718 45.6718 11.7092C45.6718 11.7092 45.944 12.3917 44.855 12.3223H44.0673C44.0673 12.3223 43.7277 12.5253 43.8294 12.9343L43.7277 17.8614C43.7277 17.8614 43.659 18.7092 44.4778 18.6772C44.4778 18.6772 45.3287 18.642 45.5001 18.9144C45.5001 18.9144 46.0833 19.7632 44.8197 19.6951C44.8197 19.6951 44.0352 19.6596 43.8648 19.7975C43.8648 19.7975 43.7277 19.966 43.6257 21.5647C43.6257 21.5647 43.6954 22.5162 42.9783 22.4115C42.9783 22.4115 38.2382 22.4787 37.7956 22.3786C37.7956 22.3786 37.3187 22.5162 37.25 22.1403Z" fill="white"></path><path d="M31.1142 8.71683L31.0112 19.6252C31.0112 19.6252 30.9781 20.1314 31.8302 20.2338C31.8302 20.2338 32.8182 20.3351 33.055 20.2338C33.055 20.2338 33.7069 20.1985 35.3743 20.268C35.3743 20.268 35.7858 20.6793 35.8202 20.1656C35.8202 20.1656 36.0901 11.3364 35.9575 9.49746C35.9575 9.49746 35.9199 8.71683 35.3422 8.68262C35.3422 8.68262 32.7508 8.89114 32.5119 8.68262L31.4884 8.41367C31.4884 8.41367 31.0788 8.44663 31.1142 8.71683Z" fill="white"></path><path d="M36.5005 9.26288C36.5005 9.26288 36.3987 14.3929 36.4328 14.5627L36.3654 18.8759L36.2271 20.372C36.2271 20.372 36.4328 20.6772 36.6035 20.4744C36.6035 20.4744 37.6945 20.1987 38.3759 20.3058C38.3759 20.3058 40.5604 20.5076 41.0017 20.1657C41.0017 20.1657 41.3436 20.3356 41.4433 19.7919C41.4433 19.7919 41.5782 10.2827 41.5153 10.1129C41.5153 10.1129 41.6469 8.7502 41.5782 8.61785C41.5782 8.61785 41.5484 8.31244 40.9674 8.58264C40.9674 8.58264 41.0338 8.85609 37.7972 8.7502C37.7972 8.7502 36.5702 8.71699 36.5005 9.26288Z" fill="white"></path><path d="M41.923 9.1277L41.8899 19.8607C41.8899 19.8607 42.1621 20.8154 42.6047 20.7153C42.6047 20.7153 42.6711 20.509 42.7042 20.1694L42.8425 9.94254C42.8425 9.94254 42.4994 8.3151 41.923 9.1277Z" fill="white"></path><path d="M41.9225 9.12737L41.8894 19.8627C41.8894 19.8627 42.1626 20.8176 42.6052 20.7172C42.6052 20.7172 42.6729 20.5109 42.7059 20.1713L42.843 9.94221C42.843 9.94221 42.5002 8.31478 41.9225 9.12737Z" stroke="#8F8F8F" stroke-width="0.00301843"></path><path d="M37.736 12.3416C37.6342 12.0704 38.3157 12.0362 38.3157 12.0362L38.6578 12.1033C38.8969 12.0704 39.1357 12.1728 39.1357 12.1728C39.3738 12.5456 38.9643 12.7484 38.9643 12.7484L38.8282 13.1916C38.7929 13.5665 38.8282 16.7936 38.8282 16.7936C38.8969 16.9612 39.1691 17.2656 39.1691 17.2656C39.1691 17.573 38.7929 17.5058 38.7929 17.5058L37.8056 17.54C37.4981 17.5058 37.5999 17.165 37.5999 17.165C37.9407 16.9954 38.0437 16.3823 38.0437 16.3823V13.0208L37.736 12.3416Z" fill="#8F8F8F"></path><path d="M33.1339 15.5023L33.0664 16.5551L33.3707 17.0635C33.5777 17.3347 33.2356 17.541 33.2356 17.541L32.1446 17.4394C31.9421 17.3347 32.1446 16.9961 32.1446 16.9961C32.4181 16.8288 32.4522 16.3843 32.4522 16.3843L32.4181 14.4142L32.4522 12.9876C32.4522 12.8165 32.18 12.5134 32.18 12.5134C31.9421 12.4792 32.0096 12.1737 32.0096 12.1737C32.0772 12.0029 32.6547 12.1043 32.6547 12.1043H34.0888C35.4532 12.5466 35.2484 13.532 35.2484 13.532C35.3514 14.5156 34.2945 14.9257 34.2945 14.9257L34.2238 15.4693L35.2141 17.0293C35.3845 17.1659 35.3514 17.3038 35.3514 17.3038C35.2141 17.6776 34.6675 17.3038 34.6675 17.3038L33.4416 15.3999C33.3386 15.2631 33.1339 15.5023 33.1339 15.5023ZM33.1682 12.8165C33.2013 13.5662 33.2013 14.5851 33.2013 14.5851C33.8509 15.0955 34.2238 14.38 34.2238 14.38C35.0747 13.5662 34.2238 12.8165 34.0888 12.6148C33.9504 12.4097 33.269 12.5795 33.269 12.5795L33.1682 12.8165Z" fill="#8F8F8F"></path><path d="M26.0328 28.6999C26.0328 28.6999 26.2719 28.5995 26.3393 28.4319C26.3393 28.4319 27.0564 28.3623 27.1569 28.2611L29.4088 28.4319C29.4088 28.4319 31.6241 28.5995 32.5789 27.917C32.5789 27.917 32.922 27.917 33.1609 28.0206C33.1609 28.0206 33.6356 28.1243 33.7717 28.325L35.0687 28.2908C35.0687 28.2908 35.8188 28.5311 35.7491 29.0073V29.6171C35.7491 29.6171 35.612 30.841 35.9529 30.9104H36.9441C36.9441 30.9104 37.7631 31.2832 37.6601 31.7582C37.6601 31.7582 37.6945 32.4352 36.9797 32.5731C36.9797 32.5731 36.2604 32.7758 36.0246 32.7439C36.0246 32.7439 35.7845 33.0483 35.7491 33.4219L35.6496 37.8729C35.6496 37.8729 35.5799 38.3481 36.297 38.2807C36.297 38.2807 37.3514 38.1783 37.6601 38.7582C37.6601 38.7582 37.9333 39.7416 37.388 39.9114L36.9797 40.1132L36.091 40.2545C36.091 40.2545 35.7183 40.2852 35.6827 40.9303V42.1174C35.6827 42.1174 35.7183 42.9358 35.0687 42.9358L34.1138 43.0039C34.1138 43.0039 33.8757 43.2047 33.399 43.0691C33.399 43.0691 27.6017 43.1738 27.397 43.1046L26.7145 43.2422C26.7145 43.2422 25.9652 43.9214 25.3511 43.4097L24.8742 43.0359C24.8742 43.0359 24.5323 43.1046 24.3985 43.0691C24.2614 43.0359 17.9872 43.1385 17.9872 43.1385C17.9872 43.1385 16.6571 43.2764 16.5564 42.8321C16.5564 42.8321 16.3862 41.1011 16.4536 40.8938C16.4536 40.8938 16.4536 40.3866 16.1471 40.3536C16.1471 40.3536 14.817 40.2852 14.7827 40.1474C14.7827 40.1474 14.0657 39.6404 14.2704 39.1318C14.2704 39.1318 14.5105 38.4495 15.2253 38.3821C15.2253 38.3821 16.3163 38.5542 16.3163 38.2477C16.3163 38.2477 16.3862 38.0437 16.3862 37.7053C16.3862 37.7053 16.4536 33.6601 16.4193 33.3889C16.4193 33.3889 16.521 32.8795 16.0774 32.8795C16.0774 32.8795 15.6005 33.0141 15.295 32.8113C15.295 32.8113 14.4762 32.8455 14.3058 32.1992C14.3058 32.1992 14.1687 31.7924 14.3722 31.4496C14.3722 31.4496 14.7486 30.7031 15.8396 30.9421C15.8396 30.9421 16.4536 31.1132 16.521 30.6732L16.489 29.0392C16.489 29.0392 16.3506 28.5995 17.2038 28.3623C17.2038 28.3623 18.2947 28.6667 18.6346 28.1243C18.6346 28.1243 19.0108 27.3744 19.314 27.884C19.314 27.884 19.9647 28.4971 21.7373 28.4319C21.7373 28.4319 24.8068 28.1917 24.8742 28.325C24.8742 28.325 25.6246 28.4319 25.8281 28.6667L26.0328 28.6999Z" fill="#8F8F8F"></path><path d="M26.0323 28.6584C26.0323 28.6584 26.2689 28.5593 26.3388 28.3895C26.3388 28.3895 27.0546 28.3201 27.1564 28.2184L29.4073 28.3895C29.4073 28.3895 31.6236 28.5593 32.5784 27.8768C32.5784 27.8768 32.9216 27.8768 33.1604 27.9804C33.1604 27.9804 33.6363 28.0828 33.7702 28.2836L35.0692 28.2504C35.0692 28.2504 35.8183 28.4909 35.7486 28.9658V29.5769C35.7486 29.5769 35.6125 30.8005 35.9534 30.868H36.9436C36.9436 30.868 37.7614 31.2428 37.6607 31.718C37.6607 31.718 37.695 32.395 36.9792 32.5329C36.9792 32.5329 36.2612 32.7356 36.0253 32.7024C36.0253 32.7024 35.7852 33.0078 35.7486 33.3817L35.6479 37.8337C35.6479 37.8337 35.5795 38.3067 36.2952 38.2405C36.2952 38.2405 37.3509 38.1404 37.6607 38.7167C37.6607 38.7167 37.9341 39.7014 37.3885 39.8722L36.9792 40.0752L36.0905 40.2131C36.0905 40.2131 35.7165 40.246 35.6835 40.8888V42.0807C35.6835 42.0807 35.7165 42.8953 35.0692 42.8953L34.1143 42.9637C34.1143 42.9637 33.8752 43.1668 33.3985 43.0312C33.3985 43.0312 27.6013 43.1336 27.3965 43.0631L26.7128 43.2007C26.7128 43.2007 25.9647 43.881 25.3506 43.3683L24.8727 42.9945C24.8727 42.9945 24.5318 43.0631 24.397 43.0312C24.2596 42.9945 17.9867 43.0993 17.9867 43.0993C17.9867 43.0993 16.6556 43.2362 16.5539 42.7929C16.5539 42.7929 16.3845 41.0596 16.4519 40.8546C16.4519 40.8546 16.4519 40.3474 16.1444 40.3132C16.1444 40.3132 14.8155 40.246 14.7802 40.1092C14.7802 40.1092 14.0642 39.599 14.2687 39.0906C14.2687 39.0906 14.5088 38.4093 15.2248 38.3406C15.2248 38.3406 16.3148 38.5152 16.3148 38.205C16.3148 38.205 16.3845 38.0023 16.3845 37.6649C16.3845 37.6649 16.4519 33.6199 16.4188 33.3485C16.4188 33.3485 16.5206 32.837 16.0757 32.837C16.0757 32.837 15.599 32.9726 15.2922 32.7708C15.2922 32.7708 14.4747 32.8041 14.3043 32.159C14.3043 32.159 14.1659 31.7522 14.3717 31.4104C14.3717 31.4104 14.7459 30.6627 15.8378 30.9009C15.8378 30.9009 16.4519 31.073 16.5206 30.632L16.4862 28.999C16.4862 28.999 16.3491 28.5593 17.2023 28.3201C17.2023 28.3201 18.2932 28.6265 18.6341 28.0828C18.6341 28.0828 19.008 27.3344 19.3135 27.8416C19.3135 27.8416 19.9642 28.4547 21.7356 28.3895C21.7356 28.3895 24.8063 28.149 24.8727 28.2836C24.8727 28.2836 25.6241 28.3895 25.8276 28.6265L26.0323 28.6584Z" stroke="#8F8F8F" stroke-width="0.00251536"></path><path d="M26.9187 42.0521C26.9187 42.0521 27.3293 41.8458 27.6027 41.9165C27.8759 41.9839 31.8638 41.8832 31.8638 41.8832C31.8638 41.8832 33.6022 42.0178 33.8766 41.7774L34.2826 41.643C34.2826 41.643 34.4541 41.4402 34.4541 41.17C34.4541 40.8956 34.4884 39.9781 34.4884 39.9781L34.5924 39.641C34.5924 39.641 34.5571 39.3011 34.5924 30.2285C34.5924 30.2285 34.7263 29.5185 34.2826 29.0743C34.2826 29.0743 34.2826 28.8051 34.4187 28.8373C34.5571 28.8737 34.4884 28.8737 34.4884 28.8737C34.4884 28.8737 35.1014 28.7004 35.2022 28.9384C35.2022 28.9384 35.4776 29.751 35.2375 30.2285C35.2375 30.2285 35.1689 31.2151 35.6847 31.2151C35.6847 31.2151 35.8859 31.4204 36.2954 31.3168C36.2954 31.3168 37.1816 31.4204 37.1816 31.6893C37.1816 31.6893 37.1816 32.3034 36.5676 32.201L35.7478 32.267C35.7478 32.267 35.2022 32.3718 35.2719 33.0149C35.3415 33.6607 35.2375 38.2813 35.2375 38.2813C35.2375 38.2813 35.2375 38.8272 36.0919 38.7929C36.0919 38.7929 37.1476 38.7577 37.1476 39.0619C37.1476 39.0619 37.4195 39.7411 36.6706 39.7766C36.6706 39.7766 35.2375 39.7411 35.3415 40.1479C35.3415 40.1479 35.2375 41.1016 35.1689 41.2692C35.1689 41.2692 35.3085 42.0521 35.1348 42.1889C35.1348 42.1889 35.034 42.6287 34.1145 42.5615C34.1145 42.5615 28.2511 42.5283 27.3293 42.5957C27.3293 42.5957 26.7826 42.5283 26.9187 42.0521Z" fill="white"></path><path d="M25.8642 41.4066C25.8642 41.4066 26.4429 41.507 26.4429 42.0516C26.4429 42.594 26.4773 42.9004 26.1344 42.9678C25.7945 43.036 25.4206 42.9359 25.3199 42.4946C25.2149 42.0516 25.385 41.507 25.8642 41.4066Z" fill="white"></path><path d="M26.5452 41.1359C26.5452 41.1359 27.1583 40.7256 27.3971 40.7965C27.3971 40.7965 30.4989 40.998 31.456 40.8315C32.4096 40.6607 31.8299 40.7965 31.8299 40.7965C31.8299 40.7965 32.649 40.7965 32.8856 40.4886C32.8856 40.4886 33.1257 40.4234 33.2618 40.6607L33.7708 41.2063C33.7708 41.2063 33.8094 41.5427 33.2274 41.5085C33.2274 41.5085 27.6683 41.5085 27.5001 41.5427C27.5001 41.5427 26.4435 41.7102 26.5452 41.1359Z" fill="white"></path><path d="M26.5435 41.1357C26.5435 41.1357 27.1566 40.7254 27.3954 40.7951C27.3954 40.7951 30.4994 40.9978 31.4553 40.8313C32.4104 40.6595 31.8292 40.7951 31.8292 40.7951C31.8292 40.7951 32.6493 40.7951 32.8861 40.4861C32.8861 40.4861 33.1252 40.4225 33.2623 40.6595L33.7713 41.2061C33.7713 41.2061 33.8089 41.5437 33.228 41.5083C33.228 41.5083 27.6688 41.5083 27.4984 41.5437C27.4984 41.5437 26.4418 41.7113 26.5435 41.1357Z" stroke="#8F8F8F" stroke-width="0.00301843"></path><path d="M18.4648 29.0747C18.4648 29.0747 18.7039 29.0747 18.6693 29.4827L18.5999 39.7416C18.5999 39.7416 18.7039 40.4228 18.124 40.8628C18.124 40.8628 17.8152 41.2354 17.8152 40.66L17.9545 30.1959C17.9545 30.1959 17.9869 29.4141 18.4648 29.0747Z" fill="white"></path><path d="M18.4651 29.0744C18.4651 29.0744 18.7042 29.0744 18.6719 29.4822L18.6002 39.7435C18.6002 39.7435 18.7042 40.4248 18.1233 40.8648C18.1233 40.8648 17.8132 41.2374 17.8132 40.6618L17.9528 30.1967C17.9528 30.1967 17.9859 29.4138 18.4651 29.0744Z" stroke="#8F8F8F" stroke-width="0.00301843"></path><path d="M17.9194 29.143C17.9194 29.143 17.5099 29.8917 17.5442 30.0628L17.5099 32.336C17.5099 32.336 17.4755 33.7968 17.5099 33.9677C17.5442 34.1365 17.4755 38.4177 17.4755 38.4177C17.4755 38.4177 17.4414 39.231 17.4755 39.5045V41.3382C17.4755 41.3382 17.4071 42.155 18.0201 41.9478C18.0201 41.9478 24.0219 41.8134 24.3981 41.9168C24.3981 41.9168 24.9414 42.0174 24.7399 42.2896C24.7399 42.2896 24.7399 42.5291 24.3615 42.4595C24.3615 42.4595 21.5322 42.7294 18.976 42.6293C18.976 42.6293 17.271 42.7294 17.167 42.5291C17.167 42.5291 16.8958 42.4947 16.8958 41.508C16.8958 41.508 16.8958 40.593 16.8294 40.423C16.8294 40.423 16.8958 39.9413 16.0439 39.8431C16.0439 39.8431 14.851 40.0481 14.8166 39.3349C14.8166 39.3349 14.9861 38.8255 16.1467 38.8917C16.1467 38.8917 16.9988 39.0283 16.8294 38.347L16.9302 33.3226C16.9302 33.3226 17.0352 32.4354 16.4532 32.3999C16.4532 32.3999 15.9099 32.3724 15.7362 32.4354C15.7362 32.4354 14.7482 32.4354 14.8166 31.862C14.8166 31.862 15.1575 31.2489 16.1467 31.3855C16.1467 31.3855 16.8958 31.5204 16.9302 30.6733C16.9302 30.6733 16.8958 28.9393 17.3041 28.8731C17.3041 28.8731 18.1585 28.9038 17.9194 29.143Z" fill="white"></path><path d="M18.941 40.3872C18.941 40.3872 19.4189 40.8944 20.2046 40.8647L24.8375 40.9309C24.8375 40.9309 25.3523 40.9671 25.3199 41.236C25.3199 41.236 25.247 41.6431 24.6362 41.5075L19.0437 41.4403L18.4287 41.4775C18.4287 41.4775 18.0192 41.4071 18.6698 40.6265L18.941 40.3872Z" fill="white"></path><path d="M18.94 40.3865C18.94 40.3865 19.4182 40.8947 20.2049 40.8637L24.839 40.9311C24.839 40.9311 25.3523 40.9663 25.3214 41.2363C25.3214 41.2363 25.2495 41.6443 24.6387 41.51L19.043 41.4425L18.4277 41.4778C18.4277 41.4778 18.0194 41.4086 18.6688 40.6257L18.94 40.3865Z" stroke="#8F8F8F" stroke-width="0.00301843"></path><path d="M33.2612 39.943C33.2612 39.943 33.6705 40.7259 33.8753 40.8327C33.8753 40.8327 34.2505 41.2705 34.1487 40.4899L34.2161 30.705C34.2161 30.705 34.1131 30.3644 34.2161 29.823L33.8078 29.0753C33.8078 29.0753 33.363 28.736 33.363 29.2784L33.2956 39.7092L33.2612 39.943Z" fill="white"></path><path d="M33.2603 39.9437C33.2603 39.9437 33.6708 40.7253 33.8765 40.8335C33.8765 40.8335 34.2517 41.2722 34.15 40.4896L34.2174 30.7022C34.2174 30.7022 34.1144 30.3639 34.2174 29.8225L33.8081 29.0741C33.8081 29.0741 33.362 28.7354 33.362 29.2778L33.2946 39.7097L33.2603 39.9437Z" stroke="#8F8F8F" stroke-width="0.00301843"></path><path d="M25.6928 35.2913C25.6928 35.2913 25.7272 36.1039 25.6231 36.8835C25.5678 37.3145 25.7612 39.2991 25.5888 40.3167C25.5888 40.3167 25.5577 40.6573 24.8384 40.3531C24.8384 40.3531 20.4755 40.4533 20.3394 40.3167C20.3394 40.3167 19.1467 40.3531 19.0437 39.7401C19.0437 39.7401 19.2141 35.0863 19.1124 34.9132C19.1124 34.9132 19.0437 32.3663 19.1124 32.1293C19.1124 32.1293 19.2141 29.7854 19.1467 29.514C19.1467 29.514 19.181 28.9703 19.078 28.6971C19.078 28.6971 19.078 28.3575 19.659 28.5605C19.659 28.5605 19.8605 28.9354 20.9868 28.7688C20.9868 28.7688 21.8066 28.9034 22.5913 28.8008C22.5913 28.8008 24.3284 28.6652 24.7733 28.8008C24.7733 28.8008 25.456 28.6652 25.6572 29.4148L25.6231 31.5195L25.8267 32.1987L26.0668 32.0299L26.1675 31.5195L26.2018 29.277C26.2018 29.277 26.3379 28.8679 26.8856 28.8008C26.8856 28.8008 27.7377 28.6971 27.876 28.7688C28.0121 28.834 29.85 28.9354 30.3645 28.834C30.8745 28.7323 30.9753 29.1733 32.5124 28.394C32.5124 28.394 32.9216 28.4282 32.9216 28.6971C32.9216 28.6971 32.7823 31.5892 32.9216 32.1293C32.9216 32.1293 32.9216 37.4281 32.8154 37.802L32.8851 39.5006C32.8851 39.5006 32.9527 40.2485 31.762 40.3167C31.762 40.3167 32.5124 40.4191 27.8041 40.2835C27.8041 40.2835 27.055 40.2485 26.2372 40.6211C26.2372 40.6211 26.0668 40.5879 26.0668 40.1469C26.0668 40.1469 26.2018 38.5516 26.0668 36.9859L26.0006 35.2541L25.6928 35.2913Z" fill="white"></path><path d="M22.6233 32.8814C22.6233 32.8814 22.7263 35.3944 22.6233 35.7337L22.5912 36.2786C22.5912 36.2786 22.7263 36.65 22.931 36.7878C22.931 36.7878 23.1025 37.2618 22.6919 37.2288C22.6919 37.2288 21.8411 37.1604 21.6363 37.1926C21.6363 37.1926 21.1571 37.1926 21.6363 36.5848C21.6363 36.5848 21.8067 36.3433 21.7714 35.7337C21.7714 35.7337 21.7714 32.8814 21.8411 32.7129C21.8411 32.7129 21.9085 32.3368 21.6694 32.2344L21.2589 32.2696L20.7498 32.7448C20.7498 32.7448 20.6458 33.2565 20.407 32.7129V32.4384L20.7158 31.6236L20.9205 31.5881C20.9205 31.5881 21.2258 31.7924 21.498 31.8628H23.1025L23.6812 31.5881C23.6812 31.5881 23.919 31.6236 23.8538 31.929C23.8538 31.929 23.9533 32.7129 23.5107 32.8122C23.5107 32.8122 23.2376 32.7129 23.1025 32.3368C23.1025 32.3368 22.6589 32.101 22.6233 32.8814Z" fill="#8F8F8F"></path><path d="M30.1579 31.9641C30.1579 31.9641 28.8644 31.8615 28.8323 33.2539C28.8323 33.2539 28.6917 34.2076 30.1258 34.8197C30.1258 34.8197 31.1837 35.3269 31.1128 35.9719C31.1128 35.9719 30.9767 37.1274 29.8514 36.5505C29.8514 36.5505 29.307 36.2771 29.3433 35.9719C29.3433 35.9719 29.1699 35.5971 28.9661 35.6663C28.9661 35.6663 28.726 35.7327 28.8323 36.8549C28.8323 36.8549 28.8323 37.2969 29.3433 36.8549L29.6123 36.9244C29.6123 36.9244 30.5341 37.6718 31.3165 36.7525C31.3165 36.7525 32.1707 35.9719 31.5554 35.0215C31.5554 35.0215 31.1128 34.3445 30.3296 34.0039C30.3296 34.0039 29.5792 33.661 29.41 33.0841C29.41 33.0841 29.6489 32.0633 30.5674 32.6069C30.5674 32.6069 30.9093 33.015 31.1128 33.0841C31.1128 33.0841 31.3862 33.0841 31.3165 32.4701L31.2521 31.9641C31.2521 31.9641 31.1837 31.5858 30.7045 31.9641C30.7045 31.9641 30.2609 32.1317 30.1579 31.9641Z" fill="#8F8F8F"></path><path d="M25.9992 31.2479C26.2371 31.421 26.2714 31.7596 26.2714 31.7596C26.9531 33.5589 27.5341 36.1772 27.5341 36.1772C27.7032 36.5136 28.011 36.787 28.011 36.787C28.5907 36.9898 28.011 37.1586 28.011 37.1586C27.7719 37.2622 26.9897 37.1276 26.9897 37.1276C26.5779 37.055 26.7473 36.9226 26.7473 36.9226C26.9198 36.7528 26.7827 36.0713 26.7827 36.0713C26.7473 35.8024 26.4431 35.3593 26.4431 35.3593C26.307 35.2907 26.0679 35.5963 26.0679 35.5963C26.0679 35.5963 25.6939 35.7329 25.6574 35.5963C25.623 35.4582 25.3852 35.3296 25.3852 35.3296C24.9757 35.3296 24.8065 36.3425 24.8065 36.3425C25.0443 37.1928 24.8065 37.055 24.8065 37.055C24.603 37.3297 23.9533 37.1276 23.9533 37.1276C23.6468 37.055 23.8536 36.818 23.8536 36.818C24.2265 36.7528 24.3283 36.3425 24.3283 36.3425C24.5 36.1055 25.5887 31.6902 25.5887 31.6902C25.6939 31.4849 25.7601 31.0781 25.9992 31.2479ZM25.4561 33.4894C25.4205 33.6602 25.1804 34.6117 25.1804 34.6117L25.3852 34.9545C25.3852 34.9545 25.9318 34.9855 26.1353 34.9855C26.3378 34.9855 26.3744 34.8189 26.3744 34.6456C26.3744 34.4773 25.9992 33.4585 25.9992 33.4585L25.8268 33.2544L25.4561 33.4894Z" fill="#8F8F8F"></path><path d="M16.7631 23.0224C16.7631 23.0224 16.3869 24.214 14.7162 22.9881L8.98867 22.8513C8.98867 22.8513 8.23854 23.0918 8.13553 22.3091C8.13553 22.3091 8.27288 20.7479 8.20195 20.611C8.20195 20.611 8.23854 20.1678 7.48716 20.1678C7.48716 20.1678 6.32977 20.3066 6.29643 19.287C6.29643 19.287 6.09067 18.1965 7.69293 18.2339C7.69293 18.2339 8.20195 18.4709 8.23854 17.8251C8.23854 17.8251 8.16987 13.4093 8.20195 13.0677C8.20195 13.0677 8.3413 12.6641 7.55684 12.5945C7.55684 12.5945 6.43027 12.8305 6.29643 12.083C6.29643 12.083 6.22676 10.964 6.97588 10.8946C6.97588 10.8946 7.89669 10.964 8.06811 10.729C8.06811 10.729 8.27288 10.8604 8.23854 10.0443L8.27288 8.6531C8.27288 8.6531 8.37563 8.27927 8.95207 8.31348C8.95207 8.31348 10.0122 8.38066 10.1493 8.27927C10.1493 8.27927 10.3874 7.97511 10.4526 7.83701C10.4526 7.83701 11.0014 7.80505 11.1032 7.9374C11.1032 7.9374 11.9197 8.48429 15.0258 8.27927C15.0258 8.27927 15.5004 8.27927 15.6035 8.41612C15.6035 8.41612 16.1821 8.85688 16.523 8.38066C16.523 8.38066 17.0343 8.27927 18.5699 8.31348C18.5699 8.31348 20.2375 8.75449 21.3984 7.80505L21.7724 7.87472C21.7724 7.87472 22.2493 8.6531 22.5934 8.41612C22.5934 8.41612 23.6147 8.31348 23.7862 8.5185C23.7862 8.5185 24.128 9.02794 23.9543 10.3542C23.9543 10.3542 23.7518 10.9308 24.74 10.9308C24.74 10.9308 25.8641 10.729 25.7293 11.7776C25.7293 11.7776 26.0368 12.9673 24.1613 12.7985C24.1613 12.7985 23.9212 13.1391 23.9543 13.3763C23.9543 13.3763 23.9212 17.2473 23.8879 17.6915C23.8879 17.6915 23.8548 18.2991 24.6726 18.2681C24.6726 18.2681 25.7636 18.1965 25.7967 19.1856C25.7967 19.1856 25.9328 20.4754 24.3659 20.2362C24.3659 20.2362 23.8879 20.3066 23.8182 20.611L23.7518 22.3091C23.7518 22.3091 23.7862 23.159 22.829 22.9562C22.6929 22.9562 17.5135 23.0566 17.0684 22.9232C17.0684 22.9232 16.8305 22.889 16.7631 23.0224Z" fill="#8F8F8F"></path><path d="M16.7628 23.0232C16.7628 23.0232 16.3866 24.2151 14.7159 22.989L8.98734 22.8524C8.98734 22.8524 8.23696 23.0926 8.1342 22.309C8.1342 22.309 8.27255 20.7478 8.20162 20.6109C8.20162 20.6109 8.23696 20.1689 7.48558 20.1689C7.48558 20.1689 6.32819 20.3077 6.29511 19.2879C6.29511 19.2879 6.09034 18.1963 7.6926 18.2338C7.6926 18.2338 8.20162 18.471 8.23696 17.826C8.23696 17.826 8.16829 13.4082 8.20162 13.0676C8.20162 13.0676 8.34097 12.6628 7.55551 12.5943C7.55551 12.5943 6.42894 12.8306 6.29511 12.0819C6.29511 12.0819 6.22543 10.9627 6.97556 10.8945C6.97556 10.8945 7.89511 10.9626 8.06779 10.7269C8.06779 10.7269 8.27255 10.8603 8.23696 10.0442L8.27255 8.65172C8.27255 8.65172 8.3743 8.27814 8.95175 8.31335C8.95175 8.31335 10.0109 8.37953 10.148 8.27814C10.148 8.27814 10.3871 7.97498 10.4522 7.83688C10.4522 7.83688 10.9999 7.80392 11.1029 7.93727C11.1029 7.93727 11.9184 8.48316 15.0254 8.27814C15.0254 8.27814 15.5001 8.27814 15.6031 8.41474C15.6031 8.41474 16.1818 8.85575 16.5227 8.37953C16.5227 8.37953 17.035 8.27814 18.5695 8.31335C18.5695 8.31335 20.2385 8.75211 21.3981 7.80392L21.773 7.87334C21.773 7.87334 22.25 8.65172 22.5931 8.41474C22.5931 8.41474 23.6144 8.31335 23.7881 8.51613C23.7881 8.51613 24.1277 9.02681 23.9553 10.3518C23.9553 10.3518 23.7515 10.9307 24.7397 10.9307C24.7397 10.9307 25.866 10.7269 25.7289 11.7765C25.7289 11.7765 26.0365 12.9672 24.162 12.7974C24.162 12.7974 23.9209 13.138 23.9553 13.3762C23.9553 13.3762 23.9209 17.2472 23.8888 17.6904C23.8888 17.6904 23.8545 18.3 24.6723 18.2693C24.6723 18.2693 25.7633 18.1963 25.7976 19.1865C25.7976 19.1865 25.9324 20.4753 24.3655 20.2361C24.3655 20.2361 23.8888 20.3077 23.8192 20.6109L23.7515 22.309C23.7515 22.309 23.7881 23.1601 22.8299 22.957C22.6938 22.957 17.5131 23.0564 17.068 22.9231C17.068 22.9231 16.8302 22.8899 16.7628 23.0232Z" stroke="#8F8F8F" stroke-width="0.00251536"></path><path d="M10.3189 9.02769C10.3189 9.02769 10.3876 9.70568 10.3876 9.87549C10.3876 10.0453 10.2836 19.6936 10.2836 19.6936C10.2836 19.6936 10.3876 20.4432 9.73821 20.8148C9.73821 20.8148 9.56879 20.8842 9.53345 20.409L9.60312 10.2174C9.60312 10.2174 9.67054 8.95926 10.3189 9.02769Z" fill="white"></path><path d="M10.3202 9.02652C10.3202 9.02652 10.3886 9.70452 10.3886 9.87433C10.3886 10.0441 10.2846 19.6934 10.2846 19.6934C10.2846 19.6934 10.3886 20.4431 9.73821 20.8169C9.73821 20.8169 9.56879 20.8853 9.53345 20.4101L9.60087 10.2172C9.60087 10.2172 9.66954 8.9591 10.3202 9.02652Z" stroke="#8F8F8F" stroke-width="0.00301843"></path><path d="M9.19318 20.9171C9.19318 20.9171 9.25959 11.3373 9.22751 11.1662C9.19318 10.9986 9.25959 11.304 9.25959 11.304C9.25959 11.304 9.1601 9.6414 9.60245 8.96016C9.60245 8.96016 9.46536 8.3823 8.6809 9.09451L8.64982 10.4882C8.64982 10.4882 8.64982 11.2698 7.93177 11.2356C7.93177 11.2356 7.11298 11.2004 6.73679 11.5765C6.73679 11.5765 6.53303 12.3227 7.31548 12.1883C7.31548 12.1883 8.54481 12.1883 8.61223 12.6943L8.54481 17.8255C8.54481 17.8255 8.81799 18.6746 7.8621 18.6746C7.8621 18.6746 6.70345 18.6094 6.73679 19.3229C6.73679 19.3229 6.97563 19.9347 7.96611 19.7297C7.96611 19.7297 8.6809 19.8663 8.64982 20.5423V21.8366C8.64982 21.8366 8.57789 22.347 9.25959 22.378H14.5796C14.5796 22.378 14.8521 22.4119 14.8521 22.0713C14.8521 22.0713 14.8175 21.8034 14.4105 21.8034L9.97989 21.7329C9.97989 21.7329 9.25959 21.9712 9.19318 20.9171Z" fill="white"></path><path d="M10.1141 20.9859C10.1141 20.9859 9.97905 21.4634 10.4881 21.3585H14.0001L14.955 21.5615C14.955 21.5615 15.9465 21.3243 14.955 20.7796C14.955 20.7796 11.8182 20.8161 11.5447 20.7477C11.5447 20.7477 10.8986 20.5781 10.7615 20.5437C10.7615 20.5437 10.4197 20.4093 10.1141 20.9859Z" fill="white"></path><path d="M10.1129 20.9849C10.1129 20.9849 9.97783 21.4644 10.4869 21.3575H14.0001L14.9563 21.5625C14.9563 21.5625 15.9475 21.3255 14.9563 20.7799C14.9563 20.7799 11.8179 20.8161 11.5447 20.7457C11.5447 20.7457 10.8974 20.5768 10.7603 20.5439C10.7603 20.5439 10.4182 20.4083 10.1129 20.9849Z" stroke="#8F8F8F" stroke-width="0.00301843"></path><path d="M15.9454 21.4632C15.9454 21.4632 15.2961 21.4632 15.3302 22.3078C15.3302 22.3078 15.3988 22.957 16.0793 22.957C16.0793 22.957 16.6936 22.8514 16.6271 22.1754C16.6271 22.1754 16.2507 21.3243 15.9454 21.4632Z" fill="white"></path><path d="M16.4214 21.12C16.4214 21.12 16.7269 20.7804 16.9336 20.7804C16.9336 20.7804 20.3419 21.0871 20.9216 20.68C20.9216 20.68 21.4349 20.5787 21.569 20.68C21.569 20.68 22.0803 21.0871 22.0803 21.3241C22.0803 21.3241 22.0469 21.6327 21.4349 21.4629C21.4349 21.4629 17.5788 21.4949 17.3763 21.4949C17.3763 21.4949 16.3184 21.7319 16.4214 21.12Z" fill="white"></path><path d="M16.4199 21.1199C16.4199 21.1199 16.7264 20.7793 16.9322 20.7793C16.9322 20.7793 20.3415 21.0869 20.9212 20.6799C20.9212 20.6799 21.4357 20.5775 21.5695 20.6799C21.5695 20.6799 22.0808 21.0869 22.0808 21.3249C22.0808 21.3249 22.0477 21.6338 21.4357 21.4627C21.4357 21.4627 17.5796 21.496 17.3748 21.496C17.3748 21.496 16.3169 21.7329 16.4199 21.1199Z" stroke="#8F8F8F" stroke-width="0.00301843"></path><path d="M16.9666 22.14C16.9666 22.14 16.9666 21.8698 17.4412 21.8698L22.2182 21.8346C22.2182 21.8346 22.6595 22.0693 22.6595 21.2568C22.6595 21.2568 22.8345 17.5524 22.85 13.4752C22.8565 12.2625 22.9097 10.9892 22.8633 9.80925C22.8633 9.80925 22.7615 9.30107 22.6254 9.19618C22.6254 9.19618 22.6254 8.65279 23.2074 8.85881C23.2074 8.85881 23.7152 8.89102 23.5801 9.6714L23.6134 10.8611C23.6134 10.8611 23.5117 11.3705 24.4322 11.2349C24.4322 11.2349 25.3518 11.3705 25.3848 11.7101C25.3848 11.7101 25.6605 12.3914 24.5706 12.322H23.7871C23.7871 12.322 23.4452 12.525 23.547 12.934L23.4452 17.8588C23.4452 17.8588 23.3743 18.7078 24.1954 18.6769C24.1954 18.6769 25.0475 18.6417 25.2157 18.9129C25.2157 18.9129 25.7976 19.7629 24.5352 19.6947C24.5352 19.6947 23.7505 19.6593 23.5801 19.7949C23.5801 19.7949 23.4452 19.9679 23.3422 21.5624C23.3422 21.5624 23.4097 22.5139 22.6939 22.4112C22.6939 22.4112 17.9545 22.4774 17.5132 22.377C17.5132 22.377 17.034 22.5139 16.9666 22.14Z" fill="white"></path><path d="M10.8275 8.71913L10.728 19.6252C10.728 19.6252 10.6936 20.1314 11.5455 20.2338C11.5455 20.2338 12.536 20.3364 12.7728 20.2338C12.7728 20.2338 13.419 20.2008 15.0909 20.2693C15.0909 20.2693 15.5004 20.6748 15.5335 20.1679C15.5335 20.1679 15.8069 11.3332 15.6706 9.49976C15.6706 9.49976 15.6375 8.71913 15.0555 8.68492C15.0555 8.68492 12.4663 8.88795 12.2272 8.68492L11.2059 8.41248C11.2059 8.41248 10.7944 8.44469 10.8275 8.71913Z" fill="white"></path><path d="M21.6361 9.12746L21.6028 19.8638C21.6028 19.8638 21.8762 20.8177 22.3211 20.7161C22.3211 20.7161 22.3885 20.511 22.4218 20.1692L22.5602 9.9423C22.5602 9.9423 22.2181 8.31137 21.6361 9.12746Z" fill="white" stroke="#8F8F8F" stroke-width="0.00301843"></path><path d="M21.6361 9.12746L21.6028 19.8638C21.6028 19.8638 21.8762 20.8177 22.3211 20.7161C22.3211 20.7161 22.3885 20.511 22.4218 20.1692L22.5602 9.9423C22.5602 9.9423 22.2181 8.31137 21.6361 9.12746Z" stroke="#8F8F8F" stroke-width="0.00301843"></path><path d="M16.2185 9.21823C16.2185 9.21823 16.1157 14.3473 16.1478 14.5193L16.0834 18.8345L15.9453 20.3251C15.9453 20.3251 16.1478 20.635 16.3192 20.4297C16.3192 20.4297 17.4115 20.1595 18.0929 20.2602C18.0929 20.2602 20.2761 20.4652 20.7177 20.1243C20.7177 20.1243 21.0586 20.2932 21.1614 19.7495C21.1614 19.7495 21.2964 10.2391 21.2288 10.0683C21.2288 10.0683 21.3661 8.71105 21.2964 8.5767C21.2964 8.5767 21.2621 8.26779 20.6857 8.53799C20.6857 8.53799 20.7518 8.81244 17.5142 8.71105C17.5142 8.71105 16.2862 8.67584 16.2185 9.21823Z" fill="white"></path><path d="M15.1655 12.3607L14.857 13.009C14.857 13.009 14.1099 16.3023 13.7016 16.9803C13.7016 16.9803 13.6329 17.6618 13.0532 17.1169C13.0532 17.1169 11.7222 12.9396 11.6545 12.803L11.2109 12.4973C11.2109 12.4973 10.942 12.1237 11.4167 12.0905L12.6781 12.1237C12.6781 12.1237 13.0863 12.4621 12.542 12.8402C12.542 12.8402 12.6096 13.3828 13.3254 15.4523C13.3254 15.4523 13.5289 16.2339 13.768 15.656L14.4507 13.2437L14.246 12.5305C14.246 12.5305 14.0402 12.1909 14.349 12.1579C14.349 12.1579 15.065 12.0905 15.1655 12.3607Z" fill="#8F8F8F"></path><path d="M17.1445 12.9057L17.1079 16.5067L17.0084 16.7779C17.0084 16.7779 16.6666 17.2179 16.9044 17.2531C16.9044 17.2531 16.6002 17.4582 19.0854 17.4911C19.0854 17.4911 20.0425 17.6599 19.8024 16.4373C19.8024 16.4373 19.7007 15.996 19.3575 16.6423C19.3575 16.6423 19.2558 17.1835 18.031 17.0149C18.031 17.0149 17.7575 16.7779 17.7575 16.5067V15.0106C17.7575 15.0106 17.7212 14.6355 18.3019 14.6743C18.3019 14.6743 18.9493 15.0801 19.0523 14.908C19.0523 14.908 19.2901 14.3666 19.0523 14.026C19.0523 14.026 18.7445 13.994 18.7114 14.1296C18.7114 14.1296 18.5067 14.5352 17.927 14.2972C17.927 14.2972 17.6548 13.7548 17.825 13.3125C17.825 13.3125 17.7575 12.4627 18.3375 12.5319C18.3375 12.5319 19.0189 12.6665 19.0854 12.8728C19.0854 12.8728 19.2558 13.2818 19.4285 12.8056L19.2558 12.2255C19.2558 12.2255 19.1563 11.9872 18.9846 12.0557C18.9846 12.0557 17.825 12.2255 17.6869 12.0876L16.7661 12.1913C16.7661 12.1913 16.6312 12.5319 17.0418 12.6997C17.0418 12.6997 17.1445 12.7691 17.1445 12.9057Z" fill="#8F8F8F"></path></g></g><defs><clipPath id="clip0_2226_230"><rect width="211" height="55" fill="white"></rect></clipPath></defs></svg> 