<?xml version="1.0" encoding="UTF-8"?> <svg xmlns="http://www.w3.org/2000/svg" width="60" height="60" viewBox="0 0 60 60" fill="none"> <path d="M57.2403 23.3496H51.7307V34.3696C51.7307 34.5196 51.7208 34.6596 51.7108 34.7996H55.91V37.0596H51.0755C50.1125 38.8996 48.1966 40.1596 45.9828 40.1596H40.8803C39.828 42.6796 37.8723 44.3796 35.6288 44.3796C33.3852 44.3796 31.4296 42.6796 30.3773 40.1596H11.2476V45.7096C11.2476 47.2496 12.4884 48.4996 14.0172 48.4996H57.2304C58.7591 48.4996 60 47.2496 60 45.7096V26.1396C60 24.5996 58.7591 23.3496 57.2304 23.3496H57.2403Z" fill="#70D8C1"></path> <path fill-rule="evenodd" clip-rule="evenodd" d="M2.76973 12H45.9828C47.5125 12 48.7525 13.2491 48.7525 14.79V34.36C48.7525 35.9009 47.5125 37.15 45.9828 37.15H2.76973C1.24007 37.15 0 35.9009 0 34.36V14.79C0 13.2491 1.24007 12 2.76973 12ZM30.4368 24.5797C30.4368 29.252 27.7212 33.0396 24.3713 33.0396C21.0214 33.0396 18.3058 29.252 18.3058 24.5797C18.3058 19.9073 21.0214 16.1196 24.3713 16.1196C27.7212 16.1196 30.4368 19.9073 30.4368 24.5797ZM44.6427 23.4497H37.5943V25.7097H44.6427V23.4497ZM4.10988 23.4497H11.1582V25.7097H4.10988V23.4497Z" fill="#12284C"></path> </svg> 