<?xml version="1.0" encoding="UTF-8"?> <svg xmlns="http://www.w3.org/2000/svg" width="30" height="30" viewBox="0 0 30 30" fill="none"> <path d="M22.2104 9.95542C21.2634 9.74717 20.4067 9.24427 19.7633 8.5189C19.1198 7.79353 18.7227 6.88297 18.6289 5.91788V5.49988H15.3514V18.4865C15.352 19.0627 15.1714 19.6246 14.835 20.0924C14.4986 20.5603 14.0235 20.9104 13.4771 21.0933C12.9306 21.2761 12.3405 21.2824 11.7902 21.1112C11.24 20.9401 10.7576 20.6001 10.4113 20.1395C10.1011 19.7318 9.91114 19.2454 9.86292 18.7354C9.8147 18.2254 9.91014 17.712 10.1385 17.2534C10.3668 16.7948 10.7189 16.4092 11.1549 16.1402C11.5909 15.8713 12.0935 15.7297 12.6058 15.7315C12.8892 15.7298 13.1711 15.7715 13.4419 15.855V12.5299C13.1268 12.4909 12.8093 12.475 12.4918 12.4824C11.3227 12.5137 10.188 12.8852 9.22675 13.5515C8.2655 14.2177 7.5194 15.1498 7.07982 16.2337C6.64024 17.3175 6.52625 18.506 6.75182 19.6536C6.97739 20.8013 7.53272 21.8582 8.34981 22.695C9.18723 23.5464 10.2588 24.1297 11.4285 24.3706C12.5981 24.6116 13.813 24.4995 14.9188 24.0484C16.0245 23.5973 16.9713 22.8277 17.6386 21.8374C18.306 20.8471 18.6639 19.6807 18.6669 18.4865V11.8364C19.9888 12.7807 21.5739 13.2858 23.1984 13.2804V10.0504C22.8793 10.0517 22.561 10.0199 22.2484 9.95542H22.2104Z" fill="white"></path> </svg> 