<?xml version="1.0" encoding="UTF-8"?> <svg xmlns="http://www.w3.org/2000/svg" width="30" height="30" viewBox="0 0 30 30" fill="none"><circle cx="15" cy="15" r="15" fill="#52BEDA"></circle><path d="M9 21.75H20.9197C21.747 21.75 22.4197 21.0773 22.4197 20.25V9.75C22.4197 8.92275 21.747 8.25 20.9197 8.25H9C8.17275 8.25 7.5 8.92275 7.5 9.75V20.25C7.5 21.0773 8.17275 21.75 9 21.75ZM9 20.25V16.5H12V20.25H9ZM16.5 11.25V15H13.5V11.25H16.5ZM12 11.25V15H9V11.25H12ZM13.5 20.25V16.5H16.5V20.25H13.5ZM18 20.25V16.5H20.9205V20.25H18ZM20.9197 15H18V11.25H20.9197V15Z" fill="white"></path></svg> 