<?xml version="1.0" encoding="UTF-8"?> <svg xmlns="http://www.w3.org/2000/svg" width="297" height="196" viewBox="0 0 297 196" fill="none"> <path d="M35.4205 188.562V7.44019C11.8215 30.8761 0 60.9782 0 97.7851C0 134.589 11.8135 164.843 35.4205 188.562Z" fill="white"></path> <path d="M250.521 64.584H294.152C290.935 49.8559 284.614 37.4966 275.187 27.506C265.76 17.518 255.051 10.4092 243.067 6.17691C238.877 4.70012 234.556 3.49582 230.118 2.53477V43.3945C231.049 43.869 231.971 44.3622 232.872 44.8965C240.984 49.7084 246.865 56.2722 250.521 64.584Z" fill="white"></path> <path d="M137.372 92.7455V122.279H187.365C184.728 133.759 179.13 142.494 170.57 148.456C170.115 148.779 169.648 149.09 169.167 149.401C159.815 155.388 149.217 158.368 137.372 158.368C130.955 158.368 124.941 157.552 119.356 155.919C110.199 153.237 102.172 148.377 95.2762 141.315C84.1702 129.936 78.6118 115.501 78.6118 97.9933C78.6118 80.3569 84.1315 65.9213 95.1723 54.6852C102.004 47.7133 110.07 42.9187 119.37 40.2762C125.058 38.6425 131.202 37.8396 137.814 37.8396C148.476 37.8396 157.881 40.2496 165.985 45.0575C167.452 45.9254 168.843 46.8453 170.167 47.8303C176.155 52.2885 180.649 57.9378 183.637 64.7409H227.265C225.174 55.165 221.77 46.5994 217.043 39.032C214.524 34.9499 211.601 31.1522 208.302 27.6669C198.872 17.675 188.169 10.5742 176.181 6.33651C174.234 5.64929 172.246 5.01524 170.246 4.44499C159.933 1.47678 148.905 2.35919e-07 137.15 2.35919e-07C106.901 2.35919e-07 82.3782 9.10931 63.5968 27.3426C44.8153 45.5759 35.4253 69.1221 35.4253 97.9933C35.4253 126.58 44.6341 150.061 63.0519 168.437C81.4696 186.812 104.562 196 132.331 196C144.554 196 155.464 194.199 165.063 190.583C168.427 189.327 171.622 187.849 174.648 186.152C186.338 179.594 195.546 170.912 202.275 160.118L202.717 195.948C212.782 195.65 221.926 194.083 230.122 191.257V92.7455H137.372Z" fill="white"></path> <path d="M297 92.5831V195.838H269.595L269.152 159.956C262.437 170.749 253.229 179.432 241.526 185.989C237.967 187.998 234.135 189.657 230.123 191.043V152.518C232.149 151.533 234.135 150.469 236.045 149.238C245.397 143.265 251.475 134.219 254.243 122.116H230.123V92.5831H297Z" fill="white"></path> </svg> 