<?xml version="1.0" encoding="UTF-8"?> <svg xmlns="http://www.w3.org/2000/svg" width="25" height="25" viewBox="0 0 25 25" fill="none"><path d="M13 15.8632C9.22442 15.8632 6.16371 12.7598 6.16371 8.93158C6.16371 5.10337 9.22442 2 13 2C16.7756 2 19.8363 5.10337 19.8363 8.93158C19.8363 12.7598 16.7756 15.8632 13 15.8632ZM13 15.8632L17.1494 22.5962C17.6159 23.3532 18.7706 22.9692 18.7043 22.0791L18.5365 19.8252C18.4853 19.1383 19.2157 18.6756 19.8021 19.0233L21.7264 20.1643C22.4864 20.6149 23.333 19.731 22.8665 18.974L18.8764 12.4756M13 15.8632L8.85057 22.5962C8.38406 23.3532 7.22936 22.9692 7.29566 22.0791L7.46354 19.8252C7.5147 19.1383 6.78431 18.6756 6.19786 19.0233L4.27356 20.1643C3.51362 20.6149 2.66703 19.731 3.13354 18.974L7.12359 12.4756M15.2788 8.93158C15.2788 10.2076 14.2585 11.2421 13 11.2421C11.7415 11.2421 10.7212 10.2076 10.7212 8.93158C10.7212 7.65551 11.7415 6.62105 13 6.62105C14.2585 6.62105 15.2788 7.65551 15.2788 8.93158Z" stroke="white" stroke-linecap="round" stroke-linejoin="round"></path></svg> 