<?xml version="1.0" encoding="UTF-8"?> <svg xmlns="http://www.w3.org/2000/svg" width="150" height="150" viewBox="0 0 150 150" fill="none"> <g clip-path="url(#clip0_174_2778)"> <path d="M11.5945 52.6994L5.48242 58.6831V74.7614L10.7956 80.185H13.2321C13.1728 80.3482 13.095 80.5998 13.2642 80.846C13.4481 81.119 13.7656 81.119 13.8872 81.119C14.0296 81.119 14.2284 81.1012 14.534 81.0596H14.5376C14.5376 81.0596 14.6652 81.173 14.2765 81.3005C13.9561 81.4133 13.6766 81.5996 13.5846 81.92C13.5786 81.9437 13.5763 81.9681 13.5704 81.9888H5.48483L5.48246 90.2069L11.5946 96.212H27.6693L33.7814 90.2154V74.8145L28.4671 69.3992H23.961C23.9579 69.3992 23.9538 69.3969 23.9538 69.3969C23.7551 69.2782 23.5509 69.153 23.364 69.0313L23.2952 68.9874L23.2833 68.9803C23.1824 68.918 23.0762 68.8414 22.9605 68.7406C22.8596 68.6605 22.776 68.5804 22.7137 68.5091L22.6959 68.4913C22.5772 68.3667 22.4734 68.2475 22.3932 68.1436C23.0964 68.3454 23.8625 68.3964 24.2303 68.4083H24.2742C24.2979 68.4083 24.3223 68.4119 24.3431 68.4119L24.3751 68.4142C24.4641 68.4203 24.5324 68.4349 24.5769 68.4498C24.6243 68.4676 24.6665 68.489 24.705 68.5068L24.8949 68.578C24.9394 68.5898 24.9869 68.5922 25.0373 68.5922C25.3133 68.5922 25.5714 68.4261 25.69 68.165C25.7286 68.076 25.788 67.8986 25.7434 67.6642L33.7806 67.6701V58.6925L27.6697 52.6992H11.5949L11.5945 52.6994Z" fill="#172240"></path> <path d="M33.0514 59.0104L27.3741 53.4414H11.8895L6.21075 59.0013V74.4562L11.0972 79.4406L14.248 79.4436C13.895 79.7611 13.7852 80.0904 13.7288 80.2506C13.6072 80.6037 13.4796 80.7045 14.5862 80.5503C14.9363 80.4999 15.5742 80.2744 15.8739 80.0726C16.1676 79.8709 16.7491 80.034 16.6986 80.4702C16.4257 81.1377 15.7255 81.5561 15.0579 81.6392C13.5211 81.832 14.1856 82.4046 14.1856 82.4046C14.3548 82.5203 14.4764 82.6331 14.5625 82.734H13.8148V82.7309H6.21349L6.21045 89.8901L11.8862 95.4679H27.3738L33.0494 89.8989V75.1238L28.163 70.1454H24.2141C23.8996 69.9347 23.4753 69.7003 23.0896 69.4482C23.0896 69.4451 23.0896 69.4451 23.0866 69.4451C22.9382 69.3591 22.7928 69.2523 22.6534 69.1306C22.5377 69.0387 22.4339 68.9408 22.3449 68.8428C22.0037 68.4868 21.7485 68.1159 21.6803 67.9439C21.5527 67.6294 21.5824 67.2318 21.8701 67.395C22.6 67.8163 23.7987 67.8964 24.2437 67.9112C24.2941 67.9112 24.6531 67.9528 24.7391 67.9794C24.8281 68.0151 24.9646 68.0803 24.9646 68.0803C25.1456 68.1574 25.472 67.9082 25.0952 67.4483C24.9973 67.2911 24.8489 67.1101 24.6739 66.9262H33.0491V59.0104" fill="#A8B7D5"></path> <path d="M12.1818 54.1832L6.93945 59.319V74.1461L11.4017 78.698H15.591C16.3059 78.3839 16.4573 78.4108 16.656 78.0103C16.6857 77.9467 16.7151 77.7627 16.7182 77.583C16.7272 77.5321 16.8163 76.9916 16.5551 77.1232C16.1071 77.3481 15.2021 76.7539 14.5256 77.1076C13.8492 77.4571 14.3447 76.6449 14.4396 76.5048C14.4396 76.5048 14.8016 76.028 15.3474 75.7125C15.3682 75.7012 15.3861 75.6898 15.4008 75.6771C15.4543 75.6474 15.5078 75.6219 15.5642 75.595C15.9795 75.4012 17.1631 74.6131 17.3768 74.3669C17.5044 74.224 17.7299 73.8971 17.7388 73.716C17.7773 73.5589 17.8072 73.3099 17.6559 73.2123C17.4304 73.0637 17.2493 73.3538 16.8962 73.5122C16.5431 73.6693 16.2761 73.7344 15.9615 73.7457C15.659 73.7556 15.3682 73.6396 15.1873 73.6665C15.0062 73.6962 14.8993 73.5589 15.2317 73.2236C15.383 73.0722 15.4485 73.0043 15.5196 72.9533C16.3089 72.4468 17.0179 72.4411 17.4155 71.5412C17.4155 71.5412 17.7241 70.7347 17.1277 71.0785C16.8014 71.2681 16.6234 71.5412 15.6887 71.5412C14.7571 71.5412 14.3921 71.9841 14.2349 72.1765C14.2349 72.1765 13.6001 73.0637 13.7573 71.82C13.9177 70.5805 14.1578 69.948 14.7423 69.4641C15.2466 69.0495 16.4985 68.492 16.9496 67.878C17.1809 67.6487 17.7626 66.9837 17.4243 66.4207C17.2818 66.1833 16.9349 66.7984 16.5759 66.8776C16.1664 66.9851 15.6473 67.1181 15.2497 67.0375C14.7571 66.9398 14.4426 67.1266 14.2587 67.2101C14.0747 67.2936 13.7275 67.029 14.1517 66.5454C14.7213 65.8956 16.0982 65.0472 17.0239 64.5398C17.1515 64.4863 17.4628 64.3499 17.7476 64.169C17.7536 64.1659 17.7595 64.1629 17.7626 64.1629C17.8338 64.1302 17.9376 64.0678 17.9969 63.9877C18.1987 63.8185 18.3382 63.6289 18.2907 63.436C18.2492 63.261 18.1629 63.2016 17.89 63.1719C17.6735 63.1511 17.3146 63.4034 17.012 63.3797C16.5492 63.3411 15.8696 63.4478 16.0951 63.1185C16.3056 62.8129 16.6468 62.6169 16.7447 62.5636C16.9346 62.4776 17.1898 62.3649 17.5666 62.1957C18.1571 61.9287 18.0739 61.2583 17.8455 61.2347C17.4894 61.196 16.5282 61.5044 17.2046 60.7331C17.2046 60.7331 17.5252 60.4098 17.8485 60.1991C18.1036 60.0508 18.3143 59.9943 18.5664 59.9022C18.7238 59.8459 19.1364 59.481 18.1572 59.4424C18.1572 59.4424 17.6112 59.4572 17.7151 59.2051C17.8011 59.039 18.2819 58.7363 18.2819 58.7363C18.2819 58.7363 18.6673 58.4721 18.8247 58.3149C18.9759 58.1695 19.0827 58.0539 19.0738 57.9233C19.0679 57.775 18.6822 57.5911 18.5189 57.3834C18.4033 57.2349 18.5012 57.1817 18.5664 57.1639C18.6021 57.1581 18.6437 57.152 18.6942 57.152C19.0917 57.155 19.2044 56.7574 19.4365 55.7249C19.5044 55.4163 19.5101 55.3512 19.6105 55.3482C19.6204 55.3482 19.6261 55.3512 19.6317 55.3512C19.6317 55.3512 19.7294 55.8733 19.8723 56.4578C19.994 56.7812 20.127 56.9177 20.3618 56.9146C20.4085 56.9146 20.451 56.9204 20.4864 56.9265C20.5515 56.9443 20.6519 56.9979 20.5331 57.1462C20.4439 57.2619 20.1779 57.4489 20.1567 57.5616C20.0803 57.882 20.3859 57.9977 20.6972 58.0215C21.1386 58.0511 20.9547 58.327 20.4779 58.68C20.018 59.0211 21.1952 59.7511 21.1952 59.7511C21.8659 60.2704 21.3877 60.4037 21.2518 60.478C21.1146 60.5491 20.7382 60.7806 21.1146 60.9289C21.4952 61.0744 22.0173 61.5994 22.0173 61.5994C22.6908 62.3707 21.7315 62.0654 21.3764 62.101C21.1471 62.1247 21.0651 62.798 21.6551 63.0622C22.5536 63.4686 22.7531 63.5369 23.07 63.7743C23.6629 64.2134 23.3488 64.5872 22.6074 64.4566C22.6074 64.4566 22.1334 64.3381 21.8008 64.4033C21.5928 64.4419 21.4499 64.4893 21.3523 64.5398C21.3014 64.6169 21.1839 64.9224 22.2154 65.2398C22.7078 65.394 23.3191 65.7652 23.8624 66.1894L32.3252 66.1806L32.3237 59.3242L27.0814 54.1826H12.1821L12.1818 54.1832ZM24.9604 70.8865C25.2038 71.2898 25.3453 71.8176 25.45 72.593C25.4528 73.0585 24.8387 72.8321 24.6392 72.7104C24.5005 72.6156 24.3166 72.5279 24.0789 72.4713C23.6304 72.3637 22.5635 71.8954 22.272 71.7907C21.9749 71.6817 21.7584 71.901 21.723 71.9845H21.7259C21.6494 72.126 21.8065 72.4118 21.8065 72.4118C22.2253 73.3613 22.9965 73.3103 23.844 73.9188C25.0099 74.7493 24.3874 74.9248 24.1468 74.8003C23.9105 74.6729 23.5186 74.7522 23.5186 74.7522C22.5776 75.0111 22.2961 74.6191 21.7442 74.4734C21.1952 74.3248 21.6466 75.0083 21.8447 75.2361C22.0555 75.4823 23.2427 76.2718 23.6544 76.4642C24.5543 76.883 25.0227 77.5622 25.3014 78.4253C25.566 79.2418 25.2773 79.0635 25.0637 78.963C24.85 78.8611 24.7878 78.6418 24.2572 78.6546C23.7237 78.6659 23.4238 78.6277 23.0432 78.3277C22.9427 78.2499 22.862 78.1607 22.7941 78.0872C22.7885 78.0843 22.7856 78.0815 22.7828 78.0787C22.4178 77.7999 22.4885 78.7253 22.5635 78.8767C22.8267 79.4073 23.005 79.1908 24.5246 80.0016C25.2448 80.3864 25.4146 80.9029 25.491 81.1194C25.6127 81.4703 25.7372 81.5707 24.6336 81.4165C24.2812 81.3684 23.6459 81.1434 23.3431 80.9383C23.0531 80.7373 22.4687 80.9001 22.521 81.3359C22.7941 82.0037 23.4945 82.4225 24.1624 82.5046C24.7467 82.5796 25.0113 82.7069 25.1175 82.8371C25.4372 83.2022 24.8444 83.737 24.8444 83.737C24.5472 84.0808 24.8684 84.4841 25.0877 84.603C25.4443 84.7841 26.1348 85.1986 26.364 85.7929C27.5625 88.8775 26.4022 87.9932 25.8348 87.6408C25.266 87.2871 24.1822 86.3801 23.1946 86.4594C22.2069 86.5372 21.8772 86.5909 21.29 86.124C20.7057 85.6585 20.7623 86.4127 20.7623 86.4127V90.1325C20.7977 90.9659 20.9519 91.7611 21.6141 92.4346C22.156 92.9907 22.5692 92.886 23.3346 93.8213C23.687 94.2514 24.8387 94.7141 25.607 94.7226L27.0814 94.7254L32.3237 89.5835V75.4285L27.8653 70.8865H24.9604ZM6.94257 83.4753L6.93959 89.5722L12.1819 94.7169H13.8671C15.4516 94.6391 16.0449 93.411 16.5255 92.6554C16.8875 92.0823 17.5284 91.5956 17.9349 91.1796C18.3651 90.7438 18.4423 89.7463 18.4541 88.6667V86.4127L18.4572 86.4353V85.8962H18.4602V85.5368H18.4605V85.4533V84.4813C18.4605 84.2549 18.1994 84.2379 17.6297 84.8548C17.0571 85.4689 16.0989 85.418 15.5441 85.4689C14.9893 85.5184 13.3931 86.3504 12.9361 86.9461C12.6543 87.3168 12.2537 87.0112 12.4168 86.2811H12.4109C12.488 85.9528 12.6303 85.5099 12.8589 84.9256C13.1733 84.1106 14.3542 83.6323 14.3542 83.6323C14.3542 83.6323 14.4758 83.5785 14.5827 83.4753H6.94257Z" fill="#172240"></path> </g> <path d="M138.325 53.8122C138.325 53.6062 138.325 53.4502 138.325 53.3005C138.737 53.2249 139.128 53.1444 139.522 53.0817C140.557 52.916 141.593 52.7599 142.629 52.599C142.949 52.5491 143.143 52.6087 143.11 53.0061C142.776 57.1669 143.027 61.3343 142.954 65.5C142.929 67.014 142.945 68.5297 142.969 70.0454C142.977 70.5088 143.051 70.9754 143.146 71.4291C143.22 71.7831 143.53 71.9424 143.855 72.0389C143.97 72.0727 144.093 72.0711 144.214 72.0872C144.789 72.1676 144.819 72.2143 144.682 72.8434C144.546 72.8515 144.399 72.8499 144.256 72.8676C143.162 73.0075 142.063 73.1186 140.975 73.3052C140.151 73.4468 140.159 73.4902 140.097 72.6198C140.09 72.5313 140.058 72.446 140.036 72.3495C139.645 72.5538 139.292 72.7903 138.904 72.9271C138.29 73.1427 137.662 73.3728 137.024 73.4436C136.193 73.5353 135.345 73.5144 134.526 73.2537C133.369 72.8853 132.377 72.2835 131.672 71.2763C131.075 70.4235 130.758 69.471 130.554 68.4428C130.327 67.3069 130.415 66.1967 130.641 65.1106C131.106 62.8741 132.328 61.2088 134.507 60.2948C135.921 59.7011 137.379 59.6882 138.858 59.7542C139.143 59.7671 139.421 59.8845 139.707 59.9312C139.955 59.9714 140.077 59.8572 140.074 59.5917C140.063 58.385 140.074 57.1782 140.05 55.9715C140.04 55.5065 139.952 55.0447 139.908 54.5797C139.873 54.216 139.413 53.9216 138.967 53.8524C138.771 53.8202 138.57 53.8251 138.325 53.8122ZM140.073 66.6295H140.074C140.074 65.3037 140.071 63.9778 140.076 62.652C140.077 62.3399 139.994 62.113 139.699 61.9328C138.89 61.434 138.021 61.2731 137.083 61.3117C136.307 61.3439 135.633 61.5949 135.046 62.0824C134.095 62.8708 133.828 64.0004 133.656 65.1299C133.543 65.8636 133.648 66.6279 133.614 67.376C133.58 68.0921 133.815 68.7533 134.087 69.3664C134.721 70.7968 135.923 71.508 137.455 71.6029C138.069 71.6415 138.702 71.5401 139.313 71.4259C139.934 71.31 140.073 71.0784 140.073 70.446C140.073 69.1733 140.073 67.9022 140.073 66.6295Z" fill="#687BAA"></path> <path d="M94.8931 72.7944C94.9285 73.2385 94.8883 73.2723 94.4121 73.2723C92.5231 73.269 90.6325 73.2739 88.7435 73.2755C88.6261 73.2755 88.507 73.2755 88.3606 73.2755C88.3606 73.076 88.3606 72.9086 88.3606 72.759C88.6727 72.6512 88.9817 72.545 89.2906 72.4356C89.6478 72.3085 89.8698 72.0156 89.9278 71.6826C90.0484 70.9875 90.1418 70.2811 90.1562 69.578C90.1884 68.051 90.1868 66.5209 90.1546 64.994C90.1369 64.1605 90.0678 63.3013 89.5384 62.6126C89.2761 62.2715 88.9028 61.9224 88.5102 61.7953C87.8505 61.5845 87.149 61.4188 86.4314 61.6794C86.0501 61.8178 85.6334 61.8596 85.2391 61.9642C84.9914 62.0302 84.8401 62.175 84.8417 62.4759C84.8578 65.3045 84.8771 68.1331 84.8642 70.9601C84.8594 72.0575 85.4097 72.5739 86.4636 72.6962C86.6309 73.1854 86.573 73.2723 86.0935 73.2723C84.1499 73.2723 82.2078 73.2723 80.2641 73.2723C80.211 73.2723 80.1595 73.2642 80.0582 73.2562C80.0501 73.076 80.0421 72.9006 80.0356 72.7316C80.6438 72.5949 81.2537 72.4774 81.5224 71.8901C81.6977 71.504 81.8088 71.0534 81.8136 70.6303C81.8409 68.0028 81.8763 65.3753 81.8055 62.7494C81.7798 61.8178 81.6076 61.3834 80.3574 61.3222C80.277 61.319 80.1982 61.3093 80.0823 61.2997C80.0823 61.0632 80.0823 60.8315 80.0823 60.5531C80.2175 60.5467 80.3607 60.5451 80.5039 60.5322C81.3663 60.4598 82.2319 60.4035 83.0895 60.2989C83.3968 60.2619 83.7026 60.1332 83.989 60.0012C84.5392 59.7486 84.7146 59.8403 84.7178 60.4324C84.7194 60.5772 84.7178 60.7221 84.7178 60.9296C85.178 60.6947 85.577 60.4791 85.9857 60.2876C86.2576 60.1605 86.5408 60.0592 86.824 59.9594C87.7122 59.6456 88.6502 59.6167 89.5432 59.7615C90.7451 59.9562 91.8505 60.4743 92.4684 61.6167C92.7306 62.1026 92.9109 62.6673 92.9849 63.216C93.334 65.7775 93.0589 68.3584 93.1635 70.9295C93.186 71.4895 93.2729 72.0398 93.7942 72.3535C94.108 72.5466 94.4861 72.6367 94.8931 72.7944Z" fill="#687BAA"></path> <path d="M54.9452 58.4443C54.5123 58.5553 54.3402 58.4701 54.2839 58.0598C54.1921 57.3872 53.9878 56.7146 53.3265 56.3816C52.8631 56.1483 52.3498 55.9488 51.8398 55.8876C51.1399 55.8039 50.4206 55.8409 49.7111 55.8683C48.7199 55.9085 47.8125 56.602 47.4923 57.5159C47.1528 58.4861 47.5196 59.8908 48.3643 60.5135C49.5148 61.3598 50.7215 62.1289 51.8881 62.9543C52.9049 63.6736 54.02 64.3075 54.6201 65.4628C54.8824 65.968 55.0176 66.5456 55.1672 67.1023C55.2589 67.4467 55.3297 67.8167 55.3056 68.1675C55.2026 69.5931 54.8808 70.9511 53.7078 71.9165C52.9918 72.507 52.1905 72.9591 51.2428 73.0846C50.3354 73.2037 49.4263 73.4112 48.5188 73.416C47.6628 73.4209 46.8052 73.2181 45.9508 73.091C45.5582 73.0331 45.1721 72.9398 44.7843 72.8577C44.4513 72.7885 44.2501 72.6357 44.2566 72.2383C44.2743 71.2326 44.263 70.227 44.2501 69.223C44.2469 68.9479 44.3 68.8079 44.6234 68.8143C44.9259 68.8191 45.0289 68.8964 45.053 69.2166C45.1496 70.4491 45.7835 71.1232 46.8985 71.4788C48.0007 71.8296 49.1061 71.8666 50.2131 71.6204C51.4118 71.3517 52.2115 70.6116 52.3337 69.3083C52.419 68.3976 52.3659 67.4804 51.6821 66.8079C51.0675 66.2045 50.3515 65.6993 49.6548 65.186C48.5639 64.3799 47.436 63.6205 46.3531 62.8031C45.5422 62.1917 44.9919 61.3727 44.8229 60.3574C44.7216 59.746 44.5945 59.1024 44.6797 58.5022C44.9146 56.8659 45.6998 55.5771 47.2815 54.8627C48.411 54.3526 49.5872 54.1805 50.81 54.2368C51.1318 54.2513 51.4552 54.2255 51.7754 54.2496C52.7328 54.3237 53.6901 54.4041 54.6459 54.5055C54.7521 54.5167 54.9307 54.6664 54.9307 54.7549C54.9516 55.9809 54.9452 57.2118 54.9452 58.4443Z" fill="#687BAA"></path> <path d="M105.304 66.8253C105.304 66.518 105.305 66.2091 105.304 65.9017C105.3 64.9396 105.613 64.0546 106.005 63.2002C106.662 61.7747 107.74 60.7513 109.189 60.1753C109.814 59.9275 110.507 59.8294 111.18 59.7377C111.68 59.6701 112.198 59.6991 112.705 59.728C113.843 59.7924 114.887 60.1576 115.846 60.7706C116.761 61.3547 117.392 62.1962 117.799 63.1713C118.053 63.7811 118.131 64.4681 118.269 65.1246C118.338 65.4496 118.409 65.7811 118.407 66.1109C118.401 67.2018 118.259 68.267 117.897 69.3128C117.529 70.3748 116.974 71.2919 116.139 72.024C115.411 72.6611 114.56 73.0698 113.604 73.3128C112.46 73.604 111.297 73.5847 110.182 73.4126C108.602 73.1696 107.231 72.4069 106.333 70.9894C105.952 70.3876 105.637 69.7489 105.516 69.0409C105.392 68.3088 105.3 67.5719 105.196 66.8366C105.231 66.8334 105.268 66.8301 105.304 66.8253ZM115.287 66.6853C115.273 66.6821 115.258 66.6789 115.244 66.6773C115.22 66.1688 115.236 65.6556 115.162 65.1536C115.09 64.6596 114.972 64.1608 114.792 63.6958C114.61 63.2244 114.369 62.7642 114.081 62.3491C113.439 61.4223 112.497 61.226 111.426 61.2887C110.636 61.3354 110.05 61.6878 109.567 62.2574C108.699 63.2807 108.512 64.5518 108.391 65.8133C108.282 66.9444 108.401 68.0691 108.736 69.1744C109.141 70.5115 109.724 71.6089 111.255 71.9339C111.913 72.0739 112.514 71.9902 113.072 71.7328C114.245 71.1921 114.74 70.1109 115.011 68.9379C115.18 68.2042 115.201 67.4367 115.287 66.6853Z" fill="#687BAA"></path> <path d="M74.0923 72.1685C73.6869 72.4291 73.3071 72.7381 72.8759 72.936C71.8993 73.3833 70.892 73.6343 69.7963 73.3366C69.2332 73.1838 68.67 73.0776 68.2082 72.6882C67.6354 72.2023 67.1431 71.6745 67.0723 70.8716C67.0304 70.397 66.8953 69.9207 66.9258 69.4541C67.0208 68.0269 67.8028 67.0197 69.0674 66.4421C69.8864 66.0688 70.7762 65.8532 71.637 65.5716C72.2886 65.3576 72.9451 65.1629 73.5903 64.9328C73.7303 64.8829 73.9202 64.7236 73.9298 64.603C73.991 63.7615 73.954 62.9264 73.3635 62.2393C72.7633 61.5427 71.9508 61.3801 71.0964 61.4493C70.1406 61.5282 69.3683 61.961 68.8389 62.7993C68.7794 62.8942 68.5188 62.9441 68.3965 62.8974C68.168 62.8089 68.0151 62.611 68.1374 62.3327C68.3981 61.7373 68.7215 61.1806 69.2444 60.7784C70.2034 60.0398 71.2734 59.6666 72.5091 59.7003C73.3635 59.7245 74.2033 59.7486 74.9789 60.1348C75.7399 60.5129 76.3127 61.068 76.5991 61.9095C77.0979 63.3769 76.9724 64.8894 76.9612 66.3922C76.9531 67.5796 76.8598 68.7671 76.8405 69.9561C76.8341 70.3214 76.9193 70.6979 77.0159 71.0551C77.1269 71.4621 77.7673 71.6423 78.2371 71.3801C78.4881 71.2401 78.6024 71.3801 78.6892 71.5265C78.7488 71.6262 78.7504 71.8242 78.6876 71.9207C78.0762 72.8507 77.1993 73.4187 76.0939 73.4299C75.2186 73.4332 74.5075 73.0937 74.0923 72.1685ZM73.9523 68.8057C73.9507 68.8057 73.9507 68.8057 73.9523 68.8057C73.9507 68.2168 73.954 67.6279 73.9507 67.0374C73.9475 66.5466 73.8059 66.4614 73.3361 66.6384C73.0191 66.759 72.6909 66.8507 72.3804 66.9843C71.8623 67.2047 71.3168 67.3914 70.8486 67.6955C70.0489 68.2152 69.8397 69.0374 69.9186 69.9465C69.9669 70.4935 70.1744 71.01 70.6748 71.2417C71.6531 71.6954 72.6458 71.586 73.6177 71.1339C73.8992 71.002 73.9636 70.8121 73.9556 70.5321C73.9427 69.9577 73.9523 69.3817 73.9523 68.8057Z" fill="#687BAA"></path> <path d="M96.6631 61.7274C96.5553 60.9374 96.6165 60.8602 97.5497 60.5271C98.0034 60.3646 98.3204 60.1152 98.3268 59.5649C98.3349 58.8956 98.4153 58.2279 98.4346 57.5585C98.4733 56.2504 98.8192 55.0549 99.6639 54.03C100.121 53.4749 100.705 53.1 101.368 52.8522C102.716 52.3518 104.114 52.4741 105.484 52.6736C106.023 52.7524 106.528 53.1466 107.015 53.4507C107.12 53.5167 107.167 53.8739 107.086 53.9994C106.763 54.5079 106.386 54.9841 106.015 55.4588C105.778 55.7613 105.696 55.7403 105.479 55.4041C105.176 54.931 104.919 54.4371 104.362 54.1684C103.302 53.6567 102.036 53.8868 101.546 55.0179C101.402 55.3526 101.316 55.7371 101.305 56.1008C101.271 57.3059 101.289 58.5127 101.273 59.7194C101.27 60.0187 101.382 60.1136 101.677 60.1056C102.401 60.0879 103.125 60.1072 103.849 60.0975C104.135 60.0943 104.274 60.1892 104.256 60.4933C104.24 60.7733 104.243 61.0565 104.254 61.3381C104.267 61.6373 104.129 61.7371 103.841 61.7323C103.172 61.7194 102.501 61.729 101.83 61.729C101.67 61.729 101.511 61.729 101.308 61.729C101.297 61.8883 101.281 62.0171 101.281 62.1442C101.281 64.7845 101.271 67.4265 101.291 70.0669C101.295 70.622 101.398 71.1771 101.468 71.7306C101.509 72.0701 101.899 72.3372 102.369 72.4514C102.587 72.5045 102.801 72.5801 103.024 72.622C103.229 72.6606 103.443 72.667 103.67 72.6895C103.67 72.8778 103.67 73.0355 103.67 73.2382C103.521 73.2511 103.368 73.2752 103.215 73.2768C101.098 73.2784 98.9801 73.2768 96.8643 73.272C96.6921 73.272 96.4685 73.3428 96.4427 73.0435C96.4202 72.799 96.5135 72.733 96.7581 72.6541C97.1539 72.527 97.5706 72.3388 97.8651 72.0572C98.0823 71.848 98.2142 71.4522 98.2206 71.1369C98.2641 68.7813 98.2657 66.4241 98.2802 64.0669C98.285 63.4249 98.2866 62.7813 98.3011 62.1393C98.3075 61.8401 98.2126 61.7001 97.8828 61.7226C97.4853 61.7484 97.0831 61.7274 96.6631 61.7274Z" fill="#687BAA"></path> <path d="M56.4738 61.7309C56.2228 61.1919 56.646 61.0713 56.8938 60.9731C58.0474 60.5097 58.8551 59.6553 59.5663 58.6932C59.8897 58.2555 60.1182 57.7471 60.4336 57.2998C60.5205 57.1759 60.7666 57.1019 60.9307 57.1147C61.0257 57.1228 61.1705 57.3496 61.1753 57.4832C61.1995 58.2056 61.1995 58.9313 61.185 59.6553C61.1785 59.9948 61.2799 60.1219 61.6435 60.1155C62.8229 60.093 64.0039 60.1155 65.1833 60.101C65.5164 60.0962 65.6548 60.1767 65.6532 60.5467C65.6435 61.7326 65.658 61.7326 64.4786 61.7309C63.5132 61.7293 62.5478 61.739 61.5824 61.7261C61.2912 61.7213 61.1801 61.8034 61.1834 62.1107C61.2027 64.7253 61.1962 67.3399 61.2268 69.9529C61.2381 70.9296 61.9863 71.9529 63.156 71.8869C63.8446 71.8483 64.5413 71.9304 65.1592 71.5137C65.2171 71.475 65.4279 71.5362 65.4279 71.5603C65.4408 71.7791 65.5132 72.08 65.4005 72.2039C64.9291 72.7236 64.3129 73.0358 63.6483 73.2707C62.7731 73.578 61.8752 73.4895 60.9887 73.4477C59.8286 73.393 58.6894 72.3214 58.3676 71.2594C58.1214 70.4501 58.1649 69.644 58.1584 68.8379C58.1407 66.6255 58.1584 64.4131 58.1842 62.2008C58.189 61.8275 58.0748 61.7052 57.7079 61.7277C57.2848 61.7519 56.8584 61.7309 56.4738 61.7309Z" fill="#687BAA"></path> <path d="M119.72 73.2667C119.681 72.9369 119.601 72.7181 120.047 72.6199C120.486 72.5234 120.993 72.3641 121.204 71.8814C121.344 71.5612 121.471 71.2024 121.474 70.8597C121.496 68.0858 121.495 65.3119 121.488 62.5379C121.487 61.7978 120.97 61.3666 120.158 61.3296C119.902 61.3183 119.698 61.3328 119.694 60.9611C119.691 60.6007 119.805 60.5009 120.154 60.5122C121.133 60.5412 122.093 60.406 123.038 60.147C123.353 60.0601 123.678 60.0005 123.998 59.9281C124.267 59.8686 124.415 59.9587 124.394 60.2532C124.391 60.3063 124.386 60.3626 124.397 60.4141C124.433 60.575 124.475 60.7326 124.515 60.8919C124.66 60.8211 124.816 60.768 124.946 60.6747C125.475 60.2966 126.063 60.0263 126.698 59.9539C127.437 59.8686 128.182 59.8541 128.911 60.1132C129.356 60.2725 129.821 60.694 129.768 61.0126C129.738 61.188 129.652 61.3601 129.567 61.521C129.31 62.0086 129.043 62.4913 128.777 62.974C128.645 63.2137 128.201 63.2346 128.029 62.9885C127.414 62.1051 126.536 61.8654 125.53 61.9667C125.273 61.9925 125.001 62.0745 124.784 62.2081C124.647 62.2918 124.528 62.5218 124.526 62.6876C124.518 65.4888 124.533 68.2885 124.536 71.0898C124.537 71.8299 124.949 72.3947 125.794 72.4655C126.008 72.4832 126.22 72.5121 126.434 72.5266C126.7 72.5443 126.84 72.6344 126.833 72.9449C126.825 73.2732 126.645 73.2716 126.413 73.2603C125.411 73.2169 124.409 73.1445 123.406 73.1461C122.323 73.1477 121.241 73.2217 120.158 73.2635C120.018 73.2716 119.886 73.2667 119.72 73.2667Z" fill="#687BAA"></path> <path d="M54.9643 80.9069C54.8983 80.651 54.9498 80.5336 55.2233 80.5352C56.443 80.5448 57.6642 80.5416 58.8838 80.5352C59.1606 80.5336 59.2378 80.6478 59.1557 80.9213C58.6843 80.9406 58.311 81.1305 58.1099 81.5698C58.0455 81.7081 58.0021 81.8706 58.0005 82.0235C57.9957 84.3565 57.9683 86.6896 58.0182 89.021C58.0375 89.8979 58.3512 90.7169 59.2201 91.1594C59.4405 91.272 59.6867 91.3557 59.9313 91.3975C61.0013 91.5761 62.0584 91.5826 62.953 90.8472C63.3745 90.5013 63.6111 90.0009 63.6336 89.4603C63.7092 87.6952 63.7655 85.9285 63.7945 84.1635C63.8074 83.4169 63.7784 82.6639 63.6931 81.9221C63.6078 81.1836 63.4276 81.0484 62.6939 80.9165C62.6038 80.6558 62.6601 80.5352 62.9755 80.5384C64.0487 80.5497 65.1203 80.548 66.1935 80.5368C66.4831 80.5336 66.5507 80.6494 66.4686 80.9004C66.3029 80.9551 66.1404 80.9986 65.9859 81.0629C65.2667 81.3558 65.36 82.046 65.3391 82.5979C65.2812 84.2182 65.3134 85.8417 65.3021 87.4635C65.2989 87.9993 65.315 88.5416 65.2458 89.0709C65.064 90.4257 64.5684 91.6003 63.1509 92.0958C62.6473 92.2728 62.1147 92.416 61.5869 92.4627C60.8951 92.5238 60.1887 92.5287 59.4985 92.4595C58.208 92.3307 57.0801 91.8641 56.488 90.5979C56.3239 90.2455 56.2161 89.8513 56.1614 89.4651C55.8219 87.0387 56.0713 84.5979 56.0005 82.1635C55.9764 81.3879 55.9072 81.1627 54.9643 80.9069Z" fill="#687BAA"></path> <path d="M76.1629 92.0893C76.2257 92.3918 76.0986 92.4545 75.8605 92.4416C74.9803 92.395 74.1018 92.3483 73.2217 92.329C72.9337 92.3226 72.6441 92.4175 72.3528 92.432C72.2418 92.4368 72.1276 92.3451 72.0149 92.2984C72.0857 92.2083 72.1421 92.0619 72.2322 92.0378C73.019 91.8222 73.1509 91.2268 73.1493 90.535C73.1461 89.3701 73.1831 88.2019 73.1412 87.0386C73.1235 86.5784 72.998 86.0974 72.8146 85.6726C72.6071 85.1899 72.1485 84.9839 71.6207 84.9855C71.1043 84.9855 70.5652 84.8954 70.1002 85.2011C69.9474 85.3009 69.7575 85.494 69.7559 85.6468C69.7366 87.362 69.743 89.0772 69.7607 90.7924C69.7672 91.37 69.9715 91.8415 70.6022 92.0153C70.7197 92.0474 70.8114 92.1681 70.916 92.2486C70.7728 92.3129 70.6296 92.4368 70.488 92.4336C69.6883 92.4111 68.8903 92.3371 68.0906 92.3258C67.6562 92.3194 67.2201 92.4046 66.7712 92.4513C66.6843 92.2534 66.6135 92.1118 66.9112 92.0297C67.7414 91.8045 67.8444 91.4135 67.8734 90.609C67.9249 89.1239 67.8943 87.6356 67.8927 86.1472C67.8911 85.0515 67.8122 84.9598 66.7503 84.7522C66.6232 84.4546 66.7632 84.3612 67.0464 84.3226C67.7189 84.2309 68.3883 84.1183 69.0592 84.0137C69.0721 84.0121 69.0866 84.0105 69.0994 84.0057C69.2829 83.959 69.4647 83.9123 69.6481 83.8641C69.6916 84.0555 69.735 84.247 69.7929 84.5109C69.9426 84.4127 70.0664 84.3033 70.208 84.2422C71.2056 83.8174 72.2048 83.6082 73.3005 83.9365C74.1565 84.1939 74.6054 84.7764 74.9337 85.5246C74.9642 85.5953 74.9707 85.6806 74.9723 85.7595C75.0206 87.1738 75.0656 88.5897 75.1107 90.004C75.1219 90.3515 75.138 90.7007 75.1461 91.0482C75.1573 91.5165 75.3037 91.8737 75.8299 91.9589C75.9409 91.9766 76.0487 92.0426 76.1629 92.0893Z" fill="#687BAA"></path> <path d="M124.714 84.0116C126.032 84.0116 127.262 84.0116 128.518 84.0116C128.56 84.1886 128.655 84.335 128.356 84.4203C127.772 84.586 127.575 84.969 127.788 85.5337C128.227 86.7019 128.695 87.8587 129.142 89.0236C129.241 89.2811 129.295 89.5546 129.385 89.8153C129.414 89.8989 129.5 89.9649 129.558 90.0389C129.628 89.9713 129.733 89.9182 129.762 89.8362C130.103 88.8692 130.438 87.8989 130.761 86.9255C130.927 86.4267 131.117 85.9263 131.205 85.4114C131.323 84.734 131.271 84.7147 130.661 84.4187C130.566 84.372 130.512 84.2449 130.439 84.1548C130.533 84.1017 130.624 84.0052 130.718 84.0036C131.669 83.9923 132.618 83.9971 133.688 83.9971C133.601 84.1838 133.572 84.3849 133.477 84.4235C132.793 84.7003 132.671 85.3583 132.433 85.9247C132.166 86.5635 131.944 87.2232 131.707 87.8748C131.401 88.7131 131.105 89.5546 130.795 90.3897C130.565 91.0075 130.315 91.6173 130.082 92.2336C129.781 93.0317 129.496 93.8362 129.189 94.6326C128.832 95.5562 128.385 96.425 127.416 96.8514C127.142 96.9705 126.821 97.0188 126.52 97.0252C125.987 97.0348 125.45 97.0139 124.919 96.9528C124.669 96.9238 124.409 96.8112 124.2 96.6696C123.99 96.5296 123.82 96.3076 124.116 96.0598C124.163 96.0196 124.19 95.9568 124.23 95.9102C124.797 95.2537 124.797 95.2537 125.443 95.7718C125.904 96.1386 126.967 95.9922 127.358 95.4403C127.68 94.985 127.905 94.4621 128.163 93.9633C128.257 93.7782 128.301 93.5658 128.402 93.3872C128.75 92.7806 128.481 92.2674 128.233 91.7091C127.897 90.956 127.652 90.1612 127.353 89.3921C127.115 88.7823 126.845 88.1853 126.605 87.5755C126.375 86.9883 126.182 86.3849 125.942 85.8024C125.714 85.2457 125.611 84.5812 124.871 84.3945C124.801 84.3752 124.777 84.1725 124.714 84.0116Z" fill="#687BAA"></path> <path d="M92.3623 87.8177C92.3253 88.9762 92.4991 89.9883 93.3857 90.7284C93.7702 91.0502 94.232 91.2803 94.7517 91.2546C95.3583 91.224 95.9633 91.1451 96.5666 91.0695C96.6728 91.0567 96.7678 90.9102 96.8691 90.9086C97.0156 90.9054 97.1942 90.9424 97.2971 91.0341C97.3518 91.084 97.3261 91.327 97.2537 91.401C96.5924 92.0832 95.7782 92.4726 94.8241 92.4645C94.1918 92.4597 93.5482 92.4114 92.9287 92.2908C92.0454 92.1186 91.3857 91.5796 90.9802 90.7783C90.52 89.8708 90.364 88.9038 90.4895 87.8837C90.5876 87.0889 90.7356 86.3246 91.1411 85.6166C91.6077 84.8009 92.232 84.1959 93.1668 83.9964C93.6817 83.8853 94.2175 83.7808 94.7372 83.8081C95.5401 83.8499 96.2996 84.1074 96.8305 84.7703C97.4934 85.5973 97.6833 86.574 97.6157 87.6037C97.6109 87.6842 97.3711 87.8081 97.2392 87.8097C95.8056 87.8242 94.3704 87.8193 92.9367 87.8193C92.763 87.8177 92.5908 87.8177 92.3623 87.8177ZM95.5836 86.8282C95.6914 86.2313 95.5803 85.7148 95.2312 85.2691C94.8627 84.8009 93.8233 84.603 93.2907 84.8588C92.6954 85.1452 92.306 86.1363 92.3736 86.6319C92.3833 86.7043 92.4975 86.8186 92.5651 86.8186C93.5659 86.833 94.5651 86.8282 95.5836 86.8282Z" fill="#687BAA"></path> <path d="M81.5195 84.0088C82.7488 84.0088 83.978 84.0088 85.2298 84.0088C85.3071 84.2163 85.3392 84.3467 85.0416 84.44C84.4543 84.625 84.3561 84.979 84.5862 85.5663C84.9756 86.559 85.3232 87.5679 85.6981 88.5671C85.838 88.9387 86.0005 89.3008 86.1534 89.6676C86.1872 89.6628 86.2226 89.658 86.2564 89.6531C86.5476 88.9114 86.8372 88.1696 87.1317 87.4295C87.3553 86.8696 87.5854 86.3113 87.8074 85.7513C87.8605 85.6178 87.9136 85.4778 87.9313 85.3362C88.0021 84.7312 87.9587 84.6733 87.4277 84.4287C87.3183 84.3772 87.2395 84.2614 87.1461 84.1761C87.2717 84.115 87.3972 84.0023 87.5243 84.0007C88.3819 83.9846 89.2411 83.9895 90.0987 83.9991C90.2 84.0007 90.3014 84.0764 90.4044 84.1166C90.3497 84.2308 90.3239 84.411 90.2354 84.4496C89.225 84.8953 89.1542 85.9428 88.7374 86.7634C88.4864 87.2557 88.2692 87.7642 88.0456 88.2694C87.7318 88.9758 87.4261 89.6853 87.1156 90.3933C86.8404 91.0192 86.6007 91.666 86.2612 92.2549C86.1631 92.4238 85.7721 92.4689 85.513 92.4785C85.3972 92.4834 85.2202 92.2806 85.159 92.1358C84.6602 90.9355 84.1775 89.7288 83.7029 88.5188C83.3489 87.6162 83.0175 86.7038 82.6683 85.7996C82.575 85.5582 82.4945 85.2992 82.3449 85.0949C82.1647 84.8519 81.9121 84.6636 81.6949 84.4448C81.5951 84.3451 81.5082 84.2324 81.4165 84.1246C81.4487 84.0828 81.4841 84.0458 81.5195 84.0088Z" fill="#687BAA"></path> <path d="M111.171 84.0414C111.171 84.6706 111.181 85.2981 111.16 85.9256C111.157 86.0092 110.99 86.1669 110.927 86.1541C110.803 86.1283 110.632 86.0286 110.597 85.9208C110.462 85.5201 110.359 85.0986 109.929 84.9119C109.356 84.6625 108.729 84.6255 108.172 84.8604C107.495 85.1468 107.569 86.278 108.114 86.6046C108.864 87.0551 109.601 87.5265 110.344 87.9883C111.295 88.5804 111.625 89.8033 111.231 90.8765C110.93 91.6955 110.352 92.1621 109.548 92.2876C108.753 92.4131 107.936 92.4227 107.128 92.4372C106.832 92.4436 106.518 92.3551 106.24 92.2425C106.101 92.1878 105.95 91.9947 105.928 91.8451C105.842 91.2916 105.797 90.7317 105.767 90.1733C105.762 90.08 105.892 89.9272 105.99 89.895C106.161 89.8387 106.312 89.8725 106.356 90.1251C106.447 90.6625 106.714 91.0985 107.21 91.3753C107.585 91.586 108.877 91.5329 109.223 91.3077C109.866 90.8893 109.855 89.94 109.276 89.5185C108.748 89.1339 108.203 88.7606 107.627 88.4565C106.397 87.8081 105.789 86.6689 106.153 85.3721C106.343 84.6947 106.837 84.2104 107.551 83.9932C108.755 83.6279 109.947 83.7518 111.171 84.0414Z" fill="#687BAA"></path> <path d="M123.711 83.9932C123.711 84.3536 123.711 84.6432 123.711 84.9923C122.943 84.9923 122.198 84.9923 121.452 84.9923C120.895 84.9923 120.892 84.9923 120.892 85.5298C120.892 86.9634 120.885 88.3986 120.903 89.8322C120.911 90.4211 120.982 91.0213 121.582 91.3399C122.106 91.6182 122.66 91.5329 123.21 91.3833C123.355 91.3447 123.519 91.3817 123.675 91.3849C123.616 91.5265 123.595 91.7115 123.492 91.8032C123.04 92.2071 122.518 92.5015 121.891 92.4678C121.313 92.4372 120.711 92.4356 120.169 92.2682C119.511 92.0639 119.127 91.4975 119.078 90.8121C118.979 89.4235 118.942 88.0301 118.961 86.6335C118.972 86.6963 118.983 86.7574 118.996 86.8314C119.016 86.8041 119.038 86.788 119.038 86.7703C119.043 86.3278 119.035 85.8853 119.051 85.4429C119.064 85.1114 118.916 84.9795 118.597 84.9891C118.372 84.9972 118.145 84.9907 117.79 84.9907C117.913 84.8025 117.958 84.648 118.05 84.611C119.091 84.1862 119.751 83.3817 120.296 82.4437C120.378 82.3021 120.592 82.2361 120.745 82.1348C120.795 82.2844 120.879 82.4308 120.887 82.5821C120.908 82.9425 120.903 83.3061 120.893 83.6665C120.887 83.9079 120.983 83.9948 121.226 83.9916C121.896 83.9803 122.567 83.9899 123.236 83.9899C123.381 83.9948 123.526 83.9932 123.711 83.9932Z" fill="#687BAA"></path> <path d="M101.444 83.9049C101.47 84.0449 101.51 84.2605 101.544 84.4423C102.052 84.2524 102.548 84.0529 103.053 83.884C103.709 83.6651 104.279 83.9628 104.821 84.2653C104.91 84.3152 104.916 84.6515 104.852 84.8108C104.718 85.1342 104.49 85.4173 104.34 85.7375C104.163 86.1189 103.935 86.003 103.769 85.7874C103.376 85.2741 102.857 85.1631 102.26 85.2034C101.732 85.2387 101.531 85.4206 101.542 85.9499C101.578 87.6893 101.624 89.427 101.674 91.1647C101.687 91.6168 101.944 91.855 102.406 91.8887C102.54 91.8984 102.688 91.8694 102.804 91.9177C102.913 91.9628 102.989 92.0883 103.079 92.1784C102.987 92.2652 102.894 92.4245 102.804 92.4245C102.514 92.4229 102.226 92.3344 101.936 92.3296C101.093 92.3135 100.249 92.3167 99.4054 92.328C99.222 92.3296 99.0418 92.4245 98.8584 92.4261C98.7361 92.4278 98.6122 92.3393 98.4883 92.291C98.5591 92.1784 98.6154 91.9772 98.7007 91.9644C99.6435 91.8179 99.6629 91.1148 99.6661 90.4052C99.6709 88.851 99.6709 87.2983 99.6661 85.744C99.6645 85.1326 99.4247 84.8848 98.8342 84.7931C98.7119 84.7737 98.609 84.6354 98.4979 84.5501C98.6122 84.4375 98.7071 84.2685 98.8439 84.2235C99.0273 84.1639 99.2429 84.2203 99.4408 84.1945C100.094 84.1076 100.746 84.0063 101.444 83.9049Z" fill="#687BAA"></path> <path d="M81.2571 92.1346C81.0689 92.524 80.7857 92.4162 80.5283 92.4162C79.5194 92.4114 78.5106 92.4162 77.5001 92.4162C77.4873 92.4162 77.4728 92.4242 77.4615 92.4226C77.2572 92.376 77.0544 92.3293 76.8501 92.2826C77.011 92.1588 77.1542 91.9818 77.336 91.9206C77.7881 91.7662 78.0231 91.5409 78.0263 91.0727C78.0375 89.2111 78.0424 87.3495 78.0343 85.4862C78.0311 84.952 77.9104 84.833 77.3746 84.796C76.9804 84.7686 76.9434 84.5611 77.04 84.2135C77.1751 84.2071 77.3183 84.1958 77.4631 84.1942C78.2113 84.1894 78.945 84.1041 79.6465 83.8209C79.9233 83.7099 80.0343 83.829 80.0343 84.2151C80.0311 86.1572 80.0247 88.1009 80.0214 90.0429C80.0214 90.4049 80.0263 90.767 80.0375 91.1274C80.0504 91.5506 80.266 91.7919 80.6827 91.9061C80.8694 91.956 81.0448 92.0477 81.2571 92.1346Z" fill="#687BAA"></path> <path d="M115.863 87.7511C115.863 88.6762 115.833 89.6014 115.878 90.5234C115.897 90.9143 116.032 91.3182 116.204 91.6738C116.277 91.8218 116.592 91.8395 116.774 91.9538C116.888 92.0246 116.957 92.1661 117.048 92.2772C116.928 92.3303 116.808 92.4316 116.69 92.4284C115.891 92.4027 115.094 92.3351 114.295 92.3222C113.912 92.3158 113.529 92.4139 113.144 92.4316C113.033 92.4365 112.916 92.327 112.8 92.2707C112.883 92.1694 112.956 91.994 113.052 91.9795C113.942 91.846 114.01 91.2024 114.008 90.504C114.007 88.9369 114.011 87.3697 114.007 85.8009C114.005 85.0447 113.941 84.9884 113.196 84.7744C113.078 84.7406 113.003 84.5588 112.909 84.4462C113.025 84.3625 113.131 84.2209 113.257 84.2048C113.889 84.1179 114.528 84.0648 115.162 83.9908C115.262 83.9796 115.353 83.9007 115.455 83.8782C115.575 83.8508 115.751 83.7913 115.815 83.8476C115.91 83.9297 115.974 84.1018 115.97 84.2338C115.924 85.4067 115.862 86.5797 115.802 87.7527C115.825 87.7494 115.844 87.7511 115.863 87.7511Z" fill="#687BAA"></path> <path d="M80.0506 81.2414C80.1423 81.9462 79.4328 82.3371 78.9549 82.3178C78.2855 82.2905 77.8398 81.9156 77.8254 81.206C77.8141 80.6219 78.374 80.1489 79.0208 80.1553C79.6644 80.1618 80.057 80.5769 80.0506 81.2414Z" fill="#687BAA"></path> <path d="M114.922 80.1543C115.519 80.1559 116.029 80.645 116.026 81.213C116.021 81.8293 115.516 82.3474 114.882 82.3216C114.335 82.2991 113.776 81.9773 113.804 81.2597C113.829 80.571 114.228 80.1527 114.922 80.1543Z" fill="#687BAA"></path> <defs> <clipPath id="clip0_174_2778"> <rect width="28.6524" height="43.8665" fill="white" transform="translate(5.25 52.5)"></rect> </clipPath> </defs> </svg> 