<?xml version="1.0" encoding="UTF-8"?> <svg xmlns="http://www.w3.org/2000/svg" width="200" height="74" viewBox="0 0 200 74" fill="none"><g clip-path="url(#clip0_1172_1643)"><path d="M20.1291 6.44651C13.5658 6.44651 10.0651 6.88458 8.53311 6.88458C5.98052 6.88458 3.7198 6.81126 1.45813 6.81126C0.21879 6.81126 0 6.8847 0 7.39504C0 8.26956 0.29136 8.34361 3.57422 8.34361C5.61535 8.34361 6.78361 9.00004 6.78361 14.7616V48.3112C6.78361 49.4051 6.63679 49.5511 3.3552 49.5511C1.75045 49.5511 1.31243 49.6961 1.31243 50.4263C1.31243 51.1554 1.82308 51.2282 2.5533 51.2282C4.88652 51.2282 6.49126 50.9368 9.55413 50.9368C12.7631 50.9368 15.8266 51.6654 18.8901 51.6654C29.0283 51.6654 35.8115 47.801 35.8115 39.6321C35.8115 33.287 31.5071 30.8067 28.0794 29.0553C26.6207 28.3262 25.2347 27.9617 25.2347 27.8163C25.2347 27.5981 26.8395 26.7952 28.226 25.8468C30.5604 24.2427 33.6964 21.6888 33.6964 16.5109C33.6964 11.3324 29.612 6.44651 20.1291 6.44651ZM145.096 6.52992C144.715 6.52992 142.304 7.6084 137.356 7.92565C136.278 7.989 135.77 7.92496 135.77 8.68628C135.77 9.38484 136.405 9.51202 137.547 9.51202C140.401 9.51202 140.782 9.51171 140.782 13.5077V48.4615C140.782 49.6035 139.703 49.5402 137.102 49.5402C135.579 49.5402 135.516 49.9219 135.516 50.3659C135.516 50.8733 135.642 51.0001 137.102 51.0001C137.99 51.0001 141.353 50.8736 143.509 50.8736C144.652 50.8736 146.048 51.0001 146.999 51.0001C149.282 51.0001 149.726 50.9999 149.726 50.3659C149.726 49.8574 149.853 49.477 146.681 49.477C145.54 49.477 145.096 48.7792 145.096 43.5145C145.096 41.674 145.413 36.6632 145.413 12.4928C145.413 10.5901 145.73 8.30521 145.73 7.54389C145.73 6.84592 145.412 6.52992 145.096 6.52992ZM92.4286 6.59314C91.8573 6.59314 88.1139 7.98805 83.5472 7.98805C82.8492 7.98805 82.7224 8.24204 82.7224 8.87608C82.7224 9.32126 82.9761 9.51213 85.5762 9.51213C87.2889 9.51213 87.7968 10.0832 87.7968 14.5866C87.7968 27.9724 87.6062 46.7497 87.6062 48.589C87.6062 49.5404 87.0355 49.5403 84.8788 49.5403C83.3562 49.5403 83.0395 49.8575 83.0395 50.366C83.0395 50.9367 83.4201 51.0002 84.8788 51.0002C85.7668 51.0002 88.1144 50.8737 90.2722 50.8737C92.3022 50.8737 95.2191 51.0002 96.1705 51.0002C97.5659 51.0002 97.8834 51.0001 97.8834 50.366C97.8834 49.8575 97.6298 49.5403 96.1705 49.5403C92.2378 49.5403 92.3653 49.5407 92.3653 46.56V42.5634C92.3653 41.9921 93.2532 41.5475 94.2679 40.9129C95.346 40.2149 96.2336 39.5812 96.4876 39.5812C96.8682 39.5812 99.534 43.5786 102.198 46.6233C104.862 49.6679 105.433 51.254 106.576 51.254C107.464 51.254 109.367 51.1908 110.128 51.1908C110.699 51.1908 111.523 51.254 112.285 51.254C113.68 51.254 114.124 51.1271 114.124 50.6831C114.124 50.1757 113.617 49.8573 112.095 49.8573C109.938 49.8573 107.908 46.7494 105.75 44.1487C101.31 38.8195 100.169 37.6148 100.169 37.0435C100.169 36.5995 104.102 33.809 107.274 30.6998C109.24 28.7971 111.397 26.0698 111.397 25.498C111.397 25.3073 111.143 25.2441 110.636 25.2441C109.875 25.2441 106.195 25.4338 105.37 25.4338C104.609 25.4338 103.404 25.2441 102.77 25.2441C101.945 25.2441 101.628 25.3707 101.628 25.8792C101.628 26.4505 101.945 26.5766 102.896 26.5766C105.687 26.5766 105.878 26.7038 105.878 27.7185C105.878 29.0506 105.306 30.1292 102.833 32.4759C100.803 34.3798 94.2042 40.2154 92.6183 40.2154C92.4282 40.2154 92.3653 40.0249 92.3653 39.7709C92.3653 29.431 92.7447 22.3263 92.7447 12.6837C92.7447 10.6537 92.8721 7.98793 92.8721 7.16385C92.8721 6.78319 92.7453 6.59314 92.4286 6.59314ZM17.9401 8.19698C24.5773 8.19698 27.6408 15.1991 27.6408 18.8462C27.6408 24.6077 25.234 25.9935 23.119 27.5983C23.119 27.5983 20.0551 27.1602 15.6068 27.1602C13.8554 27.1602 12.9078 27.3056 12.9078 26.1384V10.3126C12.9078 8.85385 13.1271 8.19698 17.9401 8.19698ZM49.9249 24.6093C44.1523 24.6093 38.1251 29.9386 38.1251 38.8832C38.1251 49.4771 45.865 52.0156 51.0663 52.0156C56.2049 52.0156 61.5973 48.0177 61.5973 47.701C61.5973 47.5737 61.4069 47.1932 61.0896 47.1932C60.7095 47.1932 58.4258 48.7164 54.2391 48.7164C49.4172 48.7164 42.6286 46.3689 42.6286 37.6143C42.6286 36.1556 42.8197 35.8383 43.8356 35.775C51.0663 35.331 57.4103 33.9362 59.0596 33.5544C60.7734 33.1737 61.6614 32.9203 61.6614 32.6663C61.6614 32.159 60.6456 30.6361 59.5665 29.368C57.2831 26.7034 53.2242 24.6093 49.9249 24.6093ZM123.895 24.6093C118.123 24.6093 112.095 29.9386 112.095 38.8832C112.095 49.4771 119.834 52.0156 125.036 52.0156C130.174 52.0156 135.567 48.0177 135.567 47.701C135.567 47.5737 135.376 47.1932 135.059 47.1932C134.679 47.1932 132.395 48.7164 128.208 48.7164C123.387 48.7164 116.599 46.3689 116.599 37.6143C116.599 36.1556 116.79 35.8383 117.804 35.775C125.036 35.331 131.379 33.9362 133.03 33.5544C134.742 33.1737 135.631 32.9203 135.631 32.6663C135.631 32.159 134.616 30.6361 133.537 29.368C131.253 26.7034 127.194 24.6093 123.895 24.6093ZM160.485 24.6093C154.712 24.6093 148.685 29.9386 148.685 38.8832C148.685 49.4771 156.425 52.0156 161.626 52.0156C166.765 52.0156 172.158 48.0177 172.158 47.701C172.158 47.5737 171.967 47.1932 171.65 47.1932C171.269 47.1932 168.986 48.7164 164.798 48.7164C159.978 48.7164 153.19 46.3689 153.19 37.6143C153.19 36.1556 153.38 35.8383 154.395 35.775C161.627 35.331 167.971 33.9362 169.62 33.5544C171.333 33.1737 172.221 32.9203 172.221 32.6663C172.221 32.159 171.206 30.6361 170.128 29.368C167.844 26.7034 163.783 24.6093 160.485 24.6093ZM72.0008 25.0529C70.985 25.0529 69.7795 25.37 68.7648 25.37C67.4962 25.37 66.2906 25.2426 64.1339 25.2426C63.0547 25.2426 63.1185 25.4338 63.1185 26.1957C63.1185 26.8937 63.1181 26.8299 64.2613 26.8299C67.8133 26.8299 67.6861 26.9568 67.6861 31.2702V48.6526C67.6861 49.5406 67.4961 49.6039 64.8954 49.6039C63.3722 49.6039 63.309 49.7303 63.309 50.3655C63.309 51.0001 63.4355 50.9997 64.8954 50.9997C65.7835 50.9997 67.9406 50.6826 70.0973 50.6826C72.1279 50.6826 76.3778 50.9997 77.2658 50.9997C78.9151 50.9997 78.9787 51.0635 78.9787 50.3655C78.9787 49.7936 78.9151 49.6039 77.2658 49.6039C72.5718 49.6039 72.382 49.6033 72.382 46.4953V33.4262C72.382 30.7622 73.7767 29.2398 77.4554 29.2398C80.628 29.2398 81.3898 31.8407 82.2778 31.8407C82.6585 31.8407 83.6727 29.0496 83.6727 28.415C83.6727 26.7662 80.7551 25.3696 79.6119 25.3696C76.6306 25.3696 73.6504 28.6688 72.699 28.6688C72.4451 28.6688 72.3819 28.225 72.3819 27.6543C72.3819 27.4637 72.5084 26.0681 72.5084 25.7508C72.5084 25.2422 72.2548 25.0529 72.0008 25.0529ZM198.668 25.1161C197.78 25.1161 196.068 25.37 195.116 25.37C193.402 25.37 192.261 25.2435 190.548 25.2435C189.407 25.2435 189.216 25.2431 189.216 26.0683C189.216 26.7029 189.47 26.7034 191.437 26.7034C193.593 26.7034 193.592 27.0836 193.592 28.9863C193.592 29.8743 191.309 36.4728 189.787 41.0396C188.772 44.0221 188.392 44.9097 187.948 44.9097C187.694 44.9097 186.932 43.8315 186.424 42.4994C182.618 32.729 180.969 30.5084 180.969 28.669C180.969 27.2103 181.349 26.8297 182.871 26.8297C184.203 26.8297 184.458 26.7662 184.458 26.1955C184.458 25.4963 184.203 25.2432 182.871 25.2432C180.842 25.2432 178.621 25.433 176.845 25.433C175.323 25.433 174.879 25.3065 173.103 25.3065C171.961 25.3065 171.771 25.6242 171.771 26.1955C171.771 26.7662 171.834 26.8297 173.103 26.8297C174.244 26.8297 174.689 27.1474 176.275 30.9527C179.764 39.2 184.838 50.9359 184.838 51.6339C184.838 53.5366 179.384 61.0218 177.1 63.876C174.943 66.6045 171.961 66.9852 171.961 67.3658C171.961 67.6831 172.595 68 173.674 68C175.069 68 175.513 67.4928 177.416 67.2394C178.812 67.0488 179.573 66.9851 180.271 65.5898C182.301 61.4025 185.156 56.2637 189.153 46.558C194.164 34.3792 196.956 26.7661 198.351 26.7661C199.113 26.7661 200 26.4487 200 25.878C200 25.1794 199.683 25.1161 198.668 25.1161ZM49.2903 25.9418C52.2089 25.9418 55.9511 30.6354 55.9511 32.2214C55.9511 32.602 55.8884 32.7289 55.1904 32.8556C50.4325 33.6169 47.0068 34.4429 43.7081 34.4429C42.9462 34.4429 42.9465 34.3789 42.9465 34.0616C42.9465 33.1724 44.4696 25.9418 49.2903 25.9418ZM123.259 25.9418C126.178 25.9418 129.921 30.6354 129.921 32.2214C129.921 32.602 129.857 32.7289 129.159 32.8556C124.401 33.6169 120.976 34.4429 117.678 34.4429C116.917 34.4429 116.916 34.3789 116.916 34.0616C116.916 33.1724 118.438 25.9418 123.259 25.9418ZM159.849 25.9418C162.767 25.9418 166.511 30.6354 166.511 32.2214C166.511 32.602 166.447 32.7289 165.749 32.8556C160.991 33.6169 157.566 34.4429 154.267 34.4429C153.506 34.4429 153.506 34.3789 153.506 34.0616C153.506 33.1724 155.027 25.9418 159.849 25.9418ZM15.5389 28.5446C23.4882 28.5446 28.8849 33.6503 28.8849 40.2148C28.8849 46.5599 24.8012 50.3536 19.2584 50.3536C16.924 50.3536 14.5911 49.8426 13.7881 48.967C13.1323 48.2373 12.9129 44.1535 12.9129 43.4966V30.4404C12.9129 28.8363 13.4965 28.5446 15.5389 28.5446ZM51.7056 58.3182C50.207 58.3182 48.9572 59.2222 48.9572 60.7203C48.9572 63.5673 52.7083 63.0597 52.7083 64.6446C52.7083 65.2757 52.2252 65.8203 51.2474 65.8203C50.5911 65.8203 49.762 65.5117 49.0681 65.0413L48.4495 66.131C49.1428 66.6131 50.0832 67.0722 51.2475 67.0722C52.8693 67.0722 54.2187 66.0308 54.2187 64.595C54.2187 61.7099 50.4676 62.5776 50.4676 60.658C50.4676 60.0269 50.8886 59.5692 51.7057 59.5692C52.4359 59.5692 53.005 59.8169 53.6367 60.1383L54.1691 59.0734C53.4518 58.6282 52.5966 58.3182 51.7056 58.3182ZM81.6106 58.3182C79.0603 58.3182 77.9219 60.1386 77.9219 62.6888C77.9219 65.1153 79.0481 67.0722 81.6106 67.0722C84.1731 67.0722 85.3002 65.1153 85.3002 62.6888C85.3002 60.1386 84.1608 58.3182 81.6106 58.3182ZM101.49 58.3182C98.9403 58.3182 97.6891 60.1508 97.6891 62.7016C97.6891 65.3011 98.8292 67.0722 101.441 67.0722C102.58 67.0722 103.645 66.6008 104.511 65.8085L103.756 64.8434C103.063 65.4751 102.271 65.8204 101.515 65.8204C99.9427 65.8204 99.1993 64.6948 99.1993 62.6888C99.1993 60.6958 99.9925 59.5692 101.49 59.5692C102.295 59.5692 102.889 59.8543 103.545 60.3986L104.313 59.4079C103.422 58.6771 102.543 58.3182 101.49 58.3182ZM133.723 58.3182C131.172 58.3182 130.034 60.1386 130.034 62.6888C130.034 65.1153 131.16 67.0722 133.723 67.0722C136.285 67.0722 137.412 65.1153 137.412 62.6888C137.412 60.1386 136.273 58.3182 133.723 58.3182ZM15.255 58.4419L13.8308 58.5913V66.9357H15.3044V61.2408H15.3291L18.907 66.9357H20.2194V58.4547H18.7458V64.0268H18.7092L15.255 58.4419ZM34.1554 58.4419V66.9356H39.3059L39.4177 65.6847H35.629V63.2835H38.811V62.0325H35.629V59.6929H39.2069V58.4419H34.1554ZM87.1955 58.4419V66.9356H88.6683V63.2835H91.7889V62.0325H88.6683V59.6929H92.1471V58.4419H87.1955ZM109.972 58.4419L108.252 58.5785L105.268 66.9356H106.642L107.347 64.8919H110.764L111.47 66.9356H112.981L109.972 58.4419ZM124.132 58.4419V66.9356H125.605V63.2835H128.725V62.0325H125.605V59.6929H129.084V58.4419H124.132ZM147.329 58.4419L145.905 58.5913V66.9357H147.378V61.2408H147.403L150.98 66.9357H152.293V58.4547H150.82V64.0268H150.782L147.329 58.4419ZM161.526 58.4419L159.804 58.5785L156.82 66.9356H158.195L158.901 64.8919H162.317L163.023 66.9356H164.534L161.526 58.4419ZM5.50801 58.4547V63.9883C5.50801 65.8951 6.56001 67.0722 8.64043 67.0722C10.7074 67.0722 11.7601 65.8955 11.7601 63.9763V58.4547H10.2865V64.0753C10.2865 65.1282 9.84177 65.8203 8.64058 65.8203C7.42704 65.8203 6.98093 65.1276 6.98093 64.0625V58.4547H5.50801ZM22.318 58.4547V66.9356H23.7908V58.4547H22.318ZM25.2387 58.4547L28.1604 66.9356H29.7815L32.7161 58.4547H31.2671L29.6459 63.1965C29.6459 63.1965 29.4851 63.6787 29.064 65.1274H28.9897C28.5809 63.6787 28.4206 63.1837 28.4206 63.1837L26.7985 58.4547H25.2387ZM41.3672 58.4547V66.9356H42.84V63.5429H43.5457C44.0782 63.5429 44.3878 64.039 44.6353 64.5464L45.8111 66.9356H47.4332L45.8111 63.8774C45.7125 63.6792 45.5636 63.4558 45.2915 63.2945V63.2707C46.4053 62.8496 46.8888 61.9833 46.8888 60.9686C46.8888 59.4952 45.9598 58.4547 44.09 58.4547H41.3672ZM55.973 58.4547V66.9356H57.4458V58.4547H55.973ZM59.1412 58.4547V59.7176H61.3828V66.9356H62.8556V59.7047H64.9974L65.1092 58.4547H59.1412ZM66.0733 58.4547L68.7476 63.3073V66.9356H70.2203V63.3073L72.8955 58.4547H71.2725L70.072 60.8696C70.072 60.8696 69.9234 61.1782 69.5029 62.1196H69.4662C69.0199 61.1782 68.8587 60.8696 68.8587 60.8696L67.7323 58.4547H66.0733ZM114.175 58.4547V66.9356H119.189L119.301 65.6847H115.648V58.4547H114.175ZM120.735 58.4547V66.9356H122.208V58.4547H120.735ZM138.683 58.4547V66.9356H140.156V63.5429H140.862C141.394 63.5429 141.704 64.039 141.952 64.5464L143.128 66.9356H144.75L143.128 63.8774C143.029 63.6792 142.88 63.4558 142.608 63.2945V63.2707C143.722 62.8496 144.205 61.9833 144.205 60.9686C144.205 59.4952 143.276 58.4547 141.406 58.4547H138.683ZM154.144 58.4547V66.9356H155.617V58.4547H154.144ZM81.6085 59.5691C83.0695 59.5691 83.775 60.8441 83.775 62.6888C83.775 64.5334 83.0578 65.8203 81.6085 65.8203C80.148 65.8203 79.4301 64.5328 79.4301 62.6759C79.4301 60.8312 80.148 59.5691 81.6085 59.5691ZM133.72 59.5691C135.181 59.5691 135.886 60.8441 135.886 62.6888C135.886 64.5334 135.168 65.8203 133.72 65.8203C132.258 65.8203 131.541 64.5328 131.541 62.6759C131.541 60.8312 132.259 59.5691 133.72 59.5691ZM42.8398 59.7176H44.0533C45.0563 59.7176 45.3785 60.1881 45.3785 60.9805C45.3785 61.7852 44.9696 62.3048 44.078 62.3048H42.8398V59.7176ZM140.156 59.7176H141.37C142.373 59.7176 142.695 60.1881 142.695 60.9805C142.695 61.7852 142.286 62.3048 141.394 62.3048H140.156V59.7176ZM109.025 59.9403H109.05C109.632 61.6981 109.731 61.9703 109.731 61.9703L110.387 63.8399H107.7L108.356 61.9703C108.356 61.9703 108.456 61.6982 109.025 59.9403ZM160.579 59.9403H160.604C161.186 61.6981 161.286 61.9703 161.286 61.9703L161.941 63.8399H159.254L159.911 61.9703C159.911 61.9703 160.01 61.6982 160.579 59.9403Z" fill="white"></path></g><defs><clipPath id="clip0_1172_1643"><rect width="200" height="74" fill="white"></rect></clipPath></defs></svg> 