<?xml version="1.0" encoding="UTF-8"?> <svg xmlns="http://www.w3.org/2000/svg" width="39" height="39" viewBox="0 0 39 39" fill="none"><rect width="39" height="39" fill="url(#paint0_radial_184_3)"></rect><path d="M7.63372 28.4054V9.78161C5.21273 12.1914 4 15.2866 4 19.0713C4 22.8558 5.2119 25.9666 7.63372 28.4054Z" fill="white"></path><path d="M29.7005 15.6575H34.1767C33.8466 14.143 33.1982 12.8721 32.231 11.8449C31.2638 10.818 30.1652 10.0869 28.9358 9.65181C28.506 9.49985 28.0626 9.37613 27.6074 9.27736V13.4786C27.7029 13.5275 27.7975 13.5781 27.8899 13.6331C28.7222 14.1279 29.3256 14.8027 29.7005 15.6575Z" fill="white"></path><path d="M18.0927 18.5365V21.5732H23.2214C22.9508 22.7537 22.3765 23.6518 21.4985 24.2648C21.4519 24.2981 21.4038 24.33 21.3546 24.3621C20.3952 24.9777 19.3079 25.2841 18.0927 25.2841C17.4344 25.2841 16.8175 25.2002 16.2445 25.0324C15.3052 24.7565 14.4816 24.2567 13.7741 23.5306C12.6349 22.3606 12.0646 20.8763 12.0646 19.0761C12.0646 17.2626 12.6308 15.7782 13.7634 14.6229C14.4644 13.9061 15.2918 13.413 16.2458 13.1413C16.8296 12.9733 17.4597 12.8907 18.1379 12.8907C19.2319 12.8907 20.1967 13.1387 21.0282 13.6329C21.1787 13.7222 21.3212 13.8169 21.4572 13.9181C22.0714 14.3765 22.5325 14.9574 22.8389 15.6569H27.3148C27.1002 14.6723 26.7511 13.7914 26.2661 13.0133C26.0076 12.5936 25.7078 12.2033 25.3694 11.8448C24.4019 10.8174 23.304 10.0872 22.0741 9.65145C21.8742 9.58092 21.6704 9.51568 21.4653 9.45687C20.4071 9.15179 19.276 8.99999 18.07 8.99999C14.9667 8.99999 12.4509 9.93671 10.5243 11.8115C8.59751 13.6862 7.63403 16.1074 7.63403 19.0761C7.63403 22.0156 8.57884 24.43 10.4683 26.3194C12.3578 28.2089 14.7269 29.1537 17.5757 29.1537C18.8295 29.1537 19.9488 28.9683 20.9335 28.5967C21.2786 28.4674 21.6065 28.3154 21.9168 28.141C23.116 27.4667 24.0608 26.5739 24.7511 25.464L24.7964 29.1482C25.829 29.1177 26.7671 28.9565 27.6078 28.6659V18.5365H18.0927Z" fill="white"></path><path d="M34.4688 18.5365V29.1537H31.6574L31.612 25.464C30.9232 26.5739 29.9784 27.4667 28.7779 28.141C28.4128 28.3474 28.0197 28.5181 27.6079 28.6606V24.6992C27.8159 24.5979 28.0197 24.4886 28.2156 24.3621C29.1749 23.7478 29.7985 22.8177 30.0824 21.5732H27.6079V18.5365H34.4688Z" fill="white"></path><defs><radialGradient id="paint0_radial_184_3" cx="0" cy="0" r="1" gradientUnits="userSpaceOnUse" gradientTransform="translate(19.5 19.5) rotate(90) scale(19.5)"><stop stop-color="#3D6488"></stop><stop offset="1" stop-color="#1F3053"></stop></radialGradient></defs></svg> 