<?xml version="1.0" encoding="UTF-8"?> <svg xmlns="http://www.w3.org/2000/svg" width="264" height="86" viewBox="0 0 264 86" fill="none"><g clip-path="url(#clip0_2860_24)"><path d="M245.73 0H18.2699C8.17971 0 0 11.001 0 24.5714V61.4286C0 74.999 8.17971 86 18.2699 86H245.73C255.82 86 264 74.999 264 61.4286V24.5714C264 11.001 255.82 0 245.73 0Z" fill="white"></path><path d="M209.908 60V57.8455H212.078V60H209.908Z" fill="#12284C"></path><path d="M205.815 60V57.8455H207.985V60H205.815Z" fill="#12284C"></path><path d="M201.878 60V57.8455H204.048V60H201.878Z" fill="#12284C"></path><path d="M195.464 60.155C194.782 60.155 194.183 59.9949 193.666 59.6745C193.15 59.3438 192.747 58.8737 192.457 58.264C192.168 57.6544 192.023 56.9258 192.023 56.0785C192.023 55.2312 192.168 54.5079 192.457 53.9085C192.747 53.2989 193.15 52.8339 193.666 52.5135C194.183 52.1829 194.782 52.0175 195.464 52.0175C196.126 52.0175 196.704 52.1829 197.2 52.5135C197.707 52.8339 198.043 53.2679 198.208 53.8155H198.037L198.208 52.1725H200.068C200.037 52.4929 200.006 52.8184 199.975 53.149C199.954 53.4797 199.944 53.8052 199.944 54.1255V60H198.022L198.006 58.388H198.192C198.027 58.9254 197.691 59.3542 197.185 59.6745C196.679 59.9949 196.105 60.155 195.464 60.155ZM196.007 58.667C196.617 58.667 197.107 58.4552 197.479 58.0315C197.851 57.5975 198.037 56.9465 198.037 56.0785C198.037 55.2105 197.851 54.5647 197.479 54.141C197.107 53.7173 196.617 53.5055 196.007 53.5055C195.397 53.5055 194.906 53.7173 194.534 54.141C194.162 54.5647 193.976 55.2105 193.976 56.0785C193.976 56.9465 194.157 57.5975 194.519 58.0315C194.891 58.4552 195.387 58.667 196.007 58.667Z" fill="#12284C"></path><path d="M186.624 60V53.6915H183.942V52.1725H191.243V53.6915H188.546V60H186.624Z" fill="#12284C"></path><path d="M180.632 60.155C179.826 60.155 179.118 59.9897 178.508 59.659C177.909 59.3284 177.444 58.8582 177.113 58.2485C176.783 57.6285 176.617 56.8948 176.617 56.0475C176.617 55.2002 176.783 54.4769 177.113 53.8775C177.454 53.2782 177.924 52.8183 178.524 52.498C179.123 52.1777 179.826 52.0175 180.632 52.0175C181.148 52.0175 181.65 52.1002 182.135 52.2655C182.631 52.4205 183.034 52.6479 183.344 52.9475L182.755 54.296C182.476 54.0377 182.161 53.8465 181.81 53.7225C181.469 53.5882 181.133 53.521 180.802 53.521C180.11 53.521 179.567 53.738 179.175 54.172C178.792 54.606 178.601 55.2364 178.601 56.063C178.601 56.8897 178.792 57.5252 179.175 57.9695C179.567 58.4139 180.11 58.636 180.802 58.636C181.123 58.636 181.453 58.574 181.794 58.45C182.146 58.326 182.466 58.1348 182.755 57.8765L183.344 59.2095C183.024 59.5092 182.616 59.7417 182.12 59.907C181.634 60.0724 181.138 60.155 180.632 60.155Z" fill="#12284C"></path><path d="M167.499 60V52.1725H169.251V58.0935H168.786L173.234 52.1725H174.831V60H173.079V54.0635H173.56L169.096 60H167.499ZM171.157 51.4595C170.64 51.4595 170.186 51.3768 169.793 51.2115C169.4 51.0358 169.075 50.793 168.817 50.483C168.558 50.1627 168.372 49.7855 168.259 49.3515L169.251 49.0105C169.426 49.4858 169.669 49.8372 169.979 50.0645C170.289 50.2815 170.687 50.39 171.173 50.39C171.658 50.39 172.056 50.2815 172.366 50.0645C172.676 49.8475 172.929 49.5013 173.126 49.026L174.071 49.3515C173.854 50.0438 173.492 50.5708 172.986 50.9325C172.49 51.2838 171.88 51.4595 171.157 51.4595Z" fill="#12284C"></path><path d="M158.84 63.5185L158.391 61.984C158.876 61.8807 159.284 61.7618 159.615 61.6275C159.946 61.4932 160.22 61.3175 160.437 61.1005C160.654 60.8835 160.834 60.6045 160.979 60.2635L161.367 59.349L161.32 60.1085L157.91 52.1725H159.972L162.421 58.2795H161.971L164.436 52.1725H166.389L162.824 60.434C162.586 60.992 162.328 61.4518 162.049 61.8135C161.77 62.1855 161.47 62.48 161.15 62.697C160.829 62.9243 160.478 63.1 160.096 63.224C159.713 63.348 159.295 63.4462 158.84 63.5185Z" fill="#12284C"></path><path d="M149.349 60.217L148.744 58.698C149.085 58.574 149.369 58.4138 149.597 58.2175C149.834 58.0108 150.02 57.7525 150.155 57.4425C150.299 57.1222 150.403 56.7295 150.465 56.2645C150.527 55.7892 150.558 55.226 150.558 54.575V52.1725H156.789V60H154.867V53.6605H152.325V54.637C152.325 55.7633 152.221 56.7088 152.015 57.4735C151.808 58.2278 151.488 58.8272 151.054 59.2715C150.62 59.7158 150.051 60.031 149.349 60.217Z" fill="#12284C"></path><path d="M142.873 60.155C142.191 60.155 141.591 59.9949 141.075 59.6745C140.558 59.3438 140.155 58.8737 139.866 58.264C139.576 57.6544 139.432 56.9258 139.432 56.0785C139.432 55.2312 139.576 54.5079 139.866 53.9085C140.155 53.2989 140.558 52.8339 141.075 52.5135C141.591 52.1829 142.191 52.0175 142.873 52.0175C143.534 52.0175 144.113 52.1829 144.609 52.5135C145.115 52.8339 145.451 53.2679 145.616 53.8155H145.446L145.616 52.1725H147.476C147.445 52.4929 147.414 52.8184 147.383 53.149C147.362 53.4797 147.352 53.8052 147.352 54.1255V60H145.43L145.415 58.388H145.601C145.435 58.9254 145.099 59.3542 144.593 59.6745C144.087 59.9949 143.513 60.155 142.873 60.155ZM143.415 58.667C144.025 58.667 144.516 58.4552 144.888 58.0315C145.26 57.5975 145.446 56.9465 145.446 56.0785C145.446 55.2105 145.26 54.5647 144.888 54.141C144.516 53.7173 144.025 53.5055 143.415 53.5055C142.805 53.5055 142.315 53.7173 141.943 54.141C141.571 54.5647 141.385 55.2105 141.385 56.0785C141.385 56.9465 141.565 57.5975 141.927 58.0315C142.299 58.4552 142.795 58.667 143.415 58.667Z" fill="#12284C"></path><path d="M125.519 60L127.162 57.0705C127.368 56.7295 127.565 56.4505 127.751 56.2335C127.947 56.0062 128.159 55.8305 128.386 55.7065C128.613 55.5825 128.872 55.505 129.161 55.474L128.758 56.0785L125.86 52.1725H127.937L130.246 55.2415H131.223V52.1725H133.145V55.2415H134.106L136.4 52.1725H138.492L135.578 56.0785L135.175 55.474C135.464 55.505 135.723 55.5825 135.95 55.7065C136.177 55.8305 136.389 56.0062 136.586 56.2335C136.792 56.4505 136.994 56.7295 137.19 57.0705L138.833 60H136.772L135.439 57.644C135.304 57.4063 135.17 57.2203 135.036 57.086C134.901 56.9517 134.751 56.8587 134.586 56.807C134.421 56.7553 134.219 56.7295 133.982 56.7295H133.145V60H131.223V56.7295H130.37C130.132 56.7295 129.931 56.7553 129.766 56.807C129.6 56.8587 129.45 56.9517 129.316 57.086C129.192 57.2203 129.058 57.4063 128.913 57.644L127.58 60H125.519Z" fill="#12284C"></path><path d="M120.954 60.155C120.148 60.155 119.451 59.9897 118.862 59.659C118.273 59.3284 117.813 58.8582 117.482 58.2485C117.162 57.6389 117.002 56.9155 117.002 56.0785C117.002 55.2415 117.162 54.5234 117.482 53.924C117.813 53.3144 118.273 52.8442 118.862 52.5135C119.451 52.1829 120.148 52.0175 120.954 52.0175C121.76 52.0175 122.458 52.1829 123.047 52.5135C123.646 52.8442 124.106 53.3144 124.426 53.924C124.757 54.5234 124.922 55.2415 124.922 56.0785C124.922 56.9155 124.757 57.6389 124.426 58.2485C124.106 58.8582 123.646 59.3284 123.047 59.659C122.458 59.9897 121.76 60.155 120.954 60.155ZM120.954 58.667C121.564 58.667 122.05 58.4552 122.411 58.0315C122.773 57.5975 122.954 56.9465 122.954 56.0785C122.954 55.2105 122.773 54.5647 122.411 54.141C122.05 53.7173 121.564 53.5055 120.954 53.5055C120.345 53.5055 119.859 53.7173 119.497 54.141C119.136 54.5647 118.955 55.2105 118.955 56.0785C118.955 56.9465 119.136 57.5975 119.497 58.0315C119.859 58.4552 120.345 58.667 120.954 58.667Z" fill="#12284C"></path><path d="M107.885 60V52.1725H115.216V60H113.294V53.6605H109.807V60H107.885Z" fill="#12284C"></path><path d="M100.592 62.0615L99.8015 61.4415C100.132 61.1005 100.359 60.7802 100.483 60.4805C100.618 60.1912 100.685 59.8812 100.685 59.5505L101.103 60H99.6465V57.8455H101.816V59.2715C101.816 59.7985 101.723 60.279 101.537 60.713C101.362 61.1573 101.047 61.6068 100.592 62.0615Z" fill="#12284C"></path><path d="M94.9573 60.155C93.645 60.155 92.6168 59.7934 91.8728 59.07C91.1288 58.3467 90.7568 57.3547 90.7568 56.094C90.7568 55.2777 90.917 54.5647 91.2373 53.955C91.5577 53.3454 92.002 52.87 92.5703 52.529C93.149 52.188 93.8207 52.0175 94.5853 52.0175C95.3397 52.0175 95.97 52.1777 96.4763 52.498C96.9827 52.8183 97.365 53.2679 97.6233 53.8465C97.892 54.4252 98.0263 55.102 98.0263 55.877V56.3885H92.3223V55.3655H96.6468L96.3833 55.5825C96.3833 54.8592 96.2283 54.3064 95.9183 53.924C95.6187 53.5417 95.1795 53.3505 94.6008 53.3505C93.9602 53.3505 93.4642 53.5778 93.1128 54.0325C92.7718 54.4872 92.6013 55.1227 92.6013 55.939V56.1405C92.6013 56.9878 92.808 57.6234 93.2213 58.047C93.645 58.4604 94.2392 58.667 95.0038 58.667C95.4482 58.667 95.8615 58.6102 96.2438 58.4965C96.6365 58.3725 97.0085 58.1762 97.3598 57.9075L97.9333 59.2095C97.5613 59.5092 97.117 59.7417 96.6003 59.907C96.0837 60.0724 95.536 60.155 94.9573 60.155Z" fill="#12284C"></path><path d="M85.2782 60V53.6915H82.5967V52.1725H89.8972V53.6915H87.2002V60H85.2782Z" fill="#12284C"></path><path d="M73.96 60V52.1725H75.7115V58.0935H75.2465L79.695 52.1725H81.2915V60H79.54V54.0635H80.0205L75.5565 60H73.96Z" fill="#12284C"></path><path d="M66.6309 60V52.1725H72.5054V53.6915H68.5684V60H66.6309Z" fill="#12284C"></path><path d="M60.7347 60.155C59.9287 60.155 59.2312 59.9897 58.6422 59.659C58.0532 59.3284 57.5934 58.8582 57.2627 58.2485C56.9424 57.6389 56.7822 56.9155 56.7822 56.0785C56.7822 55.2415 56.9424 54.5234 57.2627 53.924C57.5934 53.3144 58.0532 52.8442 58.6422 52.5135C59.2312 52.1829 59.9287 52.0175 60.7347 52.0175C61.5407 52.0175 62.2382 52.1829 62.8272 52.5135C63.4266 52.8442 63.8864 53.3144 64.2067 53.924C64.5374 54.5234 64.7027 55.2415 64.7027 56.0785C64.7027 56.9155 64.5374 57.6389 64.2067 58.2485C63.8864 58.8582 63.4266 59.3284 62.8272 59.659C62.2382 59.9897 61.5407 60.155 60.7347 60.155ZM60.7347 58.667C61.3444 58.667 61.8301 58.4552 62.1917 58.0315C62.5534 57.5975 62.7342 56.9465 62.7342 56.0785C62.7342 55.2105 62.5534 54.5647 62.1917 54.141C61.8301 53.7173 61.3444 53.5055 60.7347 53.5055C60.1251 53.5055 59.6394 53.7173 59.2777 54.141C58.9161 54.5647 58.7352 55.2105 58.7352 56.0785C58.7352 56.9465 58.9161 57.5975 59.2777 58.0315C59.6394 58.4552 60.1251 58.667 60.7347 58.667Z" fill="#12284C"></path><path d="M46.2227 60V52.1725H47.8347L50.5317 56.8535L53.2287 52.1725H54.8407V60H53.1357V54.3425H53.4922L50.9812 58.729H50.0822L47.5712 54.3425H47.9277V60H46.2227Z" fill="#12284C"></path><path d="M40.3255 60.155C39.5195 60.155 38.822 59.9897 38.233 59.659C37.644 59.3284 37.1842 58.8582 36.8535 58.2485C36.5332 57.6389 36.373 56.9155 36.373 56.0785C36.373 55.2415 36.5332 54.5234 36.8535 53.924C37.1842 53.3144 37.644 52.8442 38.233 52.5135C38.822 52.1829 39.5195 52.0175 40.3255 52.0175C41.1315 52.0175 41.829 52.1829 42.418 52.5135C43.0174 52.8442 43.4772 53.3144 43.7975 53.924C44.1282 54.5234 44.2935 55.2415 44.2935 56.0785C44.2935 56.9155 44.1282 57.6389 43.7975 58.2485C43.4772 58.8582 43.0174 59.3284 42.418 59.659C41.829 59.9897 41.1315 60.155 40.3255 60.155ZM40.3255 58.667C40.9352 58.667 41.4209 58.4552 41.7825 58.0315C42.1442 57.5975 42.325 56.9465 42.325 56.0785C42.325 55.2105 42.1442 54.5647 41.7825 54.141C41.4209 53.7173 40.9352 53.5055 40.3255 53.5055C39.7159 53.5055 39.2302 53.7173 38.8685 54.141C38.5069 54.5647 38.326 55.2105 38.326 56.0785C38.326 56.9465 38.5069 57.5975 38.8685 58.0315C39.2302 58.4552 39.7159 58.667 40.3255 58.667Z" fill="#12284C"></path><path d="M27.1006 60V52.1725H34.4321V60H32.5101V53.6605H29.0226V60H27.1006Z" fill="#12284C"></path><path d="M216.772 43.0615L215.981 42.4415C216.312 42.1005 216.539 41.7802 216.663 41.4805C216.797 41.1912 216.865 40.8812 216.865 40.5505L217.283 41H215.826V38.8455H217.996V40.2715C217.996 40.7985 217.903 41.279 217.717 41.713C217.541 42.1573 217.226 42.6068 216.772 43.0615Z" fill="#12284C"></path><path d="M207.092 41V33.1725H209.014V35.792H211.075C212.119 35.792 212.904 36.0142 213.431 36.4585C213.958 36.8925 214.222 37.5228 214.222 38.3495C214.222 38.8868 214.098 39.357 213.85 39.76C213.602 40.1527 213.24 40.4575 212.765 40.6745C212.3 40.8915 211.737 41 211.075 41H207.092ZM209.014 39.729H210.812C211.339 39.729 211.742 39.6205 212.021 39.4035C212.3 39.1762 212.439 38.8352 212.439 38.3805C212.439 37.9258 212.3 37.5952 212.021 37.3885C211.752 37.1715 211.349 37.063 210.812 37.063H209.014V39.729Z" fill="#12284C"></path><path d="M201.026 41V34.6915H198.345V33.1725H205.645V34.6915H202.948V41H201.026Z" fill="#12284C"></path><path d="M189.598 41L190.791 38.9385C190.998 38.5872 191.251 38.3082 191.551 38.1015C191.861 37.8845 192.181 37.776 192.512 37.776H192.853L192.837 37.9465C191.917 37.9465 191.21 37.745 190.714 37.342C190.218 36.939 189.97 36.35 189.97 35.575C189.97 34.8103 190.223 34.2213 190.729 33.808C191.246 33.3843 192 33.1725 192.992 33.1725H196.883V41H195.116V38.241H194.232C193.912 38.241 193.628 38.3288 193.38 38.5045C193.142 38.6802 192.94 38.9075 192.775 39.1865L191.752 41H189.598ZM193.364 36.9855H195.116V34.428H193.364C192.837 34.428 192.439 34.5417 192.171 34.769C191.912 34.9963 191.783 35.3063 191.783 35.699C191.783 36.1123 191.912 36.4327 192.171 36.66C192.439 36.877 192.837 36.9855 193.364 36.9855Z" fill="#12284C"></path><path d="M180.419 41V33.1725H182.341V36.2415H185.875V33.1725H187.797V41H185.875V37.7295H182.341V41H180.419Z" fill="#12284C"></path><path d="M174.368 41.155C173.562 41.155 172.864 40.9897 172.275 40.659C171.686 40.3283 171.226 39.8582 170.896 39.2485C170.575 38.6388 170.415 37.9155 170.415 37.0785C170.415 36.2415 170.575 35.5233 170.896 34.924C171.226 34.3143 171.686 33.8442 172.275 33.5135C172.864 33.1828 173.562 33.0175 174.368 33.0175C175.174 33.0175 175.871 33.1828 176.46 33.5135C177.059 33.8442 177.519 34.3143 177.84 34.924C178.17 35.5233 178.336 36.2415 178.336 37.0785C178.336 37.9155 178.17 38.6388 177.84 39.2485C177.519 39.8582 177.059 40.3283 176.46 40.659C175.871 40.9897 175.174 41.155 174.368 41.155ZM174.368 39.667C174.977 39.667 175.463 39.4552 175.825 39.0315C176.186 38.5975 176.367 37.9465 176.367 37.0785C176.367 36.2105 176.186 35.5647 175.825 35.141C175.463 34.7173 174.977 34.5055 174.368 34.5055C173.758 34.5055 173.272 34.7173 172.911 35.141C172.549 35.5647 172.368 36.2105 172.368 37.0785C172.368 37.9465 172.549 38.5975 172.911 39.0315C173.272 39.4552 173.758 39.667 174.368 39.667Z" fill="#12284C"></path><path d="M160.987 41V33.1725H168.319V41H166.397V34.6605H162.909V41H160.987Z" fill="#12284C"></path><path d="M147.517 44.5185L147.067 42.984C147.553 42.8807 147.961 42.7618 148.292 42.6275C148.623 42.4932 148.896 42.3175 149.113 42.1005C149.33 41.8835 149.511 41.6045 149.656 41.2635L150.043 40.349L149.997 41.1085L146.587 33.1725H148.648L151.097 39.2795H150.648L153.112 33.1725H155.065L151.5 41.434C151.263 41.992 151.004 42.4518 150.725 42.8135C150.446 43.1855 150.147 43.48 149.826 43.697C149.506 43.9243 149.155 44.1 148.772 44.224C148.39 44.348 147.972 44.4462 147.517 44.5185Z" fill="#12284C"></path><path d="M140.126 41V33.1725H146V34.6915H142.063V41H140.126Z" fill="#12284C"></path><path d="M134.075 41.155C133.269 41.155 132.571 40.9897 131.982 40.659C131.393 40.3283 130.933 39.8582 130.603 39.2485C130.282 38.6388 130.122 37.9155 130.122 37.0785C130.122 36.2415 130.282 35.5233 130.603 34.924C130.933 34.3143 131.393 33.8442 131.982 33.5135C132.571 33.1828 133.269 33.0175 134.075 33.0175C134.881 33.0175 135.578 33.1828 136.167 33.5135C136.766 33.8442 137.226 34.3143 137.547 34.924C137.877 35.5233 138.043 36.2415 138.043 37.0785C138.043 37.9155 137.877 38.6388 137.547 39.2485C137.226 39.8582 136.766 40.3283 136.167 40.659C135.578 40.9897 134.881 41.155 134.075 41.155ZM134.075 39.667C134.684 39.667 135.17 39.4552 135.532 39.0315C135.893 38.5975 136.074 37.9465 136.074 37.0785C136.074 36.2105 135.893 35.5647 135.532 35.141C135.17 34.7173 134.684 34.5055 134.075 34.5055C133.465 34.5055 132.979 34.7173 132.618 35.141C132.256 35.5647 132.075 36.2105 132.075 37.0785C132.075 37.9465 132.256 38.5975 132.618 39.0315C132.979 39.4552 133.465 39.667 134.075 39.667Z" fill="#12284C"></path><path d="M119.407 41V33.1725H121.019L123.716 37.8535L126.413 33.1725H128.025V41H126.32V35.3425H126.677L124.166 39.729H123.267L120.756 35.3425H121.112V41H119.407Z" fill="#12284C"></path><path d="M109.798 41.155C108.486 41.155 107.458 40.7933 106.714 40.07C105.97 39.3467 105.598 38.3547 105.598 37.094C105.598 36.2777 105.758 35.5647 106.078 34.955C106.398 34.3453 106.843 33.87 107.411 33.529C107.99 33.188 108.661 33.0175 109.426 33.0175C110.18 33.0175 110.811 33.1777 111.317 33.498C111.823 33.8183 112.206 34.2678 112.464 34.8465C112.733 35.4252 112.867 36.102 112.867 36.877V37.3885H107.163V36.3655H111.488L111.224 36.5825C111.224 35.8592 111.069 35.3063 110.759 34.924C110.459 34.5417 110.02 34.3505 109.442 34.3505C108.801 34.3505 108.305 34.5778 107.954 35.0325C107.613 35.4872 107.442 36.1227 107.442 36.939V37.1405C107.442 37.9878 107.649 38.6233 108.062 39.047C108.486 39.4603 109.08 39.667 109.845 39.667C110.289 39.667 110.702 39.6102 111.085 39.4965C111.477 39.3725 111.849 39.1762 112.201 38.9075L112.774 40.2095C112.402 40.5092 111.958 40.7417 111.441 40.907C110.924 41.0723 110.377 41.155 109.798 41.155Z" fill="#12284C"></path><path d="M93.8115 41V30.0725H95.811V34.6295H101.407V30.0725H103.406V41H101.407V36.288H95.811V41H93.8115Z" fill="#12284C"></path><path d="M85.3418 37.7605L84.7373 30.0725H87.1243L86.5198 37.7605H85.3418ZM84.8458 41V38.8455H87.0158V41H84.8458Z" fill="#12284C"></path><path d="M79.0428 41V34.6915H76.3613V33.1725H83.6618V34.6915H80.9648V41H79.0428Z" fill="#12284C"></path><path d="M72.2454 41.155C70.9331 41.155 69.9049 40.7933 69.1609 40.07C68.4169 39.3467 68.0449 38.3547 68.0449 37.094C68.0449 36.2777 68.2051 35.5647 68.5254 34.955C68.8458 34.3453 69.2901 33.87 69.8584 33.529C70.4371 33.188 71.1088 33.0175 71.8734 33.0175C72.6278 33.0175 73.2581 33.1777 73.7644 33.498C74.2708 33.8183 74.6531 34.2678 74.9114 34.8465C75.1801 35.4252 75.3144 36.102 75.3144 36.877V37.3885H69.6104V36.3655H73.9349L73.6714 36.5825C73.6714 35.8592 73.5164 35.3063 73.2064 34.924C72.9068 34.5417 72.4676 34.3505 71.8889 34.3505C71.2483 34.3505 70.7523 34.5778 70.4009 35.0325C70.0599 35.4872 69.8894 36.1227 69.8894 36.939V37.1405C69.8894 37.9878 70.0961 38.6233 70.5094 39.047C70.9331 39.4603 71.5273 39.667 72.2919 39.667C72.7363 39.667 73.1496 39.6102 73.5319 39.4965C73.9246 39.3725 74.2966 39.1762 74.6479 38.9075L75.2214 40.2095C74.8494 40.5092 74.4051 40.7417 73.8884 40.907C73.3718 41.0723 72.8241 41.155 72.2454 41.155Z" fill="#12284C"></path><path d="M59.1777 41V33.1725H63.3472C64.3289 33.1725 65.0471 33.3533 65.5017 33.715C65.9564 34.0663 66.1837 34.5675 66.1837 35.2185C66.1837 35.7145 66.0184 36.1278 65.6877 36.4585C65.3571 36.7892 64.9179 36.9958 64.3702 37.0785V36.8615C65.0419 36.9028 65.5586 37.0992 65.9202 37.4505C66.2819 37.8018 66.4627 38.2565 66.4627 38.8145C66.4627 39.4862 66.2044 40.0183 65.6877 40.411C65.1711 40.8037 64.4374 41 63.4867 41H59.1777ZM60.9757 39.8065H63.2852C63.7399 39.8065 64.0861 39.7135 64.3237 39.5275C64.5717 39.3415 64.6957 39.0677 64.6957 38.706C64.6957 38.3443 64.5717 38.0705 64.3237 37.8845C64.0861 37.6985 63.7399 37.6055 63.2852 37.6055H60.9757V39.8065ZM60.9757 36.412H63.1147C63.5281 36.412 63.8484 36.3242 64.0757 36.1485C64.3031 35.9625 64.4167 35.7042 64.4167 35.3735C64.4167 35.0428 64.3031 34.7897 64.0757 34.614C63.8484 34.4383 63.5281 34.3505 63.1147 34.3505H60.9757V36.412Z" fill="#12284C"></path><path d="M49.3936 41V33.1725H51.1451V39.0935H50.6801L55.1286 33.1725H56.7251V41H54.9736V35.0635H55.4541L50.9901 41H49.3936Z" fill="#12284C"></path><path d="M39.3838 44.348V35.1255C39.3838 34.8052 39.3734 34.4797 39.3528 34.149C39.3321 33.8183 39.3011 33.4928 39.2598 33.1725H41.1353L41.3058 34.8155H41.1353C41.2903 34.2678 41.6158 33.8338 42.1118 33.5135C42.6181 33.1828 43.2019 33.0175 43.8633 33.0175C44.5556 33.0175 45.1601 33.1828 45.6768 33.5135C46.1934 33.8338 46.5964 34.2988 46.8858 34.9085C47.1751 35.5078 47.3198 36.2312 47.3198 37.0785C47.3198 37.9258 47.1751 38.6543 46.8858 39.264C46.5964 39.8737 46.1934 40.3438 45.6768 40.6745C45.1601 40.9948 44.5556 41.155 43.8633 41.155C43.2123 41.155 42.6388 40.9948 42.1428 40.6745C41.6468 40.3542 41.3161 39.9253 41.1508 39.388H41.3213V44.348H39.3838ZM43.3208 39.667C43.9408 39.667 44.4368 39.4552 44.8088 39.0315C45.1808 38.5975 45.3668 37.9465 45.3668 37.0785C45.3668 36.2105 45.1808 35.5647 44.8088 35.141C44.4368 34.7173 43.9408 34.5055 43.3208 34.5055C42.7111 34.5055 42.2203 34.7173 41.8483 35.141C41.4763 35.5647 41.2903 36.2105 41.2903 37.0785C41.2903 37.9465 41.4763 38.5975 41.8483 39.0315C42.2203 39.4552 42.7111 39.667 43.3208 39.667Z" fill="#12284C"></path><path d="M27.209 41V30.0725H36.7725V41H34.7885V31.7H29.1775V41H27.209Z" fill="#12284C"></path></g><defs><clipPath id="clip0_2860_24"><rect width="264" height="86" fill="white"></rect></clipPath></defs></svg> 