<?xml version="1.0" encoding="UTF-8"?> <svg xmlns="http://www.w3.org/2000/svg" viewBox="0 0 38.99 39.99" data-guides="{&quot;vertical&quot;:[],&quot;horizontal&quot;:[]}"><defs></defs><path fill="#ffffff" stroke="none" fill-opacity="1" stroke-width="1" stroke-opacity="1" id="tSvgaf4decf7e5" title="Path 1" d="M19.9234 1.0032C19.9202 1.0032 19.9171 1.0032 19.9139 1.0032C9.4415 1.0032 0.9255 9.5217 0.9255 19.9964C0.9255 24.1512 2.2645 28.002 4.5413 31.1288C3.7523 33.4808 2.9633 35.8328 2.1743 38.1848C4.6078 37.4068 7.0413 36.6289 9.4748 35.851C12.4781 37.8405 16.0607 38.9896 19.9234 38.9896C30.3958 38.9896 38.9118 30.4688 38.9118 19.9964C38.9118 9.524 30.3958 1.0032 19.9234 1.0032ZM30.9751 27.824C30.5168 29.1179 28.6983 30.191 27.2476 30.5044C26.2552 30.7157 24.9589 30.8843 20.5953 29.0751C15.0137 26.7627 11.4192 21.0908 11.139 20.7229C10.8707 20.3549 8.8836 17.7196 8.8836 14.994C8.8836 12.2685 10.2677 10.9414 10.8256 10.3716C11.2839 9.9039 12.0412 9.6902 12.7678 9.6902C13.0028 9.6902 13.2141 9.7021 13.404 9.7116C13.9619 9.7353 14.242 9.7686 14.61 10.6494C15.0682 11.7534 16.1841 14.4789 16.3171 14.759C16.4523 15.0392 16.5877 15.4191 16.3978 15.787C16.2197 16.1669 16.063 16.3354 15.7829 16.6583C15.5027 16.9812 15.2368 17.2281 14.9567 17.5748C14.7003 17.8763 14.4106 18.1992 14.7335 18.7571C15.0563 19.3032 16.1722 21.1241 17.8152 22.5866C19.9353 24.474 21.6542 25.077 22.2691 25.3334C22.7273 25.5234 23.2733 25.4783 23.6081 25.1222C24.033 24.664 24.5578 23.9042 25.0919 23.1564C25.4717 22.6198 25.9514 22.5533 26.4547 22.7433C26.9675 22.9213 29.6811 24.2627 30.239 24.5405C30.797 24.8206 31.165 24.9536 31.3004 25.1887C31.4333 25.4237 31.4333 26.5277 30.9751 27.824Z"></path></svg> 