<?xml version="1.0" encoding="UTF-8"?> <svg xmlns="http://www.w3.org/2000/svg" width="235" height="52" viewBox="0 0 235 52" fill="none"><mask id="mask0_3114_606" style="mask-type:luminance" maskUnits="userSpaceOnUse" x="10" y="14" width="215" height="24"><path d="M224.798 14.5518H10.1892V37.466H224.798V14.5518Z" fill="white"></path></mask><g mask="url(#mask0_3114_606)"><path d="M10.1892 20.7226C10.1892 20.6106 10.2313 20.5026 10.3074 20.4196C10.3836 20.3365 10.4882 20.2844 10.6011 20.2732C10.6874 20.2502 10.7792 20.2592 10.8592 20.2987C10.9392 20.3382 11.0016 20.4053 11.0347 20.4872C11.0864 20.5787 11.1043 20.6851 11.0854 20.7881C11.0664 20.8912 11.0117 20.9845 10.9306 21.0522C10.8605 21.1204 10.768 21.1616 10.6697 21.1683C10.5715 21.1749 10.4741 21.1467 10.3952 21.0886C10.332 21.0501 10.2798 20.9962 10.2438 20.9321C10.2077 20.8681 10.1889 20.7959 10.1892 20.7226Z" fill="white"></path><path d="M26.8276 16.4582C29.4963 16.4582 32.1671 16.4731 34.8488 16.4453C35.4385 16.4453 35.6726 16.5801 35.6683 17.1964C35.6531 18.6109 35.7008 20.0254 35.7398 21.44C35.7528 21.8872 35.7571 22.2724 35.174 22.3944C34.5496 22.5249 34.5865 22.0477 34.4499 21.716C34.1731 20.9875 33.8013 20.2977 33.3443 19.6637C32.5422 18.6173 31.5059 17.9754 30.1596 17.8919C29.622 17.8555 29.0757 17.8577 28.538 17.8577C26.0862 17.8577 26.0732 17.8577 26.0233 20.2287C25.9886 21.9621 26.0233 23.6976 25.9691 25.4288C25.9517 26.0344 26.1382 26.2719 26.7604 26.1735C27.0821 26.1341 27.4055 26.112 27.7294 26.1071C29.5982 26.0066 30.1011 25.6449 30.6929 23.9094C30.8078 23.5735 30.797 23.2118 31.3433 23.2675C31.9677 23.321 31.7335 23.7703 31.7379 24.0614C31.7574 25.9017 31.753 27.742 31.7379 29.5824C31.7379 29.8648 31.8723 30.2479 31.3325 30.2735C30.8989 30.2928 30.8382 30.036 30.7211 29.7065C29.9819 27.62 28.6161 26.8946 26.3506 27.2884C25.9019 27.3675 25.9539 27.6115 25.9626 27.8833C26.019 29.8263 25.9452 31.7758 26.1989 33.7124C26.4157 35.2895 26.949 35.8266 28.5944 36.0428C28.963 36.0898 29.3402 36.0727 29.3077 36.6056C29.2751 37.1384 28.8936 37.0036 28.5922 37.0036C25.3072 37.0036 22.0235 37.0036 18.7414 37.0036C18.4552 37.0036 18.1409 37.0592 18.091 36.6377C18.0412 36.2161 18.2688 36.1091 18.6482 36.0299C20.4649 35.6576 20.9006 35.174 21.0329 33.3443C21.37 28.8974 21.37 24.4318 21.0329 19.9847C20.8963 18.1508 20.4757 17.6972 18.6178 17.3334C18.284 17.267 18.0867 17.1943 18.091 16.8262C18.091 16.3597 18.4444 16.4624 18.7067 16.4603C21.4108 16.456 24.1177 16.4553 26.8276 16.4582Z" fill="white"></path><path d="M104.001 24.6686C104.027 25.1265 104.035 25.5866 104.087 26.0424C104.126 26.3741 103.927 26.4597 103.68 26.5624C103.276 26.7272 103.281 26.3891 103.198 26.1901C102.961 25.5228 102.63 24.8911 102.216 24.3133C101.948 23.9342 101.595 23.6198 101.186 23.3938C100.777 23.1678 100.321 23.0358 99.8533 23.008C98.6762 22.9374 97.9022 23.3868 97.5597 24.3519C97.2172 25.317 97.5033 26.2307 98.4377 26.8513C99.3049 27.4269 100.285 27.7907 101.256 28.1631C104.245 29.3122 105.158 30.6175 104.798 33.1876C104.495 35.3553 102.57 36.9924 99.914 37.2534C97.9001 37.4484 95.867 37.2498 93.9306 36.6692C93.3453 36.498 93.1177 36.2412 93.1437 35.6335C93.1805 34.7519 93.1133 33.8659 93.1177 32.9821C93.1177 32.6291 92.9161 32.1583 93.5101 32.0363C94.1041 31.9143 94.0195 32.4643 94.1366 32.7189C94.498 33.6047 95.0419 34.4063 95.7343 35.0729C96.6188 35.8775 97.6854 36.1193 98.8409 35.9545C99.7753 35.824 100.441 35.3125 100.649 34.3731C100.857 33.4337 100.649 32.6184 99.797 32.0384C99.1704 31.6105 98.4572 31.3601 97.7548 31.0905C97.1543 30.8572 96.5473 30.6368 95.9576 30.3757C94.3274 29.6567 93.4038 28.4327 93.4169 26.6566C93.4299 24.9296 94.219 23.5729 95.7864 22.7662C98.3185 21.463 100.935 21.7561 103.554 22.5308C103.909 22.6378 103.964 22.8625 103.957 23.1728C103.957 23.6671 103.957 24.1614 103.957 24.6557L104.001 24.6686Z" fill="white"></path><path d="M55.5089 25.0883C56.4953 23.4256 57.5706 22.1908 59.4112 21.9191C59.6577 21.8731 59.9083 21.8502 60.1591 21.8506C61.6398 21.9126 61.8154 22.1801 61.2777 23.5069C61.1867 23.7359 61.1 23.967 61.0067 24.1959C60.7531 24.8187 60.6534 25.604 60.2003 26.0149C59.6561 26.5071 59.0686 25.6211 58.4226 25.6318C57.9543 25.6318 57.4839 25.5633 57.02 25.604C55.8038 25.7174 55.4678 26.0726 55.4656 27.2774C55.4656 29.4687 55.4439 31.6621 55.5306 33.8512C55.6 35.5996 55.8341 35.7772 57.5489 36.1174C57.8373 36.1709 58.1299 36.1645 58.1126 36.5839C58.0953 37.0033 57.8329 37.0119 57.5251 37.0119H49.5169C49.2264 37.0119 48.9316 37.0461 48.9099 36.6139C48.8882 36.2266 49.1158 36.1153 49.4302 36.0917C50.5575 36.0147 50.8241 35.2358 50.9 34.3349C51.1352 31.4436 51.1352 28.5383 50.9 25.6468C50.8241 24.6817 50.5141 23.9178 49.3825 23.7979C49.1809 23.7765 48.9316 23.7551 48.9272 23.4577C48.9272 23.111 49.1874 23.1046 49.441 23.0554C51.2447 22.713 53.0441 22.3685 54.8434 22.0089C55.3572 21.9062 55.561 22.0368 55.5263 22.5889C55.4743 23.325 55.5089 24.0675 55.5089 25.0883Z" fill="white"></path><path d="M110.981 26.704C110.981 23.5926 111.005 20.4811 110.962 17.3696C110.962 16.6206 111.178 16.4302 111.924 16.4387C115.131 16.4794 118.341 16.4559 121.55 16.4559C122.003 16.4559 122.469 16.336 122.443 17.0978C122.417 17.8597 121.918 17.7056 121.482 17.7056C118.779 17.7056 116.074 17.7313 113.37 17.6927C112.657 17.6927 112.364 17.8083 112.388 18.5979C112.45 20.5752 112.45 22.5547 112.388 24.5363C112.364 25.3216 112.653 25.4522 113.368 25.4372C115.566 25.3944 117.767 25.4372 119.965 25.4179C120.461 25.4179 120.856 25.3687 120.847 26.0963C120.839 26.8239 120.414 26.6762 119.995 26.6762C117.76 26.6762 115.525 26.7062 113.29 26.6612C112.581 26.6484 112.379 26.8453 112.392 27.5429C112.436 29.9809 112.436 32.4197 112.392 34.8592C112.379 35.5654 112.592 35.7516 113.296 35.743C116.143 35.7045 118.992 35.7216 121.84 35.743C122.25 35.743 122.79 35.5183 122.796 36.3315C122.796 37.1019 122.328 36.9735 121.875 36.9735C118.523 36.9735 115.17 36.9564 111.818 36.9885C111.148 36.9885 110.962 36.7937 110.968 36.1475C110.996 32.9975 110.981 29.8497 110.981 26.704Z" fill="white"></path><path d="M150.235 34.4673C149.427 35.3232 148.739 35.9866 147.92 36.5087C144.551 38.6486 140.833 36.9367 140.525 33.0442C140.252 29.5882 140.478 26.1194 140.415 22.6549C140.415 22.1456 140.584 22.0001 141.095 21.9915C141.659 21.9808 141.835 22.1456 141.828 22.7063C141.802 25.4882 141.811 28.2936 141.828 31.0862C141.809 31.7215 141.845 32.3573 141.934 32.9864C142.466 35.9823 145.145 37.0737 147.744 35.3617C148.539 34.8126 149.26 34.1655 149.888 33.4358C150.211 33.0763 150.218 32.6804 150.218 32.2546C150.218 29.141 150.218 26.0296 150.218 22.9181C150.218 22.4195 150.12 21.9659 150.949 21.9808C151.742 21.9979 151.586 22.4516 151.586 22.8839C151.586 27.3064 151.586 31.729 151.586 36.1514C151.586 36.4745 151.824 36.9517 151.122 36.9924C150.42 37.033 150.378 36.6328 150.359 36.1364C150.339 35.6399 150.287 35.1584 150.235 34.4673Z" fill="white"></path><path d="M214.838 24.3797C215.634 23.5753 216.534 22.8787 217.516 22.3082C220.77 20.5214 224.061 22.0407 224.594 25.6358C224.984 28.2722 224.683 30.9342 224.754 33.5856C224.776 34.4416 224.739 35.2847 224.754 36.1342C224.77 36.6435 224.754 36.9902 224.045 36.9902C223.371 36.9902 223.298 36.6928 223.302 36.1492C223.321 33.3523 223.302 30.5576 223.302 27.7607C223.302 27.3007 223.302 26.8406 223.254 26.3826C222.992 23.1449 220.145 21.7947 217.362 23.6007C216.675 24.048 216.061 24.6172 215.411 25.1158C214.945 25.471 214.808 25.9119 214.812 26.4896C214.838 29.676 214.812 32.8602 214.828 36.0465C214.828 36.5515 214.914 37.0052 214.097 36.9859C213.28 36.9667 213.447 36.5109 213.447 36.07C213.447 31.6475 213.447 27.2249 213.447 22.8026C213.447 22.4687 213.243 22.0108 213.941 21.9894C214.539 21.9701 214.687 22.2205 214.698 22.7255C214.708 23.2305 214.791 23.7056 214.838 24.3797Z" fill="white"></path><path d="M161.894 37.358C158.426 37.2831 156.414 36.1062 155.174 33.7052C153.589 30.6323 154.075 26.2561 156.258 23.8273C158.582 21.2465 162.592 20.9191 165.194 23.089C165.48 23.3266 165.805 23.517 165.352 23.8937C165.077 24.1269 164.955 24.5827 164.446 24.1183C161.684 21.5932 157.292 22.9842 156.095 27.0115C155.562 28.7093 155.572 30.5283 156.125 32.2201C157.363 36.027 161.22 37.2853 164.58 35.002C164.938 34.7602 165.25 34.2016 165.749 34.9463C166.213 35.6375 165.582 35.7552 165.276 35.9692C164.053 36.8273 162.718 37.4094 161.894 37.358Z" fill="white"></path><path d="M184.922 28.8201C184.922 30.3031 184.893 31.7882 184.922 33.2712C184.98 35.6871 186.259 36.6266 188.607 35.9589C189.11 35.8177 189.455 35.6508 189.632 36.3419C189.817 37.0695 189.24 36.9497 188.891 37.0759C188.035 37.3689 187.114 37.4288 186.227 37.2493C184.763 36.9925 183.816 35.9653 183.625 34.3903C183.28 31.4694 183.551 28.5312 183.473 25.6038C183.473 25.3214 183.473 25.0389 183.473 24.7479C183.473 23.2499 183.473 23.2499 181.978 23.2243C181.904 23.2243 181.832 23.2243 181.761 23.2243C181.355 23.2542 181.067 23.1964 181.08 22.6722C181.091 22.2442 181.297 22.1693 181.665 22.1115C183.558 21.8226 183.556 21.8098 183.616 19.8775C183.632 19.3832 183.671 18.8889 183.655 18.3945C183.64 17.9002 183.742 17.6926 184.306 17.6819C184.869 17.6713 184.935 17.9387 184.924 18.3881C184.902 19.3768 184.945 20.3675 184.906 21.3562C184.887 21.8654 185.054 22.028 185.574 21.9981C186.545 21.9596 187.525 21.9852 188.492 21.9981C188.908 21.9981 189.348 21.8804 189.348 22.5823C189.348 23.2243 189.01 23.2371 188.531 23.2243C187.56 23.205 186.58 23.2542 185.613 23.205C185.021 23.1772 184.898 23.3976 184.906 23.9304C184.937 25.5546 184.917 27.181 184.917 28.8052L184.922 28.8201Z" fill="white"></path><path d="M194.09 29.5311C194.09 31.7181 194.09 33.9058 194.09 36.0942C194.09 36.5586 194.179 36.9887 193.42 36.9887C192.722 36.9887 192.698 36.6699 192.7 36.1499C192.713 31.7031 192.713 27.257 192.7 22.8118C192.7 22.2939 192.711 21.9772 193.418 21.9815C194.172 21.9815 194.092 22.3966 194.09 22.8631C194.087 25.0859 194.087 27.3084 194.09 29.5311Z" fill="white"></path><path d="M13.5017 32.5995C12.9272 32.5995 12.0167 32.7022 12.0167 32.2079C12.0167 31.8248 12.8969 31.9254 13.5754 31.919C13.8898 31.919 14.2258 31.9318 14.5445 31.919C15.0453 31.889 15.5244 31.7328 15.507 31.1508C15.4897 30.5687 15.1949 30.1151 14.5488 30.0808C13.8681 30.0359 13.1809 30.0808 12.4958 30.0637C12.2682 30.0637 11.9647 30.1557 11.9257 29.7705C11.8866 29.3853 12.1555 29.4025 12.4156 29.4025C13.4605 29.4025 14.5055 29.4025 15.5504 29.4025C15.9233 29.4025 16.3178 29.4923 15.7975 29.8989C15.5287 30.1129 15.6826 30.2113 15.7694 30.4018C16.4609 31.919 16.0317 32.5781 14.345 32.6102C14.0914 32.6038 13.8399 32.5995 13.5017 32.5995Z" fill="white"></path><path d="M16.1052 23.5757C16.1032 23.6951 16.0901 23.8141 16.0662 23.931C15.9643 24.314 15.9491 24.9496 15.4158 24.8019C14.8825 24.6542 15.4158 24.2305 15.4938 23.9459C15.6109 23.4623 15.6846 22.9658 15.16 22.7454C14.5096 22.4737 14.412 23.0728 14.2191 23.4709C14.1584 23.5971 14.1237 23.7362 14.063 23.8646C13.8289 24.3696 13.5297 24.7955 12.875 24.7719C12.6574 24.7674 12.447 24.6936 12.2755 24.5614C12.1039 24.4289 11.9804 24.2455 11.9233 24.0379C11.8218 23.7722 11.7844 23.4865 11.8141 23.2038C11.8438 22.9211 11.9399 22.6491 12.0946 22.4095C12.1813 22.2575 12.3114 22.2105 12.4393 22.3003C12.5022 22.3341 12.5511 22.3885 12.5773 22.4544C12.6035 22.5201 12.6053 22.5931 12.5823 22.6598C12.4805 22.9201 12.412 23.1918 12.3786 23.4687C12.3664 23.613 12.4089 23.7565 12.4978 23.8717C12.5867 23.9866 12.7157 24.0649 12.8598 24.0914C13.1482 24.1492 13.3238 23.9417 13.4387 23.7084C13.5536 23.4751 13.6338 23.2547 13.7292 23.0279C13.9936 22.4031 14.3427 21.8724 15.1578 22.0243C15.767 22.1377 16.1117 22.7133 16.1052 23.5757Z" fill="white"></path><path d="M16.0946 27.1382C16.1023 27.2458 16.0898 27.3539 16.0577 27.457C15.9558 27.808 15.906 28.4029 15.4507 28.2702C14.8806 28.1033 15.4507 27.7138 15.5092 27.4142C15.5981 26.9499 15.726 26.4384 15.1754 26.218C14.5445 25.9719 14.4058 26.5369 14.2107 26.9435C14.1196 27.1339 14.0568 27.3372 13.9592 27.5255C13.7316 27.9685 13.3999 28.2595 12.8514 28.2017C12.6342 28.1925 12.4261 28.1136 12.2586 27.9768C12.0911 27.8401 11.9734 27.653 11.9235 27.4442C11.7761 26.8814 11.7783 26.3165 12.1403 25.82C12.1773 25.7868 12.2218 25.7629 12.2701 25.7502C12.3184 25.7376 12.369 25.7365 12.4178 25.7472C12.4532 25.7528 12.4868 25.7663 12.516 25.7866C12.5453 25.8069 12.5694 25.8337 12.5866 25.8645C12.6037 25.8955 12.6135 25.93 12.615 25.9653C12.6166 26.0006 12.6099 26.0359 12.5956 26.0682C12.507 26.261 12.4344 26.4607 12.3788 26.6653C12.3116 27.0355 12.3571 27.3971 12.7929 27.5212C13.2286 27.6453 13.3739 27.3458 13.5083 27.0397C13.595 26.845 13.6752 26.6503 13.7532 26.4534C13.9939 25.85 14.3451 25.3578 15.0973 25.5033C15.8496 25.6488 16.1293 26.218 16.0946 27.1382Z" fill="white"></path><path d="M193.478 15.9824C194.278 16.068 194.751 16.4489 194.688 17.2835C194.632 18.0517 194.155 18.4069 193.402 18.3877C192.572 18.3663 192.156 17.8934 192.195 17.1037C192.234 16.3141 192.743 16.0102 193.478 15.9824Z" fill="white"></path><path d="M13.9177 21.1034H12.3005C12.2476 21.1113 12.1935 21.1069 12.1427 21.0905C12.0918 21.0741 12.0456 21.0461 12.0077 21.0089C11.9697 20.9716 11.9412 20.9262 11.9242 20.8761C11.9073 20.826 11.9025 20.7727 11.9103 20.7204C11.9001 20.6675 11.903 20.6131 11.9187 20.5616C11.9345 20.51 11.9626 20.4631 12.0007 20.4246C12.0388 20.3862 12.0858 20.3574 12.1376 20.3407C12.1894 20.324 12.2445 20.3199 12.2983 20.3288H15.6434C15.6964 20.3213 15.7504 20.3261 15.8013 20.3427C15.8521 20.3595 15.8983 20.3876 15.9361 20.425C15.974 20.4624 16.0025 20.5079 16.0194 20.5581C16.0364 20.6083 16.0412 20.6617 16.0336 20.714C16.0336 20.9793 15.9057 21.0927 15.6455 21.0927L13.9177 21.1034Z" fill="white"></path><path d="M76.4119 26.0675C75.5296 23.6729 73.7627 22.2413 71.0854 22.0893C69.8085 22.0187 68.6118 22.4018 67.4477 22.8747C67.2309 22.4938 67.3219 22.1364 67.3241 21.8047C67.3241 20.1056 67.3588 18.4087 67.3631 16.7117C67.3631 16.4464 67.5669 15.9713 66.9751 16.0805C65.0239 16.4357 63.088 16.8187 61.1477 17.1996C60.97 17.2339 60.803 17.3259 60.8074 17.5463C60.8043 17.5909 60.8106 17.6357 60.8256 17.6778C60.8406 17.72 60.8642 17.7588 60.8948 17.7917C60.9253 17.8247 60.9624 17.8512 61.0036 17.8698C61.0448 17.8883 61.0894 17.8983 61.1347 17.8994C62.8019 17.9935 62.7802 19.2197 62.8192 20.3582C62.9948 25.5196 63.0208 30.6811 62.8192 35.8426C62.7997 36.3562 62.8387 36.6986 63.4696 36.8077C65.5681 37.1822 67.6796 37.4796 69.8128 37.2635C72.3428 37.0089 74.4846 35.9603 75.7767 33.7391C76.4613 32.5904 76.8743 31.3036 76.9842 29.9752C77.0944 28.6467 76.8986 27.3107 76.4119 26.0675ZM70.912 34.8411C70.6249 35.3776 70.1681 35.8067 69.6112 36.063C68.2216 36.705 67.4563 36.3005 67.4303 34.8304C67.4 33.2084 67.3197 32.8189 67.3197 31.1926C67.2937 31.1926 67.3696 29.9578 67.3436 29.9578C67.3436 28.2288 67.3891 26.4976 67.3219 24.7685C67.2894 23.9554 67.6428 23.7371 68.3647 23.6857C69.8519 23.583 70.9965 24.1865 71.5732 25.6609C72.7959 28.8044 72.5075 31.8838 70.912 34.8411Z" fill="white"></path><path d="M48.6388 27.9301C48.2052 25.5762 47.1646 23.6503 44.858 22.6103C39.202 20.0425 33.496 23.646 33.5091 29.7576C33.5221 35.7836 39.1456 39.2053 44.6954 36.5604C47.7456 35.1052 49.326 31.6086 48.6388 27.9301ZM43.5941 33.969C43.4729 34.373 43.3155 34.7654 43.1237 35.1416C42.1893 36.8364 40.429 36.8536 39.4057 35.2015C38.8844 34.3175 38.5655 33.3315 38.4714 32.3127C38.2026 29.9202 38.1375 27.5321 38.7532 25.1739C38.854 24.8015 38.9995 24.4423 39.1868 24.1039C40.0539 22.5311 41.7883 22.4241 42.8375 23.8899C43.4879 24.8037 43.761 25.8758 43.9215 26.9607C44.0624 27.9708 44.0949 28.9958 44.1556 29.7619C44.0082 31.3304 44.0299 32.6786 43.5941 33.969Z" fill="white"></path><path d="M88.1034 22.2547C84.4721 21.2169 79.7244 22.5436 78.4497 27.6558C77.2877 32.3102 79.9217 36.5707 84.4114 37.2512C87.1083 37.6599 89.5645 37.1207 91.5438 35.1263C91.7433 34.9273 92.0034 34.7283 91.7606 34.4094C91.4896 34.0542 91.2707 34.373 91.0365 34.4886C86.8828 36.5386 83.0153 34.2382 82.8094 29.6246C82.7855 29.0853 82.9481 28.9548 83.4597 28.9633C84.793 28.9847 86.1262 28.9633 87.4617 28.9633C88.7971 28.9633 90.1282 28.9633 91.4614 28.9633C91.7758 28.9633 92.0771 29.0297 92.1443 28.5353C92.4608 26.0766 90.5249 22.9416 88.1034 22.2547ZM87.0194 27.7971C86.369 27.7971 85.7317 27.7971 85.0856 27.7971C82.8115 27.8548 82.4842 27.8762 83.1909 25.4646C83.4077 24.7156 83.6982 23.9966 84.2748 23.4338C85.142 22.5778 86.1848 22.6762 86.7658 23.7205C87.401 24.8611 87.466 26.1365 87.4963 27.4076C87.5029 27.7521 87.3012 27.7971 87.0151 27.7928L87.0194 27.7971Z" fill="white"></path><path d="M137.048 15.3885C137.048 14.8578 137.003 14.556 136.315 14.5518C135.58 14.5518 135.617 14.9305 135.619 15.4206C135.619 18.0248 135.619 20.6313 135.619 23.2505C135.205 23.3169 134.991 22.9616 134.702 22.784C131.119 20.5628 126.898 21.7804 125.151 25.5852C124.082 27.907 124.067 30.3165 124.717 32.7368C125.552 35.8632 127.778 37.4446 131.06 37.3205C132.873 37.2541 134.197 36.2291 135.687 35.0222C135.723 35.5593 135.765 35.8974 135.765 36.2377C135.765 36.6657 135.791 36.9738 136.38 36.9845C137.031 36.9845 137.031 36.6507 137.031 36.1799C137.035 29.2509 137.041 22.3203 137.048 15.3885ZM134.915 34.3396C133.805 35.1955 132.686 36.0087 131.201 36.1071C129.398 36.227 127.854 35.6364 126.985 34.0913C125.341 31.1746 125.224 28.1167 127.043 25.2471C129.016 22.1356 132.584 22.2041 135.325 24.5281C135.652 24.8062 135.593 25.1572 135.596 25.5039C135.596 26.7728 135.596 28.0439 135.596 29.3151C135.596 30.5155 135.559 31.716 135.609 32.9144C135.631 33.1913 135.579 33.4693 135.457 33.7196C135.335 33.9702 135.148 34.184 134.915 34.3396Z" fill="white"></path><path d="M179.01 27.4786C179.005 26.8424 178.947 26.2075 178.836 25.5805C178.424 23.1773 176.885 21.7457 174.472 21.6537C172.437 21.5745 170.59 22.255 168.879 23.3036C168.487 23.5454 168.569 23.7615 168.766 24.0547C168.964 24.3479 169.102 24.6582 169.577 24.3307C170.316 23.8251 171.127 23.4311 171.984 23.1623C175.166 22.1437 177.356 23.4833 177.605 26.5349C177.677 27.4101 177.429 27.6519 176.549 27.7589C174.121 28.0499 171.689 28.4265 169.595 29.8154C167.999 30.8853 167.574 32.4325 167.86 34.1915C168.142 35.8756 169.272 36.8771 170.93 37.2152C172.352 37.5353 173.844 37.3185 175.112 36.6075C175.918 36.1495 176.701 35.653 177.635 35.0881C177.681 35.5953 177.744 35.974 177.744 36.3528C177.744 36.7808 177.856 36.9948 178.355 36.9819C178.886 36.9819 179.023 36.7679 179.018 36.2865C179.01 33.3505 179.029 30.4145 179.01 27.4786ZM177.124 34.1123C175.294 34.9683 173.872 36.4662 171.654 36.0768C170.533 35.8777 169.714 35.3449 169.354 34.2642C169.151 33.7323 169.103 33.1547 169.214 32.597C169.326 32.0392 169.594 31.5234 169.987 31.1079C170.754 30.2519 171.806 29.8688 172.864 29.5414C174.175 29.1695 175.515 28.9027 176.87 28.7433C177.429 28.6619 177.657 28.7433 177.614 29.3424C177.57 29.9416 177.614 30.6114 177.614 31.247C177.614 31.3176 177.614 31.3882 177.614 31.4609C177.631 32.7984 177.744 33.8256 177.117 34.1187L177.124 34.1123Z" fill="white"></path><path d="M210.464 26.8557C209.653 23.8448 207.429 21.9552 204.372 21.6578C201.855 21.4117 199.247 22.869 198.068 25.3192C197.425 26.5924 197.083 27.9928 197.067 29.4154C197.051 30.8378 197.362 32.2453 197.977 33.5322C199.761 37.4226 204.801 38.5867 208.068 35.9096C210.136 34.217 210.789 31.9144 210.804 29.4706C210.786 28.5894 210.672 27.7127 210.464 26.8557ZM207.515 34.5722C207.024 35.1078 206.416 35.5264 205.737 35.7967C205.057 36.0667 204.325 36.1812 203.595 36.1316C202.864 36.0819 202.155 35.8694 201.52 35.5099C200.884 35.1506 200.34 34.6535 199.928 34.0565C198.141 31.587 198.089 27.6688 199.809 25.1373C201.948 21.9809 206.364 22.1414 208.278 25.4369C208.929 26.5775 209.321 28.054 209.328 29.7617C209.28 31.3794 208.868 33.147 207.515 34.5722Z" fill="white"></path><path d="M15.6089 36.276C15.2143 36.276 14.8176 36.276 14.423 36.276C14.0285 36.276 13.7402 36.3359 13.6773 35.9357C13.6344 35.7637 13.6562 35.582 13.7388 35.4245C13.8213 35.2672 13.9589 35.1446 14.126 35.0798C14.6095 34.8465 15.0561 34.5448 15.5352 34.3051C15.9406 34.104 16.1639 33.8493 15.9514 33.2822C15.4159 33.5818 14.9043 33.8386 14.4339 34.1382C13.9634 34.4378 13.6968 34.609 13.2827 33.9734C12.7906 33.2137 11.9386 33.1902 11.169 33.6375C10.3994 34.0847 10.1241 36.2567 10.5187 36.7917C10.5639 36.8435 10.6194 36.8854 10.6816 36.9152C10.7439 36.9449 10.8116 36.962 10.8807 36.965C12.4633 36.9779 14.0458 36.9757 15.6284 36.9757C15.8755 36.9757 16.0446 36.9008 16.036 36.6184C16.0273 36.3359 15.8495 36.276 15.6089 36.276ZM11.763 36.3017C11.2471 36.3231 10.9479 36.2546 11.0498 35.4778C11.1387 34.7951 11.117 34.0676 12.1034 34.1018C13.0898 34.1361 13.0334 34.87 13.105 35.5463C13.2242 36.5413 12.5413 36.3038 11.763 36.3017Z" fill="white"></path><path d="M15.9925 17.7993C15.7865 17.0139 15.6131 17.275 15.7757 17.0974C16.3979 16.3869 15.8061 16.4896 15.3768 16.4725C15.0538 16.4597 14.7264 16.4725 14.4056 16.4725C14.0847 16.4725 13.7552 16.4618 13.4344 16.4725C12.151 16.5239 11.7001 17.2279 11.9169 18.4262C11.9797 18.7965 11.9884 19.4406 12.5672 19.2822C12.784 19.2244 12.5304 18.7151 12.4675 18.4134C12.435 18.2776 12.4132 18.1395 12.4025 18.0004C12.3855 17.8018 12.4483 17.6046 12.5772 17.4513C12.7062 17.298 12.891 17.2009 13.0919 17.1808C13.4409 17.1188 13.4756 17.5467 13.5406 17.8014C13.6185 18.108 13.7133 18.4102 13.8246 18.7066C14.1021 19.4577 14.6246 19.8065 15.4137 19.5005C16.2591 19.1774 16.1724 18.4862 15.9925 17.7993ZM14.9281 18.9334C14.0956 18.8478 14.0847 18.0924 13.9352 17.5018C13.8116 17.0075 14.191 17.0995 14.4338 17.1081C15.3009 17.1295 15.4722 17.5788 15.5676 18.1523C15.637 18.576 15.392 18.9826 14.9281 18.9334Z" fill="white"></path></g></svg> 