<?xml version="1.0" encoding="UTF-8"?> <svg xmlns="http://www.w3.org/2000/svg" width="30" height="30" viewBox="0 0 30 30" fill="none"><circle cx="15" cy="15" r="15" fill="#52BEDA"></circle><path d="M13.2861 15C14.1494 15 14.7861 14.3633 14.7861 13.5C14.7861 12.6367 14.1494 12 13.2861 12C12.4229 12 11.7861 12.6367 11.7861 13.5C11.7861 14.3633 12.4221 15 13.2861 15Z" fill="white"></path><path d="M21 9H9C8.17275 9 7.5 9.63075 7.5 10.4062V19.5938C7.5 20.3693 8.17275 21 9 21H21C21.8273 21 22.5 20.3693 22.5 19.5938V10.4062C22.5 9.63075 21.8273 9 21 9ZM21 19.5L9 19.4918V10.5L21 10.5083V19.5Z" fill="white"></path><path d="M16.5 12.75H19.5V14.25H16.5V12.75ZM17.25 15.75H19.5V17.25H17.25V15.75ZM16.0725 17.652C16.0725 16.6215 14.8155 15.5625 13.2863 15.5625C11.757 15.5625 10.5 16.6215 10.5 17.652V18H16.0725V17.652Z" fill="white"></path></svg> 