<?xml version="1.0" encoding="UTF-8"?> <svg xmlns="http://www.w3.org/2000/svg" width="60" height="60" viewBox="0 0 60 60" fill="none"> <path fill-rule="evenodd" clip-rule="evenodd" d="M9 13.7004V30.5804L9.01996 30.6004C9.06155 30.6628 9.05991 30.73 9.05833 30.7953C9.05762 30.8242 9.05693 30.8528 9.06 30.8804C9.07209 30.982 9.08067 31.0848 9.08928 31.1878C9.11626 31.5109 9.14351 31.8372 9.27997 32.1404C10.07 33.8704 11.41 34.9204 13.27 35.2904C13.93 35.4204 14.03 35.5204 14.03 36.2104C14.03 36.6434 14.0278 37.0774 14.0255 37.5119C14.0211 38.3819 14.0166 39.2534 14.03 40.1204C14.05 41.1004 14.79 41.7404 15.75 41.6404C16.17 41.5904 16.48 41.3504 16.78 41.0904C18.8396 39.3307 20.8893 37.571 22.9389 35.8113L22.9391 35.8112L22.9393 35.811L22.94 35.8104C23.3 35.4904 23.69 35.3604 24.16 35.3604H35.12C38.1 35.3604 40.52 32.9504 40.52 29.9704C40.5238 27.971 40.5203 25.9701 40.5167 23.9689V23.9684V23.9679V23.9678V23.9676C40.511 20.7645 40.5054 17.5606 40.53 14.3604C40.54 11.9904 38.69 8.96039 35.19 9.00039C30.4231 9.05639 25.6611 9.0438 20.8971 9.03121C18.8552 9.02581 16.8131 9.02041 14.77 9.02041H14.7685C14.319 9.02041 13.8795 9.02041 13.43 9.05038C11.25 9.18038 9.40001 10.8704 9.07001 13.0204C9.0591 13.104 9.05877 13.1876 9.05844 13.2708C9.05785 13.4163 9.05728 13.5604 9 13.7004ZM22.05 21.9702C22.06 23.5602 23.1 24.7202 24.53 24.7102H24.52C26.09 24.7002 27.26 23.5802 27.26 22.0902C27.26 20.6202 26.08 19.4402 24.63 19.4602C23.23 19.4902 22.05 20.6402 22.05 21.9702ZM16.89 19.4704C18.38 19.5304 19.5 20.7303 19.44 22.1903C19.37 23.6503 18.17 24.7704 16.73 24.7204C15.3 24.6704 14.17 23.4403 14.23 21.9903C14.29 20.5403 15.48 19.4204 16.89 19.4704ZM35.09 22.1905C35.16 20.7305 34.04 19.5306 32.55 19.4706C31.14 19.4106 29.94 20.5305 29.88 21.9805C29.82 23.4205 30.95 24.6606 32.38 24.7106C33.82 24.7606 35.02 23.6505 35.09 22.1905Z" fill="#12284C"></path> <path d="M30.98 37.7602C32.77 37.7602 34.57 37.7602 36.36 37.7602C40.04 37.7602 42.92 34.8701 42.92 31.1801C42.92 29.2001 42.93 27.2101 42.92 25.2301C42.92 24.8101 43.05 24.6802 43.46 24.7102C44.41 24.7602 45.36 24.6501 46.31 24.7901C48.79 25.1401 50.74 27.3101 50.76 29.8101C50.78 33.3801 50.78 36.9602 50.76 40.5302C50.74 43.1502 48.66 45.3302 45.97 45.5802C45.63 45.6102 45.53 45.7201 45.54 46.0501C45.55 47.0701 45.54 48.0901 45.54 49.1101C45.54 49.7001 45.38 50.2202 44.81 50.5002C44.22 50.7902 43.72 50.6002 43.24 50.2002C41.49 48.7302 39.73 47.2802 37.99 45.8202C37.78 45.6502 37.57 45.6002 37.32 45.6002C34.86 45.6002 32.4 45.6002 29.94 45.6002C26.97 45.6002 24.68 43.3002 24.67 40.3202C24.67 39.6702 24.67 39.0201 24.67 38.3601C24.67 37.9668 24.8733 37.7702 25.28 37.7702C27.18 37.7702 29.08 37.7702 30.99 37.7702L30.98 37.7602Z" fill="#70D8C1"></path> </svg> 