<?xml version="1.0" encoding="UTF-8"?> <svg xmlns="http://www.w3.org/2000/svg" width="20" height="20" viewBox="0 0 20 20" fill="none"><g clip-path="url(#clip0_1328_94)"><path fill-rule="evenodd" clip-rule="evenodd" d="M10 0.25C4.61523 0.25 0.25 4.61523 0.25 10C0.25 15.3848 4.61523 19.75 10 19.75C15.3848 19.75 19.75 15.3848 19.75 10C19.75 4.61523 15.3848 0.25 10 0.25ZM13.5303 9.03033C13.8232 8.73744 13.8232 8.26256 13.5303 7.96967C13.2374 7.67678 12.7626 7.67678 12.4697 7.96967L9.25 11.1893L7.53033 9.46967C7.23744 9.17678 6.76256 9.17678 6.46967 9.46967C6.17678 9.76256 6.17678 10.2374 6.46967 10.5303L8.71967 12.7803C9.01256 13.0732 9.48744 13.0732 9.78033 12.7803L13.5303 9.03033Z" fill="white"></path></g><defs><clipPath id="clip0_1328_94"><rect width="20" height="20" fill="white"></rect></clipPath></defs></svg> 