<?xml version="1.0" encoding="UTF-8"?> <svg xmlns="http://www.w3.org/2000/svg" viewBox="0 0 156.99 26.99" data-guides="{&quot;vertical&quot;:[],&quot;horizontal&quot;:[]}"><defs></defs><path fill="#FABC03" stroke="none" fill-opacity="1" stroke-width="1" stroke-opacity="1" id="tSvg17480bf8474" title="Path 11" d="M142.9728 1.0001C143.9973 4.1825 145.0218 7.3649 146.0464 10.5473C149.362 10.5473 152.6775 10.5473 155.9932 10.5473C153.3108 12.5141 150.6284 14.4809 147.9461 16.4477C148.9703 19.6301 149.9945 22.8124 151.0188 25.9947C148.3368 24.0279 145.6547 22.0612 142.9728 20.0944C140.2906 22.0612 137.6084 24.0279 134.9261 25.9947C135.9506 22.8124 136.9752 19.6301 137.9997 16.4477C135.3174 14.4809 132.6352 12.5141 129.953 10.5473C133.2684 10.5473 136.5838 10.5473 139.8993 10.5473C140.9238 7.3649 141.9482 4.1825 142.9728 1.0001Z"></path><path fill="#FABC03" stroke="none" fill-opacity="1" stroke-width="1" stroke-opacity="1" id="tSvg41bed6a93c" title="Path 12" d="M110.7346 1.0001C111.8192 4.1825 112.904 7.3649 113.9888 10.5473C117.4992 10.5473 121.0096 10.5473 124.52 10.5473C121.68 12.5141 118.8401 14.4809 116.0001 16.4477C117.0849 19.6301 118.1697 22.8124 119.2545 25.9947C116.4145 24.0279 113.5745 22.0612 110.7346 20.0944C107.8946 22.0612 105.0546 24.0279 102.2146 25.9947C103.2994 22.8124 104.384 19.6301 105.4688 16.4477C102.6288 14.4809 99.7888 12.5141 96.9488 10.5473C100.4593 10.5473 103.9697 10.5473 107.4801 10.5473C108.5649 7.3649 109.6497 4.1825 110.7346 1.0001Z"></path><path fill="#FABC03" stroke="none" fill-opacity="1" stroke-width="1" stroke-opacity="1" id="tSvg11c576446ce" title="Path 13" d="M78.4962 1.0001C79.5208 4.1825 80.5453 7.3649 81.5698 10.5473C84.8853 10.5473 88.2007 10.5473 91.5161 10.5473C88.8338 12.5141 86.1516 14.4809 83.4694 16.4477C84.494 19.6301 85.5185 22.8124 86.5429 25.9947C83.8607 24.0279 81.1785 22.0612 78.4962 20.0944C75.8141 22.0612 73.132 24.0279 70.4498 25.9947C71.4742 22.8124 72.4987 19.6301 73.5232 16.4477C70.841 14.4809 68.1588 12.5141 65.4767 10.5473C68.792 10.5473 72.1074 10.5473 75.4228 10.5473C76.4473 7.3649 77.4718 4.1825 78.4962 1.0001Z"></path><path fill="#FABC03" stroke="none" fill-opacity="1" stroke-width="1" stroke-opacity="1" id="tSvg15f4d102b77" title="Path 14" d="M46.2577 1.0001C47.3425 4.1825 48.4273 7.3649 49.5121 10.5473C53.0226 10.5473 56.533 10.5473 60.0434 10.5473C57.2034 12.5141 54.3634 14.4809 51.5234 16.4477C52.6082 19.6301 53.6929 22.8124 54.7777 25.9947C51.9377 24.0279 49.0977 22.0612 46.2577 20.0944C43.4177 22.0612 40.5777 24.0279 37.7377 25.9947C38.8226 22.8124 39.9074 19.6301 40.9921 16.4477C38.1522 14.4809 35.3122 12.5141 32.4722 10.5473C35.9826 10.5473 39.4931 10.5473 43.0035 10.5473C44.0883 7.3649 45.1729 4.1825 46.2577 1.0001Z"></path><path fill="#FABC03" stroke="none" fill-opacity="1" stroke-width="1" stroke-opacity="1" id="tSvg80b49de1da" title="Path 15" d="M14.0196 1.0001C15.0442 4.1825 16.0686 7.3649 17.0932 10.5473C20.4085 10.5473 23.7239 10.5473 27.0393 10.5473C24.3571 12.5141 21.6748 14.4809 18.9926 16.4477C20.0171 19.6301 21.0416 22.8124 22.0662 25.9947C19.3839 24.0279 16.7018 22.0612 14.0196 20.0944C11.3373 22.0612 8.6552 24.0279 5.973 25.9947C6.9975 22.8124 8.022 19.6301 9.0465 16.4477C6.3643 14.4809 3.6821 12.5141 0.9999 10.5473C4.3152 10.5473 7.6306 10.5473 10.946 10.5473C11.9706 7.3649 12.9951 4.1825 14.0196 1.0001Z"></path></svg> 