<?xml version="1.0" encoding="UTF-8"?> <svg xmlns="http://www.w3.org/2000/svg" width="150" height="150" viewBox="0 0 150 150" fill="none"> <g clip-path="url(#clip0_174_2790)"> <mask id="mask0_174_2790" style="mask-type:luminance" maskUnits="userSpaceOnUse" x="3" y="56" width="144" height="38"> <path d="M3 56.2484H147V93.9199H3V56.2484Z" fill="white"></path> </mask> <g mask="url(#mask0_174_2790)"> <path d="M61.907 81.7602C61.907 81.4694 61.7175 81.2543 61.3301 81.1705V80.9823C61.5446 80.9823 62.2588 81.011 62.4598 81.011C62.6336 81.011 63.3253 80.9823 63.5405 80.9823V81.1705C63.1809 81.2406 62.9921 81.4528 62.9921 81.7602V85.4515C62.9921 86.6204 63.634 87.2812 64.9767 87.2812C66.1337 87.2812 67.0339 86.7617 67.0339 85.5384V81.7458C67.0339 81.4717 66.8616 81.2543 66.4282 81.1705V80.9823C66.5859 80.9823 67.1765 81.011 67.3782 81.011C67.5504 81.011 68.1703 80.9823 68.3288 80.9823V81.1705C67.9106 81.2702 67.7247 81.4573 67.7247 81.7458V85.335C67.7247 86.9459 66.7876 87.8711 64.7653 87.8711C62.8826 87.8711 61.907 87.0154 61.907 85.502V81.7602Z" fill="#6D80B0"></path> <path d="M69.9828 87.5819C70.4209 87.5003 70.5938 87.2784 70.5938 87.0065V81.9046C70.5938 81.4718 70.3634 81.2772 69.9707 81.1699V80.9818C70.1929 80.9984 70.5658 81.0081 70.7561 81.0081C70.9291 81.0081 71.1979 81.0052 71.3791 80.9818L75.8043 86.1849V81.746C75.8043 81.4725 75.6307 81.2551 75.1988 81.1699V80.9818C75.3574 80.9818 75.9268 81.0112 76.1291 81.0112C76.3051 81.0112 76.9152 80.9818 77.076 80.9818V81.1699C76.6539 81.2695 76.4502 81.4583 76.4502 81.746V87.8711H76.1835C76.0157 87.8326 75.6986 87.6522 75.2154 87.1221L71.2561 82.5102V87.0065C71.2561 87.2798 71.4138 87.4965 71.8459 87.5819V87.7707C71.6873 87.7707 71.1179 87.7406 70.9155 87.7406C70.7411 87.7406 70.1436 87.7707 69.9828 87.7707V87.5819Z" fill="#6D80B0"></path> <path d="M104.902 86.204H105.089C105.188 86.5853 105.406 86.9328 105.712 87.1337C106.03 87.3579 106.529 87.4651 106.932 87.4651C107.823 87.4651 108.387 87.0242 108.387 86.3263C108.387 85.6037 107.664 85.2284 106.798 84.7957C106.154 84.4732 104.888 83.941 104.888 82.7175C104.888 81.5778 105.757 80.8688 107.148 80.8688C108.065 80.8688 108.496 81.0931 109.115 81.0643L109.103 82.4471H108.914C108.666 81.6322 107.926 81.3483 107.116 81.3483C106.21 81.3483 105.871 81.8665 105.871 82.3935C105.871 83.148 106.609 83.5284 107.446 83.9016C108.387 84.3207 109.408 84.85 109.408 86.0289C109.408 87.1449 108.535 87.9531 106.939 87.9531C105.99 87.9531 105.42 87.682 104.921 87.6206L104.902 86.204Z" fill="#6D80B0"></path> <path d="M123.919 84.9629L122.117 82.0723C121.809 81.5648 121.574 81.2973 121.231 81.1706V80.9831C121.478 80.9831 122.145 81.0127 122.334 81.0127C122.506 81.0127 123.225 80.9831 123.485 80.9831V81.1706C123.255 81.2113 123.147 81.3267 123.147 81.5005C123.147 81.6538 123.251 81.851 123.356 82.0224C123.459 82.1922 124.685 84.2252 124.685 84.2252L125.964 82.0232C126.094 81.8026 126.185 81.5836 126.185 81.4393C126.185 81.3079 126.092 81.1991 125.874 81.1706V80.9831C126.09 80.9831 126.546 81.0127 126.691 81.0127C126.836 81.0127 127.359 80.9831 127.574 80.9831V81.1577C127.082 81.3594 126.775 81.7913 126.476 82.2919L124.838 85.0295M124.95 84.6843V86.9936C124.95 87.2224 125.125 87.5101 125.519 87.5825V87.7715C125.299 87.7715 124.582 87.7412 124.374 87.7412C124.2 87.7412 123.511 87.7715 123.263 87.7715V87.5825C123.659 87.5101 123.848 87.2224 123.848 86.9936V84.7856" fill="#6D80B0"></path> <path d="M90.4387 80.9816H94.6639C94.7945 80.9816 95.0234 80.9665 95.1539 80.9099H95.3429L95.3133 82.2827H95.126C94.9652 81.8508 94.7983 81.505 93.9805 81.505H92.1461V83.8974H93.56C93.7661 83.8974 94.016 83.8799 94.1241 83.8543C94.4419 83.7848 94.5818 83.608 94.6459 83.337H94.8346C94.8211 83.5438 94.8211 84.0159 94.8211 84.1556C94.8211 84.2961 94.8346 84.793 94.8346 85.018H94.6459C94.5551 84.7476 94.4314 84.5422 94.1241 84.4668C94.016 84.438 93.7616 84.4146 93.56 84.4146H92.1461V87.2209H94.1413C95.0128 87.2209 95.2659 86.8576 95.4825 86.3442L95.6691 86.3878L95.4825 87.7979C94.8346 87.7404 94.4458 87.7404 93.7101 87.7404H91.6018C91.3986 87.7404 90.6532 87.77 90.4365 87.77V87.5818C90.8171 87.5093 91.0393 87.3212 91.0393 86.9565V81.7663C91.0393 81.4446 90.8662 81.2436 90.4387 81.172V80.9816Z" fill="#6D80B0"></path> <path d="M79.6474 81.8048C79.6474 81.4567 79.4398 81.265 79.0327 81.1772V80.9908C79.2593 80.9908 79.9927 81.0194 80.2064 81.0194C80.3853 81.0194 81.1391 80.9908 81.3686 80.9908V81.1772C80.9637 81.265 80.7515 81.4384 80.7515 81.8048V86.9589C80.7515 87.3069 80.96 87.4964 81.3686 87.5825V87.7715C81.1398 87.7715 80.4169 87.7419 80.2064 87.7419C80.0242 87.7419 79.2593 87.7715 79.032 87.7715V87.5825C79.4481 87.5048 79.6474 87.3228 79.6474 86.9589V81.8048Z" fill="#6D80B0"></path> <path d="M111.699 81.8048C111.699 81.4567 111.489 81.265 111.083 81.1772V80.9908C111.309 80.9908 112.043 81.0194 112.255 81.0194C112.436 81.0194 113.189 80.9908 113.418 80.9908V81.1772C113.014 81.265 112.802 81.4384 112.802 81.8048V86.9589C112.802 87.3069 113.011 87.4964 113.418 87.5825V87.7715C113.191 87.7715 112.469 87.7419 112.255 87.7419C112.076 87.7419 111.309 87.7715 111.083 87.7715V87.5825C111.498 87.5048 111.699 87.3228 111.699 86.9589V81.8048Z" fill="#6D80B0"></path> <path d="M117.572 81.0118C115.255 81.0118 114.885 80.9687 114.411 80.9393L114.415 82.3379H114.604C114.777 81.7179 115.122 81.5737 115.569 81.5737H117.022V86.9589C117.022 87.3227 116.823 87.5048 116.406 87.5825V87.7715C116.634 87.7715 117.406 87.7419 117.584 87.7419C117.797 87.7419 118.522 87.7715 118.747 87.7715V87.5825C118.338 87.4964 118.13 87.3069 118.13 86.9589V81.5737H119.572C120.036 81.5737 120.367 81.7316 120.54 82.3379H120.727L120.73 80.9393C120.259 80.9687 119.888 81.0118 117.572 81.0118Z" fill="#6D80B0"></path> <path d="M99.0899 86.9572C99.0899 87.3053 99.3111 87.4941 99.7197 87.5808V87.7698C99.4931 87.7698 98.7523 87.7403 98.5409 87.7403C98.3595 87.7403 97.6362 87.7698 97.4082 87.7698V87.5808C97.7872 87.5085 98.0106 87.3212 98.0106 86.9572V81.7505C98.0106 81.4303 97.8363 81.2286 97.4097 81.1561V80.9688C97.6362 80.9688 98.3527 80.9974 98.5552 80.9974C98.8869 80.9974 99.8292 80.9416 100.2 80.9416C101.824 80.9416 102.727 81.613 102.727 82.7637C102.727 83.6684 102.055 84.2802 101.018 84.5301C101.018 84.5301 101.255 84.6675 101.491 84.9416C101.777 85.2791 102.55 86.3887 102.871 86.7766C103.191 87.1657 103.601 87.5998 104.041 87.6195V87.7712C103.83 87.8172 103.492 87.8574 103.234 87.8574C102.683 87.8574 102.243 87.6626 101.815 87.1454C101.445 86.6952 100.818 85.7611 100.448 85.289C100.212 84.9885 99.9258 84.7537 99.4017 84.6675C99.3005 84.6502 99.2047 84.6358 99.0899 84.6223V86.9572ZM99.0899 84.1902C99.3059 84.2197 99.6237 84.2333 99.9379 84.2333C101.209 84.2333 101.609 83.5023 101.609 82.8552C101.609 81.94 100.998 81.3728 99.8858 81.3728C99.6555 81.3728 99.3217 81.4015 99.0899 81.4452V84.1902Z" fill="#6D80B0"></path> <path d="M82.9968 81.8262C82.8489 81.4985 82.6215 81.2583 82.2341 81.1731V80.9819C82.475 80.9819 83.3095 81.0122 83.4928 81.0122C83.6615 81.0122 84.3908 80.9819 84.6387 80.9819V81.1677C84.4187 81.2099 84.1681 81.3315 84.1681 81.5566C84.1681 81.7174 84.2654 81.9365 84.4521 82.3489L86.201 86.3284L87.8563 82.342C87.987 82.0203 88.0814 81.7711 88.0814 81.5807C88.0814 81.3702 87.8873 81.2243 87.6123 81.1677V80.9819C87.8322 80.9819 88.3714 81.0122 88.539 81.0122C88.6922 81.0122 89.3251 80.9819 89.5668 80.9819V81.1731C89.1537 81.2848 88.9021 81.5121 88.6703 82.0506L86.2342 87.7949H85.6829L82.9968 81.8262Z" fill="#6D80B0"></path> <path d="M89.2422 63.7093C88.9607 63.0877 88.5286 62.6346 87.7969 62.4723V62.1105C88.2522 62.1105 89.764 62.1649 90.1114 62.1649C90.4316 62.1649 91.8959 62.1105 92.3625 62.1105V62.4632C91.9486 62.5441 91.4729 62.7752 91.4729 63.2018C91.4729 63.503 91.6602 63.9193 92.0076 64.6993L95.325 72.2411L98.4642 64.6865C98.709 64.0748 98.8916 63.6073 98.8916 63.2456C98.8916 62.8438 98.5201 62.5713 97.9998 62.4632V62.1105C98.4151 62.1105 99.4248 62.1649 99.7456 62.1649C100.037 62.1649 101.236 62.1105 101.693 62.1105V62.4519C100.91 62.6642 100.432 63.1135 99.9957 64.1336L95.381 75.0225H94.3366L89.2422 63.7093Z" fill="#6D80B0"></path> <path d="M44.572 74.6067C45.1746 74.4692 45.5983 74.1952 45.5983 73.5126V63.5299C45.5983 62.8745 45.204 62.6025 44.572 62.438V62.0838C44.8885 62.0838 46.2515 62.1375 46.583 62.1375C46.9651 62.1375 48.3938 62.0838 48.708 62.0838V62.438C48.1061 62.5747 47.6599 62.848 47.6599 63.5299V67.7H55.0967V63.5299C55.0967 62.848 54.7002 62.5747 54.072 62.438V62.0838C54.386 62.0838 55.7892 62.1375 56.1705 62.1375C56.4998 62.1375 57.8946 62.0838 58.2056 62.0838V62.438C57.6032 62.5747 57.1567 62.848 57.1567 63.5299V73.5126C57.1567 74.168 57.5758 74.4429 58.2056 74.6067V74.9336C57.8946 74.9336 56.4998 74.9066 56.1705 74.9066C55.7892 74.9066 54.386 74.9336 54.072 74.9336V74.6067C54.6701 74.4692 55.0967 74.1952 55.0967 73.5126V68.7948H47.6599V73.5126C47.6599 74.1952 48.0782 74.4429 48.708 74.6067V74.9336C48.3938 74.9336 46.9651 74.9066 46.583 74.9066C46.2515 74.9066 44.8885 74.9336 44.572 74.9336V74.6067Z" fill="#6D80B0"></path> <path d="M130.592 74.6085C131.364 74.471 131.789 74.1645 131.789 73.46V63.5317C131.789 62.8476 131.37 62.5765 130.624 62.4398V62.0856C131.054 62.0856 132.452 62.1393 132.84 62.1393C133.465 62.1393 135.209 62.0026 136.567 62.0026C141.142 62.0026 143.919 64.5573 143.919 68.4419C143.919 72.2177 141.029 75.0156 136.313 75.0156C134.953 75.0156 133.34 74.9084 132.708 74.9084C132.325 74.9084 131.02 74.9626 130.592 74.9626V74.6085ZM133.849 73.9507C134.315 74.0354 135.176 74.0882 135.855 74.0882C139.698 74.0882 141.698 71.7752 141.698 68.5491C141.698 65.2046 139.588 62.8513 135.995 62.8513C135.261 62.8513 134.343 62.9064 133.849 62.9866V73.9507Z" fill="#6D80B0"></path> <path d="M78.8104 73.4236C78.8104 74.0852 79.2295 74.4446 80.0005 74.6085V74.9627C79.5709 74.9627 78.1715 74.9083 77.7691 74.9083C77.4292 74.9083 76.0562 74.9627 75.6274 74.9627V74.6085C76.3433 74.4711 76.7654 74.1147 76.7654 73.4236V63.5666C76.7654 62.96 76.4377 62.5766 75.6288 62.4397V62.0855C76.0586 62.0855 77.4148 62.1392 77.7954 62.1392C78.4245 62.1392 80.2083 62.0343 80.912 62.0343C83.9886 62.0343 85.7012 63.3067 85.7012 65.4831C85.7012 67.1988 84.4235 68.3534 82.4625 68.8299C82.4625 68.8299 82.9072 69.089 83.3549 69.6107C83.8979 70.2489 85.3963 72.3936 86.0019 73.1282C86.6074 73.8639 87.3845 74.6854 88.2152 74.7232V75.0126C87.8172 75.0985 87.1799 75.1719 86.6928 75.1719C85.6439 75.1719 84.811 74.8048 84.0007 73.823C83.3022 72.9712 82.0802 71.1604 81.3802 70.2663C80.9332 69.6968 80.3941 69.2529 79.4041 69.089C79.2091 69.0557 79.0257 69.03 78.8104 69.0059V73.4236ZM78.8104 68.1882C79.2175 68.2417 79.8192 68.2689 80.416 68.2689C82.8219 68.2689 83.5777 66.884 83.5777 65.6605C83.5777 63.923 82.4208 62.8513 80.3132 62.8513C79.8789 62.8513 79.2462 62.9065 78.8104 62.9865V68.1882Z" fill="#6D80B0"></path> <path d="M119.359 73.4236C119.359 74.0852 119.78 74.4446 120.552 74.6085V74.9627C120.123 74.9627 118.725 74.9083 118.322 74.9083C117.977 74.9083 116.608 74.9627 116.178 74.9627V74.6085C116.892 74.4711 117.315 74.1147 117.315 73.4236V63.5666C117.315 62.96 116.984 62.5766 116.18 62.4397V62.0855C116.611 62.0855 117.963 62.1392 118.347 62.1392C118.977 62.1392 120.76 62.0343 121.459 62.0343C124.541 62.0343 126.249 63.3067 126.249 65.4831C126.249 67.1988 124.974 68.3534 123.011 68.8299C123.011 68.8299 123.458 69.089 123.902 69.6107C124.451 70.2489 125.949 72.3936 126.552 73.1282C127.16 73.8639 127.937 74.6854 128.763 74.7232V75.0126C128.371 75.0985 127.73 75.1719 127.248 75.1719C126.197 75.1719 125.36 74.8048 124.552 73.823C123.853 72.9712 122.635 71.1604 121.929 70.2663C121.482 69.6968 120.945 69.2529 119.957 69.089C119.759 69.0557 119.577 69.03 119.359 69.0059V73.4236ZM119.359 68.1882C119.772 68.2417 120.37 68.2689 120.967 68.2689C123.374 68.2689 124.128 66.884 124.128 65.6605C124.128 63.923 122.97 62.8513 120.866 62.8513C120.428 62.8513 119.798 62.9065 119.359 62.9865V68.1882Z" fill="#6D80B0"></path> <path d="M60.1625 74.6045C60.9765 74.4143 61.4237 73.8871 61.7204 73.1817L65.8391 63.2718C66.0143 62.8618 66.2182 62.0189 66.2182 62.0189H67.3707C67.3707 62.0189 67.5768 62.864 67.7482 63.2749L72.1009 73.2089C72.4113 73.8931 72.7473 74.3871 73.6127 74.6045L73.6105 74.9346C73.1393 74.9346 71.6743 74.9074 71.3411 74.9074C71.0096 74.9074 69.6103 74.9346 69.14 74.9346L69.1415 74.6045C69.775 74.449 69.9752 74.1266 69.9752 73.8146C69.9752 73.5496 69.8657 73.2505 69.7328 72.9402L68.797 70.8059H64.0009L63.144 72.9522C63.0481 73.1954 62.934 73.539 62.934 73.7708C62.934 74.1288 63.1213 74.4143 63.8402 74.6045L63.8386 74.9346C63.4127 74.9346 62.2883 74.9074 62.0249 74.9074L60.1619 74.9346L60.1625 74.6045ZM68.3629 69.794L66.3148 65.0222L64.4073 69.794H68.3629Z" fill="#6D80B0"></path> <path d="M100.966 74.6045C101.78 74.4143 102.228 73.8871 102.523 73.1817L106.643 63.2718C106.819 62.8618 107.025 62.0189 107.025 62.0189H108.177C108.177 62.0189 108.381 62.864 108.552 63.2749L112.906 73.2089C113.214 73.8931 113.553 74.3871 114.415 74.6045L114.413 74.9346C113.944 74.9346 112.477 74.9074 112.142 74.9074C111.813 74.9074 110.415 74.9346 109.944 74.9346V74.6045C110.581 74.449 110.778 74.1266 110.778 73.8146C110.778 73.5496 110.67 73.2505 110.539 72.9402L109.6 70.8059H104.804L103.946 72.9522C103.85 73.1954 103.737 73.539 103.737 73.7708C103.737 74.1288 103.924 74.4143 104.643 74.6045V74.9346C104.216 74.9346 103.093 74.9074 102.828 74.9074L100.965 74.9346L100.966 74.6045ZM109.166 69.794L107.117 65.0222L105.211 69.794H109.166Z" fill="#6D80B0"></path> <path d="M6.54639 58.0776H35.2638V68.9256C35.2638 73.8959 33.4136 84.4365 21.0122 92.2812C21.0122 92.2812 7.57487 86.6695 6.54639 68.9256L6.54639 58.0776Z" fill="#6D80B0"></path> <path d="M6.48755 58.0475H35.2328V68.903C35.2328 73.875 33.3804 84.4214 20.9678 92.2715C20.9678 92.2715 7.51757 86.6561 6.48755 68.903L6.48755 58.0475Z" stroke="#6D80B0" stroke-width="0.03934"></path> <path d="M28.2828 72.0169C28.2828 72.0169 28.0267 72.8332 26.8881 71.9942L22.9785 71.8998C22.9785 71.8998 22.4666 72.0645 22.397 71.5289C22.397 71.5289 22.4907 70.4591 22.4432 70.3653C22.4432 70.3653 22.4666 70.0633 21.953 70.0633C21.953 70.0633 21.1631 70.1561 21.1396 69.4569C21.1396 69.4569 21.0016 68.7124 22.0942 68.7372C22.0942 68.7372 22.4432 68.8995 22.4666 68.4563C22.4666 68.4563 22.4206 65.4304 22.4432 65.1993C22.4432 65.1993 22.5367 64.9214 22.0005 64.8738C22.0005 64.8738 21.2334 65.0361 21.1396 64.5257C21.1396 64.5257 21.0936 63.7577 21.6064 63.7102C21.6064 63.7102 22.234 63.7577 22.3501 63.5939C22.3501 63.5939 22.4907 63.6859 22.4666 63.1302L22.4907 62.174C22.4907 62.174 22.5579 61.9188 22.9544 61.9438C22.9544 61.9438 23.6762 61.9898 23.7706 61.9188C23.7706 61.9188 23.9316 61.7105 23.9791 61.6159C23.9791 61.6159 24.3522 61.5934 24.421 61.6869C24.421 61.6869 24.9798 62.0593 27.0971 61.9188C27.0971 61.9188 27.4235 61.9188 27.4914 62.0126C27.4914 62.0126 27.8885 62.3145 28.1205 61.9898C28.1205 61.9898 28.4694 61.9188 29.516 61.9438C29.516 61.9438 30.6577 62.245 31.4469 61.5934L31.7037 61.6402C31.7037 61.6402 32.0291 62.174 32.2618 62.0126C32.2618 62.0126 32.9603 61.9438 33.0758 62.0827C33.0758 62.0827 33.3077 62.4294 33.1921 63.3401C33.1921 63.3401 33.054 63.7343 33.7283 63.7343C33.7283 63.7343 34.4971 63.5939 34.4026 64.315C34.4026 64.315 34.6117 65.1299 33.3334 65.0142C33.3334 65.0142 33.1695 65.2468 33.1921 65.41C33.1921 65.41 33.1695 68.0614 33.1461 68.3657C33.1461 68.3657 33.1233 68.7849 33.6807 68.7606C33.6807 68.7606 34.4262 68.7124 34.451 69.3882C34.451 69.3882 34.5431 70.2725 33.4716 70.1086C33.4716 70.1086 33.1461 70.1561 33.0977 70.3653L33.054 71.5289C33.054 71.5289 33.0758 72.1105 32.4256 71.9701C32.3328 71.9701 28.7963 72.0419 28.4928 71.949C28.4928 71.949 28.3281 71.9256 28.2828 72.0169Z" fill="#A8B7D5"></path> <path d="M20.7669 75.9053C20.7669 75.9053 20.9301 75.8365 20.9761 75.7218C20.9761 75.7218 21.4654 75.674 21.534 75.6048L23.0708 75.7218C23.0708 75.7218 24.5827 75.8365 25.2344 75.3691C25.2344 75.3691 25.4685 75.3691 25.6315 75.44C25.6315 75.44 25.9555 75.511 26.0484 75.6485L26.9335 75.6251C26.9335 75.6251 27.4455 75.7897 27.3979 76.1158V76.5335C27.3979 76.5335 27.3043 77.3718 27.537 77.4194H28.2134C28.2134 77.4194 28.7724 77.6747 28.7021 78.0001C28.7021 78.0001 28.7255 78.4638 28.2377 78.5582C28.2377 78.5582 27.7468 78.6971 27.5859 78.6752C27.5859 78.6752 27.422 78.8837 27.3979 79.1395L27.33 82.1882C27.33 82.1882 27.2824 82.5137 27.7718 82.4675C27.7718 82.4675 28.4914 82.3974 28.7021 82.7946C28.7021 82.7946 28.8885 83.4682 28.5164 83.5845L28.2377 83.7227L27.6312 83.8195C27.6312 83.8195 27.3769 83.8405 27.3526 84.2823V85.0955C27.3526 85.0955 27.3769 85.656 26.9335 85.656L26.2818 85.7027C26.2818 85.7027 26.1193 85.8402 25.794 85.7473C25.794 85.7473 21.8376 85.819 21.6979 85.7716L21.2321 85.8658C21.2321 85.8658 20.7207 86.3311 20.3016 85.9806L19.9761 85.7246C19.9761 85.7246 19.7428 85.7716 19.6515 85.7473C19.5579 85.7246 15.276 85.7949 15.276 85.7949C15.276 85.7949 14.3683 85.8893 14.2995 85.585C14.2995 85.585 14.1834 84.3993 14.2294 84.2573C14.2294 84.2573 14.2294 83.91 14.0202 83.8874C14.0202 83.8874 13.1125 83.8405 13.0891 83.7461C13.0891 83.7461 12.5997 83.3989 12.7395 83.0505C12.7395 83.0505 12.9033 82.5832 13.3911 82.537C13.3911 82.537 14.1357 82.6548 14.1357 82.445C14.1357 82.445 14.1834 82.3052 14.1834 82.0735C14.1834 82.0735 14.2294 79.3027 14.206 79.117C14.206 79.117 14.2754 78.768 13.9727 78.768C13.9727 78.768 13.6472 78.8602 13.4387 78.7213C13.4387 78.7213 12.8799 78.7448 12.7636 78.3021C12.7636 78.3021 12.67 78.0235 12.8089 77.7886C12.8089 77.7886 13.0658 77.2774 13.8104 77.4411C13.8104 77.4411 14.2294 77.5582 14.2754 77.2569L14.2535 76.1377C14.2535 76.1377 14.1591 75.8365 14.7413 75.674C14.7413 75.674 15.4859 75.8825 15.7178 75.511C15.7178 75.511 15.9746 74.9974 16.1815 75.3465C16.1815 75.3465 16.6256 75.7664 17.8354 75.7218C17.8354 75.7218 19.9301 75.5572 19.9761 75.6485C19.9761 75.6485 20.4882 75.7218 20.6271 75.8825L20.7669 75.9053Z" fill="#A8B7D5"></path> <path d="M14.4405 72.0171C14.4405 72.0171 14.1838 72.8333 13.0436 71.9937L9.13472 71.9C9.13472 71.9 8.62279 72.0647 8.55249 71.5286C8.55249 71.5286 8.64622 70.4593 8.59781 70.3655C8.59781 70.3655 8.62279 70.0619 8.11 70.0619C8.11 70.0619 7.32012 70.157 7.29737 69.4587C7.29737 69.4587 7.15694 68.7117 8.25042 68.7374C8.25042 68.7374 8.59781 68.8997 8.62279 68.4574C8.62279 68.4574 8.57592 65.4328 8.59781 65.1988C8.59781 65.1988 8.69291 64.9224 8.15755 64.8747C8.15755 64.8747 7.38871 65.0363 7.29737 64.5244C7.29737 64.5244 7.24982 63.7579 7.76107 63.7104C7.76107 63.7104 8.38948 63.7579 8.50648 63.597C8.50648 63.597 8.64622 63.687 8.62279 63.128L8.64622 62.1751C8.64622 62.1751 8.71635 61.919 9.10975 61.9425C9.10975 61.9425 9.83326 61.9885 9.92682 61.919C9.92682 61.919 10.0893 61.7107 10.1338 61.6161C10.1338 61.6161 10.5084 61.5942 10.5778 61.6849C10.5778 61.6849 11.1351 62.0595 13.2548 61.919C13.2548 61.919 13.5788 61.919 13.6491 62.0128C13.6491 62.0128 14.044 62.3147 14.2766 61.9885C14.2766 61.9885 14.6256 61.919 15.6735 61.9425C15.6735 61.9425 16.8117 62.2445 17.6039 61.5942L17.8591 61.642C17.8591 61.642 18.1846 62.1751 18.4195 62.0128C18.4195 62.0128 19.1165 61.9425 19.2335 62.0829C19.2335 62.0829 19.4668 62.4318 19.3483 63.3403C19.3483 63.3403 19.21 63.7352 19.8845 63.7352C19.8845 63.7352 20.6516 63.597 20.5596 64.3152C20.5596 64.3152 20.7695 65.1301 19.4895 65.0144C19.4895 65.0144 19.3257 65.2477 19.3483 65.4102C19.3483 65.4102 19.3257 68.0616 19.3029 68.3659C19.3029 68.3659 19.2803 68.782 19.8385 68.7608C19.8385 68.7608 20.583 68.7117 20.6056 69.3892C20.6056 69.3892 20.6985 70.2727 19.6291 70.1088C19.6291 70.1088 19.3029 70.157 19.2554 70.3655L19.21 71.5286C19.21 71.5286 19.2335 72.1107 18.5803 71.9718C18.4874 71.9718 14.9526 72.0406 14.6488 71.9492C14.6488 71.9492 14.4865 71.9258 14.4405 72.0171Z" fill="#A8B7D5"></path> <path d="M28.2828 72.0169C28.2828 72.0169 28.0267 72.8332 26.8881 71.9942L22.9785 71.8998C22.9785 71.8998 22.4666 72.0645 22.397 71.5289C22.397 71.5289 22.4907 70.4591 22.4432 70.3653C22.4432 70.3653 22.4666 70.0633 21.953 70.0633C21.953 70.0633 21.1631 70.1561 21.1396 69.4569C21.1396 69.4569 21.0016 68.7124 22.0942 68.7372C22.0942 68.7372 22.4432 68.8995 22.4666 68.4563C22.4666 68.4563 22.4206 65.4304 22.4432 65.1993C22.4432 65.1993 22.5367 64.9214 22.0005 64.8738C22.0005 64.8738 21.2334 65.0361 21.1396 64.5257C21.1396 64.5257 21.0936 63.7577 21.6064 63.7102C21.6064 63.7102 22.234 63.7577 22.3501 63.5939C22.3501 63.5939 22.4907 63.6859 22.4666 63.1302L22.4907 62.174C22.4907 62.174 22.5579 61.9188 22.9544 61.9438C22.9544 61.9438 23.6762 61.9898 23.7706 61.9188C23.7706 61.9188 23.9316 61.7105 23.9791 61.6159C23.9791 61.6159 24.3522 61.5934 24.421 61.6869C24.421 61.6869 24.9798 62.0593 27.0971 61.9188C27.0971 61.9188 27.4235 61.9188 27.4914 62.0126C27.4914 62.0126 27.8885 62.3145 28.1205 61.9898C28.1205 61.9898 28.4694 61.9188 29.516 61.9438C29.516 61.9438 30.6577 62.245 31.4469 61.5934L31.7037 61.6402C31.7037 61.6402 32.0291 62.174 32.2618 62.0126C32.2618 62.0126 32.9603 61.9438 33.0758 62.0827C33.0758 62.0827 33.3077 62.4294 33.1921 63.3401C33.1921 63.3401 33.054 63.7343 33.7283 63.7343C33.7283 63.7343 34.4971 63.5939 34.4026 64.315C34.4026 64.315 34.6117 65.1299 33.3334 65.0142C33.3334 65.0142 33.1695 65.2468 33.1921 65.41C33.1921 65.41 33.1695 68.0614 33.1461 68.3657C33.1461 68.3657 33.1233 68.7849 33.6807 68.7606C33.6807 68.7606 34.4262 68.7124 34.451 69.3882C34.451 69.3882 34.5431 70.2725 33.4716 70.1086C33.4716 70.1086 33.1461 70.1561 33.0977 70.3653L33.054 71.5289C33.054 71.5289 33.0758 72.1105 32.4256 71.9701C32.3328 71.9701 28.7963 72.0419 28.4928 71.949C28.4928 71.949 28.3281 71.9256 28.2828 72.0169Z" fill="#6D80B0"></path> <path d="M28.2825 72.0168C28.2825 72.0168 28.0264 72.8332 26.8878 71.9942L22.9774 71.8998C22.9774 71.8998 22.4655 72.0644 22.396 71.5283C22.396 71.5283 22.4904 70.4583 22.442 70.3645C22.442 70.3645 22.4655 70.0625 21.9527 70.0625C21.9527 70.0625 21.1621 70.1562 21.1387 69.4568C21.1387 69.4568 21.0005 68.7122 22.0931 68.7364C22.0931 68.7364 22.442 68.8988 22.4655 68.4564C22.4655 68.4564 22.4195 65.4303 22.442 65.1985C22.442 65.1985 22.5365 64.9199 22.0002 64.873C22.0002 64.873 21.2323 65.0355 21.1387 64.5249C21.1387 64.5249 21.0934 63.7561 21.6053 63.7094C21.6053 63.7094 22.2329 63.7561 22.3493 63.5931C22.3493 63.5931 22.4904 63.6851 22.4655 63.1285L22.4904 62.1726C22.4904 62.1726 22.5568 61.9174 22.9548 61.9423C22.9548 61.9423 23.676 61.9883 23.7697 61.9174C23.7697 61.9174 23.9306 61.7097 23.9789 61.6151C23.9789 61.6151 24.3512 61.5919 24.4207 61.6856C24.4207 61.6856 24.9788 62.0578 27.0968 61.9174C27.0968 61.9174 27.4232 61.9174 27.4911 62.0109C27.4911 62.0109 27.8882 62.313 28.1202 61.9883C28.1202 61.9883 28.4691 61.9174 29.5157 61.9423C29.5157 61.9423 30.6574 62.2435 31.4473 61.5919L31.7042 61.6379C31.7042 61.6379 32.0296 62.1726 32.2615 62.0109C32.2615 62.0109 32.96 61.9423 33.0755 62.0804C33.0755 62.0804 33.3081 62.4286 33.1927 63.3377C33.1927 63.3377 33.0538 63.7335 33.7287 63.7335C33.7287 63.7335 34.4969 63.5931 34.4023 64.3135C34.4023 64.3135 34.6115 65.129 33.3331 65.0127C33.3331 65.0127 33.1699 65.2454 33.1927 65.4092C33.1927 65.4092 33.1699 68.0606 33.1465 68.3642C33.1465 68.3642 33.123 68.7832 33.6812 68.7606C33.6812 68.7606 34.4272 68.7122 34.4514 69.3873C34.4514 69.3873 34.5429 70.2716 33.472 70.1078C33.472 70.1078 33.1465 70.1562 33.0982 70.3645L33.0538 71.5283C33.0538 71.5283 33.0755 72.1105 32.4262 71.9701C32.3333 71.9701 28.796 72.0411 28.4925 71.9482C28.4925 71.9482 28.3278 71.9255 28.2825 72.0168Z" stroke="#6D80B0" stroke-width="0.00171044"></path> <path d="M23.8851 62.43C23.8851 62.43 23.9311 62.8959 23.9311 63.0138C23.9311 63.1292 23.8625 69.737 23.8625 69.737C23.8625 69.737 23.9311 70.2489 23.4908 70.5057C23.4908 70.5057 23.373 70.551 23.3511 70.2255L23.3966 63.2471C23.3966 63.2471 23.4433 62.3838 23.8851 62.43Z" fill="#A8B7D5"></path> <path d="M23.8866 62.4292C23.8866 62.4292 23.9319 62.8951 23.9319 63.013C23.9319 63.1291 23.864 69.7377 23.864 69.7377C23.864 69.7377 23.9319 70.2497 23.4916 70.5056C23.4916 70.5056 23.3738 70.5517 23.3503 70.2262L23.3972 63.2463C23.3972 63.2463 23.4432 62.383 23.8866 62.4292Z" stroke="#6D80B0" stroke-width="0.00205252"></path> <path d="M23.1179 70.5743C23.1179 70.5743 23.1641 64.0127 23.1422 63.8964C23.1179 63.7816 23.1641 63.9915 23.1641 63.9915C23.1641 63.9915 23.0945 62.8496 23.3974 62.383C23.3974 62.383 23.303 61.9896 22.7683 62.4774L22.7449 63.4303C22.7449 63.4303 22.7449 63.9665 22.2571 63.9431C22.2571 63.9431 21.6983 63.919 21.4422 64.175C21.4422 64.175 21.3026 64.6876 21.8371 64.5956C21.8371 64.5956 22.6754 64.5956 22.7223 64.9422L22.6754 68.4568C22.6754 68.4568 22.8619 69.0412 22.2111 69.0412C22.2111 69.0412 21.4174 68.9914 21.4422 69.4801C21.4422 69.4801 21.6061 69.8983 22.2805 69.7601C22.2805 69.7601 22.7683 69.8515 22.7449 70.3189V71.2025C22.7449 71.2025 22.698 71.5537 23.1641 71.5756H26.794C26.794 71.5756 26.9791 71.5982 26.9791 71.3655C26.9791 71.3655 26.9565 71.18 26.6777 71.18L23.6533 71.1331C23.6533 71.1331 23.1641 71.2969 23.1179 70.5743Z" fill="#A8B7D5"></path> <path d="M23.8166 70.5642C23.8166 70.5642 23.723 70.8897 24.0718 70.8216H26.4688L27.1189 70.9629C27.1189 70.9629 27.7933 70.7983 27.1189 70.4267C27.1189 70.4267 24.9788 70.4479 24.7931 70.4026C24.7931 70.4026 24.3506 70.2869 24.2553 70.2637C24.2553 70.2637 24.0251 70.1708 23.8166 70.5642Z" fill="#A8B7D5"></path> <path d="M23.8159 70.5645C23.8159 70.5645 23.7223 70.8907 24.071 70.8228H26.4687L27.119 70.9639C27.119 70.9639 27.794 70.7986 27.119 70.4263C27.119 70.4263 24.9788 70.4473 24.7922 70.4028C24.7922 70.4028 24.3498 70.2865 24.2554 70.2631C24.2554 70.2631 24.0244 70.1702 23.8159 70.5645Z" stroke="#6D80B0" stroke-width="0.00205252"></path> <path d="M27.7939 70.8909C27.7939 70.8909 27.3521 70.8909 27.3749 71.4738C27.3749 71.4738 27.4216 71.9141 27.8868 71.9141C27.8868 71.9141 28.3043 71.8455 28.2599 71.3802C28.2599 71.3802 28.0031 70.7987 27.7939 70.8909Z" fill="#A8B7D5"></path> <path d="M28.12 70.6588C28.12 70.6588 28.3292 70.4271 28.4696 70.4271C28.4696 70.4271 30.7963 70.6354 31.189 70.3568C31.189 70.3568 31.5402 70.2873 31.6337 70.3568C31.6337 70.3568 31.982 70.6354 31.982 70.7986C31.982 70.7986 31.9592 71.0091 31.5402 70.8899C31.5402 70.8899 28.9107 70.9156 28.771 70.9156C28.771 70.9156 28.0483 71.0772 28.12 70.6588Z" fill="#A8B7D5"></path> <path d="M28.1195 70.6592C28.1195 70.6592 28.3287 70.4266 28.4691 70.4266C28.4691 70.4266 30.7965 70.6351 31.1901 70.3563C31.1901 70.3563 31.5411 70.2868 31.6348 70.3563C31.6348 70.3563 31.9829 70.6351 31.9829 70.7996C31.9829 70.7996 31.9603 71.0103 31.5411 70.891C31.5411 70.891 28.9102 70.9166 28.7705 70.9166C28.7705 70.9166 28.0478 71.0782 28.1195 70.6592Z" stroke="#6D80B0" stroke-width="0.00205252"></path> <path d="M28.4219 71.4134C28.4219 71.4134 28.4219 71.2253 28.7481 71.2253L32.0044 71.2027C32.0044 71.2027 32.308 71.3659 32.308 70.8084C32.308 70.8084 32.4272 68.272 32.4378 65.4794C32.4416 64.6479 32.4794 63.7758 32.45 62.9676C32.45 62.9676 32.3774 62.618 32.2839 62.547C32.2839 62.547 32.2839 62.1755 32.6802 62.3152C32.6802 62.3152 33.0291 62.3387 32.9362 62.8756L32.9603 63.6865C32.9603 63.6865 32.8902 64.0377 33.5169 63.9434C33.5169 63.9434 34.1445 64.0377 34.1695 64.2687C34.1695 64.2687 34.3552 64.7362 33.612 64.6886H33.0744C33.0744 64.6886 32.8427 64.8277 32.9121 65.1079L32.8427 68.4826C32.8427 68.4826 32.7958 69.0633 33.3546 69.0414C33.3546 69.0414 33.9353 69.0172 34.0523 69.2039C34.0523 69.2039 34.4503 69.7852 33.5879 69.7385C33.5879 69.7385 33.0525 69.7143 32.9362 69.8087C32.9362 69.8087 32.8427 69.9241 32.7731 71.0191C32.7731 71.0191 32.8206 71.6708 32.3312 71.5992C32.3312 71.5992 29.0963 71.6452 28.7942 71.5766C28.7942 71.5766 28.4687 71.6708 28.4219 71.4134Z" fill="#A8B7D5"></path> <path d="M24.2345 62.2197L24.1642 69.6913C24.1642 69.6913 24.1416 70.038 24.7232 70.1081C24.7232 70.1081 25.3974 70.1775 25.559 70.1081C25.559 70.1081 26.0039 70.084 27.1419 70.1315C27.1419 70.1315 27.4227 70.4132 27.4462 70.0614C27.4462 70.0614 27.6304 64.014 27.5399 62.7544C27.5399 62.7544 27.5142 62.2197 27.12 62.1963C27.12 62.1963 25.3514 62.3391 25.1884 62.1963L24.4898 62.0121C24.4898 62.0121 24.2104 62.0347 24.2345 62.2197Z" fill="#A8B7D5"></path> <path d="M27.9105 62.5935C27.9105 62.5935 27.841 66.1072 27.8643 66.2236L27.8183 69.1778L27.7239 70.2025C27.7239 70.2025 27.8643 70.4116 27.9808 70.2727C27.9808 70.2727 28.7253 70.0838 29.1904 70.1572C29.1904 70.1572 30.6812 70.2954 30.9824 70.0613C30.9824 70.0613 31.2157 70.1776 31.2838 69.8052C31.2838 69.8052 31.3758 63.292 31.3329 63.1757C31.3329 63.1757 31.4227 62.2423 31.3758 62.1517C31.3758 62.1517 31.3555 61.9425 30.959 62.1276C30.959 62.1276 31.0043 62.3149 28.7955 62.2423C28.7955 62.2423 27.958 62.2196 27.9105 62.5935Z" fill="#A8B7D5"></path> <path d="M31.6112 62.5006L31.5886 69.852C31.5886 69.852 31.7744 70.5059 32.0764 70.4373C32.0764 70.4373 32.1218 70.2961 32.1443 70.0634L32.2388 63.0587C32.2388 63.0587 32.0046 61.944 31.6112 62.5006Z" fill="#A8B7D5"></path> <path d="M31.6107 62.5L31.5881 69.853C31.5881 69.853 31.7746 70.5071 32.0766 70.4383C32.0766 70.4383 32.1228 70.297 32.1454 70.0644L32.239 63.0581C32.239 63.0581 32.005 61.9434 31.6107 62.5Z" stroke="#6D80B0" stroke-width="0.00205252"></path> <path d="M28.7533 64.7031C28.6839 64.5173 29.1489 64.4939 29.1489 64.4939L29.3824 64.5399C29.5456 64.5173 29.7086 64.5874 29.7086 64.5874C29.8711 64.8428 29.5916 64.9817 29.5916 64.9817L29.4987 65.2853C29.4746 65.542 29.4987 67.7524 29.4987 67.7524C29.5456 67.8672 29.7313 68.0757 29.7313 68.0757C29.7313 68.2862 29.4746 68.2402 29.4746 68.2402L28.8009 68.2637C28.591 68.2402 28.6604 68.0068 28.6604 68.0068C28.893 67.8906 28.9633 67.4707 28.9633 67.4707V65.1683L28.7533 64.7031Z" fill="#172240"></path> <path d="M25.6127 66.8673L25.5667 67.5884L25.7743 67.9366C25.9156 68.1224 25.6821 68.2637 25.6821 68.2637L24.9376 68.1941C24.7994 68.1224 24.9376 67.8905 24.9376 67.8905C25.1242 67.7759 25.1474 67.4714 25.1474 67.4714L25.1242 66.122L25.1474 65.1449C25.1474 65.0277 24.9617 64.82 24.9617 64.82C24.7994 64.7966 24.8454 64.5874 24.8454 64.5874C24.8916 64.4704 25.2856 64.5399 25.2856 64.5399H26.2644C27.1955 64.8428 27.0558 65.5177 27.0558 65.5177C27.1261 66.1915 26.4048 66.4723 26.4048 66.4723L26.3565 66.8447L27.0323 67.9132C27.1487 68.0068 27.1261 68.1012 27.1261 68.1012C27.0323 68.3572 26.6593 68.1012 26.6593 68.1012L25.8227 66.7971C25.7524 66.7034 25.6127 66.8673 25.6127 66.8673ZM25.6361 65.0277C25.6587 65.5412 25.6587 66.239 25.6587 66.239C26.102 66.5886 26.3565 66.0986 26.3565 66.0986C26.9372 65.5412 26.3565 65.0277 26.2644 64.8895C26.1699 64.7491 25.7049 64.8654 25.7049 64.8654L25.6361 65.0277Z" fill="#172240"></path> <path d="M20.7669 75.9053C20.7669 75.9053 20.9301 75.8365 20.9761 75.7218C20.9761 75.7218 21.4654 75.674 21.534 75.6048L23.0708 75.7218C23.0708 75.7218 24.5827 75.8365 25.2344 75.3691C25.2344 75.3691 25.4685 75.3691 25.6315 75.44C25.6315 75.44 25.9555 75.511 26.0484 75.6485L26.9335 75.6251C26.9335 75.6251 27.4455 75.7897 27.3979 76.1158V76.5335C27.3979 76.5335 27.3043 77.3718 27.537 77.4194H28.2134C28.2134 77.4194 28.7724 77.6747 28.7021 78.0001C28.7021 78.0001 28.7255 78.4638 28.2377 78.5582C28.2377 78.5582 27.7468 78.6971 27.5859 78.6752C27.5859 78.6752 27.422 78.8837 27.3979 79.1395L27.33 82.1882C27.33 82.1882 27.2824 82.5137 27.7718 82.4675C27.7718 82.4675 28.4914 82.3974 28.7021 82.7946C28.7021 82.7946 28.8885 83.4682 28.5164 83.5845L28.2377 83.7227L27.6312 83.8195C27.6312 83.8195 27.3769 83.8405 27.3526 84.2823V85.0955C27.3526 85.0955 27.3769 85.656 26.9335 85.656L26.2818 85.7027C26.2818 85.7027 26.1193 85.8402 25.794 85.7473C25.794 85.7473 21.8376 85.819 21.6979 85.7716L21.2321 85.8658C21.2321 85.8658 20.7207 86.3311 20.3016 85.9806L19.9761 85.7246C19.9761 85.7246 19.7428 85.7716 19.6515 85.7473C19.5579 85.7246 15.276 85.7949 15.276 85.7949C15.276 85.7949 14.3683 85.8893 14.2995 85.585C14.2995 85.585 14.1834 84.3993 14.2294 84.2573C14.2294 84.2573 14.2294 83.91 14.0202 83.8874C14.0202 83.8874 13.1125 83.8405 13.0891 83.7461C13.0891 83.7461 12.5997 83.3989 12.7395 83.0505C12.7395 83.0505 12.9033 82.5832 13.3911 82.537C13.3911 82.537 14.1357 82.6548 14.1357 82.445C14.1357 82.445 14.1834 82.3052 14.1834 82.0735C14.1834 82.0735 14.2294 79.3027 14.206 79.117C14.206 79.117 14.2754 78.768 13.9727 78.768C13.9727 78.768 13.6472 78.8602 13.4387 78.7213C13.4387 78.7213 12.8799 78.7448 12.7636 78.3021C12.7636 78.3021 12.67 78.0235 12.8089 77.7886C12.8089 77.7886 13.0658 77.2774 13.8104 77.4411C13.8104 77.4411 14.2294 77.5582 14.2754 77.2569L14.2535 76.1377C14.2535 76.1377 14.1591 75.8365 14.7413 75.674C14.7413 75.674 15.4859 75.8825 15.7178 75.511C15.7178 75.511 15.9746 74.9974 16.1815 75.3465C16.1815 75.3465 16.6256 75.7664 17.8354 75.7218C17.8354 75.7218 19.9301 75.5572 19.9761 75.6485C19.9761 75.6485 20.4882 75.7218 20.6271 75.8825L20.7669 75.9053Z" fill="#6D80B0"></path> <path d="M20.7662 75.8776C20.7662 75.8776 20.9277 75.8097 20.9754 75.6934C20.9754 75.6934 21.4639 75.6459 21.5334 75.5763L23.0695 75.6934C23.0695 75.6934 24.5821 75.8097 25.2337 75.3423C25.2337 75.3423 25.4679 75.3423 25.6309 75.4133C25.6309 75.4133 25.9557 75.4834 26.047 75.6209L26.9336 75.5982C26.9336 75.5982 27.4448 75.7629 27.3973 76.0882V76.5067C27.3973 76.5067 27.3044 77.3449 27.537 77.391H28.2128C28.2128 77.391 28.7709 77.6478 28.7022 77.9733C28.7022 77.9733 28.7256 78.437 28.2371 78.5314C28.2371 78.5314 27.747 78.6703 27.5861 78.6475C27.5861 78.6475 27.4222 78.8567 27.3973 79.1128L27.3285 82.1621C27.3285 82.1621 27.2818 82.4861 27.7703 82.4408C27.7703 82.4408 28.4907 82.3722 28.7022 82.7669C28.7022 82.7669 28.8888 83.4414 28.5164 83.5584L28.2371 83.6974L27.6306 83.7918C27.6306 83.7918 27.3754 83.8144 27.3528 84.2547V85.0711C27.3528 85.0711 27.3754 85.629 26.9336 85.629L26.2819 85.6759C26.2819 85.6759 26.1187 85.8149 25.7934 85.7221C25.7934 85.7221 21.837 85.7922 21.6972 85.744L21.2306 85.8382C21.2306 85.8382 20.7201 86.3041 20.301 85.953L19.9748 85.6969C19.9748 85.6969 19.7422 85.744 19.6502 85.7221C19.5564 85.6969 15.2754 85.7688 15.2754 85.7688C15.2754 85.7688 14.367 85.8625 14.2975 85.5589C14.2975 85.5589 14.1819 84.3717 14.2279 84.2312C14.2279 84.2312 14.2279 83.8839 14.0181 83.8604C14.0181 83.8604 13.1112 83.8144 13.0871 83.7207C13.0871 83.7207 12.5984 83.3712 12.738 83.023C12.738 83.023 12.9018 82.5564 13.3905 82.5093C13.3905 82.5093 14.1344 82.6289 14.1344 82.4165C14.1344 82.4165 14.1819 82.2776 14.1819 82.0465C14.1819 82.0465 14.2279 79.2759 14.2053 79.09C14.2053 79.09 14.2748 78.7397 13.9712 78.7397C13.9712 78.7397 13.6459 78.8326 13.4365 78.6944C13.4365 78.6944 12.8786 78.7171 12.7623 78.2753C12.7623 78.2753 12.6678 77.9967 12.8083 77.7625C12.8083 77.7625 13.0636 77.2504 13.8089 77.4136C13.8089 77.4136 14.2279 77.5315 14.2748 77.2294L14.2514 76.1109C14.2514 76.1109 14.1578 75.8097 14.74 75.6459C14.74 75.6459 15.4846 75.8557 15.7172 75.4834C15.7172 75.4834 15.9724 74.9708 16.1809 75.3182C16.1809 75.3182 16.6249 75.7381 17.8339 75.6934C17.8339 75.6934 19.9295 75.5287 19.9748 75.6209C19.9748 75.6209 20.4876 75.6934 20.6265 75.8557L20.7662 75.8776Z" stroke="#6D80B0" stroke-width="0.00171044"></path> <path d="M21.3711 85.0515C21.3711 85.0515 21.6512 84.9102 21.8378 84.9586C22.0243 85.0048 24.7459 84.9358 24.7459 84.9358C24.7459 84.9358 25.9323 85.028 26.1196 84.8633L26.3967 84.7713C26.3967 84.7713 26.5137 84.6324 26.5137 84.4473C26.5137 84.2594 26.5371 83.6309 26.5371 83.6309L26.6081 83.4C26.6081 83.4 26.584 83.1672 26.6081 76.9531C26.6081 76.9531 26.6994 76.4668 26.3967 76.1625C26.3967 76.1625 26.3967 75.9781 26.4895 76.0002C26.584 76.0251 26.5371 76.0251 26.5371 76.0251C26.5371 76.0251 26.9555 75.9064 27.0242 76.0694C27.0242 76.0694 27.2122 76.626 27.0483 76.9531C27.0483 76.9531 27.0015 77.6289 27.3535 77.6289C27.3535 77.6289 27.4908 77.7695 27.7703 77.6985C27.7703 77.6985 28.3751 77.7695 28.3751 77.9537C28.3751 77.9537 28.3751 78.3743 27.9561 78.3041L27.3966 78.3493C27.3966 78.3493 27.0242 78.4211 27.0718 78.8616C27.1193 79.3039 27.0483 82.4687 27.0483 82.4687C27.0483 82.4687 27.0483 82.8426 27.6314 82.8192C27.6314 82.8192 28.3519 82.7951 28.3519 83.0034C28.3519 83.0034 28.5374 83.4686 28.0264 83.4929C28.0264 83.4929 27.0483 83.4686 27.1193 83.7473C27.1193 83.7473 27.0483 84.4005 27.0015 84.5152C27.0015 84.5152 27.0967 85.0515 26.9782 85.1452C26.9782 85.1452 26.9095 85.4464 26.2819 85.4004C26.2819 85.4004 22.2803 85.3776 21.6512 85.4238C21.6512 85.4238 21.2782 85.3776 21.3711 85.0515Z" fill="#A8B7D5"></path> <path d="M20.6519 84.6087C20.6519 84.6087 21.0468 84.6775 21.0468 85.0505C21.0468 85.422 21.0702 85.6319 20.8363 85.6781C20.6043 85.7248 20.3491 85.6562 20.2804 85.3539C20.2087 85.0505 20.3248 84.6775 20.6519 84.6087Z" fill="#A8B7D5"></path> <path d="M21.116 84.4245C21.116 84.4245 21.5344 84.1435 21.6974 84.1921C21.6974 84.1921 23.8143 84.3301 24.4675 84.216C25.1183 84.099 24.7227 84.1921 24.7227 84.1921C24.7227 84.1921 25.2816 84.1921 25.4431 83.9812C25.4431 83.9812 25.607 83.9365 25.6998 84.099L26.0472 84.4728C26.0472 84.4728 26.0736 84.7032 25.6764 84.6797C25.6764 84.6797 21.8825 84.6797 21.7677 84.7032C21.7677 84.7032 21.0466 84.8179 21.116 84.4245Z" fill="#A8B7D5"></path> <path d="M21.1153 84.4237C21.1153 84.4237 21.5337 84.1427 21.6967 84.1904C21.6967 84.1904 23.8151 84.3293 24.4674 84.2152C25.1193 84.0975 24.7226 84.1904 24.7226 84.1904C24.7226 84.1904 25.2823 84.1904 25.4439 83.9788C25.4439 83.9788 25.6071 83.9352 25.7006 84.0975L26.048 84.472C26.048 84.472 26.0737 84.7032 25.6772 84.6789C25.6772 84.6789 21.8833 84.6789 21.767 84.7032C21.767 84.7032 21.0459 84.818 21.1153 84.4237Z" stroke="#6D80B0" stroke-width="0.00205252"></path> <path d="M15.6015 76.163C15.6015 76.163 15.7647 76.163 15.7411 76.4425L15.6937 83.4691C15.6937 83.4691 15.7647 83.9357 15.3689 84.2371C15.3689 84.2371 15.1582 84.4923 15.1582 84.0982L15.2533 76.931C15.2533 76.931 15.2754 76.3954 15.6015 76.163Z" fill="#A8B7D5"></path> <path d="M15.6026 76.1615C15.6026 76.1615 15.7658 76.1615 15.7437 76.4408L15.6948 83.4691C15.6948 83.4691 15.7658 83.9357 15.3693 84.2371C15.3693 84.2371 15.1577 84.4923 15.1577 84.0981L15.253 76.9301C15.253 76.9301 15.2756 76.3939 15.6026 76.1615Z" stroke="#6D80B0" stroke-width="0.00205252"></path> <path d="M15.2297 76.2085C15.2297 76.2085 14.9502 76.7213 14.9737 76.8385L14.9502 78.3955C14.9502 78.3955 14.9268 79.3961 14.9502 79.5131C14.9737 79.6287 14.9268 82.5611 14.9268 82.5611C14.9268 82.5611 14.9035 83.1182 14.9268 83.3055V84.5614C14.9268 84.5614 14.8801 85.1209 15.2985 84.979C15.2985 84.979 19.3944 84.8869 19.6512 84.9578C19.6512 84.9578 20.022 85.0267 19.8845 85.2131C19.8845 85.2131 19.8845 85.3772 19.6262 85.3294C19.6262 85.3294 17.6953 85.5143 15.9508 85.4457C15.9508 85.4457 14.7872 85.5143 14.7162 85.3772C14.7162 85.3772 14.5312 85.3536 14.5312 84.6778C14.5312 84.6778 14.5312 84.0511 14.4858 83.9346C14.4858 83.9346 14.5312 83.6046 13.9498 83.5374C13.9498 83.5374 13.1356 83.6778 13.1122 83.1893C13.1122 83.1893 13.2278 82.8404 14.0199 82.8857C14.0199 82.8857 14.6015 82.9793 14.4858 82.5127L14.5546 79.0713C14.5546 79.0713 14.6263 78.4636 14.2291 78.4393C14.2291 78.4393 13.8583 78.4205 13.7397 78.4636C13.7397 78.4636 13.0655 78.4636 13.1122 78.0709C13.1122 78.0709 13.3448 77.6509 14.0199 77.7445C14.0199 77.7445 14.5312 77.8369 14.5546 77.2567C14.5546 77.2567 14.5312 76.069 14.8098 76.0236C14.8098 76.0236 15.3929 76.0447 15.2297 76.2085Z" fill="#A8B7D5"></path> <path d="M15.9267 83.911C15.9267 83.911 16.2528 84.2584 16.7891 84.2381L19.9508 84.2834C19.9508 84.2834 20.3021 84.3082 20.2801 84.4924C20.2801 84.4924 20.2303 84.7712 19.8134 84.6783L15.9968 84.6323L15.577 84.6578C15.577 84.6578 15.2976 84.6096 15.7416 84.0749L15.9267 83.911Z" fill="#A8B7D5"></path> <path d="M15.9261 83.9111C15.9261 83.9111 16.2524 84.2592 16.7893 84.238L19.9519 84.2841C19.9519 84.2841 20.3022 84.3083 20.2812 84.4932C20.2812 84.4932 20.2321 84.7726 19.8152 84.6806L15.9964 84.6344L15.5764 84.6586C15.5764 84.6586 15.2978 84.6112 15.741 84.075L15.9261 83.9111Z" stroke="#6D80B0" stroke-width="0.00205252"></path> <path d="M25.7 83.6076C25.7 83.6076 25.9793 84.1438 26.119 84.217C26.119 84.217 26.3751 84.5168 26.3056 83.9821L26.3516 77.2801C26.3516 77.2801 26.2813 77.0468 26.3516 76.676L26.073 76.1639C26.073 76.1639 25.7694 75.9315 25.7694 76.303L25.7234 83.4475L25.7 83.6076Z" fill="#A8B7D5"></path> <path d="M25.6992 83.6074C25.6992 83.6074 25.9794 84.1428 26.1198 84.2168C26.1198 84.2168 26.3759 84.5173 26.3064 83.9813L26.3524 77.2776C26.3524 77.2776 26.2821 77.0458 26.3524 76.675L26.0731 76.1624C26.0731 76.1624 25.7687 75.9304 25.7687 76.3019L25.7227 83.4471L25.6992 83.6074Z" stroke="#6D80B0" stroke-width="0.00205252"></path> <path d="M20.5344 80.4217C20.5344 80.4217 20.5578 80.9783 20.4868 81.5123C20.449 81.8075 20.5811 83.1668 20.4634 83.8638C20.4634 83.8638 20.4422 84.0971 19.9513 83.8887C19.9513 83.8887 16.9738 83.9573 16.8809 83.8638C16.8809 83.8638 16.0669 83.8887 15.9966 83.4688C15.9966 83.4688 16.1129 80.2813 16.0434 80.1627C16.0434 80.1627 15.9966 78.4182 16.0434 78.2559C16.0434 78.2559 16.1129 76.6505 16.0669 76.4646C16.0669 76.4646 16.0903 76.0922 16.02 75.9051C16.02 75.9051 16.02 75.6725 16.4165 75.8115C16.4165 75.8115 16.554 76.0683 17.3227 75.9542C17.3227 75.9542 17.8822 76.0464 18.4177 75.9761C18.4177 75.9761 19.6032 75.8832 19.9068 75.9761C19.9068 75.9761 20.3727 75.8832 20.5101 76.3967L20.4868 77.8382L20.6257 78.3035L20.7896 78.1878L20.8583 77.8382L20.8818 76.3023C20.8818 76.3023 20.9746 76.0221 21.3484 75.9761C21.3484 75.9761 21.9299 75.9051 22.0243 75.9542C22.1172 75.9988 23.3715 76.0683 23.7226 75.9988C24.0707 75.9292 24.1395 76.2313 25.1885 75.6975C25.1885 75.6975 25.4678 75.7209 25.4678 75.9051C25.4678 75.9051 25.3727 77.886 25.4678 78.2559C25.4678 78.2559 25.4678 81.8853 25.3953 82.1414L25.4428 83.3048C25.4428 83.3048 25.489 83.8171 24.6764 83.8638C24.6764 83.8638 25.1885 83.9339 21.9752 83.841C21.9752 83.841 21.464 83.8171 20.9059 84.0723C20.9059 84.0723 20.7896 84.0495 20.7896 83.7475C20.7896 83.7475 20.8818 82.6548 20.7896 81.5824L20.7444 80.3962L20.5344 80.4217Z" fill="#A8B7D5"></path> <path d="M18.4398 78.7692C18.4398 78.7692 18.5101 80.4904 18.4398 80.7229L18.4179 81.0961C18.4179 81.0961 18.5101 81.3504 18.6498 81.4449C18.6498 81.4449 18.7668 81.7695 18.4867 81.7469C18.4867 81.7469 17.906 81.7001 17.7662 81.7221C17.7662 81.7221 17.4392 81.7221 17.7662 81.3058C17.7662 81.3058 17.8825 81.1404 17.8584 80.7229C17.8584 80.7229 17.8584 78.7692 17.906 78.6538C17.906 78.6538 17.952 78.3962 17.7888 78.326L17.5086 78.3502L17.1612 78.6757C17.1612 78.6757 17.0903 79.0261 16.9272 78.6538V78.4658L17.138 77.9077L17.2777 77.8834C17.2777 77.8834 17.486 78.0233 17.6718 78.0715H18.7668L19.1618 77.8834C19.1618 77.8834 19.3241 77.9077 19.2796 78.1169C19.2796 78.1169 19.3475 78.6538 19.0455 78.7218C19.0455 78.7218 18.859 78.6538 18.7668 78.3962C18.7668 78.3962 18.4641 78.2347 18.4398 78.7692Z" fill="#172240"></path> <path d="M23.5821 78.1426C23.5821 78.1426 22.6993 78.0723 22.6775 79.026C22.6775 79.026 22.5815 79.6793 23.5602 80.0985C23.5602 80.0985 24.2822 80.4459 24.2338 80.8877C24.2338 80.8877 24.1409 81.6791 23.3729 81.284C23.3729 81.284 23.0014 81.0967 23.0262 80.8877C23.0262 80.8877 22.9079 80.6309 22.7688 80.6783C22.7688 80.6783 22.6049 80.7238 22.6775 81.4925C22.6775 81.4925 22.6775 81.7952 23.0262 81.4925L23.2097 81.54C23.2097 81.54 23.8388 82.052 24.3728 81.4224C24.3728 81.4224 24.9558 80.8877 24.5358 80.2367C24.5358 80.2367 24.2338 79.773 23.6993 79.5397C23.6993 79.5397 23.1872 79.3048 23.0717 78.9097C23.0717 78.9097 23.2347 78.2105 23.8616 78.5829C23.8616 78.5829 24.0949 78.8623 24.2338 78.9097C24.2338 78.9097 24.4204 78.9097 24.3728 78.4891L24.3289 78.1426C24.3289 78.1426 24.2822 77.8835 23.9552 78.1426C23.9552 78.1426 23.6524 78.2574 23.5821 78.1426Z" fill="#172240"></path> <path d="M20.7438 77.6523C20.9061 77.7708 20.9295 78.0027 20.9295 78.0027C21.3948 79.2351 21.7912 81.0285 21.7912 81.0285C21.9067 81.2589 22.1167 81.4462 22.1167 81.4462C22.5124 81.5851 22.1167 81.7007 22.1167 81.7007C21.9536 81.7717 21.4197 81.6795 21.4197 81.6795C21.1387 81.6297 21.2543 81.5391 21.2543 81.5391C21.372 81.4227 21.2784 80.956 21.2784 80.956C21.2543 80.7718 21.0467 80.4683 21.0467 80.4683C20.9538 80.4213 20.7906 80.6306 20.7906 80.6306C20.7906 80.6306 20.5354 80.7242 20.5105 80.6306C20.487 80.5361 20.3247 80.448 20.3247 80.448C20.0452 80.448 19.9298 81.1417 19.9298 81.1417C20.0921 81.7241 19.9298 81.6297 19.9298 81.6297C19.7909 81.8179 19.3475 81.6795 19.3475 81.6795C19.1383 81.6297 19.2795 81.4674 19.2795 81.4674C19.534 81.4227 19.6034 81.1417 19.6034 81.1417C19.7206 80.9794 20.4636 77.9552 20.4636 77.9552C20.5354 77.8146 20.5806 77.5359 20.7438 77.6523ZM20.3731 79.1875C20.3488 79.3045 20.185 79.9562 20.185 79.9562L20.3247 80.1911C20.3247 80.1911 20.6977 80.2123 20.8366 80.2123C20.9748 80.2123 20.9998 80.0982 20.9998 79.9795C20.9998 79.8642 20.7438 79.1663 20.7438 79.1663L20.6261 79.0266L20.3731 79.1875Z" fill="#172240"></path> <path d="M14.4405 72.0171C14.4405 72.0171 14.1838 72.8333 13.0436 71.9937L9.13472 71.9C9.13472 71.9 8.62279 72.0647 8.55249 71.5286C8.55249 71.5286 8.64622 70.4593 8.59781 70.3655C8.59781 70.3655 8.62279 70.0619 8.11 70.0619C8.11 70.0619 7.32012 70.157 7.29737 69.4587C7.29737 69.4587 7.15694 68.7117 8.25042 68.7374C8.25042 68.7374 8.59781 68.8997 8.62279 68.4574C8.62279 68.4574 8.57592 65.4328 8.59781 65.1988C8.59781 65.1988 8.69291 64.9224 8.15755 64.8747C8.15755 64.8747 7.38871 65.0363 7.29737 64.5244C7.29737 64.5244 7.24982 63.7579 7.76107 63.7104C7.76107 63.7104 8.38948 63.7579 8.50648 63.597C8.50648 63.597 8.64622 63.687 8.62279 63.128L8.64622 62.1751C8.64622 62.1751 8.71635 61.919 9.10975 61.9425C9.10975 61.9425 9.83326 61.9885 9.92682 61.919C9.92682 61.919 10.0893 61.7107 10.1338 61.6161C10.1338 61.6161 10.5084 61.5942 10.5778 61.6849C10.5778 61.6849 11.1351 62.0595 13.2548 61.919C13.2548 61.919 13.5788 61.919 13.6491 62.0128C13.6491 62.0128 14.044 62.3147 14.2766 61.9885C14.2766 61.9885 14.6256 61.919 15.6735 61.9425C15.6735 61.9425 16.8117 62.2445 17.6039 61.5942L17.8591 61.642C17.8591 61.642 18.1846 62.1751 18.4195 62.0128C18.4195 62.0128 19.1165 61.9425 19.2335 62.0829C19.2335 62.0829 19.4668 62.4318 19.3483 63.3403C19.3483 63.3403 19.21 63.7352 19.8845 63.7352C19.8845 63.7352 20.6516 63.597 20.5596 64.3152C20.5596 64.3152 20.7695 65.1301 19.4895 65.0144C19.4895 65.0144 19.3257 65.2477 19.3483 65.4102C19.3483 65.4102 19.3257 68.0616 19.3029 68.3659C19.3029 68.3659 19.2803 68.782 19.8385 68.7608C19.8385 68.7608 20.583 68.7117 20.6056 69.3892C20.6056 69.3892 20.6985 70.2727 19.6291 70.1088C19.6291 70.1088 19.3029 70.157 19.2554 70.3655L19.21 71.5286C19.21 71.5286 19.2335 72.1107 18.5803 71.9718C18.4874 71.9718 14.9526 72.0406 14.6488 71.9492C14.6488 71.9492 14.4865 71.9258 14.4405 72.0171Z" fill="#6D80B0"></path> <path d="M14.4401 72.0171C14.4401 72.0171 14.1834 72.8334 13.0432 71.9936L9.13367 71.9001C9.13367 71.9001 8.62156 72.0646 8.55144 71.5279C8.55144 71.5279 8.64585 70.4585 8.59745 70.3648C8.59745 70.3648 8.62156 70.062 8.10878 70.062C8.10878 70.062 7.3189 70.1571 7.29632 69.4586C7.29632 69.4586 7.15658 68.7109 8.25006 68.7366C8.25006 68.7366 8.59745 68.8991 8.62156 68.4573C8.62156 68.4573 8.5747 65.4314 8.59745 65.1981C8.59745 65.1981 8.69255 64.9208 8.1565 64.8739C8.1565 64.8739 7.38766 65.0357 7.29632 64.5229C7.29632 64.5229 7.24877 63.7563 7.7607 63.7096C7.7607 63.7096 8.38826 63.7563 8.50611 63.5949C8.50611 63.5949 8.64585 63.6862 8.62156 63.1272L8.64585 62.1735C8.64585 62.1735 8.7153 61.9176 9.10938 61.9417C9.10938 61.9417 9.83221 61.987 9.92577 61.9176C9.92577 61.9176 10.0889 61.71 10.1334 61.6154C10.1334 61.6154 10.5071 61.5928 10.5774 61.6841C10.5774 61.6841 11.134 62.058 13.2545 61.9176C13.2545 61.9176 13.5784 61.9176 13.6487 62.0112C13.6487 62.0112 14.0436 62.3132 14.2763 61.987C14.2763 61.987 14.6259 61.9176 15.6732 61.9417C15.6732 61.9417 16.8122 62.2422 17.6036 61.5928L17.8595 61.6403C17.8595 61.6403 18.185 62.1735 18.4191 62.0112C18.4191 62.0112 19.1161 61.9417 19.2347 62.0806C19.2347 62.0806 19.4664 62.4304 19.3487 63.338C19.3487 63.338 19.2097 63.7344 19.8841 63.7344C19.8841 63.7344 20.6528 63.5949 20.5592 64.3138C20.5592 64.3138 20.7691 65.1293 19.4899 65.013C19.4899 65.013 19.3253 65.2463 19.3487 65.4095C19.3487 65.4095 19.3253 68.0608 19.3034 68.3644C19.3034 68.3644 19.28 68.7819 19.8381 68.7609C19.8381 68.7609 20.5826 68.7109 20.6061 69.3891C20.6061 69.3891 20.6981 70.2719 19.6287 70.108C19.6287 70.108 19.3034 70.1571 19.2559 70.3648L19.2097 71.5279C19.2097 71.5279 19.2347 72.1108 18.5808 71.9717C18.4879 71.9717 14.9522 72.0398 14.6485 71.9485C14.6485 71.9485 14.4861 71.9257 14.4401 72.0171Z" stroke="#6D80B0" stroke-width="0.00171044"></path> <path d="M10.0429 62.4319C10.0429 62.4319 10.0898 62.8963 10.0898 63.0126C10.0898 63.129 10.0188 69.7374 10.0188 69.7374C10.0188 69.7374 10.0898 70.2509 9.64658 70.5054C9.64658 70.5054 9.53095 70.5529 9.50684 70.2274L9.55439 63.2468C9.55439 63.2468 9.6004 62.3851 10.0429 62.4319Z" fill="#A8B7D5"></path> <path d="M10.0437 62.4318C10.0437 62.4318 10.0904 62.8961 10.0904 63.0125C10.0904 63.1288 10.0195 69.7379 10.0195 69.7379C10.0195 69.7379 10.0904 70.2514 9.64658 70.5074C9.64658 70.5074 9.53095 70.5543 9.50684 70.2288L9.55285 63.2473C9.55285 63.2473 9.59971 62.3856 10.0437 62.4318Z" stroke="#6D80B0" stroke-width="0.00205252"></path> <path d="M9.27425 70.5749C9.27425 70.5749 9.31958 64.0133 9.29768 63.8962C9.27425 63.7814 9.31958 63.9906 9.31958 63.9906C9.31958 63.9906 9.25167 62.8518 9.55357 62.3852C9.55357 62.3852 9.46 61.9894 8.92464 62.4772L8.90343 63.4318C8.90343 63.4318 8.90343 63.9672 8.41339 63.9437C8.41339 63.9437 7.85459 63.9196 7.59785 64.1772C7.59785 64.1772 7.45879 64.6883 7.99279 64.5963C7.99279 64.5963 8.83176 64.5963 8.87777 64.9428L8.83176 68.4574C8.83176 68.4574 9.0182 69.039 8.36584 69.039C8.36584 69.039 7.5751 68.9943 7.59785 69.483C7.59785 69.483 7.76086 69.902 8.43682 69.7616C8.43682 69.7616 8.92464 69.8552 8.90343 70.3182V71.2047C8.90343 71.2047 8.85434 71.5543 9.31958 71.5755H12.9503C12.9503 71.5755 13.1362 71.5988 13.1362 71.3655C13.1362 71.3655 13.1126 71.182 12.8349 71.182L9.81116 71.1337C9.81116 71.1337 9.31958 71.2969 9.27425 70.5749Z" fill="#A8B7D5"></path> <path d="M9.90269 70.6233C9.90269 70.6233 9.81049 70.9504 10.1579 70.8785H12.5547L13.2064 71.0176C13.2064 71.0176 13.883 70.8551 13.2064 70.482C13.2064 70.482 11.0656 70.507 10.879 70.4601C10.879 70.4601 10.4381 70.344 10.3445 70.3204C10.3445 70.3204 10.1112 70.2284 9.90269 70.6233Z" fill="#A8B7D5"></path> <path d="M9.90171 70.622C9.90171 70.622 9.80952 70.9504 10.1569 70.8772H12.5546L13.2071 71.0176C13.2071 71.0176 13.8836 70.8553 13.2071 70.4815C13.2071 70.4815 11.0653 70.5063 10.8789 70.4581C10.8789 70.4581 10.4371 70.3425 10.3435 70.3199C10.3435 70.3199 10.11 70.227 9.90171 70.622Z" stroke="#6D80B0" stroke-width="0.00205252"></path> <path d="M13.8827 70.9495C13.8827 70.9495 13.4395 70.9495 13.4628 71.5279C13.4628 71.5279 13.5097 71.9727 13.974 71.9727C13.974 71.9727 14.3933 71.9003 14.3479 71.4373C14.3479 71.4373 14.091 70.8544 13.8827 70.9495Z" fill="#A8B7D5"></path> <path d="M14.2072 70.7143C14.2072 70.7143 14.4157 70.4817 14.5568 70.4817C14.5568 70.4817 16.8828 70.6917 17.2785 70.4129C17.2785 70.4129 17.6288 70.3435 17.7203 70.4129C17.7203 70.4129 18.0692 70.6917 18.0692 70.854C18.0692 70.854 18.0465 71.0654 17.6288 70.9491C17.6288 70.9491 14.9971 70.971 14.8589 70.971C14.8589 70.971 14.1369 71.1333 14.2072 70.7143Z" fill="#A8B7D5"></path> <path d="M14.2062 70.7135C14.2062 70.7135 14.4154 70.4802 14.5558 70.4802C14.5558 70.4802 16.8826 70.6909 17.2782 70.4121C17.2782 70.4121 17.6293 70.342 17.7207 70.4121C17.7207 70.4121 18.0696 70.6909 18.0696 70.8539C18.0696 70.8539 18.047 71.0655 17.6293 70.9483C17.6293 70.9483 14.9977 70.9711 14.8579 70.9711C14.8579 70.9711 14.1359 71.1334 14.2062 70.7135Z" stroke="#6D80B0" stroke-width="0.00205252"></path> <path d="M14.5796 71.4138C14.5796 71.4138 14.5796 71.2288 14.9035 71.2288L18.1636 71.2047C18.1636 71.2047 18.4648 71.3654 18.4648 70.8089C18.4648 70.8089 18.5842 68.2716 18.5948 65.479C18.5993 64.6484 18.6355 63.7762 18.6039 62.968C18.6039 62.968 18.5345 62.62 18.4416 62.5481C18.4416 62.5481 18.4416 62.1759 18.8387 62.3171C18.8387 62.3171 19.1853 62.3391 19.0931 62.8736L19.1158 63.6885C19.1158 63.6885 19.0464 64.0374 19.6746 63.9445C19.6746 63.9445 20.3022 64.0374 20.3248 64.27C20.3248 64.27 20.5129 64.7366 19.7691 64.6891H19.2344C19.2344 64.6891 19.0011 64.8281 19.0705 65.1083L19.0011 68.4815C19.0011 68.4815 18.9527 69.063 19.513 69.0418C19.513 69.0418 20.0946 69.0177 20.2093 69.2034C20.2093 69.2034 20.6065 69.7857 19.7449 69.739C19.7449 69.739 19.2094 69.7147 19.0931 69.8076C19.0931 69.8076 19.0011 69.9261 18.9308 71.0182C18.9308 71.0182 18.9768 71.6699 18.4883 71.5996C18.4883 71.5996 15.2538 71.6449 14.9526 71.5762C14.9526 71.5762 14.6256 71.6699 14.5796 71.4138Z" fill="#A8B7D5"></path> <path d="M10.3896 62.221L10.3217 69.691C10.3217 69.691 10.2982 70.0377 10.8796 70.1078C10.8796 70.1078 11.5556 70.1781 11.7172 70.1078C11.7172 70.1078 12.1582 70.0852 13.2992 70.1321C13.2992 70.1321 13.5787 70.4099 13.6013 70.0627C13.6013 70.0627 13.7879 64.0115 13.6948 62.7557C13.6948 62.7557 13.6722 62.221 13.2751 62.1976C13.2751 62.1976 11.508 62.3366 11.3448 62.1976L10.6478 62.011C10.6478 62.011 10.367 62.033 10.3896 62.221Z" fill="#A8B7D5"></path> <path d="M17.7664 62.4997L17.7437 69.8534C17.7437 69.8534 17.9303 70.5068 18.2339 70.4372C18.2339 70.4372 18.2799 70.2968 18.3026 70.0626L18.397 63.0579C18.397 63.0579 18.1636 61.9408 17.7664 62.4997Z" fill="#A8B7D5" stroke="#6D80B0" stroke-width="0.00205252"></path> <path d="M17.7664 62.4997L17.7437 69.8534C17.7437 69.8534 17.9303 70.5068 18.2339 70.4372C18.2339 70.4372 18.2799 70.2968 18.3026 70.0626L18.397 63.0579C18.397 63.0579 18.1636 61.9408 17.7664 62.4997Z" stroke="#6D80B0" stroke-width="0.00205252"></path> <path d="M14.0688 62.5637C14.0688 62.5637 13.9986 66.0768 14.0205 66.1946L13.9766 69.1503L13.8823 70.1712C13.8823 70.1712 14.0205 70.3835 14.1375 70.2429C14.1375 70.2429 14.8829 70.0578 15.348 70.1268C15.348 70.1268 16.838 70.2672 17.1393 70.0337C17.1393 70.0337 17.372 70.1493 17.4421 69.777C17.4421 69.777 17.5343 63.2629 17.4881 63.146C17.4881 63.146 17.5818 62.2163 17.5343 62.1243C17.5343 62.1243 17.5108 61.9127 17.1174 62.0978C17.1174 62.0978 17.1626 62.2858 14.9531 62.2163C14.9531 62.2163 14.1149 62.1922 14.0688 62.5637Z" fill="#A8B7D5"></path> <path d="M13.3503 64.7148L13.1397 65.1589C13.1397 65.1589 12.6299 67.4146 12.3512 67.879C12.3512 67.879 12.3044 68.3457 11.9087 67.9725C11.9087 67.9725 11.0003 65.1113 10.9541 65.0177L10.6514 64.8084C10.6514 64.8084 10.4679 64.5525 10.7918 64.5298L11.6527 64.5525C11.6527 64.5525 11.9313 64.7843 11.5598 65.0432C11.5598 65.0432 11.606 65.4149 12.0945 66.8323C12.0945 66.8323 12.2334 67.3677 12.3966 66.9719L12.8625 65.3196L12.7227 64.8311C12.7227 64.8311 12.5823 64.5985 12.793 64.5759C12.793 64.5759 13.2817 64.5298 13.3503 64.7148Z" fill="#172240"></path> <path d="M14.701 65.0883L14.676 67.5547L14.6081 67.7405C14.6081 67.7405 14.3748 68.0418 14.5371 68.066C14.5371 68.066 14.3295 68.2064 16.0255 68.229C16.0255 68.229 16.6787 68.3446 16.5149 67.5072C16.5149 67.5072 16.4454 67.2049 16.2113 67.6476C16.2113 67.6476 16.1418 68.0182 15.3059 67.9028C15.3059 67.9028 15.1193 67.7405 15.1193 67.5547V66.53C15.1193 66.53 15.0945 66.2731 15.4908 66.2996C15.4908 66.2996 15.9326 66.5775 16.0029 66.4597C16.0029 66.4597 16.1653 66.0889 16.0029 65.8556C16.0029 65.8556 15.7929 65.8337 15.7703 65.9265C15.7703 65.9265 15.6306 66.2043 15.235 66.0413C15.235 66.0413 15.0492 65.6698 15.1653 65.3669C15.1653 65.3669 15.1193 64.7848 15.5151 64.8322C15.5151 64.8322 15.9802 64.9244 16.0255 65.0657C16.0255 65.0657 16.1418 65.3458 16.2597 65.0197L16.1418 64.6223C16.1418 64.6223 16.0739 64.4592 15.9568 64.506C15.9568 64.506 15.1653 64.6223 15.0711 64.5279L14.4427 64.5989C14.4427 64.5989 14.3507 64.8322 14.6308 64.9471C14.6308 64.9471 14.701 64.9947 14.701 65.0883Z" fill="#172240"></path> </g> </g> <defs> <clipPath id="clip0_174_2790"> <rect width="144" height="37.6715" fill="white" transform="translate(3 56.25)"></rect> </clipPath> </defs> </svg> 