<?xml version="1.0" encoding="UTF-8"?> <svg xmlns="http://www.w3.org/2000/svg" width="25" height="25" viewBox="0 0 25 25" fill="none"> <path d="M21.8729 7.58872C22.0129 7.12372 21.8729 6.78271 21.2109 6.78271H19.0179C18.4599 6.78271 18.2049 7.07772 18.0649 7.40172C18.0649 7.40172 16.9499 10.1207 15.3699 11.8837C14.8599 12.3967 14.6269 12.5587 14.3489 12.5587C14.2099 12.5587 14.0079 12.3967 14.0079 11.9317V7.58872C14.0079 7.03072 13.8469 6.78271 13.3819 6.78271H9.93595C9.58795 6.78271 9.37794 7.04072 9.37794 7.28672C9.37794 7.81472 10.1679 7.93672 10.2489 9.42472V12.6527C10.2489 13.3597 10.1219 13.4887 9.84195 13.4887C9.09895 13.4887 7.29095 10.7597 6.21795 7.63572C6.00895 7.02872 5.79795 6.78372 5.23795 6.78372H3.04595C2.41895 6.78372 2.29395 7.07872 2.29395 7.40272C2.29395 7.98472 3.03695 10.8647 5.75495 14.6737C7.56695 17.2747 10.1179 18.6847 12.4419 18.6847C13.8349 18.6847 14.0069 18.3717 14.0069 17.8317V15.8657C14.0069 15.2397 14.1399 15.1137 14.5809 15.1137C14.9049 15.1137 15.4629 15.2777 16.7639 16.5307C18.2499 18.0167 18.4959 18.6837 19.3309 18.6837H21.5229C22.1489 18.6837 22.4619 18.3707 22.2819 17.7527C22.0849 17.1377 21.3749 16.2427 20.4329 15.1837C19.9209 14.5797 19.1559 13.9297 18.9229 13.6047C18.5979 13.1857 18.6919 13.0007 18.9229 12.6287C18.9239 12.6297 21.5949 8.86772 21.8729 7.58872Z" fill="white"></path> </svg> 