<?xml version="1.0" encoding="UTF-8"?> <svg xmlns="http://www.w3.org/2000/svg" width="30" height="30" viewBox="0 0 30 30" fill="none"><circle cx="15" cy="15" r="15" fill="#52BEDA"></circle><path d="M20.9062 8.25H9.09375C8.21475 8.25 7.5 8.92275 7.5 9.75V20.25C7.5 21.0773 8.21475 21.75 9.09375 21.75H20.9062C21.7853 21.75 22.5 21.0773 22.5 20.25V9.75C22.5 8.92275 21.7853 8.25 20.9062 8.25ZM20.9062 20.25H9.09375C9.051 20.25 9.02175 20.238 9.009 20.238C9.00375 20.238 9.00075 20.2395 9 20.244L8.991 9.7845C8.99625 9.777 9.03 9.75 9.09375 9.75H20.9062C20.9655 9.75075 20.9977 9.771 21 9.756L21.009 20.2155C21.0037 20.223 20.97 20.25 20.9062 20.25Z" fill="white"></path><path d="M10.5 11.25H15V15.75H10.5V11.25ZM15.75 17.25H10.5V18.75H19.5V17.25H16.5H15.75ZM16.5 14.25H19.5V15.75H16.5V14.25ZM16.5 11.25H19.5V12.75H16.5V11.25Z" fill="white"></path></svg> 