<?xml version="1.0" encoding="UTF-8"?> <svg xmlns="http://www.w3.org/2000/svg" width="30" height="30" viewBox="0 0 30 30" fill="none"><circle cx="15" cy="15" r="15" fill="#52BEDA"></circle><path d="M20.9272 12.4395C20.8917 12.3581 20.8419 12.2837 20.7803 12.2198L16.2802 7.71975C16.2163 7.65809 16.1419 7.60831 16.0605 7.57275C16.038 7.56225 16.014 7.55625 15.99 7.548C15.9272 7.52664 15.8619 7.51378 15.7957 7.50975C15.78 7.50825 15.7657 7.5 15.75 7.5H10.5C9.67275 7.5 9 8.17275 9 9V21C9 21.8273 9.67275 22.5 10.5 22.5H19.5C20.3273 22.5 21 21.8273 21 21V12.75C21 12.7343 20.9917 12.72 20.9902 12.7035C20.9866 12.6373 20.9737 12.5719 20.952 12.5092C20.9445 12.4852 20.9377 12.462 20.9272 12.4395ZM18.4395 12H16.5V10.0605L18.4395 12ZM10.5 21V9H15V12.75C15 12.9489 15.079 13.1397 15.2197 13.2803C15.3603 13.421 15.5511 13.5 15.75 13.5H19.5L19.5015 21H10.5Z" fill="white"></path><path d="M12 15H18V16.5H12V15ZM12 18H18V19.5H12V18ZM12 12H13.5V13.5H12V12Z" fill="white"></path></svg> 