<?xml version="1.0" encoding="UTF-8"?> <svg xmlns="http://www.w3.org/2000/svg" width="34" height="34" viewBox="0 0 34 34" fill="none"><path d="M24.8335 6.08398H14.4168C13.2679 6.08398 12.3335 7.01835 12.3335 8.16731V12.334H8.16683C7.01787 12.334 6.0835 13.2684 6.0835 14.4173V24.834C6.0835 25.983 7.01787 26.9173 8.16683 26.9173H18.5835C19.7325 26.9173 20.6668 25.983 20.6668 24.834V20.6673H24.8335C25.9825 20.6673 26.9168 19.733 26.9168 18.584V8.16731C26.9168 7.01835 25.9825 6.08398 24.8335 6.08398ZM8.16683 24.834V14.4173H18.5835L18.5856 24.834H8.16683ZM24.8335 18.584H20.6668V14.4173C20.6668 13.2684 19.7325 12.334 18.5835 12.334H14.4168V8.16731H24.8335V18.584Z" fill="#182849"></path><path d="M10.25 16.5H16.5V18.5833H10.25V16.5ZM10.25 20.6667H16.5V22.75H10.25V20.6667Z" fill="#182849"></path></svg> 