<?xml version="1.0" encoding="UTF-8"?> <svg xmlns="http://www.w3.org/2000/svg" width="1084" height="243" viewBox="0 0 1084 243" fill="none"><g clip-path="url(#clip0_3092_383)"><path d="M47 96.8401C46.9999 96.3167 47.1943 95.812 47.5454 95.424C47.8965 95.0359 48.3793 94.7922 48.9 94.7401C49.298 94.6323 49.7217 94.6746 50.0905 94.859C50.4594 95.0434 50.7475 95.357 50.9 95.7401C51.1387 96.1675 51.2213 96.6646 51.1337 97.1462C51.0462 97.6278 50.7938 98.064 50.42 98.3801C50.0966 98.699 49.6696 98.8914 49.2165 98.9226C48.7634 98.9538 48.3141 98.8216 47.95 98.5501C47.6585 98.3702 47.418 98.1186 47.2517 97.8191C47.0853 97.5197 46.9987 97.1826 47 96.8401Z" fill="#12284C"></path><path d="M123.75 76.9096C136.06 76.9096 148.38 76.9796 160.75 76.8496C163.47 76.8496 164.55 77.4796 164.53 80.3596C164.46 86.9696 164.68 93.5796 164.86 100.19C164.92 102.28 164.94 104.08 162.25 104.65C159.37 105.26 159.54 103.03 158.91 101.48C157.633 98.0757 155.918 94.8521 153.81 91.8896C150.11 86.9996 145.33 83.9996 139.12 83.6096C136.64 83.4396 134.12 83.4496 131.64 83.4496C120.33 83.4496 120.27 83.4496 120.04 94.5296C119.88 102.63 120.04 110.74 119.79 118.83C119.71 121.66 120.57 122.77 123.44 122.31C124.924 122.126 126.416 122.023 127.91 122C136.53 121.53 138.85 119.84 141.58 111.73C142.11 110.16 142.06 108.47 144.58 108.73C147.46 108.98 146.38 111.08 146.4 112.44C146.49 121.04 146.47 129.64 146.4 138.24C146.4 139.56 147.02 141.35 144.53 141.47C142.53 141.56 142.25 140.36 141.71 138.82C138.3 129.07 132 125.68 121.55 127.52C119.48 127.89 119.72 129.03 119.76 130.3C120.02 139.38 119.68 148.49 120.85 157.54C121.85 164.91 124.31 167.42 131.9 168.43C133.6 168.65 135.34 168.57 135.19 171.06C135.04 173.55 133.28 172.92 131.89 172.92C116.737 172.92 101.59 172.92 86.4504 172.92C85.1304 172.92 83.6804 173.18 83.4504 171.21C83.2204 169.24 84.2704 168.74 86.0204 168.37C94.4004 166.63 96.4104 164.37 97.0204 155.82C98.5754 135.039 98.5754 114.171 97.0204 93.3896C96.3904 84.8196 94.4504 82.6996 85.8804 80.9996C84.3404 80.6896 83.4304 80.3496 83.4504 78.6296C83.4504 76.4496 85.0804 76.9296 86.2904 76.9196C98.7637 76.8996 111.25 76.8963 123.75 76.9096Z" fill="#12284C"></path><path d="M479.73 115.279C479.85 117.419 479.89 119.569 480.13 121.699C480.31 123.249 479.39 123.649 478.25 124.129C476.39 124.899 476.41 123.319 476.03 122.389C474.933 119.271 473.408 116.319 471.5 113.619C470.26 111.847 468.635 110.378 466.748 109.322C464.861 108.266 462.759 107.649 460.6 107.519C455.17 107.189 451.6 109.289 450.02 113.799C448.44 118.309 449.76 122.579 454.07 125.479C458.07 128.169 462.59 129.869 467.07 131.609C480.86 136.979 485.07 143.079 483.41 155.089C482.01 165.219 473.13 172.869 460.88 174.089C451.59 175 442.212 174.072 433.28 171.359C430.58 170.559 429.53 169.359 429.65 166.519C429.82 162.399 429.51 158.259 429.53 154.129C429.53 152.479 428.6 150.279 431.34 149.709C434.08 149.139 433.69 151.709 434.23 152.899C435.897 157.038 438.406 160.784 441.6 163.899C445.68 167.659 450.6 168.789 455.93 168.019C460.24 167.409 463.31 165.019 464.27 160.629C465.23 156.239 464.27 152.429 460.34 149.719C457.45 147.719 454.16 146.549 450.92 145.289C448.15 144.199 445.35 143.169 442.63 141.949C435.11 138.589 430.85 132.869 430.91 124.569C430.97 116.499 434.61 110.159 441.84 106.389C453.52 100.299 465.59 101.669 477.67 105.289C479.31 105.789 479.56 106.839 479.53 108.289C479.53 110.599 479.53 112.909 479.53 115.219L479.73 115.279Z" fill="#12284C"></path><path d="M256.05 117.239C260.6 109.469 265.56 103.699 274.05 102.429C275.187 102.214 276.343 102.107 277.5 102.109C284.33 102.399 285.14 103.649 282.66 109.849C282.24 110.919 281.84 111.999 281.41 113.069C280.24 115.979 279.78 119.649 277.69 121.569C275.18 123.869 272.47 119.729 269.49 119.779C267.33 119.779 265.16 119.459 263.02 119.649C257.41 120.179 255.86 121.839 255.85 127.469C255.85 137.709 255.75 147.959 256.15 158.189C256.47 166.359 257.55 167.189 265.46 168.779C266.79 169.029 268.14 168.999 268.06 170.959C267.98 172.919 266.77 172.959 265.35 172.959H228.41C227.07 172.959 225.71 173.119 225.61 171.099C225.51 169.289 226.56 168.769 228.01 168.659C233.21 168.299 234.44 164.659 234.79 160.449C235.875 146.938 235.875 133.361 234.79 119.849C234.44 115.339 233.01 111.769 227.79 111.209C226.86 111.109 225.71 111.009 225.69 109.619C225.69 107.999 226.89 107.969 228.06 107.739C236.38 106.139 244.68 104.529 252.98 102.849C255.35 102.369 256.29 102.979 256.13 105.559C255.89 108.999 256.05 112.469 256.05 117.239Z" fill="#12284C"></path><path d="M511.93 124.79C511.93 110.25 512.04 95.7096 511.84 81.1696C511.84 77.6696 512.84 76.7796 516.28 76.8196C531.07 77.0096 545.88 76.8996 560.68 76.8996C562.77 76.8996 564.92 76.3396 564.8 79.8996C564.68 83.4596 562.38 82.7396 560.37 82.7396C547.9 82.7396 535.42 82.8596 522.95 82.6796C519.66 82.6796 518.31 83.2196 518.42 86.9096C518.707 96.1496 518.707 105.4 518.42 114.66C518.31 118.33 519.64 118.94 522.94 118.87C533.08 118.67 543.23 118.87 553.37 118.78C555.66 118.78 557.48 118.55 557.44 121.95C557.4 125.35 555.44 124.66 553.51 124.66C543.2 124.66 532.89 124.8 522.58 124.59C519.31 124.53 518.38 125.45 518.44 128.71C518.64 140.103 518.64 151.5 518.44 162.9C518.38 166.2 519.36 167.07 522.61 167.03C535.74 166.85 548.88 166.93 562.02 167.03C563.91 167.03 566.4 165.98 566.43 169.78C566.43 173.38 564.27 172.78 562.18 172.78C546.72 172.78 531.25 172.7 515.79 172.85C512.7 172.85 511.84 171.94 511.87 168.92C512 154.2 511.93 139.49 511.93 124.79Z" fill="#12284C"></path><path d="M693 161.07C689.27 165.07 686.1 168.17 682.32 170.61C666.78 180.61 649.63 172.61 648.21 154.42C646.95 138.27 647.99 122.06 647.7 105.87C647.7 103.49 648.48 102.81 650.84 102.77C653.44 102.72 654.25 103.49 654.22 106.11C654.1 119.11 654.14 132.22 654.22 145.27C654.132 148.239 654.296 151.21 654.71 154.15C657.16 168.15 669.52 173.25 681.51 165.25C685.177 162.684 688.5 159.66 691.4 156.25C692.89 154.57 692.92 152.72 692.92 150.73C692.92 136.18 692.92 121.64 692.92 107.1C692.92 104.77 692.47 102.65 696.29 102.72C699.95 102.8 699.23 104.92 699.23 106.94C699.23 127.607 699.23 148.274 699.23 168.94C699.23 170.45 700.33 172.68 697.09 172.87C693.85 173.06 693.66 171.19 693.57 168.87C693.48 166.55 693.24 164.3 693 161.07Z" fill="#12284C"></path><path d="M991 113.93C994.67 110.171 998.823 106.916 1003.35 104.25C1018.36 95.8998 1033.54 103 1036 119.8C1037.8 132.12 1036.41 144.56 1036.74 156.95C1036.84 160.95 1036.67 164.89 1036.74 168.86C1036.81 171.24 1036.74 172.86 1033.47 172.86C1030.36 172.86 1030.02 171.47 1030.04 168.93C1030.13 155.86 1030.04 142.8 1030.04 129.73C1030.04 127.58 1030.04 125.43 1029.82 123.29C1028.61 108.16 1015.48 101.85 1002.64 110.29C999.47 112.38 996.64 115.04 993.64 117.37C991.49 119.03 990.86 121.09 990.88 123.79C991 138.68 990.88 153.56 990.95 168.45C990.95 170.81 991.35 172.93 987.58 172.84C983.81 172.75 984.58 170.62 984.58 168.56C984.58 147.893 984.58 127.226 984.58 106.56C984.58 105 983.64 102.86 986.86 102.76C989.62 102.67 990.3 103.84 990.35 106.2C990.4 108.56 990.78 110.78 991 113.93Z" fill="#12284C"></path><path d="M746.78 174.58C730.78 174.23 721.5 168.73 715.78 157.51C708.47 143.15 710.71 122.7 720.78 111.35C731.5 99.2898 750 97.7598 762 107.9C763.32 109.01 764.82 109.9 762.73 111.66C761.46 112.75 760.9 114.88 758.55 112.71C745.81 100.91 725.55 107.41 720.03 126.23C717.57 134.164 717.619 142.664 720.17 150.57C725.88 168.36 743.67 174.24 759.17 163.57C760.82 162.44 762.26 159.83 764.56 163.31C766.7 166.54 763.79 167.09 762.38 168.09C756.74 172.1 750.58 174.82 746.78 174.58Z" fill="#12284C"></path><path d="M853 134.68C853 141.61 852.87 148.55 853 155.48C853.27 166.77 859.17 171.16 870 168.04C872.32 167.38 873.91 166.6 874.73 169.83C875.58 173.23 872.92 172.67 871.31 173.26C867.361 174.629 863.115 174.909 859.02 174.07C852.27 172.87 847.9 168.07 847.02 160.71C845.43 147.06 846.68 133.33 846.32 119.65C846.32 118.33 846.32 117.01 846.32 115.65C846.32 108.65 846.32 108.65 839.42 108.53C839.08 108.53 838.75 108.53 838.42 108.53C836.55 108.67 835.22 108.4 835.28 105.95C835.33 103.95 836.28 103.6 837.98 103.33C846.71 101.98 846.7 101.92 846.98 92.8904C847.05 90.5804 847.23 88.2704 847.16 85.9604C847.09 83.6504 847.56 82.6804 850.16 82.6304C852.76 82.5804 853.06 83.8304 853.01 85.9304C852.91 90.5504 853.11 95.1804 852.93 99.8004C852.84 102.18 853.61 102.94 856.01 102.8C860.49 102.62 865.01 102.74 869.47 102.8C871.39 102.8 873.42 102.25 873.42 105.53C873.42 108.53 871.86 108.59 869.65 108.53C865.17 108.44 860.65 108.67 856.19 108.44C853.46 108.31 852.89 109.34 852.93 111.83C853.07 119.42 852.98 127.02 852.98 134.61L853 134.68Z" fill="#12284C"></path><path d="M895.29 138.001C895.29 148.221 895.29 158.444 895.29 168.671C895.29 170.841 895.7 172.851 892.2 172.851C888.98 172.851 888.87 171.361 888.88 168.931C888.94 148.151 888.94 127.374 888.88 106.601C888.88 104.181 888.93 102.701 892.19 102.721C895.67 102.721 895.3 104.661 895.29 106.841C895.277 117.228 895.277 127.614 895.29 138.001Z" fill="#12284C"></path><path d="M62.2797 152.341C59.6297 152.341 55.4297 152.821 55.4297 150.511C55.4297 148.721 59.4897 149.191 62.6197 149.161C64.0697 149.161 65.6197 149.221 67.0897 149.161C69.3997 149.021 71.6097 148.291 71.5297 145.571C71.4497 142.851 70.0897 140.731 67.1097 140.571C63.9697 140.361 60.7997 140.571 57.6397 140.491C56.5897 140.491 55.1897 140.921 55.0097 139.121C54.8297 137.321 56.0697 137.401 57.2697 137.401C62.0897 137.401 66.9097 137.401 71.7297 137.401C73.4497 137.401 75.2697 137.821 72.8697 139.721C71.6297 140.721 72.3397 141.181 72.7397 142.071C75.9297 149.161 73.9497 152.241 66.1697 152.391C64.9997 152.361 63.8397 152.341 62.2797 152.341Z" fill="#12284C"></path><path d="M74.2896 110.169C74.2803 110.727 74.2201 111.283 74.1096 111.829C73.6396 113.619 73.5696 116.589 71.1096 115.899C68.6496 115.209 71.1096 113.229 71.4696 111.899C72.0096 109.639 72.3496 107.319 69.9296 106.289C66.9296 105.019 66.4796 107.819 65.5896 109.679C65.3096 110.269 65.1496 110.919 64.8696 111.519C63.7896 113.879 62.4096 115.869 59.3896 115.759C58.3856 115.738 57.4154 115.393 56.6241 114.775C55.8328 114.156 55.2629 113.299 54.9996 112.329C54.5312 111.087 54.3588 109.752 54.4959 108.431C54.633 107.11 55.076 105.839 55.7896 104.719C56.1896 104.009 56.7896 103.789 57.3796 104.209C57.6701 104.367 57.8957 104.621 58.0165 104.929C58.1373 105.236 58.1455 105.577 58.0396 105.889C57.5698 107.105 57.254 108.375 57.0996 109.669C57.0436 110.343 57.2396 111.014 57.6497 111.552C58.0598 112.089 58.6549 112.455 59.3196 112.579C60.6496 112.849 61.4596 111.879 61.9896 110.789C62.5196 109.699 62.8896 108.669 63.3296 107.609C64.5496 104.689 66.1596 102.209 69.9196 102.919C72.7296 103.449 74.3196 106.139 74.2896 110.169Z" fill="#12284C"></path><path d="M74.2404 126.821C74.276 127.324 74.2184 127.829 74.0704 128.311C73.6004 129.951 73.3704 132.731 71.2704 132.111C68.6404 131.331 71.2704 129.511 71.5404 128.111C71.9504 125.941 72.5404 123.551 70.0004 122.521C67.0904 121.371 66.4504 124.011 65.5504 125.911C65.1304 126.801 64.8404 127.751 64.3904 128.631C63.3404 130.701 61.8104 132.061 59.2804 131.791C58.2787 131.748 57.3184 131.379 56.5458 130.74C55.7732 130.101 55.2305 129.227 55.0004 128.251C54.3204 125.621 54.3304 122.981 56.0004 120.661C56.171 120.506 56.3762 120.394 56.599 120.335C56.8217 120.276 57.0554 120.271 57.2804 120.321C57.4434 120.347 57.5984 120.41 57.7333 120.505C57.8683 120.6 57.9796 120.725 58.0588 120.869C58.138 121.014 58.1829 121.175 58.1901 121.34C58.1973 121.505 58.1666 121.67 58.1004 121.821C57.6916 122.722 57.3571 123.655 57.1004 124.611C56.7904 126.341 57.0004 128.031 59.0104 128.611C61.0204 129.191 61.6904 127.791 62.3104 126.361C62.7104 125.451 63.0804 124.541 63.4404 123.621C64.5504 120.801 66.1704 118.501 69.6404 119.181C73.1104 119.861 74.4004 122.521 74.2404 126.821Z" fill="#12284C"></path><path d="M892.47 74.6895C896.16 75.0895 898.34 76.8695 898.05 80.7695C897.79 84.3595 895.59 86.0195 892.12 85.9295C888.29 85.8295 886.37 83.6195 886.55 79.9295C886.73 76.2395 889.08 74.8195 892.47 74.6895Z" fill="#12284C"></path><path d="M64.1996 98.6199H56.7396C56.4956 98.6568 56.2463 98.6361 56.0118 98.5594C55.7772 98.4827 55.5639 98.3521 55.3889 98.178C55.214 98.004 55.0822 97.7915 55.0041 97.5573C54.9261 97.3232 54.904 97.0741 54.9396 96.8299C54.8926 96.5829 54.906 96.3283 54.9787 96.0876C55.0514 95.8469 55.1811 95.6274 55.3569 95.4477C55.5327 95.268 55.7493 95.1334 55.9883 95.0554C56.2273 94.9775 56.4816 94.9584 56.7296 94.9999H72.1596C72.4041 94.9648 72.6535 94.9871 72.8879 95.0651C73.1223 95.1432 73.3353 95.2747 73.51 95.4494C73.6847 95.6241 73.8163 95.8371 73.8943 96.0716C73.9724 96.306 73.9947 96.5554 73.9596 96.7999C73.9596 98.0399 73.3696 98.5699 72.1696 98.5699L64.1996 98.6199Z" fill="#12284C"></path><path d="M352.47 121.819C348.4 110.629 340.25 103.939 327.9 103.229C322.01 102.899 316.49 104.689 311.12 106.899C310.12 105.119 310.54 103.449 310.55 101.899C310.55 93.959 310.71 86.029 310.73 78.099C310.73 76.859 311.67 74.639 308.94 75.149C299.94 76.809 291.01 78.599 282.06 80.379C281.24 80.539 280.47 80.969 280.49 81.999C280.476 82.2075 280.505 82.4166 280.574 82.6137C280.643 82.8107 280.752 82.9918 280.893 83.1459C281.034 83.3 281.205 83.424 281.395 83.5105C281.585 83.597 281.791 83.6441 282 83.649C289.69 84.089 289.59 89.819 289.77 95.139C290.58 119.259 290.7 143.379 289.77 167.499C289.68 169.899 289.86 171.499 292.77 172.009C302.45 173.759 312.19 175.149 322.03 174.139C333.7 172.949 343.58 168.049 349.54 157.669C352.698 152.301 354.603 146.288 355.11 140.08C355.618 133.872 354.715 127.629 352.47 121.819ZM327.1 162.819C325.776 165.326 323.669 167.331 321.1 168.529C314.69 171.529 311.16 169.639 311.04 162.769C310.9 155.189 310.53 153.369 310.53 145.769C310.41 145.769 310.76 139.999 310.64 139.999C310.64 131.919 310.85 123.829 310.54 115.749C310.39 111.949 312.02 110.929 315.35 110.689C322.21 110.209 327.49 113.029 330.15 119.919C335.79 134.609 334.46 148.999 327.1 162.819Z" fill="#12284C"></path><path d="M224.36 130.519C222.36 119.519 217.56 110.519 206.92 105.659C180.83 93.6594 154.51 110.499 154.57 139.059C154.63 167.219 180.57 183.209 206.17 170.849C220.24 164.049 227.53 147.709 224.36 130.519ZM201.09 158.739C200.531 160.627 199.805 162.461 198.92 164.219C194.61 172.139 186.49 172.219 181.77 164.499C179.365 160.368 177.894 155.76 177.46 150.999C176.22 139.819 175.92 128.659 178.76 117.639C179.225 115.899 179.896 114.22 180.76 112.639C184.76 105.289 192.76 104.789 197.6 111.639C200.6 115.909 201.86 120.919 202.6 125.989C203.25 130.709 203.4 135.499 203.68 139.079C203 146.409 203.1 152.709 201.09 158.739Z" fill="#12284C"></path><path d="M406.4 103.999C389.65 99.1493 367.75 105.349 361.87 129.239C356.51 150.989 368.66 170.899 389.37 174.079C401.81 175.989 413.14 173.469 422.27 164.149C423.19 163.219 424.39 162.289 423.27 160.799C422.02 159.139 421.01 160.629 419.93 161.169C400.77 170.749 382.93 159.999 381.98 138.439C381.87 135.919 382.62 135.309 384.98 135.349C391.13 135.449 397.28 135.349 403.44 135.349C409.6 135.349 415.74 135.349 421.89 135.349C423.34 135.349 424.73 135.659 425.04 133.349C426.5 121.859 417.57 107.209 406.4 103.999ZM401.4 129.899C398.4 129.899 395.46 129.899 392.48 129.899C381.99 130.169 380.48 130.269 383.74 118.999C384.74 115.499 386.08 112.139 388.74 109.509C392.74 105.509 397.55 105.969 400.23 110.849C403.16 116.179 403.46 122.139 403.6 128.079C403.63 129.689 402.7 129.899 401.38 129.879L401.4 129.899Z" fill="#12284C"></path><path d="M632.17 71.91C632.17 69.43 631.96 68.02 628.79 68C625.4 68 625.57 69.77 625.58 72.06C625.58 84.23 625.58 96.41 625.58 108.65C623.67 108.96 622.68 107.3 621.35 106.47C604.82 96.09 585.35 101.78 577.29 119.56C572.36 130.41 572.29 141.67 575.29 152.98C579.14 167.59 589.41 174.98 604.55 174.4C612.91 174.09 619.02 169.3 625.89 163.66C626.06 166.17 626.25 167.75 626.25 169.34C626.25 171.34 626.37 172.78 629.09 172.83C632.09 172.83 632.09 171.27 632.09 169.07C632.11 136.69 632.136 104.303 632.17 71.91ZM622.33 160.47C617.21 164.47 612.05 168.27 605.2 168.73C596.88 169.29 589.76 166.53 585.75 159.31C578.17 145.68 577.63 131.39 586.02 117.98C595.12 103.44 611.58 103.76 624.22 114.62C625.73 115.92 625.46 117.56 625.47 119.18C625.47 125.11 625.47 131.05 625.47 136.99C625.47 142.6 625.3 148.21 625.53 153.81C625.635 155.104 625.394 156.403 624.832 157.573C624.269 158.744 623.406 159.743 622.33 160.47Z" fill="#12284C"></path><path d="M825.73 128.409C825.708 125.436 825.441 122.469 824.93 119.539C823.03 108.309 815.93 101.619 804.8 101.189C795.41 100.819 786.89 103.999 779 108.899C777.19 110.029 777.57 111.039 778.48 112.409C779.39 113.779 780.03 115.229 782.22 113.699C785.627 111.336 789.368 109.495 793.32 108.239C808 103.479 818.1 109.739 819.25 123.999C819.58 128.089 818.44 129.219 814.38 129.719C803.18 131.079 791.96 132.839 782.3 139.329C774.94 144.329 772.98 151.559 774.3 159.779C775.6 167.649 780.81 172.329 788.46 173.909C795.019 175.405 801.9 174.392 807.75 171.069C811.47 168.929 815.08 166.609 819.39 163.969C819.6 166.339 819.89 168.109 819.89 169.879C819.89 171.879 820.41 172.879 822.71 172.819C825.16 172.819 825.79 171.819 825.77 169.569C825.73 155.849 825.82 142.129 825.73 128.409ZM817.03 159.409C808.59 163.409 802.03 170.409 791.8 168.589C786.63 167.659 782.85 165.169 781.19 160.119C780.253 157.633 780.03 154.934 780.546 152.328C781.062 149.721 782.296 147.311 784.11 145.369C787.65 141.369 792.5 139.579 797.38 138.049C803.429 136.311 809.609 135.064 815.86 134.319C818.44 133.939 819.49 134.319 819.29 137.119C819.09 139.919 819.29 143.049 819.29 146.019C819.29 146.349 819.29 146.679 819.29 147.019C819.37 153.269 819.89 158.069 817 159.439L817.03 159.409Z" fill="#12284C"></path><path d="M970.82 125.5C967.08 111.43 956.82 102.6 942.72 101.21C931.11 100.06 919.08 106.87 913.64 118.32C910.675 124.27 909.097 130.814 909.024 137.462C908.951 144.109 910.386 150.686 913.22 156.7C921.45 174.88 944.7 180.32 959.77 167.81C969.31 159.9 972.32 149.14 972.39 137.72C972.307 133.602 971.781 129.505 970.82 125.5ZM957.22 161.56C954.952 164.063 952.147 166.019 949.015 167.282C945.882 168.544 942.504 169.079 939.135 168.847C935.766 168.615 932.493 167.622 929.563 165.942C926.633 164.263 924.122 161.94 922.22 159.15C913.98 147.61 913.74 129.3 921.67 117.47C931.54 102.72 951.91 103.47 960.74 118.87C963.74 124.2 965.55 131.1 965.58 139.08C965.36 146.64 963.46 154.9 957.22 161.56Z" fill="#12284C"></path><path d="M72.0003 169.519C70.1803 169.519 68.3503 169.519 66.5303 169.519C64.7103 169.519 63.3803 169.799 63.0903 167.929C62.8924 167.125 62.9932 166.276 63.3739 165.54C63.7546 164.805 64.3894 164.232 65.1603 163.929C67.3903 162.839 69.4503 161.429 71.6603 160.309C73.5303 159.369 74.5603 158.179 73.5803 155.529C71.1103 156.929 68.7503 158.129 66.5803 159.529C64.4103 160.929 63.1803 161.729 61.2703 158.759C59.0003 155.209 55.0703 155.099 51.5203 157.189C47.9703 159.279 46.7003 169.429 48.5203 171.929C48.7291 172.171 48.9848 172.367 49.2719 172.506C49.5591 172.645 49.8715 172.725 50.1903 172.739C57.4903 172.799 64.7903 172.789 72.0903 172.789C73.2303 172.789 74.0103 172.439 73.9703 171.119C73.9303 169.799 73.1103 169.519 72.0003 169.519ZM54.2603 169.639C51.8803 169.739 50.5003 169.419 50.9703 165.789C51.3803 162.599 51.2803 159.199 55.8303 159.359C60.3803 159.519 60.1203 162.949 60.4503 166.109C61.0003 170.759 57.8503 169.649 54.2603 169.639Z" fill="#12284C"></path><path d="M73.7698 83.1798C72.8198 79.5098 72.0198 80.7298 72.7698 79.8998C75.6398 76.5798 72.9098 77.0598 70.9298 76.9798C69.4398 76.9198 67.9298 76.9798 66.4498 76.9798C64.9698 76.9798 63.4498 76.9298 61.9698 76.9798C56.0498 77.2198 53.9698 80.5098 54.9698 86.1098C55.2598 87.8398 55.2998 90.8498 57.9698 90.1098C58.9698 89.8398 57.7998 87.4598 57.5098 86.0498C57.3597 85.4153 57.2593 84.77 57.2098 84.1198C57.1317 83.1919 57.4212 82.2704 58.016 81.554C58.6109 80.8376 59.4634 80.3836 60.3898 80.2898C61.9998 79.9998 62.1598 81.9998 62.4598 83.1898C62.8189 84.6227 63.2563 86.0348 63.7698 87.4198C65.0498 90.9298 67.4598 92.5598 71.0998 91.1298C74.9998 89.6198 74.5998 86.3898 73.7698 83.1798ZM68.8598 88.4798C65.0198 88.0798 64.9698 84.5498 64.2798 81.7898C63.7098 79.4798 65.4598 79.9098 66.5798 79.9498C70.5798 80.0498 71.3698 82.1498 71.8098 84.8298C72.1298 86.8098 70.9998 88.7098 68.8598 88.4798Z" fill="#12284C"></path></g><defs><clipPath id="clip0_3092_383"><rect width="989.94" height="107.08" fill="white" transform="translate(47 68)"></rect></clipPath></defs></svg> 