<?xml version="1.0" encoding="UTF-8"?> <svg xmlns="http://www.w3.org/2000/svg" width="40" height="40" viewBox="0 0 40 40" fill="none"> <g clip-path="url(#clip0_550_112)"> <rect width="40" height="40" rx="10" fill="#E6E6E6"></rect> <path d="M31.9912 14.0038C31.8488 13.4755 31.5706 12.9938 31.1841 12.6065C30.7977 12.2192 30.3166 11.9398 29.7887 11.7963C27.8312 11.2588 19.9999 11.25 19.9999 11.25C19.9999 11.25 12.1699 11.2413 10.2112 11.755C9.68358 11.9052 9.20345 12.1885 8.81688 12.5777C8.43031 12.9669 8.15028 13.4489 8.00367 13.9775C7.48742 15.935 7.48242 19.995 7.48242 19.995C7.48242 19.995 7.47742 24.075 7.98992 26.0125C8.27742 27.0838 9.12117 27.93 10.1937 28.2188C12.1712 28.7563 19.9812 28.765 19.9812 28.765C19.9812 28.765 27.8124 28.7738 29.7699 28.2613C30.298 28.1179 30.7796 27.8392 31.167 27.4527C31.5544 27.0662 31.8342 26.5853 31.9787 26.0575C32.4962 24.1013 32.4999 20.0425 32.4999 20.0425C32.4999 20.0425 32.5249 15.9613 31.9912 14.0038ZM17.4949 23.7563L17.5012 16.2563L24.0099 20.0125L17.4949 23.7563Z" fill="#182849"></path> </g> <defs> <clipPath id="clip0_550_112"> <rect width="40" height="40" fill="white"></rect> </clipPath> </defs> </svg> 