<?xml version="1.0" encoding="UTF-8"?> <svg xmlns="http://www.w3.org/2000/svg" viewBox="0 0 100.00 100.00" data-guides="{&quot;vertical&quot;:[],&quot;horizontal&quot;:[]}"><defs></defs><path fill="#f8f8f8" width="100" height="100" id="tSvg3ec1d94073" title="Rectangle 1" fill-opacity="1" stroke="none" stroke-opacity="1" d="M0.0002 0.0001H100.0002V100.0001H0.0002Z" style="transform-origin: 50px 50px;"></path><path fill="#12284c" stroke="none" fill-opacity="1" stroke-width="1" stroke-opacity="1" id="tSvg162fca0b758" title="Path 1" d="M30.5342 34.9919C34.0587 34.9919 36.9159 32.1348 36.9159 28.6103C36.9159 25.0858 34.0587 22.2286 30.5342 22.2286C27.0097 22.2286 24.1525 25.0858 24.1525 28.6103C24.1525 32.1348 27.0097 34.9919 30.5342 34.9919Z"></path><path fill="#12284c" stroke="none" fill-opacity="1" stroke-width="1" stroke-opacity="1" id="tSvg3834a9369a" title="Path 2" d="M42.9437 39.8263C42.9437 51.6281 42.9437 63.4299 42.9437 75.2317C46.608 75.2317 50.2723 75.2317 53.9366 75.2317C53.9366 69.3955 53.9366 63.5592 53.9366 57.7229C53.9366 53.1029 54.8057 48.6288 60.5341 48.6288C66.1837 48.6288 66.2537 53.9109 66.2537 58.0146C66.2537 63.7546 66.2537 69.4946 66.2537 75.2346C69.9199 75.2346 73.5862 75.2346 77.2524 75.2346C77.2524 68.7626 77.2524 62.2905 77.2524 55.8184C77.2524 46.2809 75.1991 38.9513 64.0516 38.9513C58.6995 38.9513 55.112 41.8884 53.6449 44.6679C53.5953 44.6679 53.5458 44.6679 53.4962 44.6679C53.4962 43.0541 53.4962 41.4402 53.4962 39.8263C49.9787 39.8263 46.4612 39.8263 42.9437 39.8263ZM25.0295 39.8263C28.6996 39.8263 32.3698 39.8263 36.0399 39.8263C36.0399 51.6281 36.0399 63.4299 36.0399 75.2317C32.3698 75.2317 28.6996 75.2317 25.0295 75.2317C25.0295 63.4299 25.0295 51.6281 25.0295 39.8263Z"></path></svg> 