<?xml version="1.0" encoding="UTF-8"?> <svg xmlns="http://www.w3.org/2000/svg" width="150" height="150" viewBox="0 0 150 150" fill="none"> <g clip-path="url(#clip0_174_2724)"> <path d="M20.8449 75.1811C19.7972 74.2614 19.519 73.0641 19.519 72.0269C19.519 71.2997 19.7436 70.0382 20.77 69.0973C21.5397 68.3916 22.5556 67.9639 24.1486 67.9639C24.8116 67.9639 25.2072 68.0066 25.699 68.071C26.1052 68.1243 26.4475 68.2204 26.7681 68.2527C26.8859 68.2633 26.9285 68.3167 26.9285 68.3809C26.9285 68.4664 26.8965 68.5947 26.8752 68.9691C26.8538 69.3219 26.8642 69.9098 26.8431 70.1237C26.8323 70.284 26.8111 70.3696 26.7147 70.3696C26.6292 70.3696 26.6078 70.284 26.6078 70.1344C26.5971 69.8028 26.4581 69.4287 26.1909 69.1507C25.838 68.7765 25.004 68.4879 24.0204 68.4879C23.0902 68.4879 22.4807 68.723 22.0101 69.1507C21.2297 69.867 21.0264 70.8829 21.0264 71.92C21.0264 74.4643 22.9617 75.7263 24.3945 75.7263C25.3461 75.7263 25.9235 75.6193 26.3513 75.1272C26.5329 74.9246 26.6719 74.6145 26.7147 74.4219C26.7468 74.2508 26.768 74.2079 26.8538 74.2079C26.9284 74.2079 26.9501 74.283 26.9501 74.3683C26.9501 74.4966 26.8217 75.4267 26.7147 75.7905C26.6613 75.9721 26.6184 76.0256 26.4366 76.1005C26.009 76.2716 25.1965 76.3464 24.5122 76.3464C23.0474 76.3465 21.8178 76.0256 20.8449 75.1811Z" fill="#6D80B0" stroke="#6D80B0" stroke-width="0.0828492"></path> <path d="M28.2964 72.8114C28.2964 71.2816 29.3073 69.3047 31.9913 69.3047C34.2188 69.3047 35.6054 70.6018 35.6054 72.6503C35.6054 74.699 34.1741 76.3182 31.9018 76.3182C29.3342 76.3183 28.2964 74.395 28.2964 72.8114ZM34.3531 72.9817C34.3531 70.9776 33.1991 69.7341 31.7319 69.7341C30.703 69.7341 29.5311 70.3068 29.5311 72.5343C29.5311 74.395 30.5601 75.8712 32.2776 75.8712C32.9037 75.8712 34.3531 75.5668 34.3531 72.9817Z" fill="#6D80B0" stroke="#6D80B0" stroke-width="0.0828492"></path> <path d="M38.8103 73.5974C38.8103 74.7428 38.8103 75.3598 38.9984 75.5207C39.1505 75.6551 39.3829 75.7177 40.0808 75.7177C40.555 75.7177 40.9038 75.7089 41.1275 75.4672C41.235 75.3509 41.3422 75.1007 41.3601 74.9304C41.3692 74.8501 41.3869 74.7961 41.4585 74.7961C41.5212 74.7961 41.53 74.8406 41.53 74.9484C41.53 75.0467 41.4674 75.7177 41.3958 75.9773C41.3422 76.174 41.2975 76.2188 40.8323 76.2188C39.5441 76.2188 38.9537 76.1651 38.2291 76.1651C38.0232 76.1651 37.4595 76.1921 37.1017 76.1921C36.9854 76.1921 36.9228 76.1651 36.9228 76.1027C36.9228 76.0578 36.9586 76.0312 37.066 76.0312C37.2 76.0312 37.3074 76.0131 37.3878 75.9951C37.5669 75.9594 37.6116 75.7627 37.6475 75.5033C37.6921 75.1277 37.6921 74.4208 37.6921 73.5976V72.0231C37.6921 70.6632 37.6921 70.4126 37.6742 70.1266C37.6565 69.8221 37.5849 69.6792 37.2896 69.6165C37.2179 69.5986 37.1107 69.5896 36.9944 69.5896C36.8961 69.5896 36.8423 69.5717 36.8423 69.5092C36.8423 69.4466 36.905 69.4287 37.0392 69.4287C37.4595 69.4287 38.0232 69.4555 38.2647 69.4555C38.4795 69.4555 39.1326 69.4287 39.4814 69.4287C39.6066 69.4287 39.6693 69.4466 39.6693 69.5092C39.6693 69.5717 39.6157 69.5896 39.5083 69.5896C39.4099 69.5896 39.2667 69.5986 39.1595 69.6165C38.9179 69.6612 38.8463 69.8133 38.8285 70.1266C38.8104 70.4125 38.8104 70.6632 38.8104 72.0231V73.5974H38.8103Z" fill="#6D80B0" stroke="#6D80B0" stroke-width="0.0828492"></path> <path d="M43.254 72.0232C43.254 70.6632 43.254 70.4127 43.2359 70.1267C43.2181 69.8222 43.1466 69.6793 42.8513 69.6166C42.7798 69.5987 42.6276 69.5897 42.5023 69.5897C42.404 69.5897 42.3503 69.5718 42.3503 69.5093C42.3503 69.4467 42.4129 69.4288 42.5471 69.4288C43.0213 69.4288 43.5849 69.4556 43.8532 69.4556C44.0678 69.4556 44.6315 69.4288 44.9535 69.4288C45.0877 69.4288 45.1503 69.4467 45.1503 69.5093C45.1503 69.5718 45.0967 69.5897 45.0073 69.5897C44.9088 69.5897 44.8551 69.5987 44.7478 69.6166C44.5062 69.6613 44.4348 69.8134 44.4169 70.1267C44.3988 70.4126 44.3988 70.6632 44.3988 72.0232V73.2754C44.3988 74.5728 44.6582 75.1184 45.0966 75.4761C45.4991 75.8071 45.9108 75.8429 46.2149 75.8429C46.6086 75.8429 47.0916 75.7177 47.4494 75.3598C47.9415 74.8682 47.9685 74.0626 47.9685 73.1415V72.0231C47.9685 70.6632 47.9685 70.4126 47.9506 70.1266C47.9327 69.8221 47.861 69.6792 47.5658 69.6165C47.4942 69.5986 47.3422 69.5896 47.2437 69.5896C47.1454 69.5896 47.0916 69.5717 47.0916 69.5092C47.0916 69.4466 47.1544 69.4287 47.2794 69.4287C47.7357 69.4287 48.2994 69.4555 48.3083 69.4555C48.4156 69.4555 48.9793 69.4287 49.3282 69.4287C49.4535 69.4287 49.5161 69.4466 49.5161 69.5092C49.5161 69.5717 49.4624 69.5896 49.3552 69.5896C49.2565 69.5896 49.2028 69.5986 49.0956 69.6165C48.854 69.6612 48.7825 69.8133 48.7645 70.1266C48.7466 70.4125 48.7466 70.6632 48.7466 72.0231V72.9804C48.7466 73.9735 48.6482 75.0287 47.8969 75.6732C47.2617 76.2188 46.6175 76.3171 46.036 76.3171C45.5619 76.3171 44.7031 76.2903 44.05 75.6998C43.5939 75.2882 43.2539 74.6263 43.2539 73.3292V72.0232H43.254Z" fill="#6D80B0" stroke="#6D80B0" stroke-width="0.0828492"></path> <path d="M51.664 69.4652C51.6907 69.3131 51.7444 69.2324 51.8161 69.2324C51.8875 69.2324 51.9414 69.2773 52.0577 69.51L54.4998 74.5556L56.9333 69.4474C56.9958 69.3042 57.0496 69.2325 57.1302 69.2325C57.2106 69.2325 57.2642 69.3222 57.291 69.51L58.1053 75.0387C58.1858 75.602 58.2751 75.8615 58.5437 75.9424C58.8029 76.0227 58.982 76.0319 59.0982 76.0319C59.1789 76.0319 59.2415 76.0407 59.2415 76.0944C59.2415 76.1658 59.1342 76.1928 59.0088 76.1928C58.7852 76.1928 57.5506 76.1658 57.1928 76.1391C56.9871 76.1212 56.9334 76.0944 56.9334 76.0407C56.9334 75.9958 56.9692 75.9689 57.0318 75.9424C57.0854 75.9243 57.1122 75.808 57.0765 75.5574L56.5399 71.621H56.5039L54.5537 75.6829C54.348 76.1034 54.3032 76.1837 54.2227 76.1837C54.1423 76.1837 54.0527 76.0048 53.9096 75.7366C53.6949 75.3249 52.9882 73.956 52.8808 73.7058C52.8004 73.5177 52.2635 72.3908 51.9504 71.7197H51.9145L51.4494 75.2802C51.4316 75.4411 51.4226 75.5574 51.4226 75.7006C51.4226 75.8707 51.5389 75.9512 51.6908 75.9869C51.852 76.0227 51.9772 76.0319 52.0667 76.0319C52.1383 76.0319 52.2008 76.0495 52.2008 76.0944C52.2008 76.1748 52.1203 76.1928 51.9863 76.1928C51.6104 76.1928 51.2079 76.1658 51.0469 76.1658C50.877 76.1658 50.4475 76.1928 50.1611 76.1928C50.0717 76.1928 50.0002 76.1748 50.0002 76.0944C50.0002 76.0495 50.0538 76.0319 50.1434 76.0319C50.215 76.0319 50.2776 76.0319 50.4118 76.0048C50.6622 75.9512 50.7338 75.6019 50.7785 75.2981L51.664 69.4652Z" fill="#6D80B0" stroke="#6D80B0" stroke-width="0.0828492"></path> <path d="M61.2095 72.0231C61.2095 70.6632 61.2095 70.4126 61.1916 70.1266C61.1737 69.8221 61.1021 69.6792 60.8069 69.6165C60.7356 69.5986 60.5833 69.5896 60.458 69.5896C60.3598 69.5896 60.3059 69.5717 60.3059 69.5092C60.3059 69.4466 60.3684 69.4287 60.5024 69.4287C60.9768 69.4287 61.5404 69.4555 61.7192 69.4555C62.1576 69.4555 62.5064 69.4287 62.8109 69.4287C64.4299 69.4287 64.7162 70.2964 64.7162 70.7705C64.7162 71.5042 64.2957 71.9425 63.8037 72.3362C64.5374 72.5866 65.4317 73.2216 65.4317 74.2682C65.4317 75.2256 64.6892 76.2187 63.0432 76.2187C62.8287 76.2187 62.0146 76.165 61.7462 76.165C61.5404 76.165 60.9768 76.192 60.6189 76.192C60.5024 76.192 60.4401 76.165 60.4401 76.1027C60.4401 76.0577 60.4758 76.0312 60.5831 76.0312C60.7174 76.0312 60.8247 76.013 60.9051 75.995C61.084 75.9593 61.1288 75.7626 61.1646 75.5032C61.2093 75.1276 61.2093 74.4207 61.2093 73.5975V72.0231H61.2095ZM62.2831 72.1752C62.2831 72.2465 62.3098 72.2645 62.3456 72.2735C62.4264 72.2912 62.5604 72.3003 62.7662 72.3003C63.0613 72.3003 63.2582 72.2645 63.4103 72.1304C63.6428 71.9425 63.777 71.6202 63.777 71.1822C63.777 70.5828 63.4281 69.7956 62.6589 69.7956C62.5336 69.7956 62.453 69.7956 62.3635 69.8134C62.3008 69.8313 62.283 69.8671 62.283 69.9656V72.1752H62.2831ZM63.464 72.8909C63.2763 72.7564 63.0703 72.6939 62.7215 72.6762C62.5604 72.667 62.471 72.667 62.3369 72.667C62.3009 72.667 62.2831 72.6851 62.2831 72.7299V74.8501C62.2831 75.4404 62.3098 75.5925 62.5962 75.7091C62.8377 75.8072 63.0433 75.816 63.2491 75.816C63.6518 75.816 64.3317 75.6013 64.3317 74.6712C64.3318 74.1165 64.1439 73.3651 63.464 72.8909Z" fill="#6D80B0" stroke="#6D80B0" stroke-width="0.0828492"></path> <path d="M67.4171 72.0231C67.4171 70.6632 67.4171 70.4126 67.3991 70.1266C67.3813 69.8221 67.292 69.6701 67.0951 69.6254C66.9965 69.5986 66.8805 69.5896 66.7731 69.5896C66.6837 69.5896 66.6299 69.5717 66.6299 69.5001C66.6299 69.4466 66.7016 69.4287 66.8445 69.4287C67.1845 69.4287 67.7482 69.4555 68.0075 69.4555C68.2312 69.4555 68.7592 69.4287 69.0992 69.4287C69.2151 69.4287 69.2868 69.4466 69.2868 69.5001C69.2868 69.5717 69.2334 69.5896 69.1437 69.5896C69.0541 69.5896 68.9829 69.5986 68.8754 69.6165C68.6337 69.6612 68.5624 69.8133 68.5443 70.1266C68.5264 70.4125 68.5264 70.6632 68.5264 72.0231V73.5974C68.5264 74.4651 68.5264 75.1721 68.5623 75.5565C68.5889 75.7983 68.6519 75.9591 68.92 75.9948C69.0453 76.0128 69.2423 76.031 69.3763 76.031C69.4745 76.031 69.5194 76.0576 69.5194 76.1025C69.5194 76.1649 69.448 76.1918 69.3495 76.1918C68.7591 76.1918 68.1953 76.1648 67.9538 76.1648C67.7481 76.1648 67.1844 76.1918 66.8266 76.1918C66.7103 76.1918 66.6478 76.1648 66.6478 76.1025C66.6478 76.0575 66.6836 76.031 66.7908 76.031C66.9251 76.031 67.0324 76.0128 67.1131 75.9948C67.2919 75.9591 67.3457 75.8071 67.3723 75.5477C67.417 75.172 67.417 74.4651 67.417 73.5974V72.0231H67.4171Z" fill="#6D80B0" stroke="#6D80B0" stroke-width="0.0828492"></path> <path d="M72.8617 73.8568C72.8168 73.8568 72.7987 73.8746 72.7811 73.9283L72.298 75.2076C72.2084 75.4313 72.1634 75.6459 72.1634 75.7533C72.1634 75.9143 72.2442 76.0308 72.5216 76.0308H72.6559C72.763 76.0308 72.7898 76.0485 72.7898 76.1023C72.7898 76.1737 72.7364 76.1917 72.6381 76.1917C72.3514 76.1917 71.9671 76.1647 71.6894 76.1647C71.5914 76.1647 71.0992 76.1917 70.634 76.1917C70.5176 76.1917 70.4639 76.1737 70.4639 76.1023C70.4639 76.0485 70.4997 76.0308 70.5715 76.0308C70.6521 76.0308 70.7771 76.0217 70.8486 76.0127C71.2602 75.959 71.4301 75.6548 71.6093 75.2076L73.8544 69.5894C73.962 69.33 74.0155 69.2314 74.1051 69.2314C74.1856 69.2314 74.2392 69.3121 74.3288 69.5179C74.5433 70.0099 75.9748 73.6599 76.5474 75.0196C76.8874 75.8251 77.147 75.9501 77.3348 75.9947C77.4689 76.0217 77.603 76.0308 77.7102 76.0308C77.7817 76.0308 77.8268 76.0397 77.8268 76.1023C77.8268 76.1737 77.7459 76.1917 77.4152 76.1917C77.0931 76.1917 76.44 76.1917 75.7241 76.1737C75.5631 76.1647 75.4559 76.1647 75.4559 76.1023C75.4559 76.0485 75.4921 76.0308 75.5813 76.0216C75.6441 76.0038 75.7068 75.9231 75.6619 75.8156L74.946 73.9192C74.9282 73.8745 74.9011 73.8567 74.8569 73.8567H72.8617V73.8568ZM74.6865 73.4096C74.7313 73.4096 74.7403 73.3825 74.7313 73.3558L73.9262 71.1461C73.9173 71.1104 73.9081 71.0656 73.8816 71.0656C73.8543 71.0656 73.8367 71.1104 73.8281 71.1461L73.0049 73.3468C72.9956 73.3825 73.0049 73.4096 73.0407 73.4096H74.6865Z" fill="#6D80B0" stroke="#6D80B0" stroke-width="0.0828492"></path> <path d="M82.4465 71.2152C82.4465 69.5897 82.4465 69.2904 82.425 68.9484C82.4032 68.5848 82.3182 68.4137 81.9653 68.3389C81.8795 68.3175 81.6979 68.3068 81.5481 68.3068C81.4305 68.3068 81.3665 68.2855 81.3665 68.2106C81.3665 68.1359 81.4413 68.1143 81.6014 68.1143C82.1681 68.1143 82.842 68.1465 83.1629 68.1465C83.4193 68.1465 84.0929 68.1143 84.4777 68.1143C84.6378 68.1143 84.7133 68.1358 84.7133 68.2106C84.7133 68.2855 84.6486 68.3068 84.5418 68.3068C84.4243 68.3068 84.3602 68.3175 84.232 68.3389C83.9431 68.3923 83.8577 68.5741 83.8361 68.9484C83.8148 69.2904 83.8148 69.5898 83.8148 71.2152V72.712C83.8148 74.2621 84.1248 74.9144 84.6486 75.3422C85.13 75.738 85.622 75.7806 85.9854 75.7806C86.4559 75.7806 87.0331 75.6312 87.4607 75.2033C88.0491 74.6153 88.081 73.6529 88.081 72.5516V71.2152C88.081 69.5897 88.081 69.2904 88.0595 68.9484C88.0384 68.5848 87.9527 68.4137 87.5996 68.3389C87.5141 68.3175 87.3323 68.3068 87.2148 68.3068C87.0971 68.3068 87.033 68.2855 87.033 68.2106C87.033 68.1359 87.1076 68.1143 87.2574 68.1143C87.803 68.1143 88.4766 68.1465 88.4874 68.1465C88.6156 68.1465 89.2891 68.1143 89.7059 68.1143C89.8556 68.1143 89.9303 68.1358 89.9303 68.2106C89.9303 68.2855 89.8667 68.3068 89.7379 68.3068C89.6205 68.3068 89.5562 68.3175 89.428 68.3389C89.1392 68.3923 89.0539 68.5741 89.0324 68.9484C89.011 69.2904 89.011 69.5898 89.011 71.2152V72.3593C89.011 73.5458 88.8934 74.8074 87.995 75.5774C87.2364 76.2296 86.4663 76.3471 85.7713 76.3471C85.2043 76.3471 84.1782 76.3149 83.3978 75.6091C82.8522 75.1175 82.4464 74.3266 82.4464 72.776L82.4465 71.2152Z" fill="#6D80B0" stroke="#6D80B0" stroke-width="0.0828492"></path> <path d="M92.1166 74.9751C92.1348 75.673 92.2511 75.905 92.4298 75.9678C92.5821 76.0216 92.7518 76.0309 92.8953 76.0309C92.9936 76.0309 93.0471 76.0485 93.0471 76.1024C93.0471 76.1737 92.967 76.1917 92.8414 76.1917C92.2602 76.1917 91.9021 76.1647 91.7323 76.1647C91.6515 76.1647 91.2313 76.1917 90.766 76.1917C90.6497 76.1917 90.5696 76.1826 90.5696 76.1024C90.5696 76.0485 90.6228 76.0309 90.7121 76.0309C90.8284 76.0309 90.9899 76.0217 91.115 75.9859C91.3475 75.9143 91.3831 75.6549 91.3922 74.8764L91.4728 69.5805C91.4728 69.4016 91.4995 69.2764 91.5887 69.2764C91.6877 69.2764 91.7681 69.3927 91.92 69.5539C92.0273 69.6699 93.3873 71.1283 94.6935 72.4254C95.3016 73.0337 96.5091 74.322 96.6615 74.465H96.7062L96.617 70.4483C96.6079 69.9028 96.5274 69.7327 96.3128 69.6432C96.1787 69.5895 95.9636 69.5895 95.8385 69.5895C95.7308 69.5895 95.6952 69.5626 95.6952 69.5091C95.6952 69.4374 95.7938 69.4286 95.9277 69.4286C96.3932 69.4286 96.8224 69.4554 97.0103 69.4554C97.1091 69.4554 97.4486 69.4286 97.8873 69.4286C98.0032 69.4286 98.0928 69.4374 98.0928 69.5091C98.0928 69.5626 98.0391 69.5895 97.9318 69.5895C97.8422 69.5895 97.7711 69.5895 97.6632 69.6164C97.4131 69.6879 97.3412 69.8758 97.3323 70.3768L97.234 76.0217C97.234 76.2186 97.1983 76.2993 97.1177 76.2993C97.0194 76.2993 96.9116 76.2006 96.8135 76.1025C96.2502 75.5655 95.1052 74.3935 94.1747 73.4722C93.1993 72.5059 92.2064 71.3878 92.045 71.2178H92.0183L92.1166 74.9751Z" fill="#6D80B0" stroke="#6D80B0" stroke-width="0.0828492"></path> <path d="M100.375 72.0231C100.375 70.6632 100.375 70.4126 100.358 70.1266C100.34 69.8221 100.25 69.6701 100.054 69.6254C99.9552 69.5986 99.8385 69.5896 99.7316 69.5896C99.6421 69.5896 99.5881 69.5717 99.5881 69.5001C99.5881 69.4466 99.6602 69.4287 99.8031 69.4287C100.143 69.4287 100.706 69.4555 100.966 69.4555C101.19 69.4555 101.718 69.4287 102.058 69.4287C102.174 69.4287 102.245 69.4466 102.245 69.5001C102.245 69.5717 102.192 69.5896 102.102 69.5896C102.013 69.5896 101.941 69.5986 101.834 69.6165C101.592 69.6612 101.521 69.8133 101.503 70.1266C101.485 70.4125 101.485 70.6632 101.485 72.0231V73.5974C101.485 74.4651 101.485 75.1721 101.521 75.5565C101.547 75.7983 101.61 75.9591 101.879 75.9948C102.004 76.0128 102.201 76.031 102.335 76.031C102.433 76.031 102.478 76.0576 102.478 76.1025C102.478 76.1649 102.406 76.1918 102.308 76.1918C101.718 76.1918 101.154 76.1648 100.912 76.1648C100.706 76.1648 100.143 76.1918 99.7852 76.1918C99.6692 76.1918 99.6063 76.1648 99.6063 76.1025C99.6063 76.0575 99.6421 76.031 99.7494 76.031C99.8833 76.031 99.9909 76.0128 100.072 75.9948C100.25 75.9591 100.304 75.8071 100.331 75.5477C100.376 75.172 100.376 74.4651 100.376 73.5974V72.0231H100.375Z" fill="#6D80B0" stroke="#6D80B0" stroke-width="0.0828492"></path> <path d="M104.304 70.3056C104.098 69.8134 103.946 69.715 103.624 69.6255C103.49 69.5897 103.347 69.5897 103.275 69.5897C103.194 69.5897 103.168 69.5628 103.168 69.5093C103.168 69.4376 103.266 69.4288 103.401 69.4288C103.875 69.4288 104.385 69.4556 104.698 69.4556C104.921 69.4556 105.351 69.4288 105.798 69.4288C105.905 69.4288 106.004 69.4467 106.004 69.5093C106.004 69.5718 105.95 69.5897 105.87 69.5897C105.727 69.5897 105.592 69.5987 105.521 69.6523C105.458 69.6972 105.431 69.7598 105.431 69.8403C105.431 69.9565 105.512 70.207 105.637 70.5291L107.176 74.5905H107.211C107.596 73.6063 108.759 70.7259 108.974 70.1354C109.019 70.0191 109.054 69.8849 109.054 69.8045C109.054 69.7329 109.019 69.6613 108.938 69.6345C108.831 69.5986 108.696 69.5896 108.58 69.5896C108.499 69.5896 108.428 69.5807 108.428 69.5181C108.428 69.4466 108.508 69.4287 108.679 69.4287C109.126 69.4287 109.501 69.4555 109.618 69.4555C109.77 69.4555 110.191 69.4287 110.458 69.4287C110.575 69.4287 110.646 69.4466 110.646 69.5092C110.646 69.5717 110.593 69.5896 110.503 69.5896C110.414 69.5896 110.226 69.5896 110.065 69.697C109.949 69.7774 109.815 69.9296 109.573 70.5021C109.224 71.3432 108.982 71.8258 108.499 72.9264C107.927 74.2327 107.506 75.2077 107.31 75.655C107.077 76.1738 107.024 76.3169 106.898 76.3169C106.782 76.3169 106.728 76.1918 106.558 75.7712L104.304 70.3056Z" fill="#6D80B0" stroke="#6D80B0" stroke-width="0.0828492"></path> <path d="M112.065 72.0244C112.065 70.6644 112.065 70.4139 112.047 70.1279C112.029 69.8234 111.958 69.6805 111.663 69.6178C111.591 69.5999 111.439 69.5909 111.313 69.5909C111.215 69.5909 111.162 69.573 111.162 69.5105C111.162 69.4479 111.224 69.43 111.358 69.43C111.832 69.43 112.396 69.4568 112.647 69.4568C112.933 69.4568 114.714 69.4568 114.883 69.4479C115.053 69.43 115.196 69.412 115.268 69.3942C115.313 69.3851 115.366 69.3584 115.411 69.3584C115.455 69.3584 115.465 69.3942 115.465 69.4388C115.465 69.5014 115.42 69.6089 115.393 70.0205C115.384 70.1097 115.366 70.5035 115.348 70.6108C115.339 70.6555 115.322 70.7093 115.259 70.7093C115.196 70.7093 115.178 70.6645 115.178 70.5839C115.178 70.5213 115.169 70.3692 115.125 70.2618C115.062 70.101 114.973 69.9935 114.525 69.9398C114.373 69.922 113.434 69.9042 113.255 69.9042C113.21 69.9042 113.192 69.931 113.192 69.9936V72.2571C113.192 72.3198 113.201 72.3554 113.255 72.3554C113.452 72.3554 114.481 72.3554 114.686 72.3376C114.901 72.3198 115.035 72.2924 115.116 72.2033C115.179 72.1317 115.214 72.0868 115.259 72.0868C115.294 72.0868 115.322 72.105 115.322 72.1585C115.322 72.212 115.277 72.3553 115.25 72.8114C115.233 72.9905 115.214 73.3483 115.214 73.411C115.214 73.4824 115.214 73.5807 115.134 73.5807C115.071 73.5807 115.053 73.5451 115.053 73.5003C115.044 73.411 115.044 73.2947 115.017 73.1781C114.973 72.9995 114.848 72.8652 114.516 72.8294C114.347 72.8114 113.461 72.8028 113.246 72.8028C113.201 72.8028 113.192 72.8382 113.192 72.8921V73.5986C113.192 73.9027 113.184 74.7259 113.192 74.9852C113.211 75.6023 113.354 75.7369 114.266 75.7369C114.499 75.7369 114.874 75.7369 115.107 75.6293C115.339 75.522 115.447 75.3344 115.51 74.9675C115.527 74.8693 115.545 74.833 115.608 74.833C115.679 74.833 115.679 74.9048 115.679 74.9942C115.679 75.1997 115.608 75.8082 115.563 75.9873C115.501 76.2199 115.42 76.2199 115.08 76.2199C113.729 76.2199 113.13 76.1662 112.602 76.1662C112.396 76.1662 111.832 76.1932 111.475 76.1932C111.359 76.1932 111.296 76.1662 111.296 76.1038C111.296 76.0589 111.332 76.0323 111.439 76.0323C111.573 76.0323 111.681 76.0142 111.761 75.9962C111.94 75.9605 111.985 75.7638 112.021 75.5044C112.065 75.1288 112.065 74.4219 112.065 73.5987V72.0244H112.065Z" fill="#6D80B0" stroke="#6D80B0" stroke-width="0.0828492"></path> <path d="M118.211 72.0231C118.211 70.6632 118.211 70.4126 118.193 70.1266C118.175 69.8221 118.104 69.6792 117.809 69.6165C117.737 69.5986 117.585 69.5896 117.459 69.5896C117.361 69.5896 117.307 69.5717 117.307 69.5092C117.307 69.4466 117.37 69.4287 117.505 69.4287C117.979 69.4287 118.542 69.4555 118.73 69.4555C119.034 69.4555 119.714 69.4287 119.991 69.4287C120.555 69.4287 121.154 69.4824 121.638 69.8134C121.888 69.9833 122.246 70.4396 122.246 71.0389C122.246 71.701 121.968 72.3091 121.065 73.0428C121.861 74.045 122.478 74.8407 123.006 75.3958C123.508 75.9146 123.874 75.9774 124.008 76.0042C124.107 76.022 124.187 76.0312 124.259 76.0312C124.33 76.0312 124.366 76.0579 124.366 76.1027C124.366 76.1741 124.303 76.1921 124.196 76.1921H123.346C122.845 76.1921 122.622 76.1472 122.389 76.022C122.004 75.816 121.665 75.3958 121.163 74.7071C120.806 74.2148 120.394 73.6064 120.278 73.4724C120.233 73.4187 120.179 73.4099 120.117 73.4099L119.339 73.3918C119.294 73.3918 119.267 73.4099 119.267 73.4636V73.5885C119.267 74.4207 119.267 75.1277 119.311 75.5033C119.339 75.7627 119.392 75.9594 119.66 75.9951C119.795 76.0131 119.991 76.0312 120.099 76.0312C120.17 76.0312 120.206 76.0579 120.206 76.1027C120.206 76.1652 120.143 76.1921 120.027 76.1921C119.509 76.1921 118.846 76.1651 118.712 76.1651C118.542 76.1651 117.979 76.1921 117.621 76.1921C117.505 76.1921 117.442 76.1651 117.442 76.1027C117.442 76.0578 117.478 76.0312 117.585 76.0312C117.719 76.0312 117.826 76.0131 117.907 75.9951C118.086 75.9594 118.131 75.7627 118.167 75.5033C118.211 75.1277 118.211 74.4208 118.211 73.5976V72.0231H118.211ZM119.267 72.7298C119.267 72.8281 119.285 72.8639 119.347 72.8909C119.535 72.9536 119.804 72.9804 120.027 72.9804C120.385 72.9804 120.501 72.9444 120.663 72.8281C120.931 72.6311 121.19 72.2199 121.19 71.4861C121.19 70.2158 120.349 69.8492 119.822 69.8492C119.598 69.8492 119.437 69.8581 119.347 69.885C119.285 69.9029 119.267 69.9386 119.267 70.0102L119.267 72.7298Z" fill="#6D80B0" stroke="#6D80B0" stroke-width="0.0828492"></path> <path d="M125.021 76.0857C124.878 76.0231 124.851 75.9785 124.851 75.7816C124.851 75.2894 124.887 74.7527 124.896 74.6098C124.904 74.4752 124.932 74.3773 125.003 74.3773C125.084 74.3773 125.093 74.4574 125.093 74.5293C125.093 74.6456 125.129 74.8331 125.173 74.9853C125.37 75.6474 125.898 75.8888 126.452 75.8888C127.258 75.8888 127.651 75.3432 127.651 74.8694C127.651 74.4307 127.517 74.0104 126.774 73.4378L126.363 73.1158C125.379 72.3464 125.039 71.7201 125.039 70.9954C125.039 70.0114 125.862 69.3047 127.105 69.3047C127.687 69.3047 128.063 69.3941 128.295 69.4567C128.376 69.4746 128.42 69.5014 128.42 69.564C128.42 69.6803 128.385 69.9397 128.385 70.6376C128.385 70.8343 128.358 70.9061 128.286 70.9061C128.224 70.9061 128.197 70.8525 128.197 70.745C128.197 70.6644 128.152 70.3871 127.964 70.1545C127.83 69.9845 127.57 69.7161 126.989 69.7161C126.327 69.7161 125.925 70.101 125.925 70.6376C125.925 71.049 126.13 71.362 126.873 71.9257L127.124 72.1138C128.197 72.9456 128.591 73.5451 128.591 74.3948C128.591 74.9139 128.394 75.5313 127.749 75.9515C127.302 76.2376 126.801 76.3181 126.327 76.3181C125.808 76.3182 125.405 76.2557 125.021 76.0857Z" fill="#6D80B0" stroke="#6D80B0" stroke-width="0.0828492"></path> <path d="M131.114 72.0231C131.114 70.6632 131.114 70.4126 131.096 70.1266C131.078 69.8221 130.989 69.6701 130.792 69.6254C130.694 69.5986 130.577 69.5896 130.47 69.5896C130.38 69.5896 130.327 69.5717 130.327 69.5001C130.327 69.4466 130.398 69.4287 130.542 69.4287C130.882 69.4287 131.445 69.4555 131.704 69.4555C131.928 69.4555 132.456 69.4287 132.796 69.4287C132.912 69.4287 132.984 69.4466 132.984 69.5001C132.984 69.5717 132.93 69.5896 132.84 69.5896C132.751 69.5896 132.679 69.5986 132.573 69.6165C132.331 69.6612 132.259 69.8133 132.241 70.1266C132.223 70.4125 132.223 70.6632 132.223 72.0231V73.5974C132.223 74.4651 132.223 75.1721 132.259 75.5565C132.286 75.7983 132.348 75.9591 132.617 75.9948C132.742 76.0128 132.939 76.031 133.073 76.031C133.172 76.031 133.216 76.0576 133.216 76.1025C133.216 76.1649 133.145 76.1918 133.046 76.1918C132.456 76.1918 131.893 76.1648 131.651 76.1648C131.445 76.1648 130.882 76.1918 130.524 76.1918C130.407 76.1918 130.345 76.1648 130.345 76.1025C130.345 76.0575 130.38 76.031 130.488 76.031C130.622 76.031 130.729 76.0128 130.81 75.9948C130.989 75.9591 131.042 75.8071 131.07 75.5477C131.114 75.172 131.114 74.4651 131.114 73.5974V72.0231H131.114Z" fill="#6D80B0" stroke="#6D80B0" stroke-width="0.0828492"></path> <path d="M137.226 69.9309L135.893 69.9667C135.374 69.9845 135.159 70.0291 135.025 70.2262C134.936 70.3603 134.891 70.4675 134.873 70.5392C134.855 70.6107 134.828 70.6466 134.774 70.6466C134.712 70.6466 134.694 70.6018 134.694 70.5034C134.694 70.3603 134.864 69.5463 134.882 69.4746C134.909 69.3583 134.936 69.3047 134.989 69.3047C135.061 69.3047 135.15 69.3941 135.374 69.412C135.633 69.4388 135.973 69.4567 136.268 69.4567H139.811C140.383 69.4567 140.598 69.3672 140.67 69.3672C140.732 69.3672 140.741 69.421 140.741 69.5553C140.741 69.7429 140.715 70.3603 140.715 70.593C140.706 70.6823 140.688 70.7361 140.634 70.7361C140.563 70.7361 140.545 70.6914 140.536 70.5572L140.527 70.4587C140.509 70.2262 140.267 69.9756 139.471 69.9577L138.344 69.931V73.5988C138.344 74.422 138.344 75.1288 138.388 75.5133C138.415 75.7639 138.469 75.9606 138.737 75.9963C138.863 76.0143 139.059 76.0324 139.194 76.0324C139.292 76.0324 139.337 76.059 139.337 76.1039C139.337 76.1663 139.265 76.1932 139.167 76.1932C138.576 76.1932 138.013 76.1662 137.762 76.1662C137.556 76.1662 136.993 76.1932 136.635 76.1932C136.519 76.1932 136.456 76.1662 136.456 76.1039C136.456 76.059 136.492 76.0324 136.599 76.0324C136.733 76.0324 136.841 76.0143 136.922 75.9963C137.1 75.9606 137.154 75.7639 137.181 75.5045C137.226 75.1288 137.226 74.422 137.226 73.5988V69.9309Z" fill="#6D80B0" stroke="#6D80B0" stroke-width="0.0828492"></path> <path d="M144.646 73.8756C144.646 73.3925 144.557 73.1959 144.44 72.9365C144.378 72.7932 143.179 70.8252 142.866 70.36C142.643 70.0288 142.419 69.8053 142.249 69.707C142.132 69.6443 141.98 69.5906 141.873 69.5906C141.801 69.5906 141.739 69.5727 141.739 69.5102C141.739 69.4564 141.801 69.4297 141.909 69.4297C142.069 69.4297 142.741 69.4565 143.036 69.4565C143.224 69.4565 143.59 69.4297 143.993 69.4297C144.083 69.4297 144.128 69.4565 144.128 69.5102C144.128 69.5637 144.064 69.5727 143.93 69.6085C143.85 69.6264 143.805 69.698 143.805 69.7695C143.805 69.8411 143.85 69.9485 143.912 70.0737C144.038 70.3422 145.29 72.498 145.434 72.7487C145.523 72.534 146.65 70.5658 146.775 70.2884C146.865 70.0915 146.9 69.9394 146.9 69.8231C146.9 69.7338 146.865 69.6355 146.713 69.5996C146.632 69.5817 146.552 69.5637 146.552 69.5102C146.552 69.4476 146.597 69.4297 146.704 69.4297C146.999 69.4297 147.285 69.4565 147.545 69.4565C147.742 69.4565 148.332 69.4297 148.502 69.4297C148.6 69.4297 148.663 69.4476 148.663 69.5011C148.663 69.5637 148.592 69.5906 148.494 69.5906C148.404 69.5906 148.234 69.6264 148.099 69.698C147.912 69.7874 147.813 69.8947 147.617 70.1363C147.321 70.4942 146.069 72.5966 145.908 72.9813C145.774 73.3033 145.774 73.5804 145.774 73.8757V74.6096C145.774 74.7525 145.774 75.1285 145.801 75.5041C145.818 75.7635 145.899 75.9602 146.168 75.9959C146.293 76.0139 146.49 76.032 146.615 76.032C146.713 76.032 146.757 76.0587 146.757 76.1035C146.757 76.166 146.686 76.1929 146.57 76.1929C146.006 76.1929 145.443 76.1659 145.201 76.1659C144.978 76.1659 144.414 76.1929 144.083 76.1929C143.957 76.1929 143.886 76.1749 143.886 76.1035C143.886 76.0586 143.931 76.032 144.029 76.032C144.154 76.032 144.262 76.0139 144.342 75.9959C144.521 75.9602 144.602 75.7635 144.62 75.5041C144.646 75.1285 144.646 74.7525 144.646 74.6096V73.8756H144.646Z" fill="#6D80B0" stroke="#6D80B0" stroke-width="0.0828492"></path> <path d="M20.7226 83.1211C20.7226 82.228 20.7226 82.0633 20.7108 81.8752C20.6991 81.6756 20.6402 81.5756 20.5111 81.5463C20.4464 81.5287 20.37 81.523 20.2996 81.523C20.2408 81.523 20.2056 81.5111 20.2056 81.4641C20.2056 81.429 20.2526 81.417 20.3466 81.417C20.57 81.417 20.9399 81.4349 21.1104 81.4349C21.2574 81.4349 21.604 81.417 21.827 81.417C21.9035 81.417 21.9505 81.429 21.9505 81.4641C21.9505 81.5111 21.9153 81.523 21.8566 81.523C21.7979 81.523 21.7508 81.5287 21.6803 81.5405C21.5216 81.5698 21.4747 81.6696 21.463 81.8752C21.4512 82.0631 21.4512 82.2278 21.4512 83.121V84.155C21.4512 84.7246 21.4512 85.1892 21.4747 85.4416C21.4922 85.6001 21.5333 85.7062 21.7096 85.7294C21.7918 85.7413 21.9211 85.753 22.0091 85.753C22.0737 85.753 22.1032 85.7705 22.1032 85.8C22.1032 85.8411 22.0561 85.8587 21.9915 85.8587C21.604 85.8587 21.2336 85.8411 21.0751 85.8411C20.9399 85.8411 20.57 85.8587 20.3348 85.8587C20.2584 85.8587 20.2174 85.8411 20.2174 85.8C20.2174 85.7705 20.2408 85.753 20.3115 85.753C20.3995 85.753 20.47 85.7413 20.5229 85.7294C20.6404 85.7062 20.6757 85.6061 20.6933 85.4354C20.7227 85.1892 20.7227 84.7246 20.7227 84.155V83.1211H20.7226Z" fill="#6D80B0" stroke="#6D80B0" stroke-width="0.0828492"></path> <path d="M24.0068 85.0589C24.0185 85.517 24.095 85.6698 24.2125 85.7112C24.3122 85.7463 24.4239 85.7523 24.5179 85.7523C24.5825 85.7523 24.6178 85.7639 24.6178 85.7993C24.6178 85.846 24.565 85.858 24.4829 85.858C24.1009 85.858 23.8659 85.8404 23.7543 85.8404C23.7014 85.8404 23.4253 85.858 23.1197 85.858C23.0433 85.858 22.9905 85.8523 22.9905 85.7993C22.9905 85.7639 23.0257 85.7523 23.0844 85.7523C23.1609 85.7523 23.2668 85.7464 23.349 85.723C23.5017 85.6758 23.5252 85.5052 23.531 84.9942L23.584 81.5161C23.584 81.3987 23.6016 81.3164 23.6603 81.3164C23.7249 81.3164 23.7778 81.3929 23.8776 81.4984C23.9482 81.5749 24.8413 82.5327 25.6988 83.3845C26.0984 83.7841 26.8916 84.6301 26.9914 84.724H27.0208L26.962 82.0862C26.9562 81.7278 26.9033 81.6163 26.7623 81.5575C26.6742 81.5224 26.5331 81.5224 26.451 81.5224C26.3803 81.5224 26.3569 81.5049 26.3569 81.4695C26.3569 81.4225 26.4215 81.4165 26.5097 81.4165C26.8152 81.4165 27.0971 81.4344 27.2206 81.4344C27.2853 81.4344 27.5085 81.4165 27.7964 81.4165C27.8728 81.4165 27.9315 81.4225 27.9315 81.4695C27.9315 81.5049 27.8962 81.5224 27.8257 81.5224C27.7669 81.5224 27.72 81.5224 27.6493 81.5399C27.4849 81.5868 27.4379 81.7103 27.4319 82.0394L27.3673 85.7464C27.3673 85.8756 27.3439 85.9287 27.291 85.9287C27.2263 85.9287 27.156 85.8641 27.0913 85.7993C26.7211 85.4468 25.9691 84.6773 25.3581 84.0722C24.7178 83.4376 24.0655 82.7032 23.9599 82.5915H23.9422L24.0068 85.0589Z" fill="#6D80B0" stroke="#6D80B0" stroke-width="0.0828492"></path> <path d="M32.3841 81.7472L31.5086 81.7705C31.168 81.7821 31.0269 81.8116 30.9389 81.9409C30.8801 82.029 30.8507 82.0994 30.839 82.1464C30.8273 82.1934 30.8096 82.2169 30.7743 82.2169C30.7333 82.2169 30.7214 82.1875 30.7214 82.1234C30.7214 82.0291 30.833 81.4943 30.8449 81.4473C30.8626 81.3708 30.8801 81.3359 30.9155 81.3359C30.9625 81.3359 31.0211 81.3944 31.1681 81.4063C31.3385 81.4239 31.5617 81.4358 31.7555 81.4358H34.082C34.27 81.4358 34.3993 81.4179 34.4874 81.4063C34.5757 81.3885 34.6225 81.3771 34.646 81.3771C34.6872 81.3771 34.693 81.4122 34.693 81.5C34.693 81.6237 34.6754 82.0292 34.6754 82.182C34.6696 82.2402 34.6578 82.276 34.6226 82.276C34.5757 82.276 34.5639 82.2466 34.558 82.1583L34.5521 82.094C34.5404 81.9411 34.3816 81.7763 33.859 81.7645L33.1186 81.7475V84.156C33.1186 84.6963 33.1186 85.1603 33.148 85.4131C33.1657 85.5778 33.2008 85.7071 33.3771 85.7304C33.4594 85.7422 33.5887 85.7539 33.6766 85.7539C33.7415 85.7539 33.7708 85.7715 33.7708 85.8009C33.7708 85.842 33.7237 85.8596 33.6591 85.8596C33.2714 85.8596 32.9013 85.842 32.7368 85.842C32.6016 85.842 32.2315 85.8596 31.9966 85.8596C31.9201 85.8596 31.879 85.842 31.879 85.8009C31.879 85.7715 31.9025 85.7539 31.973 85.7539C32.0611 85.7539 32.1316 85.7422 32.1845 85.7304C32.302 85.7071 32.3374 85.5778 32.3549 85.4073C32.3843 85.1603 32.3843 84.6963 32.3843 84.156V81.7472H32.3841Z" fill="#6D80B0" stroke="#6D80B0" stroke-width="0.0828492"></path> <path d="M39.0872 83.2852C39.1048 83.2852 39.1225 83.2735 39.1225 83.2441V83.1209C39.1225 82.2278 39.1225 82.0631 39.1108 81.8751C39.0989 81.6754 39.0521 81.5818 38.8582 81.5404C38.8113 81.5286 38.7114 81.5229 38.6291 81.5229C38.5645 81.5229 38.5293 81.511 38.5293 81.4701C38.5293 81.429 38.5703 81.417 38.6526 81.417C38.97 81.417 39.34 81.4349 39.4986 81.4349C39.6397 81.4349 40.0098 81.417 40.2388 81.417C40.321 81.417 40.3622 81.429 40.3622 81.4701C40.3622 81.5111 40.3269 81.5229 40.2565 81.5229C40.2095 81.5229 40.1565 81.5286 40.0862 81.5404C39.9275 81.5697 39.8804 81.6696 39.8688 81.8751C39.857 82.063 39.857 82.2278 39.857 83.1209V84.1549C39.857 84.6953 39.857 85.1593 39.8863 85.4121C39.904 85.5768 39.9392 85.7061 40.1155 85.7293C40.1976 85.7412 40.3269 85.7529 40.4151 85.7529C40.4798 85.7529 40.5091 85.7705 40.5091 85.7999C40.5091 85.841 40.462 85.8586 40.3916 85.8586C40.0098 85.8586 39.6397 85.841 39.4751 85.841C39.34 85.841 38.97 85.8586 38.7406 85.8586C38.6584 85.8586 38.6174 85.841 38.6174 85.7999C38.6174 85.7705 38.6408 85.7529 38.7113 85.7529C38.7994 85.7529 38.8698 85.7412 38.9227 85.7293C39.0403 85.7061 39.0696 85.5768 39.0932 85.4063C39.1224 85.1593 39.1224 84.6953 39.1224 84.1549V83.6379C39.1224 83.6142 39.1048 83.6026 39.0871 83.6026H36.8429C36.8253 83.6026 36.8077 83.6085 36.8077 83.6379V84.1549C36.8077 84.6953 36.8077 85.1593 36.8371 85.4121C36.8546 85.5768 36.8899 85.7061 37.0663 85.7293C37.1485 85.7412 37.2776 85.7529 37.3658 85.7529C37.4304 85.7529 37.4598 85.7705 37.4598 85.7999C37.4598 85.841 37.4129 85.8586 37.3422 85.8586C36.9604 85.8586 36.5903 85.841 36.4257 85.841C36.2908 85.841 35.9204 85.8586 35.6855 85.8586C35.6091 85.8586 35.5679 85.841 35.5679 85.7999C35.5679 85.7705 35.5915 85.7529 35.6619 85.7529C35.7501 85.7529 35.8206 85.7412 35.8735 85.7293C35.9911 85.7061 36.0204 85.5768 36.0439 85.4063C36.0734 85.1593 36.0734 84.6953 36.0734 84.1549V83.1209C36.0734 82.2278 36.0734 82.0631 36.0615 81.8751C36.0498 81.6754 36.0028 81.5818 35.8087 81.5404C35.7619 81.5286 35.6618 81.5229 35.5796 81.5229C35.5151 81.5229 35.4797 81.511 35.4797 81.4701C35.4797 81.429 35.5209 81.417 35.6031 81.417C35.9203 81.417 36.2906 81.4349 36.449 81.4349C36.5901 81.4349 36.9602 81.417 37.1895 81.417C37.2717 81.417 37.3128 81.429 37.3128 81.4701C37.3128 81.5111 37.2774 81.5229 37.2072 81.5229C37.1601 81.5229 37.1072 81.5286 37.0366 81.5404C36.878 81.5697 36.8311 81.6696 36.8193 81.8751C36.8076 82.063 36.8076 82.2278 36.8076 83.1209V83.2441C36.8076 83.2735 36.8253 83.2852 36.8428 83.2852H39.0872Z" fill="#6D80B0" stroke="#6D80B0" stroke-width="0.0828492"></path> <path d="M42.0835 83.1211C42.0835 82.228 42.0835 82.0633 42.0717 81.8752C42.0599 81.6756 42.0128 81.582 41.8189 81.5406C41.7719 81.5287 41.6721 81.5231 41.5899 81.5231C41.5253 81.5231 41.49 81.5112 41.49 81.4703C41.49 81.4291 41.5314 81.4172 41.6192 81.4172C41.9305 81.4172 42.3009 81.4351 42.4653 81.4351C42.6532 81.4351 43.8223 81.4351 43.9339 81.4292C44.0456 81.4172 44.1395 81.4056 44.1864 81.3938C44.2158 81.3878 44.2511 81.3701 44.2805 81.3701C44.3099 81.3701 44.3158 81.3938 44.3158 81.4232C44.3158 81.4643 44.2864 81.5345 44.2688 81.805C44.2629 81.864 44.2511 82.1227 44.2395 82.1928C44.2336 82.2222 44.2218 82.2576 44.1808 82.2576C44.1396 82.2576 44.1279 82.2279 44.1279 82.1752C44.1279 82.1339 44.122 82.034 44.0926 81.9636C44.0516 81.8576 43.9927 81.7875 43.6991 81.7521C43.5992 81.7404 42.9823 81.7284 42.8648 81.7284C42.8355 81.7284 42.8237 81.7466 42.8237 81.7875V83.2736C42.8237 83.3147 42.8295 83.3382 42.8648 83.3382C42.9941 83.3382 43.6696 83.3382 43.8047 83.3266C43.9457 83.3146 44.0339 83.2972 44.0866 83.2384C44.128 83.1917 44.1513 83.1617 44.1809 83.1617C44.2044 83.1617 44.222 83.174 44.222 83.209C44.222 83.2441 44.1926 83.3381 44.175 83.6379C44.1632 83.7555 44.1514 83.9903 44.1514 84.0312C44.1514 84.0783 44.1514 84.1431 44.0986 84.1431C44.0574 84.1431 44.0457 84.1194 44.0457 84.0903C44.04 84.0312 44.04 83.9551 44.0222 83.8786C43.9928 83.761 43.9106 83.673 43.6932 83.6497C43.5815 83.6379 42.9999 83.6319 42.8589 83.6319C42.8296 83.6319 42.8237 83.6556 42.8237 83.6907V84.155C42.8237 84.3547 42.8178 84.8952 42.8237 85.0656C42.8354 85.471 42.9294 85.5588 43.5287 85.5588C43.6815 85.5588 43.9282 85.5588 44.0809 85.4881C44.2337 85.4178 44.3042 85.2947 44.3454 85.0536C44.3569 84.9891 44.3688 84.9653 44.4101 84.9653C44.4569 84.9653 44.4569 85.0123 44.4569 85.0712C44.4569 85.2064 44.4101 85.6059 44.3805 85.7236C44.3393 85.8761 44.2866 85.8761 44.0633 85.8761C43.1761 85.8761 42.7825 85.8409 42.4358 85.8409C42.3009 85.8409 41.9305 85.8586 41.6956 85.8586C41.6192 85.8586 41.5782 85.8409 41.5782 85.7998C41.5782 85.7704 41.6015 85.7528 41.6721 85.7528C41.7602 85.7528 41.8306 85.7411 41.8835 85.7293C42.0011 85.706 42.0306 85.5767 42.0539 85.4062C42.0834 85.1592 42.0834 84.6952 42.0834 84.1549V83.1211H42.0835Z" fill="#6D80B0" stroke="#6D80B0" stroke-width="0.0828492"></path> <path d="M48.2463 85.3014C47.6705 84.7959 47.5178 84.1381 47.5178 83.5682C47.5178 83.1688 47.6412 82.4756 48.2051 81.9585C48.6281 81.5707 49.1862 81.3359 50.0616 81.3359C50.426 81.3359 50.6433 81.3592 50.9137 81.3944C51.1368 81.4239 51.3248 81.4766 51.5011 81.4944C51.5657 81.5 51.5893 81.5296 51.5893 81.5653C51.5893 81.612 51.5714 81.6827 51.56 81.888C51.5482 82.0821 51.554 82.4052 51.5423 82.5225C51.5364 82.6109 51.5248 82.6579 51.4717 82.6579C51.4249 82.6579 51.4131 82.6109 51.4131 82.5287C51.4072 82.3463 51.3309 82.1409 51.184 81.9879C50.9902 81.7824 50.5318 81.6239 49.9913 81.6239C49.4803 81.6239 49.1454 81.753 48.8868 81.9879C48.4579 82.3815 48.3463 82.9398 48.3463 83.5099C48.3463 84.9081 49.4098 85.6012 50.197 85.6012C50.72 85.6012 51.0371 85.5424 51.2722 85.2722C51.3721 85.1604 51.4484 84.9903 51.4718 84.8844C51.4896 84.7905 51.5012 84.7671 51.5483 84.7671C51.5894 84.7671 51.6011 84.8082 51.6011 84.8552C51.6011 84.9255 51.5304 85.4364 51.4717 85.6367C51.4424 85.7362 51.4191 85.7656 51.3191 85.8068C51.084 85.9006 50.6374 85.942 50.2614 85.942C49.4564 85.9418 48.7808 85.7654 48.2463 85.3014Z" fill="#6D80B0" stroke="#6D80B0" stroke-width="0.0828492"></path> <path d="M53.1577 83.1211C53.1577 82.228 53.1577 82.0633 53.1459 81.8752C53.1342 81.6756 53.0752 81.5756 52.9461 81.5463C52.8814 81.5287 52.805 81.523 52.7344 81.523C52.6758 81.523 52.6406 81.5111 52.6406 81.4641C52.6406 81.429 52.6877 81.417 52.7815 81.417C53.0048 81.417 53.3748 81.4349 53.5452 81.4349C53.6921 81.4349 54.0388 81.417 54.2621 81.417C54.3386 81.417 54.3853 81.429 54.3853 81.4641C54.3853 81.5111 54.3502 81.523 54.2914 81.523C54.2328 81.523 54.1857 81.5287 54.1151 81.5405C53.9564 81.5698 53.9096 81.6696 53.8978 81.8752C53.8861 82.0631 53.8861 82.2278 53.8861 83.121V84.155C53.8861 84.7246 53.8861 85.1892 53.9095 85.4416C53.9271 85.6001 53.9683 85.7062 54.1446 85.7294C54.2268 85.7413 54.3561 85.753 54.4442 85.753C54.5088 85.753 54.5381 85.7705 54.5381 85.8C54.5381 85.8411 54.4912 85.8587 54.4266 85.8587C54.0388 85.8587 53.6687 85.8411 53.5101 85.8411C53.3748 85.8411 53.0048 85.8587 52.7698 85.8587C52.6934 85.8587 52.6522 85.8411 52.6522 85.8C52.6522 85.7705 52.6758 85.753 52.7462 85.753C52.8343 85.753 52.9049 85.7413 52.9578 85.7294C53.0752 85.7062 53.1106 85.6061 53.1281 85.4354C53.1577 85.1892 53.1577 84.7246 53.1577 84.155V83.1211Z" fill="#6D80B0" stroke="#6D80B0" stroke-width="0.0828492"></path> <path d="M56.8943 81.7472L56.0188 81.7705C55.6781 81.7821 55.5372 81.8116 55.449 81.9409C55.3903 82.029 55.3608 82.0994 55.3491 82.1464C55.3371 82.1934 55.3197 82.2169 55.2845 82.2169C55.2432 82.2169 55.2317 82.1875 55.2317 82.1234C55.2317 82.0291 55.3432 81.4943 55.355 81.4473C55.3727 81.3708 55.3903 81.3359 55.4254 81.3359C55.4725 81.3359 55.5313 81.3944 55.6782 81.4063C55.8486 81.4239 56.0717 81.4358 56.2657 81.4358H58.592C58.7801 81.4358 58.9094 81.4179 58.9976 81.4063C59.0856 81.3885 59.1328 81.3771 59.1562 81.3771C59.1973 81.3771 59.2033 81.4122 59.2033 81.5C59.2033 81.6237 59.1855 82.0292 59.1855 82.182C59.1796 82.2402 59.1678 82.276 59.1328 82.276C59.0856 82.276 59.074 82.2466 59.0682 82.1583L59.0622 82.094C59.0505 81.9411 58.8919 81.7763 58.369 81.7645L57.6288 81.7475V84.156C57.6288 84.6963 57.6288 85.1603 57.6579 85.4131C57.6757 85.5778 57.711 85.7071 57.8871 85.7304C57.9694 85.7422 58.0987 85.7539 58.1868 85.7539C58.2514 85.7539 58.2808 85.7715 58.2808 85.8009C58.2808 85.842 58.2336 85.8596 58.1692 85.8596C57.7815 85.8596 57.4113 85.842 57.2468 85.842C57.1118 85.842 56.7417 85.8596 56.5066 85.8596C56.4302 85.8596 56.389 85.842 56.389 85.8009C56.389 85.7715 56.4124 85.7539 56.4829 85.7539C56.5712 85.7539 56.6416 85.7422 56.6945 85.7304C56.8121 85.7071 56.8472 85.5778 56.8648 85.4073C56.8944 85.1603 56.8944 84.6963 56.8944 84.156V81.7472H56.8943Z" fill="#6D80B0" stroke="#6D80B0" stroke-width="0.0828492"></path> <path d="M61.2696 84.335C61.2696 84.0178 61.211 83.8886 61.1345 83.718C61.0932 83.6243 60.3062 82.3316 60.1006 82.0263C59.9536 81.8089 59.8067 81.662 59.6952 81.5972C59.6189 81.5562 59.5187 81.521 59.4485 81.521C59.4014 81.521 59.3601 81.5091 59.3601 81.4682C59.3601 81.433 59.4014 81.4151 59.4719 81.4151C59.5776 81.4151 60.0182 81.433 60.2121 81.433C60.3355 81.433 60.5763 81.4151 60.8408 81.4151C60.8994 81.4151 60.9289 81.433 60.9289 81.4682C60.9289 81.5036 60.8878 81.5092 60.7995 81.5325C60.7466 81.5443 60.7174 81.5915 60.7174 81.6384C60.7174 81.6854 60.7466 81.756 60.7879 81.8384C60.8702 82.0145 61.6925 83.4301 61.7867 83.5947C61.8455 83.4539 62.5855 82.1613 62.6678 81.9793C62.7266 81.85 62.75 81.75 62.75 81.6735C62.75 81.615 62.7266 81.5503 62.6268 81.5267C62.5739 81.5147 62.5212 81.5035 62.5212 81.4681C62.5212 81.427 62.5504 81.415 62.6209 81.415C62.8147 81.415 63.0028 81.4329 63.1732 81.4329C63.3026 81.4329 63.6901 81.415 63.8017 81.415C63.8664 81.415 63.9076 81.4271 63.9076 81.4622C63.9076 81.5036 63.8607 81.521 63.7961 81.521C63.7372 81.521 63.6257 81.5443 63.5373 81.5915C63.4142 81.6499 63.3496 81.7208 63.22 81.879C63.0262 82.1141 62.204 83.495 62.0982 83.7474C62.0101 83.9591 62.0102 84.1412 62.0102 84.335V84.8167C62.0102 84.9109 62.0102 85.1573 62.0276 85.4044C62.0394 85.5749 62.0923 85.7043 62.2685 85.7274C62.3507 85.7393 62.4801 85.751 62.5622 85.751C62.6268 85.751 62.6562 85.7685 62.6562 85.7979C62.6562 85.839 62.6094 85.8567 62.5329 85.8567C62.1627 85.8567 61.7925 85.839 61.634 85.839C61.4871 85.839 61.117 85.8567 60.8995 85.8567C60.8174 85.8567 60.7704 85.8446 60.7704 85.7979C60.7704 85.7685 60.7996 85.751 60.8643 85.751C60.9464 85.751 61.0171 85.7393 61.0699 85.7274C61.1875 85.7042 61.2405 85.5749 61.2521 85.4044C61.2697 85.1573 61.2697 84.9109 61.2697 84.8167V84.335H61.2696Z" fill="#6D80B0" stroke="#6D80B0" stroke-width="0.0828492"></path> <path d="M66.2695 83.6388C66.2695 82.6344 66.9335 81.3359 68.696 81.3359C70.1587 81.3359 71.0695 82.1876 71.0695 83.533C71.0695 84.8784 70.1297 85.9418 68.6375 85.9418C66.9511 85.9418 66.2695 84.6788 66.2695 83.6388ZM70.2471 83.7502C70.2471 82.4344 69.489 81.6177 68.5255 81.6177C67.85 81.6177 67.0803 81.9937 67.0803 83.4566C67.0803 84.6787 67.7561 85.648 68.8843 85.648C69.2953 85.6481 70.2471 85.4483 70.2471 83.7502Z" fill="#6D80B0" stroke="#6D80B0" stroke-width="0.0828492"></path> <path d="M73.3383 84.1552C73.3383 84.7193 73.3383 85.1595 73.3679 85.4066C73.3851 85.5771 73.4204 85.7065 73.5969 85.7296C73.6793 85.7415 73.8082 85.7532 73.8905 85.7532C73.9668 85.7532 73.9909 85.7707 73.9909 85.8001C73.9909 85.8413 73.9496 85.8589 73.8613 85.8589C73.4913 85.8589 73.1211 85.8413 72.9683 85.8413C72.8156 85.8413 72.4453 85.8589 72.2218 85.8589C72.1398 85.8589 72.0989 85.8469 72.0989 85.8001C72.0989 85.7707 72.1226 85.7532 72.187 85.7532C72.275 85.7532 72.3454 85.7415 72.3984 85.7296C72.516 85.7064 72.5452 85.5771 72.569 85.4066C72.5983 85.1595 72.5983 84.7193 72.5983 84.1552V83.1212C72.5983 82.2281 72.5983 82.0634 72.5866 81.8753C72.5747 81.6757 72.5274 81.5821 72.3338 81.5407C72.2869 81.5288 72.1869 81.5232 72.1047 81.5232C72.0458 81.5232 72.0046 81.5113 72.0046 81.4759C72.0046 81.4292 72.0518 81.4172 72.1396 81.4172C72.4452 81.4172 72.8154 81.4351 72.9857 81.4351C73.209 81.4351 74.4018 81.4351 74.5366 81.4292C74.6485 81.4233 74.7188 81.4233 74.7777 81.4056C74.8129 81.3937 74.8421 81.3701 74.872 81.3701C74.8953 81.3701 74.9128 81.3938 74.9128 81.4232C74.9128 81.4643 74.8831 81.5345 74.8655 81.6875C74.86 81.7466 74.8484 82.0931 74.8363 82.1633C74.8307 82.21 74.8187 82.2458 74.7777 82.2458C74.7364 82.2458 74.7246 82.2162 74.7188 82.1516C74.7188 82.1046 74.7188 82.0107 74.684 81.9282C74.6429 81.8461 74.5191 81.7579 74.2957 81.752L73.3912 81.7343C73.3558 81.7343 73.3382 81.752 73.3382 81.8167V83.2853C73.3382 83.3208 73.3438 83.3381 73.3795 83.3381L74.1312 83.3322C74.2313 83.3322 74.3132 83.3322 74.3957 83.3266C74.5073 83.3209 74.5897 83.2972 74.6485 83.2208C74.6777 83.1854 74.6896 83.1617 74.7245 83.1617C74.7481 83.1617 74.76 83.1794 74.76 83.2146C74.76 83.2501 74.7302 83.397 74.7131 83.579C74.7009 83.6966 74.6895 83.9669 74.6895 84.0078C74.6895 84.0609 74.6895 84.1194 74.6308 84.1194C74.5953 84.1194 74.5834 84.0782 74.5834 84.0375C74.5834 83.9962 74.572 83.9257 74.5486 83.8552C74.519 83.7729 74.431 83.6674 74.2488 83.6437C74.1022 83.6262 73.4793 83.6262 73.3794 83.6262C73.3501 83.6262 73.3381 83.6379 73.3381 83.6792V84.1552H73.3383Z" fill="#6D80B0" stroke="#6D80B0" stroke-width="0.0828492"></path> <path d="M78.943 85.0589C78.9547 85.517 79.0311 85.6698 79.1484 85.7112C79.2483 85.7463 79.3597 85.7523 79.454 85.7523C79.519 85.7523 79.5539 85.7639 79.5539 85.7993C79.5539 85.846 79.5013 85.858 79.4191 85.858C79.0371 85.858 78.8025 85.8404 78.6905 85.8404C78.6375 85.8404 78.361 85.858 78.0561 85.858C77.9795 85.858 77.9265 85.8523 77.9265 85.7993C77.9265 85.7639 77.9618 85.7523 78.0205 85.7523C78.097 85.7523 78.2029 85.7464 78.2852 85.723C78.4376 85.6758 78.4608 85.5052 78.4673 84.9942L78.5202 81.5161C78.5202 81.3987 78.5374 81.3164 78.5965 81.3164C78.6605 81.3164 78.7138 81.3929 78.8137 81.4984C78.8845 81.5749 79.7774 82.5327 80.6349 83.3845C81.0344 83.7841 81.8273 84.6301 81.9272 84.724H81.9564L81.8985 82.0862C81.892 81.7278 81.8394 81.6163 81.6986 81.5575C81.6099 81.5224 81.4692 81.5224 81.3873 81.5224C81.3164 81.5224 81.2931 81.5049 81.2931 81.4695C81.2931 81.4225 81.3576 81.4165 81.4456 81.4165C81.7511 81.4165 82.0332 81.4344 82.1565 81.4344C82.2211 81.4344 82.4444 81.4165 82.7322 81.4165C82.8087 81.4165 82.8676 81.4225 82.8676 81.4695C82.8676 81.5049 82.8322 81.5224 82.7617 81.5224C82.703 81.5224 82.6557 81.5224 82.5855 81.5399C82.4211 81.5868 82.3743 81.7103 82.3682 82.0394L82.3032 85.7464C82.3032 85.8756 82.28 85.9287 82.2269 85.9287C82.1625 85.9287 82.0919 85.8641 82.0277 85.7993C81.6575 85.4468 80.9053 84.6773 80.2944 84.0722C79.6537 83.4376 79.0015 82.7032 78.8961 82.5915H78.8784L78.943 85.0589Z" fill="#6D80B0" stroke="#6D80B0" stroke-width="0.0828492"></path> <path d="M84.4771 83.1211C84.4771 82.228 84.4771 82.0633 84.465 81.8752C84.4535 81.6756 84.4068 81.582 84.2126 81.5406C84.1654 81.5287 84.0657 81.5231 83.9836 81.5231C83.919 81.5231 83.8835 81.5112 83.8835 81.4703C83.8835 81.4291 83.9246 81.4172 84.0127 81.4172C84.324 81.4172 84.6945 81.4351 84.8585 81.4351C85.0468 81.4351 86.2157 81.4351 86.3276 81.4292C86.439 81.4172 86.5331 81.4056 86.58 81.3938C86.6097 81.3878 86.645 81.3701 86.6741 81.3701C86.7036 81.3701 86.7096 81.3938 86.7096 81.4232C86.7096 81.4643 86.6803 81.5345 86.6628 81.805C86.6566 81.864 86.645 82.1227 86.6329 82.1928C86.627 82.2222 86.6153 82.2576 86.5744 82.2576C86.533 82.2576 86.5211 82.2279 86.5211 82.1752C86.5211 82.1339 86.5154 82.034 86.4862 81.9636C86.4448 81.8576 86.3862 81.7875 86.0924 81.7521C85.9928 81.7404 85.3759 81.7284 85.258 81.7284C85.229 81.7284 85.217 81.7466 85.217 81.7875V83.2736C85.217 83.3147 85.223 83.3382 85.258 83.3382C85.3871 83.3382 86.0632 83.3382 86.1983 83.3266C86.3389 83.3146 86.4275 83.2972 86.4804 83.2384C86.521 83.1917 86.5445 83.1617 86.5743 83.1617C86.5977 83.1617 86.6152 83.174 86.6152 83.209C86.6152 83.2441 86.5856 83.3381 86.5684 83.6379C86.5566 83.7555 86.5446 83.9903 86.5446 84.0312C86.5446 84.0783 86.5446 84.1431 86.4922 84.1431C86.4508 84.1431 86.4389 84.1194 86.4389 84.0903C86.4332 84.0312 86.4332 83.9551 86.4155 83.8786C86.3861 83.761 86.304 83.673 86.0864 83.6497C85.9751 83.6379 85.3933 83.6319 85.2521 83.6319C85.2229 83.6319 85.2169 83.6556 85.2169 83.6907V84.155C85.2169 84.3547 85.2113 84.8952 85.2169 85.0656C85.229 85.471 85.3229 85.5588 85.9221 85.5588C86.0744 85.5588 86.3216 85.5588 86.4742 85.4881C86.6268 85.4178 86.6975 85.2947 86.7387 85.0536C86.75 84.9891 86.762 84.9653 86.8032 84.9653C86.8502 84.9653 86.8502 85.0123 86.8502 85.0712C86.8502 85.2064 86.8032 85.6059 86.7735 85.7236C86.7326 85.8761 86.6802 85.8761 86.4566 85.8761C85.569 85.8761 85.1756 85.8409 84.829 85.8409C84.6942 85.8409 84.3238 85.8586 84.0889 85.8586C84.0125 85.8586 83.9711 85.8409 83.9711 85.7998C83.9711 85.7704 83.9948 85.7528 84.0654 85.7528C84.1534 85.7528 84.224 85.7411 84.2769 85.7293C84.3943 85.706 84.4237 85.5767 84.4469 85.4062C84.4767 85.1592 84.4767 84.6952 84.4767 84.1549V83.1211H84.4771Z" fill="#6D80B0" stroke="#6D80B0" stroke-width="0.0828492"></path> <path d="M87.9664 81.9908C87.8961 81.7734 87.8315 81.6326 87.7487 81.5736C87.6846 81.5324 87.5668 81.5209 87.514 81.5209C87.4552 81.5209 87.4199 81.5147 87.4199 81.4681C87.4199 81.427 87.4667 81.415 87.5494 81.415C87.8549 81.415 88.178 81.4329 88.2308 81.4329C88.2838 81.4329 88.542 81.415 88.8827 81.415C88.9651 81.415 89.0062 81.4329 89.0062 81.4681C89.0062 81.5147 88.9593 81.5209 88.9005 81.5209C88.8538 81.5209 88.7948 81.5209 88.7538 81.5442C88.7011 81.5678 88.6892 81.609 88.6892 81.6735C88.6892 81.7499 88.7476 81.9498 88.8183 82.214C88.9182 82.602 89.4646 84.3818 89.5702 84.711H89.5878L90.7279 81.6498C90.7924 81.4856 90.8278 81.4386 90.8747 81.4386C90.9391 81.4386 90.9686 81.5267 91.0449 81.7146L92.2667 84.6697H92.2846C92.3905 84.2761 92.8606 82.7251 93.066 82.038C93.1072 81.9027 93.1245 81.7793 93.1245 81.697C93.1245 81.6034 93.0719 81.5209 92.8429 81.5209C92.7841 81.5209 92.743 81.5035 92.743 81.4681C92.743 81.427 92.7896 81.415 92.8781 81.415C93.1894 81.415 93.4362 81.4329 93.4887 81.4329C93.5299 81.4329 93.7827 81.415 93.9764 81.415C94.0413 81.415 94.0824 81.4271 94.0824 81.4622C94.0824 81.5036 94.0526 81.521 94.0001 81.521C93.9412 81.521 93.8593 81.5267 93.7947 81.5503C93.6533 81.6034 93.5891 81.8384 93.4655 82.1732C93.1951 82.9134 92.5785 84.7817 92.2902 85.6627C92.2257 85.8683 92.1965 85.939 92.1201 85.939C92.0612 85.939 92.0262 85.8683 91.938 85.6513L90.7159 82.7077H90.7042C90.5925 83.0072 89.8112 85.0873 89.5588 85.6275C89.4472 85.8683 89.4178 85.9389 89.3472 85.9389C89.2883 85.9389 89.2591 85.8742 89.2121 85.7217L87.9664 81.9908Z" fill="#6D80B0" stroke="#6D80B0" stroke-width="0.0828492"></path> <path d="M97.8873 84.335C97.8873 84.0178 97.8282 83.8886 97.7519 83.718C97.7106 83.6243 96.9233 82.3316 96.7178 82.0263C96.571 81.8089 96.4243 81.662 96.3127 81.5972C96.2362 81.5562 96.1363 81.521 96.0657 81.521C96.0187 81.521 95.9775 81.5091 95.9775 81.4682C95.9775 81.433 96.0187 81.4151 96.0894 81.4151C96.1947 81.4151 96.636 81.433 96.8295 81.433C96.953 81.433 97.194 81.4151 97.4583 81.4151C97.5169 81.4151 97.5462 81.433 97.5462 81.4682C97.5462 81.5036 97.5051 81.5092 97.417 81.5325C97.3641 81.5443 97.3349 81.5915 97.3349 81.6384C97.3349 81.6854 97.3641 81.756 97.4052 81.8384C97.4874 82.0145 98.3103 83.4301 98.4039 83.5947C98.4628 83.4539 99.2032 82.1613 99.285 81.9793C99.3441 81.85 99.3679 81.75 99.3679 81.6735C99.3679 81.615 99.3441 81.5503 99.2444 81.5267C99.1913 81.5147 99.1382 81.5035 99.1382 81.4681C99.1382 81.427 99.168 81.415 99.2382 81.415C99.4324 81.415 99.6202 81.4329 99.7905 81.4329C99.9201 81.4329 100.308 81.415 100.419 81.415C100.484 81.415 100.525 81.4271 100.525 81.4622C100.525 81.5036 100.478 81.521 100.413 81.521C100.355 81.521 100.243 81.5443 100.155 81.5915C100.031 81.6499 99.967 81.7208 99.8377 81.879C99.6437 82.1141 98.8215 83.495 98.7156 83.7474C98.6273 83.9591 98.6273 84.1412 98.6273 84.335V84.8167C98.6273 84.9109 98.6273 85.1573 98.6449 85.4044C98.6569 85.5749 98.7099 85.7043 98.886 85.7274C98.9681 85.7393 99.0973 85.751 99.1794 85.751C99.2444 85.751 99.2736 85.7685 99.2736 85.7979C99.2736 85.839 99.2267 85.8567 99.1502 85.8567C98.7797 85.8567 98.4102 85.839 98.2515 85.839C98.1041 85.839 97.7347 85.8567 97.517 85.8567C97.4349 85.8567 97.3875 85.8446 97.3875 85.7979C97.3875 85.7685 97.4171 85.751 97.4817 85.751C97.5639 85.751 97.6346 85.7393 97.6874 85.7274C97.805 85.7042 97.8575 85.5749 97.8694 85.4044C97.8873 85.1573 97.8873 84.9109 97.8873 84.8167V84.335Z" fill="#6D80B0" stroke="#6D80B0" stroke-width="0.0828492"></path> <path d="M100.707 83.6388C100.707 82.6344 101.371 81.3359 103.134 81.3359C104.597 81.3359 105.507 82.1876 105.507 83.533C105.507 84.8784 104.567 85.9418 103.075 85.9418C101.389 85.9418 100.707 84.6788 100.707 83.6388ZM104.685 83.7502C104.685 82.4344 103.927 81.6177 102.963 81.6177C102.288 81.6177 101.518 81.9937 101.518 83.4566C101.518 84.6787 102.194 85.648 103.322 85.648C103.733 85.6481 104.685 85.4483 104.685 83.7502Z" fill="#6D80B0" stroke="#6D80B0" stroke-width="0.0828492"></path> <path d="M107.037 83.1209C107.037 82.2278 107.037 82.0631 107.025 81.8751C107.013 81.6754 106.966 81.5818 106.772 81.5404C106.725 81.5286 106.625 81.5229 106.543 81.5229C106.478 81.5229 106.443 81.511 106.443 81.4701C106.443 81.429 106.484 81.417 106.572 81.417C106.884 81.417 107.253 81.4349 107.377 81.4349C107.577 81.4349 108.023 81.417 108.205 81.417C108.575 81.417 108.969 81.4524 109.286 81.6696C109.451 81.7814 109.685 82.0812 109.685 82.4748C109.685 82.9095 109.503 83.3091 108.911 83.7906C109.433 84.4487 109.839 84.9714 110.185 85.3354C110.514 85.6764 110.755 85.7175 110.843 85.7351C110.908 85.747 110.961 85.7529 111.008 85.7529C111.055 85.7529 111.078 85.7705 111.078 85.7999C111.078 85.8466 111.037 85.8586 110.966 85.8586H110.408C110.079 85.8586 109.933 85.8291 109.78 85.747C109.527 85.612 109.304 85.3354 108.975 84.8833C108.74 84.5604 108.47 84.1608 108.393 84.0727C108.364 84.0376 108.329 84.0312 108.288 84.0312L107.776 84.0198C107.747 84.0198 107.73 84.0312 107.73 84.0669V84.1489C107.73 84.6953 107.73 85.1592 107.759 85.4062C107.776 85.5767 107.811 85.7061 107.988 85.7293C108.076 85.7411 108.205 85.7528 108.276 85.7528C108.323 85.7528 108.347 85.7704 108.347 85.7998C108.347 85.8409 108.305 85.8585 108.229 85.8585C107.888 85.8585 107.453 85.8409 107.365 85.8409C107.253 85.8409 106.884 85.8585 106.649 85.8585C106.572 85.8585 106.531 85.8409 106.531 85.7998C106.531 85.7704 106.555 85.7528 106.625 85.7528C106.713 85.7528 106.784 85.7411 106.837 85.7293C106.954 85.706 106.983 85.5767 107.007 85.4062C107.036 85.1592 107.036 84.6952 107.036 84.1549V83.1209H107.037ZM107.73 83.585C107.73 83.6497 107.741 83.673 107.782 83.6907C107.906 83.7318 108.082 83.7493 108.229 83.7493C108.464 83.7493 108.541 83.7259 108.646 83.6497C108.822 83.5202 108.992 83.2502 108.992 82.7684C108.992 81.9341 108.441 81.6932 108.094 81.6932C107.947 81.6932 107.841 81.699 107.782 81.7166C107.741 81.7284 107.73 81.752 107.73 81.799V83.585Z" fill="#6D80B0" stroke="#6D80B0" stroke-width="0.0828492"></path> <path d="M112.484 83.3796H112.514C112.713 83.1618 113.571 82.2865 113.742 82.0869C113.906 81.8933 114.035 81.7466 114.035 81.6462C114.035 81.5819 114.012 81.5405 113.953 81.5287C113.9 81.5167 113.877 81.5054 113.877 81.4701C113.877 81.429 113.906 81.417 113.971 81.417C114.094 81.417 114.417 81.4349 114.576 81.4349C114.758 81.4349 115.081 81.417 115.263 81.417C115.322 81.417 115.363 81.429 115.363 81.4701C115.363 81.5111 115.334 81.5229 115.275 81.5229C115.193 81.5229 115.046 81.5462 114.934 81.5873C114.752 81.658 114.553 81.7813 114.3 82.0282C114.118 82.2044 113.231 83.0853 113.031 83.2971C113.242 83.573 114.394 84.8126 114.623 85.0301C114.882 85.2771 115.146 85.5412 115.463 85.6646C115.639 85.7351 115.757 85.7529 115.827 85.7529C115.868 85.7529 115.904 85.7645 115.904 85.7999C115.904 85.841 115.874 85.8586 115.763 85.8586H115.252C115.075 85.8586 114.97 85.8586 114.846 85.8466C114.529 85.8176 114.371 85.688 114.118 85.4649C113.86 85.2359 112.702 83.8785 112.579 83.7085L112.514 83.6204H112.484V84.1549C112.484 84.6953 112.484 85.1593 112.502 85.4121C112.514 85.5768 112.567 85.7061 112.713 85.7293C112.796 85.7412 112.925 85.7529 113.002 85.7529C113.049 85.7529 113.078 85.7705 113.078 85.7999C113.078 85.841 113.031 85.8586 112.966 85.8586C112.637 85.8586 112.267 85.841 112.121 85.841C111.985 85.841 111.615 85.8586 111.38 85.8586C111.304 85.8586 111.262 85.841 111.262 85.7999C111.262 85.7705 111.286 85.7529 111.357 85.7529C111.445 85.7529 111.515 85.7412 111.568 85.7293C111.686 85.7061 111.715 85.5768 111.738 85.4063C111.768 85.1593 111.768 84.6953 111.768 84.1549V83.1209C111.768 82.2278 111.768 82.0631 111.756 81.8751C111.744 81.6754 111.697 81.5818 111.503 81.5404C111.457 81.5286 111.356 81.5229 111.274 81.5229C111.209 81.5229 111.174 81.511 111.174 81.4701C111.174 81.429 111.215 81.417 111.303 81.417C111.615 81.417 111.985 81.4349 112.126 81.4349C112.267 81.4349 112.637 81.417 112.837 81.417C112.919 81.417 112.96 81.429 112.96 81.4701C112.96 81.5111 112.925 81.5229 112.878 81.5229C112.82 81.5229 112.784 81.5286 112.713 81.5404C112.555 81.5697 112.508 81.6696 112.496 81.8751C112.484 82.063 112.484 82.2278 112.484 83.1209L112.484 83.3796Z" fill="#6D80B0" stroke="#6D80B0" stroke-width="0.0828492"></path> <path d="M8.2109 74.7506C8.2109 74.7505 2.81479 74.7505 2.81479 74.7505C2.8422 74.2636 2.69004 73.6977 2.51701 73.2767C1.96867 71.9427 0.839594 70.7349 1.1097 69.1634C1.25978 68.2904 1.96482 67.6825 2.82754 67.6133C4.36972 67.4893 5.70028 68.3141 7.19602 68.5783C7.31563 68.5993 7.4767 68.3445 7.62197 68.199C6.92827 67.6762 7.02264 66.6512 7.82564 66.2086C7.88099 66.1451 7.86074 65.5548 7.82913 65.5283C7.76374 65.4737 7.25146 65.5718 7.17874 65.5086C7.10619 65.4453 7.12042 64.8307 7.16704 64.7717C7.21366 64.713 7.79107 64.776 7.82355 64.7365C7.85602 64.6968 7.80722 64.1439 7.86178 64.1003C7.91635 64.0567 8.2109 64.0676 8.2109 64.0676H8.08955C8.08955 64.0676 8.38359 64.0566 8.43824 64.1003C8.49263 64.1439 8.444 64.6968 8.47674 64.7365C8.5093 64.776 9.08663 64.713 9.13316 64.7717C9.17969 64.8307 9.19427 65.4454 9.12155 65.5086C9.04891 65.5718 8.53663 65.4737 8.47124 65.5283C8.43937 65.5548 8.41929 66.1451 8.47455 66.2086C9.27782 66.6512 9.3721 67.6762 8.67823 68.199C8.8235 68.3445 8.98431 68.5992 9.10417 68.5783C10.6001 68.3141 11.9305 67.4892 13.4724 67.6133C14.3354 67.6825 15.0405 68.2904 15.1905 69.1634C15.4606 70.7349 14.3316 71.9426 13.7835 73.2767C13.6103 73.6977 13.4581 74.2636 13.4855 74.7505C13.4855 74.7505 8.08955 74.7505 8.08955 74.7506M11.0802 71.4964C11.0802 71.4964 11.6977 71.4038 11.7428 71.4921C11.788 71.5805 11.5342 72.1017 11.5775 72.1905C11.6209 72.2795 12.4388 72.1127 12.4531 72.2047C12.4676 72.2968 12.4061 72.7558 12.3279 72.8236C12.2494 72.8916 11.4859 72.8964 11.4859 72.8964C11.3269 73.0174 11.2855 73.2634 11.2845 73.5153C11.2834 73.8348 11.5319 73.9999 11.9286 73.8891C12.6679 73.6824 13.5841 72.0785 14.1279 70.9683C14.5278 70.152 14.7689 68.8166 13.7197 68.4166C13.0799 68.1727 12.4087 68.3109 11.7207 68.515C10.9997 68.7291 10.0485 69.0188 9.48804 69.3668C9.35054 69.4521 9.65173 69.384 9.15437 70.4863C8.92328 70.9991 8.69115 72.0912 8.78805 72.6427C8.92651 73.4315 9.36477 73.9326 9.72951 73.9349C9.96872 73.936 10.1607 73.8456 10.335 73.693C10.5751 73.4828 10.7712 73.1371 10.7083 72.9328C10.655 72.8641 10.0079 72.9627 9.96191 72.8984C9.91608 72.834 10.0406 72.3303 10.1141 72.265C10.187 72.2 10.7711 72.2868 10.8493 72.2228C10.9276 72.1594 10.9999 71.5346 11.0802 71.4964ZM5.22013 71.4964C5.30018 71.5346 5.37255 72.1594 5.45095 72.2229C5.52917 72.2868 6.11305 72.2 6.18629 72.2651C6.25954 72.3304 6.38421 72.8342 6.33828 72.8985C6.29219 72.9627 5.6452 72.8642 5.59186 72.9329C5.52909 73.1372 5.7249 73.4829 5.96507 73.6931C6.13959 73.8457 6.3313 73.936 6.57068 73.935C6.93534 73.9327 7.37359 73.4315 7.51223 72.6428C7.60896 72.0913 7.377 70.9992 7.14565 70.4864C6.64855 69.3841 6.94966 69.4521 6.81224 69.3668C6.25159 69.0188 5.30062 68.7292 4.57959 68.5151C3.89148 68.311 3.22031 68.1728 2.58065 68.4167C1.53128 68.8167 1.77259 70.152 2.17208 70.9684C2.71605 72.0785 3.63246 73.6824 4.37182 73.8892C4.76834 73.9999 5.01689 73.8349 5.01567 73.5154C5.01488 73.2635 4.97332 73.0175 4.81443 72.8965C4.81443 72.8965 4.05081 72.8916 3.97241 72.8237C3.8941 72.7559 3.83273 72.2969 3.84696 72.2048C3.86136 72.1127 4.67955 72.2796 4.72268 72.1906C4.76616 72.1017 4.51237 71.5806 4.55759 71.4922C4.60238 71.4039 5.22013 71.4964 5.22013 71.4964Z" fill="#6D80B0"></path> <path d="M8.21064 75.4814H2.69458V76.4077H8.21064" fill="#6D80B0"></path> <path d="M8.08936 75.4814H13.6055V76.4077H8.08936" fill="#6D80B0"></path> </g> <defs> <clipPath id="clip0_174_2724"> <rect width="147.714" height="22" fill="white" transform="translate(1 64)"></rect> </clipPath> </defs> </svg> 