<?xml version="1.0" encoding="UTF-8"?> <svg xmlns="http://www.w3.org/2000/svg" width="300" height="100" viewBox="0 0 300 100" fill="none"><path d="M75.2609 17.7191V40.8763H71.2405V22.7043H71.1869L64.0039 40.8763H61.3237L53.9799 22.7043H53.9262V40.8763H50.2275V17.7191H56.0168L62.6638 34.8725H62.771L69.7932 17.7191H75.2609ZM78.5844 19.488C78.5844 18.8448 78.7988 18.3087 79.2812 17.8799C79.7637 17.451 80.2997 17.2366 80.943 17.2366C81.6398 17.2366 82.2295 17.451 82.6583 17.8799C83.0872 18.3087 83.3552 18.8448 83.3552 19.488C83.3552 20.1313 83.1408 20.6673 82.6583 21.0962C82.1759 21.525 81.6398 21.7394 80.943 21.7394C80.2461 21.7394 79.7101 21.525 79.2812 21.0962C78.8524 20.6137 78.5844 20.0777 78.5844 19.488ZM82.9263 24.2588V40.8763H79.0132V24.2588H82.9263ZM94.773 38.0352C95.3626 38.0352 96.0059 37.928 96.7027 37.6064C97.3996 37.3384 98.0429 36.9631 98.6325 36.5343V40.1794C97.9892 40.5546 97.2924 40.8227 96.4883 40.9835C95.6842 41.1443 94.8266 41.2515 93.8617 41.2515C91.3959 41.2515 89.4125 40.501 87.9116 38.9465C86.357 37.392 85.6066 35.4086 85.6066 33.05C85.6066 30.3698 86.4107 28.172 87.9652 26.4566C89.5197 24.7413 91.7175 23.8836 94.6122 23.8836C95.3626 23.8836 96.1131 23.9908 96.8099 24.1516C97.5604 24.3124 98.1501 24.5805 98.5789 24.7949V28.5472C97.9892 28.1184 97.346 27.7431 96.7563 27.5287C96.1131 27.3143 95.4698 27.1535 94.8266 27.1535C93.272 27.1535 92.0391 27.6359 91.0742 28.6544C90.1094 29.6729 89.6805 31.013 89.6805 32.7284C89.6805 34.3901 90.163 35.7302 91.0742 36.6415C91.9855 37.5528 93.2184 38.0352 94.773 38.0352ZM109.729 23.9908C110.05 23.9908 110.318 23.9908 110.586 24.0444C110.854 24.098 111.069 24.1516 111.23 24.2052V28.172C111.015 28.0112 110.747 27.8503 110.318 27.7431C109.889 27.6359 109.461 27.5287 108.871 27.5287C107.906 27.5287 107.102 27.9575 106.459 28.7616C105.816 29.5657 105.44 30.7986 105.44 32.5139V40.8763H101.527V24.2588H105.44V26.8855H105.494C105.869 25.9742 106.405 25.2773 107.102 24.7413C107.852 24.2588 108.71 23.9908 109.729 23.9908ZM111.444 32.8356C111.444 30.1017 112.248 27.9039 113.749 26.2958C115.304 24.6877 117.448 23.8836 120.182 23.8836C122.755 23.8836 124.792 24.6341 126.239 26.1886C127.686 27.7431 128.437 29.8337 128.437 32.4603C128.437 35.1406 127.633 37.2848 126.132 38.8929C124.577 40.501 122.487 41.3051 119.806 41.3051C117.233 41.3051 115.196 40.5546 113.695 39.0537C112.194 37.4992 111.444 35.4086 111.444 32.8356ZM115.518 32.6748C115.518 34.3901 115.893 35.7302 116.697 36.6415C117.501 37.5528 118.627 38.0352 120.074 38.0352C121.468 38.0352 122.594 37.6064 123.344 36.6415C124.095 35.7302 124.47 34.3901 124.47 32.5675C124.47 30.7986 124.095 29.4585 123.344 28.4936C122.594 27.5823 121.468 27.0999 120.128 27.0999C118.681 27.0999 117.609 27.5823 116.804 28.5472C115.893 29.5657 115.518 30.9058 115.518 32.6748ZM134.28 28.6544C134.28 29.1905 134.44 29.6729 134.816 29.9945C135.191 30.3162 135.941 30.6914 137.174 31.1738C138.729 31.8171 139.854 32.5139 140.444 33.2644C141.087 34.0685 141.409 34.9798 141.409 36.1055C141.409 37.66 140.819 38.8929 139.586 39.8578C138.407 40.8227 136.745 41.2515 134.708 41.2515C134.012 41.2515 133.261 41.1443 132.403 40.9835C131.546 40.8227 130.849 40.6082 130.259 40.3402V36.4807C130.956 36.9631 131.76 37.392 132.564 37.66C133.368 37.928 134.119 38.0888 134.816 38.0888C135.673 38.0888 136.37 37.9816 136.745 37.7136C137.174 37.4456 137.389 37.0703 137.389 36.4807C137.389 35.9446 137.174 35.5158 136.745 35.087C136.317 34.7117 135.459 34.2829 134.28 33.8005C132.832 33.2108 131.814 32.5139 131.224 31.7635C130.634 31.013 130.313 30.0481 130.313 28.8688C130.313 27.3679 130.902 26.135 132.082 25.1701C133.261 24.2052 134.816 23.7228 136.692 23.7228C137.281 23.7228 137.925 23.7764 138.622 23.9372C139.318 24.098 139.962 24.2588 140.444 24.4196V28.2256C139.908 27.9039 139.318 27.5823 138.622 27.3143C137.925 27.0463 137.228 26.9391 136.585 26.9391C135.834 26.9391 135.244 27.0999 134.869 27.3679C134.494 27.7431 134.28 28.1184 134.28 28.6544ZM143.071 32.8356C143.071 30.1017 143.875 27.9039 145.376 26.2958C146.93 24.6877 149.074 23.8836 151.808 23.8836C154.381 23.8836 156.418 24.6341 157.866 26.1886C159.313 27.7431 160.063 29.8337 160.063 32.4603C160.063 35.1406 159.259 37.2848 157.758 38.8929C156.204 40.501 154.113 41.3051 151.433 41.3051C148.86 41.3051 146.823 40.5546 145.322 39.0537C143.875 37.4992 143.071 35.4086 143.071 32.8356ZM147.145 32.6748C147.145 34.3901 147.52 35.7302 148.324 36.6415C149.128 37.5528 150.254 38.0352 151.701 38.0352C153.095 38.0352 154.22 37.6064 154.971 36.6415C155.721 35.7302 156.097 34.3901 156.097 32.5675C156.097 30.7986 155.721 29.4585 154.971 28.4936C154.22 27.5823 153.095 27.0999 151.755 27.0999C150.307 27.0999 149.235 27.5823 148.431 28.5472C147.574 29.5657 147.145 30.9058 147.145 32.6748ZM173.089 27.4751H167.246V40.8763H163.28V27.4751H160.492V24.2588H163.28V21.9538C163.28 20.2385 163.869 18.7912 164.995 17.6655C166.121 16.5398 167.568 16.0037 169.337 16.0037C169.819 16.0037 170.248 16.0573 170.624 16.0573C170.999 16.0573 171.32 16.1645 171.588 16.2717V19.6488C171.481 19.5952 171.213 19.488 170.892 19.3808C170.57 19.2736 170.195 19.22 169.766 19.22C168.962 19.22 168.319 19.488 167.89 19.9705C167.461 20.4529 167.246 21.257 167.246 22.2219V24.2052H173.089V20.4529L177.002 19.2736V24.2052H180.969V27.4215H177.002V35.1942C177.002 36.2127 177.217 36.9095 177.539 37.3384C177.914 37.7672 178.503 37.9816 179.307 37.9816C179.522 37.9816 179.79 37.928 180.112 37.8208C180.433 37.7136 180.701 37.6064 180.916 37.4456V40.6618C180.648 40.8227 180.272 40.9299 179.683 41.0371C179.093 41.1443 178.557 41.1979 177.967 41.1979C176.306 41.1979 175.073 40.7691 174.269 39.9114C173.465 39.0537 173.036 37.7136 173.036 35.9446L173.089 27.4751Z" fill="#12284C"></path><path d="M18.3328 10H0V28.3328H18.3328V10Z" fill="#12284C"></path><path d="M38.5953 10H20.2625V28.3328H38.5953V10Z" fill="#12284C"></path><path d="M18.3328 30.2625H0V48.5953H18.3328V30.2625Z" fill="#12284C"></path><path d="M38.5953 30.2625H20.2625V48.5953H38.5953V30.2625Z" fill="#12284C"></path></svg> 