<?xml version="1.0" encoding="UTF-8"?> <svg xmlns="http://www.w3.org/2000/svg" width="30" height="30" viewBox="0 0 30 30" fill="none"><circle cx="15" cy="15" r="15" fill="#52BEDA"></circle><path d="M11.25 14.25H12.75V15.75H11.25V14.25ZM11.25 17.25H12.75V18.75H11.25V17.25ZM14.25 14.25H15.75V15.75H14.25V14.25ZM14.25 17.25H15.75V18.75H14.25V17.25ZM17.25 14.25H18.75V15.75H17.25V14.25ZM17.25 17.25H18.75V18.75H17.25V17.25Z" fill="white"></path><path d="M9.75 22.5H20.25C21.0773 22.5 21.75 21.8273 21.75 21V10.5C21.75 9.67275 21.0773 9 20.25 9H18.75V7.5H17.25V9H12.75V7.5H11.25V9H9.75C8.92275 9 8.25 9.67275 8.25 10.5V21C8.25 21.8273 8.92275 22.5 9.75 22.5ZM20.25 12L20.2507 21H9.75V12H20.25Z" fill="white"></path></svg> 