<?xml version="1.0" encoding="UTF-8"?> <svg xmlns="http://www.w3.org/2000/svg" width="25" height="25" viewBox="0 0 25 25" fill="none"><path d="M17.2399 18.8333H21.5541C22.9156 18.8333 24.0794 17.6315 23.4377 16.3975C22.3826 14.3687 20.0045 13.1333 17.2399 13.1333C15.8871 13.1333 14.6306 13.4152 13.5769 13.9395M1.18135 19.5642C2.23644 17.5353 4.61452 16.3 7.3791 16.3C10.1437 16.3 12.5218 17.5353 13.5769 19.5642C14.2186 20.7982 13.0547 22 11.6932 22H3.06498C1.70349 22 0.539646 20.7982 1.18135 19.5642ZM10.4606 9.33333C10.4606 11.0822 9.08098 12.5 7.3791 12.5C5.67723 12.5 4.29759 11.0822 4.29759 9.33333C4.29759 7.58443 5.67723 6.16667 7.3791 6.16667C9.08098 6.16667 10.4606 7.58443 10.4606 9.33333ZM20.3215 6.16667C20.3215 7.91557 18.9418 9.33333 17.2399 9.33333C15.5381 9.33333 14.1584 7.91557 14.1584 6.16667C14.1584 4.41776 15.5381 3 17.2399 3C18.9418 3 20.3215 4.41776 20.3215 6.16667Z" stroke="#12284C" stroke-width="0.904762" stroke-linecap="round" stroke-linejoin="round"></path></svg> 