<?xml version="1.0" encoding="UTF-8"?> <svg xmlns="http://www.w3.org/2000/svg" width="40" height="40" viewBox="0 0 40 40" fill="none"> <rect x="1" y="1" width="37" height="37" rx="6" fill="url(#paint0_linear_404_2202)"></rect> <path d="M32.1874 13.83C32.0411 13.2871 31.7551 12.792 31.358 12.394C30.9609 11.996 30.4664 11.7089 29.9239 11.5614C27.9122 11.009 19.8641 11 19.8641 11C19.8641 11 11.8173 10.991 9.80431 11.519C9.26211 11.6733 8.76868 11.9645 8.37141 12.3644C7.97414 12.7644 7.68635 13.2598 7.53569 13.803C7.00514 15.8147 7 19.9872 7 19.9872C7 19.9872 6.99486 24.1801 7.52155 26.1713C7.81702 27.2722 8.68413 28.1419 9.78633 28.4386C11.8186 28.991 19.8448 29 19.8448 29C19.8448 29 27.8929 29.009 29.9046 28.4823C30.4474 28.335 30.9423 28.0486 31.3404 27.6514C31.7385 27.2542 32.026 26.7599 32.1745 26.2175C32.7064 24.2071 32.7102 20.036 32.7102 20.036C32.7102 20.036 32.7359 15.8417 32.1874 13.83ZM17.2897 23.8526L17.2962 16.1449L23.9851 20.0051L17.2897 23.8526Z" fill="white"></path> <defs> <linearGradient id="paint0_linear_404_2202" x1="35.5" y1="2.5" x2="2" y2="36.5" gradientUnits="userSpaceOnUse"> <stop stop-color="#FE0000"></stop> <stop offset="1" stop-color="#9F0000"></stop> </linearGradient> </defs> </svg> 