<?xml version="1.0" encoding="UTF-8"?> <svg xmlns="http://www.w3.org/2000/svg" width="538" height="137" viewBox="0 0 538 137" fill="none"><g clip-path="url(#clip0_2080_1047)"><path d="M198.095 80.4829L197.197 82.6797C195.4 83.5784 193.504 84.1775 191.708 84.6768C189.912 85.176 188.015 85.3757 186.02 85.3757C183.624 85.3757 181.429 85.176 179.233 84.477C177.038 83.7781 175.242 82.9792 173.745 81.8808C172.248 80.7824 170.851 79.4843 170.052 78.1862C169.254 76.8881 168.256 75.2905 167.857 73.5929C167.457 71.7956 166.958 70.098 166.958 68.101C166.958 63.0084 168.755 58.8145 172.248 55.5193C175.741 52.2241 180.631 50.6265 186.518 50.6265C188.015 50.6265 189.413 50.6265 190.51 50.8262C191.808 51.0259 193.105 51.2256 194.901 51.7249C196.698 52.1243 197.795 52.4238 198.195 52.6235C197.795 53.5222 197.496 54.4209 197.296 55.2198C197.097 56.5179 196.897 58.1155 196.897 59.8131H195.4V56.9173C195.201 55.4195 194.303 54.3211 192.806 53.4224C191.309 52.7234 189.113 52.324 186.02 52.324C183.824 52.324 181.828 52.5237 180.331 53.2227C178.834 53.6221 177.437 54.5208 176.14 55.8189C175.042 56.9173 173.944 58.4151 173.246 60.2125C172.547 62.0098 172.148 64.2066 172.148 67.0026C172.148 71.8954 173.645 75.59 176.539 78.4858C179.433 81.3816 183.325 82.8794 188.215 82.8794C190.411 82.8794 192.406 82.6797 194.203 81.9807C195.5 81.5813 196.598 80.8823 197.895 79.9836L198.095 80.4829Z" fill="white"></path><path d="M199.492 73.8924C199.492 70.3975 200.59 67.5018 202.785 65.305C204.981 63.1082 207.875 62.0098 211.368 62.0098C214.661 62.0098 217.355 63.1082 219.551 65.1052C221.746 67.1023 222.645 69.9981 222.645 73.2933C222.645 75.4901 222.245 77.6869 221.148 79.684C220.05 81.6811 218.553 82.9792 216.557 84.0775C214.561 85.1759 212.366 85.5754 210.17 85.5754C208.374 85.5754 206.877 85.3757 205.58 84.6767C204.282 83.9777 203.384 83.3786 202.486 82.2802C201.588 81.3815 201.188 80.2831 200.69 79.3844C199.692 77.587 199.492 75.7897 199.492 73.8924ZM203.883 72.095C203.883 74.0921 204.083 76.0892 204.781 78.0863C205.48 80.0834 206.278 81.5812 207.675 82.4799C208.973 83.3786 210.27 83.778 211.667 83.778C213.463 83.778 214.96 83.079 216.258 81.5812C217.555 80.0834 218.054 77.8866 218.054 74.9908C218.054 72.5943 217.655 70.3975 216.956 68.6001C216.258 66.8028 215.16 65.5047 214.062 64.606C212.964 63.907 211.667 63.5076 210.37 63.5076C208.374 63.5076 206.877 64.2066 205.779 65.7044C204.482 67.2022 203.883 68.9996 203.883 72.095Z" fill="white"></path><path d="M222.744 84.6764V83.3783C224.541 83.3783 225.339 83.3783 225.638 83.3783C225.838 83.3783 226.038 83.1786 226.337 83.1786C226.537 83.1786 226.537 82.9789 226.537 82.7792C226.736 82.3798 226.736 81.8805 226.736 80.9818C226.736 76.7879 226.936 74.5912 226.936 74.3914V71.4957C226.936 70.1976 226.936 68.8995 226.936 67.5015C226.936 66.6028 226.936 66.0037 226.736 65.7041C226.736 65.5044 226.537 65.5044 226.337 65.3047C226.137 65.3047 225.04 65.105 223.243 65.3047V63.9068C226.337 63.5073 228.732 62.8084 230.329 62.1094C230.528 61.9097 230.728 61.9097 231.027 61.9097C231.027 61.9097 231.227 61.9097 231.227 62.1094C231.227 62.1094 231.227 62.3091 231.227 62.5088C231.227 62.5088 231.227 62.7085 231.227 62.9082C231.227 63.8069 231.027 65.3047 231.027 67.3018C231.726 66.4031 232.325 65.804 233.023 64.9053C233.722 64.0066 234.121 63.6072 234.321 63.4075C234.72 63.0081 235.418 62.7085 235.818 62.5088C236.516 62.3091 237.115 62.1094 237.814 62.1094C238.512 62.1094 239.111 62.3091 239.809 62.5088L240.009 62.9082C239.809 65.105 239.61 66.9024 239.61 68.4002H238.313C237.913 67.7012 237.414 67.1021 237.015 66.6028C236.616 66.2034 235.917 66.2034 235.219 66.2034C233.922 66.2034 233.023 66.6028 232.125 67.7012C231.227 68.7996 230.828 70.0977 230.828 72.0948V74.4913C230.828 75.5897 230.828 77.3871 231.027 80.183C231.027 81.0817 231.027 81.6808 231.227 81.9804C231.227 82.1801 231.427 82.3798 231.427 82.6794C231.427 82.8791 231.626 82.8791 231.826 82.8791C232.225 83.0788 233.622 83.0788 235.518 83.2785V84.8761C232.624 84.8761 230.429 84.6764 228.433 84.6764C226.537 84.6764 224.541 84.6764 222.744 84.6764Z" fill="white"></path><path d="M241.506 84.6767V83.3786H243.702C244.101 83.3786 244.4 83.3786 244.4 83.1789C244.6 83.1789 244.6 82.9792 244.799 82.7794C244.999 82.5797 244.999 81.8808 245.199 80.9821C245.199 80.7824 245.199 78.5856 245.398 74.192V71.2962C245.398 69.9981 245.398 68.7 245.398 67.1023C245.398 66.2036 245.199 65.6045 245.199 65.305C245.199 65.1053 244.999 65.1052 244.799 64.9055C244.6 64.9055 243.502 64.7058 241.706 64.9055V63.6074C244.799 63.208 247.194 62.509 248.791 61.8101C248.991 61.6104 249.19 61.6104 249.49 61.6104C249.689 61.6104 249.689 61.6104 249.689 61.8101C249.689 61.8101 249.689 62.0098 249.689 62.2095C249.689 62.2095 249.689 62.4092 249.689 62.6089C249.689 63.3079 249.689 64.4063 249.49 66.1038L253.881 62.4092C255.178 62.0098 256.276 61.7102 257.573 61.7102C258.871 61.7102 259.968 61.9099 261.266 62.6089C262.363 63.0083 263.262 63.7073 263.86 64.606C264.559 65.5047 264.759 66.4034 264.958 67.7015C264.958 68.4004 265.158 70.2977 265.158 73.6927V77.8866C265.158 79.8837 265.158 81.3815 265.357 82.0805C265.357 82.4799 265.557 82.9792 265.757 82.9792C265.956 83.1789 266.156 83.1789 266.455 83.3786H268.85V84.6767C267.353 84.6767 265.956 84.477 264.858 84.477C263.96 84.477 262.463 84.477 260.467 84.6767C260.667 80.6825 260.867 78.286 260.867 77.1876V73.1934C260.867 70.7969 260.867 68.9996 260.667 68.3006C260.467 67.2022 259.769 66.3035 258.871 65.7044C257.972 65.0054 256.675 64.8057 255.378 64.8057C254.28 64.8057 253.182 65.0054 252.084 65.7044C250.987 66.4034 250.288 66.8028 249.889 67.7015C249.49 68.4004 249.19 69.6985 249.19 71.3961V74.2918C249.19 78.4857 249.39 80.6825 249.39 80.8822C249.39 81.7809 249.59 82.1803 249.59 82.6796C249.59 82.8793 249.789 82.8793 249.789 83.079C249.989 83.079 249.989 83.2787 250.488 83.2787C250.488 83.2787 251.386 83.2787 253.082 83.2787V84.5768C251.087 84.5768 249.39 84.3771 247.793 84.3771C246.596 84.6767 244.4 84.6767 241.506 84.6767Z" fill="white"></path><path d="M288.809 81.0819L288.111 82.8793C287.013 83.5783 286.115 83.9777 285.716 84.1774C285.017 84.5768 284.219 84.8764 283.121 85.0761C282.223 85.2758 281.125 85.4755 280.027 85.4755C278.031 85.4755 276.036 85.0761 274.339 84.1774C272.543 83.2787 271.245 81.9806 270.347 80.1832C269.449 78.3859 269.05 76.4886 269.05 73.9923C269.05 72.1949 269.249 70.4974 269.748 69.0994C270.148 67.6016 270.846 66.5032 271.545 65.8042C271.944 65.4048 272.642 64.7058 273.74 64.0069C274.638 63.3079 275.736 62.9085 276.634 62.509C277.932 62.1096 279.229 61.6104 280.626 61.6104C282.422 61.6104 283.919 62.0098 285.516 62.7087C286.813 63.6074 287.911 64.7058 288.61 66.0039C289.308 67.302 289.708 68.8997 289.708 70.5972C289.708 70.9966 289.708 71.4959 289.708 72.095C288.61 72.2947 287.512 72.4945 286.614 72.4945C284.818 72.6942 283.321 72.6942 281.524 72.6942H273.84C273.84 74.891 274.239 76.8881 274.938 78.1862C275.636 79.4843 276.734 80.5827 278.031 81.2816C279.329 81.9806 280.626 82.38 282.223 82.38C283.121 82.38 284.219 82.1803 285.117 81.9806C286.015 81.7809 287.312 81.0819 288.61 80.1832L288.809 81.0819ZM273.84 71.3961C274.239 71.3961 275.137 71.3961 276.235 71.5958C278.63 71.5958 280.227 71.7955 281.125 71.7955C283.321 71.7955 284.618 71.7955 285.317 71.5958C285.317 71.1964 285.317 70.8968 285.317 70.6971C285.317 68.3006 284.917 66.3035 283.82 65.2051C282.722 64.1067 281.424 63.4077 279.828 63.4077C278.031 63.4077 276.534 64.1067 275.437 65.4048C274.339 66.6031 273.84 68.6001 273.84 71.3961Z" fill="white"></path><path d="M289.907 84.6765V83.3784H292.103C292.502 83.3784 292.801 83.3784 293.001 83.1787C293.2 83.1787 293.2 82.979 293.4 82.7793C293.6 82.5796 293.6 81.8806 293.6 80.9819C293.6 80.7822 293.6 78.5854 293.799 74.1918V64.3063C293.799 61.7101 293.799 59.014 293.6 56.1182C293.6 54.1211 293.4 53.2224 293.4 53.0227C293.4 52.823 293.2 52.823 293.001 52.6233C292.801 52.6233 291.703 52.4236 289.708 52.4236V50.9258C293.2 50.5264 295.695 49.8274 297.192 49.1284C297.392 49.1284 297.591 48.9287 297.591 48.9287H297.791V49.1284C297.791 49.1284 297.791 49.3281 297.791 49.5278V50.4265C297.791 53.3223 297.591 55.7188 297.591 57.7159V61.4105V73.8923C297.591 78.0861 297.791 80.2829 297.791 80.4826C297.791 81.3813 297.791 81.7808 297.991 82.28C297.991 82.4797 298.19 82.4797 298.19 82.6794C298.39 82.6794 298.39 82.8791 298.889 82.8791C298.889 82.8791 299.787 82.8791 301.483 82.8791V84.1773C299.288 83.9775 297.492 83.9775 295.795 83.9775C294.298 84.4768 292.302 84.6765 289.907 84.6765Z" fill="white"></path><path d="M303.978 84.6765V83.3784H306.174C306.573 83.3784 306.873 83.3784 307.072 83.1787C307.272 83.1787 307.272 82.979 307.471 82.7793C307.671 82.5796 307.671 81.8806 307.671 80.9819C307.671 80.7822 307.671 78.5854 307.87 74.1918V64.3063C307.87 61.7101 307.87 59.014 307.671 56.1182C307.671 54.1211 307.471 53.2224 307.471 53.0227C307.471 52.823 307.272 52.823 307.072 52.6233C306.873 52.6233 305.775 52.4236 303.779 52.4236V50.9258C307.272 50.5264 309.767 49.8274 311.264 49.1284C311.463 49.1284 311.663 48.9287 311.663 48.9287H311.862V49.1284C311.862 49.1284 311.862 49.3281 311.862 49.5278V50.4265C311.862 53.3223 311.663 55.7188 311.663 57.7159V61.4105V73.8923C311.663 78.0861 311.862 80.2829 311.862 80.4826C311.862 81.3813 311.862 81.7808 312.062 82.28C312.062 82.4797 312.261 82.4797 312.261 82.6794C312.461 82.6794 312.461 82.8791 312.96 82.8791C312.96 82.8791 313.858 82.8791 315.555 82.8791V84.1773C313.359 83.9775 311.563 83.9775 309.866 83.9775C308.369 84.4768 306.473 84.6765 303.978 84.6765Z" fill="white"></path><path d="M326.233 52.5234V50.9258C328.828 51.1255 331.323 51.1255 333.518 51.1255C335.714 51.1255 337.909 51.1255 340.105 50.9258V52.4236C338.308 52.4236 337.011 52.6233 336.811 52.6233C336.412 52.823 336.113 52.823 335.913 53.3223C335.714 53.522 335.514 54.4207 335.514 55.5191C335.514 55.7188 335.514 58.1153 335.514 62.3092V71.0963C335.514 74.3915 335.714 76.788 336.213 77.6867C336.612 78.7851 337.31 79.6838 338.208 80.2829C338.907 80.6823 340.005 81.1816 341.103 81.581C342.4 81.7807 343.697 81.9804 345.294 81.9804C347.09 81.9804 348.587 81.7807 349.885 81.2815C351.182 80.8821 352.28 80.3828 352.978 79.7837C353.677 79.0847 354.076 78.4855 354.475 77.5869C354.874 76.6882 355.174 75.7895 355.174 74.4914C355.373 73.1933 355.373 71.3959 355.373 69.3988V62.1095C355.373 59.9127 355.373 57.9156 355.373 55.7188C355.373 54.221 355.174 53.3223 355.174 53.1226C354.974 52.9229 354.775 52.7232 354.276 52.4236C353.876 52.2239 352.779 52.2239 350.982 52.2239V50.9258C353.577 51.1255 355.373 51.1255 356.671 51.1255C357.768 51.1255 359.764 51.1255 362.658 50.9258V52.4236C360.663 52.4236 359.565 52.6233 359.166 52.6233C358.766 52.823 358.467 52.823 358.267 53.3223C358.068 53.522 358.068 54.4207 357.868 55.5191C357.868 55.7188 357.868 58.1153 357.868 62.3092V70.1977C357.868 74.1918 357.669 76.788 356.97 78.3857C356.571 79.8835 355.473 81.2815 353.876 82.5796C352.779 83.4783 351.481 84.0774 349.685 84.5767C347.889 84.9761 346.192 85.2756 343.997 85.2756C341.602 85.2756 339.406 85.0759 337.61 84.3769C335.813 83.678 334.516 83.0788 333.618 82.1802C332.72 81.2815 332.121 80.1831 331.622 79.2844C331.223 77.9863 330.923 75.7895 330.923 72.694V62.409C330.923 60.2122 330.923 58.2151 330.923 56.0183C330.923 54.5205 330.724 53.6218 330.524 53.4221C330.325 53.2224 330.125 53.0227 329.626 52.7232C329.127 52.7232 328.029 52.7232 326.233 52.5234Z" fill="white"></path><path d="M359.465 84.6767V83.3786H361.66C362.06 83.3786 362.359 83.3786 362.359 83.1789C362.559 83.1789 362.559 82.9792 362.758 82.7794C362.958 82.5797 362.958 81.8808 363.157 80.9821C363.157 80.7824 363.157 78.5856 363.357 74.192V71.2962C363.357 69.9981 363.357 68.7 363.357 67.1023C363.357 66.2036 363.157 65.6045 363.157 65.305C363.157 65.1053 362.958 65.1052 362.758 64.9055C362.559 64.9055 361.461 64.7058 359.664 64.9055V63.6074C362.758 63.208 365.153 62.509 366.75 61.8101C366.95 61.6104 367.149 61.6104 367.449 61.6104C367.648 61.6104 367.648 61.6104 367.648 61.8101C367.648 62.0098 367.648 62.0098 367.648 62.2095C367.648 62.2095 367.648 62.4092 367.648 62.6089C367.648 63.3079 367.648 64.4063 367.449 66.1038L371.84 62.4092C373.137 62.0098 374.235 61.7102 375.532 61.7102C376.829 61.7102 377.927 61.9099 379.224 62.6089C380.322 63.0083 381.22 63.7073 381.819 64.606C382.518 65.5047 382.717 66.4034 382.917 67.7015C382.917 68.4004 383.116 70.2977 383.116 73.6927V77.8866C383.116 79.8837 383.116 81.3815 383.316 82.0805C383.316 82.4799 383.516 82.9792 383.715 82.9792C383.915 83.1789 384.114 83.1789 384.414 83.3786H386.809V84.6767C385.312 84.6767 383.915 84.477 382.817 84.477C381.919 84.477 380.422 84.477 378.426 84.6767C378.626 80.6825 378.825 78.286 378.825 77.1876V73.1934C378.825 70.7969 378.825 68.9996 378.626 68.3006C378.426 67.2022 377.727 66.3035 376.829 65.7044C375.931 65.0054 374.634 64.8057 373.336 64.8057C372.239 64.8057 371.141 65.0054 370.043 65.7044C369.145 66.4034 368.247 66.8028 367.848 67.7015C367.449 68.4004 367.149 69.6985 367.149 71.3961V74.2918C367.149 78.4857 367.349 80.6825 367.349 80.8822C367.349 81.7809 367.548 82.1803 367.548 82.6796C367.548 82.8793 367.748 82.8793 367.748 83.079C367.947 83.079 367.948 83.2787 368.446 83.2787C368.446 83.2787 369.345 83.2787 371.041 83.2787V84.5768C369.045 84.5768 367.349 84.3771 365.752 84.3771C364.554 84.6767 362.359 84.6767 359.465 84.6767Z" fill="white"></path><path d="M388.106 65.305V63.9071C391.2 63.5077 393.795 62.8087 395.791 61.91L396.19 62.3094C395.99 65.6046 395.99 68.3007 395.99 69.9982V74.3918C395.99 78.5856 396.19 80.7824 396.19 80.9821C396.19 81.8808 396.19 82.2803 396.389 82.7795C396.389 82.9792 396.589 82.9792 396.589 83.1789C396.789 83.1789 396.789 83.3786 397.288 83.3786C397.288 83.3786 398.186 83.3786 399.882 83.3786V84.8765C397.487 84.8765 395.491 84.6768 394.194 84.6768C392.897 84.6768 390.901 84.6768 388.007 84.8765V83.5784H390.202C390.601 83.5784 390.901 83.5784 390.901 83.3786C391.1 83.3786 391.1 83.1789 391.3 82.9792C391.499 82.7795 391.499 82.0805 391.699 81.1819C391.699 80.9821 391.699 78.7854 391.899 74.3918V70.1979C391.899 67.8014 391.899 66.5033 391.699 66.004C391.699 65.8043 391.499 65.6046 391.3 65.6046C391 65.305 389.903 65.305 388.106 65.305ZM393.795 51.4253C394.493 51.4253 395.092 51.625 395.791 52.324C396.19 52.7234 396.489 53.4224 396.489 54.3211C396.489 55.02 396.29 55.6192 395.591 56.1184C394.893 56.5179 394.493 57.0171 393.795 57.0171C393.096 57.0171 392.497 56.8174 391.799 56.1184C391.1 55.4195 390.901 55.02 390.901 54.3211C390.901 53.6221 391.1 53.023 391.799 52.324C392.497 51.625 392.897 51.4253 393.795 51.4253Z" fill="white"></path><path d="M410.76 84.8761C410.061 83.3783 409.662 82.2799 409.463 81.5809L407.467 76.9877L402.577 65.804C402.377 65.105 401.878 64.7056 401.678 64.5059C401.479 64.3062 401.279 64.1065 400.98 64.1065C400.78 64.1065 400.082 64.1065 399.184 63.9067V62.6086C401.778 62.6086 403.774 62.8084 404.872 62.8084C406.169 62.8084 407.966 62.8084 410.361 62.6086V63.9067C408.564 63.9067 407.766 64.1065 407.267 64.3062C406.768 64.5059 406.868 64.7056 406.868 65.0051C406.868 65.4046 407.067 66.503 407.766 68.1006L410.66 75.39L411.359 76.8878C412.257 78.8849 412.656 79.9833 412.856 80.5824L415.251 75.2901C415.45 75.0904 416.149 73.293 417.446 69.9979C418.145 68.0008 418.744 66.7027 418.943 65.6043C418.943 65.4046 418.943 65.2049 418.943 64.9053C418.943 64.7056 418.943 64.5059 418.744 64.2063C418.344 64.0066 417.446 63.8069 415.65 63.8069V62.5088C418.045 62.5088 419.642 62.7085 420.241 62.7085C420.939 62.7085 422.236 62.7085 424.831 62.5088V63.8069C423.933 63.8069 423.334 64.0066 422.835 64.2063C422.636 64.406 422.137 64.9053 421.937 65.3047C421.737 65.7041 420.839 67.3018 419.342 70.3973L417.147 75.2901C416.748 76.1888 415.351 79.484 412.955 84.976C413.155 84.8761 410.76 84.8761 410.76 84.8761Z" fill="white"></path><path d="M444.691 81.0819L443.992 82.8793C442.894 83.5783 441.996 83.9777 441.597 84.1774C440.899 84.5768 440.1 84.8764 439.002 85.0761C438.104 85.2758 437.006 85.4755 435.909 85.4755C433.913 85.4755 431.917 85.0761 430.22 84.1774C428.524 83.2787 427.127 81.9806 426.229 80.1832C425.33 78.3859 424.931 76.4886 424.931 73.9923C424.931 72.1949 425.131 70.4974 425.63 69.0994C426.029 67.6016 426.727 66.5032 427.426 65.8042C427.825 65.4048 428.524 64.7058 429.622 64.0069C430.52 63.3079 431.617 62.9085 432.516 62.509C433.813 62.1096 435.11 61.6104 436.507 61.6104C438.304 61.6104 439.801 62.0098 441.397 62.7087C442.695 63.6074 443.793 64.7058 444.491 66.0039C445.19 67.302 445.589 68.8997 445.589 70.5972C445.589 70.9966 445.589 71.4959 445.589 72.095C444.491 72.2947 443.393 72.4945 442.495 72.4945C440.699 72.6942 439.202 72.6942 437.406 72.6942H429.721C429.721 74.891 430.121 76.8881 430.819 78.1862C431.518 79.4843 432.615 80.5827 433.913 81.2816C435.21 81.9806 436.507 82.38 438.104 82.38C439.002 82.38 440.1 82.1803 440.998 81.9806C441.896 81.7809 443.194 81.0819 444.491 80.1832L444.691 81.0819ZM429.522 71.3961C429.921 71.3961 430.819 71.3961 431.917 71.5958C434.312 71.5958 435.909 71.7955 436.807 71.7955C439.002 71.7955 440.3 71.7955 440.998 71.5958C440.998 71.1964 440.998 70.8968 440.998 70.6971C440.998 68.3006 440.599 66.3035 439.501 65.2051C438.404 64.1067 437.106 63.4077 435.51 63.4077C433.713 63.4077 432.216 64.1067 431.119 65.4048C429.921 66.6031 429.522 68.6001 429.522 71.3961Z" fill="white"></path><path d="M446.687 84.6764V83.3783C448.483 83.3783 449.281 83.3783 449.581 83.3783C449.88 83.3783 449.98 83.1786 450.279 83.1786C450.579 83.1786 450.479 82.9789 450.479 82.7792C450.678 82.3798 450.678 81.8805 450.678 80.9818C450.678 76.7879 450.878 74.5912 450.878 74.3914V71.4957C450.878 70.1976 450.878 68.8995 450.878 67.5015C450.878 66.6028 450.878 66.0037 450.678 65.7041C450.678 65.5044 450.479 65.5044 450.279 65.3047C450.08 65.3047 448.982 65.105 447.186 65.3047V63.9068C450.279 63.5073 452.674 62.8084 454.271 62.1094C454.471 61.9097 454.67 61.9097 454.97 61.9097C455.269 61.9097 455.169 61.9097 455.169 62.1094C455.169 62.3091 455.169 62.3091 455.169 62.5088C455.169 62.5088 455.169 62.7085 455.169 62.9082C455.169 63.8069 454.97 65.3047 454.97 67.3018C455.668 66.4031 456.267 65.804 456.965 64.9053C457.664 64.0066 458.063 63.6072 458.263 63.4075C458.662 63.0081 459.361 62.7085 459.76 62.5088C460.458 62.3091 461.057 62.1094 461.756 62.1094C462.454 62.1094 463.053 62.3091 463.752 62.5088L463.951 62.9082C463.752 65.105 463.552 66.9024 463.552 68.4002H462.454C462.055 67.7012 461.556 67.1021 461.157 66.6028C460.758 66.2034 460.059 66.2034 459.361 66.2034C458.063 66.2034 457.165 66.6028 456.267 67.7012C455.369 68.7996 454.97 70.0977 454.97 72.0948V74.4913C454.97 75.5897 454.97 77.3871 455.169 80.183C455.169 81.0817 455.169 81.6808 455.369 81.9804C455.568 82.1801 455.568 82.3798 455.568 82.6794C455.568 82.8791 455.768 82.8791 455.968 82.8791C456.367 83.0788 457.764 83.0788 459.66 83.2785V84.8761C456.766 84.8761 454.57 84.6764 452.574 84.6764C450.379 84.6764 448.583 84.6764 446.687 84.6764Z" fill="white"></path><path d="M465.847 77.5868H467.145C467.145 78.4855 467.145 79.0846 467.344 79.7836C467.544 80.4826 467.544 80.882 467.744 81.2814C467.943 81.6808 468.143 82.1801 468.642 82.5795C469.041 82.9789 469.54 83.2785 469.939 83.4782C470.338 83.6779 470.837 83.6779 471.236 83.8776C471.636 83.8776 472.334 83.8776 473.432 83.8776C474.929 83.8776 476.326 83.4782 477.424 82.5795C478.521 81.6808 478.921 80.5824 478.921 79.0846C478.921 78.3856 478.721 77.7865 478.521 77.2872C478.322 76.8878 477.623 76.3885 477.224 76.1888C476.526 75.9891 475.228 75.4898 473.232 75.0904C471.236 74.691 469.939 74.1917 469.24 73.992C468.342 73.5926 467.744 73.2931 467.045 72.8936C466.346 72.4942 466.147 71.7952 465.748 71.0963C465.548 70.3973 465.348 69.5984 465.348 68.6998C465.348 67.4017 465.548 66.3033 466.247 65.2049C466.945 64.1065 468.043 63.2078 469.34 62.6087C470.638 61.9097 472.234 61.71 473.931 61.71C475.029 61.71 476.126 61.9097 477.424 62.1094C478.721 62.3091 479.819 62.8084 480.717 63.2078C480.717 65.0052 480.517 66.7027 480.517 68.5H479.22C479.22 67.4017 479.02 66.503 479.02 66.3033C479.02 65.9038 478.821 65.6043 478.621 65.4046C478.422 65.2049 478.222 64.7056 477.723 64.5059C477.224 64.3062 476.825 63.8069 476.226 63.6072C475.528 63.4075 474.729 63.2078 473.831 63.2078C472.534 63.2078 471.436 63.6072 470.538 64.5059C469.64 65.4046 469.24 66.3033 469.24 67.4017C469.24 68.1006 469.44 68.5 469.64 68.8995C469.839 69.2989 470.338 69.7982 470.538 69.9979C470.937 70.1976 471.436 70.3973 472.334 70.6968L476.326 71.5955C478.322 71.9949 479.619 72.4942 480.517 72.8936C481.216 73.2931 481.815 73.7923 482.314 74.691C482.713 75.39 483.012 76.4884 483.012 77.5868C483.012 79.7836 482.114 81.581 480.418 83.0788C478.621 84.5766 476.226 85.4753 473.332 85.4753C472.035 85.4753 470.238 85.2756 467.843 84.7763C466.546 84.5766 465.847 84.3769 465.847 84.3769V84.1772C465.847 84.1772 465.847 83.9775 465.847 83.7777C466.047 83.0788 466.047 82.4796 466.047 81.7807C465.847 81.0817 465.847 79.5839 465.847 77.5868Z" fill="white"></path><path d="M484.709 65.305V63.9071C487.803 63.5077 490.397 62.8087 492.393 61.91L492.792 62.3094C492.593 65.6046 492.593 68.3007 492.593 69.9982V74.3918C492.593 78.5856 492.792 80.7824 492.792 80.9821C492.792 81.8808 492.792 82.2803 492.992 82.7795C492.992 82.9792 493.192 82.9792 493.192 83.1789C493.391 83.1789 493.391 83.3786 493.89 83.3786C493.89 83.3786 494.788 83.3786 496.485 83.3786V84.8765C494.09 84.8765 492.094 84.6768 490.796 84.6768C489.499 84.6768 487.503 84.6768 484.609 84.8765V83.5784H486.805C487.204 83.5784 487.503 83.5784 487.503 83.3786C487.703 83.3786 487.703 83.1789 487.902 82.9792C488.102 82.7795 488.102 82.0805 488.302 81.1819C488.302 80.9821 488.302 78.7854 488.501 74.3918V70.1979C488.501 67.8014 488.501 66.5033 488.302 66.004C488.302 65.8043 488.102 65.6046 487.902 65.6046C487.603 65.305 486.705 65.305 484.709 65.305ZM490.497 51.4253C491.196 51.4253 491.794 51.625 492.493 52.324C492.892 52.7234 493.192 53.4224 493.192 54.3211C493.192 55.02 492.992 55.6192 492.293 56.1184C491.595 56.6177 491.196 57.0171 490.497 57.0171C489.799 57.0171 489.2 56.8174 488.501 56.1184C487.803 55.4195 487.603 55.02 487.603 54.3211C487.603 53.6221 487.803 53.023 488.501 52.324C489.2 51.625 489.799 51.4253 490.497 51.4253Z" fill="white"></path><path d="M497.682 66.1038V65.0054C499.179 64.3065 500.576 63.907 501.375 63.5076C501.375 59.813 501.375 57.3167 501.175 56.2183C502.672 55.5193 504.069 55.1199 505.167 54.4209L505.866 54.8203C505.666 56.1184 505.466 59.0142 505.167 63.4078C506.464 63.4078 507.163 63.4078 507.363 63.4078C507.562 63.4078 508.261 63.4078 509.758 63.4078C510.656 63.4078 511.255 63.4078 511.554 63.4078L511.754 63.6075L511.354 65.8043C510.257 65.8043 509.358 65.8043 508.76 65.8043C508.061 65.8043 506.764 65.8043 505.267 65.8043L505.067 75.4901C505.067 77.8866 505.067 79.1848 505.067 79.684C505.067 80.1833 505.267 80.5827 505.466 80.7824C505.666 81.1818 505.866 81.4814 506.365 81.6811C506.764 81.8808 507.263 82.0805 508.161 82.0805C508.86 82.0805 509.259 82.0805 509.658 82.0805C510.057 82.0805 510.556 81.8808 511.155 81.6811L511.354 82.5798C510.656 83.2788 509.857 83.6782 509.159 84.3772C508.46 84.5769 508.061 84.7766 507.363 84.7766C506.963 84.7766 506.265 84.7766 505.566 84.7766C504.668 84.7766 504.069 84.7766 503.57 84.5769C503.171 84.3772 502.672 84.1775 502.273 83.6782C501.874 83.1789 501.574 82.9792 501.175 82.3801C500.776 81.6811 500.776 81.082 500.776 79.9836C500.776 78.8852 500.776 77.7868 500.776 76.4887C500.776 76.289 500.776 76.0893 500.776 75.59V65.9041H499.878C499.678 65.9041 498.78 66.1038 497.682 66.1038Z" fill="white"></path><path d="M513.55 97.458L514.648 93.7634H515.346C515.546 93.9631 516.045 94.1628 516.045 94.4624C516.244 94.6621 516.444 94.6621 516.743 94.8618C516.943 94.8618 517.442 95.0615 517.841 95.0615C518.24 95.0615 518.739 95.0615 519.138 94.8618C519.538 94.6621 520.037 94.4624 520.436 93.7634C520.835 93.364 521.334 92.4653 521.733 91.3669C522.631 89.5695 523.23 88.0717 523.929 86.2743C523.529 84.9762 522.831 83.1789 522.132 81.3815L518.44 72.095C517.342 69.1993 516.444 67.2022 515.845 65.7044C515.646 65.0054 515.147 64.8057 514.947 64.606C514.747 64.4063 513.849 64.2066 512.751 64.2066V62.9085C514.747 62.9085 516.743 63.1082 518.44 63.1082C520.136 63.1082 522.132 63.1082 523.729 62.9085V63.8071C522.232 63.8071 521.134 64.0068 520.835 64.0068C520.436 64.2066 520.136 64.4063 520.136 64.9055C520.136 65.1052 520.336 65.8042 520.536 66.4034C521.234 68.4004 521.633 69.8982 522.332 71.4959L523.829 75.1905C524.727 77.3873 525.625 79.1847 526.024 80.4828L527.322 77.587C527.721 76.4886 528.619 74.2918 529.916 71.1964C531.214 68.1009 531.912 66.1038 532.112 65.5047C532.112 65.305 532.112 65.1052 532.112 64.8057C532.112 64.606 531.912 64.4063 531.713 64.1067C531.513 63.907 530.615 63.907 528.819 63.7073V62.2095C530.615 62.2095 532.311 62.4092 533.709 62.4092C535.006 62.4092 536.603 62.4092 537.9 62.2095L537.7 63.7073C536.802 63.7073 536.403 63.907 535.904 64.1067C535.505 64.3064 534.806 65.4048 533.908 67.2022C533.01 68.9996 531.314 72.4945 528.819 77.7867L523.33 90.5681C522.432 92.5652 521.833 94.063 521.134 94.9617C520.436 95.8603 519.837 96.4595 518.739 96.9587C517.841 97.3582 516.743 97.6577 515.845 97.6577C515.446 97.6577 514.947 97.6577 514.548 97.458C514.448 97.8574 514.049 97.6577 513.55 97.458Z" fill="white"></path><path d="M10.2788 68.9993C13.1729 68.9993 14.8694 67.2019 15.069 63.9068C15.069 63.3076 15.069 62.5088 14.9692 61.71V61.5103H12.5741L12.7737 62.0095C12.8735 62.4089 12.9733 63.1079 12.9733 63.8069C12.8735 65.4046 11.5762 66.503 9.87963 66.3033C8.0833 66.2034 6.98555 65.0052 6.98555 63.4075C6.98555 62.8084 7.08534 62.3091 7.58432 61.71L7.98351 61.3106L5.6882 60.9111L5.5884 61.1108C5.18922 61.8098 5.08943 62.6087 4.98963 63.3076C4.79004 66.6028 6.58636 68.7996 9.97943 68.8995C10.0792 68.9993 10.179 68.9993 10.2788 68.9993Z" fill="white"></path><path d="M10.6779 57.8157C11.3765 58.0154 11.9752 58.0154 12.4742 58.0154C14.6697 58.0154 16.2665 56.7173 16.965 54.6204C17.3642 53.2224 17.1646 52.124 16.5659 50.9258C15.8673 49.8274 14.7695 49.0286 13.2726 48.5293C12.6738 48.3296 11.9752 48.3296 11.5761 48.3296C9.38055 48.3296 7.78382 49.6277 7.08525 51.7246C6.28688 54.6204 7.68402 56.8172 10.6779 57.8157ZM9.18096 52.4236C9.58014 51.1255 10.5781 50.9258 11.3765 50.9258C11.7757 50.9258 12.1748 51.0257 12.6738 51.1255C13.6718 51.5249 14.4701 51.9243 14.8693 52.6233C15.0689 53.1226 15.2685 53.522 14.9691 54.1211C14.5699 55.4192 13.572 55.6189 12.7736 55.6189C12.2746 55.6189 11.9752 55.5191 11.4763 55.4192C10.0791 54.92 8.68198 53.9214 9.18096 52.4236Z" fill="white"></path><path d="M20.6576 44.9341L17.3643 43.1368L17.4641 42.9371C17.8633 42.3379 18.0629 42.3379 18.4621 42.4378L21.7553 42.9371L23.0527 40.5405L18.6617 40.0413C18.2625 40.0413 18.0629 40.0413 17.8633 40.0413C17.8633 39.1426 17.3643 38.2439 16.4661 37.7446C15.9672 37.5449 15.568 37.3452 15.069 37.3452C13.4723 37.3452 12.6739 38.9429 11.8755 40.4407L10.678 42.6375L19.3602 47.3306L20.6576 44.9341ZM15.4682 41.8387L15.3684 42.0384L13.7717 41.2395L13.8714 41.0398C14.2706 40.3408 14.6698 39.6419 15.3684 40.0413C15.568 40.1411 15.7676 40.241 15.8674 40.5405C15.8674 40.94 15.6678 41.4392 15.4682 41.8387Z" fill="white"></path><path d="M26.0465 36.2471L21.5556 32.5525L27.9426 34.0504L29.6391 31.8536L22.0546 25.4629L20.4579 27.3601L25.0485 31.1546L18.6616 29.6568L16.8652 31.8536L24.4497 38.1444L26.0465 36.2471Z" fill="white"></path><path d="M37.124 25.4629L35.7269 23.9651L33.0324 26.0621L31.7351 24.6641L34.23 22.5672L32.9326 20.9695L30.3379 22.9666L29.4398 21.7683L32.234 19.5715L30.8369 17.874L26.1465 21.6685L32.3338 29.3573L37.124 25.4629Z" fill="white"></path><path d="M45.3071 20.5701L44.2094 18.7727L41.1157 20.4703L37.3234 13.6802L35.1279 14.9783L40.0179 23.5657L45.3071 20.5701Z" fill="white"></path><path d="M53.5903 17.3746L52.8917 15.4773L49.5984 16.5757L47.0037 9.38623L44.6086 10.1851L47.9019 19.4715L53.5903 17.3746Z" fill="white"></path><path d="M63.6695 15.7769C63.8691 15.7769 64.0687 15.7769 64.2683 15.7769C65.6655 15.6771 66.6634 15.1778 67.2622 14.4788C67.861 13.7798 68.0606 12.7813 67.9608 11.5831L67.4618 5.39209L64.8671 5.49194L65.3661 11.0838C65.4659 12.981 64.6675 13.3804 63.9689 13.4803C63.8691 13.4803 63.8691 13.4803 63.7693 13.4803C63.1706 13.4803 62.3722 13.2806 62.1726 11.2835L61.6736 5.69165L59.1787 5.99122L59.6777 12.1822C60.0769 14.4788 61.3742 15.7769 63.6695 15.7769Z" fill="white"></path><path d="M74.9466 9.88553L77.0424 15.9766L79.9364 16.4759L81.134 6.59034L78.7389 6.29078L77.9405 12.0823L75.9446 5.89136L73.1503 5.5918L71.7532 15.3775L74.1483 15.6771L74.9466 9.88553Z" fill="white"></path><path d="M88.6187 8.78712L86.2236 7.98828L83.2297 17.3746L85.6248 18.1734L88.6187 8.78712Z" fill="white"></path><path d="M100.993 14.2791L98.7979 13.1807L94.0077 18.0735L95.0056 11.2835L92.6105 9.98535L91.2134 20.47L93.7083 21.6683L100.993 14.2791Z" fill="white"></path><path d="M103.488 28.5584L104.786 26.8609L102.091 24.6641L103.189 23.0665L105.684 25.0635L107.081 23.366L104.586 21.3689L105.484 20.1707L108.179 22.3675L109.676 20.5701L104.786 16.8755L98.698 24.764L103.488 28.5584Z" fill="white"></path><path d="M107.68 32.6524L110.574 30.156L110.674 30.3558C111.073 30.855 111.073 30.9549 110.773 31.4542L109.177 34.4498L110.973 36.5467L112.869 32.6524C112.969 32.5526 113.069 32.1531 113.069 31.8536C113.867 32.253 114.865 32.0533 115.763 31.3543C117.959 29.5569 116.262 27.5598 114.965 26.062L113.368 24.2646L105.883 30.7552L107.68 32.6524ZM113.568 27.46L113.667 27.6597C114.067 28.159 114.366 28.5584 114.366 28.9578C114.366 29.1575 114.266 29.3572 113.967 29.4571C113.867 29.6568 113.568 29.6568 113.468 29.6568C112.969 29.6568 112.57 29.1575 112.37 28.8579L112.27 28.6582L113.568 27.46Z" fill="white"></path><path d="M116.861 40.5409C116.362 40.9403 115.763 40.3412 115.464 39.8419C115.065 39.2428 114.965 38.7435 114.965 37.9447V37.3456L112.669 38.3441L112.769 38.9432C112.969 39.7421 113.168 40.2413 113.568 41.0402C114.366 42.4381 115.364 43.1371 116.561 43.1371C117.16 43.1371 117.559 43.0372 118.158 42.6378C119.855 41.6393 119.655 39.9418 119.456 38.7435C119.356 37.9447 119.256 37.3456 119.555 37.1458C119.755 37.046 119.955 37.046 120.054 37.046C120.553 37.046 120.853 37.5453 120.952 37.6451C121.352 38.1444 121.451 38.6437 121.551 39.2428L121.651 39.7421L123.747 38.8434V38.6437C123.647 37.9447 123.248 37.2457 122.849 36.4469C121.851 34.6495 119.955 34.0504 118.358 35.0489C116.661 36.0474 116.861 37.745 117.06 38.8434C117.16 39.7421 117.26 40.3412 116.861 40.5409Z" fill="white"></path><path d="M126.194 43.4523L117.046 47.186L117.988 49.4974L127.136 45.7636L126.194 43.4523Z" fill="white"></path><path d="M127.14 52.823L119.655 54.7203L120.254 57.1168L127.839 55.2195L128.437 57.8157L130.533 57.3165L128.637 49.7275L126.541 50.3267L127.14 52.823Z" fill="white"></path><path d="M121.352 64.3059L121.452 66.9021L125.344 66.6026L131.531 69.8978L131.331 67.1019L127.739 65.4043L131.132 63.2075L130.932 60.2119L125.244 64.2061L121.352 64.3059Z" fill="white"></path><path d="M12.2747 87.4722L14.3704 86.8731L13.4723 83.9773L14.9692 83.478L15.8674 86.6734L17.9631 86.0743L16.3664 80.4824L6.88574 83.2783L7.58431 85.6748L11.4764 84.4766L12.2747 87.4722Z" fill="white"></path><path d="M21.0568 95.7601C21.456 94.6617 21.2564 93.3636 20.6577 92.0654C19.7595 90.2681 18.3624 89.2695 16.566 89.2695C15.7677 89.2695 14.8695 89.4692 13.8715 89.9685C12.3746 90.6675 11.4764 91.666 10.9775 92.9641C10.5783 94.0625 10.7779 95.3606 11.3766 96.6587C12.2748 98.3563 13.6719 99.4547 15.4683 99.4547C16.2666 99.4547 17.1648 99.255 18.1628 98.7557C19.6597 97.9568 20.7575 97.0582 21.0568 95.7601ZM17.1648 96.3592C16.566 96.7586 15.9673 96.8585 15.3685 96.8585C14.4703 96.8585 13.8715 96.459 13.5722 95.7601C13.3726 95.1609 13.173 94.7615 13.4724 94.2622C13.6719 93.5633 14.3705 92.8643 15.2687 92.4649C15.8675 92.2652 16.3664 91.9656 16.9652 91.9656C17.8634 91.9656 18.4622 92.365 18.7615 93.064C18.9611 93.6631 19.1607 94.0625 18.8613 94.5618C18.6617 95.2608 18.063 95.8599 17.1648 96.3592Z" fill="white"></path><path d="M27.9428 103.449L23.452 107.044C22.3542 107.942 21.3563 108.042 20.6577 107.243C20.4581 106.844 20.2585 106.544 20.2585 106.245C20.3583 105.746 20.7575 105.246 21.3563 104.647L25.8471 101.052L24.2504 99.1553L19.2606 103.05C18.2626 103.848 17.6638 104.747 17.6638 105.846C17.6638 106.744 18.063 107.643 18.7616 108.741C19.6597 110.039 20.6577 110.539 21.8552 110.539C22.6536 110.539 23.452 110.139 24.2504 109.54L29.2401 105.546L27.9428 103.449Z" fill="white"></path><path d="M36.3256 111.537L32.6331 116.031L34.0303 109.64L31.8348 107.843L25.5476 115.532L27.5435 117.129L31.1362 112.536L29.8388 118.927L31.9345 120.824L38.2217 113.135L36.3256 111.537Z" fill="white"></path><path d="M43.7106 116.23L41.2157 114.932L36.7249 123.719L39.2198 125.017C40.5171 125.617 41.5151 125.916 42.513 125.916C44.2095 125.916 45.6067 125.017 46.5049 123.12C48.0018 120.224 47.0038 117.928 43.7106 116.23ZM44.1098 122.122C43.6108 123.12 42.7126 123.719 41.7147 123.719C41.2157 123.719 40.9163 123.619 40.4173 123.32L39.8185 122.92L42.3134 117.828L42.9122 118.227C43.6108 118.627 44.01 119.126 44.3093 119.725C44.6087 120.524 44.4091 121.223 44.1098 122.122Z" fill="white"></path><path d="M49.1992 129.311L55.0872 130.909L55.5862 128.812L52.1931 127.913L52.5923 126.116L55.7858 126.915L56.3845 124.818L53.1911 124.019L53.4904 122.421L57.0831 123.32L57.5821 121.223L51.6941 119.825L49.1992 129.311Z" fill="white"></path><path d="M63.7695 122.122L60.8754 122.022L60.2766 131.908L63.1707 132.007C63.3703 132.007 63.6697 132.007 63.8693 132.007C67.1625 132.007 68.9589 130.41 69.1585 127.314C69.2582 125.816 68.9589 124.518 68.1605 123.62C67.1625 122.721 65.7654 122.222 63.7695 122.122ZM63.6697 129.811H62.9711L63.3703 124.219H64.0689C65.466 124.319 66.7633 125.317 66.5638 127.214C66.3642 129.112 64.967 129.811 63.6697 129.811Z" fill="white"></path><path d="M77.8406 121.223L76.144 131.608L78.8385 131.009L79.2377 128.812L82.4312 128.113L83.7285 130.01L86.5228 129.411L80.6349 120.624L77.8406 121.223ZM79.4373 126.815L79.8365 124.119L81.2336 126.316L79.4373 126.815Z" fill="white"></path><path d="M87.2214 126.416L88.1196 128.812L90.4149 127.913L89.6165 125.617L87.2214 126.416Z" fill="white"></path><path d="M92.1116 116.43L89.6167 117.828L94.3071 126.515L96.802 125.117C100.095 123.32 100.894 121.023 99.4965 118.127C97.8998 115.232 95.4049 114.633 92.1116 116.43ZM96.1034 123.12L95.5047 123.52L92.8102 118.527L93.4089 118.127C93.8081 117.928 94.2073 117.728 94.7063 117.728C95.7043 117.728 96.5026 118.327 97.1014 119.226C98.0994 120.923 97.2012 122.421 96.1034 123.12Z" fill="white"></path><path d="M101.393 119.526L102.79 121.623L104.786 120.125L103.388 118.028L101.393 119.526Z" fill="white"></path><path d="M105.285 106.744L104.786 110.738L106.981 111.038L107.281 109.44L111.971 114.133L113.767 112.436L106.782 105.246L105.285 106.744Z" fill="white"></path><path d="M118.657 101.651C117.859 101.052 116.961 100.952 115.863 101.252C115.863 100.353 115.364 99.4546 114.765 98.9553C113.468 98.0566 111.871 98.5559 110.674 100.253C109.576 101.851 109.676 103.449 111.073 104.447C111.771 104.947 112.67 105.046 113.468 104.847C113.368 105.845 113.667 106.644 114.466 107.243C115.065 107.742 115.564 107.842 116.162 107.842C117.16 107.842 118.058 107.243 119.056 106.145C119.755 105.246 120.054 104.347 119.955 103.349C119.855 102.75 119.356 102.25 118.657 101.651ZM113.967 102.35C113.568 102.55 113.268 102.85 112.969 102.85C112.869 102.85 112.57 102.85 112.47 102.75C111.971 102.35 112.27 101.851 112.47 101.452C112.57 101.252 112.869 101.052 113.069 101.052C113.168 101.052 113.468 101.152 113.667 101.252C113.967 101.552 114.166 101.951 113.967 102.35ZM117.36 105.046C116.961 105.546 116.462 105.646 115.963 105.246C115.564 104.847 115.364 104.547 115.464 103.848C116.162 103.349 116.761 103.249 117.16 103.648C117.36 103.748 117.56 104.048 117.56 104.248C117.56 104.447 117.56 104.847 117.36 105.046Z" fill="white"></path><path d="M123.148 91.9658C121.451 91.167 119.855 91.5664 119.056 93.2639C118.857 93.7632 118.657 94.1626 118.857 94.6619C118.258 94.1626 117.759 93.3638 118.158 92.3653C118.358 91.866 118.757 91.5664 119.056 91.2669L119.455 91.0671L117.659 89.769L117.46 89.9687C116.961 90.468 116.561 90.9673 116.162 91.6663C115.663 92.6648 115.563 93.5635 115.963 94.562C116.561 96.1597 118.158 97.358 119.356 97.8572C120.453 98.4564 121.451 98.6561 122.25 98.6561C123.547 98.6561 124.445 98.0569 125.144 96.8587C125.942 94.7618 125.244 93.0642 123.148 91.9658ZM123.148 95.6604C123.048 96.0599 122.649 96.1597 122.35 96.1597C122.15 96.1597 121.751 96.0599 121.551 95.96C121.052 95.7603 120.753 95.3609 120.653 95.1612C120.553 94.9615 120.653 94.7617 120.653 94.562C120.753 94.1626 121.052 94.0628 121.451 94.0628C121.651 94.0628 122.05 94.1626 122.35 94.2625C122.849 94.4622 123.048 94.7617 123.148 95.0613C123.248 95.3609 123.148 95.5606 123.148 95.6604Z" fill="white"></path><path d="M126.741 81.8806C124.845 81.2815 123.148 82.28 122.649 84.0774C122.649 84.2771 122.549 84.4768 122.549 84.5767L121.452 84.1773L122.45 80.7822L120.553 80.1831L118.857 85.8748L124.346 87.5723V87.073C124.346 86.4739 124.446 86.0745 124.545 85.4754C124.645 84.9761 125.244 83.8777 126.242 84.0774C127.34 84.4768 127.14 85.6751 127.04 85.9746C126.841 86.6736 126.441 87.073 126.142 87.5723L125.743 87.9717L128.038 88.7706L128.138 88.5709C128.537 87.8719 128.837 87.073 129.036 86.4739C129.435 85.3755 129.435 84.2771 128.936 83.3784C128.437 82.7793 127.639 82.1802 126.741 81.8806Z" fill="white"></path><path d="M54.189 57.9157L53.69 57.6161C50.8957 56.1183 46.2053 53.3224 46.2053 51.2254V40.3413H62.4721V51.3253C62.4721 53.1227 58.1808 55.7189 54.688 57.6161L54.189 57.9157ZM48.2012 47.431V51.3253C48.4008 52.0243 51.0953 54.0213 54.189 55.619C57.3825 53.9215 60.1768 52.0243 60.4761 51.3253V47.431H48.2012ZM48.2012 45.4339H60.4761V42.3384H48.2012V45.4339Z" fill="white"></path><path d="M68.2603 137C30.5374 137 -0.199707 106.245 -0.199707 68.5C-0.199707 30.7551 30.4377 0 68.2603 0C106.083 0 136.72 30.7551 136.72 68.5C136.72 106.245 105.983 137 68.2603 137ZM68.2603 1.99708C31.5354 1.99708 1.79621 31.8535 1.79621 68.5C1.79621 105.147 31.6352 135.003 68.2603 135.003C104.885 135.003 134.724 105.147 134.724 68.5C134.724 31.8535 104.885 1.99708 68.2603 1.99708Z" fill="white"></path><path d="M68.2602 118.527C40.7165 118.527 18.2625 96.0599 18.2625 68.5001C18.2625 40.9403 40.7165 18.4731 68.2602 18.4731C95.8039 18.4731 118.258 40.9403 118.258 68.5001C118.258 96.0599 95.8039 118.527 68.2602 118.527ZM68.2602 20.4702C41.8143 20.4702 20.2584 42.0387 20.2584 68.5001C20.2584 94.9615 41.8143 116.53 68.2602 116.53C94.7062 116.53 116.262 94.9615 116.262 68.5001C116.262 42.0387 94.7062 20.4702 68.2602 20.4702Z" fill="white"></path><path d="M82.2319 57.9157L81.7329 57.6161C78.8388 56.1183 74.0486 53.3224 74.0486 51.2254V40.3413H90.3153V51.3253C90.3153 52.8231 87.7206 54.92 82.631 57.6161L82.2319 57.9157ZM76.0445 51.2254C76.3439 51.9244 79.0384 53.9215 82.2319 55.619C85.3255 53.9215 88.02 52.0243 88.4192 51.3253V49.9273L82.2319 45.9331L76.0445 49.9273V51.2254ZM82.2319 43.5366L88.4192 47.5308V42.3384H76.1443V47.5308L82.2319 43.5366Z" fill="white"></path><path d="M64.6141 73.8388L57.7351 74.1523L57.8395 76.4467L64.7186 76.1332L64.6141 73.8388Z" fill="white"></path><path d="M64.6137 80.23L57.7346 80.542L57.8386 82.8363L64.7176 82.5244L64.6137 80.23Z" fill="white"></path><path d="M64.6137 86.521L57.7346 86.833L57.8386 89.1274L64.7176 88.8154L64.6137 86.521Z" fill="white"></path><path d="M53.79 75.1904H49.8979V78.3858H53.79V75.1904Z" fill="white"></path><path d="M53.79 84.2769H49.8979V87.4722H53.79V84.2769Z" fill="white"></path><path d="M67.2623 94.2622C67.1625 94.1624 65.8651 93.2637 65.0668 93.3635C60.9751 94.0625 54.2888 93.8628 53.9894 93.8628H52.9915V69.1988L54.0892 69.2987C54.189 69.2987 59.3784 69.8978 64.0688 68.9991C65.6655 68.5997 67.3621 68.9991 68.1604 69.2987C68.9588 68.9991 70.8549 68.5997 72.4517 68.9991C77.1421 69.7979 82.3315 69.2987 82.4313 69.2987L83.529 69.1988V93.8628H82.5311C82.2317 93.8628 75.3458 94.0625 71.2541 93.3635C70.356 93.1638 69.2582 94.0625 68.9588 94.2622L68.1604 94.8614L67.2623 94.2622ZM65.5657 91.3665C66.6635 91.2666 67.5617 91.8657 68.1604 92.2651C68.859 91.7659 70.356 91.1668 71.7531 91.3665C74.747 91.8657 79.5372 91.8657 81.6329 91.8657V71.3956C79.7368 71.5953 75.9445 71.6952 72.1523 70.9962H72.0525C70.5555 70.5968 68.6594 71.2958 68.6594 71.2958L68.1604 71.3956H68.0606C68.0606 71.3956 66.1645 70.5968 64.6676 70.9962H64.5678C60.8753 71.6952 56.9833 71.4955 55.0872 71.3956V91.9656C57.0831 91.9656 61.8733 91.9656 64.967 91.4663C65.2664 91.3665 65.2664 91.3665 65.5657 91.3665Z" fill="white"></path><path d="M72.0717 80.2135L71.9675 82.5078L78.8466 82.8204L78.9507 80.5261L72.0717 80.2135Z" fill="white"></path><path d="M72.0272 86.5025L71.9231 88.7969L78.8021 89.1095L78.9063 86.8152L72.0272 86.5025Z" fill="white"></path><path d="M86.6229 75.1904H82.9304V78.3858H86.6229V75.1904Z" fill="white"></path><path d="M86.6229 84.2769H82.9304V87.4722H86.6229V84.2769Z" fill="white"></path><path d="M71.9939 74.0433L71.907 76.3384L78.7881 76.5991L78.875 74.3041L71.9939 74.0433Z" fill="white"></path><path d="M68.1605 114.134L67.7613 113.934C67.4619 113.734 59.9772 110.439 52.3927 104.548C42.2135 96.6591 36.6249 87.9718 36.5251 79.3843C36.9243 61.111 36.6249 36.8464 36.6249 36.5469V35.5483H100.195V36.5469C100.195 36.8464 100.095 61.4106 100.095 79.3843C100.095 87.9718 94.6064 96.5593 84.2276 104.548C76.5433 110.439 68.859 113.834 68.5596 113.934L68.1605 114.134ZM69.1584 62.4091V111.438C75.1462 108.542 97.9995 96.1599 97.9995 79.3843C97.9995 74.0921 97.9995 68.1008 97.9995 62.4091H69.1584ZM38.6209 62.4091C38.6209 68.1008 38.5211 73.9922 38.4213 79.3843C38.6209 89.2699 46.8041 97.6577 53.5903 102.95C59.079 107.244 64.6676 110.239 67.1625 111.438V62.4091H38.6209ZM38.6209 60.5119H97.9995C97.9995 50.0272 98.0993 40.6409 98.0993 37.6453H38.4213C38.5211 40.5411 38.6209 49.9273 38.6209 60.5119Z" fill="white"></path></g><defs><clipPath id="clip0_2080_1047"><rect width="538" height="137" fill="white"></rect></clipPath></defs></svg> 