<?xml version="1.0" encoding="UTF-8"?> <svg xmlns="http://www.w3.org/2000/svg" width="150" height="150" viewBox="0 0 150 150" fill="none"> <g clip-path="url(#clip0_174_2728)"> <path d="M46.7433 67.4666L43.5928 72.7437V76.2879C43.9866 77.1543 44.853 77.2331 45.7194 77.3118V77.7844H39.6547V77.3118C40.5211 77.3118 41.545 77.1543 41.86 76.603V72.9799L38.7096 67.6241C38.1582 66.679 37.6069 66.4427 36.583 66.364V65.8914H41.86V66.364C40.8361 66.4427 40.5211 66.6002 40.2848 66.8365L43.199 71.956L46.1132 66.8365C45.7981 66.6002 45.4043 66.364 44.3804 66.364V65.8914H48.9486V66.364C47.9247 66.2852 47.2946 66.6002 46.7433 67.4666ZM52.9654 77.9419C51.9415 77.9419 51.469 77.2331 51.3902 76.7605C50.7601 77.4694 49.8937 77.9419 49.1061 77.9419C48.0822 77.9419 47.2158 77.3118 47.2158 76.2092C47.2158 75.6578 47.3734 75.1065 47.6096 74.7127L51.3902 73.3737V71.956C51.3902 71.0897 50.9964 70.302 50.13 70.302C49.6575 70.302 49.1061 70.9321 49.1061 71.8773L47.3734 72.1923V72.0348C47.9247 70.302 49.815 69.6719 50.6814 69.6719C52.4141 69.6719 53.0442 70.6171 53.0442 71.956L52.9654 75.8941C52.9654 76.6817 53.3593 76.8393 53.7531 76.8393C54.0681 76.8393 54.3832 76.6817 54.6982 76.2879V76.8393C54.3832 77.3906 53.5955 77.9419 52.9654 77.9419ZM49.1849 74.8702C49.1061 75.1853 49.0274 75.4216 49.0274 75.8154C49.0274 76.3667 49.3424 76.918 49.9725 76.918C50.5238 76.918 50.8389 76.7605 51.3902 76.3667V73.8463C50.9176 74.0826 49.7362 74.6339 49.1849 74.8702ZM54.9345 77.7844V77.3118C55.8009 77.2331 56.0371 77.0755 56.1947 76.7605V66.994C56.1947 66.364 56.1159 66.0489 54.777 65.9701V65.5763L58.2425 64.71L58.3212 65.025L57.7699 65.7339V76.7605C57.9274 77.1543 58.3212 77.2331 59.1089 77.3118V77.7844H54.9345ZM63.677 77.9419C61.708 77.9419 60.1328 76.3667 60.1328 74.1614C60.1328 71.4835 61.7868 69.6719 64.0708 69.6719C65.9611 69.6719 66.985 70.6959 66.985 72.4286V72.7437H61.8655C61.8655 72.9799 61.7868 73.295 61.7868 73.6888C61.7868 75.5791 62.9682 76.918 64.6222 76.918C65.5673 76.918 66.0399 76.603 66.8275 75.9729L67.1425 76.4455C66.1186 77.3118 65.2523 77.9419 63.677 77.9419ZM63.8346 70.2233C62.8894 70.2233 62.2593 71.0109 62.023 72.1923H65.331C65.331 71.1684 64.7009 70.2233 63.8346 70.2233Z" fill="#6D80B0"></path> <path d="M83.3672 67.073V73.0589C83.3672 76.5244 81.2407 78.0996 78.4052 78.0996C75.4911 78.0996 73.6795 76.3669 73.6795 73.4527V66.9942C73.522 66.6004 72.7344 66.3641 71.9468 66.2854V65.8128H77.2238V66.2854C76.3574 66.2854 75.5698 66.6004 75.4123 66.9942V73.0589C75.4123 75.4217 76.5937 76.8394 78.8778 76.8394C81.2407 76.8394 82.4221 75.4217 82.4221 72.6651V70.2235C82.4221 69.1208 82.3433 67.6243 82.3433 66.9942C82.1858 66.6004 81.1619 66.2066 80.2168 66.1278V65.6553H85.1V66.1278C84.2336 66.2854 83.5247 66.6792 83.3672 67.073Z" fill="#6D80B0"></path> <path d="M90.5348 77.785V77.3124C91.4799 77.2336 91.5587 77.0761 91.7162 76.7611V72.6655C91.7162 71.6416 91.0074 70.7752 90.0622 70.7752C89.5897 70.7752 88.802 71.0902 88.2507 71.4053V76.7611C88.487 77.1549 88.5657 77.2336 89.5109 77.3124V77.785H85.4153V77.3124C86.3604 77.2336 86.4392 77.0761 86.6755 76.7611V71.8778C86.6755 71.484 86.3604 71.0902 85.494 70.8539V70.4601L88.0144 69.5938H88.2507V70.9327C89.1171 70.3026 90.456 69.5938 91.1649 69.5938C92.8189 69.5938 93.3702 70.6177 93.3702 72.1929V76.8398C93.764 77.1549 94.1578 77.1549 94.9454 77.2336V77.785H90.5348Z" fill="#6D80B0"></path> <path d="M95.4966 77.7842V77.3116C96.4417 77.2329 96.5993 77.0753 96.7568 76.7603V71.8771C96.7568 71.4045 96.5205 71.0894 95.5753 70.8532V70.5381L98.1745 69.6717H98.4108V76.8391C98.6471 77.2329 98.7258 77.3116 99.671 77.3904V77.7842H95.4966ZM97.4656 67.3876C96.8355 67.3876 96.363 66.8363 96.363 66.3637C96.363 65.8912 96.8355 65.3398 97.4656 65.3398C98.0957 65.3398 98.4895 65.8912 98.4895 66.3637C98.4895 66.9151 98.0957 67.3876 97.4656 67.3876Z" fill="#6D80B0"></path> <path d="M106.602 71.0109C106.445 70.6958 105.972 70.3808 105.184 70.3808V69.9082H108.571V70.3808C107.784 70.3808 107.311 70.9321 107.153 71.4047L104.397 77.7844L103.688 77.9419L101.01 71.2472C100.774 70.7746 100.38 70.4595 99.5923 70.3808V69.9082H103.845V70.3808C103.215 70.3808 102.9 70.5383 102.664 70.6958L104.712 75.8941L106.602 71.0109Z" fill="#6D80B0"></path> <path d="M112.431 77.9419C110.461 77.9419 108.886 76.3666 108.886 74.1613C108.886 71.4834 110.54 69.6719 112.824 69.6719C114.715 69.6719 115.739 70.6958 115.739 72.4285V72.7436H110.619C110.619 72.9799 110.54 73.2949 110.54 73.6887C110.54 75.579 111.722 76.918 113.376 76.918C114.321 76.918 114.793 76.6029 115.581 75.9728L115.896 76.4454C114.872 77.3118 114.006 77.9419 112.431 77.9419ZM112.588 70.2232C111.643 70.2232 111.013 71.0108 110.777 72.1922H114.085C114.085 71.1683 113.454 70.2232 112.588 70.2232Z" fill="#6D80B0"></path> <path d="M122.433 71.7203H122.276C121.724 71.4053 121.331 71.169 120.858 71.169C120.386 71.169 120.149 71.484 119.755 71.8778V76.7611C119.992 77.1549 120.701 77.2336 121.488 77.3124V77.785H116.999V77.3124C117.944 77.2336 118.023 77.0761 118.18 76.7611V71.7991C118.18 71.4053 117.944 71.0902 116.999 70.8539V70.4601L119.519 69.5938H119.677V71.4053C120.543 70.4601 121.252 69.6725 121.961 69.6725C122.433 69.6725 122.906 69.83 123.3 70.0663L122.433 71.7203Z" fill="#6D80B0"></path> <path d="M126.686 77.9425C125.269 77.9425 124.402 77.6274 123.93 77.4699L123.693 75.4221H124.166C124.717 76.446 125.662 77.3912 126.056 77.3912C127.631 77.3912 128.025 76.6823 128.025 75.9734C128.025 75.1858 127.316 74.8708 126.292 74.3982C124.717 73.7681 123.93 73.138 123.93 71.8778C123.93 70.6177 125.269 69.5938 126.923 69.5938C127.946 69.5938 128.813 69.9088 129.285 70.0663L129.364 72.0354H128.97C128.419 71.0115 127.631 70.1451 127.159 70.1451C125.662 70.1451 125.347 70.9327 125.347 71.4053C125.347 72.1929 125.662 72.5079 127.159 73.138C128.655 73.6894 129.522 74.3195 129.522 75.5009C129.522 76.8398 128.34 77.9425 126.686 77.9425Z" fill="#6D80B0"></path> <path d="M130.861 77.7842V77.3116C131.806 77.2329 131.964 77.0753 132.121 76.7603V71.8771C132.121 71.4045 131.885 71.0894 130.94 70.8532V70.5381L133.539 69.6717H133.775V76.8391C134.011 77.2329 134.09 77.3116 135.035 77.3904V77.7842H130.861ZM132.83 67.3876C132.2 67.3876 131.727 66.8363 131.727 66.3637C131.727 65.8912 132.2 65.3398 132.83 65.3398C133.46 65.3398 133.854 65.8912 133.854 66.3637C133.854 66.9151 133.46 67.3876 132.83 67.3876Z" fill="#6D80B0"></path> <path d="M138.973 77.9422C137.24 77.9422 136.689 76.9971 136.689 75.5006C136.689 73.6891 136.768 72.5864 136.768 70.7749H135.744V70.3811L138.028 68.1758H138.422V69.9085H141.021V70.7749H138.422C138.422 72.6652 138.422 73.5316 138.422 75.2643C138.422 76.2882 139.13 76.9971 140.233 76.9971C140.706 76.9971 141.336 76.682 141.493 76.6033V76.9971C140.942 77.3909 139.603 77.9422 138.973 77.9422Z" fill="#6D80B0"></path> <path d="M147.952 71.0109C147.873 70.6958 147.401 70.3808 146.613 70.3808V69.9082H150V70.3808C149.212 70.3808 148.74 70.9321 148.582 71.4047L146.219 76.9968C145.825 77.9419 145.038 80.0685 144.329 81.7225C144.093 82.2738 143.778 82.5101 143.226 82.5101C142.596 82.5101 142.281 82.0375 142.281 81.5649C142.281 81.0924 142.596 80.6198 143.226 80.6198C143.384 80.6198 143.699 80.6986 143.935 80.7773L145.117 78.0207L142.439 71.0896C142.281 70.6171 141.966 70.302 141.178 70.2232V69.9082H145.274V70.3808C144.644 70.3808 144.329 70.5383 144.014 70.6958L146.062 75.9729L147.952 71.0109Z" fill="#6D80B0"></path> <g clip-path="url(#clip1_174_2728)"> <path d="M3.57944 59.25C3.47361 61.8258 3.54872 64.562 3.54872 67.1941C3.54872 68.8583 3.45825 70.6301 3.57944 72.2398C3.75014 74.4281 3.78428 76.1964 4.48241 77.7549C5.93672 80.9981 9.57932 83.031 13.0802 84.2651C13.6384 84.4614 14.1966 84.627 14.8247 84.7943C14.9765 84.8654 15.132 84.9281 15.2907 84.982C15.6219 85.0128 17.0181 84.4495 17.3783 84.3266C20.9287 83.1078 24.8888 80.8888 26.2885 77.5671C26.8876 76.1435 26.9815 74.6141 27.1283 72.6443C27.2342 71.219 27.159 69.6367 27.159 68.1585V59.25H3.57944ZM29.7502 81.3309C29.4549 81.3753 28.6629 82.0598 28.3488 82.2339C27.2188 82.8586 26.0939 83.5073 24.8291 83.9784C24.8291 84.5741 24.7454 84.5638 25.1705 84.3829C26.5787 83.7804 27.7718 83.0293 29.0657 82.3585C28.9855 82.565 28.5741 84.1047 28.6287 84.3215C28.6833 84.5382 29.7519 85.6307 29.9687 85.786C29.3251 85.9567 28.8745 86.2708 28.2617 86.4688C28.2433 86.5402 28.233 86.6135 28.231 86.6873C28.231 86.7982 28.2703 86.9655 28.4188 86.9672C28.8933 86.9672 30.1872 86.0881 30.7231 85.9089C30.4739 85.7382 29.1869 84.4153 29.134 84.202C29.0811 83.9886 29.4754 82.565 29.5385 82.3022C29.6119 82.0086 29.7553 81.6842 29.7877 81.4299C29.7877 81.3941 29.8048 81.3292 29.757 81.336L29.7502 81.3309ZM0.996849 81.4555C0.920037 81.4367 1.22387 82.2919 1.27679 82.5462C1.3297 82.8006 1.66426 84.1559 1.61818 84.3215C1.55843 84.5382 0.240676 85.9004 -0.00170898 86.0659C0.114071 86.0895 0.228126 86.1209 0.339678 86.1598C1.02245 86.4449 1.63695 86.8511 2.388 87.0935C2.48188 86.7163 2.52114 86.6429 2.16951 86.5012C1.72059 86.3203 1.28873 86.0182 0.803965 85.9089C1.31605 85.489 1.65743 84.9001 2.14391 84.4461C1.98858 83.9186 1.93566 83.2615 1.77009 82.7391C1.74449 82.664 1.7131 82.5909 1.67621 82.5206C1.67621 82.5206 1.73083 82.4797 1.98687 82.6453C2.81984 83.1823 3.69495 83.6509 4.6036 84.0466C4.99961 84.2173 5.41098 84.388 5.81894 84.5758C5.82748 84.4563 5.84966 84.2429 5.84966 84.0774C4.76405 83.5653 3.72112 83.113 2.70378 82.5497C2.22072 82.2817 1.75302 81.9693 1.26996 81.6774C1.18803 81.6279 1.0839 81.4794 0.99002 81.4589L0.996849 81.4555ZM27.5704 83.9476C26.693 84.5673 25.5699 84.9564 24.486 85.349C22.7483 85.9772 20.8127 86.6258 18.6926 86.8443C12.6928 87.4605 6.89943 86.3322 3.17831 84.0722C3.17831 85.3695 2.80449 87.8036 2.36752 88.7441C2.89496 88.8602 3.28585 89.1009 3.73307 89.2733C4.58653 89.5976 5.46049 89.9339 6.3498 90.2087C10.0726 91.3489 15.4768 91.8456 20.0258 91.1116C21.8702 90.8328 23.685 90.3842 25.447 89.7717C26.4131 89.4201 27.3075 88.8619 28.3488 88.6502C28.1457 88.2389 28.103 87.7353 28.0074 87.2164C27.8179 86.2008 27.5704 85.1305 27.5704 83.9459V83.9476Z" fill="#3A518B"></path> <path d="M26.4798 59.8107C21.26 59.7475 15.7603 59.8738 10.4346 59.8738H6.16728C5.51694 59.8738 4.7693 59.9216 4.17358 59.8431C4.34428 60.9645 4.23674 62.3847 4.23674 63.612V69.9277C4.23674 73.5549 4.27941 76.6598 5.79517 78.7133C6.8859 80.1915 8.34192 81.2515 10.0011 82.1715C11.312 82.8987 12.7083 83.4261 14.2684 83.9467C14.5415 84.0389 15.069 84.3086 15.3267 84.3205C15.4974 84.3205 15.8063 84.1208 15.9805 84.0713C17.024 83.7713 18.0445 83.3966 19.0342 82.9499C21.5229 81.8335 23.9467 80.3895 25.2645 78.1209C25.4143 77.8479 25.5493 77.567 25.669 77.2794C25.7492 77.0968 25.8517 76.9056 25.9182 76.7178C25.9558 76.6086 25.9455 76.5472 25.9814 76.4379C26.0172 76.3287 26.065 76.1682 26.106 76.0026C26.1384 75.8695 26.1657 75.7329 26.1999 75.5657C26.234 75.3984 26.2579 75.2345 26.2938 75.0365C26.3296 74.8385 26.362 74.5637 26.3876 74.2889C26.4047 74.0977 26.432 73.8809 26.4508 73.6351C26.5327 72.5256 26.4815 71.2761 26.4815 70.1154V63.3321C26.4815 62.2311 26.4303 60.9628 26.5447 59.9677C26.4849 59.9387 26.6863 59.8141 26.4815 59.8124" fill="#6D80B0"></path> <path d="M21.8436 63.6426C21.3192 63.9181 20.7499 64.0979 20.1623 64.1734C17.846 64.38 15.7123 63.3319 15.3334 65.7933C15.1405 63.3507 12.6774 64.3663 10.5045 64.2042C9.93107 64.1531 9.37696 63.9715 8.88457 63.6733C8.66779 64.0591 8.35713 64.397 8.10621 64.764C7.81433 64.7299 7.48148 64.7384 7.20325 64.7009C7.37394 65.8155 7.23397 67.1691 7.23397 68.3469V76.9772H11.6583C12.4162 76.9772 13.4336 77.0762 13.9951 76.8526C13.6367 77.8153 13.9764 78.2181 15.1473 78.2181C16.407 78.2181 17.1854 78.0269 16.7041 76.8526C17.3578 77.0232 18.3256 76.9772 19.1654 76.9772H23.4959V64.6702C23.2048 64.6605 22.9134 64.6708 22.6237 64.7009C22.3694 64.3441 22.0963 64.0079 21.8453 63.6426H21.8436ZM24.3033 64.4841C24.2521 64.4841 24.2675 64.5404 24.2726 64.578C24.3658 65.2067 24.3972 65.843 24.3665 66.4778C24.3272 66.9899 24.3119 67.2783 23.7434 67.1947C23.7512 67.2673 23.7512 67.3406 23.7434 67.4132C24.1421 67.5036 24.5501 67.5454 24.9588 67.5378C24.9576 67.6116 24.9473 67.685 24.9281 67.7563C24.7727 68.0977 24.1565 67.9884 23.7452 67.9423C23.7452 68.026 23.7742 68.1506 23.7759 68.1916C24.0814 68.2325 24.5423 68.3503 24.8 68.2223C25.4965 67.8809 25.2814 65.5253 25.4828 64.6087C25.0202 64.8989 24.9246 65.0508 24.486 64.6719C24.433 64.6258 24.3784 64.5012 24.2982 64.4841H24.3033ZM6.39074 64.7333L6.36002 64.764C5.84794 65.1686 5.89232 65.1652 5.26929 64.8579C5.3956 65.795 5.25051 68.1694 6.04765 68.3469C6.36002 68.4152 6.68604 68.2923 6.95062 68.253C6.95062 68.2155 6.97452 68.0823 6.98134 68.0038C6.3805 68.0704 6.10227 68.1165 5.76601 67.7853C5.77141 67.7337 5.77141 67.6816 5.76601 67.63C6.17473 67.6109 6.5812 67.5584 6.98134 67.4729C6.97425 67.4111 6.97425 67.3487 6.98134 67.2869C6.84573 67.295 6.70963 67.2847 6.5768 67.2562C6.21322 67.1264 6.38904 65.2437 6.38904 64.7333H6.39074ZM6.42318 71.276C6.28662 71.4057 6.16202 71.5969 6.01693 71.713C5.76259 71.911 5.48948 71.6123 5.30001 71.4638C5.3478 72.0697 5.41438 74.1949 5.6414 74.5482C5.81209 74.8162 6.19103 74.852 6.60752 74.7974C7.15716 74.724 7.1435 74.456 6.51364 74.5175C6.06472 74.5635 5.8872 74.4782 5.76601 74.1129L5.79844 74.019C6.19503 74.0331 6.59193 74.0016 6.98134 73.9252C6.8721 73.437 6.68263 73.9252 6.48292 73.6452C6.24224 73.3038 6.34807 71.7676 6.42147 71.2777L6.42318 71.276ZM24.2299 71.5337C24.3016 72.0168 24.4092 73.5616 24.1685 73.9013C23.9705 74.1812 23.7793 73.693 23.6701 74.1812C24.06 74.2577 24.4575 74.2892 24.8547 74.2751L24.8854 74.369C24.7642 74.7342 24.5867 74.8196 24.1378 74.7735C23.5096 74.7086 23.4942 74.98 24.0439 75.0534C24.4604 75.1081 24.8376 75.0722 25.01 74.8042C25.2387 74.4475 25.3053 72.3275 25.3514 71.7198C25.1619 71.8683 24.8888 72.167 24.6345 71.969C24.4894 71.8546 24.3665 71.6618 24.2299 71.532V71.5337Z" fill="#3A518B"></path> <path d="M21.5263 64.1084C20.9382 64.4382 20.2669 64.59 19.5941 64.5454C18.5392 64.4908 17.0166 64.2569 16.2604 64.7314C15.8896 65.0025 15.6339 65.4026 15.5435 65.8529C15.5179 66.0595 15.5076 66.2678 15.5128 66.4759C15.2875 69.4904 15.4821 72.7148 15.4821 75.7907C16.3714 74.012 18.9045 75.0874 20.8401 74.4814C21.074 74.408 21.4273 74.3107 21.557 74.1401C21.7277 73.9164 21.6185 72.5543 21.6185 72.1464V64.1084C21.5872 64.1108 21.5559 64.1108 21.5246 64.1084H21.5263ZM9.09642 64.1716V72.1464C9.09642 72.5475 8.97693 73.9164 9.12715 74.1708C9.43269 74.6829 11.3274 74.7682 12.2423 74.7016C13.7307 74.589 14.7413 74.8092 15.2021 75.7258V68.7786C15.2021 67.8261 15.3302 66.6637 15.1407 65.8187C15.0575 65.4469 14.862 65.1097 14.5808 64.8526C13.642 64.0623 11.7507 64.6956 10.2503 64.542C9.84967 64.4758 9.46127 64.3498 9.09813 64.1681L9.09642 64.1716ZM24.5476 65.0438C24.5887 65.7708 24.5784 66.4997 24.5169 67.2253C24.6683 67.268 24.8271 67.2785 24.9829 67.256C25.1382 66.6449 25.0853 65.7812 25.1399 65.1052C24.7985 65.3459 24.8378 65.3988 24.5476 65.0438ZM6.14001 65.1991C5.81228 65.4978 5.93518 65.5405 5.5477 65.2316C5.63988 65.9143 5.61257 66.6978 5.70474 67.3806C5.86519 67.3806 6.05978 67.3584 6.17244 67.3499C6.17244 67.215 6.14684 67.029 6.14172 66.9453C6.09734 66.3684 6.16049 65.6839 6.14172 65.2008L6.14001 65.1991ZM23.7351 67.4062V67.9353C24.1465 67.9814 24.7593 68.106 24.918 67.7493C24.937 67.678 24.9473 67.6046 24.9487 67.5308C24.5401 67.5386 24.132 67.4968 23.7334 67.4062H23.7351ZM6.98323 67.4762C6.58304 67.561 6.17657 67.613 5.7679 67.6315C5.7733 67.6831 5.7733 67.7352 5.7679 67.7868C6.10928 68.1163 6.38239 68.0719 6.98323 68.0053V67.4762ZM6.14001 71.8357C5.83788 72.2215 5.93176 72.1976 5.5477 71.8971C5.61427 72.4912 5.65524 73.1449 5.73547 73.7355C5.89114 73.7474 6.04749 73.7474 6.20316 73.7355C6.17756 73.1193 6.16391 72.4195 6.14172 71.8357H6.14001ZM24.5083 72.0934C24.4861 72.6772 24.4708 73.3788 24.4469 73.995C24.6026 74.0064 24.7589 74.0064 24.9146 73.995C24.9948 73.4044 25.0358 72.7523 25.1006 72.1566C24.7166 72.457 24.8122 72.4792 24.5083 72.0934ZM6.98153 73.9301C6.59154 74.0066 6.19407 74.0381 5.79691 74.024L5.76619 74.1179C5.88738 74.4831 6.0649 74.5685 6.51383 74.5224C6.64734 74.5013 6.78373 74.5071 6.91496 74.5395L6.98153 73.9301ZM23.6583 74.1827L23.6839 74.8109C23.8253 74.7591 23.9781 74.7467 24.126 74.775C24.5749 74.8211 24.7524 74.7358 24.8736 74.3705L24.8412 74.2766C24.4446 74.2906 24.0477 74.2591 23.6583 74.1827ZM14.236 76.8507C14.2906 77.0401 14.2889 77.3115 14.393 77.4737C14.5996 77.8031 15.7996 77.8151 16.1683 77.5983C16.3663 77.4788 16.4021 77.0862 16.4806 76.8507C16.4806 76.8507 16.3099 76.8626 16.356 76.8814C15.7876 77.3269 14.7908 77.2108 14.2377 76.8507H14.236ZM27.1012 84.7333C21.2396 88.3708 9.45487 88.393 3.54546 84.7947C3.67007 85.6346 3.26724 87.8297 2.98389 88.4391C3.52157 88.5568 3.93465 88.8555 4.41771 89.0314C5.24899 89.3318 6.11099 89.6561 6.97811 89.9036C10.4381 90.8953 15.3558 91.2965 19.5326 90.682C21.3565 90.4346 23.1513 90.0069 24.8907 89.4052C25.4881 89.1884 26.0855 88.9494 26.6966 88.7224C27.038 88.5944 27.2599 88.3964 27.6935 88.3486C27.376 87.6658 27.137 85.6414 27.1012 84.735V84.7333Z" fill="#A8B7D5"></path> <path d="M21.9 64.3584C22.0229 65.1897 21.9615 66.2599 21.9615 67.1936V72.4271C21.9615 73.0894 21.8352 73.895 21.9615 74.5454C22.0229 74.8578 22.3319 75.1752 22.4906 75.4176C22.6259 75.6121 22.7718 75.799 22.9276 75.9775C22.7774 74.8663 22.8661 73.5127 22.8661 72.3025V65.386C22.436 65.1863 22.1407 64.7442 21.9 64.3618V64.3584ZM8.83514 64.384C8.8249 64.384 8.80783 64.3755 8.78393 64.384C8.7037 64.4301 8.67981 64.6435 8.6286 64.7254C8.44036 65.0232 8.17007 65.2603 7.85024 65.4082V72.4168C7.85024 73.4905 7.94753 74.7024 7.81951 75.7198C7.80927 75.7932 7.75635 76.0714 7.85024 76.0321C7.97655 75.9775 8.74467 74.7383 8.78564 74.5369C8.91707 73.8541 8.78564 73.0194 8.78564 72.3178V66.912C8.78564 66.1234 8.70712 65.205 8.81636 64.4813C8.84879 64.5001 8.86757 64.4079 8.83514 64.384ZM21.5262 74.5761C21.1043 74.8162 20.6411 74.9748 20.1607 75.0438C18.7951 75.1838 17.0472 74.7758 16.1716 75.3852C15.7585 75.672 15.5195 76.2131 15.4888 76.7866C15.7483 76.7383 15.9998 76.6544 16.2364 76.5374C16.3235 76.4862 16.4481 76.3069 16.5488 76.2882C16.868 76.225 17.3835 76.4145 17.8256 76.3821C18.6603 76.3189 19.6196 76.4179 20.5055 76.3513C21.1182 76.3052 22.127 76.2182 22.6852 76.3821C22.3097 75.7829 21.8744 75.2128 21.533 74.5744L21.5262 74.5761ZM9.12703 74.6376C8.82661 75.375 8.36915 75.9058 7.97484 76.5374C8.37427 76.3513 9.01437 76.3821 9.62545 76.3821C10.95 76.3821 12.5272 76.5527 13.8313 76.3821C13.8911 76.3735 14.1027 76.2523 14.1437 76.2574C14.1847 76.2626 14.3605 76.4674 14.4236 76.5067C14.6669 76.64 14.9295 76.7344 15.202 76.7866C15.1627 76.1038 14.9016 75.6208 14.3929 75.322C13.4951 74.7946 11.7506 75.2196 10.467 75.0728C9.95489 75.0114 9.54181 74.8031 9.12703 74.6359V74.6376Z" fill="#172240"></path> <path d="M9.9051 66.2585L9.87438 66.2893C9.77794 66.3542 9.70111 66.4443 9.65224 66.5498C9.60337 66.6553 9.58433 66.7722 9.59717 66.8877C9.61001 67.0033 9.65424 67.1131 9.72508 67.2053C9.79591 67.2975 9.89064 67.3685 9.99898 67.4107C9.87267 67.5814 9.64736 67.8067 9.62517 68.0645C9.58591 68.4895 9.76684 68.7473 9.59444 69.1228C9.58079 69.1125 9.57567 69.1876 9.65589 69.2167C9.76172 69.0613 9.96143 68.8531 9.99728 68.6568C10.057 68.3342 9.91364 68.0508 9.99728 67.7845C10.0926 67.5701 10.2185 67.3706 10.3711 67.1922C10.8047 67.3919 11.566 67.5746 11.3355 68.2505C11.2997 68.3547 11.2689 68.4878 11.1802 68.5305C10.9651 68.6312 10.5264 68.5731 10.2772 68.5919C10.2038 68.7899 10.156 68.9453 10.0912 69.1535C10.1424 69.1535 10.3096 69.1211 10.3096 69.1211C11.1904 69.1211 11.2263 69.2627 11.4635 68.5612C11.5642 68.2591 11.7759 67.8238 11.7127 67.4397C11.6155 66.8662 10.7244 67.153 10.7774 66.2568C10.5213 66.4873 10.3677 67.1291 9.99898 66.786C9.8556 66.6511 9.87267 66.4258 9.9051 66.2568V66.2585ZM12.0234 66.2893C11.921 66.7536 11.8527 67.2554 12.3358 67.4107C12.1873 67.7794 12.2675 68.0798 12.3033 68.5322C11.7469 68.6773 11.8271 68.5953 11.6803 69.1552C12.9588 69.1552 12.6942 68.8941 12.4587 68.0013C12.3085 67.4329 12.5765 67.2161 13.1756 67.409C13.4624 67.5012 13.3309 68.7319 13.3309 69.116C13.5716 69.0084 13.6416 68.8565 13.7679 68.65C13.4504 68.3376 13.6774 66.9533 13.3941 66.8116C12.7506 66.4924 12.2265 67.2076 12.0285 66.2824L12.0234 66.2893ZM20.7151 66.2893C20.6298 66.4019 20.4352 66.5436 20.4045 66.6938C20.2935 67.2059 20.9541 67.0659 20.5905 67.5968C20.0306 67.3715 19.4247 67.1001 19.4691 66.3507C19.3531 66.4237 19.2652 66.5338 19.2199 66.6631C19.0492 67.2366 19.4127 67.578 19.7183 67.7845C19.6301 67.8394 19.5467 67.9017 19.4691 67.9706C19.2369 68.1942 19.2984 68.5032 19.3445 68.8736C19.2694 68.885 19.196 68.9056 19.126 68.935C19.0884 68.9589 19.126 69.0716 19.0952 69.0921C19.4657 69.1416 20.005 69.2047 19.906 68.6875C19.8821 68.5629 19.7097 68.4332 19.6875 68.3137C19.6783 68.2362 19.6846 68.1577 19.706 68.0827C19.7274 68.0077 19.7635 67.9377 19.8122 67.8767C20.3242 68.1157 21.0463 68.3786 20.7151 69.0921C20.8858 69.0699 20.8244 69.1398 20.9336 68.9982C21.2511 68.5868 21.2921 68.1191 20.8397 67.8153C20.7851 67.7767 20.7327 67.7351 20.6827 67.6907C20.9541 67.52 21.2716 67.1325 20.9951 66.7877C20.9473 66.7279 20.7954 66.646 20.7766 66.5692C20.7322 66.3763 20.8653 66.3985 20.7134 66.2893H20.7151ZM13.9249 66.32C13.7269 66.8543 13.6672 67.4517 14.3926 67.4107C14.3209 67.9313 14.3722 68.6056 14.2988 69.0938C14.6077 69.0579 14.6401 68.8531 14.7972 68.5953C14.7409 68.5595 14.7033 68.5612 14.6726 68.5015C14.5649 68.1481 14.5438 67.774 14.6111 67.4107C14.6538 67.2844 14.874 67.2622 14.7972 66.9738C14.7204 66.6853 14.1315 66.9021 14.0188 66.5999C14.0035 66.5624 13.9266 66.3268 13.9249 66.32ZM17.9738 66.3507C17.7929 66.8389 17.7126 67.5166 18.4415 67.409C18.3647 67.7726 18.1837 69.7834 18.6907 68.8428C18.7231 68.7814 18.7214 68.749 18.7522 68.6875C18.7522 68.6875 18.7265 68.5749 18.7214 68.5629C18.5695 68.254 18.6583 67.7965 18.6275 67.4107C18.8409 67.3305 19.0372 67.182 18.846 66.9123C18.6071 66.5709 18.1633 67.0352 17.9738 66.3524V66.3507ZM16.074 66.4446C15.9613 66.6255 15.975 66.7723 16.0432 67.0676C16.2139 67.805 17.0776 67.1666 17.2893 67.5661C17.46 67.8955 17.3508 68.6483 17.3508 69.0938C17.5795 69.0323 17.6 68.9231 17.7246 68.6892C17.8065 68.6892 17.7246 68.5817 17.7246 68.5953C17.5129 68.2915 17.6461 67.0813 17.4446 66.914C16.9462 66.5026 16.429 67.2554 16.0791 66.4463L16.074 66.4446ZM19.9999 70.1213C19.8087 70.4286 19.5356 70.7819 19.8753 71.1182C19.9677 71.1913 20.0514 71.275 20.1245 71.3674C20.2116 71.5603 20.1245 71.999 20.3123 71.5859C20.7441 70.659 20.1211 70.9168 20.0324 70.4644C19.9999 70.3057 20.1314 70.1964 20.0016 70.123L19.9999 70.1213ZM13.4265 70.2152C12.672 71.1421 13.6382 71.0021 13.5204 71.8044C13.6279 71.7259 13.7047 71.702 13.7696 71.5859C14.1503 70.9031 13.389 70.8502 13.4282 70.2203L13.4265 70.2152ZM17.6 70.3091C17.4105 70.7119 17.2705 71.1762 17.7877 71.3674C17.5027 71.8795 17.5283 72.3916 17.4463 73.1426C18.0797 73.1182 18.7139 73.1285 19.3462 73.1733C19.3684 72.6186 19.5476 72.1492 19.4708 71.5535C19.324 70.3927 18.6429 71.0636 17.7894 70.7444C17.6187 70.6761 17.699 70.403 17.6017 70.3074L17.6 70.3091ZM11.0266 70.3706C10.8081 70.7666 10.733 71.2035 11.2126 71.3947C10.8815 71.8146 10.9259 72.4411 10.8712 73.1699C11.4963 73.1236 12.1238 73.1236 12.7489 73.1699C12.771 72.5981 12.9708 72.1031 12.8735 71.463C12.7028 70.3347 11.1375 71.2769 11.0351 70.3723L11.0266 70.3706ZM4.35927 85.9395C4.23308 86.6398 4.06897 87.3327 3.86768 88.0151C3.95958 88.0231 4.05083 88.0374 4.14079 88.0578C4.37805 88.1261 4.66823 88.3207 4.88842 88.3702C4.90549 88.3702 4.99767 88.3599 4.9567 88.3497C5.00108 88.2831 5.17348 88.051 5.21786 87.9827C5.28273 87.8854 4.25003 88.0254 4.32172 87.7796C4.47022 87.2675 4.60678 86.6257 4.73138 86.1273C4.60336 86.0658 4.48559 85.9992 4.35757 85.9395H4.35927ZM26.2917 85.9702C25.8923 86.0743 25.3955 86.0692 25.2419 86.4362C24.8835 87.2897 25.8889 87.1463 26.3497 87.4211C26.4049 87.4482 26.4486 87.4943 26.4726 87.5509C26.7389 88.3446 25.6362 87.8922 25.4194 87.7472C25.4352 87.8212 25.4557 87.8942 25.4809 87.9656C25.5268 88.0729 25.5792 88.1772 25.6379 88.278C25.7352 88.4368 26.1107 88.3019 26.3531 88.2166C26.6945 88.0954 27.0035 87.7625 26.8208 87.3136C26.6501 86.9056 26.1381 86.9722 25.7608 86.7844C25.7083 86.7578 25.6636 86.718 25.631 86.669C25.5984 86.6199 25.579 86.5632 25.5748 86.5045C25.8035 85.8627 26.6826 86.8954 26.5119 86.4721C26.4863 86.4106 26.3036 86.018 26.29 85.9736L26.2917 85.9702ZM5.85455 86.5933C5.75725 87.0541 5.37319 87.9588 5.48073 88.4624C5.51339 88.5474 5.56355 88.6246 5.62794 88.689C5.69234 88.7534 5.76954 88.8035 5.85455 88.8362C6.98454 89.3363 7.18596 87.8393 7.38225 87.0917C7.25594 87.0541 7.17401 87.0371 7.04087 86.9978C6.96747 87.5509 6.87017 88.9505 6.04402 88.587C5.62753 88.4043 6.15838 87.0507 6.26251 86.7179C6.114 86.6803 6.01159 86.6445 5.85796 86.5933H5.85455ZM24.018 86.793C23.899 86.8183 23.7841 86.8602 23.6767 86.9176C23.6767 87.771 23.506 88.4419 23.366 89.1605C23.4923 89.1161 23.6254 89.0734 23.7705 89.0359C23.7743 88.7878 23.7995 88.5405 23.8456 88.2968C24.0402 88.2148 24.5045 88.0937 24.5045 88.0937C24.6428 88.241 24.7579 88.4085 24.8459 88.5904C24.9261 88.7355 24.9603 88.6877 25.1719 88.6023C25.2434 88.5772 25.3164 88.5567 25.3904 88.5409C25.1122 88.1858 24.7964 87.8581 24.5489 87.4809C24.4448 87.3204 24.0198 86.7981 24.0198 86.7981L24.018 86.793ZM22.9239 87.1941C22.4394 87.399 21.9218 87.5146 21.3962 87.5355C21.3962 87.643 21.3382 87.7847 21.3313 87.8922C21.3226 87.9756 21.3458 88.0592 21.3962 88.1261C21.4624 88.0154 21.551 87.9197 21.6562 87.8451C21.7614 87.7704 21.8809 87.7185 22.0073 87.6925C22.1901 88.2695 22.3316 88.8587 22.4306 89.4558C22.9888 89.2697 22.9427 89.3909 22.8522 89.2134C22.7617 89.0359 22.4101 87.5662 22.4238 87.5628C22.6616 87.5541 22.8974 87.6095 23.1065 87.7233C23.1236 87.7096 23.2021 87.7489 23.2158 87.7523C23.1646 87.6413 23.1065 87.5816 23.1168 87.5662C23.0417 87.4177 22.9973 87.3272 22.929 87.1907L22.9239 87.1941ZM7.76119 87.2043C7.75095 87.1651 7.79021 87.3272 7.79363 87.3426C7.83197 87.4751 7.88283 87.6037 7.94554 87.7267C8.0247 87.9183 8.08696 88.1165 8.1316 88.319C7.81594 88.5802 7.48288 88.8198 7.13475 89.0359C7.43687 89.1349 7.55124 89.3244 7.75778 89.0052C8.29717 88.1636 8.31083 88.8225 8.47469 89.4712C8.68635 89.5019 8.80243 89.5224 9.00555 89.565C8.83486 89.1212 8.64027 88.7542 8.56858 88.2251C8.85363 88.0237 9.12845 87.8137 9.44082 87.6328C9.15576 87.573 9.07212 87.4416 8.88094 87.6635C8.36886 88.2524 8.45421 88.1227 8.28864 87.3511C8.11794 87.3068 7.92335 87.2504 7.7629 87.2026L7.76119 87.2043ZM21.0207 87.6362C20.9507 87.6362 20.8705 87.6362 20.8005 87.6362C20.7305 87.6362 20.6076 87.7113 20.5615 87.7198C20.7202 88.3599 20.7578 89.0683 20.8653 89.8023C20.8653 89.8023 21.0104 89.7682 21.0121 89.7699C21.1094 89.7494 21.2733 89.6828 21.3774 89.6555C21.2145 88.9885 21.0948 88.3117 21.019 87.6294L21.0207 87.6362ZM10.4377 87.7591C10.3335 88.4197 10.1816 89.2015 10.0485 89.8177C10.4313 89.8197 10.8131 89.858 11.1887 89.932C11.5557 90.014 11.5199 89.9798 11.653 89.6913C11.6763 89.6407 11.6968 89.5889 11.7145 89.536C11.3469 89.6736 10.9507 89.7164 10.5623 89.6606C10.733 88.843 10.5281 88.8072 11.245 89.1008C11.245 89.0649 11.2143 88.9761 11.2143 88.9761C11.2143 88.9266 11.1836 88.7918 11.1836 88.7901C11.1836 88.7884 11.1836 88.7013 11.1836 88.6962C11.0186 88.7241 10.8501 88.7241 10.6852 88.6962C10.7176 88.4026 10.7722 88.0288 10.8286 88.0459C11.0155 88.0997 11.1968 88.1717 11.3697 88.2609C11.4874 88.3378 11.5927 88.4322 11.682 88.5409C11.682 88.5119 11.6513 88.3838 11.6513 88.3838C11.6274 88.2367 11.5961 88.0908 11.5574 87.9469C11.1801 87.9079 10.8056 87.8458 10.436 87.7608L10.4377 87.7591ZM19.4844 87.8496C19.4361 87.8467 19.3877 87.8467 19.3393 87.8496C19.0406 87.8718 18.7504 88.01 18.4364 88.0356C18.4637 88.2234 18.5115 88.4248 18.5303 88.5955C18.5815 89.082 18.5763 89.5736 18.5968 90.0737C18.73 90.0583 18.916 90.0174 19.0594 89.9969C19.0127 89.6977 18.9813 89.3963 18.9655 89.0939C19.0884 89.0751 19.1669 89.0768 19.3069 89.0615C19.5903 89.5275 20.0614 89.9952 20.6725 89.9337C20.6725 89.9337 20.6964 89.8586 20.7032 89.8398C20.2668 89.5853 19.8939 89.2352 19.6124 88.8157C19.8429 88.5204 20.1348 87.8718 19.4759 87.8461L19.4844 87.8496ZM12.1139 87.9708C12.0729 88.0698 11.9807 88.1892 11.9432 88.29C11.9085 88.3663 11.9042 88.453 11.9312 88.5323C12.0289 88.448 12.1432 88.385 12.2666 88.3474C12.3901 88.3098 12.52 88.2983 12.6482 88.3138C12.6393 88.9193 12.5874 89.5234 12.4928 90.1215C13.08 90.1215 12.9947 90.2188 12.9691 90.0242C12.9435 89.8296 13.0698 88.3173 13.0834 88.3173C13.3098 88.3842 13.5143 88.5103 13.6757 88.6825C13.6962 88.6825 13.7577 88.7372 13.7696 88.7457C13.756 88.6245 13.7184 88.5528 13.7338 88.5375C13.7099 88.3668 13.6945 88.2729 13.6757 88.1227C13.1516 88.1647 12.6242 88.1115 12.119 87.9656L12.1139 87.9708ZM17.7212 88.0646C17.4276 88.0646 17.0964 88.1585 16.7243 88.1585C16.783 88.8527 16.8041 89.5496 16.7875 90.2461C17.24 90.1834 17.6962 90.1521 18.153 90.1522C18.334 89.705 18.4859 89.6709 18.0284 89.8108C17.2176 90.0583 17.1749 90.0737 17.1852 89.2032C18.0387 89.2766 17.8509 89.3739 17.7707 88.8293C17.5864 88.9116 17.3884 88.959 17.1869 88.9693C17.1869 88.9027 17.1562 88.3463 17.1562 88.3463C17.6256 88.3463 17.8389 88.4282 18.0916 88.6262C18.0455 88.476 18.0523 88.3924 17.9977 88.2524C17.9431 88.1124 17.914 88.0629 17.7178 88.0646H17.7212ZM14.5446 88.1585C14.5446 88.1585 14.6009 88.3121 14.635 88.3804C14.874 88.8652 15.0413 89.4285 15.2871 89.9593C15.4339 90.2768 15.4936 90.5909 15.7292 90.1522C15.8388 89.9049 15.9301 89.6499 16.0023 89.3892C16.1508 88.9761 16.3266 88.5784 16.5144 88.1944C16.3522 88.1944 16.161 88.2149 16.0467 88.2251C15.9541 88.6917 15.8186 89.1489 15.6421 89.5906C15.3795 89.1387 15.1693 88.6582 15.0157 88.1585C14.8609 88.185 14.7027 88.185 14.548 88.1585H14.5446Z" fill="#3A518B"></path> <path d="M11.3697 71.3984C11.1961 71.8002 11.1319 72.2407 11.1836 72.6752C11.6448 72.5697 12.1239 72.5697 12.585 72.6752C12.5355 71.3967 12.7011 71.5777 11.3697 71.3984ZM17.9124 71.3984C17.8118 71.7206 17.7696 72.0582 17.7878 72.3953C17.7922 72.4783 17.7922 72.5615 17.7878 72.6445C18.2469 72.5219 18.7301 72.5219 19.1892 72.6445C19.1892 71.4172 19.1328 71.3984 17.9124 71.3984ZM23.9413 87.2405C23.9439 87.489 23.9222 87.7371 23.8764 87.9813L24.3731 87.8431L23.9413 87.2405ZM19.196 88.1196C19.092 88.1173 18.9882 88.1282 18.887 88.152C18.9015 88.4002 18.9289 88.6475 18.969 88.8928C19.4111 88.828 19.7781 88.1469 19.1977 88.1196H19.196Z" fill="#A8B7D5"></path> </g> </g> <defs> <clipPath id="clip0_174_2728"> <rect width="150" height="150" fill="white"></rect> </clipPath> <clipPath id="clip1_174_2728"> <rect width="30.7163" height="32.215" fill="white" transform="translate(0 59.25)"></rect> </clipPath> </defs> </svg> 