<?xml version="1.0" encoding="UTF-8"?> <svg xmlns="http://www.w3.org/2000/svg" width="44" height="44" viewBox="0 0 44 44" fill="none"><rect width="44" height="44" rx="8" fill="white"></rect><path d="M20 27L26 22L20 17V27Z" fill="#182849"></path><path d="M22 12C16.486 12 12 16.486 12 22C12 27.514 16.486 32 22 32C27.514 32 32 27.514 32 22C32 16.486 27.514 12 22 12ZM22 30C17.589 30 14 26.411 14 22C14 17.589 17.589 14 22 14C26.411 14 30 17.589 30 22C30 26.411 26.411 30 22 30Z" fill="#182849"></path></svg> 