<?xml version="1.0" encoding="UTF-8"?> <svg xmlns="http://www.w3.org/2000/svg" width="650.65" height="125.05" version="1.1" viewBox="0 0 650.65 125.05"><g transform="translate(12.752 -356.49)" fill-rule="evenodd"><path d="m377.81 434.78 21.676-9.0054c-1.2041-3.0368-4.7645-5.1311-9.0055-5.1311-5.4186-0.0261-12.932 4.7646-12.67 14.136zm25.446 8.7174 8.2724 5.4974c-2.6702 3.9528-9.0839 10.759-20.21 10.759-13.77 0-23.718-10.655-23.718-24.241 0-14.424 10.026-24.241 22.54-24.241 12.592 0 18.744 10 20.76 15.419l1.0996 2.7487-32.409 13.403c2.4869 4.8691 6.3352 7.3561 11.754 7.3561 5.3925 5e-4 9.1623-2.6698 11.911-6.7013zm-52.54 14.791h10.654v-71.258l-10.654-3e-4zm-17.382-22.697c0-8.5341-5.707-14.791-12.958-14.791-7.33 0-13.508 6.2566-13.508 14.791 0 8.4557 6.152 14.608 13.508 14.608 7.2774 0 12.958-6.152 12.958-14.608zm9.3717-22.854v43.535c0 17.906-10.55 25.262-23.037 25.262-11.754 0-18.822-7.9059-21.492-14.32l9.2671-3.8483c1.6494 3.9529 5.7071 8.639 12.225 8.639 7.9843 0 12.958-4.9478 12.958-14.241v-3.4817l-0.3927-2e-4c-2.3821 2.9319-6.9896 5.5237-12.775 5.5237-12.121 0-23.246-10.55-23.246-24.163 0-13.691 11.1-24.346 23.246-24.346 5.7854 0 10.393 2.5654 12.775 5.4189l0.3665-3e-4v-3.9528c0-0.0261 10.105-0.0261 10.105-0.0261zm-116.26 22.775c0-8.7174-6.2304-14.686-13.43-14.686-7.2251 0-13.43 5.9687-13.43 14.686 0 8.6389 6.2304 14.686 13.43 14.686 7.1993 0 13.43-6.0736 13.43-14.686zm10.471 0c0 13.953-10.733 24.241-23.901 24.241s-23.901-10.288-23.901-24.241c0-14.058 10.733-24.241 23.901-24.241s23.901 10.183 23.901 24.241zm43.09 0c0-8.7174-6.2304-14.686-13.43-14.686-7.2252 0-13.43 5.9687-13.43 14.686 0 8.6389 6.2304 14.686 13.43 14.686 7.1992 0 13.43-6.0736 13.43-14.686zm10.471 0c0 13.953-10.733 24.241-23.901 24.241s-23.901-10.288-23.901-24.241c0-14.058 10.733-24.241 23.901-24.241s23.901 10.183 23.901 24.241zm-142.31 24.241c-20.734 0-38.194-16.911-38.194-37.645 0-20.76 17.461-37.671 38.194-37.671 11.492 0 19.66 4.5026 25.812 10.393l-7.2515 7.2516c-4.398-4.1361-10.367-7.3561-18.56-7.3561-15.157 0-27.016 12.225-27.016 27.356 0 15.157 11.859 27.356 27.016 27.356 9.817 0 15.419-3.9528 19.006-7.5393 2.9319-2.932 4.8691-7.1729 5.6022-12.958l-24.608-3e-4v-10.288h34.608c0.3666 1.8324 0.5498 4.0315 0.5498 6.4137 0 7.7226-2.1204 17.278-8.9006 24.058-6.5969 6.9373-15.053 10.628-26.257 10.628z" fill="#5f6368"></path><g fill="#63666a"><path d="m437.1 457.61v-63.288l8.1734-3e-4 21.98 38.547h0.3311l21.98-38.547h8.1733v63.288l-8.1733 2e-4v-37.553l0.3313-10.603h-0.3313l-19.77 34.681h-4.7495l-19.77-34.681h-0.3316l0.3313 10.603v37.553z"></path><path d="m522.7 459.05c-4.6389 0-8.3941-1.3253-11.487-3.9762-3.0925-2.6509-4.6388-6.1851-4.6388-10.493 0-4.7492 1.8776-8.3941 5.5225-11.045 3.6448-2.6508 8.1733-3.9762 13.475-3.9762 4.7492 0 8.7254 0.8837 11.708 2.6509v-1.2149c0-3.203-1.1046-5.7435-3.3135-7.6211-2.209-1.8776-4.8599-2.8716-8.0628-2.8716-2.3196 0-4.5285 0.5523-6.4061 1.6566-1.8776 1.1046-3.203 2.6509-3.9762 4.6389l-7.4001-3.2029c0.994-2.5403 2.9822-4.9702 5.9641-7.1792 2.9823-2.2089 6.8478-3.3135 11.708-3.3135 5.5225 0 10.161 1.6566 13.806 4.8598s5.5225 7.8421 5.5225 13.696v26.176l-7.7314-3e-4v-5.9641h-0.3314c-3.3135 4.6388-8.063 7.1791-14.358 7.1791zm1.3253-7.5105c3.3136 0 6.4061-1.2149 9.1674-3.7552 2.7612-2.5403 4.0865-5.4121 4.0865-8.836-2.3195-1.8776-5.7434-2.8716-10.382-2.8716-3.9762 0-6.9584 0.8836-8.9464 2.5402-1.9879 1.6567-2.9822 3.7553-2.9822 5.9642 0 2.0986 0.8836 3.7553 2.7613 5.0808 1.8776 1.3256 3.9764 1.8776 6.2957 1.8776z"></path><path d="m576.82 459.05c-3.3135 0-6.2958-0.6627-8.836-2.0986-2.5403-1.4359-4.5285-3.2029-5.8538-5.3015h-0.4417l0.3313 5.9642v19.108l-8.0628 3e-4v-62.404h7.7315v5.9642h0.3313c1.3253-2.0986 3.2029-3.8658 5.8538-5.3015s5.6329-2.0986 8.836-2.0986c5.6329 0 10.382 2.209 14.469 6.6271 4.0866 4.4179 6.0748 9.9404 6.0748 16.457s-1.988 12.039-6.0748 16.457c-3.9762 4.4177-8.836 6.6266-14.358 6.6266zm-1.3253-7.5105c3.7552 0 6.9584-1.4359 9.7196-4.3075 2.7613-2.8716 4.0866-6.6271 4.0866-11.376s-1.3253-8.5047-4.0866-11.376c-2.7612-2.8716-5.9641-4.3075-9.7196-4.3075-3.8659 0-7.0688 1.4359-9.7197 4.1971-2.6509 2.8716-3.9762 6.6271-3.9762 11.376 0 4.7493 1.3253 8.6151 3.9762 11.376 2.6509 3.0926 5.8538 4.4179 9.7197 4.4179z"></path><path d="m620.89 459.05c-4.8599 0-8.8361-1.215-11.929-3.5345-3.203-2.3196-5.4122-5.3015-6.9585-8.836l7.2898-2.9823c2.3195 5.4122 6.1851 8.1734 11.708 8.1734 2.5403 0 4.6389-0.5523 6.1852-1.6566 1.6566-1.1046 2.4299-2.5403 2.4299-4.4179 0-2.8716-1.988-4.7492-5.9642-5.7435l-8.7254-2.0986c-2.7613-0.6626-5.4121-2.0986-7.8421-3.9762-2.4299-1.8776-3.7552-4.6388-3.7552-7.9524 0-3.8658 1.6567-6.9584 5.0808-9.2777 3.4239-2.4299 7.4001-3.5345 12.039-3.5345 3.8658 0 7.2897 0.8836 10.272 2.6509 2.9822 1.7672 5.1911 4.1971 6.4061 7.5104l-7.0688 2.8716c-1.5463-3.8658-4.8598-5.7434-9.9404-5.7434-2.4299 0-4.4178 0.5523-6.0747 1.5463s-2.43 2.3195-2.43 4.0865c0 2.4299 1.8777 4.1972 5.7435 5.0808l8.6151 1.988c4.0865 0.994 7.0687 2.5403 9.057 4.8598 1.9879 2.3196 2.8716 4.8599 2.8716 7.7315 0 3.8658-1.5463 7.1791-4.7493 9.7196-3.0928 2.2095-7.1793 3.5348-12.26 3.5348z"></path></g></g><g transform="translate(12.752 -356.49)" fill-rule="evenodd"><path d="m11.204 448.92c3.8519 4.8175 7.7751 10.855 9.8282 14.514 2.5002 4.7565 3.5369 7.9682 5.3968 13.68 1.0876 3.1507 2.1242 4.1061 4.2992 4.1061 2.3783 0 3.4657-1.6058 4.2991-4.1061 1.738-5.3969 3.0796-9.503 5.2038-13.426 4.1772-7.5109 9.4419-14.199 14.585-20.622 1.4127-1.799 10.408-12.4 14.453-20.815 0 0 4.9497-9.1879 4.9497-22.035 0-12.013-4.8785-20.358-4.8785-20.358l-14.128 3.7911-8.6086 22.614-2.1241 3.0796-0.4472 0.5793-0.5794 0.7114-0.9655 1.1586-1.4128 1.4128-7.643 6.2303-19.077 11.048z" fill="#34a853"></path><path d="m-8.5134 420.71c4.6855 10.662 13.619 19.982 19.717 28.204l32.31-38.286s-4.5634 5.9763-12.786 5.9763c-9.1879 0-16.638-7.3179-16.638-16.577 0-6.3625 3.791-10.723 3.791-10.723l-21.902 5.844z" fill="#fbbc04"></path><path d="m43.9 358.47c10.723 3.4657 19.91 10.723 25.44 21.455l-25.826 30.765s3.7911-4.4313 3.7911-10.722c0-9.442-7.9682-16.577-16.577-16.577-8.1614 0-12.847 5.905-12.847 5.905l-2e-4 -19.392z" fill="#4285f4"></path><path d="m-2.6083 372.03c6.4234-7.643 17.664-15.54 33.204-15.54 7.5109 0 13.233 1.9921 13.233 1.9921l-25.948 30.836-18.376-1e-4z" fill="#1a73e8"></path><path d="m-8.5134 420.71s-4.2383-8.4155-4.2383-20.551c0-11.495 4.4924-21.516 10.214-28.072l20.49 17.278z" fill="#ea4335"></path></g></svg> 