<?xml version="1.0" encoding="UTF-8"?> <svg xmlns="http://www.w3.org/2000/svg" width="362" height="362" viewBox="0 0 362 362" fill="none"><path d="M242.103 167.664C247.205 170.25 252.256 172.473 256.975 175.26C278.734 188.107 290.789 207.685 294.852 232.189C299.935 262.834 294.521 291.412 276.163 316.988C260.11 339.361 238.28 352.552 211.379 357.653C195.183 360.726 178.838 362.006 162.369 362C109.906 361.974 57.4359 361.987 4.97241 361.987C-2.47627e-06 361.987 0 361.98 0 357.178C0 239.805 0 122.425 0 5.0514C0 3.55686 0 2.06232 0 0.0609304C1.59039 0.0609304 2.84972 0.0609304 4.10256 0.0609304C61.4346 0.0609304 118.773 -0.127512 176.105 0.1584C197.657 0.262369 218.786 3.55036 238.299 13.5248C265.479 27.411 280.279 49.9721 284.167 79.9864C285.823 92.7485 285.329 105.452 282.493 118.026C277.864 138.553 266.05 153.687 247.932 164.071C246.056 165.143 244.206 166.254 242.35 167.352C242.272 167.391 242.226 167.508 242.103 167.664ZM72.5998 298.787C74.2486 298.787 75.5274 298.787 76.8062 298.787C104.492 298.787 132.178 298.911 159.857 298.703C167.173 298.644 174.554 298.027 181.772 296.838C199.546 293.901 212.171 284.479 217.449 266.629C219.812 258.649 220.234 250.436 219.597 242.19C218.332 225.756 210.198 214.229 194.787 208.088C185.829 204.514 176.378 203.176 166.861 203.111C136.365 202.89 105.868 202.974 75.3781 202.961C74.4563 202.961 73.5345 203.124 72.6063 203.215C72.5998 235.12 72.5998 266.707 72.5998 298.787ZM72.6517 142.374C73.9889 142.439 74.9562 142.523 75.9169 142.523C104.135 142.53 132.36 142.549 160.578 142.517C169.257 142.504 177.832 141.581 186.154 138.956C198.124 135.181 207.893 128.754 210.802 115.693C212.145 109.656 212.554 103.236 212.243 97.0437C211.457 81.1691 202.72 70.6098 187.225 67.3738C177.442 65.3269 167.387 63.7934 157.423 63.5984C130.185 63.0656 102.934 63.358 75.6897 63.3255C74.6705 63.3255 73.6449 63.3255 72.6517 63.3255C72.6517 89.9154 72.6517 115.972 72.6517 142.374Z" fill="white"></path><path d="M342.571 320.61C345.487 315.579 348.977 313.904 353.97 314.888C358.178 315.718 360.984 318.648 361.393 323.673C361.779 328.4 361.476 333.182 361.476 338.119C350.187 338.119 339.108 338.119 327.847 338.119C327.847 333.199 327.554 328.334 327.952 323.529C328.2 320.538 330.349 318.371 333.414 317.603C336.976 316.707 340.168 317.293 342.571 320.61ZM344.498 334.056C349.331 334.056 353.506 334.056 358.162 334.056C357.969 330.335 358.057 326.758 357.527 323.275C357.046 320.135 354.693 318.725 351.253 318.758C347.945 318.791 345.553 320.406 345.128 323.507C344.658 326.913 344.692 330.39 344.498 334.056ZM341.184 329.108C341.184 328.19 341.223 327.272 341.179 326.354C341.013 323.015 339.379 321.274 336.363 321.185C333.353 321.097 331.536 322.805 331.232 326.05C331.138 327.051 331.111 328.063 331.1 329.074C331.067 334.232 331.072 334.233 336.131 334.233C341.196 334.233 341.196 334.232 341.184 329.108Z" fill="white"></path><path d="M327.173 80.7782C327.173 70.6832 334.551 63.2363 344.531 63.2473C354.456 63.2584 361.984 70.8159 362 80.7782C362.017 90.724 354.478 98.2704 344.531 98.2649C334.48 98.2649 327.173 90.9009 327.173 80.7782ZM358.178 80.8999C358.2 73.0936 352.462 67.3992 344.57 67.3882C336.722 67.3771 330.757 73.1599 330.757 80.7948C330.757 88.2638 336.65 94.0798 344.338 94.1904C352.247 94.3065 358.162 88.6287 358.178 80.8999Z" fill="white"></path><path d="M361.895 218.676C353.395 225.88 344.901 233.078 336.286 240.381C343.835 240.381 351.159 240.37 358.477 240.386C361.774 240.392 361.823 240.475 361.326 244.091C350.043 244.091 338.732 244.091 327.416 244.091C327.283 243.886 327.156 243.676 327.024 243.471C335.418 236.34 343.813 229.202 352.749 221.612C344.106 221.612 336.098 221.612 327.836 221.612C327.758 220.329 327.703 219.367 327.62 218.051C339.053 218.051 350.308 218.051 361.558 218.051C361.674 218.267 361.785 218.471 361.895 218.676Z" fill="white"></path><path d="M326.526 279.147C335.584 271.467 344.084 264.264 352.871 256.811C345.254 256.811 338.025 256.822 330.796 256.806C327.432 256.8 327.388 256.728 327.94 253.234C339.124 253.234 350.33 253.234 361.53 253.234C361.652 253.461 361.768 253.688 361.889 253.92C353.544 261.007 345.194 268.101 336.324 275.63C339.113 275.63 341.328 275.63 343.548 275.63C348.877 275.63 354.213 275.669 359.542 275.614C361.094 275.597 361.646 276.2 361.624 277.737C361.608 279.218 360.939 279.627 359.592 279.622C349.203 279.594 338.815 279.6 328.426 279.583C328.1 279.583 327.769 279.434 326.526 279.147Z" fill="white"></path><path d="M331.917 133.045C332.679 133.94 333.325 134.698 333.463 134.864C332.475 138.623 331.011 141.879 330.878 145.185C330.575 152.748 336.65 158.321 344.492 158.338C352.362 158.349 358.228 152.865 358.101 145.191C358.057 142.421 357.311 139.591 356.422 136.942C356.118 136.03 354.428 135.041 353.346 135.013C348.115 134.864 348.833 134.405 348.767 139.48C348.751 140.674 348.966 141.929 348.668 143.051C348.48 143.759 347.558 144.721 346.95 144.738C346.337 144.749 345.199 143.754 345.166 143.151C344.989 139.751 344.989 136.34 345.166 132.94C345.194 132.348 346.315 131.37 346.978 131.331C349.91 131.154 352.865 131.16 355.798 131.314C356.665 131.359 357.747 131.9 358.294 132.569C363.314 138.728 363.088 150.426 357.919 156.524C352.556 162.855 343.084 164.441 335.556 160.267C326.228 155.098 323.986 140.193 331.917 133.045Z" fill="white"></path><path d="M327.101 195.014C335.595 187.804 344.095 180.595 353.025 173.021C344.321 173.021 336.186 173.021 327.852 173.021C327.852 171.777 327.852 170.749 327.852 169.56C339.13 169.56 350.297 169.56 361.459 169.56C361.613 169.793 361.774 170.025 361.928 170.251C353.539 177.372 345.144 184.493 336.313 191.984C344.918 191.984 353.025 191.984 361.033 191.984C362.072 195.5 361.801 195.97 358.78 195.976C349.121 195.998 339.456 195.992 329.796 195.976C329.006 195.976 328.211 195.832 327.421 195.754C327.316 195.511 327.211 195.262 327.101 195.014Z" fill="white"></path><path d="M326.825 55.8058C335.612 48.3534 344.056 41.1885 352.959 33.6365C344.26 33.6365 336.136 33.6365 327.835 33.6365C327.835 32.4202 327.835 31.4472 327.835 30.231C339.03 30.231 350.247 30.231 361.464 30.231C361.602 30.4355 361.74 30.6456 361.878 30.8502C353.478 37.9819 345.072 45.1137 336.186 52.6546C340.521 52.6546 344.316 52.6546 348.11 52.6546C351.976 52.6546 355.836 52.6933 359.702 52.6435C361.144 52.6214 361.912 53.2517 361.525 54.5896C361.321 55.2972 360.42 56.3255 359.829 56.3255C349.253 56.4195 338.671 56.3753 328.095 56.3476C327.863 56.3532 327.637 56.1652 326.825 55.8058Z" fill="white"></path><path d="M357.902 286.732C359.371 286.732 360.266 286.732 361.608 286.732C361.608 290.021 361.608 293.206 361.608 296.39C361.608 299.613 361.58 302.831 361.619 306.054C361.635 307.331 361.37 308.216 359.846 308.21C349.458 308.171 339.074 308.149 328.686 308.111C328.432 308.111 328.183 307.923 327.653 307.707C327.653 301.46 327.614 295.13 327.73 288.794C327.742 288.274 329.034 287.235 329.338 287.368C330.045 287.666 330.983 288.512 331.011 289.176C331.171 293.034 331.088 296.904 331.11 300.769C331.116 301.847 331.199 302.925 331.254 304.147C336.396 304.147 341.306 304.147 346.481 304.147C346.481 299.188 346.481 294.35 346.481 289.585C349.734 288.717 349.993 288.877 350.01 291.774C350.032 295.815 350.015 299.851 350.015 304.091C352.65 304.091 355.085 304.091 357.908 304.091C357.902 298.436 357.902 292.703 357.902 286.732Z" fill="white"></path><path d="M361.265 112.412C361.873 116.437 361.829 116.509 358.393 116.509C349.491 116.514 340.588 116.509 331.088 116.509C331.088 119.179 331.094 121.7 331.083 124.221C331.077 125.515 331.248 126.897 329.233 126.853C327.305 126.814 327.648 125.454 327.648 124.315C327.631 117.697 327.587 111.08 327.708 104.457C327.725 103.694 328.57 102.466 329.244 102.295C330.928 101.864 331.099 103.218 331.088 104.523C331.072 107.066 331.083 109.609 331.083 112.412C341.372 112.412 351.252 112.412 361.265 112.412Z" fill="white"></path><path d="M327.808 208.68C327.808 207.375 327.808 206.303 327.808 205.004C338.953 205.004 350.104 205.004 361.232 205.004C361.956 208.664 361.84 208.84 358.499 208.84C349.209 208.852 339.92 208.846 330.63 208.835C329.735 208.835 328.841 208.741 327.808 208.68Z" fill="white"></path></svg> 