<?xml version="1.0" encoding="UTF-8"?> <svg xmlns="http://www.w3.org/2000/svg" width="40" height="40" viewBox="0 0 40 40" fill="none"><g clip-path="url(#clip0_1708_83)"><mask id="mask0_1708_83" style="mask-type:luminance" maskUnits="userSpaceOnUse" x="0" y="0" width="40" height="40"><path d="M40 0H0V40H40V0Z" fill="white"></path></mask><g mask="url(#mask0_1708_83)"><path d="M30 0H10C4.47715 0 0 4.47715 0 10V30C0 35.5228 4.47715 40 10 40H30C35.5228 40 40 35.5228 40 30V10C40 4.47715 35.5228 0 30 0Z" fill="#E6E6E6"></path></g><path fill-rule="evenodd" clip-rule="evenodd" d="M14.6404 9.00437C14.2705 9.03205 13.7082 9.13636 13.3605 9.24179C12.5899 9.47542 11.9146 9.83052 11.2699 10.3412C11.0636 10.5046 10.622 10.9357 10.4436 11.148C9.66243 12.0771 9.19827 13.131 9.03349 14.3496C9.00171 14.5847 9 14.8717 9 20.0007C9 25.1395 9.00165 25.4161 9.03366 25.6517C9.18891 26.7944 9.59866 27.7749 10.2977 28.6764C10.484 28.9167 11.03 29.4691 11.2653 29.6554C11.7761 30.0598 12.2791 30.3521 12.8664 30.5858C13.2933 30.7558 13.7362 30.8729 14.2736 30.9579L14.5395 31H19.9965H25.4535L25.7195 30.9579C26.8949 30.7719 27.8275 30.3681 28.7277 29.6554C28.9696 29.464 29.5117 28.9136 29.7045 28.6638C30.4528 27.6943 30.8869 26.5818 30.9838 25.3857C30.9989 25.1996 31.0028 23.6698 30.9982 19.8355C30.991 13.9766 31.0014 14.4748 30.874 13.8542C30.566 12.3536 29.6887 11.0208 28.4021 10.0991C28.1684 9.93158 27.876 9.76027 27.5629 9.6074C26.9761 9.32079 26.4466 9.15845 25.7195 9.04215L25.4719 9.00255L20.0974 9.00037C17.1415 8.99918 14.6858 9.00097 14.6404 9.00437ZM27.6271 11.4793C28.0526 11.5793 28.4154 11.9427 28.516 12.3697C28.5519 12.5222 28.5519 12.7954 28.5159 12.9537C28.4198 13.3762 28.0484 13.7454 27.618 13.8461C27.4381 13.8882 27.1123 13.8751 26.9485 13.8191C26.5943 13.6981 26.2975 13.4012 26.1765 13.047C26.1206 12.8831 26.1074 12.5572 26.1495 12.3773C26.2502 11.9467 26.6082 11.5826 27.0312 11.4803C27.178 11.4448 27.4784 11.4443 27.6271 11.4793ZM20.4918 13.9093C22.5039 14.0811 24.2523 15.183 25.277 16.9247C25.6849 17.6181 25.9426 18.3805 26.0624 19.2484C26.1073 19.5733 26.1071 20.4302 26.0621 20.7529C25.8744 22.0995 25.3546 23.2046 24.4482 24.1839C24.3408 24.2999 24.2423 24.4031 24.2293 24.4132C24.2162 24.4233 24.152 24.4805 24.0867 24.5404C23.362 25.2034 22.408 25.7059 21.4203 25.9447C20.5179 26.1629 19.4741 26.1627 18.5698 25.944C16.2442 25.3817 14.4608 23.5204 14.0001 21.1749C13.9169 20.7512 13.8989 20.5451 13.8982 20.0098C13.8975 19.4742 13.9175 19.2411 14.0007 18.8172C14.3354 17.1119 15.3953 15.6192 16.9058 14.726C17.6614 14.2791 18.5705 13.9896 19.4646 13.9113C19.715 13.8893 20.246 13.8883 20.4918 13.9093ZM19.6572 16.3432C18.948 16.4275 18.3927 16.6347 17.8688 17.0103C16.3286 18.1144 15.8756 20.1769 16.8118 21.8216C17.2977 22.6752 18.1421 23.3192 19.0886 23.5581C19.484 23.6579 19.9708 23.6943 20.3643 23.6536C22.2382 23.4598 23.6651 21.8807 23.6651 20.0007C23.6651 18.1283 22.2554 16.5543 20.3962 16.3507C20.2312 16.3326 19.7843 16.3281 19.6572 16.3432Z" fill="#182849"></path></g><defs><clipPath id="clip0_1708_83"><rect width="40" height="40" fill="white"></rect></clipPath></defs></svg> 