<?xml version="1.0" encoding="UTF-8"?> <svg xmlns="http://www.w3.org/2000/svg" width="27" height="27" viewBox="0 0 27 27" fill="none"><g clip-path="url(#clip0_863_615)"><path d="M8.52478 8.24302C7.88849 7.61002 7.45439 6.8024 7.27747 5.92248C7.10055 5.04256 7.18878 4.12992 7.53097 3.30018C7.87316 2.47044 8.45392 1.76094 9.19968 1.26154C9.94545 0.762136 10.8227 0.495315 11.7202 0.494874C12.6177 0.494432 13.4952 0.760389 14.2414 1.25906C14.9877 1.75772 15.5692 2.46666 15.9122 3.29606C16.2552 4.12546 16.3443 5.03801 16.1682 5.91811C15.9922 6.7982 15.5589 7.60624 14.9232 8.23987C14.8854 8.27752 14.8406 8.30736 14.7912 8.32768C14.7419 8.348 14.6891 8.35841 14.6357 8.35831C14.5824 8.3582 14.5296 8.34759 14.4803 8.32708C14.4311 8.30657 14.3863 8.27655 14.3487 8.23876C14.311 8.20096 14.2812 8.15611 14.2609 8.10678C14.2405 8.05746 14.2301 8.00461 14.2302 7.95126C14.2303 7.8979 14.241 7.8451 14.2615 7.79585C14.282 7.7466 14.312 7.70187 14.3498 7.66422C14.8714 7.14411 15.227 6.48088 15.3714 5.75855C15.5158 5.03622 15.4426 4.28727 15.161 3.60658C14.8794 2.92589 14.4022 2.34408 13.7897 1.93484C13.1772 1.5256 12.457 1.30734 11.7204 1.30771C10.9838 1.30808 10.2638 1.52706 9.65177 1.93692C9.0397 2.34678 8.56303 2.92907 8.28215 3.61004C8.00126 4.29101 7.9288 5.04003 8.07394 5.76222C8.21907 6.48441 8.57528 7.14727 9.09744 7.66686C9.1356 7.7044 9.16597 7.74911 9.18679 7.79843C9.20762 7.84774 9.21849 7.90069 9.21879 7.95422C9.21909 8.00775 9.2088 8.06081 9.18853 8.11036C9.16825 8.1599 9.13838 8.20495 9.10063 8.24291C9.06289 8.28087 9.01802 8.311 8.96859 8.33156C8.91916 8.35212 8.86616 8.36271 8.81263 8.36272C8.7591 8.36273 8.70609 8.35216 8.65666 8.33162C8.60722 8.31108 8.56234 8.28097 8.52458 8.24302H8.52478ZM20.9505 12.1995C20.685 12.0455 20.3836 11.9639 20.0766 11.9628C19.7696 11.9617 19.4677 12.0413 19.201 12.1934C19.1786 12.2063 19.1573 12.2205 19.1356 12.2341C19.0632 11.1507 18.1935 10.5837 17.3329 10.5832H17.3314C16.8185 10.5832 16.3025 10.7846 15.9536 11.1765C15.6056 10.7475 15.0655 10.5268 14.5289 10.5265H14.5274C14.1759 10.5254 13.8308 10.621 13.53 10.8029L13.5328 5.03065C13.5328 4.55164 13.3427 4.09221 13.0044 3.75309C12.6661 3.41397 12.2072 3.22284 11.7282 3.22162H11.7247C11.2465 3.22336 10.7883 3.41408 10.4501 3.75222C10.1118 4.09036 9.92099 4.54849 9.91913 5.02674L9.91278 14.5643L8.90884 13.2427C8.34278 12.4959 7.46965 12.0975 6.63064 12.2031C6.00192 12.2822 5.49822 12.6342 5.28341 13.1448C5.14163 13.4817 5.0099 14.1869 5.72084 15.1242C7.20563 17.0808 7.70613 18.5052 8.14768 19.7618C8.50731 20.7853 8.81799 21.6692 9.57463 22.5344C10.2444 23.3016 10.5661 24.1657 10.5583 25.1761L10.5511 26.0858C10.5507 26.1392 10.5608 26.1921 10.5808 26.2416C10.6008 26.291 10.6304 26.3361 10.6678 26.3741C10.7052 26.4121 10.7498 26.4424 10.7989 26.4632C10.8481 26.484 10.9008 26.495 10.9542 26.4954H18.7697C18.8774 26.4945 18.9804 26.4509 19.056 26.3741C19.1316 26.2973 19.1735 26.1937 19.1727 26.0859L19.1655 25.1751C19.1577 24.1623 19.4798 23.2974 20.1503 22.5309C21.231 21.2965 21.8259 19.7112 21.8242 18.0706L21.8285 13.8474C21.8296 13.1238 21.5095 12.5232 20.9505 12.1995Z" fill="#00C1DE"></path></g><defs><clipPath id="clip0_863_615"><rect width="26" height="26" fill="white" transform="translate(0.5 0.495361)"></rect></clipPath></defs></svg> 