<?xml version="1.0" encoding="UTF-8"?> <svg xmlns="http://www.w3.org/2000/svg" width="600" height="600" viewBox="0 0 600 600" fill="none"> <rect width="600" height="600" fill="#F4F4F5"></rect> <path d="M359.573 216.535C359.047 216.535 358.524 216.665 357.998 216.917L344.627 222.007C343.19 222.533 342.145 222.954 341.492 223.28C340.841 223.608 340.517 224.097 340.517 224.748C340.517 225.663 341.002 226.255 341.981 226.514C342.957 226.774 344.073 227.131 345.311 227.589C346.552 228.046 347.663 228.832 348.641 229.94C349.623 231.051 350.11 232.912 350.11 235.523V333.845C350.11 335.932 349.879 337.499 349.422 338.544C348.966 339.587 348.281 340.376 347.368 340.899C346.453 341.418 345.405 341.81 344.233 342.069C343.059 342.329 341.821 342.656 340.517 343.052C339.474 343.309 338.626 343.605 337.97 343.928C337.317 344.255 336.991 344.876 336.991 345.793C336.991 346.704 337.611 347.257 338.85 347.453C340.09 347.644 341.037 347.747 341.69 347.747C343.389 347.747 345.581 347.622 348.255 347.373C350.937 347.123 353.461 346.994 355.83 346.994C358.061 346.994 360.224 347.123 362.318 347.373C364.418 347.622 366.642 347.747 368.994 347.747C370.039 347.747 371.049 347.614 372.03 347.357C373.006 347.095 373.498 346.578 373.498 345.797C373.498 344.882 372.941 344.331 371.835 344.138C370.726 343.942 369.384 343.582 367.82 343.056C366.903 342.801 365.957 342.248 364.976 341.404C363.999 340.555 363.515 339.027 363.515 336.812V309.079C363.515 308.431 363.971 308.101 364.884 308.101C365.275 308.101 365.865 308.494 366.65 309.275L396.211 337.2C397.645 338.634 398.359 339.678 398.359 340.324C398.359 340.978 398.002 341.564 397.285 342.083C396.563 342.604 395.689 342.929 394.639 343.054C392.943 343.318 391.574 343.614 390.529 343.937C389.486 344.265 388.969 344.88 388.969 345.796C388.969 346.708 389.42 347.255 390.338 347.451C391.251 347.642 392.751 347.746 394.838 347.746C397.185 347.746 399.533 347.621 401.885 347.371C404.232 347.121 406.714 346.992 409.325 346.992C412.328 346.992 415.068 347.121 417.55 347.371C420.029 347.62 422.314 347.746 424.401 347.746C427.795 347.746 429.491 347.096 429.491 345.792C429.491 345.141 429.07 344.616 428.221 344.224C427.37 343.835 426.229 343.349 424.795 342.76C423.359 342.172 421.692 341.42 419.798 340.508C417.904 339.59 415.982 338.227 414.024 336.401L380.155 305.676C379.89 305.419 379.563 305.059 379.176 304.602C378.782 304.144 378.587 303.592 378.587 302.938C378.587 302.417 380.285 301.016 383.676 298.732C387.068 296.449 390.954 294.006 395.326 291.395C399.699 288.787 403.938 286.341 408.051 284.058C412.162 281.775 414.936 280.309 416.375 279.653C417.023 279.394 417.904 279.099 419.017 278.774C420.125 278.451 421.202 278.091 422.252 277.7C423.292 277.31 424.168 276.884 424.89 276.426C425.607 275.969 425.964 275.479 425.964 274.958C425.964 273.916 425.577 273.26 424.794 273C424.009 272.741 423.162 272.607 422.252 272.607C420.289 272.607 417.971 272.673 415.297 272.798C412.62 272.922 410.036 272.989 407.562 272.989C404.946 272.989 402.304 272.922 399.632 272.798C396.957 272.673 394.575 272.607 392.486 272.607C391.832 272.607 391.215 272.806 390.627 273.195C390.04 273.589 389.748 274.044 389.748 274.568C389.748 275.354 390.134 275.974 390.922 276.434C391.702 276.889 392.553 277.344 393.468 277.799C394.383 278.257 395.227 278.846 396.015 279.565C396.793 280.285 397.185 281.299 397.185 282.601C397.185 283.257 396.433 284.201 394.933 285.442C393.433 286.68 391.576 288.088 389.354 289.652C387.14 291.223 384.69 292.853 382.013 294.553C379.336 296.252 376.826 297.784 374.477 299.157C372.128 300.53 370.071 301.638 368.309 302.487C366.548 303.336 365.535 303.76 365.274 303.76C364.102 303.76 363.515 302.715 363.515 300.625V220.063C363.515 218.627 363.288 217.681 362.823 217.226C362.368 216.766 361.873 216.534 361.347 216.534L359.573 216.535ZM161.675 225.979C155.399 225.979 149.812 226.164 144.913 226.541C140.009 226.921 135.142 227.111 130.307 227.111H112.486C111.83 227.111 111.081 227.141 110.23 227.207C109.381 227.27 108.57 227.405 107.787 227.6C107.003 227.799 106.318 228.128 105.733 228.583C105.141 229.041 104.85 229.658 104.85 230.441C104.85 231.486 105.27 232.111 106.119 232.307C106.969 232.501 108.504 232.728 110.723 232.988C112.025 233.12 113.426 233.22 114.929 233.286C116.431 233.35 117.868 233.483 119.238 233.676C120.606 233.872 121.747 234.199 122.66 234.659C123.575 235.114 124.032 235.797 124.032 236.712V328.816C124.032 331.689 123.772 333.907 123.249 335.473C122.727 337.044 122.045 338.246 121.195 339.098C120.346 339.947 119.401 340.539 118.358 340.864C117.313 341.192 116.268 341.423 115.223 341.552C112.221 342.074 110.265 342.727 109.35 343.51C108.435 344.291 107.981 345.078 107.981 345.861C107.981 346.87 108.435 347.434 109.35 347.559C110.265 347.684 110.979 347.747 111.503 347.747C113.852 347.747 116.657 347.622 119.919 347.372C123.183 347.12 126.254 346.993 129.129 346.993H175.398C183.762 346.993 191.636 345.588 199.024 342.784C206.411 339.977 212.848 336.161 218.336 331.329C223.823 326.498 228.168 320.82 231.371 314.291C234.574 307.767 236.177 300.846 236.177 293.537C236.177 281.786 234.217 271.635 230.297 263.084C226.374 254.536 221.046 247.519 214.314 242.035C207.583 236.554 199.708 232.506 190.693 229.895C181.671 227.284 172.002 225.979 161.675 225.979ZM157.339 231.829C161.399 231.829 165.723 232.319 170.309 233.297C174.892 234.276 179.413 235.813 183.867 237.901C188.32 239.991 192.611 242.599 196.737 245.731C200.86 248.864 204.501 252.589 207.645 256.896C210.792 261.205 213.276 266.101 215.109 271.582C216.944 277.064 217.862 283.136 217.862 289.79C217.862 296.451 216.944 302.36 215.109 307.516C213.276 312.669 210.856 317.176 207.844 321.028C204.829 324.88 201.424 328.172 197.624 330.916C193.823 333.659 190.026 335.844 186.226 337.477C182.428 339.109 178.758 340.314 175.222 341.097C171.683 341.885 168.606 342.275 165.988 342.275C162.841 342.275 159.767 341.885 156.754 341.097C153.737 340.314 151.053 339.109 148.694 337.477C146.335 335.844 144.436 333.791 142.997 331.309C141.559 328.83 140.837 325.889 140.837 322.492V238.096C140.837 237.445 140.933 236.726 141.132 235.943C141.327 235.163 141.948 234.476 142.997 233.886C144.045 233.299 145.684 232.808 147.911 232.414C150.135 232.025 153.277 231.829 157.339 231.829ZM463.832 269.399C457.705 269.399 452.421 270.708 447.992 273.322C443.56 275.935 439.876 279.236 436.942 283.225C434.008 287.213 431.83 291.657 430.396 296.561C428.962 301.462 428.243 306.197 428.243 310.773C428.243 323.064 431.191 332.767 437.091 339.893C442.988 347.016 451.357 350.58 462.193 350.58C467.282 350.58 471.622 349.825 475.212 348.32C478.799 346.815 481.765 345.107 484.117 343.208C486.466 341.309 488.163 339.538 489.206 337.908C490.256 336.276 490.777 335.267 490.777 334.873C490.777 333.83 490.183 333.309 489.011 333.309C488.228 333.309 487.507 333.734 486.858 334.586C486.202 335.433 485.289 336.342 484.117 337.324C482.942 338.305 481.312 339.18 479.223 339.966C477.13 340.751 474.199 341.14 470.413 341.14C464.408 341.14 459.542 340.196 455.823 338.295C452.103 336.398 449.236 333.941 447.212 330.931C445.188 327.926 443.819 324.458 443.102 320.531C442.382 316.608 442.027 312.556 442.027 308.364V304.242C442.027 303.068 442.15 302.149 442.402 301.493H490.036C491.732 301.493 492.804 301.201 493.26 300.614C493.712 300.027 493.944 298.821 493.944 296.993C493.944 294.908 493.421 292.296 492.376 289.166C491.334 286.034 489.642 283 487.295 280.066C484.948 277.13 481.85 274.618 478.004 272.53C474.157 270.44 469.436 269.399 463.832 269.399ZM246.233 272.607C244.797 272.607 243.624 272.676 242.712 272.805C241.797 272.938 241.339 273.455 241.339 274.373C241.339 275.026 241.727 275.518 242.513 275.841C243.296 276.169 244.865 276.656 247.212 277.31C248.387 277.571 249.63 277.899 250.932 278.288C252.237 278.68 252.89 279.597 252.89 281.034C252.89 283.909 252.858 287.14 252.794 290.73C252.731 294.32 252.702 298.011 252.702 301.799C252.702 305.46 252.668 309.113 252.607 312.769C252.543 316.43 252.515 319.757 252.515 322.76C252.515 326.942 252.87 330.733 253.589 334.127C254.309 337.521 255.545 340.458 257.31 342.944C259.074 345.425 261.489 347.311 264.555 348.618C267.624 349.922 271.446 350.58 276.014 350.58C279.934 350.58 283.426 349.967 286.494 348.748C289.563 347.529 292.238 346.172 294.524 344.672C296.807 343.172 298.67 341.832 300.106 340.658C301.542 339.486 302.651 338.895 303.436 338.895C304.352 338.895 304.805 339.679 304.805 341.243V345.747C304.805 346.662 304.867 347.409 304.996 347.999C305.121 348.589 305.564 348.878 306.323 348.878C307.245 348.878 309.683 348.494 313.637 347.723C317.592 346.95 323.025 346.047 329.945 345.017C331.379 344.755 332.393 344.502 332.981 344.24C333.563 343.986 333.864 343.469 333.864 342.696C333.864 341.665 333.108 341.087 331.608 340.96C330.105 340.828 327.464 340.761 323.678 340.761C322.765 340.761 321.685 340.507 320.447 339.981C319.204 339.46 318.589 338.154 318.589 336.062C318.589 326.139 318.713 316.252 318.968 306.396C319.217 296.537 319.346 286.645 319.346 276.721C319.346 274.895 318.822 273.755 317.767 273.295C316.722 272.837 315.87 272.607 315.217 272.607C313.247 272.607 311.316 272.673 309.412 272.798C307.514 272.923 305.58 272.985 303.62 272.985C301.922 272.985 300.256 272.923 298.626 272.798C296.992 272.673 295.33 272.607 293.637 272.607C292.592 272.607 291.611 272.709 290.696 272.905C289.783 273.101 289.327 273.521 289.327 274.174C289.327 274.958 290.077 275.608 291.579 276.132C293.079 276.653 294.222 277.048 295.005 277.31C297.355 277.963 299.183 278.453 300.484 278.778C301.789 279.106 302.801 279.398 303.52 279.657C304.237 279.917 304.697 280.244 304.893 280.64C305.086 281.029 305.187 281.488 305.187 282.009C305.187 289.056 305.121 296.039 304.996 302.954C304.867 309.874 304.805 316.856 304.805 323.911C304.805 325.866 304.576 327.895 304.121 329.983C303.668 332.072 302.656 333.929 301.093 335.561C299.531 337.191 297.214 338.527 294.153 339.572C291.092 340.619 286.825 341.143 281.356 341.143C276.535 341.143 272.755 340.062 270.019 337.909C267.281 335.755 265.916 332.657 265.916 328.61C265.916 319.864 265.978 311.152 266.107 302.473C266.23 293.791 266.291 285.078 266.291 276.329C266.291 274.897 266.129 273.92 265.801 273.396C265.471 272.872 264.649 272.609 263.335 272.609C261.892 272.609 260.446 272.675 258.999 272.8C257.556 272.924 256.11 272.987 254.663 272.987C253.22 272.987 251.81 272.924 250.442 272.8C249.074 272.675 247.667 272.607 246.233 272.607ZM466.617 274.117C470.794 274.117 474.251 275.26 476.994 277.543C479.732 279.826 481.104 282.66 481.104 286.054C481.104 287.882 480.879 289.38 480.416 290.554C479.961 291.729 479.017 292.704 477.583 293.487C476.147 294.27 474.12 294.828 471.511 295.154C468.9 295.482 465.441 295.643 461.134 295.643C456.957 295.643 453.725 295.607 451.442 295.544C449.158 295.48 447.461 295.382 446.352 295.249C445.244 295.122 444.587 294.956 444.391 294.76C444.2 294.567 444.1 294.272 444.1 293.881C444.1 292.317 444.623 290.426 445.668 288.206C446.711 285.989 448.176 283.836 450.073 281.748C451.967 279.663 454.316 277.871 457.123 276.369C459.927 274.871 463.093 274.117 466.617 274.117ZM366.268 362.355C362.343 362.355 359.241 364.608 359.241 368.293C359.241 372.101 361.398 373.225 365.905 374.564C369.466 375.63 370.715 376.452 370.715 378.097C370.715 380.169 369.286 381.201 366.303 381.201C364.294 381.201 362.19 380.228 360.759 378.674L358.48 380.896C360.271 382.998 362.953 384.337 366.058 384.337C371.508 384.337 373.938 381.717 373.938 377.883C373.938 374.077 371.324 372.736 367.117 371.459C363.437 370.365 362.464 369.633 362.464 368.14C362.464 366.711 363.529 365.491 366.027 365.491C368.127 365.491 369.648 366.162 370.986 367.532L373.242 365.246C371.356 363.42 369.158 362.355 366.268 362.355ZM118.627 362.688V375.053C118.627 380.926 121.367 384.336 126.633 384.336C131.931 384.336 134.824 381.082 134.824 375.114V362.688H131.623V375.175C131.623 379.071 130.042 381.136 126.695 381.136C123.496 381.136 121.824 378.978 121.824 374.957V362.687L118.627 362.688ZM204.722 362.688V384H207.918V362.688H204.722ZM400.175 362.688V384H403.371V362.688H400.175ZM468.638 362.688L476.281 375.569V384H479.482V375.569L487.117 362.688H483.435L480.086 368.595C479.327 369.968 478.259 372.009 477.895 372.797C477.528 372.009 476.436 369.878 475.704 368.568L472.385 362.688L468.638 362.688ZM161.534 362.693V384.001H164.634V372.951C164.634 371.764 164.608 368.809 164.608 368.019C164.941 368.567 165.674 369.848 166.191 370.638L174.683 384.001H177.73V362.693H174.622V373.681C174.622 374.871 174.656 377.913 174.656 378.705C174.35 378.157 173.438 376.576 172.89 375.693L164.791 362.693H161.534ZM233.594 362.693L240.989 384.001H244.369L251.676 362.693H248.269L243.883 376.239C243.487 377.487 242.875 379.404 242.694 380.17C242.511 379.404 241.903 377.517 241.509 376.269L237.062 362.692L233.594 362.693ZM277.186 362.693V384.001H291.375V380.896H280.386V374.171H286.504V371.066H280.386V365.797H290.916V362.692L277.186 362.693ZM317.222 362.693V384.001H320.358V375.57H325.168L329.396 384.001H333.086L328.731 375.295C331.623 374.563 333.419 372.464 333.419 369.055C333.419 364.667 330.285 362.693 326.571 362.693H317.222ZM429.045 362.693V365.828H435.254V384.001H438.451V365.828H444.66V362.693H429.045ZM320.357 365.705H326.57C328.731 365.705 330.191 366.925 330.191 369.146C330.191 371.461 328.702 372.557 326.57 372.557H320.357V365.705Z" fill="#012169"></path> </svg> 