<?xml version="1.0" encoding="UTF-8"?> <svg xmlns="http://www.w3.org/2000/svg" width="44" height="44" viewBox="0 0 44 44" fill="none"><g clip-path="url(#clip0_2502_1616)"><rect width="44" height="44" rx="8" fill="white"></rect><path d="M15 32H29C30.103 32 31 31.103 31 30V19C31 18.7348 30.8946 18.4804 30.7071 18.2929C30.5196 18.1054 30.2652 18 30 18H27V17C27 14.243 24.757 12 22 12C19.243 12 17 14.243 17 17V18H14C13.7348 18 13.4804 18.1054 13.2929 18.2929C13.1054 18.4804 13 18.7348 13 19V30C13 31.103 13.897 32 15 32ZM19 17C19 15.346 20.346 14 22 14C23.654 14 25 15.346 25 17V18H19V17ZM15 20H17V22H19V20H25V22H27V20H29L29.002 30H15V20Z" fill="#182849"></path></g><defs><clipPath id="clip0_2502_1616"><rect width="44" height="44" fill="white"></rect></clipPath></defs></svg> 