<?xml version="1.0" encoding="UTF-8"?> <svg xmlns="http://www.w3.org/2000/svg" width="44" height="44" viewBox="0 0 44 44" fill="none"><g clip-path="url(#clip0_2502_1615)"><rect width="44" height="44" rx="8" fill="white"></rect><path d="M29.875 13H14.125C12.953 13 12 13.897 12 15V29C12 30.103 12.953 31 14.125 31H29.875C31.047 31 32 30.103 32 29V15C32 13.897 31.047 13 29.875 13ZM29.875 29H14.125C14.068 29 14.029 28.984 14.012 28.984C14.005 28.984 14.001 28.986 14 28.992L13.988 15.046C13.995 15.036 14.04 15 14.125 15H29.875C29.954 15.001 29.997 15.028 30 15.008L30.012 28.954C30.005 28.964 29.96 29 29.875 29Z" fill="#182849"></path><path d="M16 17H22V23H16V17ZM23 25H16V27H28V25H24H23ZM24 21H28V23H24V21ZM24 17H28V19H24V17Z" fill="#182849"></path></g><defs><clipPath id="clip0_2502_1615"><rect width="44" height="44" fill="white"></rect></clipPath></defs></svg> 