<?xml version="1.0" encoding="UTF-8"?> <svg xmlns="http://www.w3.org/2000/svg" width="25" height="25" viewBox="0 0 25 25" fill="none"><path d="M18.0934 0C22.8696 0.866965 21.1866 6.31849 21.4906 9.8274C21.4076 11.2046 19.6369 11.253 19.5276 9.82984C19.3732 7.82321 19.6498 5.6167 19.5252 3.58906C19.3228 2.61067 18.6132 2.02325 17.6408 1.94896C13.5556 2.00712 9.44494 1.84047 5.37363 2.034C4.61556 2.23974 4.07949 2.89461 3.97401 3.68045L3.9975 21.4635C4.62083 23.8811 7.51261 22.7366 9.25266 23.0337C10.2735 23.2077 10.2778 24.7623 9.25266 24.9617C8.06642 24.9245 6.80249 25.0506 5.62488 24.9758C3.85126 24.8629 2.34376 23.4545 2.07524 21.6678C1.9688 15.5697 1.98366 9.44572 2.06757 3.34666C2.27999 1.68213 3.75728 0.164205 5.41199 0H18.0934Z" fill="white"></path><path d="M20.7627 13.2806C23.4411 12.9693 25.0095 16.0833 23.2632 18.1701C21.7001 20.0375 19.587 21.7044 17.975 23.5596C16.6487 24.2863 15.0007 24.4739 13.5589 24.9602C12.9318 25.0672 12.4086 24.5761 12.411 23.9368L13.7176 19.6108L19.2413 13.9736C19.6585 13.6193 20.219 13.3436 20.7627 13.2806ZM21.0015 15.2301C20.7124 15.2662 20.4338 15.4593 20.2981 15.7232L21.6104 17.0705C22.4505 16.4811 22.0588 15.0976 21.001 15.2301H21.0015ZM14.8396 22.5338L16.7782 21.9981L20.2022 18.5117L20.2262 18.3886L18.9546 17.1414H18.8596L15.3915 20.6825L14.8396 22.5338Z" fill="white"></path><path d="M6.6433 5.86448L16.7772 5.85275C17.9213 6.04188 17.9208 7.61503 16.7772 7.80415H6.72769C5.61816 7.61112 5.55487 6.15477 6.6433 5.86448Z" fill="white"></path><path d="M6.6433 9.7668L16.7772 9.75507C17.9213 9.9442 17.9208 11.5173 16.7772 11.7065H6.72769C5.61816 11.5134 5.55487 10.0571 6.6433 9.7668Z" fill="white"></path><path d="M6.6433 13.6686L12.9433 13.6628C14.0413 13.8871 14.0413 15.3786 12.9433 15.6029L6.68406 15.6044C5.60762 15.3649 5.57693 13.9535 6.6433 13.6691V13.6686Z" fill="white"></path></svg> 