<?xml version="1.0" encoding="UTF-8"?> <svg xmlns="http://www.w3.org/2000/svg" width="1170" height="620" viewBox="0 0 1170 620" fill="none"> <g clip-path="url(#clip0_346_329)"> <rect width="1170" height="620" fill="white"></rect> <g clip-path="url(#clip1_346_329)"> <path d="M-294 784.875H1464V-204H-294V784.875Z" fill="#182849"></path> <mask id="mask0_346_329" style="mask-type:luminance" maskUnits="userSpaceOnUse" x="-294" y="-204" width="1758" height="989"> <path d="M-294 -204H1464V784.875H-294V-204Z" fill="white"></path> </mask> <g mask="url(#mask0_346_329)"> <path d="M574.346 315.841C573.035 317.61 571.201 319.076 568.844 320.238C566.487 321.4 563.424 321.981 559.658 321.981C556.581 321.981 553.829 321.58 551.406 320.778C548.982 319.976 546.927 318.813 545.242 317.29C543.554 315.767 542.269 313.918 541.386 311.74C540.501 309.562 540.059 307.082 540.059 304.297V303.364C540.059 300.451 540.501 297.88 541.386 295.652C542.269 293.426 543.554 291.551 545.242 290.028C546.927 288.506 548.982 287.359 551.406 286.59C553.829 285.82 556.581 285.436 559.658 285.436C564.865 285.436 569.097 286.5 572.356 288.628C575.614 290.758 577.603 293.966 578.324 298.256H573.118C572.79 296.979 572.241 295.808 571.471 294.744C570.702 293.68 569.735 292.779 568.573 292.042C567.411 291.306 566.085 290.733 564.595 290.323C563.104 289.914 561.459 289.709 559.658 289.709C557.267 289.709 555.164 290.052 553.347 290.741C551.528 291.427 550.014 292.394 548.802 293.639C547.591 294.884 546.682 296.365 546.077 298.084C545.47 299.804 545.167 301.711 545.167 303.807C545.167 305.805 545.47 307.655 546.077 309.357C546.682 311.06 547.591 312.525 548.802 313.753C550.014 314.981 551.528 315.948 553.347 316.651C555.164 317.356 557.267 317.708 559.658 317.708C561.95 317.708 563.949 317.446 565.651 316.922C567.354 316.398 568.802 315.678 569.998 314.76C571.193 313.845 572.143 312.788 572.847 311.592C573.552 310.397 574.018 309.128 574.247 307.785H555.631V303.364H579.159V320.852H574.346V315.841Z" fill="white"></path> <path d="M614.771 316.578V320.9H585.594V286.516H590.408V316.578H614.771Z" fill="white"></path> <path d="M637.759 289.758C635.499 289.758 633.443 290.053 631.595 290.642C629.743 291.232 628.172 292.108 626.878 293.27C625.585 294.433 624.587 295.891 623.882 297.642C623.177 299.394 622.826 301.449 622.826 303.807C622.826 306.067 623.177 308.056 623.882 309.775C624.587 311.494 625.585 312.935 626.878 314.097C628.172 315.26 629.743 316.144 631.595 316.75C633.443 317.357 635.499 317.658 637.759 317.658C640.018 317.658 642.073 317.364 643.923 316.775C645.773 316.186 647.344 315.309 648.638 314.146C649.932 312.985 650.931 311.542 651.635 309.824C652.339 308.105 652.692 306.099 652.692 303.807C652.692 301.547 652.339 299.55 651.635 297.814C650.931 296.079 649.932 294.613 648.638 293.418C647.344 292.223 645.773 291.314 643.923 290.692C642.073 290.07 640.018 289.758 637.759 289.758ZM617.718 303.365C617.816 300.254 618.364 297.568 619.363 295.308C620.362 293.05 621.737 291.192 623.49 289.734C625.24 288.277 627.321 287.196 629.728 286.492C632.134 285.788 634.811 285.436 637.759 285.436C640.705 285.436 643.383 285.804 645.791 286.541C648.196 287.277 650.276 288.383 652.028 289.857C653.779 291.33 655.155 293.189 656.154 295.432C657.153 297.675 657.701 300.319 657.8 303.365V304.249C657.701 307.295 657.153 309.939 656.154 312.182C655.155 314.426 653.779 316.268 652.028 317.708C650.276 319.149 648.196 320.222 645.791 320.926C643.383 321.629 640.705 321.981 637.759 321.981C634.811 321.981 632.134 321.629 629.728 320.926C627.321 320.222 625.24 319.14 623.49 317.684C621.737 316.227 620.362 314.385 619.363 312.157C618.364 309.931 617.816 307.295 617.718 304.249V303.365Z" fill="white"></path> <path d="M667.525 316.578H685.552C687.222 316.578 688.581 316.439 689.63 316.16C690.677 315.883 691.487 315.473 692.061 314.932C692.634 314.392 693.026 313.746 693.24 312.993C693.452 312.239 693.558 311.404 693.558 310.487C693.558 309.537 693.461 308.702 693.265 307.982C693.068 307.262 692.675 306.64 692.086 306.116C691.496 305.592 690.669 305.198 689.605 304.936C688.54 304.675 687.141 304.543 685.405 304.543H667.525V316.578ZM667.525 300.221H683.735C685.143 300.221 686.354 300.156 687.37 300.024C688.385 299.894 689.212 299.649 689.85 299.288C690.489 298.928 690.964 298.427 691.275 297.789C691.586 297.151 691.741 296.341 691.741 295.358C691.741 294.376 691.57 293.582 691.225 292.976C690.882 292.37 690.374 291.912 689.703 291.6C689.032 291.289 688.188 291.084 687.173 290.987C686.157 290.888 684.979 290.84 683.637 290.84H667.525V300.221ZM698.766 310.881C698.766 314.449 697.643 317.012 695.401 318.567C693.157 320.123 689.875 320.9 685.552 320.9H662.712V286.516H684.177C686.109 286.516 687.853 286.639 689.408 286.885C690.964 287.129 692.299 287.572 693.412 288.211C694.524 288.85 695.384 289.701 695.99 290.765C696.597 291.829 696.9 293.196 696.9 294.866C696.9 296.635 696.522 298.084 695.77 299.214C695.016 300.344 694.05 301.253 692.872 301.94C694.803 302.628 696.268 303.652 697.269 305.01C698.267 306.369 698.766 308.326 698.766 310.881Z" fill="white"></path> <path d="M713.846 306.164H730.596L722.246 289.168L713.846 306.164ZM711.685 310.487L706.576 320.9H701.222L718.169 286.517H726.323L743.269 320.9H737.865L732.757 310.487H711.685Z" fill="white"></path> <path d="M776.376 316.578V320.9H747.198V286.516H752.013V316.578H776.376Z" fill="white"></path> <path d="M574.346 374.786C573.035 376.555 571.201 378.02 568.844 379.182C566.487 380.344 563.424 380.926 559.658 380.926C556.581 380.926 553.829 380.525 551.406 379.723C548.982 378.921 546.927 377.757 545.242 376.235C543.554 374.713 542.269 372.863 541.386 370.685C540.501 368.506 540.059 366.027 540.059 363.243V362.31C540.059 359.395 540.501 356.824 541.386 354.596C542.269 352.37 543.554 350.495 545.242 348.973C546.927 347.45 548.982 346.303 551.406 345.534C553.829 344.764 556.581 344.381 559.658 344.381C564.865 344.381 569.097 345.445 572.356 347.573C575.614 349.702 577.603 352.912 578.324 357.201H573.118C572.79 355.923 572.241 354.752 571.471 353.688C570.702 352.624 569.735 351.724 568.573 350.987C567.411 350.251 566.085 349.678 564.595 349.268C563.104 348.859 561.459 348.653 559.658 348.653C557.267 348.653 555.164 348.997 553.347 349.685C551.528 350.372 550.014 351.339 548.802 352.583C547.591 353.829 546.682 355.31 546.077 357.028C545.47 358.749 545.167 360.656 545.167 362.752C545.167 364.749 545.47 366.599 546.077 368.301C546.682 370.004 547.591 371.469 548.802 372.698C550.014 373.925 551.528 374.892 553.347 375.596C555.164 376.301 557.267 376.652 559.658 376.652C561.95 376.652 563.949 376.39 565.651 375.867C567.354 375.343 568.802 374.623 569.998 373.704C571.193 372.79 572.143 371.732 572.847 370.537C573.552 369.342 574.018 368.073 574.247 366.729H555.631V362.31H579.159V379.797H574.346V374.786Z" fill="white"></path> <path d="M618.405 375.523V379.844H585.593V345.46H616.785V349.785H590.407V359.067H611.824V363.39H590.407V375.523H618.405Z" fill="white"></path> <path d="M628.623 348.653V379.845H623.809V345.46H632.208L654.509 376.652V345.46H659.273V379.845H650.825L628.623 348.653Z" fill="white"></path> <path d="M698.964 375.523V379.844H666.151V345.46H697.342V349.785H670.965V359.067H692.381V363.39H670.965V375.523H698.964Z" fill="white"></path> <path d="M709.181 362.948H725.685C728.535 362.948 730.654 362.391 732.047 361.278C733.438 360.164 734.134 358.543 734.134 356.415C734.134 354.319 733.478 352.691 732.169 351.527C730.86 350.365 728.878 349.785 726.226 349.785H709.181V362.948ZM709.181 367.271V379.844H704.368V345.461H727.307C729.107 345.461 730.745 345.699 732.219 346.173C733.692 346.648 734.944 347.353 735.976 348.285C737.008 349.219 737.81 350.39 738.383 351.798C738.955 353.207 739.243 354.843 739.243 356.709C739.145 359.46 738.482 361.638 737.254 363.242C736.025 364.848 734.331 365.977 732.169 366.632L739.783 379.797H734.134L727.012 367.271H709.181Z" fill="white"></path> <path d="M755.353 365.108H772.104L763.753 348.114L755.353 365.108ZM753.193 369.432L748.083 379.844H742.73L759.676 345.46H767.831L784.776 379.844H779.373L774.265 369.432H753.193Z" fill="white"></path> <path d="M806.34 349.784V379.845H801.527V349.784H786.251V345.461H821.665V349.784H806.34Z" fill="white"></path> <path d="M857.769 375.523V379.844H826.086V375.523H839.397V349.785H826.086V345.46H857.769V349.785H844.211V375.523H857.769Z" fill="white"></path> <path d="M882.231 348.703C879.971 348.703 877.915 348.998 876.066 349.587C874.215 350.177 872.643 351.052 871.35 352.214C870.056 353.378 869.058 354.835 868.353 356.586C867.649 358.339 867.298 360.394 867.298 362.752C867.298 365.011 867.649 367.001 868.353 368.719C869.058 370.438 870.056 371.879 871.35 373.041C872.643 374.205 874.215 375.089 876.066 375.695C877.915 376.301 879.971 376.603 882.231 376.603C884.49 376.603 886.545 376.309 888.395 375.72C890.245 375.131 891.816 374.254 893.11 373.091C894.404 371.93 895.402 370.487 896.107 368.769C896.811 367.05 897.163 365.043 897.163 362.752C897.163 360.492 896.811 358.496 896.107 356.76C895.402 355.023 894.404 353.558 893.11 352.362C891.816 351.167 890.245 350.259 888.395 349.637C886.545 349.015 884.49 348.703 882.231 348.703ZM862.189 362.31C862.287 359.198 862.836 356.512 863.835 354.253C864.834 351.994 866.209 350.136 867.961 348.679C869.712 347.222 871.792 346.141 874.199 345.437C876.606 344.732 879.283 344.381 882.231 344.381C885.177 344.381 887.855 344.749 890.261 345.486C892.668 346.222 894.748 347.327 896.5 348.801C898.251 350.274 899.626 352.134 900.625 354.377C901.624 356.62 902.173 359.263 902.272 362.31V363.195C902.173 366.24 901.624 368.884 900.625 371.127C899.626 373.371 898.251 375.213 896.5 376.652C894.748 378.094 892.668 379.167 890.261 379.871C887.855 380.573 885.177 380.927 882.231 380.927C879.283 380.927 876.606 380.573 874.199 379.871C871.792 379.167 869.712 378.085 867.961 376.629C866.209 375.172 864.834 373.33 863.835 371.102C862.836 368.875 862.287 366.24 862.189 363.195V362.31Z" fill="white"></path> <path d="M911.997 348.653V379.845H907.184V345.46H915.583L937.884 376.652V345.46H942.648V379.845H934.199L911.997 348.653Z" fill="white"></path> <path d="M259.982 374.058V206.819C238.242 228.458 227.352 256.252 227.352 290.239C227.352 324.222 238.235 352.157 259.982 374.058Z" fill="#6AD5C3"></path> <path d="M458.14 259.583H498.335C495.371 245.984 489.549 234.571 480.863 225.346C472.178 216.124 462.313 209.56 451.273 205.652C447.414 204.288 443.432 203.177 439.344 202.289V240.017C440.202 240.455 441.051 240.91 441.88 241.404C449.354 245.847 454.772 251.907 458.14 259.583Z" fill="#52BEDA"></path> <path d="M353.903 285.586V312.855H399.958C397.529 323.456 392.372 331.521 384.487 337.025C384.068 337.324 383.637 337.611 383.195 337.899C374.58 343.427 364.816 346.179 353.903 346.179C347.992 346.179 342.452 345.424 337.307 343.917C328.872 341.441 321.476 336.953 315.123 330.432C304.892 319.926 299.771 306.597 299.771 290.431C299.771 274.147 304.857 260.817 315.028 250.443C321.322 244.005 328.752 239.578 337.319 237.137C342.56 235.63 348.22 234.888 354.31 234.888C364.133 234.888 372.797 237.113 380.263 241.552C381.615 242.354 382.895 243.204 384.116 244.113C389.632 248.23 393.772 253.446 396.524 259.728H436.716C434.789 250.886 431.654 242.976 427.3 235.989C424.978 232.219 422.286 228.713 419.247 225.495C410.559 216.27 400.7 209.712 389.656 205.8C387.861 205.165 386.031 204.579 384.187 204.053C374.687 201.313 364.529 199.949 353.7 199.949C325.832 199.949 303.242 208.361 285.939 225.197C268.637 242.031 259.987 263.773 259.987 290.431C259.987 316.828 268.47 338.509 285.437 355.475C302.404 372.443 323.678 380.926 349.26 380.926C360.52 380.926 370.571 379.263 379.413 375.925C382.513 374.764 385.456 373.4 388.244 371.833C399.013 365.778 407.497 357.762 413.694 347.794L414.102 380.878C423.374 380.603 431.798 379.155 439.348 376.547V285.586H353.903Z" fill="white"></path> <path d="M500.958 285.436V380.776H475.712L475.304 347.644C469.118 357.611 460.635 365.628 449.854 371.683C446.576 373.537 443.046 375.069 439.349 376.349V340.776C441.215 339.867 443.046 338.885 444.805 337.749C453.42 332.232 459.019 323.881 461.568 312.705H439.349V285.436H500.958Z" fill="#52BEDA"></path> </g> </g> </g> <defs> <clipPath id="clip0_346_329"> <rect width="1170" height="620" fill="white"></rect> </clipPath> <clipPath id="clip1_346_329"> <rect width="1758" height="988.875" fill="white" transform="translate(-294 -204)"></rect> </clipPath> </defs> </svg> 