<?xml version="1.0" encoding="UTF-8"?> <svg xmlns="http://www.w3.org/2000/svg" viewBox="0 0 100.00 100.00" data-guides="{&quot;vertical&quot;:[],&quot;horizontal&quot;:[]}"><defs></defs><path fill="#f8f8f8" width="100" height="100" id="tSvgc74c2ca45e" title="Rectangle 2" fill-opacity="1" stroke="none" stroke-opacity="1" d="M0.0001 -0.0001H100.0001V99.9999H0.0001Z" style="transform-origin: 50px 50px;"></path><path fill="#12284c" stroke="none" fill-opacity="1" stroke-width="1" stroke-opacity="1" id="tSvg175630083fc" title="Path 3" d="M76.0925 39.2245C76.0631 37.0155 75.6496 34.8285 74.8705 32.7612C74.1948 31.0175 73.1629 29.4339 71.8405 28.1115C70.5182 26.7892 68.9346 25.7573 67.1909 25.0816C65.1502 24.3156 62.9943 23.9014 60.815 23.8566C58.0092 23.7312 57.1196 23.6962 49.9971 23.6962C42.8746 23.6962 41.9617 23.6962 39.1763 23.8566C36.998 23.9017 34.8431 24.3159 32.8034 25.0816C31.0594 25.7568 29.4755 26.7886 28.1531 28.111C26.8308 29.4333 25.799 31.0172 25.1238 32.7612C24.3562 34.8003 23.9429 36.9557 23.9017 39.1341C23.7763 41.9429 23.7384 42.8324 23.7384 49.9549C23.7384 57.0774 23.7384 57.9874 23.9017 60.7758C23.9455 62.9574 24.3567 65.1099 25.1238 67.1545C25.8001 68.898 26.8327 70.4812 28.1555 71.803C29.4783 73.1248 31.0623 74.1562 32.8063 74.8312C34.8405 75.628 36.9957 76.0719 39.1792 76.1437C41.988 76.2691 42.8775 76.307 50 76.307C57.1225 76.307 58.0355 76.307 60.8209 76.1437C63.0001 76.1008 65.1561 75.6875 67.1967 74.9216C68.94 74.2452 70.5232 73.2129 71.8454 71.8907C73.1676 70.5685 74.1999 68.9853 74.8763 67.242C75.6434 65.2004 76.0546 63.0479 76.0984 60.8633C76.2238 58.0574 76.2617 57.1679 76.2617 50.0424C76.2559 42.9199 76.2559 42.0158 76.0925 39.2245ZM49.9796 63.4241C42.5305 63.4241 36.4959 57.3895 36.4959 49.9404C36.4959 42.4912 42.5305 36.4566 49.9796 36.4566C53.5557 36.4566 56.9854 37.8772 59.5141 40.4059C62.0428 42.9346 63.4634 46.3642 63.4634 49.9404C63.4634 53.5165 62.0428 56.9461 59.5141 59.4748C56.9854 62.0035 53.5557 63.4241 49.9796 63.4241ZM64 39.102C63.587 39.1024 63.178 39.0213 62.7964 38.8635C62.4147 38.7056 62.068 38.474 61.7759 38.182C61.4839 37.8899 61.2523 37.5432 61.0944 37.1615C60.9366 36.7799 60.8555 36.3709 60.8559 35.9579C60.8559 35.5451 60.9372 35.1365 61.0951 34.7552C61.253 34.3739 61.4845 34.0275 61.7764 33.7356C62.0682 33.4438 62.4146 33.2123 62.7959 33.0544C63.1772 32.8964 63.5859 32.8151 63.9986 32.8151C64.4113 32.8151 64.82 32.8964 65.2012 33.0544C65.5825 33.2123 65.929 33.4438 66.2208 33.7356C66.5126 34.0275 66.7441 34.3739 66.9021 34.7552C67.06 35.1365 67.1413 35.5451 67.1413 35.9579C67.1413 37.6962 65.7355 39.102 64 39.102Z"></path><path fill="#12284c" stroke="none" fill-opacity="1" stroke-width="1" stroke-opacity="1" id="tSvg1988a409f92" title="Path 4" d="M49.9796 58.6961C54.8169 58.6961 58.7383 54.7747 58.7383 49.9374C58.7383 45.1 54.8169 41.1786 49.9796 41.1786C45.1422 41.1786 41.2208 45.1 41.2208 49.9374C41.2208 54.7747 45.1422 58.6961 49.9796 58.6961Z"></path></svg> 