<?xml version="1.0" encoding="UTF-8"?> <svg xmlns="http://www.w3.org/2000/svg" viewBox="0 0 38.99 39.99" data-guides="{&quot;vertical&quot;:[],&quot;horizontal&quot;:[]}"><defs></defs><path fill="#ffffff" stroke="none" fill-opacity="1" stroke-width="1" stroke-opacity="1" id="tSvg3e7100e688" title="Path 2" d="M19.9186 38.9896C30.4108 38.9896 38.9118 30.4885 38.9118 19.9964C38.9118 9.5042 30.4108 1.0032 19.9186 1.0032C9.4265 1.0032 0.9255 9.5042 0.9255 19.9964C0.9255 30.4885 9.4265 38.9896 19.9186 38.9896ZM9.6164 19.5849C15.7206 17.2313 21.8248 14.8778 27.9291 12.5242C28.779 12.2171 29.5213 12.7315 29.2459 14.0167C29.2464 14.0162 29.247 14.0157 29.2475 14.0152C28.2081 18.9117 27.1688 23.8082 26.1294 28.7047C25.8984 29.7463 25.2795 29.9995 24.4137 29.5089C22.8309 28.3423 21.2482 27.1758 19.6654 26.0093C18.902 26.7448 18.1385 27.4802 17.3751 28.2157C17.1219 28.4689 16.9082 28.6826 16.4176 28.6826C16.5299 27.0719 16.6423 25.4612 16.7547 23.8505C19.6881 21.2004 22.6215 18.5503 25.5549 15.9002C25.9379 15.563 25.4694 15.3731 24.9645 15.7087C21.3394 17.991 17.7144 20.2734 14.0893 22.5557C12.5266 22.0682 10.9639 21.5807 9.4012 21.0932C8.3834 20.7704 8.3613 20.0755 9.6164 19.5849Z"></path></svg> 