<?xml version="1.0" encoding="UTF-8"?> <svg xmlns="http://www.w3.org/2000/svg" width="60" height="60" viewBox="0 0 60 60" fill="none"> <path fill-rule="evenodd" clip-rule="evenodd" d="M1.00998 7.50064V30.7809L1 30.8004C1.05996 30.8804 1.05778 30.9647 1.05556 31.0506C1.05445 31.0936 1.05332 31.1369 1.06 31.1803C1.0815 31.3389 1.09578 31.4983 1.11002 31.6572C1.14875 32.0894 1.1872 32.5184 1.37 32.9206C2.47 35.3006 4.31 36.7504 6.88 37.2604C7.8 37.4404 7.92999 37.5809 7.92999 38.5309C7.93399 39.2509 7.93159 39.9708 7.9292 40.6906C7.9256 41.7705 7.922 42.8503 7.94 43.9303C7.96 45.2703 8.99 46.1611 10.31 46.0211C10.88 45.9611 11.31 45.6311 11.73 45.2711C14.4902 42.9108 17.2504 40.5407 20.0106 38.1707L20.0115 38.1699L20.0156 38.1663L20.22 37.9909C20.73 37.5509 21.26 37.3708 21.91 37.3708H37.03C41.15 37.3608 44.48 34.0403 44.48 29.9303C44.4836 27.3664 44.4807 24.8025 44.4779 22.2386V22.2371C44.4729 17.6215 44.4679 13.0059 44.5 8.39029C44.52 5.12029 41.97 0.940639 37.14 1.00064C30.5283 1.07809 23.9167 1.06148 17.305 1.04487C14.5267 1.03789 11.7483 1.03091 8.97 1.03091C8.35 1.03091 7.74 1.04072 7.12 1.08072C4.12 1.26072 1.55999 3.60021 1.10999 6.56021C1.09063 6.68022 1.08926 6.80328 1.08788 6.92646C1.0857 7.12148 1.08352 7.31677 1.00998 7.50064ZM19.01 18.9018C19.02 21.1118 20.46 22.7018 22.43 22.6918V22.6811C24.58 22.6711 26.2 21.1217 26.2 19.0717C26.2 17.0417 24.57 15.4118 22.57 15.4418C20.64 15.4818 19.01 17.0618 19.01 18.9018ZM11.89 15.4512C13.94 15.5312 15.5 17.1912 15.4 19.2012C15.3 21.2112 13.65 22.7507 11.67 22.6807C9.69998 22.6107 8.12999 20.9109 8.21999 18.9209C8.30999 16.9309 9.94998 15.3712 11.89 15.4512ZM36.99 19.2015C37.09 17.1915 35.54 15.5315 33.49 15.4515V15.4417C31.54 15.3717 29.9 16.9115 29.81 18.9115C29.72 20.9015 31.28 22.611 33.25 22.681C35.24 22.751 36.89 21.2115 36.99 19.2015Z" fill="#52BEDA"></path> <path d="M31.32 40.681C33.79 40.681 36.27 40.681 38.74 40.681C43.82 40.681 47.78 36.7017 47.8 31.6117C47.8 28.8717 47.82 26.1417 47.79 23.4017C47.79 22.8217 47.97 22.651 48.53 22.681C49.84 22.751 51.15 22.6014 52.46 22.7914C55.89 23.2814 58.57 26.2611 58.59 29.7211C58.62 34.6511 58.62 39.5811 58.59 44.5111C58.57 48.1211 55.7 51.1211 51.99 51.4711C51.52 51.5111 51.39 51.6717 51.4 52.1117C51.42 53.5217 51.4 54.9214 51.4 56.3314C51.4 57.1514 51.18 57.8613 50.39 58.2513C49.57 58.6513 48.88 58.3912 48.22 57.8412C45.81 55.8212 43.38 53.8214 40.97 51.7914C40.69 51.5514 40.4 51.4818 40.05 51.4818C36.66 51.4818 33.27 51.4818 29.87 51.4818C25.77 51.4818 22.62 48.3115 22.6 44.2015C22.6 43.3015 22.6 42.4013 22.6 41.5013C22.6 40.9547 22.8833 40.681 23.45 40.681C26.07 40.681 28.7 40.681 31.32 40.681Z" fill="white"></path> </svg> 