<?xml version="1.0" encoding="UTF-8"?> <svg xmlns="http://www.w3.org/2000/svg" width="424" height="90" viewBox="0 0 424 90" fill="none"><path fill-rule="evenodd" clip-rule="evenodd" d="M0 89C0 89 36.0257 56.5738 56.7424 56.9982C68.9851 57.255 68.7621 69.6269 68.7621 69.6269C68.7621 69.6269 95.0873 28.402 137.29 30.9813C163.158 32.5557 165.488 52.6434 165.488 52.6434C165.488 52.6434 174.91 32.1426 193.832 31.7071C205.785 31.4279 210.022 40.2379 210.022 40.2379C210.022 40.2379 234.418 -2.65078 278.884 0.129566C320.384 2.72009 315.634 36.4303 315.634 36.4303C315.634 36.4303 330.81 26.4256 343.197 27.2407C356.901 28.134 352.875 41.4439 353.188 41.3099C358.305 39.1548 373.871 33.315 378.732 31.8188C404.522 23.9132 427.023 38.0941 423.667 60.5601C421.236 76.829 409.93 88.9888 409.93 88.9888H0V89Z" fill="white"></path></svg> 