<?xml version="1.0" encoding="UTF-8"?> <svg xmlns="http://www.w3.org/2000/svg" width="200" height="74" viewBox="0 0 200 74" fill="none"><g clip-path="url(#clip0_1159_16862)"><path d="M56.6761 42.8735C54.2711 42.8735 52.9851 44.9297 52.9851 46.9013C52.9851 49.4079 54.2991 50.9291 56.5081 50.9291C58.9131 50.9291 60.1991 48.8729 60.1991 46.9013C60.1991 44.422 58.8841 42.8735 56.6761 42.8735ZM56.5361 50.0003C55.3061 50.0003 54.2991 49.014 54.2991 46.9013C54.2991 44.7887 55.5291 43.8024 56.6761 43.8024C57.9061 43.8024 58.9131 44.7887 58.9131 46.9013C58.9131 49.014 57.6821 50.0003 56.5361 50.0003ZM66.0141 29.9437H64.8121L64.8961 18.4788H66.0981L66.0141 29.9437ZM62.3511 39.2396H63.5531L63.4691 50.7045H62.2671L62.3511 39.2396ZM66.0981 39.2396H67.3001L67.2161 50.7045H66.0141L66.0981 39.2396ZM62.6591 29.9437H61.4571L61.5411 18.4788H62.7431L62.6591 29.9437ZM87.0681 30.1684C88.1861 30.1684 89.1651 29.577 89.9481 28.8164L89.3611 28.1686C88.7181 28.76 88.0751 29.2667 87.2081 29.2667C85.6701 29.2667 85.0551 27.8301 85.0551 26.2524V25.9703H90.1161V25.7446C90.1161 23.6884 89.2491 22.1389 87.2081 22.1389C85.1671 22.1389 83.7411 24.0541 83.7411 26.1668C83.7691 28.6481 84.9711 30.1684 87.0681 30.1684ZM87.2361 23.0426C88.4661 23.0426 88.9141 24.0572 88.9141 25.1553H85.1671C85.3631 24.1126 86.1181 23.0426 87.2361 23.0426ZM9.28306 66.7604H9.89806L9.87006 70.5635H9.25506L9.28306 69.944H9.25506C8.94706 70.4225 8.41606 70.6764 7.99706 70.6764C7.13006 70.6764 6.85106 70.2261 6.85106 69.5218V68.6484L6.87906 66.7614H7.49406L7.46606 68.4801V69.5228C7.46606 69.945 7.74606 70.1142 8.16506 70.1142C8.55606 70.1142 8.92006 69.8886 9.28306 69.41V66.7604ZM82.9861 22.422L80.4701 22.4785C80.0511 22.2246 79.5471 22.14 79.0721 22.14C77.6461 22.14 76.3601 23.1545 76.3601 24.6465C76.3601 25.52 76.6121 26.1678 77.3111 26.7027C75.9971 27.4634 75.5501 27.8573 75.5501 28.3086C75.5501 28.76 76.0251 29.1539 77.3671 29.2949V29.3231C76.5561 29.7453 75.3261 30.3659 75.3261 31.4358C75.3261 33.1827 77.4511 33.5766 78.8211 33.5766C80.3871 33.5766 82.5961 32.7032 82.5961 30.8162C82.5961 29.4642 81.3101 28.9574 79.3531 28.6754C77.2001 28.3651 76.9481 28.1404 76.9481 27.8583C76.9481 27.6608 77.0881 27.4926 77.7871 26.9848C78.2061 27.1823 78.6261 27.2669 79.1011 27.2669C80.5831 27.2669 81.7291 26.197 81.7291 24.7321C81.7291 24.2536 81.5891 23.7458 81.1701 23.2673L82.9591 23.3237V22.422H82.9861ZM81.2811 31.0701C81.2811 32.3375 79.7151 32.817 78.7651 32.817C77.8701 32.817 76.5561 32.5067 76.5561 31.3804C76.5561 30.6762 76.8921 30.1976 78.2061 29.4652C80.6371 29.9155 81.2811 30.1966 81.2811 31.0701ZM78.9881 26.4509C78.0651 26.4509 77.5901 25.662 77.5901 24.7604C77.5901 23.6904 78.2331 22.958 79.0441 22.958C80.1341 22.958 80.5541 23.6904 80.5541 24.7049C80.5261 25.6338 80.1061 26.4509 78.9881 26.4509ZM18.8171 66.8168L17.5591 66.845C17.3351 66.704 17.0841 66.6758 16.8601 66.6758C16.1331 66.6758 15.5181 67.1825 15.5181 67.9431C15.5181 68.3935 15.6581 68.7038 15.9931 68.9859C15.3501 69.3516 15.1261 69.549 15.1261 69.8029C15.1261 70.0286 15.3781 70.225 16.0491 70.2815V70.3097C15.6581 70.5353 15.0421 70.8164 15.0421 71.3524C15.0421 72.2259 16.1041 72.4223 16.7761 72.4223C17.5591 72.4223 18.6491 71.972 18.6491 71.0421C18.6491 70.3661 18.0061 70.1122 17.0271 69.9722C15.9371 69.8029 15.8251 69.7183 15.8251 69.5783C15.8251 69.4936 15.8811 69.409 16.2441 69.1279C16.4681 69.2407 16.6631 69.269 16.9151 69.269C17.6421 69.269 18.2291 68.734 18.2291 68.0016C18.2291 67.7477 18.1731 67.4948 17.9491 67.2692L18.8441 67.2974V66.8188H18.8171V66.8168ZM17.9511 71.1267C17.9511 71.7463 17.1681 72.0002 16.6931 72.0002C16.2461 72.0002 15.5751 71.8591 15.5751 71.2678C15.5751 70.9021 15.7431 70.6764 16.4141 70.3097C17.6431 70.5635 17.9511 70.7036 17.9511 71.1267ZM16.8041 68.8166C16.3571 68.8166 16.1051 68.4227 16.1051 67.9714C16.1051 67.4364 16.4131 67.0697 16.8321 67.0697C17.3631 67.0697 17.5871 67.4354 17.5871 67.9431C17.5871 68.4227 17.3631 68.8166 16.8041 68.8166ZM2.26506 67.8303C2.85206 67.6328 3.18806 67.2389 3.18806 66.5911C3.18806 65.9998 2.79706 65.2955 1.65006 65.2955H0.168061L0.112061 70.5918H1.59406C2.62906 70.5918 3.30006 70.0568 3.30006 69.1269C3.29906 68.4509 2.90806 67.9431 2.26506 67.8303ZM0.839061 65.7459H1.37006C2.20906 65.7459 2.54406 66.0562 2.54406 66.6475C2.54406 67.1825 2.20806 67.5492 1.34206 67.5492H0.839061V65.7459ZM1.56606 70.084H0.783061L0.811061 68.0842H1.42606C2.18106 68.0842 2.62806 68.4227 2.62806 69.0705C2.65606 69.7747 2.23706 70.084 1.56606 70.084ZM14.5951 66.8168L13.3371 66.845C13.1131 66.704 12.8621 66.6758 12.6381 66.6758C11.9391 66.6758 11.2961 67.1825 11.2961 67.9431C11.2961 68.3935 11.4361 68.7038 11.7711 68.9859C11.1281 69.3516 10.9041 69.549 10.9041 69.7747C10.9041 70.0004 11.1561 70.1968 11.8271 70.2533V70.2815C11.4361 70.5071 10.8201 70.7882 10.8201 71.3242C10.8201 72.1976 11.8821 72.3941 12.5541 72.3941C13.3371 72.3941 14.4271 71.9438 14.4271 71.0139C14.4271 70.3379 13.7841 70.084 12.8051 69.944C11.7151 69.7747 11.6031 69.6901 11.6031 69.55C11.6031 69.4654 11.6591 69.3808 12.0221 69.0997C12.2461 69.2125 12.4411 69.2407 12.6931 69.2407C13.4201 69.2407 14.0071 68.7058 14.0071 67.9734C14.0071 67.7195 13.9511 67.4666 13.7271 67.2409L14.6221 67.2692V66.8188H14.5951V66.8168ZM13.7561 71.1267C13.7561 71.7463 12.9731 72.0002 12.4981 72.0002C12.0511 72.0002 11.3801 71.8591 11.3801 71.2678C11.3801 70.9021 11.5481 70.6764 12.2191 70.3097C13.4211 70.5635 13.7561 70.7036 13.7561 71.1267ZM12.5821 68.8166C12.1351 68.8166 11.8831 68.4227 11.8831 67.9714C11.8831 67.4364 12.1911 67.0697 12.6101 67.0697C13.1411 67.0697 13.3651 67.4354 13.3651 67.9431C13.3651 68.4227 13.1411 68.8166 12.5821 68.8166ZM6.01106 66.6758C6.15106 66.6758 6.26306 66.704 6.34706 66.7322L6.15106 67.2953C6.09506 67.2671 6.01106 67.2671 5.92706 67.2671C5.67506 67.2671 5.28406 67.4646 4.94806 68.0842L4.92006 70.5907H4.30606L4.33406 66.7876H4.94906V67.52L4.97706 67.5482C5.08906 67.1825 5.45206 66.6758 6.01106 66.6758ZM22.3961 68.5909V68.4781C22.3961 67.4636 21.9491 66.6758 20.9421 66.6758C19.9351 66.6758 19.2081 67.6339 19.2081 68.6756C19.2081 69.9147 19.8231 70.6754 20.8581 70.6754C21.4171 70.6754 21.9201 70.3933 22.3121 69.9994L22.0041 69.6609C21.6681 69.9712 21.3611 70.224 20.9141 70.224C20.1311 70.224 19.8521 69.5198 19.8521 68.7028V68.5617H22.3961V68.5909ZM20.9421 67.1261C21.5571 67.1261 21.7811 67.6328 21.7811 68.196H19.9081C20.0201 67.6621 20.3831 67.1261 20.9421 67.1261ZM30.3651 0H30.7841V74H30.3651V0ZM48.1761 19.1548C49.4341 19.1548 50.4131 19.4651 51.4471 20.0001L50.8881 21.0428C50.0771 20.4514 49.1821 20.254 48.1761 20.254C45.7431 20.254 44.0101 22.1974 44.0101 24.6485C44.0101 27.0997 45.7441 29.0431 48.1761 29.0431C49.0991 29.0431 50.0491 28.7046 50.8881 28.226L51.3911 29.1559C50.4401 29.7191 49.2941 30.1422 48.1761 30.1422C45.0721 30.1422 42.6121 28.086 42.6121 24.6495C42.6111 21.4367 45.0721 19.1548 48.1761 19.1548ZM56.2561 22.141C53.8511 22.141 52.5651 24.1972 52.5651 26.1688C52.5651 28.6754 53.8791 30.1966 56.0881 30.1966C58.4931 30.1966 59.7791 28.1404 59.7791 26.1688C59.8071 23.6622 58.4931 22.141 56.2561 22.141ZM56.1161 29.2677C54.8861 29.2677 53.8791 28.2814 53.8791 26.1688C53.8791 24.0561 55.1091 23.0698 56.2561 23.0698C57.4861 23.0698 58.4931 24.0561 58.4931 26.1688C58.4931 28.2532 57.2631 29.2677 56.1161 29.2677ZM44.0101 45.4365C44.0101 47.8876 45.7441 49.831 48.1761 49.831C49.0991 49.831 50.0491 49.4653 50.8881 49.014L51.3911 49.9439C50.4401 50.507 49.2941 50.9302 48.1761 50.9302C45.0721 50.9302 42.6121 48.8739 42.6121 45.4375C42.6121 42.1985 45.0731 39.9448 48.1761 39.9448C49.4341 39.9448 50.4131 40.2551 51.4471 40.7901L50.8881 41.8328C50.0771 41.2414 49.1821 41.0439 48.1761 41.0439C45.7431 41.0137 44.0101 42.9853 44.0101 45.4365ZM113.295 49.6053H117.517V50.7035H111.953L112.037 40.112H117.433V41.2102H113.323L113.295 44.8159H117.293V45.914H113.295V49.6053ZM169.272 0H169.691V74H169.272V0ZM137.872 22.141C135.467 22.141 134.181 24.1972 134.181 26.1688C134.181 28.6754 135.495 30.1966 137.704 30.1966C140.109 30.1966 141.395 28.1404 141.395 26.1688C141.423 23.6622 140.109 22.141 137.872 22.141ZM137.732 29.2677C136.502 29.2677 135.495 28.2814 135.495 26.1688C135.495 24.0561 136.725 23.0698 137.872 23.0698C139.102 23.0698 140.109 24.0561 140.109 26.1688C140.109 28.2532 138.879 29.2677 137.732 29.2677ZM181.155 65.2955H181.826L181.77 70.4789L181.211 70.7046L178.331 66.3665H178.303L178.275 70.5918H177.604L177.66 65.4366L178.219 65.2109L181.127 69.4926H181.155V65.2955ZM146.82 22.141C145.758 22.141 144.863 22.7323 144.471 23.3801H144.443V22.3374H143.241L143.129 33.8023H144.331L144.359 29.1831H144.387C144.778 29.7181 145.533 30.1694 146.54 30.1694C148.469 30.1694 149.839 28.1414 149.839 26.1134C149.839 23.098 148.106 22.141 146.82 22.141ZM146.288 29.1549C145.561 29.1549 144.918 28.761 144.387 27.9439L144.415 24.5639C144.778 23.9161 145.561 23.1555 146.54 23.1555C147.575 23.1555 148.553 24.1136 148.553 26.1698C148.553 27.6618 147.63 29.1549 146.288 29.1549ZM146.428 42.8735C145.366 42.8735 144.471 43.4649 144.079 44.1127H144.051V43.0982H142.849L142.765 54.5631H143.967L143.995 49.9439H144.023C144.414 50.4788 145.169 50.9302 146.176 50.9302C148.105 50.9302 149.475 48.9021 149.475 46.8741C149.476 43.8588 147.742 42.8735 146.428 42.8735ZM145.897 49.9156C145.17 49.9156 144.527 49.5217 143.996 48.7047L144.024 45.3246C144.387 44.6768 145.17 43.9162 146.149 43.9162C147.184 43.9162 148.162 44.8743 148.162 46.9305C148.162 48.4226 147.239 49.9156 145.897 49.9156ZM185.768 70.225C185.544 70.225 185.488 69.9712 185.488 69.6901C185.488 69.0141 185.544 68.3381 185.544 67.6339C185.544 67.0425 185.236 66.6758 184.593 66.6758C184.062 66.6758 183.81 66.8168 183.055 67.3236L183.307 67.7175C183.866 67.2953 184.118 67.1825 184.397 67.1825C184.788 67.1825 184.984 67.4364 184.984 67.7457C184.984 67.9149 184.984 68.056 184.956 68.2242C184.117 68.2524 182.747 68.5063 182.747 69.5762C182.747 70.224 183.166 70.6744 183.837 70.6744C184.312 70.6744 184.676 70.3923 184.983 70.0548C185.011 70.3651 185.207 70.6744 185.542 70.6744C185.794 70.6744 186.045 70.5615 186.241 70.3923L186.073 70.082C186.036 70.1275 185.99 70.164 185.937 70.1887C185.884 70.2135 185.826 70.2259 185.768 70.225ZM184.929 69.6619C184.705 69.944 184.398 70.225 184.034 70.225C183.615 70.225 183.363 69.9994 183.363 69.5772C183.363 68.9294 183.922 68.732 184.957 68.5909L184.929 69.6619ZM154.369 30.1684C155.487 30.1684 156.466 29.577 157.249 28.8164L156.662 28.1686C156.019 28.76 155.376 29.2667 154.509 29.2667C152.971 29.2667 152.356 27.8301 152.356 26.2524V25.9703H157.417V25.7446C157.417 23.6884 156.522 22.1389 154.509 22.1389C152.468 22.1389 151.042 24.0541 151.042 26.1668C151.069 28.6481 152.272 30.1684 154.369 30.1684ZM154.537 23.0426C155.767 23.0426 156.215 24.0572 156.215 25.1553H152.468C152.663 24.1126 153.39 23.0426 154.537 23.0426ZM154.537 42.8735C152.496 42.8735 151.07 44.7887 151.07 46.9013C151.07 49.3807 152.272 50.9291 154.369 50.9291C155.487 50.9291 156.466 50.3378 157.249 49.5771L156.662 48.9293C156.019 49.5207 155.376 50.0275 154.509 50.0275C152.971 50.0275 152.356 48.5908 152.356 47.0131V46.7593H157.417V46.5054C157.472 44.4502 156.578 42.8735 154.537 42.8735ZM152.495 45.915C152.691 44.8723 153.418 43.8024 154.564 43.8024C155.794 43.8024 156.242 44.8169 156.242 45.915H152.495ZM195.191 65.2955H195.834V65.9715H195.191V65.2955ZM74.1231 25.9713V25.7457C74.1231 23.6894 73.2561 22.14 71.2151 22.14C69.1741 22.14 67.7481 24.0551 67.7481 26.1678C67.7481 28.6471 68.9501 30.1956 71.0471 30.1956C72.1651 30.1956 73.1441 29.6042 73.9271 28.8436L73.3401 28.1958C72.6971 28.7872 72.0541 29.2939 71.1871 29.2939C69.6491 29.2939 69.0341 27.8573 69.0341 26.2796V25.9693H74.1231V25.9713ZM71.2151 23.0426C72.4451 23.0426 72.8931 24.0572 72.8931 25.1553H69.1461C69.3421 24.1126 70.0691 23.0426 71.2151 23.0426ZM195.219 66.7604H195.834L195.806 70.5635H195.191L195.219 66.7604ZM188.592 69.9712L188.788 70.3651C188.536 70.5343 188.173 70.7036 187.837 70.7036C187.25 70.7036 187.026 70.3379 187.026 69.7173V68.6191L187.054 67.2389H186.411V66.7604H187.054L187.082 65.352H187.697L187.669 66.7604H188.704V67.2107H187.669L187.641 68.7602V69.6619C187.641 69.9722 187.725 70.1404 188.004 70.1404C188.201 70.1686 188.452 70.0558 188.592 69.9712ZM190.913 66.6758C189.711 66.6758 189.068 67.6903 189.068 68.6756C189.068 69.943 189.739 70.6754 190.829 70.6754C192.031 70.6754 192.674 69.6609 192.674 68.6756C192.702 67.4364 192.031 66.6758 190.913 66.6758ZM190.857 70.225C190.242 70.225 189.739 69.7183 189.739 68.6756C189.739 67.6328 190.354 67.1261 190.913 67.1261C191.528 67.1261 192.031 67.6328 192.031 68.6756C192.031 69.7465 191.416 70.225 190.857 70.225ZM193.569 64.8452H194.184L194.128 70.5918H193.513L193.569 64.8452ZM200 67.8303V68.7038L199.972 70.5907H199.357L199.385 68.872V67.8293C199.385 67.4072 199.105 67.2379 198.686 67.2379C198.295 67.2379 197.931 67.4636 197.568 67.9421L197.54 70.5897H196.925L196.953 66.7866H197.568L197.54 67.4062H197.568C197.876 66.9558 198.407 66.6737 198.854 66.6737C199.72 66.6758 200 67.1261 200 67.8303ZM99.2591 22.141C96.8541 22.141 95.5681 24.1972 95.5681 26.1688C95.5681 28.6754 96.8821 30.1966 99.0911 30.1966C101.496 30.1966 102.782 28.1404 102.782 26.1688C102.782 23.6622 101.468 22.141 99.2591 22.141ZM99.1191 29.2677C97.8891 29.2677 96.8821 28.2814 96.8821 26.1688C96.8821 24.0561 98.1121 23.0698 99.2591 23.0698C100.489 23.0698 101.496 24.0561 101.496 26.1688C101.496 28.2532 100.266 29.2677 99.1191 29.2677ZM137.089 42.8735C134.684 42.8735 133.398 44.9297 133.398 46.9013C133.398 49.4079 134.712 50.9291 136.921 50.9291C139.326 50.9291 140.612 48.8729 140.612 46.9013C140.64 44.422 139.326 42.8735 137.089 42.8735ZM136.977 50.0003C135.747 50.0003 134.74 49.014 134.74 46.9013C134.74 44.7887 135.97 43.8024 137.117 43.8024C138.347 43.8024 139.354 44.7887 139.354 46.9013C139.326 49.014 138.096 50.0003 136.977 50.0003ZM103.201 43.887H103.173C102.893 43.352 102.138 42.9007 101.244 42.9007C99.5381 42.9007 97.8331 44.6476 97.8331 46.9567C97.8331 49.9428 99.5671 50.9281 100.881 50.9281C101.943 50.9281 102.838 50.3368 103.174 49.689H103.202L103.174 50.7035H104.404L104.516 39.2386H103.258L103.201 43.887ZM103.174 48.5072C102.894 49.155 102.112 49.9156 101.133 49.9156C100.098 49.9156 99.1201 48.9575 99.1201 46.9013C99.1201 45.3801 100.043 43.887 101.385 43.887C102.112 43.887 102.699 44.1973 103.23 45.098L103.174 48.5072ZM70.4881 39.8028H72.1381L73.5081 42H72.5011L70.4881 39.8028ZM108.43 23.2673H106.417L106.361 29.972H105.159L105.215 23.2673H103.733V22.3374H105.215C105.215 21.8871 105.215 21.3793 105.271 20.8726C105.439 19.0138 106.725 18.366 108.431 18.366V19.3805H107.9C106.893 19.3805 106.446 20.1976 106.418 21.1275L106.362 22.3384H108.431L108.43 23.2673ZM72.8091 42.8735C70.7681 42.8735 69.3421 44.7887 69.3421 46.9013C69.3421 49.3807 70.5441 50.9291 72.6411 50.9291C73.7591 50.9291 74.7381 50.3378 75.5211 49.5771L74.9341 48.9293C74.2911 49.5207 73.6481 50.0275 72.7811 50.0275C71.2431 50.0275 70.6561 48.5908 70.6561 47.0131V46.7593H75.7171V46.5054C75.7441 44.4502 74.8501 42.8735 72.8091 42.8735ZM70.7681 45.915C70.9641 44.8723 71.6911 43.8024 72.8371 43.8024C74.0671 43.8024 74.5151 44.8169 74.5151 45.915H70.7681ZM81.0571 42.8735C79.6311 42.8735 78.3451 43.888 78.3451 45.3801C78.3451 46.2535 78.5971 46.9013 79.2961 47.4363C77.9821 48.1969 77.5351 48.5908 77.5351 49.0422C77.5351 49.4925 78.0101 49.8874 79.3521 50.0285V50.0567C78.5411 50.4788 77.3111 51.0994 77.3111 52.1693C77.3111 53.9163 79.4361 54.3102 80.8061 54.3102C82.3721 54.3102 84.5811 53.4367 84.5811 51.5497C84.5811 50.1977 83.2951 49.691 81.3381 49.4089C79.1851 49.0986 78.9331 48.8739 78.9331 48.5918C78.9331 48.4226 79.0731 48.2261 79.7721 47.7184C80.1911 47.9158 80.6111 48.0005 81.0861 48.0005C82.5681 48.0005 83.7141 46.9305 83.7141 45.4657C83.7141 44.9871 83.5741 44.4794 83.1551 44.0008L84.9441 44.0573V43.1838L82.4281 43.2402C82.0631 42.9853 81.5601 42.8735 81.0571 42.8735ZM83.2941 51.8308C83.2941 53.07 81.7281 53.5778 80.7781 53.5778C79.9111 53.5778 78.5691 53.2675 78.5691 52.1411C78.5691 51.4369 78.9051 50.9584 80.2191 50.2259C82.6791 50.6763 83.2941 50.9574 83.2941 51.8308ZM81.0011 47.1824C80.0781 47.1824 79.5751 46.3936 79.5751 45.4919C79.5751 44.422 80.2181 43.6895 81.0291 43.6895C82.1191 43.6895 82.5391 44.422 82.5391 45.4365C82.5391 46.3946 82.1191 47.1824 81.0011 47.1824ZM89.6411 42.8735C87.6001 42.8735 86.1741 44.7887 86.1741 46.9013C86.1741 49.3807 87.3761 50.9291 89.4731 50.9291C90.5911 50.9291 91.5701 50.3378 92.3531 49.5771L91.7661 48.9293C91.1231 49.5207 90.4801 50.0275 89.6131 50.0275C88.0751 50.0275 87.4601 48.5908 87.4601 47.0131V46.7593H92.5211V46.5054C92.5771 44.4502 91.6821 42.8735 89.6411 42.8735ZM87.6001 45.915C87.7961 44.8723 88.5231 43.8024 89.6691 43.8024C90.8991 43.8024 91.3471 44.8169 91.3471 45.915H87.6001ZM132.084 42.8735C132.336 42.8735 132.559 42.9299 132.727 42.9863L132.364 44.1409C132.252 44.1127 132.056 44.0563 131.889 44.0563C131.386 44.0563 130.575 44.4784 129.932 45.6904L129.876 50.7045H128.674L128.73 43.0992H129.988L129.96 44.5922L129.988 44.6204C130.239 43.9152 130.966 42.8735 132.084 42.8735ZM126.325 22.3384H127.527L127.471 29.9437H126.269L126.325 28.7328H126.297C125.654 29.6627 124.619 30.1694 123.725 30.1694C121.991 30.1694 121.432 29.2677 121.432 27.8593C121.432 27.2679 121.46 26.7048 121.46 26.1124L121.488 22.3374H122.69L122.662 25.7739V27.8583C122.662 28.6754 123.221 29.0693 124.032 29.0693C124.815 29.0693 125.514 28.6189 126.297 27.6608L126.325 22.3384ZM133.538 23.4083C133.426 23.3801 133.23 23.3237 133.063 23.3237C132.56 23.3237 131.749 23.7458 131.106 24.9578L131.05 29.9437H129.848L129.904 22.3384H131.162L131.134 23.8315L131.162 23.8597C131.414 23.1837 132.169 22.141 133.259 22.141C133.511 22.141 133.734 22.1974 133.902 22.2538L133.538 23.4083ZM107.479 40.1403H109.129L107.983 43.8024H107.396L107.479 40.1403ZM124.759 43.0982H125.961L125.905 50.7035H124.703L124.759 49.4925H124.703C124.06 50.4224 123.025 50.9291 122.131 50.9291C120.397 50.9291 119.838 50.0275 119.838 48.619C119.838 48.0277 119.866 47.4645 119.866 46.8721L119.894 43.0971H121.096L121.068 46.5336V48.618C121.068 49.4351 121.627 49.829 122.438 49.829C123.221 49.829 123.92 49.3787 124.703 48.4206L124.759 43.0982ZM115.28 28.8446H119.502V29.9427H113.938L114.022 19.3513H119.418V20.4494H115.308L115.28 24.0551H119.278V25.1533H115.28V28.8446Z" fill="white"></path><path d="M19.404 5.66216C17.838 5.66216 15.601 8.92936 14.958 11.1548C14.958 11.1548 12.386 10.7609 9.729 10.7609C7.101 10.7609 4.556 11.1548 4.556 11.1548C3.859 8.95757 1.734 5.83142 0 5.83142V5.21183C0 5.21183 1.622 5.32466 2.461 5.32466C3.244 5.32466 4.53 5.21183 4.53 5.21183L7.074 8.7329L9.702 6.4228L12.358 8.7329L14.93 5.01437C14.93 5.01437 16.272 5.1272 17.055 5.1272C17.838 5.1272 19.404 5.01437 19.404 5.01437V5.66216ZM14.651 2.22572C13.085 3.97265 12.582 5.43649 12.19 7.35268L9.674 5.26825L7.354 7.35268C6.794 5.43649 6.459 4.02806 4.725 2.25392L5.061 1.80359C6.738 2.76068 7.857 3.09918 9.674 3.09918C11.631 3.09918 12.973 2.76068 14.287 1.86001L14.651 2.22572ZM7.801 23.5778L4.558 23.6343C4.56435 24.9215 4.60169 26.2084 4.67 27.4938H7.802L7.801 23.5778ZM7.801 17.3245H4.669C4.669 17.3245 4.557 18.8458 4.557 20.761C4.557 20.761 7.073 20.8174 7.8 20.8174L7.801 17.3245ZM12.75 56.5631C9.73 53.6334 7.801 48.8732 7.801 39.9994V30.4497H6.291C4.278 30.4497 1.789 30.4497 0.28 30.6754C0.895 29.8301 1.287 26.4501 1.287 23.8307V20.6471C1.287 18.2242 0.896 15.5484 0.28 14.3092C1.902 14.5349 4.558 14.5349 6.291 14.5349H7.801V11.8308C7.801 11.8308 8.975 11.718 9.702 11.718C10.485 11.718 11.715 11.8308 11.715 11.8308V14.5349H13.98C15.769 14.5349 17.447 14.5349 18.538 14.0845L18.175 18.1688C17.56 17.7184 17.168 17.3235 14.764 17.3235H11.688V20.8164H13.757C16.385 20.8164 17.448 20.4779 17.448 20.4779C17.448 20.4779 17.28 21.4924 17.28 22.1684C17.28 22.8444 17.448 23.9153 17.448 23.9153C17.448 23.9153 16.33 23.5768 13.757 23.5768H11.716V27.52H15.519C17.253 27.52 18.427 27.1815 18.93 26.6748L18.567 30.7026C17.113 30.4769 16.106 30.4769 14.345 30.4769H11.717V38.6736C11.717 47.2088 14.01 50.6735 14.681 51.2931C15.967 49.9411 18.707 46.7011 18.707 43.04C18.707 41.4623 17.645 39.3496 16.862 38.3925C15.744 36.9841 14.122 34.8997 12.36 35.5193C12.472 35.4628 12.36 35.0125 12.36 35.0125C12.863 34.7304 15.547 33.7733 17.365 32.2521C17.756 33.0973 18.427 33.8298 19.937 36.1399C21.335 38.2807 22.565 39.3506 22.565 41.1822C22.508 46.3102 15.714 52.5353 12.75 56.5631ZM192.87 34.4504V30.8164C194.212 30.8729 196.309 31.0421 196.309 31.0421V27.6903C195.247 27.8878 193.569 27.8878 192.87 27.8595V24.7042C193.485 24.676 195.638 24.676 197.036 25.3802L197.288 21.3524C197.288 21.3524 195.499 21.9155 192.87 21.9155V14.5077C192.87 14.5077 192.954 13.3531 193.597 12.3668H189.906C189.906 12.3668 190.577 13.6624 190.493 14.423C190.409 15.1837 190.493 27.4374 190.493 27.4374L186.886 12.3668H183.279C183.279 12.3668 184.006 13.2967 184.174 14.8462C184.258 15.6632 184.37 18.339 184.454 21.8319C184.007 21.8319 179.841 21.8319 178.443 21.578C178.443 21.578 179.589 25.6059 179.589 29.7193C179.589 33.8328 178.694 37.6349 178.694 37.6349C178.694 37.6349 182.217 37.3528 184.678 37.4375C184.706 41.5499 184.678 45.0146 184.566 46.5076C184.566 46.5076 184.063 49.4655 183.839 50.2262H187.753C187.753 50.2262 187.11 47.4375 186.942 42.4798C186.774 37.5503 186.774 32.8465 186.774 32.8465L190.465 50.2272H192.842V37.4647C194.349 37.4574 195.855 37.5706 197.344 37.8032L197.68 33.7754C197.092 34.535 193.905 34.4786 192.87 34.4504ZM182.749 24.6478H184.566L184.622 27.8585H182.749V24.6478ZM182.581 34.676V30.9857H184.678C184.706 32.2249 184.706 33.4651 184.734 34.7042H182.581V34.676ZM183.839 51.5772H192.842V55.6896H183.839V51.5772ZM184.035 11.042H192.983L192.899 9.7182C192.899 9.7182 194.66 7.63376 194.381 5.99966C194.045 4.28094 192.815 3.21101 189.963 3.68956L189.236 2.70325L188.817 2.44937V2.08467H189.376V1.66255H188.789V1.15479H188.202V1.66255H187.643V2.08467H188.202V2.5068L187.783 2.76068L187.056 3.71877C184.204 3.21202 182.974 4.28194 182.638 6.02888C182.33 7.63477 184.092 9.74742 184.092 9.74742L184.035 11.042ZM193.038 5.85963C193.346 7.07059 192.535 7.7466 192.535 7.7466C192.535 7.7466 191.64 5.52112 191.137 4.84511C191.137 4.87332 192.702 4.61944 193.038 5.85963ZM188.48 4.73228C190.325 4.73228 191.024 6.47921 190.102 6.87313C189.459 7.15522 189.822 8.7319 189.822 8.7319L189.57 8.7601C189.318 7.74559 188.815 7.54914 188.535 7.52093H188.339C188.059 7.54914 187.556 7.7466 187.304 8.7601L187.108 8.7319C187.108 8.7319 187.471 7.15421 186.828 6.87313C185.88 6.47921 186.607 4.73228 188.48 4.73228ZM183.951 5.775C184.287 4.53582 185.852 4.7887 185.852 4.7887C185.377 5.43649 184.454 7.66197 184.454 7.66197C184.454 7.66197 183.615 6.98597 183.951 5.775Z" fill="white"></path></g><defs><clipPath id="clip0_1159_16862"><rect width="200" height="74" fill="white"></rect></clipPath></defs></svg> 