<?xml version="1.0" encoding="UTF-8"?> <svg xmlns="http://www.w3.org/2000/svg" width="1440" height="331" viewBox="0 0 1440 331" fill="none"><path d="M1070.9 75.0337C1066.75 64.8195 1071.71 53.1265 1081.93 48.9828C1092.16 44.8391 1103.87 49.7849 1108.01 59.999L1100.94 62.8722C1098.38 56.5509 1091.14 53.492 1084.81 56.0498C1078.48 58.6076 1075.42 65.8391 1077.99 72.1741L1070.91 75.0473L1070.9 75.0337Z" fill="#213B67"></path><path d="M460.09 300.311C470.456 296.53 481.981 301.886 485.766 312.24C489.551 322.594 484.19 334.105 473.823 337.886L471.198 330.722C477.614 328.388 480.93 321.269 478.594 314.862C476.258 308.454 469.13 305.142 462.701 307.483L460.076 300.319L460.09 300.311Z" fill="#213B67"></path><path d="M361.424 36.7169C356.192 27.0115 359.847 14.8517 369.564 9.62628C379.281 4.4009 391.455 8.05143 396.687 17.7568L389.964 21.3784C386.733 15.3712 379.204 13.1133 373.19 16.3406C367.175 19.5679 364.915 27.0881 368.156 33.1079L361.433 36.7295L361.424 36.7169Z" fill="#213B67"></path><path d="M239.458 191.543L241.787 185.622L248.378 188.206L251.592 178.238L261.354 182.057L264.568 172.089L277.48 177.142L275.164 183.054L268.55 180.467L265.334 190.458L255.571 186.638L252.37 196.596L239.458 191.543Z" fill="#213B67"></path><path d="M1260.89 223.324L1258.98 217.259L1265.74 215.133L1261.99 205.368L1272 202.223L1268.25 192.443L1281.49 188.299L1283.4 194.365L1276.62 196.481L1280.38 206.276L1270.37 209.407L1274.12 219.186L1260.89 223.324Z" fill="#213B67"></path><path d="M808.709 271.041L814.882 269.483L816.615 276.349L826.592 273.179L829.155 283.338L839.148 280.164L842.521 293.606L836.348 295.165L834.626 288.279L824.618 291.458L822.07 281.294L812.077 284.468L808.709 271.041Z" fill="#213B67"></path><path d="M-5.43487 39.6908L0.738203 38.1323L2.47101 44.9981L12.4484 41.8284L15.0117 51.9878L25.0042 48.8132L28.3779 62.2559L22.2047 63.8139L20.4823 56.928L10.4744 60.1074L7.92638 49.9432L-2.06619 53.1177L-5.43487 39.6908Z" fill="#213B67"></path><path d="M683.541 60.2378L649.517 39.665L684.368 20.5194L683.541 60.2378ZM662.253 39.9206L677.41 49.0822L677.778 31.3866L662.243 39.9081L662.253 39.9206Z" fill="#213B67"></path><path d="M879.87 206.753C871.096 213.659 858.326 212.161 851.412 203.397C844.498 194.634 845.998 181.879 854.788 174.961C863.577 168.042 876.331 169.553 883.258 178.332C890.185 187.112 888.66 199.835 879.87 206.753ZM859.737 181.234C854.419 185.42 853.502 193.142 857.693 198.454C861.884 203.766 869.615 204.681 874.933 200.496C880.251 196.31 881.168 188.588 876.977 183.276C872.786 177.964 865.055 177.049 859.737 181.234Z" fill="#213B67"></path><path d="M1443.99 141.32C1435.21 148.226 1422.44 146.727 1415.53 137.964C1408.61 129.2 1410.11 116.445 1418.9 109.527C1427.69 102.609 1440.45 104.119 1447.37 112.899C1454.3 121.678 1452.78 134.401 1443.99 141.32ZM1423.85 115.801C1418.54 119.987 1417.62 127.708 1421.81 133.02C1426 138.332 1433.73 139.248 1439.05 135.062C1444.37 130.876 1445.28 123.154 1441.09 117.842C1436.9 112.53 1429.17 111.615 1423.85 115.801Z" fill="#213B67"></path><path d="M15.9146 271.763C7.14043 278.669 -5.62917 277.171 -12.5433 268.407C-19.4574 259.643 -17.9579 246.889 -9.16801 239.97C-0.378078 233.052 12.3759 234.562 19.3024 243.342C26.229 252.122 24.7045 264.845 15.9146 271.763ZM-4.2184 246.244C-9.53655 250.43 -10.4533 258.152 -6.26256 263.464C-2.0718 268.775 5.65958 269.691 10.9777 265.505C16.2959 261.32 17.2124 253.597 13.0217 248.285C8.83092 242.974 1.09974 242.058 -4.2184 246.244Z" fill="#213B67"></path><path d="M1403.11 297.122L1381.69 330.599L1363.37 295.335L1403.11 297.122ZM1382.26 317.887L1391.79 302.974L1374.09 302.179L1382.25 317.897L1382.26 317.887Z" fill="#213B67"></path></svg> 