<?xml version="1.0" encoding="UTF-8"?> <svg xmlns="http://www.w3.org/2000/svg" width="1300" height="598" viewBox="0 0 1300 598" fill="none"><g clip-path="url(#clip0_1232_1043)"><mask id="mask0_1232_1043" style="mask-type:alpha" maskUnits="userSpaceOnUse" x="0" y="202" width="1300" height="400"><rect y="202" width="1300" height="400" fill="#182849"></rect></mask><g mask="url(#mask0_1232_1043)"><path d="M318.029 530.62H358.984H364.104V486.872L378.066 459.879L392.028 486.872V530.62H408.783L421.814 466.394H431.122V436.143H434.38V452.432L456.719 479.426H493.952V422.646H497.675V463.136L513.033 479.426H518.153V461.74H540.958V475.702H549.8V441.262L574.932 418.458V553.425H583.775V376.106H631.246V560.406H638.693V350.974H642.416V362.144H647.535V332.358H680.579V578.091H693.611V436.143H706.177V376.106H730.378V315.138H738.289V308.622H742.013L753.648 290.471L755.044 243L756.906 290.471L768.541 308.622H771.799V315.138H780.176V410.546H802.05V426.37H820.666V512.469H834.628V393.326H845.333V386.345H853.244V376.106H858.364V341.666H869.068V376.106H874.653V386.345H883.496V393.326H894.2V456.155H901.181C902.267 441.262 910.21 410.639 933.294 407.288L934.69 482.218H954.703V436.143H968.199V364.936L981.231 332.358L985.419 300.245L990.073 332.358L1003.57 364.936V543.652H1014.27V425.904H1024.51V373.779L1045.92 391.464V425.904H1052.44V505.488V557.614H1074.31V512.469H1102.24V417.061H1119.92V557.614H1153.9V490.13H1192.99V578.091H1239.07H1280V732.924H1239.07H318.029H-33.5V530.62H50.9283V560.758H89.3048V459.879H103.632V385.761H132.798V461.74H148.149V568.433H198.294V530.62H246.393V470.701L261.232 422.646L283.234 470.701V560.758H318.029V530.62Z" fill="#1A2C52"></path><path fill-rule="evenodd" clip-rule="evenodd" d="M314.009 523.904H312.417C311.868 523.783 311.31 523.654 310.743 523.518V509.358C311.834 510.024 312.923 510.677 314.009 511.317V523.904ZM317.275 523.904H320.541V515.036C319.46 514.441 318.37 513.832 317.275 513.209V523.904ZM327.073 523.904H323.807V516.802C324.907 517.387 325.997 517.955 327.073 518.508V523.904ZM330.34 523.904H338.26C335.748 522.772 333.094 521.52 330.34 520.155V523.904ZM330.34 516.501C336.325 519.514 341.866 522.005 346.552 523.904H350.845C343.912 521.032 337.038 516.874 330.34 511.827V516.501ZM327.073 509.285C325.979 508.407 324.891 507.507 323.807 506.585V513.093C324.906 513.687 325.996 514.265 327.073 514.827V509.285ZM317.275 500.723C318.357 501.744 319.446 502.747 320.541 503.73V511.298C319.459 510.693 318.369 510.073 317.275 509.439V500.723ZM314.236 497.789C313.062 496.632 311.897 495.455 310.743 494.261V505.518C311.833 506.197 312.922 506.862 314.009 507.514V497.743L314.236 497.789ZM307.477 507.328V522.68C305.899 522.25 304.264 521.767 302.578 521.228V504.138C304.206 505.229 305.841 506.293 307.477 507.328ZM307.477 503.448V490.81C305.82 489.023 304.186 487.205 302.578 485.364V500.189C304.203 501.303 305.839 502.39 307.477 503.448ZM299.312 481.554V497.904C298.215 497.12 297.126 496.325 296.046 495.518V477.601C296.772 478.495 297.503 479.386 298.241 480.273C298.596 480.701 298.953 481.128 299.312 481.554ZM299.312 501.905V520.132C298.24 519.756 297.15 519.358 296.046 518.938V499.579C297.09 500.339 298.14 501.087 299.194 501.823L299.312 501.905ZM299.312 523.591C298.24 523.225 297.15 522.839 296.046 522.43V523.904H299.312V523.591ZM292.78 497.149V517.643C291.703 517.199 290.614 516.734 289.514 516.247V494.603C290.592 495.464 291.682 496.313 292.78 497.149ZM292.78 493.019V473.505C291.675 472.096 290.586 470.681 289.514 469.265V490.392C290.588 491.279 291.678 492.155 292.78 493.019ZM292.78 523.904V521.171C291.703 520.74 290.614 520.288 289.514 519.814V523.261C289.969 523.478 290.422 523.693 290.873 523.904H292.78ZM286.248 464.878V487.619C284.567 486.15 282.93 484.652 281.349 483.127V458.015C282.934 460.291 284.568 462.583 286.248 464.878ZM286.248 491.925V514.748C284.632 513.98 282.997 513.164 281.349 512.299V487.616C282.942 489.082 284.578 490.519 286.248 491.925ZM286.248 518.357C284.632 517.612 282.998 516.82 281.349 515.98V519.123C282.992 519.998 284.628 520.845 286.248 521.658V518.357ZM278.083 484.507V510.527C276.458 509.617 274.823 508.659 273.184 507.649V479.384C274.747 481.126 276.384 482.834 278.083 484.507ZM278.083 479.857V453.245C276.382 450.719 274.747 448.224 273.184 445.778V474.391C274.727 476.245 276.365 478.068 278.083 479.857ZM278.083 517.356V514.261C276.459 513.379 274.824 512.45 273.184 511.472V514.602C274.424 515.314 275.669 516.018 276.915 516.711C277.304 516.927 277.694 517.142 278.083 517.356ZM275.33 519.57C276.247 520.08 277.165 520.583 278.083 521.08V523.904H273.184V518.365C273.898 518.77 274.614 519.172 275.33 519.57ZM281.349 522.82V523.904H283.447C282.749 523.548 282.05 523.186 281.349 522.82ZM269.918 440.574V470.224C267.664 467.158 265.686 464.016 264.041 460.809L263.58 429.868C265.488 433.233 267.608 436.826 269.918 440.574ZM269.918 475.563V505.575C268.164 504.426 266.408 503.218 264.655 501.949L264.142 467.557C265.867 470.289 267.805 472.96 269.918 475.563ZM269.918 509.464C268.186 508.367 266.45 507.214 264.715 506.003L264.769 509.617C266.463 510.651 268.183 511.683 269.918 512.704V509.464ZM269.918 516.491C268.206 515.496 266.506 514.488 264.826 513.475L264.982 523.904H269.918V516.491ZM359.734 523.904V523.488L358.55 523.149C338.476 517.407 318.127 499.08 300.751 478.181C284.769 458.959 271.493 437.798 263.477 422.936L263.385 416.81H260.119L256.853 407L253.587 417.628L241.34 418.445L238.073 409.453L234.807 419.263L198.881 421.715L196.431 413.54L192.349 422.533L181.734 423.35L179.284 415.993L176.018 423.35H173.569V424.362C154.263 445.956 134.393 462.191 114.956 474.853H114.78V474.967C84.1699 494.877 54.6435 505.936 30.0987 515.129L30.0982 515.129L30.0965 515.129C23.953 517.43 18.1216 519.615 12.6634 521.791C11.4163 522.236 10.1513 522.702 8.86652 523.194L8.91169 523.312C8.43387 523.509 7.95923 523.707 7.4878 523.904H7V538.619H171.936V592.575H185V538.619H196.431V592.575H209.495V538.619H230.725V592.575H243.789V538.619H255.22V592.575H268.284V538.619H363V523.904H359.734ZM114.78 478.85C112.048 480.6 109.325 482.28 106.615 483.897V489.695C109.246 488.186 111.965 486.569 114.78 484.832V478.85ZM114.78 488.666C111.968 490.376 109.249 491.969 106.615 493.456V506.777C109.468 505.902 112.199 504.997 114.78 504.062V488.666ZM118.046 502.83V486.653C120.17 485.326 122.346 483.934 124.578 482.471V499.995C122.567 500.967 120.381 501.912 118.046 502.83ZM114.78 510.406C112.122 511.018 109.395 511.622 106.615 512.215V523.904H114.78V510.406ZM118.046 523.904V509.641C120.283 509.107 122.464 508.568 124.578 508.023V523.904H118.046ZM118.046 482.791V476.728C120.218 475.296 122.396 473.819 124.578 472.296V478.556C122.345 480.037 120.169 481.447 118.046 482.791ZM217.661 435.657V440.003L220.055 438.187L217.661 435.657ZM214.394 442.48V437.824L210.814 442.252L212.275 444.088L214.394 442.48ZM214.394 446.583V446.753L214.31 446.647L214.394 446.583ZM217.661 450.859V444.105L222.314 440.575L227.56 446.119C225.005 448.186 222.178 450.443 219.194 452.788L217.661 450.859ZM217.661 458.133C217.993 457.875 218.325 457.617 218.655 457.36L231.541 473.562V486.191L231.397 486.052C227.581 482.363 222.822 477.514 217.661 472.125V458.133ZM214.394 460.653V468.7C212.936 467.165 211.457 465.6 209.968 464.017C211.452 462.9 212.931 461.775 214.394 460.653ZM214.394 452.002V456.529C212.782 457.774 211.144 459.029 209.496 460.278V450.298L211.706 448.622L214.394 452.002ZM214.394 473.439C214.009 473.035 213.622 472.629 213.233 472.221C212.002 470.929 210.754 469.613 209.496 468.28V519.441L214.394 519.161V473.439ZM217.661 476.841V518.974L231.541 518.18V490.7C230.784 489.993 229.977 489.225 229.128 488.404C225.863 485.247 221.929 481.265 217.661 476.841ZM209.671 446.063L209.496 445.843V446.196L209.671 446.063ZM206.23 447.922V448.673L204.659 449.864L206.23 447.922ZM206.23 460.029V452.776L202.963 455.253V456.525C204.049 457.693 205.14 458.863 206.23 460.029ZM206.23 519.628V466.808C206.035 466.952 205.841 467.095 205.647 467.239C204.749 467.9 203.854 468.556 202.963 469.203V519.815L206.23 519.628ZM194.798 457.344V452.78L181.734 453.598V467.253L194.798 457.344ZM186.106 468.039L194.798 461.446V467.495L186.106 468.039ZM173.569 473.085V445.994C171.914 447.346 170.281 448.671 168.67 449.967V476.083C170.564 474.947 172.201 473.942 173.569 473.085ZM165.404 478.021V452.582C163.747 453.902 162.114 455.192 160.505 456.452V480.861C162.258 479.858 163.892 478.909 165.404 478.021ZM160.505 452.295C162.114 451.025 163.747 449.727 165.404 448.398V437.824C163.773 439.474 162.14 441.09 160.505 442.672V452.295ZM168.67 434.466V445.766C170.281 444.461 171.913 443.129 173.569 441.768V429.234C171.939 431.014 170.306 432.758 168.67 434.466ZM160.505 484.624C162.244 483.636 163.878 482.696 165.404 481.808V487.383C163.945 488.176 162.317 489.067 160.505 490.065V484.624ZM160.505 493.799C162.301 492.806 163.93 491.911 165.404 491.106V523.904H160.505V493.799ZM168.67 489.331V523.904H173.569V486.722C172.268 487.401 170.654 488.259 168.67 489.331ZM168.67 479.889V485.619C170.122 484.84 171.345 484.194 172.367 483.662C172.802 483.436 173.202 483.23 173.569 483.042V476.933C172.144 477.81 170.508 478.799 168.67 479.889ZM157.239 482.716V458.995C155.017 460.714 152.84 462.377 150.707 463.986V486.347C153.016 485.08 155.195 483.868 157.239 482.716ZM157.239 486.466V491.871C155.258 492.969 153.093 494.175 150.726 495.499L150.707 495.51V490.073C153.006 488.819 155.185 487.615 157.239 486.466ZM157.239 495.61C155.705 496.462 154.068 497.375 152.32 498.353C151.809 498.639 151.271 498.924 150.707 499.207V523.904H157.239V495.61ZM127.844 476.367C130.486 474.577 133.206 472.691 136.009 470.701V463.892C133.284 465.999 130.562 468.028 127.844 469.982V476.367ZM147.441 462.352C144.644 464.449 141.923 466.451 139.275 468.363V461.328C141.997 459.16 144.719 456.911 147.441 454.577V462.352ZM127.844 480.308C130.488 478.538 133.207 476.672 136.009 474.703V494.185C133.393 495.543 130.67 496.938 127.844 498.363V480.308ZM139.275 472.388V492.479C142.138 490.976 144.862 489.522 147.441 488.126V466.432C144.644 468.51 141.924 470.494 139.275 472.388ZM127.844 502.023C130.665 500.607 133.388 499.219 136.009 497.866V501.385C133.47 502.187 130.74 502.984 127.844 503.775V502.023ZM139.275 496.17V500.315C142.367 499.261 145.11 498.202 147.441 497.144V491.841C144.854 493.233 142.13 494.679 139.275 496.17ZM127.844 507.163C130.708 506.391 133.44 505.606 136.009 504.811V523.904H127.844V507.163ZM139.275 503.765V523.904H147.441V500.716C145.03 501.746 142.289 502.763 139.275 503.765ZM150.707 451.733V459.886C152.84 458.265 155.017 456.589 157.239 454.856V445.783C155.064 447.824 152.886 449.806 150.707 451.733ZM124.578 503.609V504.645C122.593 505.162 120.546 505.675 118.444 506.183C120.609 505.349 122.66 504.491 124.578 503.609ZM103.349 491.537V485.818C101.162 487.086 98.9841 488.314 96.8167 489.503V495.031C98.9336 493.941 101.109 492.779 103.349 491.537ZM93.5506 496.679V491.27C90.8097 492.733 88.0869 494.137 85.3852 495.486V500.488C88.0121 499.336 90.7291 498.072 93.5506 496.679ZM85.3852 504.052C88.017 502.921 90.7341 501.682 93.5506 500.318V510.385C90.8804 511.052 88.1526 511.698 85.3852 512.321V504.052ZM96.8167 509.549V498.701C98.9359 497.63 101.111 496.488 103.349 495.268V507.751C101.225 508.366 99.0445 508.965 96.8167 509.549ZM88.2767 515.865C90.0431 515.536 91.8022 515.202 93.5506 514.865V523.904H85.3852V516.398C86.3509 516.222 87.3149 516.044 88.2767 515.865ZM96.8167 523.904V514.227C99.0171 513.792 101.197 513.35 103.349 512.903V523.904H96.8167ZM82.1191 513.043V505.419C79.647 506.425 77.2486 507.338 74.9111 508.174C74.591 508.288 74.2721 508.401 73.9543 508.513V514.732C76.6957 514.19 79.4226 513.627 82.1191 513.043ZM70.6882 515.367C69.7461 515.547 68.803 515.724 67.8596 515.899C66.0791 516.229 64.2986 516.55 62.5228 516.862V512.103C65.1759 511.36 67.8902 510.544 70.6882 509.623V515.367ZM70.6882 506.177C67.8892 507.118 65.1762 507.95 62.5228 508.705V505.961C65.2124 504.826 67.9354 503.647 70.6882 502.419V506.177ZM73.9543 505.043V500.944C76.6503 499.712 79.373 498.431 82.1191 497.095V501.883C79.3017 503.055 76.5866 504.1 73.9543 505.043ZM70.6882 518.971V523.904H62.5228V520.309C65.228 519.876 67.9539 519.429 70.6882 518.971ZM73.9543 523.904V518.418C76.6765 517.953 79.4021 517.477 82.1191 516.99V523.904H73.9543ZM59.2567 509.606V507.325C54.2822 509.382 49.4296 511.295 44.7226 513.106C49.5127 512.026 54.2967 510.932 59.2567 509.606ZM59.2567 517.427V512.989C54.0556 514.358 49.0604 515.482 44.0906 516.6L44.0902 516.6L44.0899 516.6C43.5662 516.718 43.0429 516.835 42.5195 516.953C35.0229 518.643 27.5276 520.38 19.3478 522.987C30.4685 521.775 44.6121 519.916 59.2567 517.427ZM38.6532 523.904C45.1862 522.982 52.1308 521.951 59.2567 520.829V523.904H38.6532ZM181.734 483.011V486.299L194.798 485.482V474.97C193.154 476.093 191.559 477.154 190.032 478.137C186.981 480.102 184.155 481.784 181.734 483.011ZM194.798 471.001C192.52 472.583 190.326 474.06 188.266 475.387C185.852 476.94 183.653 478.268 181.734 479.316V471.584L194.798 470.767V471.001ZM205.084 463.588C204.625 463.929 204.167 464.268 203.71 464.606C203.461 464.789 203.212 464.972 202.963 465.155V461.32C203.67 462.077 204.377 462.834 205.084 463.588ZM221.229 455.346L231.541 468.312V450.327L229.813 448.5C227.2 450.616 224.297 452.935 221.229 455.346ZM255.22 485.252V494.459C252.2 491.834 249.219 489.008 246.307 485.966L255.22 485.252ZM255.22 498.752C250.768 495.038 246.384 490.907 242.156 486.321V494.793C244.626 496.535 247.431 498.462 250.478 500.493L255.22 500.197V498.752ZM242.156 481.429C242.602 481.939 243.05 482.444 243.5 482.944L255.22 482.21V467.495L242.156 468.313V481.429ZM194.798 434.794V447.69C190.768 443.304 186.972 439.139 183.669 435.49L194.798 434.794ZM192.183 449.673C188.42 445.578 184.867 441.68 181.734 438.222V450.327L192.183 449.673ZM242.156 501.014V498.784C243.107 499.445 244.099 500.128 245.127 500.828L242.156 501.014ZM242.156 504.284L249.577 503.82C251.385 505.018 253.272 506.249 255.22 507.498V517.364L242.156 518.182V504.284ZM255.22 503.466V503.609L255.019 503.479L255.22 503.466ZM194.798 488.75L181.734 489.568V504.283L194.798 503.465V488.75ZM181.734 507.553L194.798 506.735V520.633L181.734 521.45V507.553ZM255.22 431.525L242.156 432.343V447.058L255.22 446.24V431.525ZM242.156 450.328L255.22 449.51V464.225L242.156 465.043V450.328Z" fill="#1E325E"></path><path fill-rule="evenodd" clip-rule="evenodd" d="M358.617 536.176H349.917V487.401H323.533V513.48H317.879V509.545H314.11V582.572H307.985V542.996H289.611V534.986H264.169V598.12H257.102V577.389L249.563 564.197L244.381 541.111L240.141 564.197L232.131 577.389V598.12H221.766V603.302H189.728V557.13L167.113 547.236V603.302H147.325V577.389H128.008V542.996H87.9612V557.13H80.4229V525.092H71L75.7114 708.777H349.917H1099.28H1292.2H1418V547.865H1390.67V567.495H1385.02V559.486H1379.84V543.704H1372.3V534.044H1361.46V543.704H1342.62V552.026H1332.25V518.967H1315.29V552.026H1307.28V547.865H1302.57V543.704H1292.2H1286.15V547.865H1283.5V552.026H1277.07V545.974H1275.18V540.678H1268.37V535.382H1266.1V530.842H1257.02V535.382H1255.89V539.543H1252.49V507.011V501.337H1250.22V491.88H1246.05V487.719H1242.27V491.88H1238.11V501.337H1236.22V507.011H1234.33V530.842H1231.68V535.382H1225.25L1223.36 541.813H1216.93V537.273H1208.61V541.813H1204.44V510.794H1201.04V501.337H1184.02V510.794H1179.1V537.273H1168.89V559.592H1163.59V553.955H1161.7V549.378H1159.05V535.382H1156.78V522.52H1154.51V503.607L1134.08 511.55V530.086H1126.52V548.622H1125.38V553.955H1112.14V557.322H1105.34V553.955H1099.28H1091.72V539.581H1075.83V553.955H1056.92V557.738H1052.76V567.952H1045.19V561.143H1043.3V548.66L1035.35 537.311H1027.79L1024.38 541.094H1023.25V481.705H967.643V506.671H952.512C948.275 506.973 947.468 510.832 947.594 512.723V518.397H944.947V504.779H941.92V496.457H944.947V494.944H939.272V473.761H937.759V466.574H937.003V457.495H935.49V448.794H933.598V440.094H931.707V432.529H930.194V423.828H928.681V409.832H927.168V392.431H924.141V409.832H922.628V423.828H920.737V432.529H919.224V440.094H917.332V448.794H915.819V457.495H914.684V466.574H913.928V473.761H912.415V494.944H906.362V496.457H909.388V504.779H906.362V555.09H904.093V530.881H898.797V519.911H900.688V514.615H896.149L884.044 502.132H867.4V494.944L849.621 477.165L830.329 494.944V465.439H811.415V512.345H797.797V538.068H791.744L781.153 525.206H772.831V518.019H769.048V508.184L762.239 502.132L758.456 451.064L755.43 502.132L748.621 508.184V518.019H745.595V544.12H743.703V546.39L733.49 552.064V535.42H682.422V537.69H679.396V526.341H675.235V547.525H673.344V543.742H671.452V547.525H665.022V551.307H643.082V560.008H635.138V545.633H620.763V542.607H609.415V528.989H603.741V518.397H578.775V524.072H566.291V547.903H562.509V552.064H551.917V544.499H545.486V503.645C535.5 503.039 527.455 511.462 524.681 515.749H517.494V541.851L510.306 547.525V533.528H491.771V508.941L488.745 508.94V496.457H486.097V485.487H482.314V485.109L480.423 477.544V473.382L482.314 471.491V463.926L483.071 462.412V440.094C484.281 439.792 486.097 437.698 486.853 436.69V428.746C490.182 428.141 491.267 425.972 491.393 424.963V415.506C491.014 414.497 489.728 412.404 487.61 412.102C485.491 411.799 483.701 415.002 483.071 416.641H481.557L479.666 414.371V406.806L472.857 398.105V389.783L479.288 388.648L473.614 387.892V386.757L479.288 383.353L472.857 384.487L472.479 383.353L475.505 378.057L470.209 382.596H467.939L466.426 374.274L465.292 382.596H462.265L456.591 378.057L461.509 384.109H457.348L455.078 378.435L452.43 361.413C453.439 360.782 455.456 359.219 455.456 358.008C455.456 356.798 453.439 355.234 452.43 354.604V351.956L453.565 350.443C454.195 349.938 455.078 348.627 453.565 347.416C452.052 346.206 450.16 347.921 449.404 348.929V354.982C448.269 355.486 445.999 356.798 445.999 358.008C445.999 359.219 447.765 361.034 448.647 361.791L450.539 379.948L450.16 380.326V383.353L451.295 384.109L451.674 393.566C450.917 394.449 449.328 396.517 449.026 397.727C448.647 399.24 448.647 400.753 448.647 401.888C448.647 402.796 451.674 404.788 453.187 405.671C453.061 408.319 452.808 413.917 452.808 415.128C452.808 416.338 455.078 416.641 456.213 416.641V423.828C455.456 424.585 453.716 426.779 452.808 429.502C451.967 432.026 453.621 432.471 454.995 432.841C455.474 432.97 455.919 433.09 456.213 433.285C456.462 435.026 455.076 438.401 453.989 441.046C453.423 442.426 452.938 443.607 452.808 444.255C452.506 445.768 454.195 446.651 455.078 446.903C454.473 451.14 454.069 474.391 453.943 485.487H451.295V492.296H448.647V500.997H444.486V508.941H439.947V532.015H423.681V553.577H416.872V536.176H397.58V513.48H358.617V536.176Z" fill="#203563"></path><path fill-rule="evenodd" clip-rule="evenodd" d="M-771.383 536.176H-780.083V487.401H-806.467V513.48H-812.121V509.545H-815.89V582.572H-822.015V542.996H-840.389V534.986H-865.831V598.12H-872.898V577.389L-880.437 564.197L-885.619 541.111L-889.859 564.197L-897.869 577.389V598.12H-908.234V603.302H-940.272V557.13L-962.887 547.236V603.302H-982.675V577.389H-1001.99V542.996H-1042.04V557.13H-1049.58V525.092H-1059L-1054.29 708.777H-780.083H-30.7166H162.205H288V547.865H260.674V567.495H255.02V559.486H249.837V543.704H242.299V534.044H231.463V543.704H212.617V552.026H202.252V518.967H185.291V552.026H177.281V547.865H172.57V543.704H162.205H156.152V547.865H153.504V552.026H147.073V545.974H145.182V540.678H138.373V535.382H136.104V530.842H127.025V535.382H125.89V539.543H122.486V507.011V501.337H120.216V491.88H116.055V487.719H112.272V491.88H108.111V501.337H106.22V507.011H104.328V530.842H101.68V535.382H95.2496L93.3583 541.813H86.9275V537.273H78.6055V541.813H74.4445V510.794H71.0399V501.337H54.0176V510.794H49.0999V537.273H38.8864V559.592H33.5906V553.955H31.6992V549.378H29.0511V535.382H26.7816V522.52H24.512V503.607L4.08496 511.55V530.086H-3.48059V548.622H-4.61548V553.955H-17.8551V557.322H-24.6642V553.955H-30.7166H-38.282V539.581H-54.1698V553.955H-73.0836V557.738H-77.2446V567.952H-84.8101V561.143H-86.7015V548.66L-94.6453 537.311H-102.211L-105.615 541.094H-106.75V481.705H-162.357V506.671H-177.488C-181.725 506.973 -182.532 510.832 -182.406 512.723V518.397H-185.053V504.779H-188.08V496.457H-185.053V494.944H-190.728V473.761H-192.241V466.574H-192.997V457.495H-194.51V448.794H-196.402V440.094H-198.293V432.529H-199.806V423.828H-201.319V409.832H-202.832V392.431H-205.859V409.832H-207.372V423.828H-209.263V432.529H-210.776V440.094H-212.668V448.794H-214.181V457.495H-215.316V466.574H-216.072V473.761H-217.585V494.944H-223.638V496.457H-220.612V504.779H-223.638V555.09H-225.907V530.881H-231.203V519.911H-229.312V514.615H-233.851L-245.956 502.132H-262.6V494.944L-280.379 477.165L-299.671 494.944V465.439H-318.585V512.345H-332.203V538.068H-338.256L-348.847 525.206H-357.169V518.019H-360.952V508.184L-367.761 502.132L-371.544 451.064L-374.57 502.132L-381.379 508.184V518.019H-384.405V544.12H-386.297V546.39L-396.51 552.064V535.42H-447.578V537.69H-450.604V526.341H-454.765V547.525H-456.656V543.742H-458.548V547.525H-464.978V551.307H-486.918V560.008H-494.862V545.633H-509.237V542.607H-520.585V528.989H-526.259V518.397H-551.225V524.072H-563.709V547.903H-567.491V552.064H-578.083V544.499H-584.514V503.645C-594.5 503.039 -602.545 511.462 -605.319 515.749H-612.506V541.851L-619.694 547.525V533.528H-638.229V508.941L-641.255 508.94V496.457H-643.903V485.487H-647.686V485.109L-649.577 477.544V473.382L-647.686 471.491V463.926L-646.929 462.412V440.094C-645.719 439.792 -643.903 437.698 -643.147 436.69V428.746C-639.818 428.141 -638.733 425.972 -638.607 424.963V415.506C-638.986 414.497 -640.272 412.404 -642.39 412.102C-644.509 411.799 -646.299 415.002 -646.929 416.641H-648.443L-650.334 414.371V406.806L-657.143 398.105V389.783L-650.712 388.648L-656.386 387.892V386.757L-650.712 383.353L-657.143 384.487L-657.521 383.353L-654.495 378.057L-659.791 382.596H-662.061L-663.574 374.274L-664.708 382.596H-667.735L-673.409 378.057L-668.491 384.109H-672.652L-674.922 378.435L-677.57 361.413C-676.561 360.782 -674.544 359.219 -674.544 358.008C-674.544 356.798 -676.561 355.234 -677.57 354.604V351.956L-676.435 350.443C-675.805 349.938 -674.922 348.627 -676.435 347.416C-677.948 346.206 -679.84 347.921 -680.596 348.929V354.982C-681.731 355.486 -684.001 356.798 -684.001 358.008C-684.001 359.219 -682.235 361.034 -681.353 361.791L-679.461 379.948L-679.84 380.326V383.353L-678.705 384.109L-678.326 393.566C-679.083 394.449 -680.672 396.517 -680.974 397.727C-681.353 399.24 -681.353 400.753 -681.353 401.888C-681.353 402.796 -678.326 404.788 -676.813 405.671C-676.939 408.319 -677.192 413.917 -677.192 415.128C-677.192 416.338 -674.922 416.641 -673.787 416.641V423.828C-674.544 424.585 -676.284 426.779 -677.192 429.502C-678.033 432.026 -676.379 432.471 -675.005 432.841C-674.526 432.97 -674.081 433.09 -673.787 433.285C-673.538 435.026 -674.924 438.401 -676.011 441.046C-676.577 442.426 -677.062 443.607 -677.192 444.255C-677.494 445.768 -675.805 446.651 -674.922 446.903C-675.527 451.14 -675.931 474.391 -676.057 485.487H-678.705V492.296H-681.353V500.997H-685.514V508.941H-690.053V532.015H-706.319V553.577H-713.128V536.176H-732.42V513.48H-771.383V536.176Z" fill="#203563"></path></g><g opacity="0.4" filter="url(#filter0_f_1232_1043)"><circle cx="33" cy="470" r="134" fill="#52BEDA"></circle></g><g opacity="0.4" filter="url(#filter1_f_1232_1043)"><circle cx="468.5" cy="-16.5" r="247.5" fill="#52BEDA"></circle></g><g opacity="0.4" filter="url(#filter2_f_1232_1043)"><circle cx="1299.5" cy="469.5" r="247.5" fill="#52BEDA"></circle></g></g><defs><filter id="filter0_f_1232_1043" x="-331" y="106" width="728" height="728" filterUnits="userSpaceOnUse" color-interpolation-filters="sRGB"><feFlood flood-opacity="0" result="BackgroundImageFix"></feFlood><feBlend mode="normal" in="SourceGraphic" in2="BackgroundImageFix" result="shape"></feBlend><feGaussianBlur stdDeviation="115" result="effect1_foregroundBlur_1232_1043"></feGaussianBlur></filter><filter id="filter1_f_1232_1043" x="-79" y="-564" width="1095" height="1095" filterUnits="userSpaceOnUse" color-interpolation-filters="sRGB"><feFlood flood-opacity="0" result="BackgroundImageFix"></feFlood><feBlend mode="normal" in="SourceGraphic" in2="BackgroundImageFix" result="shape"></feBlend><feGaussianBlur stdDeviation="150" result="effect1_foregroundBlur_1232_1043"></feGaussianBlur></filter><filter id="filter2_f_1232_1043" x="752" y="-78" width="1095" height="1095" filterUnits="userSpaceOnUse" color-interpolation-filters="sRGB"><feFlood flood-opacity="0" result="BackgroundImageFix"></feFlood><feBlend mode="normal" in="SourceGraphic" in2="BackgroundImageFix" result="shape"></feBlend><feGaussianBlur stdDeviation="150" result="effect1_foregroundBlur_1232_1043"></feGaussianBlur></filter><clipPath id="clip0_1232_1043"><rect width="1300" height="598" fill="white"></rect></clipPath></defs></svg> 