<?xml version="1.0" encoding="UTF-8"?> <svg xmlns="http://www.w3.org/2000/svg" width="367" height="243" viewBox="0 0 367 243" fill="none"> <g clip-path="url(#clip0_274_489)"> <path d="M196.38 193.75L199.53 191.84C204.59 188.77 209.55 185.64 214.26 182.56C263.41 150.43 304.35 111.97 326.59 77.0398L327.06 76.2998L327.84 76.6998C352.98 89.4998 366.27 104.92 366.27 121.31C366.27 139.7 349.06 157.21 317.81 170.61C287.02 183.82 245.2 191.99 200.07 193.62L196.38 193.75ZM327.74 78.7998C305.26 113.76 264.34 152.12 215.31 184.16C211.56 186.61 207.66 189.09 203.67 191.55C247.16 189.63 287.3 181.6 317.04 168.84C347.54 155.76 364.34 138.87 364.34 121.3C364.35 105.85 351.69 91.1598 327.74 78.7998Z" fill="white"></path> <path d="M183.14 193.92C126.11 193.92 73.37 183.71 38.44 165.92C13.29 153.12 0 137.69 0 121.3C0 102.91 17.21 85.4104 48.46 72.0004C79.25 58.7904 121.07 50.6204 166.21 48.9904C171.75 48.7904 177.45 48.6904 183.14 48.6904C240.17 48.6904 292.91 58.9004 327.84 76.6904L328.78 77.1704L328.21 78.0604C305.83 113.22 264.68 151.89 215.31 184.16C210.58 187.26 205.6 190.39 200.52 193.47L200.31 193.6L200.06 193.61C194.51 193.81 188.82 193.92 183.14 193.92ZM183.14 50.6104C177.47 50.6104 171.8 50.7104 166.28 50.9104C121.38 52.5304 79.8 60.6504 49.22 73.7704C18.72 86.8504 1.92 103.73 1.92 121.3C1.92 136.92 14.85 151.76 39.3 164.21C73.97 181.87 126.4 192 183.14 192C188.72 192 194.3 191.9 199.74 191.71C204.73 188.68 209.61 185.6 214.26 182.56C262.99 150.71 303.66 112.63 326.02 77.9304C291.34 60.5504 239.36 50.6104 183.14 50.6104Z" fill="white"></path> <path d="M64.06 242.6C56.96 242.6 50.56 241.83 45 240.25C35.2 237.46 28.3 232.28 24.51 224.84C17.28 210.67 21.96 189.82 38.05 164.54L38.52 163.8L39.3 164.2C73.97 181.87 126.4 192 183.14 192C188.8 192 194.47 191.9 199.99 191.7L203.68 191.57L200.52 193.48C149.1 224.65 98.38 242.6 64.06 242.6ZM39.21 166.31C23.88 190.65 19.39 210.57 26.22 223.97C29.76 230.91 36.26 235.77 45.53 238.4C76.9 247.32 135.83 229.81 196.37 193.73C192 193.85 187.57 193.91 183.14 193.91C126.53 193.92 74.15 183.86 39.21 166.31Z" fill="white"></path> <path d="M327.74 78.8003L326.96 78.4003C292.29 60.7403 239.87 50.6103 183.14 50.6103C177.47 50.6103 171.8 50.7103 166.28 50.9103L162.59 51.0403L165.75 49.1303C227.82 11.5003 288.87 -6.86972 321.27 2.35028C331.07 5.14028 337.97 10.3203 341.76 17.7603C348.99 31.9303 344.3 52.7903 328.21 78.0603L327.74 78.8003ZM183.14 48.6903C239.74 48.6903 292.12 58.7503 327.06 76.3003C342.39 51.9703 346.89 32.0403 340.05 18.6403C336.51 11.7003 330.01 6.84028 320.75 4.20028C289.39 -4.71972 230.45 12.7903 169.9 48.8803C174.26 48.7503 178.7 48.6903 183.14 48.6903Z" fill="white"></path> </g> <defs> <clipPath id="clip0_274_489"> <rect width="366.26" height="242.6" fill="white"></rect> </clipPath> </defs> </svg> 