<?xml version="1.0" encoding="UTF-8"?> <svg xmlns="http://www.w3.org/2000/svg" viewBox="0 0 199.40 33.83" data-guides="{&quot;vertical&quot;:[],&quot;horizontal&quot;:[]}"><defs></defs><path fill="#e2e2e2" stroke="none" fill-opacity="1" stroke-width="1" stroke-opacity="1" id="tSvg5d2d472511" title="Path 11" d="M181.8178 0.9998C183.1226 5.0529 184.4274 9.1061 185.7324 13.1592C189.9551 13.1592 194.1778 13.1592 198.4007 13.1592C194.9844 15.6641 191.568 18.1691 188.1518 20.674C189.4563 24.7271 190.7607 28.7801 192.0652 32.8332C188.6494 30.3282 185.2335 27.8234 181.8178 25.3185C178.4017 27.8234 174.9856 30.3282 171.5694 32.8332C172.8743 28.7801 174.1792 24.7271 175.484 20.674C172.0678 18.1691 168.6517 15.6641 165.2357 13.1592C169.4582 13.1592 173.6807 13.1592 177.9034 13.1592C179.2082 9.1061 180.5128 5.0529 181.8178 0.9998Z"></path><path fill="#FABC03" stroke="none" fill-opacity="1" stroke-width="1" stroke-opacity="1" id="tSvgd3fc85c73e" title="Path 12" d="M140.7589 0.9998C142.1403 5.0529 143.5219 9.1061 144.9035 13.1592C149.3744 13.1592 153.8453 13.1592 158.3161 13.1592C154.6991 15.6641 151.0822 18.1691 147.4651 20.674C148.8467 24.7271 150.2283 28.7801 151.61 32.8332C147.9929 30.3282 144.3759 27.8234 140.7589 25.3185C137.1419 27.8234 133.5248 30.3282 129.9078 32.8332C131.2894 28.7801 132.6708 24.7271 134.0524 20.674C130.4353 18.1691 126.8183 15.6641 123.2012 13.1592C127.6722 13.1592 132.1431 13.1592 136.614 13.1592C137.9956 9.1061 139.3772 5.0529 140.7589 0.9998Z"></path><path fill="#FABC03" stroke="none" fill-opacity="1" stroke-width="1" stroke-opacity="1" id="tSvgabef964729" title="Path 13" d="M99.6998 0.9998C101.0048 5.0529 102.3096 9.1061 103.6144 13.1592C107.837 13.1592 112.0596 13.1592 116.2821 13.1592C112.8659 15.6641 109.4498 18.1691 106.0337 20.674C107.3387 24.7271 108.6435 28.7801 109.9482 32.8332C106.5321 30.3282 103.116 27.8234 99.6998 25.3185C96.2839 27.8234 92.8679 30.3282 89.4519 32.8332C90.7565 28.7801 92.0614 24.7271 93.3662 20.674C89.9501 18.1691 86.534 15.6641 83.1181 13.1592C87.3405 13.1592 91.563 13.1592 95.7855 13.1592C97.0903 9.1061 98.3951 5.0529 99.6998 0.9998Z"></path><path fill="#FABC03" stroke="none" fill-opacity="1" stroke-width="1" stroke-opacity="1" id="tSvg52ad95562c" title="Path 14" d="M58.6406 0.9998C60.0222 5.0529 61.4038 9.1061 62.7854 13.1592C67.2564 13.1592 71.7273 13.1592 76.1982 13.1592C72.5811 15.6641 68.9641 18.1691 65.347 20.674C66.7286 24.7271 68.1101 28.7801 69.4917 32.8332C65.8747 30.3282 62.2576 27.8234 58.6406 25.3185C55.0235 27.8234 51.4065 30.3282 47.7894 32.8332C49.1712 28.7801 50.5528 24.7271 51.9343 20.674C48.3173 18.1691 44.7003 15.6641 41.0833 13.1592C45.5541 13.1592 50.0251 13.1592 54.496 13.1592C55.8776 9.1061 57.259 5.0529 58.6406 0.9998Z"></path><path fill="#FABC03" stroke="none" fill-opacity="1" stroke-width="1" stroke-opacity="1" id="tSvge13bac9efd" title="Path 15" d="M17.5819 0.9998C18.8868 5.0529 20.1915 9.1061 21.4964 13.1592C25.7188 13.1592 29.9413 13.1592 34.1639 13.1592C30.7478 15.6641 27.3316 18.1691 23.9155 20.674C25.2203 24.7271 26.5251 28.7801 27.8301 32.8332C24.4139 30.3282 20.9979 27.8234 17.5819 25.3185C14.1657 27.8234 10.7497 30.3282 7.3336 32.8332C8.6384 28.7801 9.9433 24.7271 11.2481 20.674C7.832 18.1691 4.4159 15.6641 0.9999 13.1592C5.2222 13.1592 9.4448 13.1592 13.6673 13.1592C14.9722 9.1061 16.277 5.0529 17.5819 0.9998Z"></path></svg> 