<?xml version="1.0" encoding="UTF-8"?> <svg xmlns="http://www.w3.org/2000/svg" width="465" height="146" viewBox="0 0 465 146" fill="none"><path d="M161.113 48.6478C159.974 49.7857 158.192 50.6771 155.515 50.6771C153.332 50.6771 151.239 50.0003 149.826 48.5869C147.979 46.7413 148.041 44.4056 148.041 42.3763V29.7715H150.81V42.6848C150.81 44.2529 150.748 45.7891 151.979 47.0188C152.809 47.8493 154.1 48.3105 155.607 48.3105C157.115 48.3105 158.253 47.7874 158.992 47.0498C160.376 45.6663 160.254 44.0982 160.254 40.6246V29.7715H162.961V40.1934C162.96 44.0054 163.083 46.6804 161.113 48.6478Z" fill="#182849"></path><path d="M182.733 50.2778L173.045 33.9528L173.107 50.2778H170.584V29.7715H173.32L183.011 46.1584L182.95 29.7715H185.469V50.2778H182.733Z" fill="#182849"></path><path d="M193.746 50.2778V29.7715H196.513V50.2778H193.746Z" fill="#182849"></path><path d="M211.899 50.2778H208.854L201.779 29.7715H204.639L210.452 47.449L216.421 29.7715H219.096L211.899 50.2778Z" fill="#182849"></path><path d="M224.473 50.2778V29.7715H235.825V32.0463H227.18V38.5025H235.301V40.7164H227.18V47.9411H236.069V50.2778H224.473Z" fill="#182849"></path><path d="M253.617 50.2779L251.248 44.9287C249.833 41.7625 249.155 41.485 246.387 41.485H245.095V50.2779H242.389V29.7715H246.941C249.679 29.7715 251.801 29.7416 253.462 31.4015C254.478 32.4157 255.063 33.7692 255.063 35.49C255.063 36.9044 254.662 38.1032 253.801 39.0255C253.063 39.8251 251.862 40.5018 250.51 40.6545C251.187 40.6855 251.862 41.0848 252.264 41.485C252.878 42.1009 253.309 43.0841 253.862 44.3448L256.509 50.2779H253.617ZM251.433 33.0305C250.326 31.9236 248.88 31.9545 247.218 31.9545H245.095V39.302H246.051C248.017 39.302 250.018 39.3639 251.31 38.0723C251.955 37.4275 252.325 36.4742 252.325 35.49C252.324 34.3821 251.893 33.4917 251.433 33.0305Z" fill="#182849"></path><path d="M267.079 50.7079C263.448 50.7079 261.019 48.7405 260.773 48.494L262.096 46.5875C262.464 46.834 264.464 48.3403 266.956 48.3403C269.477 48.3403 270.955 46.834 270.955 44.9585C270.955 42.7146 268.442 41.6076 266.228 40.5316C263.614 39.2709 261.359 37.9184 261.359 34.9049C261.359 31.6459 264.002 29.3711 267.785 29.3711C271.57 29.3711 273.447 31.2467 273.631 31.4613L272.245 33.245C272 33.0304 270.37 31.7078 267.971 31.7078C265.726 31.7078 264.126 32.8148 264.126 34.6594C264.126 36.5958 265.941 37.3135 267.971 38.3596C269.785 39.2809 273.815 40.6853 273.815 44.7129C273.814 48.0947 271.323 50.7079 267.079 50.7079Z" fill="#182849"></path><path d="M280.301 50.2778V29.7715H283.069V50.2778H280.301Z" fill="#182849"></path><path d="M297.205 32.0463V50.2778H294.436V32.0463H288.406V29.7715H303.202V32.0463H297.205Z" fill="#182849"></path><path d="M315.146 42.1598V50.2759H312.408V42.1598L305.918 29.7695H308.943L313.947 39.4188L318.855 29.7695H321.637L315.146 42.1598Z" fill="#182849"></path><path d="M344.592 50.677C339.179 50.677 335.273 46.2801 335.273 40.0705C335.273 33.7371 339.149 29.3711 344.748 29.3711C350.223 29.3711 354.036 33.7371 354.036 39.9167C354.036 46.311 350.192 50.677 344.592 50.677ZM344.561 31.7078C340.655 31.7078 338.103 34.9978 338.103 40.0086C338.103 44.9894 340.964 48.3093 344.716 48.3093C348.99 48.3093 351.206 44.65 351.206 39.8239C351.206 34.9359 348.469 31.7078 344.561 31.7078Z" fill="#182849"></path><path d="M363.337 32.0463V38.5025H371.211V40.7164H363.337V50.2778H360.6V29.7715H371.704V32.0463H363.337Z" fill="#182849"></path><path d="M189.62 90.5812C189.62 103.714 179.5 113.227 166.844 113.227C153.959 113.227 144.068 103.593 144.068 91.0663C144.068 77.9444 154.201 68.4238 166.844 68.4238C179.746 68.4228 189.62 78.0492 189.62 90.5812ZM182.287 90.8217C182.287 78.8986 176.619 70.8404 166.844 70.8404C156.245 70.8404 151.427 80.5905 151.427 90.8217C151.427 102.751 157.091 110.851 166.844 110.851C177.461 110.851 182.287 101.078 182.287 90.8217Z" fill="#182849"></path><path d="M328.7 90.5812C328.7 103.714 318.576 113.227 305.923 113.227C293.039 113.227 283.146 103.593 283.146 91.0663C283.146 77.9444 293.275 68.4238 305.923 68.4238C318.814 68.4228 328.7 78.0492 328.7 90.5812ZM321.355 90.8217C321.355 78.8986 315.69 70.8404 305.923 70.8404C295.315 70.8404 290.499 80.5905 290.499 90.8217C290.499 102.751 296.162 110.851 305.923 110.851C316.527 110.851 321.355 101.078 321.355 90.8217Z" fill="#182849"></path><path d="M346.294 90.9423H351.715C359.911 90.9423 361.604 85.9105 361.604 80.9606C361.604 77.2534 360.032 74.227 356.181 72.5371C354.124 71.6906 352.197 71.5729 349.55 71.5729H346.293L346.294 90.9423ZM356.181 98.0792C353.649 94.4509 352.683 93.3589 349.55 93.3589H346.293V107.833C346.293 109.044 346.655 109.64 348.101 109.888L353.044 110.851V112.552H333.527V110.851L337.98 109.888C339.431 109.519 339.781 109.044 339.781 107.833V73.8706C339.781 72.6589 339.312 72.05 337.98 71.8104L333.527 70.8402V69.1543H352.561C356.544 69.1543 359.313 69.5116 361.603 70.3611C366.298 72.1688 368.946 76.6446 368.946 80.8359C368.946 86.1481 364.976 90.581 358.345 92.1531V92.3986C359.677 92.9955 360.395 93.855 365.097 100.006L371.123 107.834C371.962 109.045 372.932 109.889 374.491 110.133L378.594 110.852V112.553H368.114C366.904 112.553 366.299 112.184 365.217 110.727L356.181 98.0792Z" fill="#182849"></path><path d="M271.217 84.0989H273.266V98.4485H271.217L270.369 94.3261C270.02 92.763 269.054 92.1521 267.601 92.1521H257.121V107.833C257.121 109.044 257.483 109.64 258.921 109.888L263.873 110.851V112.552H244.342V110.851L248.794 109.888C250.248 109.519 250.61 109.044 250.61 107.833V73.8706C250.61 72.6589 250.125 72.05 248.794 71.8104L244.342 70.8402V69.1543H277.243V79.9884H275.2L273.507 73.8716C273.026 72.1688 272.055 71.5729 270.612 71.5729H257.121V89.7315H267.601C269.053 89.7315 270.02 89.1646 270.369 87.6044L271.217 84.0989Z" fill="#182849"></path><path d="M382.09 112.552V110.851L386.545 109.888C387.994 109.519 388.358 109.044 388.358 107.833V73.8706C388.358 72.6589 387.874 72.05 386.545 71.8104L382.09 70.8402V69.1543H402.46C408 69.1543 411.98 69.869 415.224 71.3283C423.427 75.0804 427.157 83.1346 427.157 91.0651C427.157 98.7999 424.275 106.011 416.917 109.888C413.544 111.691 408.846 112.552 402.701 112.552H382.09ZM394.748 71.5729V108.187C394.748 109.764 395.106 110.133 396.675 110.133H401.976C407.035 110.133 410.773 109.52 413.425 107.591C417.888 104.328 419.814 98.6861 419.814 91.1879C419.814 83.8523 417.887 76.8861 411.86 73.3785C409.318 71.9302 406.073 71.5719 401.011 71.5719L394.748 71.5729Z" fill="#182849"></path><path d="M206.743 110.852V112.553H191.189V110.852L195.043 110.01C196.489 109.641 197.578 109.169 198.43 108.063L211.452 91.4344L198.43 73.8716C197.578 72.6599 196.49 72.051 195.166 71.6906L191.56 70.8402V69.1543H210.725V70.8402L206.62 71.5729C205.302 71.8104 205.423 72.1688 206.152 73.137L215.78 86.762H216.025L226.022 73.3785C226.748 72.4133 226.748 71.9302 225.66 71.6906L221.81 70.8402V69.1543H237.348V70.8402L233.501 71.6906C232.049 72.051 230.96 72.5371 230.121 73.6241L217.719 89.1656L231.564 107.835C232.411 109.046 233.499 109.642 234.829 110.011L238.434 110.853V112.554H219.267V110.853L223.381 110.134C224.691 109.89 224.568 109.521 223.86 108.554L213.359 93.856H213.123L202.399 108.554C201.671 109.521 201.555 109.765 202.88 110.011L206.743 110.852Z" fill="#182849"></path><path d="M91.3989 54.375C91.3989 54.375 91.3989 74.2755 91.3989 75.8446C89.882 75.8446 75.7747 75.8446 75.7747 75.8446L75.56 76.3746C75.3064 77.0035 74.846 77.5854 73.2201 77.5854C71.5953 77.5854 71.1359 77.0035 70.8812 76.3746L70.6675 75.8446C70.6675 75.8446 56.5933 75.8446 55.0763 75.8446C55.0763 74.2755 55.0763 54.375 55.0763 54.375H53.3785V54.93L52.1881 54.5647C52.0134 54.0366 51.521 53.6523 50.9348 53.6523C50.2038 53.6523 49.6076 54.2463 49.6076 54.9789C49.6076 55.7116 50.2038 56.3055 50.9348 56.3055C51.2394 56.3055 51.517 56.1987 51.7407 56.025L53.3785 56.5281V58.1671L52.2001 57.9564C51.9974 57.5262 51.5759 57.2178 51.0686 57.1928C50.3376 57.1579 49.7144 57.7219 49.6795 58.4535C49.6435 59.1852 50.2098 59.806 50.9408 59.842C51.3263 59.8609 51.6778 59.7102 51.9325 59.4597L53.3785 59.7192V61.3951L52.1422 61.3402C51.9065 60.9739 51.4961 60.7294 51.0277 60.7294C50.2967 60.7294 49.7004 61.3233 49.7004 62.0549C49.7004 62.7866 50.2967 63.3815 51.0277 63.3815C51.4531 63.3815 51.8276 63.1769 52.0703 62.8654L53.3776 62.9233V64.746L52.0993 64.7919C51.8566 64.4755 51.4791 64.2679 51.0496 64.2679C50.3186 64.2679 49.7234 64.8618 49.7234 65.5934C49.7234 66.3251 50.3186 66.919 51.0496 66.919C51.514 66.919 51.9225 66.6794 52.1582 66.3171L53.3765 66.2732V67.9521L51.9644 68.1946C51.7238 67.9541 51.3922 67.8054 51.0257 67.8054C50.2947 67.8054 49.6984 68.3993 49.6984 69.1309C49.6984 69.8646 50.2947 70.4565 51.0257 70.4565C51.553 70.4565 52.0054 70.1461 52.2191 69.7009L53.3756 69.5022V71.1452L51.8086 71.6234C51.5839 71.4507 51.3073 71.3429 51.0017 71.3429C50.2697 71.3429 49.6745 71.9358 49.6745 72.6684C49.6745 73.4021 50.2697 73.995 51.0017 73.995C51.5879 73.995 52.0803 73.6127 52.255 73.0837L53.3756 72.7413V74.3224L51.6249 75.077C51.4082 74.9443 51.1505 74.8724 50.8779 74.8824C50.1468 74.9113 49.5756 75.5292 49.6046 76.2608C49.6335 76.9935 50.2537 77.5635 50.9837 77.5335C51.6029 77.5086 52.1012 77.0614 52.2241 76.4824L53.3746 75.9853V77.5435C53.3746 77.5435 68.7241 77.5435 69.6169 77.5435C70.305 78.6874 71.4695 79.2823 73.2161 79.2823C74.9648 79.2823 76.1273 78.6874 76.8163 77.5435C77.7092 77.5435 93.0927 77.5435 93.0927 77.5435V54.376L91.3989 54.375Z" fill="#182849"></path><path d="M62.5764 49.6761C65.8471 49.6761 68.4985 49.168 68.4985 48.5412C68.4985 47.9144 65.8471 47.4062 62.5764 47.4062C59.3057 47.4062 56.6543 47.9144 56.6543 48.5412C56.6543 49.168 59.3057 49.6761 62.5764 49.6761Z" fill="#182849"></path><path d="M70.7278 40.0764L67.3093 42.477L67.2804 42.7205L68.0923 43.0849C68.2531 43.1657 68.2551 43.2945 68.1732 43.3724L66.026 45.183L65.8213 45.1651L64.3013 42.9242C64.1975 42.7784 64.2344 42.6337 64.4172 42.6038L65.4378 42.4371V42.1795L62.7923 38.4414H62.3569L59.7114 42.1795V42.4371L60.7321 42.6038C60.9148 42.6347 60.9538 42.7794 60.8479 42.9242L59.3269 45.1651L59.1212 45.184L57.1169 43.3734C57.035 43.2955 57.036 43.1657 57.1958 43.0859L58.0087 42.7215L57.9797 42.478L54.4195 40.0774L54.1309 40.1902L56.2211 46.5745C57.2817 46.0983 59.7194 45.763 62.5726 45.749C65.4258 45.762 67.8646 46.0983 68.9242 46.5745L71.0154 40.1902L70.7278 40.0764Z" fill="#182849"></path><path d="M73.1956 92.4866C76.4662 92.4866 79.1177 91.9785 79.1177 91.3517C79.1177 90.7249 76.4662 90.2168 73.1956 90.2168C69.9249 90.2168 67.2734 90.7249 67.2734 91.3517C67.2734 91.9785 69.9249 92.4866 73.1956 92.4866Z" fill="#182849"></path><path d="M81.3479 82.886L77.9294 85.2875L77.9005 85.5311L78.7124 85.8954C78.8732 85.9753 78.8752 86.104 78.7933 86.1819L76.6461 87.9936L76.4414 87.9746L74.9214 85.7347C74.8176 85.589 74.8545 85.4443 75.0383 85.4133L76.0579 85.2476V84.9901L73.4114 81.252H72.977L70.3315 84.9901V85.2476L71.3522 85.4133C71.5349 85.4443 71.5739 85.589 71.468 85.7347L69.947 87.9746L69.7433 87.9936L67.738 86.1819C67.6561 86.104 67.6581 85.9753 67.8179 85.8954L68.6308 85.5311L68.5998 85.2875L65.0406 82.886L64.752 82.9987L66.8432 89.383C67.9038 88.9059 70.3415 88.5705 73.1947 88.5575C76.0479 88.5705 78.4857 88.9069 79.5463 89.383L81.6375 82.9987L81.3479 82.886Z" fill="#182849"></path><path d="M83.7893 49.6761C87.06 49.6761 89.7114 49.168 89.7114 48.5412C89.7114 47.9144 87.06 47.4062 83.7893 47.4062C80.5186 47.4062 77.8672 47.9144 77.8672 48.5412C77.8672 49.168 80.5186 49.6761 83.7893 49.6761Z" fill="#182849"></path><path d="M91.9416 40.0764L88.5232 42.477L88.4942 42.7205L89.3061 43.0849C89.4669 43.1657 89.4689 43.2945 89.387 43.3724L87.2399 45.183L87.0361 45.1651L85.5152 42.9242C85.4113 42.7784 85.4483 42.6337 85.631 42.6038L86.6527 42.4371V42.1795L84.0062 38.4414H83.5698L80.9243 42.1795V42.4371L81.9449 42.6038C82.1287 42.6347 82.1666 42.7794 82.0608 42.9242L80.5398 45.1651L80.3361 45.183L78.3307 43.3484C78.2498 43.2705 78.2498 43.1408 78.4096 43.0609L79.2245 42.7196L79.1936 42.476L75.6333 40.0754L75.3457 40.1882L77.4359 46.5725C78.4965 46.0964 80.9343 45.761 83.7875 45.747C86.6417 45.76 89.0794 46.0964 90.14 46.5725L92.2302 40.1882L91.9416 40.0764Z" fill="#182849"></path><path d="M73.148 24.1053C73.8187 24.1053 74.3624 23.5619 74.3624 22.8915C74.3624 22.2212 73.8187 21.6777 73.148 21.6777C72.4773 21.6777 71.9336 22.2212 71.9336 22.8915C71.9336 23.5619 72.4773 24.1053 73.148 24.1053Z" fill="#182849"></path><path d="M101.503 35.3572C102.174 35.3572 102.718 34.8138 102.718 34.1435C102.718 33.4731 102.174 32.9297 101.503 32.9297C100.833 32.9297 100.289 33.4731 100.289 34.1435C100.289 34.8138 100.833 35.3572 101.503 35.3572Z" fill="#182849"></path><path d="M59.7821 56.4004C59.6803 56.4004 59.6233 56.4144 59.5924 56.4313C59.5694 56.4393 59.5664 56.5421 59.5664 56.6519V58.3488C59.5664 58.7411 59.6643 58.817 59.876 58.817C60.2565 58.817 60.642 58.3977 60.642 57.6152C60.641 56.6659 60.1586 56.4004 59.7821 56.4004Z" fill="#182849"></path><path d="M63.3932 58.8871C63.7737 58.8871 63.9804 58.5198 63.9804 57.7212C63.9804 56.8338 63.6628 56.3438 63.2823 56.3438C62.9428 56.3438 62.6602 56.732 62.6602 57.5046C62.6592 58.3041 62.9598 58.8871 63.3932 58.8871Z" fill="#182849"></path><path d="M72.3436 57.7172C72.3436 55.9365 71.7404 54.5011 70.4361 53.7345C69.6192 53.2544 68.5117 53.0977 67.1465 53.0977L57.2656 53.0957V73.1259H68.0243C70.515 73.1259 71.979 73.6869 72.1069 75.9198H72.3456L72.3436 57.7172ZM65.0543 58.8791C65.267 58.8601 65.3499 58.8172 65.3768 58.6525C65.3998 58.5158 65.4248 58.2822 65.4467 57.8799L65.4957 56.9886C65.5266 56.4326 65.4917 56.3837 65.1421 56.3527V56.18H66.1808L66.9537 57.9298L67.6298 56.18H68.7034V56.3527C68.3678 56.3837 68.3509 56.4016 68.3629 56.8658L68.4068 58.3451C68.4208 58.8352 68.4278 58.8481 68.7473 58.8801V59.0508H67.3642V58.8801C67.6947 58.8481 67.7087 58.8352 67.7047 58.3451L67.6907 56.7899H67.6728L66.8199 59.0029H66.5812L65.7723 56.9446H65.7633L65.7324 57.9248C65.7184 58.3041 65.7234 58.5158 65.7413 58.6525C65.7593 58.8172 65.8562 58.8571 66.1428 58.8791V59.0498H65.0513V58.8791H65.0543ZM67.5579 63.2191L67.492 63.1872C67.1305 63.0195 66.719 62.7899 66.719 62.3178C66.719 61.8187 67.0806 61.4124 67.7756 61.4124C67.9125 61.4124 68.0543 61.4304 68.1821 61.4663C68.283 61.4923 68.3539 61.5093 68.4108 61.5282C68.4288 61.6999 68.4597 61.9165 68.5087 62.216L68.3139 62.2469C68.216 61.9554 68.0623 61.642 67.7127 61.642C67.487 61.642 67.3282 61.8137 67.3282 62.0263C67.3282 62.2469 67.5 62.3747 67.7826 62.5034L67.8805 62.5474C68.288 62.733 68.6365 62.9586 68.6365 63.4747C68.6365 64.0177 68.1991 64.4149 67.515 64.4149C67.3382 64.4149 67.1565 64.38 67.0366 64.3401C66.9058 64.2951 66.8119 64.2602 66.76 64.2333C66.725 64.0296 66.6661 63.7921 66.6132 63.4956L66.8079 63.4377C66.8998 63.6942 67.1615 64.1843 67.5939 64.1843C67.8236 64.1843 68.0003 64.0336 68.0003 63.7472C67.9993 63.4896 67.8266 63.3439 67.5579 63.2191ZM64.6488 61.8816C64.7287 62.1281 65.0782 62.9995 65.242 63.4317C65.3788 63.0564 65.6614 62.212 65.7314 62.0053C65.8252 61.7348 65.7973 61.6869 65.5985 61.666L65.4657 61.652V61.4793H66.5363V61.652C66.2826 61.6829 66.2227 61.7049 66.0489 62.1072C66.024 62.168 65.4847 63.4796 65.1531 64.381H64.8126C64.507 63.5864 64.0925 62.4945 63.9327 62.0792C63.7889 61.6999 63.6991 61.6779 63.4863 61.651V61.4783H64.9144V61.651L64.7646 61.668C64.6009 61.6869 64.6009 61.7259 64.6488 61.8816ZM63.3705 56.1132C64.1794 56.1132 64.8036 56.7051 64.8036 57.5795C64.8036 58.5247 64.1575 59.1157 63.3096 59.1157C62.4168 59.1157 61.8375 58.4668 61.8375 57.6543C61.8375 56.9387 62.3149 56.1132 63.3705 56.1132ZM58.457 59.0498V58.8791C58.7796 58.8511 58.8146 58.8212 58.8146 58.3441V56.8857C58.8146 56.4096 58.7796 56.3777 58.492 56.3517V56.179H59.7823C60.3266 56.179 60.777 56.2858 61.0716 56.5723C61.2803 56.771 61.4531 57.0974 61.4531 57.4777C61.4531 58.5776 60.6172 59.0498 59.5975 59.0498H58.457ZM61.3971 66.9513C61.0925 66.9772 61.0576 67.0082 61.0576 67.4853V68.9426C61.0576 69.4197 61.0925 69.4507 61.3971 69.4776V69.6493H59.966V69.4776C60.2706 69.4507 60.3066 69.4187 60.3066 68.9426V67.4853C60.3066 67.0082 60.2706 66.9782 59.966 66.9513V66.7786H61.3971V66.9513ZM61.468 64.35H60.3675V64.1784C60.5622 64.1684 60.6771 64.1075 60.6991 63.9518C60.717 63.815 60.734 63.5725 60.734 63.1083V62.2958C60.734 61.9694 60.724 61.9115 60.6361 61.7877C60.5702 61.6949 60.4594 61.665 60.3006 61.651V61.4783H61.2783L62.7493 63.311H62.7573V62.719C62.7573 62.2549 62.7403 62.0123 62.7234 61.8756C62.7014 61.7219 62.5816 61.664 62.2899 61.65V61.4773H63.4164V61.65C63.1957 61.659 63.0809 61.7209 63.0599 61.8756C63.0419 62.0123 63.023 62.2549 63.023 62.719V64.381H62.6435L61.0086 62.2958H60.9997V63.1083C60.9997 63.5725 61.0176 63.815 61.0346 63.9518C61.0576 64.1065 61.1764 64.1644 61.468 64.1784V64.35ZM63.8768 69.6493H61.6867V69.4776C62.0223 69.4507 62.0572 69.4187 62.0572 68.9426V67.4853C62.0572 67.0082 62.0223 66.9782 61.7257 66.9513V66.7786H63.1618V66.9513C62.8442 66.9772 62.8082 67.0082 62.8082 67.4853V69.0005C62.8082 69.2301 62.8172 69.3399 62.8961 69.3798C62.968 69.4157 63.0699 69.4197 63.2067 69.4197C63.3485 69.4197 63.5383 69.4068 63.6312 69.292C63.7011 69.2091 63.777 69.0893 63.8479 68.8548L64.0376 68.8857C64.0096 69.0534 63.9178 69.5126 63.8768 69.6493ZM66.3425 69.6493H64.1515V69.4776C64.488 69.4507 64.523 69.4187 64.523 68.9426V67.4853C64.523 67.0082 64.488 66.9782 64.1914 66.9513V66.7786H65.6275V66.9513C65.3089 66.9772 65.274 67.0082 65.274 67.4853V69.0005C65.274 69.2301 65.2839 69.3399 65.3638 69.3798C65.4337 69.4157 65.5356 69.4197 65.6724 69.4197C65.8142 69.4197 66.004 69.4068 66.0969 69.292C66.1678 69.2091 66.2427 69.0893 66.3136 68.8548L66.5033 68.8857C66.4774 69.0534 66.3835 69.5126 66.3425 69.6493ZM69.1089 66.9513C68.8562 66.9822 68.7953 67.0042 68.6225 67.4064C68.5965 67.4683 68.0573 68.7799 67.7257 69.6803H67.3852C67.0786 68.8857 66.6641 67.7937 66.5053 67.3785C66.3585 66.9992 66.2716 66.9772 66.0589 66.9503V66.7776H67.487V66.9503L67.3372 66.9672C67.1734 66.9852 67.1734 67.0251 67.2224 67.1799C67.3023 67.4264 67.6518 68.2978 67.8156 68.73C67.9524 68.3547 68.235 67.5112 68.3049 67.3036C68.3978 67.0341 68.3708 66.9852 68.1721 66.9632L68.0393 66.9503V66.7776H69.1089V66.9513ZM70.48 56.3517C70.1734 56.3777 70.1395 56.4096 70.1395 56.8857V58.3441C70.1395 58.8212 70.1734 58.8511 70.48 58.8791V59.0498H69.0479V58.8791C69.3525 58.8511 69.3875 58.8212 69.3875 58.3441V56.8857C69.3875 56.4096 69.3525 56.3777 69.0479 56.3517V56.179H70.48V56.3517Z" fill="#182849"></path><path d="M85.8722 57.1738L85.5996 58.0173H86.1649L85.8862 57.1738H85.8722Z" fill="#182849"></path><path d="M83.3984 62.9011C83.3984 63.7006 83.699 64.2846 84.1315 64.2846C84.512 64.2846 84.7197 63.9172 84.7197 63.1177C84.7197 62.2293 84.4031 61.7402 84.0216 61.7402C83.6811 61.7402 83.3984 62.1285 83.3984 62.9011Z" fill="#182849"></path><path d="M84.8332 67.7734L84.5605 68.6169H85.1258L84.8472 67.7734H84.8332Z" fill="#182849"></path><path d="M79.2615 53.0987C77.8983 53.0987 76.7898 53.2554 75.9729 53.7355C74.6676 54.5021 74.0655 55.9374 74.0655 57.7182L74.0645 75.9218H74.3021C74.43 73.6889 75.895 73.1279 78.3847 73.1279H89.2133V53.0977L79.2615 53.0987ZM81.5914 56.2758H82.5681L84.0392 58.1085H84.0472V57.5165C84.0472 57.0524 84.0302 56.8098 84.0132 56.6731C83.9902 56.5194 83.8714 56.4615 83.5798 56.4485V56.2758H84.7063V56.4485C84.4856 56.4565 84.3707 56.5194 84.3488 56.6731C84.3318 56.8098 84.3128 57.0524 84.3128 57.5165V59.1775H83.9343L82.2985 57.0923H82.2895V57.9048C82.2895 58.368 82.3075 58.6115 82.3245 58.7483C82.3474 58.903 82.4663 58.9599 82.7579 58.9749V59.1466H81.6583V58.9749C81.8521 58.9649 81.9669 58.904 81.9879 58.7483C82.0069 58.6115 82.0239 58.368 82.0239 57.9048V57.0923C82.0239 56.7659 82.0139 56.708 81.926 56.5853C81.8601 56.4924 81.7482 56.4615 81.5914 56.4485V56.2758ZM85.5422 62.9765C85.5422 63.9218 84.897 64.5127 84.0482 64.5127C83.1564 64.5127 82.5771 63.8639 82.5771 63.0514C82.5771 62.3357 83.0535 61.5102 84.1091 61.5102C84.919 61.5102 85.5422 62.1021 85.5422 62.9765ZM82.2086 64.2751V64.4468H80.7765V64.2751C81.0811 64.2482 81.1161 64.2162 81.1161 63.7401V62.2828C81.1161 61.8057 81.0811 61.7747 80.7765 61.7488V61.5761H82.2086V61.7488C81.902 61.7747 81.8681 61.8057 81.8681 62.2828V63.7401C81.8691 64.2172 81.903 64.2482 82.2086 64.2751ZM79.9336 58.9759C80.2392 58.9489 80.2742 58.918 80.2742 58.4408V56.9825C80.2742 56.5064 80.2392 56.4745 79.9336 56.4485V56.2758H81.3647V56.4485C81.0601 56.4745 81.0252 56.5054 81.0252 56.9825V58.4408C81.0252 58.918 81.0601 58.9489 81.3647 58.9759V59.1476H79.9336V58.9759ZM79.9596 64.2751V64.4468H78.4157V64.2751C78.7692 64.2482 78.8041 64.2162 78.8041 63.7401V61.8057H78.7292C78.4336 61.8057 78.3128 61.8596 78.2429 61.9394C78.19 62.0043 78.138 62.1201 78.0791 62.3676H77.8934C77.9123 61.9963 77.9383 61.6919 77.9463 61.4673H78.0841C78.151 61.5681 78.194 61.5771 78.3128 61.5771H80.0764C80.1913 61.5771 80.2133 61.5511 80.2852 61.4673H80.422C80.426 61.653 80.448 62.0283 80.4699 62.3547L80.2762 62.3686C80.2103 62.1041 80.1623 61.9883 80.0954 61.9135C80.0205 61.8336 79.8737 61.8077 79.662 61.8077H79.5541V63.7421C79.5541 64.2172 79.5901 64.2482 79.9596 64.2751ZM77.0305 59.1476H75.94V58.9759C76.1517 58.9579 76.2356 58.914 76.2615 58.7493C76.2835 58.6125 76.3105 58.378 76.3314 57.9767L76.3804 57.0853C76.4113 56.5294 76.3764 56.4804 76.0268 56.4495V56.2768H77.0645L77.8384 58.0266L78.5155 56.2768H79.5891V56.4495C79.2525 56.4804 79.2346 56.4974 79.2475 56.9616L79.2915 58.4408C79.3055 58.9309 79.3135 58.9439 79.632 58.9759V59.1476H78.2499V58.9759C78.5794 58.9439 78.5944 58.9309 78.5894 58.4408L78.5754 56.8857H78.5575L77.7046 59.0986H77.4659L76.657 57.0404H76.648L76.6181 58.0216C76.6031 58.4009 76.6081 58.6125 76.626 58.7493C76.644 58.913 76.7409 58.9529 77.0275 58.9759V59.1476H77.0305ZM80.9024 69.7471H79.5192V69.5754C79.8507 69.5445 79.8647 69.5305 79.8587 69.0404L79.8468 67.4852H79.8288L78.9749 69.6982H78.7382L77.9293 67.64H77.9193L77.8894 68.6202C77.8754 68.9995 77.8804 69.2111 77.8983 69.3478C77.9163 69.5115 78.0112 69.5515 78.2998 69.5744V69.7461H77.2073V69.5744C77.42 69.5554 77.5039 69.5125 77.5308 69.3478C77.5518 69.2111 77.5788 68.9765 77.5997 68.5752L77.6497 67.6829C77.6806 67.1259 77.6447 67.078 77.2962 67.047V66.8744H78.3348L79.1077 68.6232L79.7838 66.8744H80.8584V67.047C80.5229 67.078 80.5059 67.096 80.5169 67.5591L80.5618 69.0384C80.5748 69.5285 80.5828 69.5415 80.9014 69.5734L80.9024 69.7471ZM83.416 69.7471H81.167V69.5754C81.5065 69.5485 81.5415 69.5165 81.5415 69.0404V67.5821C81.5415 67.1049 81.5065 67.075 81.2119 67.048V66.8754H83.3052C83.3101 66.9512 83.3321 67.2736 83.3541 67.604L83.1603 67.618C83.1154 67.4014 83.0675 67.2786 82.9966 67.2068C82.9277 67.1319 82.7808 67.1049 82.5472 67.1049H82.4723C82.3035 67.1049 82.2955 67.1049 82.2955 67.2597V68.1121H82.5162C82.8957 68.1121 82.9087 68.0861 82.9536 67.7498H83.1484V68.7918H82.9536C82.9087 68.4036 82.8957 68.3776 82.5162 68.3776H82.2955V69.0973C82.2955 69.3279 82.3035 69.4367 82.3834 69.4766C82.4543 69.5125 82.5552 69.5165 82.693 69.5165C82.8697 69.5165 83.0645 69.4906 83.1613 69.3848C83.2362 69.3049 83.3111 69.1422 83.3791 68.9296L83.5718 68.9605C83.5488 69.1771 83.4569 69.6273 83.416 69.7471ZM86.5099 69.7471H85.1217V69.5754L85.2556 69.5564C85.4173 69.5345 85.4263 69.4906 85.3694 69.3309L85.2106 68.8807H84.4856L84.3518 69.3049C84.2948 69.4946 84.2948 69.5385 84.4986 69.5604L84.6274 69.5744V69.7461H83.5978V69.5744C83.8235 69.5435 83.8894 69.5245 84.0352 69.1542L84.92 66.8714L85.2256 66.8095L85.5262 67.644C85.7159 68.17 85.9047 68.691 86.0725 69.1412C86.2153 69.5245 86.2952 69.5465 86.5109 69.5744L86.5099 69.7471ZM87.5475 59.1476H86.1584V58.9759L86.2932 58.9579C86.455 58.9359 86.4639 58.891 86.406 58.7323L86.2482 58.2821H85.5222L85.3894 58.7064C85.3325 58.897 85.3325 58.9399 85.5352 58.9619L85.663 58.9759V59.1476H84.6354V58.9759C84.8601 58.9439 84.928 58.926 85.0738 58.5556L85.9576 56.2728L86.2622 56.2109L86.5618 57.0454C86.7526 57.5704 86.9433 58.0925 87.1101 58.5427C87.2529 58.926 87.3328 58.9489 87.5495 58.9759V59.1476H87.5475Z" fill="#182849"></path><path d="M67.9488 107.322C68.6194 107.322 69.1631 106.779 69.1631 106.108C69.1631 105.438 68.6194 104.895 67.9488 104.895C67.2781 104.895 66.7344 105.438 66.7344 106.108C66.7344 106.779 67.2781 107.322 67.9488 107.322Z" fill="#182849"></path><path d="M79.9077 109.281C80.5784 109.281 81.1221 108.738 81.1221 108.067C81.1221 107.397 80.5784 106.854 79.9077 106.854C79.2371 106.854 78.6934 107.397 78.6934 108.067C78.6934 108.738 79.2371 109.281 79.9077 109.281Z" fill="#182849"></path><path d="M40.6771 83.2422C41.0926 83.2442 42.268 83.357 43.2637 84.7724C43.6731 85.3534 43.9638 86.0401 43.9618 86.7578C43.9598 87.9456 43.3805 88.6333 41.9854 89.6135L38.2843 92.2237L37.2777 90.7914L41.4221 87.8687C41.8056 87.5992 42.317 87.157 42.3179 86.5891C42.3179 86.2767 42.276 86.0221 41.9924 85.6179C41.553 84.993 41.0926 84.9401 40.801 84.9391C40.3616 84.9381 39.9461 85.2036 39.0543 85.8305L35.4631 88.1712L34.4844 86.7797L38.2973 84.2853C39.305 83.5786 39.9551 83.2382 40.6771 83.2422Z" fill="#182849"></path><path d="M34.0886 79.86L39.1548 77.8737L39.7011 79.2931L32.0533 82.2566L31.512 80.7764L35.4687 75.7396L30.3665 77.5213L29.8223 76.0291L37.54 73.332L38.0523 74.7315L34.0886 79.86Z" fill="#182849"></path><path d="M28.5918 69.6908L36.716 68.4551L36.9796 70.1839L28.8544 71.4186L28.5918 69.6908Z" fill="#182849"></path><path d="M36.4247 63.0641L28.0938 65.5595L28.1677 63.7987L34.4173 62.1158L28.3334 59.8749L28.4053 58.1641L36.4956 61.3652L36.4247 63.0641Z" fill="#182849"></path><path d="M29.2773 53.7188L30.6395 48.9336L31.9907 49.3179L31.1009 52.4451L32.9375 52.9682L33.7734 50.0316L35.1006 50.4079L34.2637 53.3455L36.278 53.9184L37.1948 50.6964L38.57 51.0866L37.1808 55.9667L29.2773 53.7188Z" fill="#182849"></path><path d="M41.8263 44.504L39.3916 44.2894C38.2391 44.1826 38.1272 44.4581 37.8027 45.04L37.7058 45.2107L40.595 46.7459L39.7371 48.2651L32.5117 44.3124L33.6961 42.2332C34.2304 41.2759 34.7997 40.2578 36.2457 40.2578C37.1535 40.2578 38.4169 41.0204 38.4169 42.3919C38.4169 42.6354 38.3579 42.892 38.2561 43.1615C38.5816 42.6933 39.1699 42.6235 39.7041 42.6295C40.0017 42.6315 40.2924 42.6764 40.533 42.6963L42.7261 42.889L41.8263 44.504ZM35.7594 42.0176C35.341 42.1354 35.1232 42.4588 34.8107 43.0177L34.54 43.4829L36.5334 44.5569L36.8689 43.954C37.1515 43.449 37.2135 43.1595 37.1136 42.8081C37.0377 42.5396 36.785 42.2581 36.5384 42.1204C36.2487 41.9587 35.9611 41.9597 35.7594 42.0176Z" fill="#182849"></path><path d="M45.4648 28.3314L46.862 27.2793L51.8074 33.8383L50.4113 34.8913L45.4648 28.3314Z" fill="#182849"></path><path d="M54.6887 24.2592L57.8116 30.3121L56.2566 31.1136L53.1338 25.0607L51.1305 26.0938L50.4863 24.8461L56.0389 21.9844L56.6821 23.2321L54.6887 24.2592Z" fill="#182849"></path><path d="M64.3055 24.6983L65.0975 27.8765L63.4726 28.2817L62.6797 25.1026L58.9746 20.9362L60.6963 20.507L63.1471 23.3727L63.971 19.6855L65.6218 19.2812L64.3055 24.6983Z" fill="#182849"></path><path d="M94.0532 27.65L96.6477 29.1932L95.9417 30.379L93.3481 28.8359L91.5445 31.8613L90.0625 30.9799L94.2679 23.9219L98.4803 26.4293L97.7622 27.6351L95.0319 26.01L94.0532 27.65Z" fill="#182849"></path><path d="M108.822 54.3356L111.069 51.8642L107.807 51.0926L107.27 49.3767L112.12 50.6444L115.162 47.0859L115.725 48.8836L113.638 51.1625L116.669 51.8921L117.193 53.573L112.683 52.3662L109.381 56.1233L108.822 54.3356Z" fill="#182849"></path><path d="M116.684 60.1897L114.778 60.3434L114.981 63.3778L113.603 63.4696L113.401 60.4592L109.886 60.6957L109.768 59.0458L117.972 58.375L118.299 63.3139L116.897 63.4078L116.684 60.1897Z" fill="#182849"></path><path d="M122.459 64.2194C122.679 37.1232 100.763 14.899 73.6066 14.6794C60.9165 14.5766 48.8266 19.2819 39.5639 27.9281C29.6102 37.221 24.0666 49.8269 23.9567 63.4229C23.8249 79.6352 31.6934 94.8113 45.0107 104.108C46.275 109.374 51.0307 113.304 56.7031 113.304C58.326 113.304 59.8979 112.988 61.3809 112.366C62.9598 112.866 64.5786 113.289 66.1935 113.628C65.6692 115.07 64.9252 116.43 64.2011 117.66L65.3806 118.838C65.6622 118.651 65.9927 118.56 66.3253 118.558C67.2271 118.558 68.091 119.175 68.084 120.287C68.084 121.191 67.4738 122.039 66.2055 122.037C65.5184 122.037 64.6276 121.675 64.1472 120.645C64.1472 120.645 63.8276 121.647 63.8276 122.854C63.8276 126.507 67.8013 130.53 73.1173 132.214C78.4641 130.543 82.4209 126.507 82.4209 122.854C82.4209 121.647 82.1013 120.645 82.1013 120.645C81.6219 121.674 80.7301 122.037 80.042 122.037C78.7747 122.039 78.1645 121.191 78.1645 120.287C78.1576 119.175 79.0204 118.558 79.9222 118.558C80.2538 118.56 80.5853 118.652 80.8679 118.838L81.9505 117.762L81.9775 117.746L82.0224 117.689C82.0284 117.693 82.0344 117.693 82.0384 117.697L82.0404 117.668L82.0464 117.66L82.0424 117.65V117.648C81.5101 116.376 81.1216 115.214 80.849 114.106C89.6672 112.898 97.1103 109.156 103.036 102.931L103.026 102.919C115.254 93.6275 122.333 79.5703 122.459 64.2194ZM56.7021 111.651C51.0277 111.651 46.4128 107.021 46.4128 101.33C46.4128 99.5506 46.8632 97.8757 47.6562 96.4134C48.1825 96.8915 48.7447 97.3876 49.3289 97.8886C48.8276 98.9467 48.539 100.122 48.539 101.365C48.539 104.456 50.0979 107.007 53.045 108.745C54.7547 109.754 56.6951 110.661 58.7504 111.449C58.0813 111.584 57.3972 111.651 56.7021 111.651ZM73.2071 96.581C71.2817 96.581 69.3862 96.4064 67.5227 96.08C65.5144 91.9915 61.279 89.3543 56.7031 89.3543C55.5307 89.3543 54.3992 89.53 53.3266 89.8424C45.2544 83.6608 40.4478 74.0015 40.4478 63.8212C40.4478 45.7583 55.1442 31.0623 73.2071 31.0623C91.2711 31.0623 105.967 45.7583 105.967 63.8212C105.967 81.886 91.2711 96.581 73.2071 96.581ZM80.1978 97.5243C79.349 98.8918 78.8287 100.67 78.6489 102.469C75.6489 101.684 72.9215 100.647 70.5287 99.5626C70.8603 98.8708 71.6362 98.229 72.9595 98.229C73.0434 98.229 73.1243 98.235 73.2071 98.235C75.601 98.235 77.9388 97.9895 80.1978 97.5243ZM69.7208 98.0623C69.4501 98.3009 69.2234 98.5704 69.0387 98.8599C67.9861 98.4147 65.9578 97.4664 65.2997 97.0711C66.3403 97.4065 68.6662 97.9575 69.7208 98.0623ZM56.7021 91.0073C60.1485 91.0073 63.3762 92.775 65.2687 95.6088C63.6049 95.1946 61.9701 94.6516 60.3782 93.9728L60.3732 93.9828L60.3263 93.9569C59.2168 93.4328 58.0264 93.1673 56.792 93.1673C54.0467 93.1673 51.6169 94.5108 50.1159 96.5651C49.4877 96.2157 48.8606 95.8494 48.2434 95.4651C50.1029 92.776 53.1998 91.0073 56.7021 91.0073ZM79.7774 117.035C77.8889 117.035 76.4878 118.506 76.4878 120.323C76.4878 122.444 77.9718 123.719 79.8853 123.719C80.1229 123.719 80.3556 123.692 80.5793 123.645C80.0091 126.289 76.8832 129.151 73.1163 130.432C69.4152 129.151 66.2374 126.29 65.6682 123.645C65.8929 123.692 66.1246 123.719 66.3623 123.719C68.2747 123.719 69.7587 122.444 69.7587 120.323C69.7587 118.506 68.3586 117.035 66.4691 117.035C66.9455 116.159 67.4858 115.081 67.8852 113.95C70.1083 114.332 72.2964 114.541 74.3346 114.541C75.9785 114.541 77.5783 114.455 79.1402 114.302C79.351 115.106 79.8583 116.647 79.9931 117.048C79.9262 117.039 79.8563 117.035 79.7774 117.035ZM74.3366 112.886C67.7784 112.886 59.5903 110.657 53.9648 107.34C52.285 106.35 50.2817 104.508 50.2817 101.365C50.2817 100.549 50.4385 99.7682 50.7111 99.0475C52.8363 100.796 55.0144 102.42 56.3895 103.175C56.7131 103.353 56.9009 103.439 57.2774 103.439C58.1801 103.439 58.9142 102.705 58.9142 101.797C58.9142 101.105 58.5377 100.543 57.9155 100.272C56.7361 99.7552 54.2913 98.7441 51.6409 97.3816C52.8323 95.8284 54.6948 94.8243 56.792 94.8243C57.7557 94.8243 58.6845 95.0309 59.5513 95.4391L61.3419 96.4832C67.0344 99.9588 81.585 108.838 99.2165 104.226C92.5564 110.038 84.3863 112.886 74.3366 112.886ZM101.888 101.667C94.0075 104.444 86.6482 104.266 80.3546 102.879C80.5554 100.186 81.559 97.2019 83.2198 96.7517C97.376 92.4616 107.709 79.3237 107.709 63.8212C107.709 44.846 92.2308 29.4083 73.2071 29.4083C54.1825 29.4083 38.7041 44.846 38.7041 63.8212C38.7041 74.1852 43.4548 84.0461 51.4881 90.5531C49.6056 91.4585 47.9997 92.8399 46.8163 94.5338C46.251 94.1405 45.7058 93.7343 45.1974 93.317L44.8759 93.6394C45.2254 94.0617 45.7447 94.6037 46.3749 95.2136C45.2963 97.0043 44.6691 99.0934 44.6691 101.329C44.6691 101.483 44.6871 101.633 44.6921 101.784C32.6481 92.7361 25.5756 78.5561 25.6984 63.4349C25.8052 50.28 31.1631 38.0884 40.7853 29.1059C49.7154 20.7692 61.3669 16.2335 73.5916 16.3323C99.7868 16.544 120.927 38.0205 120.715 64.2065C120.595 79.0772 113.735 92.6902 101.888 101.667Z" fill="#182849"></path><path d="M46.9581 37.1495C46.9581 37.8532 46.6505 38.5958 46.0353 39.2676C44.8539 40.5582 43.5945 40.676 43.4647 40.673L43.1072 39.3115C43.3049 39.2586 44.2307 39.07 44.8868 38.3513C45.1834 38.0269 45.3372 37.6815 45.3372 37.3761C45.3372 37.0517 45.1235 36.4887 44.4544 36.4887C43.7403 36.4887 42.5459 37.5228 41.3216 37.5228C40.8512 37.5228 40.3289 37.4569 39.7846 36.9578C39.2593 36.4777 39.0156 35.8639 39.0156 35.241C39.0156 34.5602 39.3272 33.8446 39.9044 33.2127C41.002 32.0139 42.2094 31.9161 42.3142 31.9121L42.6088 33.2487C42.47 33.2726 41.5722 33.4692 41.015 34.0781C40.7283 34.3906 40.5765 34.7309 40.5765 35.0294C40.5765 35.3528 40.7823 35.7491 41.3166 35.7571C41.9038 35.764 43.3818 34.684 44.5832 34.684C45.1405 34.684 45.5459 34.7828 46.1092 35.2989C46.6754 35.8149 46.9581 36.4648 46.9581 37.1495Z" fill="#182849"></path><path d="M84.817 28.8908C82.7198 28.8908 80.8184 27.2947 80.8184 24.8951C80.8184 22.7521 82.2554 20.2656 84.866 20.2656C86.9901 20.2656 88.9565 21.7659 88.9565 24.1794C88.9555 25.9961 87.7292 28.8908 84.817 28.8908ZM87.2039 24.1575C87.2039 23.5905 87.075 22.9966 86.7305 22.5365C86.375 22.0583 85.7897 21.7239 85.0947 21.7239C83.6216 21.7239 82.5431 23.5506 82.5431 25.0578C82.5431 26.4573 83.4888 27.4085 84.7591 27.4085C86.4259 27.4095 87.2039 25.2455 87.2039 24.1575Z" fill="#182849"></path><path d="M107.614 46.4414C105.113 46.4414 103.734 44.0328 103.734 42.4168C103.734 39.9663 106.373 38.0938 108.434 38.0938C110.681 38.0938 112.33 40.2298 112.33 42.1653C112.331 44.3652 110.031 46.4414 107.614 46.4414ZM107.322 44.7755C108.765 44.7755 110.766 43.5278 110.766 41.8479C110.766 40.691 109.867 39.7886 108.714 39.7886C107.364 39.7886 105.305 40.9884 105.305 42.6823C105.305 43.5857 105.996 44.7755 107.322 44.7755Z" fill="#182849"></path><path d="M109.232 70.6388C109.232 68.6105 110.607 66.6172 113.338 66.6172C115.635 66.6172 117.855 68.0326 117.855 70.5739C117.855 72.6611 116.517 74.6674 113.803 74.6674C111.483 74.6674 109.232 73.2021 109.232 70.6388ZM113.894 72.9126C115.351 72.9126 116.419 72.0213 116.419 70.7137C116.419 69.1525 114.609 68.358 113.214 68.358C111.427 68.358 110.7 69.5199 110.7 70.6119C110.701 72.3217 112.798 72.9126 113.894 72.9126Z" fill="#182849"></path><path d="M106.106 80.3223L108.549 80.3323C109.708 80.3423 109.797 80.0588 110.071 79.4529L110.152 79.2732L107.212 77.9088L107.917 76.3496L115.356 79.7813L114.403 81.9214C113.751 83.3607 113.192 84.0874 111.829 84.0874C110.953 84.0874 109.668 83.3597 109.678 82.0212C109.68 81.8156 109.708 81.595 109.775 81.3604C109.337 82.12 108.236 82.0142 107.547 82.0142L105.346 82.0042L106.106 80.3223ZM110.872 81.2366C110.872 81.8645 111.4 82.3636 111.987 82.3636C112.512 82.3636 112.841 82.0751 113.148 81.3924L113.407 80.7785L111.376 79.8252L111.037 80.5828C110.924 80.8314 110.872 81.05 110.872 81.2366Z" fill="#182849"></path><path d="M101.104 89.4057C101.104 87.7248 101.882 86.8104 102.869 85.5967L103.936 84.2891L110.31 89.4735L108.878 91.2303C108.07 92.2225 107.119 93.4443 105.289 93.4443C104.248 93.4443 103.335 92.9621 102.687 92.4351C101.878 91.7773 101.104 90.6614 101.104 89.4057ZM105.482 91.8152C106.35 91.8152 106.852 91.5547 107.849 90.331L108.16 89.9487L103.926 86.505L103.405 87.1448C102.896 87.7727 102.631 88.3885 102.631 88.9834C102.631 89.773 103.023 90.4687 103.823 91.1225C104.4 91.5887 104.93 91.8152 105.482 91.8152Z" fill="#182849"></path></svg> 