<?xml version="1.0" encoding="UTF-8"?> <svg xmlns="http://www.w3.org/2000/svg" viewBox="5790 5234.5 779.05615234375 198.60302734375"><path fill="black" fill-opacity="1" stroke="" stroke-opacity="1" stroke-width="1" fill-rule="evenodd" id="tSvg428d5db786" d="M 6167.954 5361.398 C 6166.531 5363.319 6164.539 5364.911 6161.977 5366.174 C 6159.417 5367.437 6156.09 5368.069 6151.998 5368.069 C 6148.655 5368.069 6145.666 5367.633 6143.034 5366.762 C 6140.401 5365.89 6138.169 5364.627 6136.3369999999995 5362.973 C 6134.503 5361.318 6133.109 5359.309 6132.147 5356.943 C 6131.187 5354.578 6130.707 5351.883 6130.707 5348.858 C 6130.707 5347.845 6130.707 5347.845 6130.707 5347.845 C 6130.707 5344.679 6131.187 5341.886 6132.147 5339.466 C 6133.109 5337.047 6134.503 5335.0114 6136.3369999999995 5333.3567 C 6138.169 5331.7034 6140.401 5330.4581 6143.034 5329.6221 C 6145.666 5328.7861 6148.655 5328.3674 6151.998 5328.3674 C 6157.655 5328.3674 6162.253 5329.5234 6165.793 5331.8367 C 6169.331 5334.1487 6171.493 5337.635 6172.275 5342.295 C 6166.621 5342.295 6166.621 5342.295 6166.621 5342.295 C 6166.263 5340.907 6165.667 5339.635 6164.831 5338.479 C 6163.997 5337.323 6162.946 5336.345 6161.683 5335.545 C 6160.421 5334.7447 6158.979 5334.1221 6157.362 5333.6767 C 6155.742 5333.2327 6153.955 5333.0101 6151.998 5333.0101 C 6149.401 5333.0101 6147.115 5333.3834 6145.142 5334.1301 C 6143.167 5334.8767 6141.521 5335.927 6140.206 5337.279 C 6138.889 5338.631 6137.902 5340.241 6137.243 5342.109 C 6136.585 5343.977 6136.257 5346.049 6136.257 5348.325 C 6136.257 5350.495 6136.585 5352.506 6137.243 5354.354 C 6137.902 5356.205 6138.889 5357.797 6140.206 5359.13 C 6141.521 5360.465 6143.167 5361.514 6145.142 5362.278 C 6147.115 5363.045 6149.401 5363.426 6151.998 5363.426 C 6154.489 5363.426 6156.659 5363.142 6158.509 5362.573 C 6160.358 5362.003 6161.933 5361.221 6163.231 5360.225 C 6164.53 5359.229 6165.561 5358.082 6166.326 5356.783 C 6167.091 5355.485 6167.598 5354.106 6167.847 5352.647 C 6147.623 5352.647 6147.623 5352.647 6147.623 5352.647 C 6147.623 5352.647 6147.623 5347.845 6147.623 5347.845 C 6147.623 5347.845 6173.183 5347.845 6173.183 5347.845 C 6173.183 5347.845 6173.183 5366.842 6173.183 5366.842 C 6173.183 5366.842 6167.954 5366.842 6167.954 5366.842 C 6167.954 5366.842 6167.954 5361.398 6167.954 5361.398"></path><path fill="black" fill-opacity="1" stroke="" stroke-opacity="1" stroke-width="1" fill-rule="evenodd" id="tSvg71b1da52df" d="M 6211.87 5362.199 C 6211.87 5366.895 6211.87 5366.895 6211.87 5366.895 C 6211.87 5366.895 6180.174 5366.895 6180.174 5366.895 C 6180.174 5366.895 6180.174 5329.5413 6180.174 5329.5413 C 6180.174 5329.5413 6185.403 5329.5413 6185.403 5329.5413 C 6185.403 5329.5413 6185.403 5362.199 6185.403 5362.199 C 6185.403 5362.199 6211.87 5362.199 6211.87 5362.199"></path><path fill="black" fill-opacity="1" stroke="" stroke-opacity="1" stroke-width="1" fill-rule="evenodd" id="tSvg165053d321a" d="M 6236.842 5333.0632 C 6234.388 5333.0632 6232.154 5333.3831 6230.146 5334.0232 C 6228.136 5334.6645 6226.428 5335.616 6225.022 5336.879 C 6223.617 5338.142 6222.533 5339.726 6221.768 5341.628 C 6221.002 5343.531 6220.621 5345.763 6220.621 5348.326 C 6220.621 5350.78 6221.002 5352.94 6221.768 5354.808 C 6222.533 5356.676 6223.617 5358.242 6225.022 5359.504 C 6226.428 5360.767 6228.136 5361.727 6230.146 5362.386 C 6232.154 5363.044 6234.388 5363.372 6236.842 5363.372 C 6239.2970000000005 5363.372 6241.529 5363.054 6243.5380000000005 5362.412 C 6245.549 5361.772 6247.256 5360.82 6248.661 5359.558 C 6250.066 5358.295 6251.152 5356.728 6251.917 5354.862 C 6252.681 5352.995 6253.064 5350.815 6253.064 5348.326 C 6253.064 5345.871 6252.681 5343.7 6251.917 5341.815 C 6251.152 5339.93 6250.066 5338.338 6248.661 5337.039 C 6247.256 5335.742 6245.549 5334.7538 6243.5380000000005 5334.0778 C 6241.529 5333.4018 6239.2970000000005 5333.0632 6236.842 5333.0632Z M 6215.07 5347.844 C 6215.178 5344.464 6215.773 5341.548 6216.858 5339.094 C 6217.944 5336.639 6219.437 5334.6205 6221.341 5333.0365 C 6223.244 5331.4552 6225.502 5330.2805 6228.117 5329.5152 C 6230.732 5328.7512 6233.64 5328.3685 6236.842 5328.3685 C 6240.044 5328.3685 6242.9529999999995 5328.7685 6245.568 5329.5685 C 6248.181 5330.3685 6250.44 5331.5698 6252.344 5333.1698 C 6254.246 5334.7711 6255.741 5336.79 6256.826 5339.227 C 6257.912 5341.664 6258.506 5344.536 6258.614 5347.844 C 6258.614 5348.806 6258.614 5348.806 6258.614 5348.806 C 6258.506 5352.114 6257.912 5354.987 6256.826 5357.423 C 6255.741 5359.86 6254.246 5361.862 6252.344 5363.427 C 6250.44 5364.992 6248.181 5366.156 6245.568 5366.922 C 6242.9529999999995 5367.686 6240.044 5368.068 6236.842 5368.068 C 6233.64 5368.068 6230.732 5367.686 6228.117 5366.922 C 6225.502 5366.156 6223.244 5364.983 6221.341 5363.399 C 6219.437 5361.816 6217.944 5359.815 6216.858 5357.396 C 6215.773 5354.978 6215.178 5352.114 6215.07 5348.806 C 6215.07 5347.844 6215.07 5347.844 6215.07 5347.844"></path><path fill="black" fill-opacity="1" stroke="" stroke-opacity="1" stroke-width="1" fill-rule="evenodd" id="tSvg13d7fcd0d33" d="M 6269.179 5362.199 C 6288.762 5362.199 6288.762 5362.199 6288.762 5362.199 C 6290.577 5362.199 6292.053 5362.048 6293.191 5361.745 C 6294.33 5361.444 6295.21 5360.997 6295.833 5360.412 C 6296.455 5359.824 6296.882 5359.123 6297.114 5358.304 C 6297.345 5357.485 6297.461 5356.579 6297.461 5355.583 C 6297.461 5354.551 6297.354 5353.643 6297.141 5352.86 C 6296.927 5352.079 6296.501 5351.403 6295.861 5350.833 C 6295.219 5350.264 6294.321 5349.837 6293.166 5349.552 C 6292.009 5349.268 6290.489 5349.125 6288.602 5349.125 C 6269.179 5349.125 6269.179 5349.125 6269.179 5349.125 C 6269.179 5349.125 6269.179 5362.199 6269.179 5362.199 M 6269.179 5344.429 C 6286.789 5344.429 6286.789 5344.429 6286.789 5344.429 C 6288.318 5344.429 6289.634 5344.359 6290.737 5344.216 C 6291.839 5344.075 6292.738 5343.808 6293.431 5343.416 C 6294.126 5343.025 6294.641 5342.481 6294.979 5341.788 C 6295.318 5341.095 6295.486 5340.213 6295.486 5339.147 C 6295.486 5338.08 6295.299 5337.217 6294.926 5336.559 C 6294.553 5335.901 6294.001 5335.4027 6293.271 5335.064 C 6292.543 5334.7267 6291.626 5334.504 6290.523 5334.3973 C 6289.421 5334.2907 6288.139 5334.2373 6286.682 5334.2373 C 6269.179 5334.2373 6269.179 5334.2373 6269.179 5334.2373 C 6269.179 5334.2373 6269.179 5344.429 6269.179 5344.429 M 6303.117 5356.009 C 6303.117 5359.887 6301.898 5362.671 6299.4619999999995 5364.36 C 6297.025 5366.051 6293.458 5366.895 6288.762 5366.895 C 6263.95 5366.895 6263.95 5366.895 6263.95 5366.895 C 6263.95 5366.895 6263.95 5329.5413 6263.95 5329.5413 C 6263.95 5329.5413 6287.269 5329.5413 6287.269 5329.5413 C 6289.367 5329.5413 6291.262 5329.6747 6292.951 5329.9413 C 6294.641 5330.208 6296.091 5330.688 6297.301 5331.3827 C 6298.51 5332.076 6299.443 5333.0013 6300.102 5334.1573 C 6300.761 5335.3133 6301.09 5336.799 6301.09 5338.613 C 6301.09 5340.535 6300.681 5342.108 6299.862 5343.336 C 6299.043 5344.563 6297.995 5345.551 6296.714 5346.297 C 6298.811 5347.044 6300.403 5348.157 6301.49 5349.632 C 6302.574 5351.108 6303.117 5353.235 6303.117 5356.009Z"></path><path fill="black" fill-opacity="1" stroke="" stroke-opacity="1" stroke-width="1" fill-rule="evenodd" id="tSvg10ca05ca0ab" d="M 6319.499 5350.886 C 6337.695 5350.886 6337.695 5350.886 6337.695 5350.886 C 6337.695 5350.886 6328.624 5332.4221 6328.624 5332.4221 C 6328.624 5332.4221 6319.499 5350.886 6319.499 5350.886 M 6317.151 5355.582 C 6311.602 5366.895 6311.602 5366.895 6311.602 5366.895 C 6311.602 5366.895 6305.784 5366.895 6305.784 5366.895 C 6305.784 5366.895 6324.195 5329.5421 6324.195 5329.5421 C 6324.195 5329.5421 6333.054 5329.5421 6333.054 5329.5421 C 6333.054 5329.5421 6351.463 5366.895 6351.463 5366.895 C 6351.463 5366.895 6345.592 5366.895 6345.592 5366.895 C 6345.592 5366.895 6340.043 5355.582 6340.043 5355.582 C 6340.043 5355.582 6317.151 5355.582 6317.151 5355.582"></path><path fill="black" fill-opacity="1" stroke="" stroke-opacity="1" stroke-width="1" fill-rule="evenodd" id="tSvge8ac731029" d="M 6387.428 5362.199 C 6387.428 5366.895 6387.428 5366.895 6387.428 5366.895 C 6387.428 5366.895 6355.732 5366.895 6355.732 5366.895 C 6355.732 5366.895 6355.732 5329.5413 6355.732 5329.5413 C 6355.732 5329.5413 6360.961 5329.5413 6360.961 5329.5413 C 6360.961 5329.5413 6360.961 5362.199 6360.961 5362.199 C 6360.961 5362.199 6387.428 5362.199 6387.428 5362.199"></path><path fill="black" fill-opacity="1" stroke="" stroke-opacity="1" stroke-width="1" fill-rule="evenodd" id="tSvg2ffda9c756" d="M 6167.954 5425.433 C 6166.531 5427.354 6164.539 5428.946 6161.977 5430.207 C 6159.417 5431.47 6156.09 5432.103 6151.998 5432.103 C 6148.655 5432.103 6145.666 5431.667 6143.034 5430.797 C 6140.401 5429.925 6138.169 5428.661 6136.3369999999995 5427.007 C 6134.503 5425.353 6133.109 5423.343 6132.147 5420.978 C 6131.187 5418.611 6130.707 5415.918 6130.707 5412.893 C 6130.707 5411.879 6130.707 5411.879 6130.707 5411.879 C 6130.707 5408.713 6131.187 5405.921 6132.147 5403.501 C 6133.109 5401.082 6134.503 5399.045 6136.3369999999995 5397.391 C 6138.169 5395.737 6140.401 5394.491 6143.034 5393.655 C 6145.666 5392.819 6148.655 5392.402 6151.998 5392.402 C 6157.655 5392.402 6162.253 5393.558 6165.793 5395.871 C 6169.331 5398.183 6171.493 5401.67 6172.275 5406.33 C 6166.621 5406.33 6166.621 5406.33 6166.621 5406.33 C 6166.263 5404.941 6165.667 5403.67 6164.831 5402.513 C 6163.997 5401.357 6162.946 5400.379 6161.683 5399.579 C 6160.421 5398.779 6158.979 5398.157 6157.362 5397.711 C 6155.742 5397.267 6153.955 5397.043 6151.998 5397.043 C 6149.401 5397.043 6147.115 5397.418 6145.142 5398.165 C 6143.167 5398.911 6141.521 5399.961 6140.206 5401.313 C 6138.889 5402.666 6137.902 5404.274 6137.243 5406.142 C 6136.585 5408.011 6136.257 5410.083 6136.257 5412.359 C 6136.257 5414.529 6136.585 5416.539 6137.243 5418.387 C 6137.902 5420.238 6138.889 5421.83 6140.206 5423.165 C 6141.521 5424.498 6143.167 5425.549 6145.142 5426.313 C 6147.115 5427.078 6149.401 5427.461 6151.998 5427.461 C 6154.489 5427.461 6156.659 5427.175 6158.509 5426.607 C 6160.358 5426.0380000000005 6161.933 5425.255 6163.231 5424.258 C 6164.53 5423.263 6165.561 5422.115 6166.326 5420.818 C 6167.091 5419.518 6167.598 5418.141 6167.847 5416.681 C 6147.623 5416.681 6147.623 5416.681 6147.623 5416.681 C 6147.623 5416.681 6147.623 5411.879 6147.623 5411.879 C 6147.623 5411.879 6173.183 5411.879 6173.183 5411.879 C 6173.183 5411.879 6173.183 5430.877 6173.183 5430.877 C 6173.183 5430.877 6167.954 5430.877 6167.954 5430.877 C 6167.954 5430.877 6167.954 5425.433 6167.954 5425.433"></path><path fill="black" fill-opacity="1" stroke="" stroke-opacity="1" stroke-width="1" fill-rule="evenodd" id="tSvgfc0d0c999a" d="M 6215.818 5426.233 C 6215.818 5430.928 6215.818 5430.928 6215.818 5430.928 C 6215.818 5430.928 6180.173 5430.928 6180.173 5430.928 C 6180.173 5430.928 6180.173 5393.576 6180.173 5393.576 C 6180.173 5393.576 6214.058 5393.576 6214.058 5393.576 C 6214.058 5393.576 6214.058 5398.272 6214.058 5398.272 C 6214.058 5398.272 6185.402 5398.272 6185.402 5398.272 C 6185.402 5398.272 6185.402 5408.357 6185.402 5408.357 C 6185.402 5408.357 6208.669 5408.357 6208.669 5408.357 C 6208.669 5408.357 6208.669 5413.052 6208.669 5413.052 C 6208.669 5413.052 6185.402 5413.052 6185.402 5413.052 C 6185.402 5413.052 6185.402 5426.233 6185.402 5426.233 C 6185.402 5426.233 6215.818 5426.233 6215.818 5426.233"></path><path fill="black" fill-opacity="1" stroke="" stroke-opacity="1" stroke-width="1" fill-rule="evenodd" id="tSvg12183fd1dc2" d="M 6226.918 5397.044 C 6226.918 5430.929 6226.918 5430.929 6226.918 5430.929 C 6226.918 5430.929 6221.688 5430.929 6221.688 5430.929 C 6221.688 5430.929 6221.688 5393.576 6221.688 5393.576 C 6221.688 5393.576 6230.814 5393.576 6230.814 5393.576 C 6230.814 5393.576 6255.039 5427.46 6255.039 5427.46 C 6255.039 5427.46 6255.039 5393.576 6255.039 5393.576 C 6255.039 5393.576 6260.215 5393.576 6260.215 5393.576 C 6260.215 5393.576 6260.215 5430.929 6260.215 5430.929 C 6260.215 5430.929 6251.036 5430.929 6251.036 5430.929 C 6251.036 5430.929 6226.918 5397.044 6226.918 5397.044"></path><path fill="black" fill-opacity="1" stroke="" stroke-opacity="1" stroke-width="1" fill-rule="evenodd" id="tSvgca14e08ac8" d="M 6303.332 5426.233 C 6303.332 5430.928 6303.332 5430.928 6303.332 5430.928 C 6303.332 5430.928 6267.687 5430.928 6267.687 5430.928 C 6267.687 5430.928 6267.687 5393.576 6267.687 5393.576 C 6267.687 5393.576 6301.571 5393.576 6301.571 5393.576 C 6301.571 5393.576 6301.571 5398.272 6301.571 5398.272 C 6301.571 5398.272 6272.916 5398.272 6272.916 5398.272 C 6272.916 5398.272 6272.916 5408.357 6272.916 5408.357 C 6272.916 5408.357 6296.181 5408.357 6296.181 5408.357 C 6296.181 5408.357 6296.181 5413.052 6296.181 5413.052 C 6296.181 5413.052 6272.916 5413.052 6272.916 5413.052 C 6272.916 5413.052 6272.916 5426.233 6272.916 5426.233 C 6272.916 5426.233 6303.332 5426.233 6303.332 5426.233"></path><path fill="black" fill-opacity="1" stroke="" stroke-opacity="1" stroke-width="1" fill-rule="evenodd" id="tSvg94c6993905" d="M 6314.4310000000005 5412.572 C 6332.361 5412.572 6332.361 5412.572 6332.361 5412.572 C 6335.455 5412.572 6337.758 5411.967 6339.271 5410.759 C 6340.783 5409.548 6341.5380000000005 5407.7880000000005 6341.5380000000005 5405.475 C 6341.5380000000005 5403.199 6340.826 5401.429 6339.405 5400.165 C 6337.981 5398.904 6335.829 5398.272 6332.947 5398.272 C 6314.4310000000005 5398.272 6314.4310000000005 5398.272 6314.4310000000005 5398.272 C 6314.4310000000005 5398.272 6314.4310000000005 5412.572 6314.4310000000005 5412.572 M 6314.4310000000005 5417.269 C 6314.4310000000005 5430.928 6314.4310000000005 5430.928 6314.4310000000005 5430.928 C 6314.4310000000005 5430.928 6309.202 5430.928 6309.202 5430.928 C 6309.202 5430.928 6309.202 5393.575 6309.202 5393.575 C 6309.202 5393.575 6334.122 5393.575 6334.122 5393.575 C 6336.077 5393.575 6337.857 5393.835 6339.458 5394.349 C 6341.058 5394.865 6342.419 5395.631 6343.539 5396.643 C 6344.661 5397.657 6345.531 5398.929 6346.155 5400.46 C 6346.777 5401.991 6347.089 5403.768 6347.089 5405.796 C 6346.982 5408.784 6346.262 5411.149 6344.927 5412.892 C 6343.593 5414.636 6341.753 5415.864 6339.405 5416.575 C 6347.675 5430.876 6347.675 5430.876 6347.675 5430.876 C 6347.675 5430.876 6341.5380000000005 5430.876 6341.5380000000005 5430.876 C 6341.5380000000005 5430.876 6333.802 5417.269 6333.802 5417.269 C 6333.802 5417.269 6314.4310000000005 5417.269 6314.4310000000005 5417.269"></path><path fill="black" fill-opacity="1" stroke="" stroke-opacity="1" stroke-width="1" fill-rule="evenodd" id="tSvg10ddd353b9b" d="M 6364.59 5414.92 C 6382.786 5414.92 6382.786 5414.92 6382.786 5414.92 C 6382.786 5414.92 6373.715 5396.457 6373.715 5396.457 C 6373.715 5396.457 6364.59 5414.92 6364.59 5414.92 M 6362.242 5419.617 C 6356.693 5430.929 6356.693 5430.929 6356.693 5430.929 C 6356.693 5430.929 6350.875 5430.929 6350.875 5430.929 C 6350.875 5430.929 6369.286 5393.576 6369.286 5393.576 C 6369.286 5393.576 6378.145 5393.576 6378.145 5393.576 C 6378.145 5393.576 6396.554 5430.929 6396.554 5430.929 C 6396.554 5430.929 6390.683 5430.929 6390.683 5430.929 C 6390.683 5430.929 6385.134 5419.617 6385.134 5419.617 C 6385.134 5419.617 6362.242 5419.617 6362.242 5419.617"></path><path fill="black" fill-opacity="1" stroke="" stroke-opacity="1" stroke-width="1" fill-rule="evenodd" id="tSvge6914cff34" d="M 6419.979 5398.273 C 6419.979 5430.929 6419.979 5430.929 6419.979 5430.929 C 6419.979 5430.929 6414.75 5430.929 6414.75 5430.929 C 6414.75 5430.929 6414.75 5398.273 6414.75 5398.273 C 6414.75 5398.273 6398.154 5398.273 6398.154 5398.273 C 6398.154 5398.273 6398.154 5393.575 6398.154 5393.575 C 6398.154 5393.575 6436.627 5393.575 6436.627 5393.575 C 6436.627 5393.575 6436.627 5398.273 6436.627 5398.273 C 6436.627 5398.273 6419.979 5398.273 6419.979 5398.273"></path><path fill="black" fill-opacity="1" stroke="" stroke-opacity="1" stroke-width="1" fill-rule="evenodd" id="tSvge92aa82edc" d="M 6475.848 5426.233 C 6475.848 5430.928 6475.848 5430.928 6475.848 5430.928 C 6475.848 5430.928 6441.429 5430.928 6441.429 5430.928 C 6441.429 5430.928 6441.429 5426.233 6441.429 5426.233 C 6441.429 5426.233 6455.891 5426.233 6455.891 5426.233 C 6455.891 5426.233 6455.891 5398.272 6455.891 5398.272 C 6455.891 5398.272 6441.429 5398.272 6441.429 5398.272 C 6441.429 5398.272 6441.429 5393.576 6441.429 5393.576 C 6441.429 5393.576 6475.848 5393.576 6475.848 5393.576 C 6475.848 5393.576 6475.848 5398.272 6475.848 5398.272 C 6475.848 5398.272 6461.12 5398.272 6461.12 5398.272 C 6461.12 5398.272 6461.12 5426.233 6461.12 5426.233 C 6461.12 5426.233 6475.848 5426.233 6475.848 5426.233"></path><path fill="black" fill-opacity="1" stroke="" stroke-opacity="1" stroke-width="1" fill-rule="evenodd" id="tSvg309dfadc20" d="M 6502.4220000000005 5397.098 C 6499.967 5397.098 6497.734 5397.418 6495.725 5398.058 C 6493.715 5398.699 6492.007 5399.65 6490.602 5400.912 C 6489.197 5402.176 6488.113 5403.759 6487.347 5405.662 C 6486.582 5407.566 6486.201 5409.798 6486.201 5412.36 C 6486.201 5414.814 6486.582 5416.975 6487.347 5418.842 C 6488.113 5420.71 6489.197 5422.275 6490.602 5423.5380000000005 C 6492.007 5424.802 6493.715 5425.762 6495.725 5426.419 C 6497.734 5427.079 6499.967 5427.406 6502.4220000000005 5427.406 C 6504.877 5427.406 6507.109 5427.088 6509.118 5426.447 C 6511.129 5425.807 6512.835 5424.855 6514.241 5423.591 C 6515.646 5422.33 6516.731 5420.763 6517.497 5418.896 C 6518.262 5417.03 6518.643 5414.848 6518.643 5412.36 C 6518.643 5409.904 6518.262 5407.735 6517.497 5405.85 C 6516.731 5403.963 6515.646 5402.372 6514.241 5401.072 C 6512.835 5399.775 6511.129 5398.7880000000005 6509.118 5398.112 C 6507.109 5397.436 6504.877 5397.098 6502.4220000000005 5397.098Z M 6480.65 5411.879 C 6480.757 5408.499 6481.353 5405.582 6482.438 5403.128 C 6483.523 5400.672 6485.017 5398.654 6486.921 5397.071 C 6488.823 5395.49 6491.082 5394.315 6493.697 5393.55 C 6496.311 5392.784 6499.219 5392.403 6502.4220000000005 5392.403 C 6505.623 5392.403 6508.533 5392.803 6511.147 5393.603 C 6513.761 5394.402 6516.019 5395.603 6517.923 5397.204 C 6519.826 5398.804 6521.321 5400.824 6522.406 5403.262 C 6523.491 5405.699 6524.086 5408.57 6524.1939999999995 5411.879 C 6524.1939999999995 5412.84 6524.1939999999995 5412.84 6524.1939999999995 5412.84 C 6524.086 5416.148 6523.491 5419.022 6522.406 5421.458 C 6521.321 5423.895 6519.826 5425.896 6517.923 5427.46 C 6516.019 5429.026 6513.761 5430.191 6511.147 5430.956 C 6508.533 5431.719 6505.623 5432.103 6502.4220000000005 5432.103 C 6499.219 5432.103 6496.311 5431.719 6493.697 5430.956 C 6491.082 5430.191 6488.823 5429.016 6486.921 5427.434 C 6485.017 5425.851 6483.523 5423.85 6482.438 5421.43 C 6481.353 5419.012 6480.757 5416.148 6480.65 5412.84 C 6480.65 5411.879 6480.65 5411.879 6480.65 5411.879"></path><path fill="black" fill-opacity="1" stroke="" stroke-opacity="1" stroke-width="1" fill-rule="evenodd" id="tSvgdeb4ced7a0" d="M 6534.759 5397.044 C 6534.759 5430.929 6534.759 5430.929 6534.759 5430.929 C 6534.759 5430.929 6529.53 5430.929 6529.53 5430.929 C 6529.53 5430.929 6529.53 5393.576 6529.53 5393.576 C 6529.53 5393.576 6538.655 5393.576 6538.655 5393.576 C 6538.655 5393.576 6562.88 5427.46 6562.88 5427.46 C 6562.88 5427.46 6562.88 5393.576 6562.88 5393.576 C 6562.88 5393.576 6568.0560000000005 5393.576 6568.0560000000005 5393.576 C 6568.0560000000005 5393.576 6568.0560000000005 5430.929 6568.0560000000005 5430.929 C 6568.0560000000005 5430.929 6558.878 5430.929 6558.878 5430.929 C 6558.878 5430.929 6534.759 5397.044 6534.759 5397.044"></path><path fill="#70D8C1" fill-opacity="1" stroke="" stroke-opacity="1" stroke-width="1" fill-rule="evenodd" id="tSvg1462c5ad961" d="M 5826.448 5424.642 C 5826.448 5242.96306 5826.448 5242.96306 5826.448 5242.96306 C 5802.8307 5266.4711 5791 5296.6657 5791 5333.5857 C 5791 5370.503 5802.8227 5400.85 5826.448 5424.642Z"></path><path fill="#52BEDA" fill-opacity="1" stroke="" stroke-opacity="1" stroke-width="1" fill-rule="evenodd" id="tSvgece3f66e95" d="M 6041.715 5300.2826000000005 C 6085.381 5300.2826000000005 6085.381 5300.2826000000005 6085.381 5300.2826000000005 C 6082.161 5285.5093 6075.835 5273.1119 6066.401 5263.0906 C 6056.966 5253.0719 6046.249 5245.9413 6034.255 5241.69593 C 6030.062 5240.2146 6025.738 5239.0066 6021.297 5238.04259 C 6021.297 5279.0279 6021.297 5279.0279 6021.297 5279.0279 C 6022.229 5279.5039 6023.151 5279.9986 6024.053 5280.5346 C 6032.171 5285.3613 6038.057 5291.9453 6041.715 5300.2826000000005Z"></path><path fill="black" fill-opacity="1" stroke="" stroke-opacity="1" stroke-width="1" fill-rule="evenodd" id="tSvg1735d4cdbb1" d="M 5928.478 5328.5307 C 5928.478 5358.155 5928.478 5358.155 5928.478 5358.155 C 5928.478 5358.155 5978.51 5358.155 5978.51 5358.155 C 5975.871 5369.671 5970.269 5378.432 5961.702 5384.412 C 5961.247 5384.736 5960.779 5385.048 5960.298 5385.36 C 5950.939 5391.365 5940.333 5394.355 5928.478 5394.355 C 5922.057 5394.355 5916.038 5393.536 5910.449 5391.899 C 5901.285 5389.208 5893.251 5384.333 5886.3501 5377.249 C 5875.2354 5365.836 5869.6728 5351.356 5869.6728 5333.7947 C 5869.6728 5316.104 5875.1968 5301.624 5886.2461 5290.3533 C 5893.083 5283.36 5901.155 5278.5507 5910.462 5275.9 C 5916.155 5274.2613 5922.303 5273.456 5928.921 5273.456 C 5939.591 5273.456 5949.003 5275.8733 5957.114 5280.696 C 5958.582 5281.5667 5959.974 5282.4893 5961.299 5283.4773 C 5967.291 5287.9493 5971.789 5293.616 5974.779 5300.44 C 6018.441 5300.44 6018.441 5300.44 6018.441 5300.44 C 6016.349 5290.8347 6012.942 5282.2427 6008.211 5274.652 C 6005.69 5270.5573 6002.765 5266.748 5999.463 5263.252 C 5990.026 5253.2293 5979.315 5246.1067 5967.318 5241.85599 C 5965.369 5241.16666 5963.379 5240.53065 5961.378 5239.95865 C 5951.057 5236.98132 5940.021 5235.5 5928.257 5235.5 C 5897.983 5235.5 5873.4421 5244.63731 5854.6461 5262.9267 C 5835.8501 5281.216 5826.4528 5304.8347 5826.4528 5333.7947 C 5826.4528 5362.469 5835.6688 5386.023 5854.1008 5404.455 C 5872.5328 5422.887 5895.643 5432.103 5923.434 5432.103 C 5935.666 5432.103 5946.585 5430.296 5956.191 5426.669 C 5959.558 5425.409 5962.755 5423.927 5965.783 5422.224 C 5977.482 5415.647 5986.698 5406.937 5993.431 5396.111 C 5993.874 5432.051 5993.874 5432.051 5993.874 5432.051 C 6003.947 5431.752 6013.098 5430.18 6021.301 5427.345 C 6021.301 5328.5307 6021.301 5328.5307 6021.301 5328.5307 C 6021.301 5328.5307 5928.478 5328.5307 5928.478 5328.5307"></path><path fill="#52BEDA" fill-opacity="1" stroke="" stroke-opacity="1" stroke-width="1" fill-rule="evenodd" id="tSvg8c606e562a" d="M 6088.23 5328.3678 C 6088.23 5431.94 6088.23 5431.94 6088.23 5431.94 C 6088.23 5431.94 6060.804 5431.94 6060.804 5431.94 C 6060.804 5431.94 6060.361 5395.948 6060.361 5395.948 C 6053.641 5406.774 6044.425 5415.484 6032.713 5422.061 C 6029.152 5424.076 6025.317 5425.74 6021.301 5427.13 C 6021.301 5388.486 6021.301 5388.486 6021.301 5388.486 C 6023.329 5387.498 6025.317 5386.432 6027.228 5385.197 C 6036.588 5379.205 6042.67 5370.132 6045.44 5357.992 C 6021.301 5357.992 6021.301 5357.992 6021.301 5357.992 C 6021.301 5357.992 6021.301 5328.3678 6021.301 5328.3678 C 6021.301 5328.3678 6088.23 5328.3678 6088.23 5328.3678"></path><defs> </defs></svg> 