<?xml version="1.0" encoding="UTF-8"?> <svg xmlns="http://www.w3.org/2000/svg" width="60" height="60" viewBox="0 0 60 60" fill="none"> <path d="M1 18.1969C4.4 16.4969 7.68 14.8568 10.97 13.2068C16.99 10.1968 23.02 7.17683 29.04 4.15683C29.41 3.96683 29.7 3.93687 30.09 4.13687C39.26 8.74687 48.44 13.3369 57.62 17.9369C57.76 18.0069 57.9 18.0868 58.13 18.2168C56.51 19.0968 54.96 19.9368 53.41 20.7768C45.67 24.9468 37.93 29.0968 30.2 33.2768C29.74 33.5268 29.41 33.5168 28.96 33.2768C25.92 31.6168 22.87 29.9768 19.82 28.3468C19.5 28.1768 19.17 28.0469 19.25 27.5669C19.34 27.0269 19.05 26.4468 19.78 26.0268C23.1 24.0968 26.39 22.0968 29.69 20.1168C29.89 19.9968 30.11 19.8868 30.29 19.7268C30.77 19.3168 30.88 18.8169 30.57 18.2469C30.28 17.7169 29.65 17.5169 29.08 17.8069C28.4 18.1569 27.76 18.5668 27.1 18.9668C24.11 20.7568 21.14 22.5868 18.12 24.3368C17.27 24.8268 16.8 25.3968 16.95 26.3968C16.97 26.5068 16.93 26.6268 16.92 26.8368C11.6 23.9568 6.35001 21.0968 1.01001 18.2068L1 18.1969Z" fill="#12284C"></path> <path d="M19.25 44.6066C19.25 44.9266 19.25 45.1866 19.25 45.4366C19.25 48.3266 19.25 51.2266 19.25 54.1166C19.25 55.0166 18.82 55.5466 18.11 55.5466C17.4 55.5466 16.96 55.0266 16.96 54.1166C16.96 50.6466 16.96 47.1866 16.96 43.6166C17.72 43.9266 18.43 44.2166 19.25 44.5466V30.6266C20.18 31.1266 21 31.5566 21.81 31.9966C24.08 33.2166 26.37 34.4166 28.62 35.6666C29.34 36.0666 29.92 36.0167 30.62 35.6367C36.18 32.6167 41.75 29.6266 47.33 26.6266C47.5 26.5366 47.67 26.4567 47.92 26.3267C47.94 26.6067 47.96 26.8266 47.96 27.0466C47.96 30.9666 47.96 34.8866 47.97 38.8066C47.97 39.3066 47.82 39.6566 47.46 39.9866C44.28 42.9066 40.52 44.6966 36.34 45.6066C30.81 46.8166 25.33 46.6167 19.95 44.7667C19.75 44.6967 19.55 44.6567 19.27 44.5767L19.25 44.6066Z" fill="#70D8C1"></path> <path d="M11.27 26.3269C13.11 27.3269 14.88 28.2669 16.63 29.2369C16.79 29.3269 16.94 29.6069 16.94 29.7869C16.96 34.3269 16.95 38.8769 16.95 43.5369C16.51 43.3169 16.1 43.1769 15.77 42.9369C14.36 41.9169 12.96 40.8869 11.59 39.8169C11.38 39.6569 11.22 39.2969 11.22 39.0369C11.2 34.8969 11.2 30.7669 11.21 26.6269C11.21 26.5569 11.23 26.4869 11.27 26.3169V26.3269Z" fill="#70D8C1"></path> </svg> 