<?xml version="1.0" encoding="UTF-8"?> <svg xmlns="http://www.w3.org/2000/svg" width="40" height="40" viewBox="0 0 40 40" fill="none"> <rect x="1" y="1" width="37" height="37" rx="6" fill="#0077B7"></rect> <rect x="5.74902" y="5.66797" width="29" height="27" fill="#D9D9D9"></rect> <path d="M34 2L4.87511 2.93049C4.35941 2.93049 3.86483 3.13535 3.50018 3.5C3.13552 3.86465 2.93066 4.35923 2.93066 4.87493L3.05556 33.5556C3.05556 34.0713 3.26042 34.5658 3.62507 34.9305C3.98972 35.2951 4.4843 35.5 5 35.5L34 36C34.5157 36 35.1353 35.8647 35.5 35.5C35.8647 35.1353 35.7492 35.2392 35.7492 34.7235V3.61241C35.7492 3.09671 35.3647 2.86465 35 2.5C34.6353 2.13535 34.5157 2 34 2ZM12.1306 31.4899H6.93504V14.7871H12.1306V31.4899ZM9.53281 12.5063C8.73451 12.5063 7.96891 12.1892 7.40442 11.6247C6.83994 11.0602 6.52281 10.2946 6.52281 9.4963C6.52281 8.698 6.83994 7.9324 7.40442 7.36791C7.96891 6.80343 8.73451 6.4863 9.53281 6.4863C10.3311 6.4863 11.0967 6.80343 11.6612 7.36791C12.2257 7.9324 12.5428 8.698 12.5428 9.4963C12.5428 10.2946 12.2257 11.0602 11.6612 11.6247C11.0967 12.1892 10.3311 12.5063 9.53281 12.5063ZM31.5731 31.4899H26.3834V23.368C26.3834 21.4313 26.3484 18.9405 23.6845 18.9405C20.9817 18.9405 20.5714 21.0521 20.5714 23.2319V31.4919H15.3856V14.7891H20.3634V17.0719H20.4353C21.1256 15.7594 22.8211 14.3749 25.3431 14.3749C30.6009 14.3749 31.5711 17.8321 31.5711 22.3316L31.5731 31.4899Z" fill="#0077B7"></path> </svg> 