<?xml version="1.0" encoding="UTF-8"?> <svg xmlns="http://www.w3.org/2000/svg" width="30" height="30" viewBox="0 0 30 30" fill="none"><circle cx="15" cy="15" r="15" fill="#52BEDA"></circle><path d="M21 9H9C8.17275 9 7.5 9.67275 7.5 10.5V19.5C7.5 20.3273 8.17275 21 9 21H21C21.8273 21 22.5 20.3273 22.5 19.5V10.5C22.5 9.67275 21.8273 9 21 9ZM21 10.5V10.8833L15 15.5505L9 10.884V10.5H21ZM9 19.5V12.783L14.5395 17.0917C14.6708 17.1949 14.833 17.251 15 17.251C15.167 17.251 15.3292 17.1949 15.4605 17.0917L21 12.783L21.0015 19.5H9Z" fill="white"></path></svg> 