<?xml version="1.0" encoding="UTF-8"?> <svg xmlns="http://www.w3.org/2000/svg" width="365" height="49" viewBox="0 0 365 49" fill="none"><g clip-path="url(#clip0_972_121)"><rect width="365" height="49" fill="#182849"></rect><mask id="mask0_972_121" style="mask-type:alpha" maskUnits="userSpaceOnUse" x="0" y="0" width="365" height="49"><rect width="365" height="49" fill="#182849"></rect></mask><g mask="url(#mask0_972_121)"><g opacity="0.4"><path d="M341.076 19.8984C337.112 12.5354 339.882 3.31031 347.245 -0.653932C354.608 -4.61818 363.833 -1.8487 367.797 5.51434L362.703 8.26183C360.255 3.70444 354.549 1.99151 349.992 4.43989C345.435 6.88827 343.722 12.5935 346.178 17.1604L341.084 19.908L341.076 19.8984Z" fill="#00C1DE"></path><path d="M245.909 42.4484L248.987 39.674L252.073 43.0946L256.842 38.2189L261.414 43.2809L266.184 38.4052L272.23 45.1008L269.162 47.8731L266.065 44.4445L261.287 49.3324L256.715 44.2701L251.956 49.1439L245.909 42.4484Z" fill="#407BFF"></path><path d="M12.4337 30.4576L16.5089 29.707L17.3446 34.237L23.9617 32.5831L25.2036 39.2901L31.8207 37.6362L33.4628 46.5073L29.3974 47.2612L28.5555 42.7181L21.925 44.3781L20.6832 37.6708L14.0758 39.3284L12.4337 30.4576Z" fill="#00C1DE"></path><path d="M322.864 56.7361L304.955 45.8945L323.299 35.805L322.864 56.7361ZM311.659 46.0292L319.637 50.8573L319.83 41.5319L311.653 46.0226L311.659 46.0292Z" fill="#407BFF"></path><path d="M44.7845 16.2732L53.5366 -11L72.7808 10.2173L44.7845 16.2732ZM55.4827 -2.03444L51.5859 10.1143L64.0588 7.41565L55.4898 -2.04349L55.4827 -2.03444Z" fill="#00C1DE"></path></g></g></g><defs><clipPath id="clip0_972_121"><rect width="365" height="49" fill="white"></rect></clipPath></defs></svg> 