<?xml version="1.0" encoding="UTF-8"?> <svg xmlns="http://www.w3.org/2000/svg" width="24" height="24" viewBox="0 0 24 24" fill="none"><path d="M2 22L2 20L22 20L22 22L2 22Z" fill="url(#paint0_linear_1962_682)"></path><path d="M13 3L13 17C13 17.5523 13.4477 18 14 18L18 18C18.5523 18 19 17.5523 19 17L19 3C19 2.44771 18.5523 2 18 2L14 2C13.4477 2 13 2.44771 13 3Z" fill="url(#paint1_linear_1962_682)"></path><path d="M5 7L5 17C5 17.5523 5.44772 18 6 18L10 18C10.5523 18 11 17.5523 11 17L11 7C11 6.44771 10.5523 6 10 6L6 6C5.44771 6 5 6.44771 5 7Z" fill="url(#paint2_linear_1962_682)"></path><defs><linearGradient id="paint0_linear_1962_682" x1="5.22581" y1="21.7917" x2="5.26254" y2="19.7901" gradientUnits="userSpaceOnUse"><stop stop-color="#00C1DE"></stop><stop offset="1" stop-color="#407BFF"></stop></linearGradient><linearGradient id="paint1_linear_1962_682" x1="13.9677" y1="16.3333" x2="20.2921" y2="3.41008" gradientUnits="userSpaceOnUse"><stop stop-color="#00C1DE"></stop><stop offset="1" stop-color="#407BFF"></stop></linearGradient><linearGradient id="paint2_linear_1962_682" x1="5.96774" y1="16.75" x2="9.85365" y2="6.16259" gradientUnits="userSpaceOnUse"><stop stop-color="#00C1DE"></stop><stop offset="1" stop-color="#407BFF"></stop></linearGradient></defs></svg> 