<?xml version="1.0" encoding="UTF-8"?> <svg xmlns="http://www.w3.org/2000/svg" width="300" height="100" viewBox="0 0 300 100" fill="none"><path d="M0 17.0576C0.531271 19.1296 2.32529 21.2475 4.78667 21.7782H12.2258L12.6053 21.928V40.6998H17.2506V21.928L17.6726 21.7782H25.1183C27.6071 21.137 29.3625 19.1296 29.8846 17.0576V17.0118H0V17.0576Z" fill="#12284C"></path><path d="M45.9765 40.7528H63.6491C66.1079 40.264 67.9353 38.0977 68.4476 36.0008H41.1781C41.6871 38.0984 43.5413 40.264 45.9765 40.7528Z" fill="#12284C"></path><path d="M45.9765 31.1238H63.6491C66.1079 30.639 67.9353 28.472 68.4476 26.3725H41.1781C41.6871 28.4727 43.5413 30.639 45.9765 31.1238Z" fill="#12284C"></path><path d="M45.9765 21.7533H63.6491C66.1079 21.2632 67.9353 19.0983 68.4476 17H41.1781C41.6871 19.0983 43.5413 21.2632 45.9765 21.7533Z" fill="#12284C"></path><path d="M86.2818 21.7082H102.609C105.07 20.993 107.137 19.1179 107.641 17.0393H81.7052V31.0505H102.932V35.9674L86.2818 35.9805C83.6725 36.708 81.4598 38.4602 80.356 40.7744L81.7052 40.7495H107.493V26.3921H86.2818V21.7082Z" fill="#12284C"></path><path d="M141.843 40.7554C144.162 39.7727 145.409 38.0729 145.886 36.0839H125.265L125.279 17.0327L120.656 17.0458V40.7554H141.843Z" fill="#12284C"></path><path d="M159.853 21.7723H177.532C179.987 21.2842 181.813 19.1172 182.328 17.0209H155.057C155.567 19.1179 157.42 21.2842 159.853 21.7723Z" fill="#12284C"></path><path d="M155.768 26.4098V40.7462H160.365V31.201H177.098V40.7462H181.693V26.4346L155.768 26.4098Z" fill="#12284C"></path></svg> 