<?xml version="1.0" encoding="UTF-8"?> <svg xmlns="http://www.w3.org/2000/svg" width="777" height="196" viewBox="0 0 777 196" fill="none"> <path d="M376.927 125.512C375.504 127.427 373.512 129.014 370.95 130.273C368.39 131.532 365.063 132.162 360.972 132.162C357.629 132.162 354.64 131.727 352.008 130.859C349.375 129.99 347.143 128.731 345.312 127.082C343.478 125.432 342.084 123.429 341.123 121.071C340.163 118.713 339.683 116.026 339.683 113.01V112C339.683 108.844 340.163 106.06 341.123 103.647C342.084 101.236 343.478 99.2061 345.312 97.5565C347.143 95.9083 349.375 94.6668 352.008 93.8333C354.64 92.9999 357.629 92.5825 360.972 92.5825C366.629 92.5825 371.226 93.735 374.765 96.0412C378.304 98.3461 380.465 101.822 381.248 106.468H375.593C375.236 105.084 374.64 103.816 373.804 102.663C372.97 101.511 371.919 100.535 370.656 99.7378C369.394 98.9403 367.953 98.3195 366.335 97.8755C364.715 97.4329 362.929 97.2109 360.972 97.2109C358.375 97.2109 356.089 97.5831 354.116 98.3275C352.142 99.0719 350.495 100.119 349.181 101.467C347.863 102.815 346.877 104.419 346.218 106.282C345.56 108.144 345.232 110.21 345.232 112.479C345.232 114.643 345.56 116.647 346.218 118.489C346.877 120.334 347.863 121.922 349.181 123.251C350.495 124.581 352.142 125.627 354.116 126.389C356.089 127.153 358.375 127.534 360.972 127.534C363.462 127.534 365.633 127.25 367.482 126.683C369.331 126.115 370.906 125.335 372.204 124.342C373.503 123.349 374.533 122.206 375.299 120.911C376.064 119.617 376.571 118.242 376.82 116.788H356.597V112H382.156V130.939H376.927V125.512Z" fill="white"></path> <path d="M420.84 126.31V130.992H389.146V93.7528H394.375V126.31H420.84Z" fill="white"></path> <path d="M445.81 97.2638C443.355 97.2638 441.122 97.5829 439.114 98.2209C437.104 98.8603 435.396 99.8093 433.991 101.068C432.586 102.327 431.502 103.906 430.736 105.803C429.971 107.7 429.59 109.925 429.59 112.48C429.59 114.927 429.971 117.08 430.736 118.942C431.502 120.805 432.586 122.365 433.991 123.624C435.396 124.883 437.104 125.84 439.114 126.497C441.122 127.153 443.355 127.48 445.81 127.48C448.264 127.48 450.496 127.162 452.505 126.523C454.516 125.885 456.223 124.936 457.628 123.677C459.033 122.418 460.118 120.857 460.884 118.996C461.648 117.135 462.03 114.961 462.03 112.48C462.03 110.033 461.648 107.869 460.884 105.989C460.118 104.109 459.033 102.522 457.628 101.228C456.223 99.9343 454.516 98.9493 452.505 98.2754C450.496 97.6015 448.264 97.2638 445.81 97.2638ZM424.04 112C424.148 108.63 424.742 105.723 425.827 103.276C426.913 100.829 428.406 98.8164 430.31 97.2373C432.212 95.6608 434.471 94.4897 437.085 93.7267C439.7 92.9651 442.608 92.5836 445.81 92.5836C449.011 92.5836 451.92 92.9824 454.535 93.7799C457.148 94.5774 459.406 95.7751 461.31 97.3702C463.213 98.9666 464.707 100.979 465.793 103.409C466.878 105.839 467.472 108.702 467.58 112V112.958C467.472 116.256 466.878 119.121 465.793 121.549C464.707 123.979 463.213 125.974 461.31 127.535C459.406 129.095 457.148 130.256 454.535 131.019C451.92 131.78 449.011 132.162 445.81 132.162C442.608 132.162 439.7 131.78 437.085 131.019C434.471 130.256 432.212 129.086 430.31 127.507C428.406 125.929 426.913 123.934 425.827 121.522C424.742 119.111 424.148 116.256 424.04 112.958V112Z" fill="white"></path> <path d="M478.145 126.31H497.726C499.541 126.31 501.017 126.16 502.155 125.858C503.294 125.558 504.174 125.112 504.796 124.529C505.419 123.943 505.846 123.243 506.078 122.427C506.308 121.611 506.424 120.707 506.424 119.714C506.424 118.685 506.318 117.78 506.104 117C505.891 116.221 505.464 115.547 504.824 114.979C504.183 114.412 503.284 113.987 502.13 113.702C500.973 113.419 499.453 113.277 497.566 113.277H478.145V126.31ZM478.145 108.595H495.753C497.282 108.595 498.598 108.525 499.701 108.382C500.803 108.242 501.702 107.976 502.395 107.585C503.09 107.195 503.604 106.653 503.943 105.962C504.282 105.271 504.45 104.392 504.45 103.329C504.45 102.265 504.263 101.405 503.89 100.749C503.516 100.093 502.965 99.5962 502.235 99.2585C501.507 98.9222 500.59 98.7003 499.487 98.5939C498.385 98.4876 497.104 98.4344 495.646 98.4344H478.145V108.595ZM512.08 120.14C512.08 124.005 510.861 126.78 508.425 128.465C505.988 130.15 502.422 130.992 497.726 130.992H472.916V93.7528H496.233C498.332 93.7528 500.226 93.8857 501.915 94.1516C503.604 94.4174 505.055 94.896 506.264 95.5885C507.474 96.2797 508.407 97.2022 509.065 98.3547C509.724 99.5071 510.053 100.988 510.053 102.797C510.053 104.712 509.644 106.281 508.825 107.505C508.007 108.728 506.959 109.713 505.678 110.457C507.775 111.202 509.367 112.312 510.453 113.782C511.537 115.253 512.08 117.373 512.08 120.14Z" fill="white"></path> <path d="M528.461 115.032H546.655L537.585 96.6247L528.461 115.032ZM526.113 119.714L520.564 130.992H514.747L533.156 93.7536H542.014L560.422 130.992H554.552L549.003 119.714H526.113Z" fill="white"></path> <path d="M596.385 126.31V130.992H564.691V93.7528H569.92V126.31H596.385Z" fill="white"></path> <path d="M376.927 189.35C375.504 191.265 373.512 192.852 370.95 194.11C368.39 195.369 365.063 196 360.972 196C357.629 196 354.64 195.565 352.008 194.697C349.375 193.828 347.143 192.568 345.312 190.92C343.478 189.27 342.084 187.267 341.123 184.909C340.163 182.55 339.683 179.864 339.683 176.848V175.838C339.683 172.681 340.163 169.898 341.123 167.485C342.084 165.074 343.478 163.043 345.312 161.395C347.143 159.745 349.375 158.504 352.008 157.67C354.64 156.837 357.629 156.421 360.972 156.421C366.629 156.421 371.226 157.573 374.765 159.879C378.304 162.184 380.465 165.66 381.248 170.306H375.593C375.236 168.921 374.64 167.654 373.804 166.5C372.97 165.348 371.919 164.373 370.656 163.576C369.394 162.778 367.953 162.158 366.335 161.714C364.715 161.271 362.929 161.048 360.972 161.048C358.375 161.048 356.089 161.421 354.116 162.166C352.142 162.91 350.495 163.956 349.181 165.304C347.863 166.653 346.877 168.256 346.218 170.118C345.56 171.982 345.232 174.048 345.232 176.317C345.232 178.479 345.56 180.484 346.218 182.326C346.877 184.171 347.863 185.758 349.181 187.089C350.495 188.418 352.142 189.466 354.116 190.227C356.089 190.99 358.375 191.372 360.972 191.372C363.462 191.372 365.633 191.087 367.482 190.521C369.331 189.953 370.906 189.173 372.204 188.179C373.503 187.187 374.533 186.043 375.299 184.749C376.064 183.453 376.571 182.08 376.82 180.625H356.597V175.838H382.156V194.777H376.927V189.35Z" fill="white"></path> <path d="M424.788 190.148V194.828H389.145V157.591H423.028V162.272H394.374V172.327H417.639V177.007H394.374V190.148H424.788Z" fill="white"></path> <path d="M435.886 161.048V194.829H430.657V157.591H439.782L464.005 191.371V157.591H469.181V194.829H460.003L435.886 161.048Z" fill="white"></path> <path d="M512.295 190.148V194.828H476.652V157.591H510.534V162.272H481.881V172.327H505.145V177.007H481.881V190.148H512.295Z" fill="white"></path> <path d="M523.394 176.529H541.322C544.416 176.529 546.719 175.925 548.232 174.721C549.744 173.514 550.499 171.759 550.499 169.453C550.499 167.184 549.787 165.42 548.366 164.16C546.942 162.903 544.79 162.273 541.909 162.273H523.394V176.529ZM523.394 181.212V194.828H518.165V157.59H543.083C545.038 157.59 546.818 157.849 548.419 158.362C550.019 158.876 551.38 159.639 552.5 160.648C553.621 161.66 554.492 162.928 555.116 164.454C555.737 165.98 556.049 167.752 556.049 169.774C555.942 172.752 555.222 175.11 553.888 176.848C552.553 178.586 550.713 179.811 548.366 180.519L556.636 194.777H550.499L542.763 181.212H523.394Z" fill="white"></path> <path d="M573.549 178.869H591.743L582.673 160.463L573.549 178.869ZM571.201 183.552L565.652 194.829H559.835L578.244 157.591H587.102L605.51 194.829H599.64L594.091 183.552H571.201Z" fill="white"></path> <path d="M628.934 162.273V194.829H623.705V162.273H607.11V157.59H645.581V162.273H628.934Z" fill="white"></path> <path d="M684.799 190.148V194.828H650.383V190.148H664.843V162.272H650.383V157.591H684.799V162.272H670.072V190.148H684.799Z" fill="white"></path> <path d="M711.371 161.102C708.916 161.102 706.683 161.421 704.674 162.059C702.664 162.698 700.957 163.646 699.551 164.905C698.146 166.165 697.062 167.743 696.297 169.639C695.532 171.538 695.15 173.763 695.15 176.318C695.15 178.763 695.532 180.918 696.297 182.779C697.062 184.641 698.146 186.202 699.551 187.461C700.957 188.721 702.664 189.678 704.674 190.333C706.683 190.991 708.916 191.317 711.371 191.317C713.825 191.317 716.057 191 718.066 190.361C720.077 189.723 721.783 188.774 723.188 187.514C724.594 186.256 725.679 184.694 726.444 182.834C727.209 180.973 727.591 178.798 727.591 176.318C727.591 173.869 727.209 171.706 726.444 169.827C725.679 167.946 724.594 166.36 723.188 165.064C721.783 163.771 720.077 162.787 718.066 162.113C716.057 161.439 713.825 161.102 711.371 161.102ZM689.6 175.838C689.707 172.468 690.303 169.56 691.388 167.114C692.473 164.665 693.966 162.653 695.87 161.075C697.773 159.499 700.031 158.328 702.646 157.565C705.26 156.802 708.168 156.421 711.371 156.421C714.572 156.421 717.481 156.82 720.095 157.618C722.708 158.414 724.967 159.612 726.871 161.208C728.773 162.803 730.268 164.817 731.353 167.247C732.438 169.677 733.033 172.539 733.141 175.838V176.796C733.033 180.094 732.438 182.958 731.353 185.387C730.268 187.817 728.773 189.812 726.871 191.371C724.967 192.932 722.708 194.094 720.095 194.856C717.481 195.617 714.572 196 711.371 196C708.168 196 705.26 195.617 702.646 194.856C700.031 194.094 697.773 192.922 695.87 191.345C693.966 189.767 692.473 187.772 691.388 185.359C690.303 182.949 689.707 180.094 689.6 176.796V175.838Z" fill="white"></path> <path d="M743.705 161.048V194.829H738.476V157.591H747.601L771.824 191.371V157.591H777V194.829H767.822L743.705 161.048Z" fill="white"></path> <path d="M35.4454 188.561V7.44028C11.8298 30.8761 0 60.9781 0 97.7848C0 134.589 11.8218 164.842 35.4454 188.561Z" fill="#70D8C1"></path> <path d="M250.697 64.5839H294.359C291.139 49.8559 284.815 37.4966 275.381 27.506C265.947 17.5181 255.23 10.4093 243.238 6.17704C239.044 4.70025 234.721 3.49596 230.28 2.53492V43.3945C231.212 43.869 232.134 44.3621 233.036 44.8965C241.154 49.7084 247.039 56.2721 250.697 64.5839Z" fill="#52BEDA"></path> <path d="M137.468 92.7453V122.278H187.497C184.858 133.759 179.256 142.493 170.69 148.455C170.235 148.778 169.767 149.089 169.286 149.4C159.928 155.387 149.322 158.367 137.468 158.367C131.047 158.367 125.029 157.551 119.44 155.919C110.277 153.236 102.244 148.377 95.3432 141.314C84.2293 129.936 78.6671 115.501 78.6671 97.9931C78.6671 80.3567 84.1907 65.9212 95.2392 54.6851C102.076 47.7132 110.147 42.9187 119.453 40.2761C125.146 38.6425 131.294 37.8396 137.911 37.8396C148.581 37.8396 157.992 40.2495 166.102 45.0574C167.57 45.9254 168.962 46.8452 170.287 47.8302C176.279 52.2885 180.776 57.9378 183.766 64.7408H227.424C225.333 55.165 221.926 46.5993 217.196 39.032C214.675 34.9499 211.749 31.1522 208.448 27.6669C199.012 17.675 188.302 10.5742 176.305 6.33662C174.356 5.6494 172.367 5.01535 170.366 4.4451C160.045 1.47691 149.01 0.000128146 137.247 0.000128146C106.976 0.000128146 82.4361 9.10941 63.6415 27.3426C44.8468 45.5758 35.4502 69.122 35.4502 97.9931C35.4502 126.58 44.6655 150.061 63.0962 168.436C81.5269 186.812 104.636 195.999 132.425 195.999C144.656 195.999 155.574 194.198 165.18 190.583C168.546 189.327 171.743 187.848 174.771 186.151C186.469 179.594 195.684 170.911 202.417 160.118L202.859 195.948C212.932 195.65 222.082 194.083 230.284 191.257V92.7453H137.468Z" fill="white"></path> <path d="M297.209 92.5829V195.837H269.784L269.342 159.956C262.622 170.749 253.407 179.432 241.696 185.989C238.135 187.997 234.3 189.656 230.284 191.042V152.517C232.312 151.532 234.3 150.469 236.211 149.238C245.57 143.264 251.652 134.219 254.421 122.116H230.284V92.5829H297.209Z" fill="#52BEDA"></path> </svg> 