<?xml version="1.0" encoding="UTF-8"?> <svg xmlns="http://www.w3.org/2000/svg" width="40" height="40" viewBox="0 0 40 40" fill="none"><g clip-path="url(#clip0_1708_71)"><mask id="mask0_1708_71" style="mask-type:luminance" maskUnits="userSpaceOnUse" x="0" y="0" width="40" height="40"><path d="M40 0H0V40H40V0Z" fill="white"></path></mask><g mask="url(#mask0_1708_71)"><path d="M30 0H10C4.47715 0 0 4.47715 0 10V30C0 35.5228 4.47715 40 10 40H30C35.5228 40 40 35.5228 40 30V10C40 4.47715 35.5228 0 30 0Z" fill="#E6E6E6"></path></g><path fill-rule="evenodd" clip-rule="evenodd" d="M28.6376 11.0579C28.5385 11.0896 26.3387 11.9196 23.7491 12.9024C21.1596 13.8851 16.5674 15.6267 13.5442 16.7726C10.521 17.9185 7.91753 18.9171 7.75867 18.9917C7.24959 19.2305 6.93015 19.6132 7.01305 19.8848C7.05919 20.036 7.2563 20.227 7.48433 20.3415C7.67423 20.4368 12.8792 22.0611 13.0261 22.0708C13.0632 22.0733 15.8397 20.3726 19.1961 18.2915C22.5524 16.2104 25.3648 14.4802 25.446 14.4466C25.7652 14.3145 26.091 14.4008 26.0271 14.6003C26.0121 14.6471 23.7599 16.6775 21.0223 19.1123C18.1616 21.6564 16.0446 23.5711 16.0444 23.6144C16.0442 23.6559 15.9632 24.8043 15.8643 26.1664C15.7655 27.5286 15.6846 28.6892 15.6845 28.7455C15.6843 28.8394 15.6985 28.8455 15.8533 28.8185C16.2356 28.7519 16.3944 28.6342 17.451 27.6346C18.0281 27.0886 18.6751 26.4726 18.8888 26.2656L19.2774 25.8893L21.9895 27.8566C24.3812 29.5916 24.7363 29.8346 24.996 29.914C25.3494 30.0222 25.5431 30.0274 25.7668 29.9348C26.1279 29.7854 26.3497 29.4503 26.4967 28.8324C26.5448 28.6301 27.3574 24.8801 28.3025 20.4991C30.1766 11.8122 30.1397 12.0142 29.9358 11.5743C29.8846 11.4638 29.7967 11.326 29.7405 11.2679C29.4992 11.0189 29.035 10.9305 28.6376 11.0579Z" fill="#182849"></path></g><defs><clipPath id="clip0_1708_71"><rect width="40" height="40" fill="white"></rect></clipPath></defs></svg> 