<?xml version="1.0" encoding="UTF-8"?> <svg xmlns="http://www.w3.org/2000/svg" width="25" height="25" viewBox="0 0 25 25" fill="none"><path d="M12.2524 0.0244482C20.4569 -0.530902 25.8811 8.48923 21.3646 15.4413C20.8977 16.1598 20.3017 16.7757 19.754 17.4155L21.7231 21.7942C21.7992 22.324 21.5355 22.8626 21.0535 23.0931C20.3454 23.431 19.4112 23.0003 18.6562 22.9883C18.5368 23.0425 17.8673 24.3138 17.6703 24.5474C17.1258 25.1925 16.1738 25.1216 15.6726 24.4677L13.529 20.0035L12.3925 20.0468L10.3307 24.4364C9.77683 25.1669 8.81339 25.2013 8.247 24.4572C8.08235 24.2408 7.4352 23.0384 7.3263 22.9888C6.57754 23.0086 5.63026 23.4289 4.92891 23.0936C4.44642 22.8631 4.18328 22.3229 4.25936 21.7947L6.22999 17.4171C5.53595 16.6245 4.82158 15.8532 4.29791 14.9292C0.693764 8.56693 4.99822 0.515138 12.2524 0.0244482ZM12.5124 1.68945C6.00854 2.09984 2.40439 9.5118 6.24041 14.8578C10.1588 20.3184 18.6546 19.0659 20.8446 12.7344C22.772 7.16317 18.3909 1.3187 12.5124 1.68945ZM10.6512 19.6817C9.59029 19.4862 8.56537 19.0117 7.66029 18.4339L6.23051 21.4505C6.76408 21.4083 7.57745 21.1157 8.0886 21.2826C8.54296 21.4312 8.89624 22.4528 9.22086 22.8032L10.6512 19.6817ZM19.7519 21.4505L18.3222 18.4339C17.414 19.0174 16.3948 19.4779 15.3313 19.6817L16.7616 22.8032C17.0857 22.4533 17.439 21.4312 17.8939 21.2826C18.405 21.1157 19.2184 21.4083 19.7519 21.4505Z" fill="#00C1DE"></path><path d="M15.2943 6.91548C16.1738 7.23878 17.4577 7.27893 17.8996 8.23737C18.5051 9.54987 17.3957 10.3107 16.7465 11.2874C16.6329 12.3344 17.1138 13.4733 16.1879 14.2675C15.1797 15.1326 14.0594 14.352 13.0079 14.0203C11.9231 14.3243 10.8809 15.1294 9.8232 14.2899C8.86498 13.5301 9.34643 12.3261 9.23545 11.2874C8.6008 10.3326 7.49251 9.55456 8.06411 8.27178C8.5091 7.27372 9.79715 7.25443 10.6871 6.91496C11.4129 5.9706 11.7735 4.70399 13.2241 4.84947C14.2756 4.95533 14.7237 6.18753 15.2943 6.91548ZM16.3713 8.96063L14.346 8.35939C13.8046 7.84315 13.4737 7.1517 13.0168 6.56663C12.9412 6.54785 12.9313 6.6146 12.8954 6.65267C12.5025 7.06879 12.0992 8.06164 11.637 8.35991L9.61165 8.96115C9.53714 9.04041 10.7861 10.4682 10.8841 10.7315C11.0154 11.0861 10.9117 11.1794 10.9091 11.4824C10.9054 11.9772 10.9159 12.4731 10.9117 12.9675L12.9657 12.287L15.0718 12.9675C15.0671 12.4904 15.0781 12.0117 15.0744 11.5345C15.0718 11.2154 14.9629 11.1012 15.0999 10.7315C15.1974 10.4676 16.4474 9.04041 16.3724 8.96115L16.3713 8.96063Z" fill="#00C1DE"></path></svg> 