<?xml version="1.0" encoding="UTF-8"?> <svg xmlns="http://www.w3.org/2000/svg" width="200" height="128" viewBox="0 0 200 128" fill="none"><mask id="mask0_1150_16632" style="mask-type:alpha" maskUnits="userSpaceOnUse" x="53" y="0" width="57" height="57"><rect x="50.8068" y="25.8469" width="43.9419" height="43.9419" rx="12.5448" transform="rotate(-39.7844 50.8068 25.8469)" fill="#38C7DC" stroke="#EEF7FF" stroke-width="4.64624"></rect></mask><g mask="url(#mask0_1150_16632)"><rect x="50.8068" y="25.8469" width="43.9419" height="43.9419" rx="12.5448" transform="rotate(-39.7844 50.8068 25.8469)" fill="#38C7DC" stroke="#EEF7FF" stroke-width="4.64624"></rect><path d="M81.7499 14.3037V17.4507H90.7168C92.0116 18.4899 93.1353 19.743 94.0056 21.1595H81.7511V24.9245H95.6359C95.967 26.1495 96.1325 27.4196 96.1415 28.6896H67.3584L67.4834 26.9028L68.2254 26.44L69.438 27.2845L69 25.8591L70.1687 24.9245H68.7354C68.5992 24.5969 68.2636 23.8932 68.3256 23.5622C68.3774 23.2852 68.6453 22.9136 68.7084 22.6209L69.438 23.0701C69.4808 23.0251 69.0698 22.1277 69.1103 21.8767C69.1768 21.4725 69.7971 20.9771 70.1687 20.8217L70.1406 20.7102L69.8321 20.6832C70.556 19.5787 71.4556 18.6036 72.4464 17.7321L72.1368 18.8558L73.3461 18.0316L74.6105 18.8558L74.1567 17.4315L75.3412 16.5522H74.1049L76.0179 15.5141C77.4028 14.9106 79.0871 14.4726 80.5981 14.36C80.9809 14.3319 81.3773 14.4152 81.7499 14.3037ZM78.9948 16.5522L78.5174 15.0907L78.04 16.5522H76.5786L77.7327 17.4484L77.3386 18.8569L78.5185 18.0316L79.783 18.8558L79.3292 17.4338L80.5137 16.5522H78.9948ZM73.8234 20.7102C73.7064 20.3184 73.5994 19.8083 73.4316 19.4435C73.4057 19.3884 73.3978 19.3118 73.3179 19.3051L72.8394 20.7102H71.4061C71.3723 20.8419 71.4376 20.8048 71.477 20.8386C71.6234 20.9647 72.5624 21.576 72.5793 21.6425L72.1379 23.0701L73.3551 22.237L74.5823 23.0713L74.1669 21.647L75.3423 20.7113H73.8246L73.8234 20.7102ZM78.9948 20.7102C78.8327 20.3296 78.7696 19.8038 78.6041 19.4435C78.5782 19.3884 78.567 19.3118 78.4893 19.3062L78.0108 20.7113H76.5212L77.7563 21.6155L77.3093 23.0724L78.5163 22.2291L79.7537 23.0735L79.3393 21.6504L80.5126 20.7125H78.9948V20.7102ZM71.4061 24.9257L72.5692 25.8512L72.1379 27.2856L73.3449 26.4006L74.6093 27.2856L74.1714 25.8602L75.3412 24.9257H73.8234L73.4012 23.5205C73.2864 23.4969 73.3224 23.5644 73.292 23.6331C73.2031 23.8335 72.943 24.893 72.8405 24.9257H71.4061ZM78.9948 24.9257C78.8777 24.5338 78.7708 24.0238 78.6041 23.6579C78.5782 23.6027 78.567 23.5261 78.4893 23.5205L78.0389 24.9257H76.5212L77.7315 25.8219L77.3093 27.2856L78.5163 26.3972L79.7807 27.2856L79.3281 25.8061L80.5126 24.9245H78.9948V24.9257Z" fill="#407BFF"></path><path d="M95.6348 32.457C95.4322 33.1978 95.1743 33.9308 94.8579 34.6311C94.6924 34.997 94.3366 35.7841 94.1114 36.0768C94.0732 36.1263 94.0484 36.1669 93.9763 36.1669L69.5753 36.1703C69.4785 36.177 69.4436 36.15 69.3873 36.0768C69.1509 35.7694 68.7557 34.9047 68.5845 34.5185C68.2918 33.8554 68.0598 33.155 67.8639 32.457H95.6348Z" fill="#407BFF"></path><path d="M90.6312 39.9308C90.665 40.0626 90.6008 40.0254 90.5603 40.0592C85.9282 44.0315 77.5705 44.0303 72.9385 40.0592C72.8979 40.0243 72.8326 40.0614 72.8675 39.9308H90.6312Z" fill="#407BFF"></path></g><mask id="mask1_1150_16632" style="mask-type:alpha" maskUnits="userSpaceOnUse" x="1" y="45" width="64" height="65"><circle cx="33.0988" cy="77.3723" r="29.4219" fill="#9A82F4" stroke="#EEF7FF" stroke-width="4.64624"></circle></mask><g mask="url(#mask1_1150_16632)"><circle cx="33.0988" cy="77.3723" r="29.4219" fill="#9A82F4" stroke="#EEF7FF" stroke-width="4.64624"></circle><path fill-rule="evenodd" clip-rule="evenodd" d="M33.1948 97.1139L33.0987 97.0659L33.0841 97.0592C32.5837 96.8325 19.8788 91.0749 18.8867 74.1155V63.3125H47.3103V74.0675C47.3103 78.2928 45.9659 89.0475 33.2903 97.0179L33.1948 97.1139ZM22.8717 67.5396C22.8237 67.3475 23.1118 67.3473 23.1118 67.3473L23.7363 67.4909C23.8803 67.6349 25.6081 67.4909 25.6081 67.4909C26.0402 67.4909 26.0404 68.0198 26.0404 68.0198C26.1364 69.2682 25.9447 75.173 25.9447 75.173C25.9447 75.5091 25.6568 75.2218 25.6568 75.2218H24.1198C23.9758 75.2698 23.304 75.2218 23.304 75.2218C22.7758 75.1738 22.776 74.8373 22.776 74.8373L22.8717 67.5396ZM29.4492 67.443C29.6112 67.3709 29.7132 67.3529 29.7765 67.3586C29.882 67.3679 29.8815 67.443 29.8815 67.443C29.9295 67.539 29.8337 68.4511 29.8337 68.4511C29.8817 68.5471 29.7859 74.9328 29.7859 74.9328C29.7379 75.2689 29.498 75.1729 29.498 75.1729C29.1619 75.4129 27.7209 75.2695 27.7209 75.2695C27.2408 75.1734 26.5206 75.3651 26.5206 75.3651C26.4246 75.5092 26.2805 75.3173 26.2805 75.3173L26.3283 74.3092L26.3771 71.4283C26.3771 71.3323 26.4249 67.8753 26.4249 67.8753C26.4729 67.5395 27.2872 67.5395 27.3372 67.5395C29.4978 67.6356 29.4492 67.443 29.4492 67.443ZM21.4313 67.7796C21.6294 67.5996 21.7666 67.5405 21.8608 67.5377C22.0179 67.533 22.0558 67.6831 22.0558 67.6831C21.8078 68.0963 21.8087 68.9316 21.8138 69.1676C21.8144 69.1688 21.8149 69.1699 21.8149 69.1699L21.8157 69.1714L21.8147 69.2427L21.8157 69.268L21.8147 69.2651C21.8134 69.5365 21.7669 75.7018 21.7669 75.7018C21.8149 76.422 22.2958 76.2776 22.2958 76.2776L25.2245 76.3732C25.5125 76.3732 25.5124 76.5655 25.5124 76.5655C25.5124 76.7575 25.3201 76.7577 25.3201 76.7577H21.7671C21.2869 76.7097 21.3357 76.3732 21.3357 76.3732V75.5095C21.3837 75.0774 20.9034 74.9816 20.9034 74.9816C20.2312 75.0776 20.0866 74.6928 20.0866 74.6928C20.0866 74.2126 20.8556 74.2614 20.8556 74.2614C21.4797 74.2614 21.2869 73.6847 21.2869 73.6847L21.3357 70.2281C21.2877 69.8919 20.4711 69.8914 20.4711 69.8914C19.9429 69.9395 20.0866 69.4601 20.0866 69.4601C20.3747 69.22 20.9034 69.22 20.9034 69.22C21.3835 69.268 21.3835 68.7399 21.3835 68.7399L21.4313 67.7796ZM30.7462 67.8274C30.7462 67.8274 30.7465 67.5733 30.9525 67.5555C31 67.5514 31.0577 67.5605 31.1297 67.5875C31.1297 67.5875 31.4658 67.5872 31.3698 68.1154V68.9312C31.3698 68.9312 31.3225 69.2673 31.8987 69.1713C31.8987 69.1713 32.5223 69.2679 32.5223 69.508C32.5223 69.508 32.7145 69.9883 31.9943 69.9403H31.4664C31.4664 69.9403 31.2259 70.0835 31.3219 70.3716L31.2741 73.6846C31.2741 73.6846 31.2261 74.2606 31.7543 74.2126C31.7543 74.2126 32.3306 74.2129 32.4266 74.357C32.4266 74.357 32.8107 74.933 31.9465 74.8849C31.9465 74.8849 31.418 74.8847 31.3219 74.9328C31.3219 74.9328 31.2265 75.0288 31.1785 76.1331C31.1785 76.1331 31.2263 76.7578 30.7461 76.7098C30.7461 76.7098 27.5767 76.7578 27.2886 76.7098C27.2886 76.7098 27.0009 76.8057 26.9529 76.5176C26.9529 76.5176 26.9525 76.3253 27.2886 76.3253H30.4583C30.4583 76.3253 30.7462 76.4699 30.7462 75.9418C30.7462 75.9418 30.8416 73.4451 30.8897 70.7082C30.8897 70.4362 30.895 70.1587 30.9003 69.8814C30.911 69.3266 30.9217 68.7719 30.8897 68.2597C30.8897 68.2597 30.8422 67.9235 30.7462 67.8274ZM30.0738 67.8274C30.1458 67.7194 30.2132 67.6706 30.2745 67.6624C30.5399 67.6267 30.6984 68.3553 30.6984 68.3553L30.6018 75.2216C30.6018 75.4617 30.5539 75.6051 30.5539 75.6051C30.2659 75.6532 30.0738 75.0294 30.0738 75.0294V67.8274ZM22.0559 68.5476C22.0559 68.5476 22.1039 67.7308 22.5361 67.7308C22.5361 67.7308 22.5839 68.2115 22.5839 68.3076C22.5839 68.4036 22.536 74.8851 22.536 74.8851C22.536 74.8851 22.5837 75.365 22.1516 75.6531C22.1516 75.6531 22.0552 75.7013 22.0071 75.3652L22.0559 68.5476ZM22.6683 75.4214C22.6923 75.4144 22.7153 75.4111 22.7358 75.4101C22.7973 75.4068 22.8389 75.4234 22.8389 75.4234H22.8398L22.8417 75.4244C22.8774 75.4422 23.014 75.4817 23.1334 75.5116C23.23 75.5357 23.3163 75.5551 23.3458 75.5617C23.3522 75.5631 23.3565 75.5641 23.3565 75.5641H25.6193L25.6287 75.5697C25.8003 75.6678 25.8907 75.7507 25.9288 75.8323C25.9478 75.8731 25.9526 75.9149 25.9438 75.9514C25.935 75.9878 25.9143 76.0184 25.8894 76.0433C25.8397 76.0929 25.7722 76.1231 25.7169 76.1436C25.6615 76.1642 25.6165 76.1746 25.6165 76.1746L25.6081 76.1764L24.9788 76.0311H22.6345C22.5493 76.0542 22.484 76.0533 22.4347 76.0302C22.3838 76.0062 22.3557 75.9596 22.3447 75.9157C22.3228 75.828 22.3513 75.7385 22.3513 75.7385L22.3522 75.7347L22.3541 75.7308C22.4538 75.5314 22.5723 75.4488 22.6683 75.4214ZM29.5458 75.5574C29.5458 75.5574 29.7343 75.53 29.8693 75.5367C29.9143 75.539 29.9541 75.5454 29.9781 75.5574C29.9781 75.5574 30.3138 75.8456 30.3138 75.9897C30.3138 75.9897 30.3136 76.1814 29.8814 76.0853H27.1929C27.2409 76.0853 26.5203 76.2774 26.5683 75.8453C26.5683 75.8453 26.7609 75.6052 26.905 75.6052C26.905 75.6052 29.1616 75.7974 29.5458 75.5574ZM26.2806 76.0853C26.2926 76.0793 26.3049 76.0759 26.3172 76.075C26.5018 76.0592 26.7129 76.5655 26.7129 76.5655C26.7129 76.9976 26.3284 77.0934 26.3284 77.0934C25.8963 77.0934 25.8483 76.6621 25.8483 76.6621C25.8483 76.0858 26.2806 76.0853 26.2806 76.0853ZM36.4111 67.5395C36.3631 67.3475 36.6512 67.3473 36.6512 67.3473L37.2757 67.4431C37.4197 67.5871 39.1484 67.4431 39.1484 67.4431C39.5805 67.4431 39.5807 67.971 39.5807 67.971C39.6767 69.2194 39.4841 75.1251 39.4841 75.1251C39.4841 75.5093 39.1962 75.2217 39.1962 75.2217H37.6602C37.5161 75.2697 36.8434 75.2217 36.8434 75.2217C36.3152 75.1737 36.3154 74.8372 36.3154 74.8372L36.4111 67.5395ZM43.0373 67.4908C43.1574 67.4308 43.2403 67.4088 43.2971 67.4064C43.4219 67.4007 43.4218 67.4908 43.4218 67.4908C43.4698 67.5868 43.3731 68.4998 43.3731 68.4998C43.4211 68.5959 43.3252 74.9815 43.3252 74.9815C43.2772 75.3176 43.0373 75.2216 43.0373 75.2216C42.7012 75.4617 41.2612 75.3173 41.2612 75.3173C40.7811 75.2212 40.0609 75.4129 40.0609 75.4129C39.9648 75.557 39.8208 75.3651 39.8208 75.3651L39.9165 74.357L39.9643 71.4761C39.9643 71.3801 40.0121 67.9231 40.0121 67.9231C40.0121 67.5608 40.7809 67.5832 40.9087 67.587C40.9164 67.5872 40.9218 67.5874 40.9245 67.5874C43.0851 67.6834 43.0373 67.4908 43.0373 67.4908ZM34.923 67.7796C35.121 67.5995 35.2582 67.5405 35.3524 67.5377C35.5095 67.533 35.5473 67.683 35.5473 67.683C35.2592 68.1631 35.3073 69.2678 35.3073 69.2678V69.1712C35.3553 69.2672 35.3073 75.7018 35.3073 75.7018C35.3553 76.422 35.8352 76.2776 35.8352 76.2776L38.7161 76.3254C39.0042 76.3254 39.004 76.5177 39.004 76.5177C39.004 76.7097 38.8117 76.7099 38.8117 76.7099H35.2596C34.8275 76.6619 34.8751 76.3254 34.8751 76.3254V75.4617C34.8751 75.0296 34.395 74.9328 34.395 74.9328C33.7228 75.0289 33.5791 74.6449 33.5791 74.6449C33.5791 74.1648 34.3471 74.2126 34.3471 74.2126C35.0193 74.2126 34.8273 73.6368 34.8273 73.6368L34.8751 70.1803C34.8271 69.8441 34.0105 69.8436 34.0105 69.8436C33.4824 69.8916 33.627 69.4113 33.627 69.4113C33.9151 69.1712 34.4428 69.1712 34.4428 69.1712C34.923 69.2192 34.923 68.6911 34.923 68.6911V67.7796ZM44.2856 67.8274C44.2856 67.8274 44.2859 67.5733 44.4919 67.5555C44.5394 67.5513 44.598 67.5605 44.67 67.5874C44.67 67.5874 45.0061 67.5872 44.9101 68.1154V68.8834C44.9101 68.8834 44.8619 69.2195 45.438 69.1235C45.438 69.1235 46.0626 69.22 46.0626 69.4601C46.0626 69.4601 46.2539 69.9395 45.5337 69.8915H45.0057C45.0057 69.8915 44.7662 70.0357 44.8623 70.3238L44.8135 73.6368C44.8135 73.6368 44.7655 74.2128 45.2936 74.1647C45.2936 74.1647 45.87 74.1651 45.966 74.3091C45.966 74.3091 46.3499 74.8851 45.5337 74.8371C45.5337 74.8371 45.0061 74.8369 44.9101 74.8849C44.9101 74.8849 44.8137 74.9809 44.7657 76.0853C44.7657 76.0853 44.8135 76.71 44.3334 76.662C44.3334 76.662 41.1649 76.71 40.8768 76.662C40.8768 76.71 40.5403 76.8057 40.4923 76.5176C40.4923 76.5176 40.4928 76.3253 40.829 76.3253H43.9977C43.9977 76.3253 44.2856 76.4699 44.2856 75.9418C44.2856 75.9418 44.382 73.445 44.43 70.7082C44.43 70.4361 44.4353 70.1587 44.4407 69.8813C44.4513 69.3266 44.462 68.7719 44.43 68.2597C44.43 68.2597 44.3336 67.9234 44.2856 67.8274ZM43.6132 67.8274C43.6852 67.7284 43.7526 67.6852 43.8139 67.6802C44.0793 67.6584 44.2378 68.3553 44.2378 68.3553L44.1421 75.2216C44.1421 75.4616 44.0933 75.6051 44.0933 75.6051C43.8052 75.6531 43.6132 75.0293 43.6132 75.0293V67.8274ZM35.5953 68.5476C35.5953 68.5476 35.6433 67.7308 36.0754 67.7308C36.0754 67.7308 36.1233 68.2115 36.1233 68.3076C36.1233 68.4036 36.0754 74.8851 36.0754 74.8851C36.0754 74.8851 36.1231 75.365 35.6909 75.6531C35.6909 75.6531 35.5955 75.7013 35.5475 75.3652L35.5953 68.5476ZM35.9798 75.7018C36.1118 75.4377 36.2664 75.4003 36.3502 75.4027C36.3883 75.4039 36.4113 75.413 36.4113 75.413C36.5073 75.461 36.9402 75.5574 36.9402 75.5574H39.1964C39.8686 75.9415 39.1964 76.0854 39.1964 76.0854L38.5719 75.9419H36.2199C35.8838 76.0379 35.9798 75.7018 35.9798 75.7018ZM43.1818 75.5096C43.1818 75.5096 43.3131 75.4904 43.435 75.4881C43.5081 75.4867 43.5771 75.4916 43.6131 75.5096C43.6131 75.5096 43.9498 75.7979 43.9498 75.9419C43.9498 75.9419 43.9496 76.1336 43.5175 76.0376H40.8289C40.8289 76.0376 40.1083 76.2296 40.2044 75.7975C40.2044 75.7975 40.397 75.5574 40.541 75.5574C40.541 75.5574 42.7977 75.7497 43.1818 75.5096ZM39.8688 76.0376C39.8808 76.0316 39.8927 76.0282 39.9054 76.0273C40.0953 76.0114 40.3489 76.5177 40.3489 76.5177C40.3489 76.9978 39.9645 77.0457 39.9645 77.0457C39.5323 77.0457 39.4843 76.6134 39.4843 76.6134C39.4363 76.0371 39.8688 76.0376 39.8688 76.0376ZM32.7148 86.4085C32.7628 85.8804 32.7628 85.3523 32.7628 85.3523L32.9547 85.3523L33.0027 86.5046C33.0988 87.5609 33.0027 88.6172 33.0027 88.6172C33.0027 88.9053 33.0988 88.9533 33.0988 88.9533C33.6749 88.6652 34.1551 88.7132 34.1551 88.7132C37.276 88.8092 36.7959 88.7612 36.7959 88.7612C37.6121 88.7132 37.5641 88.2331 37.5641 88.2331L37.5161 87.0808C37.6121 86.8407 37.6121 83.2876 37.6121 83.2876C37.5161 82.9035 37.6121 80.983 37.6121 80.983C37.6121 80.7909 37.324 80.7909 37.324 80.7909C36.5634 81.1712 36.3256 81.1283 36.1266 81.0924C36.0492 81.0785 35.9777 81.0656 35.8836 81.079C35.5475 81.127 34.2992 81.079 34.2031 81.031C34.1071 80.983 33.5309 81.031 33.5309 81.031C33.1468 81.079 33.0508 81.3671 33.0508 81.3671V82.8555L33.0028 83.1916L32.8588 83.2876L32.7147 82.8075V81.4151C32.6187 80.887 32.1386 80.983 32.1386 80.983C31.8505 80.887 30.6982 80.983 30.6982 80.983C30.17 81.079 29.6419 80.983 29.6419 80.983C28.9217 81.079 28.7777 80.8389 28.7777 80.8389C28.3935 80.6949 28.3935 80.935 28.3935 80.935C28.4416 81.079 28.4415 81.4631 28.4415 81.4631C28.4896 81.6552 28.4415 83.2396 28.4415 83.2396C28.3935 83.4317 28.4415 85.1121 28.4415 85.1121C28.4896 85.2081 28.3935 88.3291 28.3935 88.3291C28.4416 88.7612 29.2578 88.7132 29.2578 88.7132C29.3058 88.8092 32.2347 88.7612 32.2347 88.7612C32.7148 88.9533 32.7148 88.7132 32.7148 88.7132C32.7714 88.3167 32.7446 87.6864 32.7228 87.1769C32.7077 86.8226 32.6951 86.5267 32.7148 86.4085ZM38.1882 89.0493C38.0922 89.0013 37.8041 88.4732 37.8041 88.4732L37.8521 88.2811V81.3193C37.8521 80.9352 38.1402 81.1752 38.1402 81.1752L38.4283 81.6554C38.3803 81.9915 38.4283 82.2315 38.4283 82.2315L38.3803 88.8093C38.4283 89.3374 38.1882 89.0493 38.1882 89.0493ZM29.1137 89.0974C28.5856 89.0974 28.2495 88.7613 28.2495 88.7613L28.0094 88.9533C27.5772 89.4815 27.8653 89.5295 27.8653 89.5295L28.2975 89.4815L32.0426 89.5295C32.4747 89.6255 32.5227 89.3374 32.5227 89.3374C32.5227 89.1934 32.1866 89.1454 32.1866 89.1454L29.1137 89.0974ZM27.3372 81.8474C27.2892 81.7034 27.5773 81.2232 27.5773 81.2232C27.7373 81.1032 27.3641 81.0498 27.2628 81.0353C27.2426 81.0324 27.2332 81.031 27.2412 81.031C27.0011 81.079 27.0011 82.2314 27.0011 82.2314C26.9532 82.8075 26.473 82.7115 26.473 82.7115C25.8008 82.6635 25.5608 83.0476 25.5608 83.0476C25.5127 83.4317 26.1849 83.4317 26.1849 83.4317H26.6651C27.0972 83.4797 27.0012 84.0559 27.0012 84.0559L26.9532 87.4169C27.0972 87.897 26.521 87.801 26.521 87.801C25.7048 87.753 25.6088 88.0891 25.6088 88.0891C25.6088 88.5692 26.425 88.4252 26.425 88.4252C27.0011 88.4732 26.9531 88.8093 26.9531 88.8093C27.0011 88.9053 27.0011 89.5295 27.0011 89.5295C27.0011 90.1537 27.1932 90.2017 27.1932 90.2017C27.2412 90.2977 28.3935 90.2497 28.3935 90.2497C30.1221 90.3457 31.9946 90.1537 31.9946 90.1537C32.2347 90.2017 32.2347 90.0576 32.2347 90.0576C32.3787 89.8656 31.9946 89.8176 31.9946 89.8176C31.7065 89.7215 27.7213 89.8176 27.7213 89.8176C27.2892 89.9616 27.3372 89.4334 27.3372 89.4334V81.8474ZM28.1055 81.4631C28.1055 81.1751 27.9614 81.1751 27.9614 81.1751C27.6253 81.4151 27.6253 81.9433 27.6253 81.9433L27.5293 88.9531C27.5293 89.3373 27.7214 89.0972 27.7214 89.0972C28.1055 88.7611 28.0575 88.329 28.0575 88.329L28.1055 81.4631ZM33.915 89.0012C33.7229 88.9532 33.3388 89.2412 33.3388 89.2412C33.2908 89.6254 33.963 89.5293 33.9149 89.5293C34.059 89.4813 37.7561 89.4813 37.7561 89.4813C38.1402 89.5293 38.1402 89.2893 38.1402 89.2893L37.8041 88.9052C37.7081 88.7611 37.564 88.8091 37.564 88.8091C37.4165 88.9567 37.0706 88.9909 36.9182 88.9988C37.0465 88.9758 36.8438 89.0012 36.8438 89.0012C36.8438 89.0012 36.8722 89.0012 36.9182 88.9988C36.8698 89.0074 36.7745 89.0229 36.6038 89.0492C35.9795 89.1452 33.915 89.0012 33.915 89.0012ZM34.059 89.7694C33.8669 89.7214 33.5789 89.8654 33.5789 89.8654C33.4828 90.2015 33.8669 90.2497 33.9149 90.1537C34.5391 90.1057 38.4283 90.1057 38.4283 90.1057C39.0524 90.1537 39.1004 89.8656 39.1004 89.8656C39.1965 89.7696 39.1004 89.2414 39.1004 89.2414C39.1485 89.0974 39.1965 88.4732 39.1965 88.4732C39.1004 88.1851 40.0607 88.2332 40.0607 88.2332C40.5889 88.1851 40.3968 87.753 40.3968 87.753C40.3968 87.5129 39.6766 87.561 39.6766 87.561C39.1005 87.609 39.1005 87.2249 39.1005 87.2249C39.1005 87.2249 39.1485 84.1039 39.1005 83.6718C39.0524 83.2877 39.4366 83.1917 39.4366 83.1917L39.9647 83.1436C40.3488 83.2397 40.3488 82.8075 40.3488 82.8075C40.3488 82.6155 39.7727 82.5675 39.7727 82.5675C39.5326 82.6635 39.3886 82.5195 39.3886 82.5195C39.0525 82.5195 39.1005 81.8473 39.1005 81.8473C39.2925 81.5112 39.1005 80.983 39.1005 80.983C39.0045 80.839 38.6203 80.935 38.6203 80.935C38.6203 80.935 38.6684 80.983 38.5723 80.935C38.4763 80.887 38.4763 81.0791 38.4763 81.0791C38.7644 81.3671 38.6684 81.8473 38.6684 81.8473V88.1369L38.6203 88.377V89.1932C38.6203 89.3853 38.5243 89.5293 38.5243 89.5293L38.2362 89.6253C38.0442 89.8174 36.8919 89.7214 36.8919 89.7214C36.8919 89.7214 34.2511 89.8174 34.059 89.7694ZM33.2908 89.8656C33.2908 89.4815 32.9066 89.4335 32.9066 89.4335C32.5705 89.5295 32.4745 89.8656 32.5706 90.1537C32.6186 90.4417 32.8586 90.5378 33.0987 90.4898C33.2908 90.4417 33.2908 90.2497 33.2908 89.8656Z" fill="#D1E8FC"></path><path d="M25.7525 69.9869L25.5605 70.4191C25.5605 70.4191 25.0803 72.6277 24.7923 73.0599C24.7923 73.0599 24.7443 73.54 24.3602 73.1559C24.3602 73.1559 23.4479 70.3711 23.3999 70.275L23.1118 70.083C23.1118 70.083 22.9197 69.8429 23.2558 69.7949H24.1201C24.1201 69.7949 24.4082 70.035 24.024 70.275C24.024 70.275 24.0721 70.6591 24.5522 72.0515C24.5522 72.0515 24.6962 72.5797 24.8403 72.1956L25.3204 70.5631L25.1764 70.083C25.1764 70.083 25.0323 69.8429 25.2244 69.8429C25.2244 69.8429 25.7045 69.7949 25.7525 69.9869ZM27.0489 70.3711V72.7718L27.0009 72.9638C27.0009 72.9638 26.7608 73.2519 26.9529 73.2999C26.9529 73.2999 26.7608 73.444 28.3932 73.444C28.3932 73.444 29.0174 73.54 28.8734 72.7238C28.8734 72.7238 28.8254 72.4357 28.5853 72.8678C28.5853 72.8678 28.5373 73.2519 27.6731 73.1079C27.6731 73.1079 27.481 72.9638 27.481 72.7718V71.7635C27.481 71.7635 27.481 71.5234 27.8651 71.5234C27.8651 71.5234 28.2972 71.8115 28.3453 71.6675C28.3453 71.6675 28.4893 71.2834 28.3453 71.0913C28.3453 71.0913 28.1532 71.0913 28.1052 71.1393C28.1052 71.1393 27.9611 71.4274 27.5771 71.2354C27.5771 71.2354 27.385 70.8513 27.529 70.5632C27.529 70.5632 27.481 69.987 27.8651 70.035C27.8651 70.035 28.3453 70.1311 28.3453 70.2751C28.3453 70.2751 28.4413 70.5632 28.5854 70.2271L28.4893 69.891C28.4893 69.891 28.4413 69.7469 28.2973 69.795C28.2973 69.795 27.5291 69.891 27.433 69.795L26.8089 69.843C26.8089 69.843 26.7128 70.083 27.0009 70.1791C27.0009 70.2271 27.0489 70.275 27.0489 70.3711ZM40.8288 69.987C40.7808 69.795 41.213 69.795 41.213 69.795L41.453 69.843C41.5971 69.843 41.7891 69.891 41.7891 69.891C41.9332 70.1311 41.6931 70.2751 41.6931 70.2751L41.5971 70.5632V72.9639C41.6451 73.0599 41.8371 73.3 41.8371 73.3C41.8371 73.4921 41.5971 73.444 41.5971 73.444H40.9249C40.7328 73.444 40.7809 73.204 40.7809 73.204C41.0209 73.1079 41.0689 72.6758 41.0689 72.6758V70.4192L40.8288 69.987ZM37.7559 72.0996L37.7079 72.8198L37.9 73.1559C38.044 73.3479 37.8039 73.492 37.8039 73.492L37.0837 73.396C36.9397 73.348 37.0837 73.1079 37.0837 73.1079C37.2758 73.0119 37.2758 72.7238 37.2758 72.7238V70.4191C37.2758 70.3231 37.0837 70.083 37.0837 70.083C36.9397 70.083 36.9877 69.843 36.9877 69.843C37.0357 69.7469 37.4198 69.7949 37.4198 69.7949H38.3801C39.2924 70.083 39.1483 70.7552 39.1483 70.7552C39.1963 71.4274 38.5241 71.6675 38.5241 71.6675L38.4761 72.0516L39.1483 73.1079C39.2443 73.2039 39.2443 73.2999 39.2443 73.2999C39.1483 73.54 38.7642 73.2999 38.7642 73.2999L37.948 72.0035C37.8519 71.9075 37.7559 72.0996 37.7559 72.0996ZM37.7559 70.2751V71.4754C38.1881 71.8115 38.4281 71.3314 38.4281 71.3314C39.0043 70.8032 38.4281 70.2751 38.3321 70.131C38.236 69.987 37.8039 70.131 37.8039 70.131L37.7559 70.2751ZM30.7461 83.7189C30.7461 83.7189 30.7941 85.3993 30.7461 85.6394V86.0235C30.7461 86.0235 30.8421 86.2636 30.9861 86.3596C30.9861 86.3596 31.0822 86.6957 30.8421 86.6477C30.8421 86.6477 30.2659 86.5997 30.1219 86.6477C30.1219 86.6477 29.7858 86.6477 30.1219 86.2636C30.1219 86.2636 30.2179 86.1195 30.2179 85.6874C30.2179 85.6874 30.2179 83.7669 30.2659 83.6709C30.2659 83.6709 30.3139 83.4308 30.1699 83.3348H29.8818L29.5457 83.6709C29.5457 83.6709 29.4497 84.007 29.3057 83.6709V83.4788L29.4977 82.9507H29.6417C29.6417 82.9507 29.8338 83.0947 30.0259 83.1427H31.0822L31.4663 82.9507C31.4663 82.9507 31.6103 82.9507 31.5623 83.1907C31.5623 83.1907 31.6103 83.7189 31.3222 83.7669C31.3222 83.7669 31.1302 83.7189 31.0341 83.4308C31.0341 83.3828 30.7461 83.1907 30.7461 83.7189ZM35.7393 83.0947C35.7393 83.0947 34.8751 82.9987 34.8751 83.9589C34.8751 83.9589 34.779 84.5831 35.7393 85.0152C35.7393 85.0152 36.4595 85.3513 36.4115 85.7834C36.4115 85.7834 36.3155 86.5516 35.5473 86.1676C35.5473 86.1676 35.1631 85.9755 35.2112 85.7834C35.2112 85.7834 35.1151 85.5434 34.9711 85.5914C34.9711 85.5914 34.827 85.6394 34.8751 86.4076C34.8751 86.4076 34.8751 86.6957 35.2112 86.4076L35.4032 86.4556C35.4032 86.4556 36.0274 86.9358 36.5555 86.3596C36.5555 86.3596 37.1317 85.8314 36.6996 85.2073C36.6996 85.2073 36.4115 84.7271 35.8833 84.5351C35.8833 84.5351 35.4032 84.295 35.2592 83.9109C35.2592 83.9109 35.4032 83.2388 36.0274 83.5748C36.0274 83.5748 36.2675 83.8629 36.4115 83.9109C36.4115 83.9109 36.6036 83.9109 36.5555 83.4788L36.5075 83.1427C36.5075 83.1427 36.4595 82.9026 36.1234 83.1427C36.1234 83.0947 35.8353 83.2387 35.7393 83.0947ZM33.0025 82.6145C33.1465 82.7106 33.1945 82.9506 33.1945 82.9506C33.6747 84.151 34.0588 85.9275 34.0588 85.9275C34.1548 86.1676 34.3949 86.3117 34.3949 86.3117C34.779 86.4557 34.3949 86.5517 34.3949 86.5517C34.2508 86.5997 33.7227 86.5517 33.7227 86.5517C33.4346 86.5037 33.5787 86.4077 33.5787 86.4077C33.6747 86.3117 33.5787 85.8315 33.5787 85.8315C33.5787 85.6395 33.3386 85.3514 33.3386 85.3514C33.2426 85.3034 33.0985 85.4954 33.0985 85.4954C33.0985 85.4954 32.8584 85.5915 32.8104 85.4954C32.7624 85.3994 32.6184 85.3034 32.6184 85.3034C32.3303 85.3034 32.2343 85.9756 32.2343 85.9756C32.3783 86.5517 32.2343 86.4557 32.2343 86.4557C32.0902 86.6478 31.6581 86.5037 31.6581 86.5037C31.4661 86.4557 31.6101 86.3117 31.6101 86.3117C31.8502 86.2636 31.9462 85.9756 31.9462 85.9756C32.0422 85.8315 32.8104 82.8546 32.8104 82.8546C32.7624 82.8066 32.8104 82.5185 33.0025 82.6145ZM32.6184 84.151C32.6184 84.247 32.4263 84.9192 32.4263 84.9192L32.5704 85.1592H33.0505C33.1465 85.1592 33.1945 85.0632 33.1945 84.9192C33.1945 84.8231 32.9545 84.103 32.9545 84.103L32.8584 83.9589L32.6184 84.151Z" fill="#D1E8FC"></path></g><g clip-path="url(#clip0_1150_16632)"><rect x="45.4497" y="73.4229" width="145.706" height="54.2681" rx="27.134" transform="rotate(-9.14962 45.4497 73.4229)" fill="#A5D5FF"></rect><g clip-path="url(#clip1_1150_16632)"><rect x="44.1055" y="80.2358" width="91.868" height="22.9208" rx="11.4604" transform="rotate(-15.1521 44.1055 80.2358)" fill="#D1E8FC"></rect><path d="M58.2927 95.9929L54.5094 82.0221L57.9666 81.0859L58.3 82.3172L56.4215 82.8259L59.5379 94.3341L61.4164 93.8254L61.7499 95.0567L58.2927 95.9929ZM61.4695 92.0827L63.4126 79.6112L64.8176 79.2307L72.8671 88.9963L71.178 89.4537L68.9496 86.6684L69.7639 86.9223L63.0232 88.7476L63.6455 88.1047L63.1271 91.6339L61.4695 92.0827ZM64.5787 81.227L63.7139 87.544L63.2367 87.2835L68.8408 85.7659L68.6234 86.2145L64.6419 81.2099L64.5787 81.227ZM74.354 88.5936L72.7167 82.5475C72.6341 82.2423 72.5342 81.9361 72.4172 81.629C72.3078 81.3084 72.1931 80.9893 72.0732 80.6716L73.6202 80.2527L74.2154 81.8875L74.026 81.9388C74.0903 81.3001 74.3059 80.7617 74.673 80.3234C75.0505 79.8823 75.5603 79.5748 76.2023 79.401C76.8548 79.2243 77.429 79.2382 77.9249 79.4428C78.4285 79.634 78.8462 80.0292 79.1779 80.6284L78.9253 80.6968C78.9791 80.061 79.2129 79.5063 79.6269 79.0327C80.038 78.5486 80.575 78.2168 81.2381 78.0373C82.1221 77.7979 82.8549 77.8762 83.4366 78.2722C84.0182 78.6682 84.4558 79.4081 84.7494 80.4921L86.0831 85.4174L84.4887 85.8492L83.1764 81.0028C82.9883 80.3082 82.7319 79.8411 82.4072 79.6015C82.0901 79.3484 81.6685 79.2932 81.1423 79.4357C80.5319 79.601 80.1048 79.9425 79.861 80.4604C79.6172 80.9783 79.5921 81.595 79.7859 82.3106L81 86.7939L79.4056 87.2257L78.0932 82.3793C77.9051 81.6847 77.6487 81.2176 77.324 80.978C77.007 80.7249 76.5854 80.6697 76.0592 80.8122C75.4488 80.9775 75.0269 81.3176 74.7936 81.8326C74.5603 82.3476 74.5406 82.963 74.7343 83.6786L75.9484 88.1619L74.354 88.5936ZM92.2419 83.9022C90.9579 84.2498 89.8493 84.1604 88.9159 83.6337C87.9826 83.107 87.3421 82.2017 86.9944 80.9178C86.7693 80.0864 86.7305 79.3174 86.8781 78.611C87.0362 77.9017 87.3538 77.3018 87.8309 76.8111C88.3157 76.3071 88.9369 75.9525 89.6947 75.7473C90.4419 75.5449 91.1108 75.5332 91.7015 75.7121C92.2921 75.8911 92.7974 76.2343 93.2172 76.7419C93.6342 77.239 93.9482 77.8769 94.159 78.6557L94.2958 79.1608L88.2971 80.7853L88.0491 79.8697L92.9587 78.5402L92.7459 78.8181C92.5321 78.0288 92.1879 77.4668 91.7132 77.1322C91.2463 76.7843 90.6812 76.7 90.0182 76.8796C89.2815 77.0791 88.7831 77.4908 88.5228 78.1148C88.2597 78.7283 88.2492 79.4823 88.4915 80.3768L88.5342 80.5347C88.7879 81.4713 89.2051 82.1152 89.7859 82.4662C90.3772 82.8144 91.0938 82.8745 91.9357 82.6465C92.3988 82.5211 92.8132 82.3411 93.1789 82.1065C93.5523 81.8586 93.8818 81.5321 94.1675 81.1272L94.9834 82.0753C94.7034 82.5013 94.3245 82.875 93.8468 83.1964C93.3662 83.5073 92.8312 83.7426 92.2419 83.9022ZM97.2691 82.3883L95.649 76.4053C95.5606 76.0791 95.4618 75.7557 95.3524 75.4351C95.2506 75.1012 95.1398 74.7754 95.0199 74.4577L96.5669 74.0388L97.2963 76.0439L97.0437 76.1123C97.015 75.5892 97.0828 75.1303 97.247 74.7357C97.4113 74.341 97.6509 74.0163 97.966 73.7616C98.2916 73.504 98.6543 73.321 99.0543 73.2127C99.2226 73.1671 99.3676 73.1392 99.489 73.1289C99.6077 73.108 99.7291 73.0977 99.8534 73.098L100.222 74.523C100.024 74.4978 99.8543 74.4984 99.7146 74.5249C99.5826 74.5381 99.4219 74.5703 99.2325 74.6216C98.7694 74.747 98.4032 74.9591 98.134 75.258C97.8619 75.5463 97.6887 75.8869 97.6143 76.2798C97.54 76.6726 97.557 77.0691 97.6653 77.469L98.8793 81.9523L97.2691 82.3883ZM103.409 80.7256L101.255 72.7693L102.849 72.3376L105.004 80.2938L103.409 80.7256ZM100.68 71.146L100.231 69.4884L102.078 68.9883L102.527 70.6458L100.68 71.146ZM111.025 78.8156C110.226 79.0322 109.482 79.0586 108.793 78.8948C108.113 78.7176 107.525 78.3627 107.031 77.8302C106.544 77.2842 106.184 76.5797 105.95 75.7168C105.719 74.8643 105.685 74.0887 105.846 73.39C106.006 72.6912 106.339 72.1042 106.843 71.6289C107.344 71.143 107.994 70.7918 108.794 70.5752C109.31 70.4356 109.834 70.3897 110.366 70.4375C110.896 70.4748 111.362 70.6085 111.763 70.8387L111.545 72.1006C111.174 71.8963 110.785 71.7756 110.38 71.7385C109.972 71.6909 109.594 71.7141 109.246 71.8082C108.489 72.0134 107.96 72.4165 107.659 73.0174C107.359 73.6184 107.333 74.3766 107.581 75.2922C107.831 76.2184 108.239 76.8703 108.805 77.2481C109.37 77.6259 110.032 77.7122 110.79 77.507C111.126 77.4158 111.462 77.2572 111.796 77.0312C112.127 76.7946 112.406 76.4877 112.631 76.1103L113.456 77.0901C113.215 77.4942 112.871 77.8526 112.425 78.1655C111.987 78.465 111.52 78.6817 111.025 78.8156ZM118.557 76.776C117.852 76.9669 117.192 76.9705 116.578 76.7868C115.963 76.603 115.425 76.2406 114.962 75.6995C114.509 75.1555 114.168 74.4573 113.937 73.6048C113.703 72.7418 113.646 71.9667 113.765 71.2793C113.894 70.5891 114.178 70.0097 114.616 69.5409C115.051 69.0617 115.621 68.7266 116.326 68.5356C117.02 68.3475 117.673 68.3573 118.282 68.5649C118.892 68.7726 119.362 69.1536 119.693 69.7078L119.52 69.7549L119.19 67.9125L120.737 67.4936C120.794 67.8283 120.851 68.1631 120.907 68.4979C120.972 68.8194 121.045 69.1327 121.128 69.4379L122.765 75.484L121.171 75.9158L120.692 74.1477L120.866 74.1007C120.857 74.7356 120.637 75.298 120.204 75.7878C119.78 76.2642 119.231 76.5936 118.557 76.776ZM118.614 75.422C119.298 75.2368 119.78 74.8465 120.059 74.2513C120.349 73.6532 120.366 72.8805 120.109 71.9334C119.853 70.9862 119.45 70.3328 118.901 69.9732C118.359 69.6003 117.747 69.5064 117.062 69.6916C116.368 69.8797 115.876 70.2728 115.586 70.8709C115.304 71.4557 115.291 72.2216 115.547 73.1688C115.804 74.116 116.203 74.776 116.744 75.149C117.286 75.522 117.909 75.613 118.614 75.422ZM125.025 77.9221L124.691 76.6907L126.57 76.182L123.453 64.6739L121.575 65.1826L121.241 63.9513L124.683 63.0194L128.466 76.9901L125.025 77.9221Z" fill="#407BFF"></path></g><g clip-path="url(#clip2_1150_16632)"><rect x="71.2173" y="94.8735" width="91.868" height="22.9208" rx="11.4604" transform="rotate(-3.54459 71.2173 94.8735)" fill="#407BFF"></rect><path d="M81.9759 113.161L81.081 98.7145L84.6559 98.4931L84.7347 99.7663L82.7923 99.8867L83.5294 111.786L85.4719 111.666L85.5507 112.939L81.9759 113.161ZM87.0661 109.896L86.3533 98.388L88.0509 98.2828L88.3583 103.245L94.8224 102.845L94.515 97.8824L96.2126 97.7772L96.9255 109.285L95.2279 109.39L94.9104 104.265L88.4463 104.665L88.7638 109.791L87.0661 109.896ZM102.803 109.069C102.074 109.114 101.427 108.985 100.862 108.681C100.297 108.377 99.8424 107.914 99.498 107.291C99.1644 106.667 98.9703 105.914 98.9157 105.033C98.8604 104.14 98.9601 103.369 99.2149 102.72C99.4805 102.07 99.8749 101.56 100.398 101.188C100.921 100.807 101.546 100.593 102.276 100.548C102.994 100.503 103.631 100.644 104.186 100.97C104.742 101.296 105.126 101.764 105.338 102.374L105.159 102.385L105.207 100.514L106.806 100.415C106.795 100.754 106.783 101.093 106.771 101.433C106.769 101.761 106.778 102.082 106.798 102.398L107.185 108.65L105.537 108.752L105.423 106.924L105.603 106.913C105.467 107.533 105.137 108.039 104.616 108.432C104.104 108.813 103.5 109.026 102.803 109.069ZM103.132 107.754C103.839 107.71 104.389 107.425 104.783 106.898C105.187 106.37 105.359 105.617 105.298 104.637C105.237 103.658 104.974 102.937 104.509 102.474C104.053 102 103.472 101.785 102.765 101.828C102.046 101.873 101.485 102.159 101.081 102.686C100.687 103.202 100.52 103.95 100.581 104.93C100.641 105.909 100.899 106.636 101.355 107.11C101.81 107.584 102.402 107.799 103.132 107.754ZM109.722 108.493L109.338 102.306C109.317 101.969 109.286 101.632 109.243 101.296C109.211 100.948 109.168 100.607 109.114 100.272L110.714 100.173L111.025 102.284L110.764 102.3C110.841 101.781 110.999 101.346 111.24 100.992C111.48 100.639 111.78 100.369 112.14 100.183C112.511 99.9957 112.903 99.8895 113.316 99.8639C113.49 99.8531 113.638 99.8549 113.759 99.8692C113.88 99.8727 114.001 99.8871 114.122 99.9123L114.197 101.382C114.007 101.318 113.841 101.284 113.699 101.282C113.567 101.268 113.403 101.268 113.207 101.28C112.729 101.31 112.327 101.444 112.003 101.682C111.679 101.91 111.441 102.209 111.289 102.578C111.137 102.948 111.074 103.34 111.099 103.754L111.387 108.39L109.722 108.493ZM118.981 107.919L114.945 99.9105L116.708 99.8013L119.909 106.502L119.435 106.531L121.834 99.4838L123.515 99.3796L120.482 107.826L118.981 107.919ZM128.496 107.477C127.767 107.522 127.119 107.393 126.554 107.089C125.989 106.786 125.535 106.322 125.19 105.699C124.857 105.075 124.663 104.323 124.608 103.441C124.553 102.549 124.652 101.778 124.907 101.129C125.173 100.479 125.567 99.968 126.09 99.597C126.613 99.215 127.239 99.0015 127.968 98.9563C128.686 98.9118 129.323 99.0526 129.878 99.3787C130.434 99.7048 130.818 100.173 131.03 100.782L130.851 100.793L130.899 98.9222L132.499 98.8231C132.487 99.1625 132.475 99.5019 132.463 99.8413C132.462 100.169 132.471 100.491 132.49 100.806L132.878 107.058L131.229 107.16L131.116 105.332L131.295 105.321C131.159 105.941 130.83 106.448 130.308 106.841C129.796 107.222 129.192 107.434 128.496 107.477ZM128.824 106.162C129.531 106.119 130.082 105.833 130.475 105.306C130.879 104.779 131.051 104.025 130.99 103.046C130.93 102.066 130.667 101.345 130.201 100.883C129.746 100.408 129.164 100.193 128.457 100.237C127.739 100.281 127.177 100.567 126.773 101.095C126.379 101.611 126.212 102.359 126.273 103.338C126.334 104.317 126.592 105.044 127.047 105.519C127.502 105.993 128.095 106.208 128.824 106.162ZM135.414 106.901L135.031 100.715C135.01 100.377 134.978 100.041 134.935 99.7045C134.903 99.357 134.86 99.0155 134.806 98.6802L136.406 98.5811L136.717 100.692L136.456 100.708C136.533 100.19 136.692 99.7541 136.932 99.4006C137.172 99.0471 137.472 98.7772 137.832 98.5911C138.203 98.4043 138.595 98.298 139.009 98.2724C139.183 98.2616 139.33 98.2634 139.451 98.2778C139.572 98.2812 139.693 98.2956 139.815 98.3208L139.889 99.7909C139.7 99.7262 139.534 99.6928 139.391 99.6907C139.26 99.677 139.096 99.6762 138.9 99.6884C138.421 99.718 138.02 99.8521 137.696 100.091C137.371 100.318 137.133 100.617 136.981 100.987C136.829 101.357 136.766 101.749 136.792 102.162L137.079 106.798L135.414 106.901ZM144.811 106.467C144.093 106.511 143.446 106.382 142.87 106.079C142.305 105.775 141.85 105.312 141.505 104.689C141.172 104.065 140.978 103.312 140.923 102.431C140.868 101.538 140.968 100.767 141.222 100.118C141.488 99.468 141.882 98.9574 142.406 98.5864C142.939 98.2037 143.565 97.9902 144.283 97.9457C144.99 97.9019 145.622 98.043 146.177 98.3691C146.743 98.6836 147.132 99.1402 147.344 99.7388L147.148 99.751L146.8 94.1357L148.449 94.0336L149.193 106.048L147.56 106.149L147.445 104.288L147.641 104.276C147.494 104.908 147.166 105.419 146.655 105.812C146.144 106.204 145.529 106.422 144.811 106.467ZM145.139 105.152C145.846 105.108 146.402 104.822 146.807 104.295C147.211 103.767 147.383 103.014 147.322 102.034C147.261 101.055 146.998 100.334 146.532 99.871C146.066 99.3974 145.479 99.1825 144.772 99.2263C144.054 99.2708 143.493 99.5568 143.088 100.084C142.694 100.6 142.527 101.348 142.588 102.327C142.649 103.307 142.907 104.034 143.362 104.508C143.829 104.982 144.421 105.196 145.139 105.152ZM150.915 108.89L150.836 107.617L152.779 107.497L152.042 95.5971L150.099 95.7174L150.02 94.4442L153.579 94.2237L154.474 108.67L150.915 108.89Z" fill="white"></path></g><g clip-path="url(#clip3_1150_16632)"><rect x="133.59" y="69.0151" width="58.868" height="22.9208" rx="11.4604" transform="rotate(-9.14962 133.59 69.0151)" fill="#7450FA"></rect><path d="M145.646 86.2344L143.345 71.9446L146.881 71.375L147.084 72.6345L145.162 72.9439L147.058 84.7149L148.979 84.4054L149.182 85.6648L145.646 86.2344ZM153.738 81.9492L152.878 76.6047L153.421 77.6105L147.481 71.2784L149.418 70.9663L153.863 75.833L153.46 75.898L156.152 69.8818L158.025 69.5802L154.389 77.4545L154.557 76.3342L155.418 81.6787L153.738 81.9492ZM162.821 80.6355C162.1 80.7516 161.443 80.6862 160.851 80.4392C160.259 80.1922 159.761 79.7754 159.357 79.1889C158.965 78.6006 158.698 77.8705 158.557 76.9985C158.415 76.1159 158.439 75.3389 158.629 74.6678C158.83 73.9949 159.173 73.4483 159.657 73.0279C160.14 72.5967 160.742 72.3231 161.463 72.2069C162.174 72.0925 162.821 72.1704 163.406 72.4407C163.991 72.711 164.418 73.139 164.69 73.7248L164.512 73.7535L164.377 71.8867L165.959 71.6319C165.981 71.9708 166.002 72.3097 166.024 72.6486C166.054 72.975 166.095 73.2942 166.145 73.6064L167.141 79.7906L165.51 80.0533L165.219 78.2448L165.396 78.2162C165.321 78.8468 165.043 79.383 164.562 79.8249C164.09 80.2543 163.51 80.5245 162.821 80.6355ZM163.019 79.2949C163.719 79.1822 164.239 78.8444 164.579 78.2817C164.929 77.7171 165.027 76.9505 164.871 75.9817C164.715 75.0129 164.382 74.321 163.874 73.9059C163.374 73.4784 162.775 73.3209 162.075 73.4336C161.365 73.5481 160.834 73.8875 160.483 74.452C160.141 75.0041 160.048 75.7645 160.204 76.7333C160.36 77.7021 160.688 78.4002 161.188 78.8278C161.687 79.2553 162.298 79.411 163.019 79.2949ZM169.682 79.3813L167.768 67.4974L169.399 67.2347L171.313 79.1187L169.682 79.3813ZM177.65 78.2471C176.337 78.4586 175.243 78.2537 174.37 77.6323C173.497 77.0109 172.955 76.0436 172.743 74.7303C172.606 73.8799 172.648 73.1112 172.869 72.424C173.1 71.7352 173.479 71.1717 174.005 70.7336C174.539 70.2831 175.194 69.9954 175.969 69.8705C176.734 69.7474 177.4 69.8057 177.969 70.0454C178.538 70.2852 179.004 70.6794 179.369 71.2281C179.731 71.766 179.977 72.4333 180.105 73.2298L180.188 73.7465L174.053 74.7348L173.902 73.7983L178.923 72.9895L178.683 73.2436C178.553 72.4362 178.269 71.8414 177.832 71.459C177.404 71.0641 176.851 70.9213 176.173 71.0305C175.419 71.1518 174.88 71.5092 174.556 72.1025C174.231 72.6851 174.141 73.4339 174.289 74.3489L174.315 74.5103C174.469 75.4684 174.817 76.1523 175.357 76.5622C175.909 76.9703 176.616 77.105 177.477 76.9663C177.95 76.89 178.381 76.7543 178.77 76.5593C179.167 76.3517 179.529 76.0615 179.855 75.6887L180.567 76.717C180.244 77.1113 179.829 77.4434 179.32 77.7131C178.809 77.972 178.253 78.15 177.65 78.2471ZM182.133 80.3577L181.931 79.0982L183.852 78.7887L181.956 67.0178L180.035 67.3273L179.832 66.0678L183.352 65.5009L185.653 79.7907L182.133 80.3577Z" fill="white"></path></g></g><rect x="42.7867" y="71.4987" width="150.352" height="58.9143" rx="29.4572" transform="rotate(-9.14962 42.7867 71.4987)" stroke="#EEF7FF" stroke-width="4.64624"></rect><defs><clipPath id="clip0_1150_16632"><rect x="45.4497" y="73.4229" width="145.706" height="54.2681" rx="27.134" transform="rotate(-9.14962 45.4497 73.4229)" fill="white"></rect></clipPath><clipPath id="clip1_1150_16632"><rect x="44.1055" y="80.2358" width="91.868" height="22.9208" rx="11.4604" transform="rotate(-15.1521 44.1055 80.2358)" fill="white"></rect></clipPath><clipPath id="clip2_1150_16632"><rect x="71.2173" y="94.8735" width="91.868" height="22.9208" rx="11.4604" transform="rotate(-3.54459 71.2173 94.8735)" fill="white"></rect></clipPath><clipPath id="clip3_1150_16632"><rect x="133.59" y="69.0151" width="58.868" height="22.9208" rx="11.4604" transform="rotate(-9.14962 133.59 69.0151)" fill="white"></rect></clipPath></defs></svg> 