<?xml version="1.0" encoding="UTF-8"?> <svg xmlns="http://www.w3.org/2000/svg" width="25" height="25" viewBox="0 0 25 25" fill="none"><path d="M8.54801 0.000489073C9.21723 0.314474 9.22251 1.20752 9.47023 1.86728C10.2359 3.90574 11.8989 5.56517 13.9022 6.3335C14.3045 6.48756 14.9176 6.57363 15.2522 6.76388C15.7707 7.05879 15.7808 7.82419 15.2714 8.14356C14.9819 8.32549 14.2378 8.45363 13.8537 8.60329C11.8096 9.39999 10.1466 11.099 9.40878 13.203C9.20187 13.7938 9.13562 14.9299 8.33246 14.9368C7.5293 14.9436 7.45489 13.7523 7.2427 13.1663C6.48995 11.0922 4.83515 9.39265 2.80973 8.60329C2.12611 8.33674 0.726702 8.2717 1.04691 7.17324C1.20629 6.62645 2.27253 6.52228 2.76268 6.33399C4.74393 5.5725 6.41314 3.9165 7.18125 1.90298C7.33439 1.50194 7.53314 0.442611 7.77894 0.217638C7.88551 0.119823 8.02089 0.103194 8.11643 0L8.54801 0.000489073Z" fill="#00C1DE"></path><path d="M14.8394 12.7556C15.0708 12.4807 15.9311 12.3316 16.3266 12.1477C17.3862 11.6552 18.3559 10.636 18.7894 9.53162C19.0126 8.96332 19.0458 7.95632 19.8772 8.00376C20.5633 8.04288 20.6026 8.80437 20.7774 9.28709C21.2853 10.6873 22.2987 11.7667 23.676 12.289C24.0975 12.4489 24.8244 12.5081 24.9593 13.0319C25.2339 14.1001 24.0543 14.1045 23.3837 14.4072C22.2046 14.9393 21.2546 15.9717 20.8124 17.2062C20.6012 17.7955 20.5892 18.6279 19.7356 18.5496C19.0285 18.4846 19.0328 17.6957 18.8379 17.1695C18.3314 15.8025 17.246 14.7505 15.9042 14.2522C15.5581 14.1235 15.0655 14.1064 14.8245 13.79C14.5835 13.4736 14.5936 13.0481 14.8394 12.7556Z" fill="#00C1DE"></path><path d="M6.16884 20.1768C6.40071 19.921 6.94367 19.8545 7.27108 19.7136C8.13184 19.3429 8.86395 18.5677 9.20672 17.683C9.37043 17.2614 9.37523 16.6814 9.87546 16.5092C10.9033 16.1551 10.9427 17.3612 11.2365 17.9818C11.6416 18.8372 12.391 19.4486 13.2451 19.7919C13.6517 19.9552 14.1836 19.9533 14.3224 20.5001C14.5802 21.5149 13.3776 21.5472 12.7794 21.8597C12.1812 22.1722 11.5884 22.7826 11.2869 23.3655C10.97 23.9784 10.9796 25.0939 10.056 24.9937C9.42371 24.9252 9.41843 24.3217 9.24033 23.8717C8.8049 22.7713 8.17313 22.1086 7.08721 21.6724C6.64651 21.4953 6.13235 21.5051 5.99361 20.9324C5.9288 20.6644 5.98209 20.3832 6.16884 20.1768Z" fill="#00C1DE"></path></svg> 