<?xml version="1.0" encoding="UTF-8"?> <svg xmlns="http://www.w3.org/2000/svg" width="30" height="30" viewBox="0 0 30 30" fill="none"><circle cx="15" cy="15" r="15" fill="#52BEDA"></circle><path d="M15 16.5C16.6545 16.5 18 15.1545 18 13.5C18 11.8455 16.6545 10.5 15 10.5C13.3455 10.5 12 11.8455 12 13.5C12 15.1545 13.3455 16.5 15 16.5ZM15 12C15.8273 12 16.5 12.6727 16.5 13.5C16.5 14.3273 15.8273 15 15 15C14.1727 15 13.5 14.3273 13.5 13.5C13.5 12.6727 14.1727 12 15 12Z" fill="white"></path><path d="M14.5651 22.3605C14.692 22.4511 14.8441 22.4999 15.0001 22.4999C15.156 22.4999 15.3081 22.4511 15.4351 22.3605C15.6631 22.1992 21.0218 18.33 21.0001 13.5C21.0001 10.1918 18.3083 7.5 15.0001 7.5C11.6918 7.5 9.00007 10.1917 9.00007 13.4963C8.97832 18.33 14.3371 22.1992 14.5651 22.3605ZM15.0001 9C17.4818 9 19.5001 11.0183 19.5001 13.5037C19.5158 16.8323 16.2091 19.821 15.0001 20.8013C13.7918 19.8203 10.4843 16.8307 10.5001 13.5C10.5001 11.0182 12.5183 9 15.0001 9Z" fill="white"></path></svg> 