<?xml version="1.0" encoding="UTF-8"?> <svg xmlns="http://www.w3.org/2000/svg" width="25" height="25" viewBox="0 0 25 25" fill="none"> <path d="M21.8914 8.96926C21.8813 8.21189 21.7395 7.46204 21.4724 6.75326C21.2408 6.15542 20.8869 5.61246 20.4336 5.15909C19.9802 4.70573 19.4373 4.35191 18.8394 4.12026C18.1397 3.85762 17.4006 3.7156 16.6534 3.70026C15.6914 3.65726 15.3864 3.64526 12.9444 3.64526C10.5024 3.64526 10.1894 3.64526 9.23441 3.70026C8.48757 3.71572 7.74875 3.85773 7.04941 4.12026C6.45146 4.35175 5.90843 4.70551 5.45504 5.1589C5.00165 5.61228 4.6479 6.15532 4.41641 6.75326C4.15324 7.4524 4.01153 8.19137 3.99741 8.93826C3.95441 9.90126 3.94141 10.2063 3.94141 12.6483C3.94141 15.0903 3.94141 15.4023 3.99741 16.3583C4.01241 17.1063 4.15341 17.8443 4.41641 18.5453C4.64828 19.143 5.0023 19.6858 5.45584 20.139C5.90938 20.5922 6.45247 20.9458 7.05041 21.1773C7.74784 21.4505 8.48678 21.6026 9.23541 21.6273C10.1984 21.6703 10.5034 21.6833 12.9454 21.6833C15.3874 21.6833 15.7004 21.6833 16.6554 21.6273C17.4026 21.6126 18.1418 21.4709 18.8414 21.2083C19.4391 20.9763 19.9819 20.6224 20.4352 20.1691C20.8886 19.7158 21.2425 19.173 21.4744 18.5753C21.7374 17.8753 21.8784 17.1373 21.8934 16.3883C21.9364 15.4263 21.9494 15.1213 21.9494 12.6783C21.9474 10.2363 21.9474 9.92626 21.8914 8.96926ZM12.9384 17.2663C10.3844 17.2663 8.31541 15.1973 8.31541 12.6433C8.31541 10.0893 10.3844 8.02026 12.9384 8.02026C14.1645 8.02026 15.3404 8.50733 16.2074 9.37431C17.0743 10.2413 17.5614 11.4172 17.5614 12.6433C17.5614 13.8694 17.0743 15.0452 16.2074 15.9122C15.3404 16.7792 14.1645 17.2663 12.9384 17.2663ZM17.7454 8.92726C17.6038 8.92739 17.4636 8.8996 17.3327 8.84547C17.2019 8.79135 17.083 8.71195 16.9829 8.61182C16.8827 8.51169 16.8033 8.3928 16.7492 8.26195C16.6951 8.1311 16.6673 7.99087 16.6674 7.84926C16.6674 7.70776 16.6953 7.56765 16.7494 7.43692C16.8036 7.30619 16.8829 7.18741 16.983 7.08736C17.0831 6.9873 17.2018 6.90793 17.3326 6.85378C17.4633 6.79963 17.6034 6.77176 17.7449 6.77176C17.8864 6.77176 18.0265 6.79963 18.1572 6.85378C18.288 6.90793 18.4068 6.9873 18.5068 7.08736C18.6069 7.18741 18.6862 7.30619 18.7404 7.43692C18.7945 7.56765 18.8224 7.70776 18.8224 7.84926C18.8224 8.44526 18.3404 8.92726 17.7454 8.92726Z" fill="white"></path> <path d="M12.9385 15.6464C14.5971 15.6464 15.9415 14.3019 15.9415 12.6434C15.9415 10.9849 14.5971 9.64038 12.9385 9.64038C11.28 9.64038 9.93555 10.9849 9.93555 12.6434C9.93555 14.3019 11.28 15.6464 12.9385 15.6464Z" fill="white"></path> </svg> 