<?xml version="1.0" encoding="UTF-8"?> <svg xmlns="http://www.w3.org/2000/svg" width="34" height="34" viewBox="0 0 34 34" fill="none"><path d="M17 13.5C16.0736 13.5061 15.1869 13.8768 14.5319 14.5319C13.8768 15.1869 13.5061 16.0736 13.5 17C13.5 18.9157 15.0843 20.5 17 20.5C18.9145 20.5 20.5 18.9157 20.5 17C20.5 15.0855 18.9145 13.5 17 13.5Z" fill="#182849"></path><path d="M17.0002 8.83398C8.09501 8.83398 5.41867 16.5538 5.39417 16.632L5.27051 17.0007L5.39301 17.3693C5.41867 17.4475 8.09501 25.1673 17.0002 25.1673C25.9053 25.1673 28.5817 17.4475 28.6062 17.3693L28.7298 17.0007L28.6073 16.632C28.5817 16.5538 25.9053 8.83398 17.0002 8.83398ZM17.0002 22.834C10.7573 22.834 8.33884 18.347 7.75317 17.0007C8.34117 15.6497 10.7608 11.1673 17.0002 11.1673C23.243 11.1673 25.6615 15.6543 26.2472 17.0007C25.6592 18.3517 23.2395 22.834 17.0002 22.834Z" fill="#182849"></path></svg> 