<?xml version="1.0" encoding="UTF-8"?> <svg xmlns="http://www.w3.org/2000/svg" width="39" height="39" viewBox="0 0 39 39" fill="none"><path d="M19.9257 38.4999C30.4216 38.4999 38.9257 29.9958 38.9257 19.5C38.9257 9.00406 30.4216 0.5 19.9257 0.5C9.42984 0.5 0.925781 9.00406 0.925781 19.5C0.925781 29.9958 9.42984 38.4999 19.9257 38.4999ZM9.61984 19.0883L27.939 12.0251C28.7892 11.7179 29.5318 12.2325 29.2563 13.5181L29.2579 13.5166L26.1387 28.2114C25.9076 29.2533 25.2885 29.5066 24.4224 29.0158L19.6724 25.515L17.3813 27.7222C17.128 27.9755 16.9142 28.1893 16.4234 28.1893L16.7607 23.3554L25.564 15.4023C25.9471 15.065 25.4785 14.875 24.9734 15.2107L14.0943 22.0602L9.40451 20.5972C8.38643 20.2742 8.36426 19.5791 9.61984 19.0883Z" fill="white"></path></svg> 