<?xml version="1.0" encoding="UTF-8"?> <svg xmlns="http://www.w3.org/2000/svg" width="300" height="100" viewBox="0 0 300 100" fill="none"><path d="M80.9266 39.7458C80.9266 39.3168 80.6406 39.0308 80.0687 38.8879V38.6019C80.3546 38.6019 81.427 38.6734 81.7129 38.6734C81.9274 38.6734 82.9998 38.6019 83.2857 38.6019V38.8879C82.7853 39.0309 82.4993 39.3168 82.4993 39.7458V45.1076C82.4993 46.8233 83.4287 47.7527 85.3589 47.7527C87.0746 47.7527 88.3615 46.9663 88.3615 45.1791V39.6743C88.3615 39.2453 88.0755 38.9594 87.5036 38.8164V38.6019C87.7181 38.6019 88.5759 38.6734 88.8619 38.6734C89.1478 38.6734 90.0057 38.6019 90.2202 38.6019V38.8879C89.5768 39.0309 89.3623 39.3168 89.3623 39.7458V44.9646C89.3623 47.3237 88.004 48.6821 85.0729 48.6821C82.3563 48.6821 80.9264 47.4668 80.9264 45.2506L80.9266 39.7458ZM92.6508 48.2529C93.2942 48.1099 93.5086 47.8239 93.5086 47.395V39.9603C93.5086 39.3168 93.1512 39.0309 92.5793 38.8879V38.602H94.6525L101.087 46.1797V39.7455C101.087 39.3165 100.801 39.0306 100.229 38.8876V38.6017C100.443 38.6017 101.301 38.6732 101.587 38.6732C101.873 38.6732 102.731 38.6017 102.945 38.6017V38.8876C102.302 39.0306 102.016 39.3166 102.016 39.7455V48.6815H101.659C101.444 48.61 100.944 48.3956 100.229 47.6092L94.438 40.889V47.4662C94.438 47.8952 94.6525 48.1811 95.2958 48.3241V48.61C95.0814 48.61 94.2235 48.5385 93.9376 48.5385C93.6516 48.5385 92.7937 48.61 92.5793 48.61L92.6508 48.2529ZM143.551 46.2511H143.837C143.98 46.8231 144.266 47.3235 144.766 47.6094C145.195 47.9669 145.982 48.1099 146.554 48.1099C147.84 48.1099 148.698 47.4665 148.698 46.4656C148.698 45.3933 147.626 44.8928 146.411 44.2495C145.481 43.749 143.623 43.0341 143.623 41.2469C143.623 39.6026 144.909 38.5303 146.911 38.5303C148.269 38.5303 148.841 38.8878 149.771 38.8163V40.818H149.485C149.127 39.6027 148.055 39.2452 146.84 39.2452C145.481 39.2452 145.052 40.0316 145.052 40.7465C145.052 41.8188 146.125 42.3907 147.34 42.9626C148.698 43.5346 150.2 44.3209 150.2 46.0367C150.2 47.681 148.913 48.8248 146.625 48.8248C145.267 48.8248 144.409 48.3958 143.694 48.3243L143.551 46.2511ZM171.217 44.3924L168.572 40.1744C168.143 39.4595 167.786 39.0306 167.286 38.8876V38.6017C167.643 38.6017 168.644 38.6732 168.858 38.6732C169.144 38.6732 170.145 38.6017 170.574 38.6017V38.8876C170.217 38.9591 170.074 39.1021 170.074 39.3881C170.074 39.6025 170.217 39.8885 170.36 40.1745C170.503 40.3889 172.29 43.3915 172.29 43.3915L174.149 40.1745C174.363 39.817 174.435 39.531 174.435 39.3166C174.435 39.1021 174.292 38.9591 174.006 38.9591V38.6017C174.292 38.6017 175.006 38.6732 175.221 38.6732C175.435 38.6732 176.222 38.6017 176.508 38.6017V38.8876C175.793 39.1736 175.364 39.817 174.935 40.5319L172.576 44.5354M172.719 44.035V47.395C172.719 47.7524 173.005 48.1814 173.577 48.2528V48.5388C173.291 48.5388 172.218 48.4673 171.932 48.4673C171.646 48.4673 170.646 48.5388 170.288 48.5388V48.2528C170.86 48.1099 171.146 47.7524 171.146 47.395V44.178M122.463 38.6016H128.611C128.826 38.6016 129.112 38.6016 129.326 38.4587H129.612L129.541 40.4604H129.255C129.04 39.817 128.754 39.3166 127.61 39.3166H124.965V42.8911H127.038C127.324 42.8911 127.682 42.8911 127.825 42.8196C128.254 42.7481 128.468 42.4622 128.611 42.0332H128.897V44.5353H128.611C128.468 44.1064 128.325 43.8204 127.825 43.7489C127.682 43.6775 127.324 43.6775 127.038 43.6775H124.965V47.7525H127.896C129.183 47.7525 129.541 47.252 129.827 46.4656H130.113L129.827 48.5389C128.897 48.4674 128.325 48.4674 127.253 48.4674H124.179C123.893 48.4674 122.821 48.5389 122.463 48.5389V48.2529C123.035 48.1099 123.321 47.8954 123.321 47.3236V39.7458C123.321 39.2454 123.035 38.9595 122.463 38.888L122.463 38.6016ZM106.735 39.817C106.735 39.3165 106.449 39.0306 105.877 38.8876V38.6017C106.235 38.6017 107.236 38.6731 107.593 38.6731C107.879 38.6731 108.951 38.6017 109.309 38.6017V38.8876C108.737 39.0306 108.38 39.2451 108.38 39.817V47.3232C108.38 47.8236 108.665 48.1096 109.309 48.2525V48.5385C108.951 48.5385 107.951 48.467 107.593 48.467C107.307 48.467 106.235 48.5385 105.877 48.5385V48.2525C106.521 48.1096 106.807 47.8951 106.807 47.3232L106.735 39.817ZM153.419 39.817C153.419 39.3165 153.133 39.0306 152.561 38.8876V38.6017C152.918 38.6017 153.991 38.6731 154.276 38.6731C154.562 38.6731 155.635 38.6017 155.992 38.6017V38.8876C155.42 39.0306 155.134 39.2451 155.134 39.817V47.3232C155.134 47.8236 155.42 48.1096 155.992 48.2525V48.5385C155.635 48.5385 154.634 48.467 154.276 48.467C153.991 48.467 152.918 48.5385 152.561 48.5385V48.2525C153.204 48.1096 153.419 47.8951 153.419 47.3232V39.817ZM161.997 38.6731C158.637 38.6731 158.065 38.6016 157.422 38.5302V40.5319H157.708C157.994 39.6025 158.494 39.388 159.138 39.388H161.282V47.2517C161.282 47.7522 160.996 48.0381 160.353 48.1811V48.467C160.71 48.467 161.783 48.3956 162.069 48.3956C162.355 48.3956 163.427 48.467 163.784 48.467V48.1811C163.212 48.0381 162.855 47.7521 162.855 47.2517V39.388H164.928C165.572 39.388 166.072 39.6025 166.358 40.5319H166.644V38.5302C165.858 38.6016 165.357 38.6731 161.997 38.6731ZM135.046 47.3232C135.046 47.8237 135.332 48.1096 135.975 48.2526V48.5385C135.618 48.5385 134.545 48.467 134.259 48.467C133.973 48.467 132.973 48.5385 132.615 48.5385V48.2526C133.187 48.1096 133.473 47.8951 133.473 47.3232V39.7455C133.473 39.2451 133.187 38.9591 132.615 38.8876V38.6017C132.973 38.6017 133.973 38.6732 134.259 38.6732C134.76 38.6732 136.118 38.6017 136.69 38.6017C139.049 38.6017 140.336 39.6025 140.336 41.2468C140.336 42.5336 139.335 43.4629 137.834 43.8204C137.834 43.8204 138.191 44.0349 138.549 44.3923C138.978 44.8928 140.122 46.4655 140.551 47.0374C140.979 47.6093 141.623 48.2528 142.266 48.2528V48.4672C141.98 48.5387 141.48 48.6102 141.122 48.6102C140.336 48.6102 139.693 48.3242 139.049 47.6094C138.477 46.9659 137.619 45.6076 137.048 44.8928C136.69 44.4638 136.261 44.1064 135.546 43.9634C135.403 43.9634 135.26 43.8919 135.117 43.8919L135.046 47.3232ZM135.046 43.3197C135.332 43.3912 135.832 43.3912 136.261 43.3912C138.12 43.3912 138.692 42.3189 138.692 41.3895C138.692 40.0312 137.834 39.2448 136.19 39.2448C135.832 39.2448 135.403 39.3163 135.046 39.3878V43.3197ZM111.597 39.8167C111.383 39.3162 111.025 38.9588 110.454 38.8873V38.6013C110.811 38.6013 112.026 38.6728 112.312 38.6728C112.527 38.6728 113.599 38.6013 113.957 38.6013V38.8873C113.671 38.9588 113.242 39.1018 113.242 39.4592C113.242 39.6737 113.385 40.0312 113.671 40.6031L116.244 46.3938L118.675 40.6031C118.889 40.1026 119.032 39.7452 119.032 39.5307C119.032 39.2448 118.746 39.0303 118.317 38.9588V38.6013C118.603 38.6013 119.39 38.6728 119.676 38.6728C119.89 38.6728 120.819 38.6013 121.177 38.6013V38.8873C120.605 39.0303 120.176 39.3877 119.89 40.1741L116.316 48.5382H115.529L111.597 39.8167ZM120.748 13.4371C120.319 12.5078 119.676 11.8643 118.675 11.6499V11.1494C119.318 11.1494 121.534 11.2209 122.035 11.2209C122.464 11.2209 124.608 11.1494 125.323 11.1494V11.6499C124.751 11.7928 124.036 12.0788 124.036 12.7222C124.036 13.1511 124.322 13.7945 124.823 14.8669L129.684 25.8762L134.26 14.8669C134.617 14.009 134.903 13.2941 134.903 12.7937C134.903 12.2217 134.331 11.7928 133.616 11.6498V11.1494C134.26 11.1494 135.689 11.2209 136.19 11.2209C136.619 11.2209 138.335 11.1494 139.049 11.1494V11.6498C137.906 11.9358 137.191 12.6507 136.547 14.0805L129.827 29.9512H128.326L120.748 13.4371ZM55.6909 29.3078C56.5488 29.0933 57.1922 28.7359 57.1922 27.735V13.2227C57.1922 12.2933 56.6203 11.8644 55.6909 11.6499V11.078C56.1199 11.078 58.1215 11.1495 58.622 11.1495C59.1939 11.1495 61.2671 11.078 61.696 11.078V11.5784C60.8382 11.7929 60.1948 12.1503 60.1948 13.1512V19.2994H71.0611V13.2227C71.0611 12.2218 70.4891 11.7929 69.5598 11.6499V11.078C69.9887 11.078 72.0619 11.1495 72.6338 11.1495C73.1343 11.1495 75.136 11.078 75.6364 11.078V11.5784C74.7785 11.7929 74.1351 12.1503 74.1351 13.1512V27.6635C74.1351 28.5929 74.707 29.0218 75.6364 29.2363V29.7367C75.2074 29.7367 73.1343 29.6653 72.6338 29.6653C72.0619 29.6653 70.0602 29.7367 69.5598 29.7367V29.3078C70.4176 29.0933 71.0611 28.7359 71.0611 27.735V20.8719H60.1948V27.735C60.1948 28.7359 60.7667 29.0933 61.696 29.3078V29.8082C61.2671 29.8082 59.1224 29.7368 58.622 29.7368C58.1215 29.7368 56.1914 29.8082 55.6909 29.8082V29.3078ZM180.942 29.3078C182.086 29.0933 182.658 28.6644 182.658 27.6635V13.2227C182.658 12.2218 182.014 11.7929 180.942 11.6499V11.078C181.585 11.078 183.587 11.1495 184.159 11.1495C185.088 11.1495 187.591 10.935 189.592 10.935C196.241 10.935 200.316 14.6525 200.316 20.3C200.316 25.8048 196.098 29.8795 189.235 29.8795C187.233 29.8795 184.945 29.7365 184.016 29.7365C183.444 29.7365 181.585 29.808 180.942 29.808V29.3078ZM185.66 28.3784C186.375 28.5214 187.591 28.5929 188.592 28.5929C194.168 28.5929 197.099 25.2329 197.099 20.5148C197.099 15.6534 194.025 12.2221 188.806 12.2221C187.734 12.2221 186.375 12.2936 185.66 12.4366V28.3784ZM105.521 27.5921C105.521 28.5214 106.165 29.0934 107.237 29.3078V29.8083C106.594 29.8083 104.592 29.7368 103.949 29.7368C103.448 29.7368 101.446 29.8083 100.803 29.8083V29.3078C101.875 29.0934 102.447 28.5929 102.447 27.5921V13.2942C102.447 12.4363 101.947 11.8644 100.803 11.6499V11.078C101.446 11.078 103.377 11.1495 103.949 11.1495C104.878 11.1495 107.452 11.0065 108.524 11.0065C113.028 11.0065 115.53 12.8653 115.53 16.0109C115.53 18.513 113.671 20.1574 110.812 20.8723C110.812 20.8723 111.455 21.2298 112.098 22.0161C112.885 22.9455 115.101 26.0911 115.959 27.1635C116.817 28.2358 117.961 29.4511 119.176 29.4511V29.8801C118.604 30.0231 117.675 30.0945 116.96 30.0945C115.459 30.0945 114.243 29.5226 113.028 28.0928C112.027 26.8775 110.24 24.2323 109.239 22.9455C108.595 22.0876 107.809 21.4442 106.379 21.2297C106.093 21.1582 105.807 21.1582 105.521 21.0867L105.521 27.5921ZM105.521 20.0144C106.093 20.0859 107.023 20.1573 107.88 20.1573C111.383 20.1573 112.456 18.1556 112.456 16.3683C112.456 13.8662 110.74 12.2933 107.737 12.2933C107.094 12.2933 106.165 12.3648 105.521 12.5078V20.0144ZM164.572 27.5921C164.572 28.5214 165.216 29.0934 166.288 29.3078V29.8083C165.645 29.8083 163.643 29.7368 163.071 29.7368C162.571 29.7368 160.569 29.8083 159.925 29.8083V29.3078C160.998 29.0934 161.57 28.5929 161.57 27.5921V13.2942C161.57 12.4363 161.069 11.8644 159.925 11.6499V11.078C160.569 11.078 162.499 11.1495 163.071 11.1495C164 11.1495 166.574 11.0065 167.575 11.0065C172.079 11.0065 174.581 12.8653 174.581 16.0109C174.581 18.513 172.722 20.1574 169.863 20.8723C169.863 20.8723 170.506 21.2298 171.149 22.0161C171.936 22.9455 174.152 26.0911 175.01 27.1635C175.868 28.2358 177.012 29.4511 178.227 29.4511V29.8801C177.655 30.0231 176.726 30.0945 176.011 30.0945C174.51 30.0945 173.294 29.5226 172.079 28.0928C171.078 26.8775 169.291 24.2323 168.29 22.9455C167.646 22.0876 166.86 21.4442 165.43 21.2297C165.144 21.1582 164.858 21.1582 164.572 21.0867L164.572 27.5921ZM164.572 20.0144C165.144 20.0859 166.074 20.1573 166.931 20.1573C170.434 20.1573 171.507 18.1556 171.507 16.3683C171.507 13.8662 169.791 12.2933 166.788 12.2933C166.145 12.2933 165.216 12.3648 164.572 12.5078V20.0144ZM78.3546 29.3079C79.57 29.0219 80.2134 28.2355 80.6423 27.2347L86.6475 12.7938C86.9335 12.2219 87.2195 11.0066 87.2195 11.0066H88.9352C88.9352 11.0066 89.2212 12.2219 89.5072 12.8653L95.8699 27.3061C96.2988 28.307 96.7992 29.0219 98.086 29.3079V29.8083C97.3711 29.8083 95.2979 29.7368 94.7975 29.7368C94.2971 29.7368 92.2954 29.8083 91.5805 29.8083V29.3079C92.5098 29.0934 92.7958 28.593 92.7958 28.164C92.7958 27.8066 92.6528 27.3062 92.4383 26.8772L91.08 23.8032H84.0739L82.8586 26.9487C82.7156 27.3062 82.5726 27.8066 82.5726 28.164C82.5726 28.6645 82.8586 29.0934 83.8594 29.3794V29.8798C83.216 29.8798 81.5718 29.8083 81.2143 29.8083L78.4977 29.8798L78.3546 29.3079ZM90.2933 22.3017L87.2908 15.3671L84.5027 22.3017H90.2933ZM137.833 29.3079C139.049 29.0219 139.692 28.2355 140.121 27.2347L146.126 12.7938C146.412 12.2219 146.698 11.0066 146.698 11.0066H148.414C148.414 11.0066 148.7 12.2219 148.986 12.8653L155.348 27.3061C155.777 28.307 156.278 29.0219 157.565 29.3079V29.8083C156.85 29.8083 154.776 29.7368 154.276 29.7368C153.776 29.7368 151.774 29.8083 151.059 29.8083V29.3079C151.988 29.0934 152.274 28.593 152.274 28.164C152.274 27.8066 152.131 27.3062 151.917 26.8772L150.559 23.8032H143.552L142.337 26.9487C142.194 27.3062 142.051 27.8066 142.051 28.164C142.051 28.6645 142.337 29.0934 143.338 29.3794V29.8798C142.695 29.8798 141.05 29.8083 140.693 29.8083L137.976 29.8798V29.3079H137.833ZM149.7 22.3017L146.698 15.3671L143.91 22.3017H149.7Z" fill="#12284C"></path><path fill-rule="evenodd" clip-rule="evenodd" d="M21.304 55.3287L21.161 55.2572L21.1392 55.2472C20.3942 54.9096 1.47714 46.3369 0 21.0852V5H42.3214V21.0137C42.3214 27.3049 40.3197 43.3182 21.4463 55.1857L21.304 55.3287ZM5.93343 11.2939C5.86194 11.0079 6.29089 11.0077 6.29089 11.0077L7.22079 11.2214C7.43526 11.4359 10.0078 11.2214 10.0078 11.2214C10.6512 11.2214 10.6515 12.0089 10.6515 12.0089C10.7944 13.8677 10.509 22.6597 10.509 22.6597C10.509 23.1602 10.0804 22.7323 10.0804 22.7323H7.79186C7.57739 22.8038 6.5771 22.7323 6.5771 22.7323C5.79073 22.6609 5.79101 22.1599 5.79101 22.1599L5.93343 11.2939ZM15.727 11.15C15.9683 11.0428 16.1201 11.016 16.2143 11.0244C16.3714 11.0383 16.3707 11.1501 16.3707 11.1501C16.4422 11.2931 16.2995 12.6511 16.2995 12.6511C16.371 12.7941 16.2283 22.3021 16.2283 22.3021C16.1568 22.8025 15.7997 22.6595 15.7997 22.6595C15.2993 23.017 13.1537 22.8033 13.1537 22.8033C12.4388 22.6604 11.3665 22.9458 11.3665 22.9458C11.2235 23.1602 11.009 22.8746 11.009 22.8746L11.0802 21.3736L11.1528 17.0841C11.1528 16.9411 11.224 11.7938 11.224 11.7938C11.2954 11.2938 12.5079 11.2939 12.5823 11.2939C15.7993 11.4368 15.727 11.15 15.727 11.15ZM3.78883 11.6513C4.08372 11.3832 4.28799 11.2954 4.42832 11.2911C4.6622 11.2841 4.71855 11.5076 4.71855 11.5076C4.34936 12.1229 4.35071 13.3666 4.3583 13.7179C4.35912 13.7198 4.35996 13.7214 4.35996 13.7214L4.36109 13.7236L4.35968 13.8298L4.36109 13.8674L4.35968 13.8631C4.35768 14.2672 4.28847 23.4471 4.28847 23.4471C4.35996 24.5194 5.07597 24.3044 5.07597 24.3044L9.43659 24.4468C9.86554 24.4468 9.86526 24.733 9.86526 24.733C9.86526 25.019 9.57902 25.0193 9.57902 25.0193H4.28868C3.57379 24.9478 3.6464 24.4468 3.6464 24.4468V23.1608C3.71789 22.5174 3.0027 22.3747 3.0027 22.3747C2.00186 22.5177 1.78656 21.9447 1.78656 21.9447C1.78656 21.2298 2.93152 21.3024 2.93152 21.3024C3.86088 21.3024 3.5738 20.4437 3.5738 20.4437L3.64641 15.297C3.57492 14.7964 2.35905 14.7957 2.35905 14.7957C1.57266 14.8672 1.78657 14.1535 1.78657 14.1535C2.21548 13.796 3.00271 13.796 3.00271 13.796C3.71762 13.8675 3.71762 13.0811 3.71762 13.0811L3.78883 11.6513ZM17.6582 11.7225C17.6582 11.7225 17.6586 11.3441 17.9654 11.3176C18.0361 11.3115 18.122 11.325 18.2292 11.3652C18.2292 11.3652 18.7296 11.3649 18.5866 12.1513V13.366C18.5866 13.366 18.5163 13.8665 19.3742 13.7235C19.3742 13.7235 20.3027 13.8673 20.3027 14.2247C20.3027 14.2247 20.5889 14.9399 19.5166 14.8684H18.7305C18.7305 14.8684 18.3725 15.0818 18.5155 15.5107L18.4443 20.4436C18.4443 20.4436 18.3728 21.3012 19.1592 21.2297C19.1592 21.2297 20.0173 21.2303 20.1603 21.4447C20.1603 21.4447 20.7322 22.3023 19.4454 22.2308C19.4454 22.2308 18.6584 22.2305 18.5154 22.302C18.5154 22.302 18.3733 22.445 18.3018 24.0893C18.3018 24.0893 18.373 25.0195 17.6581 24.948C17.6581 24.948 12.939 25.0195 12.5101 24.948C12.5101 24.948 12.0817 25.0907 12.0102 24.6617C12.0102 24.6617 12.0096 24.3755 12.5101 24.3755H17.2295C17.2295 24.3755 17.6582 24.5908 17.6582 23.8044C17.6582 23.8044 17.8003 20.0869 17.8718 16.0119C17.8718 15.6068 17.8797 15.1937 17.8877 14.7807C17.9036 13.9547 17.9195 13.1287 17.8718 12.3662C17.8718 12.3662 17.8012 11.8655 17.6582 11.7225ZM16.657 11.7225C16.7643 11.5617 16.8646 11.489 16.9558 11.4768C17.3511 11.4237 17.587 12.5085 17.587 12.5085L17.4432 22.7321C17.4432 23.0895 17.372 23.3032 17.372 23.3032C16.943 23.3746 16.657 22.4458 16.657 22.4458V11.7225ZM4.71877 12.7949C4.71877 12.7949 4.79026 11.5787 5.43368 11.5787C5.43368 11.5787 5.50488 12.2945 5.50488 12.4374C5.50488 12.5804 5.43367 22.231 5.43367 22.231C5.43367 22.231 5.50461 22.9456 4.86119 23.3746C4.86119 23.3746 4.71766 23.4463 4.64617 22.9459L4.71877 12.7949ZM5.63055 23.0295C5.6663 23.0192 5.70056 23.0142 5.73109 23.0128C5.82266 23.0079 5.8846 23.0326 5.8846 23.0326H5.88602L5.88882 23.034C5.94194 23.0606 6.14526 23.1194 6.32305 23.1639C6.4669 23.1998 6.59546 23.2286 6.63942 23.2384C6.64889 23.2406 6.65536 23.242 6.65536 23.242H10.0246L10.0385 23.2504C10.294 23.3964 10.4287 23.5199 10.4853 23.6414C10.5137 23.7021 10.5208 23.7643 10.5077 23.8187C10.4946 23.873 10.4637 23.9186 10.4267 23.9555C10.3527 24.0295 10.2522 24.0743 10.1698 24.1049C10.0873 24.1356 10.0204 24.151 10.0204 24.151L10.0078 24.1538L9.07088 23.9374H5.58025C5.45338 23.9717 5.3562 23.9705 5.28285 23.936C5.20694 23.9003 5.16514 23.831 5.1488 23.7656C5.11614 23.635 5.15857 23.5017 5.15857 23.5017L5.15999 23.496L5.16279 23.4903C5.31129 23.1933 5.48758 23.0703 5.63055 23.0295ZM15.8708 23.232C15.8708 23.232 16.1515 23.1912 16.3525 23.2013C16.4195 23.2046 16.4787 23.2142 16.5145 23.232C16.5145 23.232 17.0143 23.6613 17.0143 23.8757C17.0143 23.8757 17.0141 24.1611 16.3706 24.0182H12.3675C12.4389 24.0182 11.366 24.3041 11.4375 23.6607C11.4375 23.6607 11.7243 23.3032 11.9388 23.3032C11.9388 23.3032 15.2989 23.5895 15.8708 23.232ZM11.0091 24.0181C11.027 24.0092 11.0452 24.0041 11.0636 24.0028C11.3385 23.9792 11.6528 24.733 11.6528 24.733C11.6528 25.3764 11.0803 25.5191 11.0803 25.5191C10.4369 25.5191 10.3654 24.8769 10.3654 24.8769C10.3654 24.0188 11.0091 24.0181 11.0091 24.0181ZM26.0929 11.2938C26.0214 11.0079 26.4504 11.0076 26.4504 11.0076L27.3803 11.1502C27.5948 11.3647 30.1686 11.1502 30.1686 11.1502C30.8121 11.1502 30.8123 11.9363 30.8123 11.9363C30.9553 13.7951 30.6685 22.5885 30.6685 22.5885C30.6685 23.1604 30.2399 22.7323 30.2399 22.7323H27.9528C27.7383 22.8038 26.7366 22.7323 26.7366 22.7323C25.9502 22.6608 25.9505 22.1598 25.9505 22.1598L26.0929 11.2938ZM35.9591 11.2212C36.1378 11.1319 36.2614 11.0991 36.3459 11.0956C36.5317 11.0871 36.5316 11.2213 36.5316 11.2213C36.6031 11.3643 36.459 12.7237 36.459 12.7237C36.5305 12.8667 36.3878 22.3747 36.3878 22.3747C36.3163 22.8751 35.9591 22.7321 35.9591 22.7321C35.4587 23.0896 33.3146 22.8745 33.3146 22.8745C32.5997 22.7316 31.5273 23.017 31.5273 23.017C31.3843 23.2314 31.1699 22.9458 31.1699 22.9458L31.3123 21.4448L31.3835 17.1553C31.3835 17.0123 31.4547 11.8649 31.4547 11.8649C31.4547 11.3256 32.5994 11.3589 32.7897 11.3645C32.8012 11.3648 32.8092 11.3651 32.8133 11.3651C36.0303 11.508 35.9591 11.2212 35.9591 11.2212ZM23.8772 11.6513C24.1721 11.3832 24.3764 11.2953 24.5167 11.2911C24.7506 11.2841 24.8069 11.5074 24.8069 11.5074C24.3779 12.2223 24.4494 13.8671 24.4494 13.8671V13.7233C24.5209 13.8663 24.4494 23.4471 24.4494 23.4471C24.5209 24.5195 25.2355 24.3044 25.2355 24.3044L29.525 24.3756C29.9539 24.3756 29.9536 24.6619 29.9536 24.6619C29.9536 24.9478 29.6674 24.9481 29.6674 24.9481H24.3784C23.735 24.8766 23.806 24.3756 23.806 24.3756V23.0897C23.806 22.4462 23.091 22.3021 23.091 22.3021C22.0902 22.4451 21.8763 21.8735 21.8763 21.8735C21.8763 21.1586 23.0198 21.2298 23.0198 21.2298C24.0207 21.2298 23.7347 20.3725 23.7347 20.3725L23.8059 15.2258C23.7345 14.7252 22.5186 14.7245 22.5186 14.7245C21.7322 14.796 21.9475 14.0808 21.9475 14.0808C22.3765 13.7234 23.1623 13.7234 23.1623 13.7234C23.8772 13.7949 23.8772 13.0085 23.8772 13.0085V11.6513ZM37.8177 11.7225C37.8177 11.7225 37.8181 11.3441 38.1249 11.3176C38.1957 11.3114 38.2829 11.325 38.3901 11.3652C38.3901 11.3652 38.8905 11.3649 38.7475 12.1513V13.2948C38.7475 13.2948 38.6758 13.7952 39.5336 13.6522C39.5336 13.6522 40.4636 13.7961 40.4636 14.1535C40.4636 14.1535 40.7484 14.8673 39.6761 14.7958H38.89C38.89 14.7958 38.5334 15.0105 38.6763 15.4395L38.6037 20.3724C38.6037 20.3724 38.5323 21.23 39.3186 21.1585C39.3186 21.1585 40.1768 21.159 40.3198 21.3735C40.3198 21.3735 40.8914 22.2311 39.6761 22.1596C39.6761 22.1596 38.8905 22.1593 38.7476 22.2308C38.7476 22.2308 38.604 22.3738 38.5325 24.018C38.5325 24.018 38.6037 24.9482 37.8888 24.8768C37.8888 24.8768 33.1711 24.9482 32.7421 24.8768C32.7421 24.9482 32.2412 25.0907 32.1697 24.6617C32.1697 24.6617 32.1705 24.3755 32.6709 24.3755H37.389C37.389 24.3755 37.8177 24.5908 37.8177 23.8044C37.8177 23.8044 37.9612 20.0869 38.0327 16.0119C38.0327 15.6068 38.0407 15.1937 38.0486 14.7807C38.0645 13.9547 38.0804 13.1287 38.0327 12.3662C38.0327 12.3662 37.8892 11.8655 37.8177 11.7225ZM36.8166 11.7225C36.9238 11.5751 37.0241 11.5108 37.1154 11.5033C37.5106 11.4709 37.7465 12.5085 37.7465 12.5085L37.6041 22.7321C37.6041 23.0895 37.5315 23.3031 37.5315 23.3031C37.1025 23.3746 36.8166 22.4458 36.8166 22.4458V11.7225ZM24.8783 12.7948C24.8783 12.7948 24.9498 11.5787 25.5932 11.5787C25.5932 11.5787 25.6644 12.2944 25.6644 12.4374C25.6644 12.5804 25.5932 22.231 25.5932 22.231C25.5932 22.231 25.6641 22.9456 25.0207 23.3746C25.0207 23.3746 24.8786 23.4463 24.8071 22.9459L24.8783 12.7948ZM25.4508 23.4472C25.6474 23.0539 25.8775 22.9982 26.0023 23.0017C26.059 23.0035 26.0933 23.0171 26.0933 23.0171C26.2363 23.0886 26.8808 23.2321 26.8808 23.2321H30.2402C31.2411 23.804 30.2402 24.0182 30.2402 24.0182L29.3103 23.8046H25.8083C25.3078 23.9476 25.4508 23.4472 25.4508 23.4472ZM36.1742 23.1609C36.1742 23.1609 36.3697 23.1324 36.5512 23.1288C36.6601 23.1268 36.7629 23.1341 36.8165 23.1609C36.8165 23.1609 37.3177 23.5901 37.3177 23.8046C37.3177 23.8046 37.3175 24.09 36.674 23.947H32.6709C32.6709 23.947 31.598 24.233 31.7409 23.5896C31.7409 23.5896 32.0277 23.2321 32.2422 23.2321C32.2422 23.2321 35.6023 23.5184 36.1742 23.1609ZM31.2413 23.947C31.2592 23.9381 31.2769 23.933 31.2958 23.9317C31.5785 23.9081 31.9562 24.6619 31.9562 24.6619C31.9562 25.3768 31.3837 25.448 31.3837 25.448C30.7403 25.448 30.6688 24.8043 30.6688 24.8043C30.5973 23.9463 31.2413 23.947 31.2413 23.947ZM20.5894 39.3889C20.6609 38.6025 20.6609 37.8161 20.6609 37.8161L20.9466 37.8162L21.0181 39.5319C21.1611 41.1047 21.0181 42.6775 21.0181 42.6775C21.0181 43.1064 21.1611 43.1779 21.1611 43.1779C22.0189 42.749 22.7338 42.8204 22.7338 42.8204C27.3808 42.9634 26.6659 42.8919 26.6659 42.8919C27.8812 42.8205 27.8097 42.1056 27.8097 42.1056L27.7382 40.3898C27.8812 40.0324 27.8812 34.742 27.8812 34.742C27.7382 34.1701 27.8812 31.3105 27.8812 31.3105C27.8812 31.0246 27.4522 31.0246 27.4522 31.0246C26.3198 31.5908 25.9657 31.5269 25.6693 31.4735C25.5541 31.4527 25.4476 31.4335 25.3075 31.4535C24.8071 31.525 22.9484 31.4535 22.8054 31.382C22.6624 31.3105 21.8046 31.382 21.8046 31.382C21.2326 31.4535 21.0897 31.8824 21.0897 31.8824V34.0986L21.0182 34.599L20.8037 34.742L20.5892 34.0271V31.9539C20.4463 31.1675 19.7314 31.3105 19.7314 31.3105C19.3025 31.1675 17.5867 31.3105 17.5867 31.3105C16.8003 31.4535 16.0139 31.3105 16.0139 31.3105C14.9416 31.4535 14.7271 31.0961 14.7271 31.0961C14.1552 30.8816 14.1552 31.239 14.1552 31.239C14.2267 31.4535 14.2267 32.0254 14.2267 32.0254C14.2982 32.3114 14.2267 34.6705 14.2267 34.6705C14.1552 34.9565 14.2267 37.4586 14.2267 37.4586C14.2982 37.6016 14.1552 42.2485 14.1552 42.2485C14.2267 42.8919 15.442 42.8204 15.442 42.8204C15.5135 42.9634 19.8745 42.8919 19.8745 42.8919C20.5894 43.1779 20.5894 42.8204 20.5894 42.8204C20.6737 42.2301 20.6337 41.2916 20.6013 40.533C20.5788 40.0054 20.56 39.5649 20.5894 39.3889ZM28.739 43.3209C28.596 43.2494 28.1671 42.4631 28.1671 42.4631L28.2386 42.1771V31.8112C28.2386 31.2393 28.6675 31.5968 28.6675 31.5968L29.0965 32.3117C29.025 32.8121 29.0965 33.1695 29.0965 33.1695L29.025 42.9635C29.0965 43.7499 28.739 43.3209 28.739 43.3209ZM15.2275 43.3925C14.4411 43.3925 13.9407 42.892 13.9407 42.892L13.5832 43.178C12.9398 43.9644 13.3687 44.0359 13.3687 44.0359L14.0121 43.9644L19.5885 44.0359C20.2319 44.1789 20.3034 43.7499 20.3034 43.7499C20.3034 43.5354 19.8029 43.4639 19.8029 43.4639L15.2275 43.3925ZM12.5824 32.5976C12.5109 32.3832 12.9398 31.6683 12.9398 31.6683C13.1781 31.4896 12.6224 31.4099 12.4716 31.3884C12.4415 31.384 12.4275 31.382 12.4394 31.382C12.082 31.4535 12.082 33.1693 12.082 33.1693C12.0105 34.0272 11.2956 33.8842 11.2956 33.8842C10.2948 33.8127 9.93733 34.3846 9.93733 34.3846C9.86584 34.9566 10.8667 34.9566 10.8667 34.9566H11.5816C12.225 35.0281 12.082 35.8859 12.082 35.8859L12.0105 40.8903C12.225 41.6052 11.3671 41.4622 11.3671 41.4622C10.1518 41.3907 10.0088 41.8912 10.0088 41.8912C10.0088 42.6061 11.2241 42.3916 11.2241 42.3916C12.082 42.4631 12.0105 42.9635 12.0105 42.9635C12.082 43.1065 12.082 44.0359 12.082 44.0359C12.082 44.9652 12.368 45.0367 12.368 45.0367C12.4394 45.1797 14.1552 45.1082 14.1552 45.1082C16.7289 45.2512 19.517 44.9652 19.517 44.9652C19.8745 45.0367 19.8745 44.8222 19.8745 44.8222C20.089 44.5363 19.517 44.4648 19.517 44.4648C19.0881 44.3218 13.1543 44.4648 13.1543 44.4648C12.5109 44.6793 12.5824 43.8929 12.5824 43.8929V32.5976ZM13.7263 32.0255C13.7263 31.5965 13.5118 31.5965 13.5118 31.5965C13.0114 31.9539 13.0114 32.7403 13.0114 32.7403L12.8684 43.1777C12.8684 43.7496 13.1544 43.3922 13.1544 43.3922C13.7263 42.8918 13.6548 42.2483 13.6548 42.2483L13.7263 32.0255ZM22.3763 43.2492C22.0904 43.1777 21.5185 43.6067 21.5185 43.6067C21.447 44.1786 22.4478 44.0356 22.3763 44.0356C22.5908 43.9641 28.0956 43.9641 28.0956 43.9641C28.6675 44.0356 28.6675 43.6782 28.6675 43.6782L28.1671 43.1062C28.0241 42.8918 27.8096 42.9633 27.8096 42.9633C27.59 43.183 27.0749 43.2339 26.848 43.2457C27.039 43.2115 26.7373 43.2492 26.7373 43.2492C26.7373 43.2492 26.7795 43.2492 26.848 43.2457C26.776 43.2585 26.6341 43.2816 26.3798 43.3207C25.4504 43.4637 22.3763 43.2492 22.3763 43.2492ZM22.5908 44.3931C22.3048 44.3216 21.8759 44.536 21.8759 44.536C21.7329 45.0365 22.3048 45.1082 22.3763 44.9653C23.3057 44.8938 29.0964 44.8938 29.0964 44.8938C30.0258 44.9653 30.0973 44.5363 30.0973 44.5363C30.2403 44.3934 30.0973 43.607 30.0973 43.607C30.1688 43.3925 30.2403 42.4631 30.2403 42.4631C30.0973 42.0342 31.5271 42.1057 31.5271 42.1057C32.3135 42.0342 32.0275 41.3908 32.0275 41.3908C32.0275 41.0333 30.9552 41.1048 30.9552 41.1048C30.0973 41.1763 30.0973 40.6044 30.0973 40.6044C30.0973 40.6044 30.1688 35.9575 30.0973 35.314C30.0258 34.7421 30.5977 34.5991 30.5977 34.5991L31.3841 34.5276C31.9561 34.6706 31.9561 34.0272 31.9561 34.0272C31.9561 33.7412 31.0982 33.6697 31.0982 33.6697C30.7408 33.8127 30.5263 33.5983 30.5263 33.5983C30.0259 33.5983 30.0973 32.5974 30.0973 32.5974C30.3833 32.097 30.0973 31.3106 30.0973 31.3106C29.9544 31.0961 29.3824 31.2391 29.3824 31.2391C29.3824 31.2391 29.4539 31.3106 29.3109 31.2391C29.168 31.1676 29.168 31.4536 29.168 31.4536C29.5969 31.8825 29.4539 32.5974 29.4539 32.5974V41.9624L29.3824 42.3199V43.5352C29.3824 43.8211 29.2395 44.0356 29.2395 44.0356L28.8105 44.1786C28.5245 44.4645 26.8088 44.3216 26.8088 44.3216C26.8088 44.3216 22.8768 44.4645 22.5908 44.3931ZM21.4469 44.5363C21.4469 43.9644 20.875 43.8929 20.875 43.8929C20.3746 44.0359 20.2316 44.5363 20.3746 44.9652C20.446 45.3942 20.8035 45.5372 21.161 45.4657C21.4469 45.3942 21.4469 45.1082 21.4469 44.5363Z" fill="#12284C"></path><path d="M10.2229 14.9379L9.93693 15.5814C9.93693 15.5814 9.22202 18.8699 8.7931 19.5134C8.7931 19.5134 8.72161 20.2283 8.14968 19.6563C8.14968 19.6563 6.79139 15.5099 6.71989 15.3669L6.29095 15.0809C6.29095 15.0809 6.00499 14.7235 6.50541 14.652H7.79222C7.79222 14.652 8.22117 15.0094 7.64924 15.3669C7.64924 15.3669 7.72073 15.9388 8.43561 18.012C8.43561 18.012 8.65008 18.7984 8.86456 18.2265L9.57947 15.7958L9.365 15.0809C9.365 15.0809 9.15053 14.7235 9.43649 14.7235C9.43649 14.7235 10.1514 14.652 10.2229 14.9379ZM12.1531 15.5099V19.0844L12.0816 19.3704C12.0816 19.3704 11.7241 19.7993 12.0101 19.8708C12.0101 19.8708 11.7241 20.0853 14.1548 20.0853C14.1548 20.0853 15.0841 20.2283 14.8697 19.0129C14.8697 19.0129 14.7982 18.584 14.4407 19.2274C14.4407 19.2274 14.3692 19.7993 13.0824 19.5849C13.0824 19.5849 12.7965 19.3704 12.7965 19.0844V17.5832C12.7965 17.5832 12.7965 17.2257 13.3684 17.2257C13.3684 17.2257 14.0118 17.6546 14.0833 17.4402C14.0833 17.4402 14.2978 16.8682 14.0833 16.5823C14.0833 16.5823 13.7974 16.5823 13.7259 16.6538C13.7259 16.6538 13.5114 17.0827 12.9395 16.7968C12.9395 16.7968 12.6535 16.2248 12.868 15.7959C12.868 15.7959 12.7965 14.9381 13.3684 15.0095C13.3684 15.0095 14.0834 15.1525 14.0834 15.367C14.0834 15.367 14.2263 15.7959 14.4408 15.2955L14.2978 14.7951C14.2978 14.7951 14.2263 14.5806 14.0119 14.6521C14.0119 14.6521 12.868 14.7951 12.7251 14.6521L11.7957 14.7236C11.7957 14.7236 11.6527 15.081 12.0817 15.224C12.0817 15.2955 12.1531 15.3669 12.1531 15.5099ZM32.6708 14.938C32.5993 14.6521 33.2427 14.6521 33.2427 14.6521L33.6002 14.7236C33.8146 14.7236 34.1006 14.7951 34.1006 14.7951C34.3151 15.1525 33.9576 15.367 33.9576 15.367L33.8146 15.7959V19.3705C33.8861 19.5135 34.1721 19.8709 34.1721 19.8709C34.1721 20.1569 33.8146 20.0854 33.8146 20.0854H32.8138C32.5278 20.0854 32.5993 19.7279 32.5993 19.7279C32.9568 19.585 33.0283 18.9415 33.0283 18.9415V15.5815L32.6708 14.938ZM28.0953 18.0836L28.0239 19.1559L28.3098 19.6563C28.5243 19.9423 28.1668 20.1568 28.1668 20.1568L27.0945 20.0138C26.88 19.9423 27.0945 19.5849 27.0945 19.5849C27.3805 19.4419 27.3805 19.0129 27.3805 19.0129V15.5814C27.3805 15.4384 27.0945 15.081 27.0945 15.081C26.88 15.081 26.9515 14.7235 26.9515 14.7235C27.023 14.5806 27.5949 14.652 27.5949 14.652H29.0247C30.383 15.081 30.1686 16.0818 30.1686 16.0818C30.24 17.0827 29.2392 17.4401 29.2392 17.4401L29.1677 18.0121L30.1686 19.5848C30.3115 19.7278 30.3115 19.8708 30.3115 19.8708C30.1686 20.2282 29.5966 19.8708 29.5966 19.8708L28.3813 17.9406C28.2383 17.7976 28.0953 18.0836 28.0953 18.0836ZM28.0953 15.3669V17.1542C28.7388 17.6546 29.0962 16.9397 29.0962 16.9397C29.954 16.1533 29.0962 15.3669 28.9532 15.1525C28.8102 14.938 28.1668 15.1525 28.1668 15.1525L28.0953 15.3669ZM17.658 35.3841C17.658 35.3841 17.7295 37.8862 17.658 38.2437V38.8156C17.658 38.8156 17.801 39.1731 18.0154 39.3161C18.0154 39.3161 18.1584 39.8165 17.801 39.745C17.801 39.745 16.9431 39.6735 16.7286 39.745C16.7286 39.745 16.2282 39.745 16.7286 39.1731C16.7286 39.1731 16.8716 38.9586 16.8716 38.3152C16.8716 38.3152 16.8716 35.4556 16.9431 35.3127C16.9431 35.3127 17.0146 34.9552 16.8001 34.8122H16.3712L15.8707 35.3127C15.8707 35.3127 15.7278 35.8131 15.5133 35.3127V35.0267L15.7993 34.2403H16.0137C16.0137 34.2403 16.2997 34.4548 16.5856 34.5263H18.1584L18.7303 34.2403C18.7303 34.2403 18.9448 34.2403 18.8733 34.5978C18.8733 34.5978 18.9448 35.3841 18.5159 35.4556C18.5159 35.4556 18.2299 35.3841 18.0869 34.9552C18.0869 34.8837 17.658 34.5977 17.658 35.3841ZM25.0927 34.4548C25.0927 34.4548 23.8059 34.3118 23.8059 35.7416C23.8059 35.7416 23.6629 36.6709 25.0927 37.3143C25.0927 37.3143 26.165 37.8148 26.0936 38.4582C26.0936 38.4582 25.9506 39.602 24.8067 39.0301C24.8067 39.0301 24.2348 38.7441 24.3063 38.4582C24.3063 38.4582 24.1633 38.1007 23.9489 38.1722C23.9489 38.1722 23.7344 38.2437 23.8059 39.3875C23.8059 39.3875 23.8059 39.8165 24.3063 39.3875L24.5923 39.459C24.5923 39.459 25.5216 40.1739 26.308 39.316C26.308 39.316 27.1659 38.5296 26.5225 37.6003C26.5225 37.6003 26.0935 36.8854 25.3072 36.5994C25.3072 36.5994 24.5923 36.242 24.3778 35.6701C24.3778 35.6701 24.5923 34.6693 25.5216 35.1697C25.5216 35.1697 25.8791 35.5986 26.0936 35.6701C26.0936 35.6701 26.3795 35.6701 26.308 35.0267L26.2365 34.5262C26.2365 34.5262 26.1651 34.1688 25.6646 34.5262C25.6646 34.4547 25.2357 34.6692 25.0927 34.4548ZM21.0177 33.7398C21.2322 33.8828 21.3037 34.2403 21.3037 34.2403C22.0186 36.0275 22.5905 38.6727 22.5905 38.6727C22.7334 39.0302 23.0909 39.2447 23.0909 39.2447C23.6628 39.4591 23.0909 39.6021 23.0909 39.6021C22.8764 39.6736 22.0901 39.6021 22.0901 39.6021C21.6611 39.5306 21.8756 39.3876 21.8756 39.3876C22.0186 39.2447 21.8756 38.5298 21.8756 38.5298C21.8756 38.2438 21.5181 37.8149 21.5181 37.8149C21.3752 37.7434 21.1607 38.0293 21.1607 38.0293C21.1607 38.0293 20.8032 38.1723 20.7317 38.0293C20.6602 37.8864 20.4458 37.7434 20.4458 37.7434C20.0168 37.7434 19.8738 38.7442 19.8738 38.7442C20.0883 39.6021 19.8738 39.4591 19.8738 39.4591C19.6594 39.7451 19.016 39.5306 19.016 39.5306C18.73 39.4591 18.9445 39.2447 18.9445 39.2447C19.302 39.1732 19.4449 38.7442 19.4449 38.7442C19.5879 38.5298 20.7317 34.0973 20.7317 34.0973C20.6602 34.0258 20.7317 33.5969 21.0177 33.7398ZM20.4458 36.0275C20.4458 36.1705 20.1598 37.1713 20.1598 37.1713L20.3743 37.5288H21.0892C21.2322 37.5288 21.3037 37.3858 21.3037 37.1713C21.3037 37.0283 20.9462 35.956 20.9462 35.956L20.8032 35.7415L20.4458 36.0275Z" fill="#12284C"></path></svg> 