<?xml version="1.0" encoding="UTF-8"?> <svg xmlns="http://www.w3.org/2000/svg" viewBox="0 0 230.00 100.00" data-guides="{&quot;vertical&quot;:[],&quot;horizontal&quot;:[]}"><defs></defs><path fill="#f8f8f8" width="230" height="100" id="tSvg14098f59dd7" title="Rectangle 5" fill-opacity="1" stroke="none" stroke-opacity="1" d="M0 0.0003H230.0001V100.0003H0Z" style="transform-origin: 115px 50px;"></path><path fill="#12284C" stroke="none" fill-opacity="1" stroke-width="1" stroke-opacity="1" id="tSvg684edc2f6f" title="Path 8" d="M128.3001 41.2003C128.3001 35.4003 128.4001 30.0003 128.7001 25.0003C123.6001 25.967 118.5 26.9336 113.4 27.9003C113.4 28.367 113.4 28.8336 113.4 29.3003C113.9 29.367 114.4 29.4336 114.9 29.5003C116 29.6003 116.7 30.0003 117.1 30.6003C117.5 31.3003 117.8 32.3003 118 33.8003C118.2 36.7003 118.4 43.3003 118.3 53.7003C118.3 64.0003 118.2 70.5003 118 73.0003C123.5001 74.2003 127.8001 74.7003 131.0001 74.7003C137.0001 74.7003 141.7001 73.0003 145.1001 69.5003C148.5001 66.1003 150.3001 61.3003 150.3001 55.4003C150.3001 50.7003 149.0001 46.8003 146.4001 43.7003C143.8001 40.6003 140.5001 39.1003 136.6001 39.1003C134.0001 39.1003 131.3001 39.8003 128.3001 41.2003ZM128.6001 72.0003C128.4001 68.8003 128.2001 59.2003 128.2001 43.5003C129.1001 43.2003 130.3001 43.0003 131.8001 43.0003C134.2001 43.0003 136.1001 44.2003 137.5001 46.7003C138.9001 49.2003 139.6001 52.2003 139.6001 56.0003C139.6001 60.7003 138.8001 64.5003 137.2001 67.7003C135.6001 70.8003 133.6001 72.4003 131.1001 72.4003C130.3001 72.2003 129.5001 72.1003 128.6001 72.0003ZM56 26.0003C42.6667 26.0003 29.3333 26.0003 16 26.0003C16 26.667 16 27.3336 16 28.0003C16.7 28.067 17.4 28.1336 18.1 28.2003C19.7 28.5003 20.8 29.1003 21.5 30.0003C22.2 31.0003 22.6 32.6003 22.7 34.8003C23.5 45.6003 23.5 55.7003 22.7 65.0003C22.5 67.2003 22.1 68.8003 21.5 69.8003C20.8 70.8003 19.7 71.4003 18.1 71.6003C17.4 71.7003 16.7 71.8003 16 71.9003C16 72.567 16 73.2337 16 73.9003C24.6 73.9003 33.2 73.9003 41.8 73.9003C41.8 73.2337 41.8 72.567 41.8 71.9003C40.9 71.8337 40 71.767 39.1 71.7003C38.4412 71.6452 37.8003 71.4573 37.216 71.1479C36.6316 70.8386 36.116 70.4142 35.7 69.9003C35 68.9003 34.6 67.3003 34.5 65.1003C34.2 61.1003 34 56.5003 34 51.4003C35.8 51.4337 37.6 51.467 39.4 51.5003C42.3 51.6003 44.3 53.8003 45.3 58.2003C45.9667 58.2003 46.6334 58.2003 47.3 58.2003C47.3 52.767 47.3 47.3337 47.3 41.9003C46.6334 41.9003 45.9667 41.9003 45.3 41.9003C44.3 46.2003 42.4 48.4003 39.4 48.5003C37.6 48.5337 35.8 48.567 34 48.6003C34 39.6003 34.2 33.2003 34.5 29.3003C37.1333 29.3003 39.7667 29.3003 42.4 29.3003C48 29.3003 51.8 32.9003 54 40.1003C54.8 39.867 55.6 39.6336 56.4 39.4003C56.2667 34.9336 56.1334 30.467 56 26.0003ZM51.3 56.8003C51.3 62.0003 52.8 66.3003 55.7 69.7003C58.6 73.1003 62.9 74.7003 68.3 74.7003C73.7 74.7003 78.1 73.0003 81.3 69.5003C84.5 66.1003 86 61.8003 86 56.6003C86 51.4003 84.5 47.1003 81.6 43.7003C78.7 40.3003 74.4 38.7003 69 38.7003C63.6 38.7003 59.2 40.4003 56 43.9003C52.8 47.3003 51.3 51.6003 51.3 56.8003ZM73.6 45.4003C74.8 48.3003 75.3 52.1003 75.3 56.7003C75.3 67.3003 73.1 72.5003 68.8 72.5003C66.6 72.5003 64.9 71.0003 63.7 68.0003C62.5 65.0003 62 61.2003 62 56.7003C62 46.2003 64.2 41.0003 68.5 41.0003C70.7 40.9003 72.4 42.4003 73.6 45.4003ZM158.1001 69.7003C161.4001 73.0003 165.6001 74.7003 170.6001 74.7003C173.7001 74.7003 176.4001 74.1003 178.8001 72.8003C181.2001 71.6003 183.1001 70.1003 184.4001 68.3003C184.0667 67.9003 183.7334 67.5003 183.4001 67.1003C181.2001 68.8003 178.7001 69.6003 175.8001 69.6003C171.8001 69.6003 168.7001 68.3003 166.6001 65.6003C164.4001 62.9003 163.4001 59.5003 163.6001 55.1003C170.7334 55.1003 177.8667 55.1003 185.0001 55.1003C185.0001 50.3003 183.8001 46.4003 181.3001 43.3003C178.8001 40.3003 175.3001 38.8003 170.8001 38.8003C165.2001 38.8003 160.9001 40.6003 157.8001 44.1003C154.7001 47.6003 153.2001 51.9003 153.2001 57.0003C153.2001 62.2003 154.8001 66.4003 158.1001 69.7003ZM165.5001 44.6003C166.6001 42.2003 168.0001 41.0003 169.9001 41.0003C172.9001 41.0003 174.4001 44.8003 174.4001 52.5003C170.8667 52.567 167.3334 52.6337 163.8001 52.7003C163.9001 49.7003 164.4001 47.0003 165.5001 44.6003ZM211.9001 40.6003C209.2001 39.4003 205.8001 38.7003 201.7001 38.7003C197.5001 38.7003 194.2001 39.8003 191.7001 41.9003C189.2001 44.0003 187.9001 46.6003 187.9001 49.7003C187.9001 52.4003 188.7001 54.5003 190.2001 56.0003C191.7001 57.5003 194.1001 58.8003 197.2001 59.9003C200.0001 60.9003 202.0001 61.9003 203.0001 62.8003C204.0001 63.8003 204.6001 64.9003 204.6001 66.4003C204.6001 67.8003 204.1001 69.1003 203.0001 70.1003C202.0001 71.2003 200.6001 71.7003 198.8001 71.7003C194.4001 71.7003 191.1001 68.5003 188.8001 62.1003C188.2334 62.267 187.6667 62.4337 187.1001 62.6003C187.2334 65.9337 187.3667 69.267 187.5001 72.6003C191.1001 74.0003 195.1001 74.7003 199.5001 74.7003C204.1001 74.7003 207.6001 73.7003 210.2001 71.6003C212.8001 69.6003 214.1001 66.7003 214.1001 63.1003C214.1001 60.7003 213.5001 58.7003 212.2001 57.2003C210.9001 55.7003 208.8001 54.4003 205.8001 53.2003C202.5001 52.0003 200.2001 50.9003 199.0001 49.9003C197.8001 48.9003 197.2001 47.7003 197.2001 46.2003C197.2001 44.7003 197.6001 43.5003 198.5001 42.5003C199.4001 41.5003 200.5001 41.1003 201.9001 41.1003C205.9001 41.1003 208.8001 44.0003 210.6001 49.7003C211.1668 49.5337 211.7334 49.367 212.3001 49.2003C212.1668 46.3337 212.0334 43.467 211.9001 40.6003ZM115.7 39.7003C114.3 39.0003 112.8 38.7003 111.1 38.7003C109.4 38.7003 107.7 39.4003 105.8 40.8003C103.9 42.2003 102.5 44.1003 101.4 46.7003C101.4334 44.0337 101.4667 41.367 101.5 38.7003C96.4334 39.7003 91.3667 40.7003 86.3 41.7003C86.3 42.167 86.3 42.6337 86.3 43.1003C86.8 43.1337 87.3 43.167 87.8 43.2003C89.7 43.4003 90.8 44.9003 91 47.6003C91.6 53.8003 91.6 60.4003 91 67.4003C90.8 70.1003 89.7 71.5003 87.8 71.8003C87.3 71.867 86.8 71.9337 86.3 72.0003C86.3 72.6337 86.3 73.267 86.3 73.9003C93.3667 73.9003 100.4334 73.9003 107.5 73.9003C107.5 73.267 107.5 72.6337 107.5 72.0003C106.6 71.9337 105.7 71.867 104.8 71.8003C102.9 71.6003 101.8 70.1003 101.6 67.4003C101 61.6003 100.9 55.4003 101.4 49.0003C102 48.0003 103.3 47.4003 105.3 47.2003C107.3 47.0003 109.6 47.6003 112 49.0003C113.2334 45.9003 114.4667 42.8003 115.7 39.7003Z"></path></svg> 