<?xml version="1.0" encoding="UTF-8"?> <svg xmlns="http://www.w3.org/2000/svg" width="34" height="34" viewBox="0 0 34 34" fill="none"><path fill-rule="evenodd" clip-rule="evenodd" d="M16.71 1.50671C8.15326 1.50671 1.21667 8.44329 1.21667 17C1.21667 25.5567 8.15326 32.4933 16.71 32.4933C25.2667 32.4933 32.2033 25.5567 32.2033 17C32.2033 8.44329 25.2667 1.50671 16.71 1.50671ZM0.209961 17C0.209961 7.8873 7.59727 0.5 16.71 0.5C25.8227 0.5 33.21 7.8873 33.21 17C33.21 26.1127 25.8227 33.5 16.71 33.5C7.59727 33.5 0.209961 26.1127 0.209961 17Z" fill="black"></path><path fill-rule="evenodd" clip-rule="evenodd" d="M14.2604 11.1572C14.4572 10.9608 14.7759 10.9611 14.9722 11.1579L20.1064 16.3022C20.3027 16.4988 20.3025 16.8173 20.1061 17.0137L14.8712 22.2486C14.6747 22.4452 14.356 22.4452 14.1594 22.2486C13.9628 22.052 13.9628 21.7333 14.1594 21.5368L19.0387 16.6574L14.2597 11.8691C14.0633 11.6723 14.0636 11.3536 14.2604 11.1572Z" fill="black"></path></svg> 