<?xml version="1.0" encoding="UTF-8"?> <svg xmlns="http://www.w3.org/2000/svg" width="25" height="25" viewBox="0 0 25 25" fill="none"><path d="M22.5132 11.2734C23.4347 10.6045 22.9607 9.14922 21.8214 9.14922H17.3459C16.3192 9.14922 15.4111 8.48453 15.1022 7.50699L13.6218 2.82112C13.276 1.72629 11.724 1.7263 11.3782 2.82112L9.89777 7.50699C9.58894 8.48453 8.6808 9.14922 7.65409 9.14922H3.17857C2.03927 9.14922 1.56533 10.6045 2.48679 11.2734L6.4728 14.1669C7.33422 14.7922 7.6674 15.9173 7.28505 16.9097L5.55587 21.3979C5.13517 22.4899 6.39791 23.4574 7.34566 22.7693L11.1162 20.0315C11.9412 19.4325 13.0588 19.4325 13.8838 20.0315L17.6543 22.7693C18.6021 23.4574 19.8648 22.4899 19.4441 21.3979L17.7149 16.9097C17.3326 15.9173 17.6658 14.7922 18.5272 14.1669L22.5132 11.2734Z" stroke="white" stroke-width="0.84" stroke-linecap="round" stroke-linejoin="round"></path></svg> 