<?xml version="1.0" encoding="UTF-8"?> <svg xmlns="http://www.w3.org/2000/svg" width="200" height="161" viewBox="0 0 200 161" fill="none"><g clip-path="url(#clip0_1194_2073)"><path d="M102.227 0H59.1604V1.84533C63.0004 4.11839 64.7043 6.81509 64.7043 17.6101V81.8097C64.7043 92.6046 63.0004 95.3054 59.1604 97.5785V99.4238H99.5289C100.589 99.4238 101.632 99.4034 102.664 99.3668C103.047 95.285 103.483 89.3743 103.76 83.4676L103.915 79.3288C103.895 79.0967 103.785 78.9337 103.524 79.2026C100.026 82.881 99.8428 82.3107 98.3957 81.8871C96.7733 81.4145 91.8897 79.6384 91.1641 79.1333C90.516 78.6811 90.7035 78.4449 91.4413 78.1312C95.1305 76.5792 102.957 73.0922 104.054 72.6319C104.127 72.5993 104.18 72.526 104.184 72.4445L104.274 70.0981C104.282 69.9474 104.131 69.8374 103.988 69.8904C102.081 70.6032 92.3422 74.6157 90.9155 75.1453C89.342 75.7278 88.4493 75.6545 87.2019 74.7868C86.2439 74.1269 83.0847 70.4118 82.563 69.5278C82.3673 69.1979 82.1553 68.872 82.7831 68.7416C83.3782 68.6153 102.313 64.774 104.331 64.3951C104.429 64.3747 104.498 64.2933 104.502 64.1955L104.596 61.8939C104.6 61.7595 104.486 61.6536 104.351 61.674C102.187 62.0121 87.4791 64.6069 85.8404 64.8717C84.0794 65.1609 83.6921 64.4888 83.0847 63.7189C82.4774 62.949 80.431 58.4925 80.2027 58.0729C79.7869 57.303 79.7503 56.969 80.484 56.9201C86.6475 56.525 102.676 55.5799 104.665 55.4536C104.771 55.4455 104.857 55.3599 104.861 55.254L104.942 53.1032C104.946 52.9809 104.849 52.8791 104.722 52.8832C102.66 52.9524 86.1013 53.4576 84.9966 53.4209C83.8756 53.3802 83.3945 53.262 82.7872 51.9788C82.2409 50.826 81.5439 45.8929 81.4786 45.3511C81.4297 44.9397 81.3849 44.6097 82.0942 44.7442C87.7237 45.787 102.884 47.4653 104.922 47.7179C105.044 47.7342 105.154 47.6364 105.158 47.5142L105.236 45.5344C105.24 45.4285 105.162 45.3348 105.056 45.3145C103.32 45.0456 89.4561 42.964 87.9234 42.6829C86.2766 42.3815 85.9831 42.0678 85.5999 40.8702C85.3349 40.0433 85.0536 35.986 85.0455 35.5542C85.0373 35.102 85.0006 34.8372 85.6162 35.0165C94.9756 37.7498 103.613 39.9333 105.183 40.3243C105.313 40.3569 105.44 40.2632 105.448 40.1288L105.521 38.2183C105.525 38.1205 105.464 38.0309 105.366 38.0024C103.874 37.6032 92.5787 34.5724 91.6329 34.2547C90.5608 33.8962 89.66 33.3952 89.4521 32.1487C89.2482 30.8899 89.2238 28.1851 89.2605 27.5863C89.3012 26.9752 89.3746 26.8164 89.8801 27.0648C94.1277 29.1627 103.691 32.7393 105.427 33.383C105.566 33.4318 105.709 33.3341 105.717 33.1915L105.786 31.3421C105.79 31.2525 105.737 31.171 105.656 31.1384C104.498 30.6659 96.3819 27.3459 95.0408 26.7634C93.7404 26.1972 93.4877 25.7409 93.3573 24.5515C93.288 23.8997 93.2635 22.1195 93.4184 21.0441C93.5162 20.3638 93.4673 20.2009 94.4986 20.8119C96.5613 22.0381 104.07 25.9446 105.66 26.7716C105.798 26.8449 105.966 26.7471 105.97 26.5923L106.039 24.7714C106.043 24.69 105.998 24.6166 105.929 24.5759C105.122 24.1441 100.316 21.5696 99.1906 20.9545C97.7312 20.1561 97.3154 19.5369 97.2828 18.8484C97.2217 17.5775 97.3521 16.0866 97.4255 15.5488C97.5559 14.6038 97.772 14.4775 98.3957 14.9704C101.098 17.1294 104.804 19.5532 105.892 20.2579C106.031 20.3434 106.214 20.2498 106.222 20.0868L106.283 18.4574C106.288 18.3881 106.255 18.327 106.202 18.2863C105.57 17.7812 101.559 14.8726 101.559 14.8726C101.559 14.8726 101.033 14.3919 101.037 13.895C101.045 13.0029 101.347 11.2105 101.461 10.8927C101.604 10.4895 101.693 10.2736 102.13 10.7094C104.09 12.6688 105.326 13.6831 106.129 14.3471C106.353 14.5305 106.438 14.5671 106.438 14.3797C106.438 12.514 105.59 8.81522 107.433 7.79275C107.462 7.77646 107.498 7.76831 107.531 7.76831C107.563 7.76831 107.6 7.77646 107.629 7.79275C109.475 8.81115 108.623 12.514 108.623 14.3797C108.623 14.5712 108.705 14.5345 108.929 14.3471C109.736 13.6872 110.971 12.6729 112.932 10.7094C113.368 10.2736 113.458 10.4935 113.601 10.8927C113.715 11.2105 114.02 13.0029 114.029 13.895C114.033 14.3919 113.507 14.8726 113.507 14.8726C113.507 14.8726 109.496 17.7812 108.86 18.2863C108.811 18.327 108.778 18.3922 108.782 18.4574L108.848 20.0868C108.852 20.2498 109.035 20.3434 109.174 20.2579C110.262 19.5532 113.967 17.1253 116.674 14.9704C117.298 14.4734 117.51 14.5997 117.64 15.5488C117.718 16.0866 117.844 17.5775 117.787 18.8484C117.754 19.5328 117.343 20.152 115.879 20.9545C114.754 21.5696 109.952 24.14 109.141 24.5759C109.072 24.6166 109.027 24.69 109.031 24.7714L109.1 26.5923C109.108 26.7471 109.271 26.8449 109.41 26.7716C110.996 25.9487 118.505 22.0421 120.571 20.8119C121.603 20.2009 121.554 20.3679 121.651 21.0441C121.806 22.1195 121.786 23.9038 121.713 24.5515C121.586 25.745 121.334 26.1972 120.029 26.7634C118.688 27.3459 110.572 30.6618 109.414 31.1384C109.333 31.171 109.28 31.2525 109.284 31.3421L109.357 33.1915C109.361 33.3341 109.504 33.4318 109.642 33.383C111.379 32.7353 120.946 29.1587 125.194 27.0648C125.699 26.8164 125.777 26.9793 125.813 27.5863C125.854 28.1851 125.83 30.8859 125.622 32.1487C125.418 33.3952 124.517 33.8962 123.441 34.2547C122.499 34.5724 111.204 37.6032 109.708 38.0024C109.614 38.0309 109.549 38.1165 109.553 38.2183L109.626 40.1288C109.63 40.2632 109.757 40.361 109.891 40.3243C111.46 39.9333 120.094 37.7498 129.458 35.0165C130.073 34.8372 130.037 35.102 130.028 35.5542C130.024 35.986 129.739 40.0433 129.474 40.8702C129.091 42.0678 128.793 42.3815 127.146 42.6829C125.614 42.964 111.75 45.0415 110.013 45.3145C109.907 45.3308 109.83 45.4245 109.834 45.5344L109.907 47.5142C109.916 47.6364 110.022 47.7342 110.144 47.7179C112.186 47.4653 127.342 45.7829 132.972 44.7442C133.681 44.6138 133.632 44.9397 133.587 45.3511C133.522 45.8929 132.829 50.8301 132.279 51.9788C131.671 53.262 131.186 53.3842 130.065 53.4209C128.965 53.4576 112.406 52.9524 110.339 52.8832C110.217 52.8791 110.119 52.9809 110.123 53.1032L110.201 55.254C110.205 55.3599 110.291 55.4495 110.401 55.4536C112.386 55.5799 128.418 56.5209 134.582 56.9201C135.32 56.969 135.283 57.303 134.867 58.0729C134.639 58.4925 132.593 62.949 131.985 63.7189C131.378 64.4888 130.99 65.1609 129.229 64.8717C127.591 64.6029 112.883 62.0121 110.719 61.674C110.588 61.6536 110.47 61.7595 110.474 61.8939L110.568 64.1955C110.572 64.2933 110.641 64.3747 110.739 64.3951C112.757 64.774 131.696 68.6153 132.287 68.7416C132.91 68.872 132.703 69.1979 132.503 69.5278C131.981 70.4118 128.826 74.1228 127.864 74.7868C126.612 75.6545 125.72 75.7278 124.15 75.1453C122.719 74.6157 112.985 70.6032 111.077 69.8904C110.935 69.8374 110.784 69.9474 110.792 70.0981L110.886 72.4445C110.89 72.526 110.939 72.5993 111.016 72.6319C112.113 73.0922 119.939 76.5792 123.629 78.1312C124.37 78.4449 124.554 78.6852 123.906 79.1333C123.176 79.6384 118.293 81.4145 116.674 81.8871C115.227 82.3107 115.048 82.881 111.546 79.2026C111.285 78.9296 111.175 79.0967 111.155 79.3288L111.306 83.4676C111.566 88.9506 111.958 94.4377 112.317 98.4624C141.141 93.9285 156.374 73.7317 156.374 47.2942C156.382 20.1724 137.908 0 102.227 0Z" fill="white"></path><path d="M185.162 140.673V140.298H179.687V140.673C180.47 141.137 180.816 141.687 180.816 143.887V156.975C180.816 159.175 180.47 159.725 179.687 160.189V160.564H185.166V160.189C184.383 159.725 184.037 159.175 184.037 156.975V151.329H195.655V156.975C195.655 159.175 195.308 159.725 194.525 160.189V160.564H200.004V160.189C199.221 159.725 198.875 159.175 198.875 156.975V143.887C198.875 141.687 199.221 141.137 200.004 140.673V140.298H194.525V140.673C195.308 141.137 195.655 141.687 195.655 143.887V149.101H184.037V143.887C184.033 141.683 184.379 141.133 185.162 140.673ZM170.096 160.189C169.227 159.696 168.82 159.118 168.82 156.829V142.494H171.282C174.441 142.494 175.048 142.958 175.888 144.001L176.263 143.883L175.656 140.033C174.47 140.176 172.904 140.294 170.931 140.294H163.484C161.511 140.294 159.949 140.176 158.759 140.033L158.152 143.883L158.527 144.001C159.367 142.958 159.974 142.494 163.133 142.494H165.595V156.829C165.595 159.118 165.188 159.696 164.319 160.189V160.564H170.087V160.189H170.096ZM149.987 140.673C150.826 141.166 151.259 141.744 151.259 144.034V152.69C151.259 156.397 149.261 158.454 145.751 158.454C142.099 158.454 140.13 156.458 140.13 152.894V143.887C140.13 141.687 140.477 141.137 141.259 140.673V140.298H135.781V140.673C136.563 141.137 136.91 141.687 136.91 143.887V153.097C136.91 158.079 140.008 161.004 145.311 161.004C150.586 161.004 153.717 158.051 153.717 152.694V144.038C153.717 141.748 154.153 141.17 154.993 140.677V140.302H149.979V140.673H149.987ZM121.79 139.83C115.301 139.83 111.069 144.84 111.069 150.572C111.069 156.018 114.95 160.996 121.819 160.996C128.308 160.996 132.54 155.985 132.54 150.254C132.54 144.812 128.659 139.83 121.79 139.83ZM122.08 158.768C117.791 158.768 114.49 155.032 114.49 149.936C114.49 145.072 117.302 142.058 121.529 142.058C125.818 142.058 129.12 145.793 129.12 150.889C129.124 155.757 126.311 158.768 122.08 158.768ZM87.8585 160.189C86.9576 159.815 86.5826 159.118 86.872 156.886L88.205 146.808L94.8128 160.299H96.0316L102.725 146.775L103.972 156.996C104.233 159.167 103.944 159.806 103.104 160.181V160.556H108.611V160.181C107.857 159.774 107.539 159.167 107.25 157.11L104.93 140.054H103.455L95.893 155.664L88.3313 140.054H86.8557L84.4506 156.996C84.1612 159.11 83.725 159.745 82.8853 160.181V160.556H87.8707V160.189H87.8585ZM75.3684 160.189C74.5001 159.696 74.0925 159.118 74.0925 156.829V142.494H76.5546C79.7138 142.494 80.3212 142.958 81.161 144.001L81.536 143.883L80.9286 140.033C79.7424 140.176 78.177 140.294 76.2041 140.294H68.7565C66.7835 140.294 65.2223 140.176 64.032 140.033L63.4246 143.883L63.8037 144.001C64.6434 142.958 65.2508 142.494 68.41 142.494H70.8721V156.829C70.8721 159.118 70.4645 159.696 69.5962 160.189V160.564H75.3643V160.189H75.3684ZM50.0132 160.189C49.3773 159.872 48.8841 159.175 48.8841 156.975V142.412H51.5215C54.7378 142.412 56.3602 143.659 56.3602 146.351C56.3602 148.812 54.8234 150.348 51.8965 150.348H49.9847V150.637L50.8815 152.462H51.7498C52.7077 152.462 52.9972 152.779 54.4158 154.69L58.0397 159.554C58.6185 160.336 59.0261 160.568 59.7762 160.568H63.339V160.193C62.5848 159.904 62.006 159.468 60.6159 157.672L58.1253 154.486C56.7923 152.808 56.0667 151.969 55.1984 151.619C58.1823 150.836 59.7191 148.722 59.7191 146.176C59.7191 142.441 57.2285 140.298 51.8354 140.298H44.5346V140.673C45.1705 140.991 45.6637 141.687 45.6637 143.887V156.975C45.6637 159.175 45.1705 159.872 44.5346 160.189V160.564H50.0092V160.189H50.0132ZM39.3209 157.436L31.4697 140.062H30.2835L22.4324 157.436C21.6497 159.146 21.2421 159.782 20.3738 160.189V160.564H25.5916V160.189C24.548 159.782 24.2015 159.146 25.1269 157.032L26.199 154.572H34.5433L35.6154 157.032C36.5408 159.146 36.2228 159.782 35.2975 160.189V160.564H41.2368V160.189C40.4826 159.782 40.1035 159.146 39.3209 157.436ZM27.1243 152.486L30.3691 145.072L33.6139 152.486H27.1243ZM8.78055 140.294H0V140.669C0.782667 141.133 1.12916 141.683 1.12916 143.883V156.971C1.12916 159.171 0.782667 159.721 0 160.185V160.56H8.23023C15.8816 160.56 19.8194 156.042 19.8194 149.875C19.8194 144.319 15.9958 140.294 8.78055 140.294ZM7.99788 158.364H4.3169V142.494H8.25877C13.5336 142.494 16.4279 145.158 16.4279 150.657C16.4319 155.44 13.7945 158.364 7.99788 158.364Z" fill="white"></path></g><defs><clipPath id="clip0_1194_2073"><rect width="200" height="161" fill="white"></rect></clipPath></defs></svg> 