<?xml version="1.0" encoding="UTF-8"?> <svg xmlns="http://www.w3.org/2000/svg" width="230" height="73" viewBox="0 0 230 73" fill="none"><g opacity="0.4"><path d="M23.3886 68.9124C19.4102 61.6006 22.1896 52.4396 29.5789 48.5029C36.9682 44.5661 46.2262 47.3164 50.2046 54.6283L45.0925 57.3567C42.6354 52.831 36.9099 51.1299 32.3362 53.5613C27.7626 55.9927 26.0436 61.6583 28.5082 66.1935L23.3961 68.9219L23.3886 68.9124Z" fill="#00C1DE"></path><path d="M203.176 21.8745L206.265 19.1193L209.361 22.5161L214.148 17.6743L218.736 22.7011L223.522 17.8593L229.591 24.5085L226.512 27.2614L223.403 23.8566L218.609 28.7106L214.02 23.6835L209.244 28.5234L203.176 21.8745Z" fill="#407BFF"></path><path d="M3.44587 10.059L7.53567 9.31367L8.37427 13.8122L15.015 12.1697L16.2613 18.8302L22.902 17.1877L24.5499 25.9972L20.47 26.746L19.6252 22.2343L12.9711 23.8828L11.7247 17.2222L5.09386 18.8682L3.44587 10.059Z" fill="#407BFF"></path><path d="M219.132 61.2094C213.178 65.8526 204.512 64.8454 199.82 58.9532C195.127 53.061 196.145 44.4857 202.11 39.8342C208.075 35.1827 216.731 36.1983 221.432 42.101C226.132 48.0038 225.098 56.558 219.132 61.2094ZM205.469 44.0522C201.86 46.8665 201.238 52.0582 204.082 55.6295C206.926 59.2009 212.173 59.8165 215.782 57.0023C219.391 54.188 220.013 48.996 217.169 45.4247C214.325 41.8533 209.078 41.238 205.469 44.0522Z" fill="#00C1DE"></path><path d="M164.709 23.4606L146.736 12.6943L165.146 2.67492L164.709 23.4606ZM153.464 12.8281L161.471 17.6226L161.665 8.36204L153.459 12.8215L153.464 12.8281Z" fill="#407BFF"></path></g></svg> 