<?xml version="1.0" encoding="UTF-8"?> <svg xmlns="http://www.w3.org/2000/svg" width="40" height="40" viewBox="0 0 40 40" fill="none"><g clip-path="url(#clip0_1708_90)"><mask id="mask0_1708_90" style="mask-type:luminance" maskUnits="userSpaceOnUse" x="0" y="0" width="40" height="40"><path d="M40 0H0V40H40V0Z" fill="white"></path></mask><g mask="url(#mask0_1708_90)"><path d="M30 0H10C4.47715 0 0 4.47715 0 10V30C0 35.5228 4.47715 40 10 40H30C35.5228 40 40 35.5228 40 30V10C40 4.47715 35.5228 0 30 0Z" fill="#E6E6E6"></path></g><path d="M29.0394 13.5263C27.918 13.2796 26.9035 12.6841 26.1415 11.8251C25.3795 10.9661 24.9092 9.88785 24.7982 8.745V8.25H20.9169V23.6288C20.9177 24.3111 20.7038 24.9765 20.3054 25.5305C19.907 26.0845 19.3445 26.4992 18.6973 26.7157C18.0502 26.9323 17.3514 26.9397 16.6998 26.737C16.0482 26.5343 15.477 26.1317 15.0669 25.5862C14.6995 25.1034 14.4746 24.5275 14.4175 23.9235C14.3604 23.3195 14.4734 22.7116 14.7438 22.1685C15.0142 21.6254 15.4311 21.1688 15.9475 20.8503C16.4638 20.5318 17.059 20.3641 17.6657 20.3663C18.0012 20.3643 18.335 20.4136 18.6557 20.5125V16.575C18.2825 16.5288 17.9065 16.51 17.5307 16.5188C16.1461 16.5557 14.8024 16.9957 13.6641 17.7847C12.5258 18.5737 11.6423 19.6775 11.1217 20.961C10.6012 22.2444 10.4662 23.6519 10.7333 25.0109C11.0004 26.3699 11.6581 27.6215 12.6257 28.6125C13.6173 29.6207 14.8863 30.3114 16.2714 30.5968C17.6565 30.8821 19.0952 30.7493 20.4046 30.2152C21.7141 29.681 22.8352 28.7697 23.6255 27.5969C24.4158 26.4242 24.8396 25.0429 24.8432 23.6288V15.7538C26.4085 16.8719 28.2857 17.4701 30.2094 17.4637V13.6387C29.8315 13.6403 29.4545 13.6026 29.0844 13.5263H29.0394Z" fill="#182849"></path></g><defs><clipPath id="clip0_1708_90"><rect width="40" height="40" fill="white"></rect></clipPath></defs></svg> 