<?xml version="1.0" encoding="UTF-8"?> <svg xmlns="http://www.w3.org/2000/svg" width="200" height="74" viewBox="0 0 200 74" fill="none"><path fill-rule="evenodd" clip-rule="evenodd" d="M32.431 19.887H46.0934V51.481H27.3216C28.0574 50.807 28.7959 50.0627 29.566 49.209C29.7375 49.019 29.9047 48.837 30.0666 48.6607C31.4396 47.1658 32.431 46.0864 32.431 44.114V19.887ZM18.769 32.049C20.956 32.049 29.438 26.9352 32.3451 19.887H5.10742V51.481H18.769V32.049ZM33.713 31.082C35.231 31.082 41.165 27.071 43.105 21.565V40.364C43.105 41.8819 42.4225 42.7134 41.4769 43.8653C41.3666 43.9996 41.2528 44.1383 41.136 44.283C38.9097 47.0455 37.0663 48.3159 34.127 50.3416C33.9914 50.435 33.8534 50.5301 33.713 50.627V31.082ZM8.0955 31.084C9.6136 31.084 15.548 27.072 17.488 21.567V40.364C17.488 41.8819 16.8055 42.7134 15.8599 43.8653C15.7496 43.9996 15.6358 44.1383 15.519 44.283C13.2921 47.0456 11.4486 48.316 8.50915 50.3418C8.37364 50.4352 8.23581 50.5302 8.0955 50.627V31.084Z" fill="white"></path><path fill-rule="evenodd" clip-rule="evenodd" d="M5 18.2847V9H45.9877V18.2847H5ZM54.8726 9.85359C54.9166 9.81979 54.9726 9.79889 55.0286 9.79889C55.0846 9.79889 55.1416 9.80999 55.1866 9.84379C55.2426 10.0339 55.2756 10.0782 56.1266 10.0782H60.2926C61.0316 10.0782 61.1996 10.0672 61.3006 9.83209C61.3446 9.80999 61.3776 9.79889 61.4446 9.79889C61.5116 9.79889 61.5916 9.84359 61.6146 9.877C61.5026 10.258 61.4226 11.1644 61.4446 11.8028C61.3886 11.9034 61.0866 11.9255 61.0306 11.836C60.8406 11.1193 60.6846 10.5938 59.8446 10.5938H59.1736C58.9046 10.5938 58.8706 10.6269 58.8706 10.918V15.8554C58.8706 16.8967 58.9376 16.9759 59.4406 17.0546L59.8896 17.1093C59.9686 17.1765 59.9686 17.4343 59.8896 17.5019C59.1626 17.4794 58.6006 17.4687 58.0966 17.4687C57.5596 17.4687 56.9786 17.4793 56.1946 17.5019C56.1046 17.4343 56.1046 17.1766 56.1946 17.1093L56.6986 17.0546C57.2026 16.9759 57.2686 16.8967 57.2686 15.8554V10.918C57.2686 10.6488 57.2676 10.5938 56.9996 10.5938H56.3056C55.4886 10.5938 55.2536 11.042 54.9176 11.8594C54.7826 11.9263 54.5706 11.9034 54.5036 11.7579C54.6761 11.1911 54.7516 10.6656 54.8108 10.2538C54.8323 10.1043 54.8516 9.96971 54.8726 9.85359ZM155.368 9.85359C155.418 9.81979 155.468 9.79889 155.528 9.79889C155.578 9.79889 155.638 9.80999 155.678 9.84379C155.738 10.0339 155.768 10.0782 156.628 10.0782H160.788C161.528 10.0782 161.698 10.0672 161.798 9.83209C161.838 9.80999 161.878 9.79889 161.938 9.79889C162.008 9.79889 162.088 9.84359 162.108 9.877C161.998 10.258 161.918 11.1644 161.938 11.8028C161.888 11.9034 161.588 11.9255 161.528 11.836C161.338 11.1193 161.178 10.5938 160.338 10.5938H159.668C159.398 10.5938 159.368 10.6269 159.368 10.918V15.8554C159.368 16.8967 159.438 16.9759 159.938 17.0546L160.388 17.1093C160.468 17.1765 160.468 17.4343 160.388 17.5019C159.658 17.4794 159.098 17.4687 158.598 17.4687C158.058 17.4687 157.478 17.4793 156.688 17.5019C156.598 17.4343 156.598 17.1766 156.688 17.1093L157.198 17.0546C157.698 16.9759 157.768 16.8967 157.768 15.8554V10.918C157.768 10.6488 157.768 10.5938 157.498 10.5938H156.808C155.988 10.5938 155.748 11.042 155.418 11.8594C155.278 11.9263 155.068 11.9034 154.998 11.7579C155.173 11.1953 155.247 10.6734 155.305 10.2629C155.327 10.1098 155.346 9.97208 155.368 9.85359ZM141.918 12.0372C141.918 10.7716 142.888 9.89849 144.518 9.89849C144.888 9.89849 145.348 9.94379 145.798 10.0782C145.938 10.1232 146.038 10.1458 146.178 10.168C146.268 10.4142 146.378 11.0194 146.378 11.7696C146.318 11.904 146.038 11.9145 145.938 11.8028C145.748 11.2313 145.268 10.4141 144.458 10.4141C143.718 10.4141 143.318 10.8955 143.318 11.4551C143.318 11.9702 143.778 12.4417 144.338 12.7325L145.078 13.125C145.768 13.4946 146.658 14.1436 146.658 15.375C146.658 16.7523 145.528 17.6484 143.838 17.6484C142.808 17.6484 142.168 17.357 141.928 17.2226C141.718 16.976 141.568 16.1698 141.568 15.4083C141.648 15.2628 141.908 15.2518 141.998 15.375C142.218 16.1032 142.968 17.1328 143.918 17.1328C144.748 17.1328 145.128 16.5619 145.128 16.0019C145.128 15.0948 144.278 14.5565 143.608 14.2208C142.808 13.8175 141.928 13.1457 141.918 12.0372ZM177.808 13.8301C177.808 11.6131 179.468 9.89849 181.808 9.89849C184.138 9.89849 185.738 11.4672 185.738 13.7403C185.738 16.1811 184.108 17.6484 181.698 17.6484C179.448 17.6484 177.808 16.1707 177.808 13.8301ZM63.9686 10.4376C63.8796 10.3703 63.8796 10.1126 63.9686 10.045C64.5176 10.0675 65.0996 10.0782 65.6366 10.0782C66.1406 10.0782 66.7005 10.0676 67.1935 10.045C67.2835 10.1126 67.2835 10.3703 67.1935 10.4376L66.9595 10.4708C66.4776 10.5718 66.4105 10.6498 66.4105 11.6915V12.9903C66.4105 13.3151 66.4216 13.3262 66.8805 13.3262H69.2095C69.6795 13.3262 69.6795 13.3148 69.6795 12.9903V11.6915C69.6795 10.6498 69.6245 10.572 69.1095 10.4825L68.8065 10.4356C68.7165 10.3684 68.7165 10.1126 68.8065 10.045C69.4225 10.0675 69.9705 10.0782 70.5075 10.0782C71.0565 10.0782 71.5725 10.0676 72.0875 10.045C72.1775 10.1126 72.1775 10.3683 72.0875 10.4356L71.8635 10.4708C71.3485 10.5718 71.2815 10.6498 71.2815 11.6915V15.8554C71.2815 16.8967 71.3485 16.9765 71.8635 17.0664L72.1325 17.1093C72.2225 17.1765 72.2225 17.4343 72.1325 17.5019C71.5725 17.4794 71.0225 17.4687 70.5075 17.4687C69.9475 17.4687 69.4005 17.4793 68.8635 17.5019C68.7735 17.4343 68.7735 17.1766 68.8635 17.1093L69.1095 17.0761C69.6245 16.9755 69.6795 16.8967 69.6795 15.8554V14.2442C69.6795 13.9309 69.6795 13.92 69.2095 13.92H66.8805C66.4216 13.92 66.4105 13.9304 66.4105 14.2442V15.8554C66.4105 16.8967 66.4785 16.9765 66.9825 17.0664L67.3395 17.1093C67.4295 17.1765 67.4295 17.4343 67.3395 17.5019C66.7015 17.4794 66.1406 17.4687 65.6366 17.4687C65.0996 17.4687 64.5396 17.4793 63.9686 17.5019C63.8796 17.4343 63.8796 17.1766 63.9686 17.1093L64.2386 17.0761C64.7416 16.9755 64.8086 16.8967 64.8086 15.8554V11.6915C64.8086 10.6498 64.7416 10.5718 64.2386 10.4708L63.9686 10.4376ZM74.9025 10.4376C74.8015 10.3703 74.8145 10.1126 74.9255 10.045C75.4525 10.0675 76.0015 10.0782 76.5395 10.0782H78.9125C79.6285 10.0782 80.2665 10.0676 80.4125 10.045C80.4169 10.1175 80.4324 10.2921 80.4531 10.524C80.4835 10.8659 80.5251 11.3323 80.5584 11.7793C80.5134 11.9026 80.2564 11.9249 80.1444 11.8243C80.0214 11.4321 79.8644 11.0985 79.7185 10.9415C79.5055 10.7287 79.1695 10.5938 78.6215 10.5938H77.7245C77.3555 10.5938 77.3555 10.6153 77.3555 11.0293V11.0313V12.9903C77.3555 13.3037 77.3675 13.3262 77.6695 13.3262H78.4415C79.0235 13.3262 79.1465 13.2483 79.2695 12.711L79.3265 12.4297C79.4045 12.34 79.6844 12.3405 79.7404 12.4415C79.7174 12.7998 79.7075 13.2034 79.7075 13.629C79.7075 14.0541 79.7184 14.4565 79.7404 14.8145C79.6844 14.9153 79.4045 14.9272 79.3265 14.8262L79.2695 14.5469C79.1465 14.0092 79.0235 13.92 78.4415 13.92H77.6695C77.3685 13.92 77.3555 13.9296 77.3555 14.2657V15.5977C77.3555 16.1131 77.4005 16.4715 77.5355 16.6621C77.6805 16.8637 77.8935 16.9531 78.7115 16.9531C79.6854 16.9531 80.0654 16.9195 80.6814 15.6543C80.7714 15.531 81.0504 15.5765 81.0954 15.7109C81.0504 16.2932 80.7814 17.1992 80.6254 17.5019C80.0314 17.4794 78.9575 17.4687 78.0395 17.4687H76.5845C76.0465 17.4687 75.4975 17.4793 74.6585 17.5019C74.5685 17.4343 74.5685 17.1655 74.6585 17.1093L75.1835 17.0312C75.6875 16.9644 75.7535 16.8855 75.7535 15.8554V11.6797C75.7535 10.6607 75.6875 10.5817 75.1835 10.4922L74.9025 10.4376ZM88.1714 10.4258C88.0824 10.3586 88.0704 10.1126 88.1934 10.045C88.7304 10.0675 89.2904 10.0782 89.8284 10.0782C90.3774 10.0782 90.9254 10.0676 91.4624 10.045C91.5524 10.1126 91.5524 10.3586 91.4624 10.4258L91.1954 10.4708C90.6914 10.5718 90.6234 10.6498 90.6234 11.6915V14.2774C90.6234 15.5875 90.7684 17.0312 92.4704 17.0312C93.9044 17.0312 94.3413 15.7779 94.3413 14.2442V12.8887C94.3413 11.9822 94.2963 11.1307 94.1733 10.8399C94.0723 10.6044 93.8253 10.5381 93.5234 10.4825L93.2224 10.4258C93.1324 10.3363 93.1553 10.1126 93.2224 10.045C93.8273 10.0675 94.2633 10.0782 94.7223 10.0782C95.1363 10.0782 95.5513 10.0676 95.9763 10.045C96.0433 10.1126 96.0663 10.3363 95.9763 10.4258L95.7753 10.4708C95.4843 10.538 95.2703 10.6045 95.1693 10.8399C95.0473 11.1307 95.0023 11.9822 95.0023 12.8887V14.1426C95.0023 15.1951 94.9013 16.1584 94.2853 16.8417C93.7924 17.3683 92.9753 17.6484 92.0684 17.6484C91.2174 17.6484 90.4564 17.5142 89.8514 17.0214C89.2694 16.5398 89.0234 15.7108 89.0234 14.4903V11.6915C89.0234 10.6498 88.9554 10.572 88.4514 10.4825L88.1714 10.4258ZM98.2073 10.4376C98.1283 10.3477 98.1403 10.0787 98.2523 10.045C98.7783 10.0675 99.3373 10.0782 99.7963 10.0782C100.177 10.0782 100.503 10.0676 100.738 10.045C100.847 10.5334 101.532 11.3477 102.492 12.4881L102.584 12.5977L103.525 13.7051C103.71 13.9165 103.868 14.103 104.007 14.2671C104.252 14.5548 104.438 14.7736 104.603 14.9376C104.643 14.8258 104.643 14.6353 104.643 14.4336V12.8887C104.643 11.9822 104.603 11.1422 104.473 10.8399C104.373 10.6044 104.133 10.5381 103.828 10.4825L103.525 10.4376C103.435 10.3477 103.457 10.1126 103.525 10.045C104.133 10.0675 104.563 10.0782 105.023 10.0782C105.443 10.0782 105.843 10.0676 106.283 10.045C106.343 10.1126 106.373 10.3477 106.283 10.4376L106.073 10.4708C105.783 10.538 105.573 10.6045 105.473 10.8399C105.353 11.1422 105.303 11.9822 105.303 12.8887V15.5645C105.303 16.2923 105.303 16.9976 105.323 17.3671C105.253 17.5016 104.933 17.6249 104.663 17.6249C104.661 17.6249 104.631 17.583 104.58 17.5091C104.442 17.3098 104.141 16.8779 103.759 16.4042L101.173 13.2032C100.535 12.397 100.155 11.9374 99.9533 11.7696C99.8973 11.8817 99.8963 12.0719 99.8963 12.4864V14.6583C99.8963 15.5655 99.9413 16.4047 100.064 16.707C100.165 16.9421 100.423 17.0104 100.714 17.0664L101.029 17.1093C101.118 17.1988 101.096 17.4343 101.029 17.5019C100.424 17.4794 99.9753 17.4687 99.5273 17.4687C99.1123 17.4687 98.6993 17.4793 98.2733 17.5019C98.2063 17.4343 98.1833 17.1988 98.2733 17.1093L98.4643 17.0761C98.7673 17.0093 98.9793 16.942 99.0803 16.707C99.1913 16.4047 99.2363 15.5655 99.2363 14.6583V11.8145V11.8143C99.2363 11.1987 99.2363 11.0181 99.1583 10.8614C99.0793 10.6709 98.9113 10.5608 98.5193 10.4825L98.2073 10.4376ZM108.673 10.4376C108.583 10.3703 108.583 10.1126 108.673 10.045C109.283 10.0675 109.843 10.0782 110.383 10.0782C110.903 10.0782 111.463 10.0676 112.073 10.045C112.163 10.1126 112.163 10.3703 112.073 10.4376L111.753 10.4922C111.243 10.5817 111.173 10.6605 111.173 11.7129V15.834C111.173 16.8867 111.243 16.9651 111.753 17.0546L112.073 17.1093C112.163 17.1765 112.143 17.4343 112.063 17.5019C111.453 17.4794 110.903 17.4687 110.383 17.4687C109.843 17.4687 109.283 17.4793 108.673 17.5019C108.583 17.4343 108.583 17.1766 108.673 17.1093L108.993 17.0546C109.503 16.9651 109.573 16.8867 109.573 15.834V11.7129C109.573 10.6605 109.503 10.5817 108.993 10.4922L108.673 10.4376ZM114.013 10.4258C113.933 10.3025 113.963 10.101 114.063 10.045C114.273 10.0492 114.455 10.0548 114.631 10.0602C114.933 10.0695 115.216 10.0782 115.583 10.0782C116.103 10.0782 116.583 10.0676 117.263 10.045C117.353 10.1126 117.343 10.3252 117.273 10.4258L116.943 10.4922C116.743 10.5368 116.663 10.6045 116.663 10.7051C116.663 10.795 116.843 11.2662 117.113 11.9376L118.093 14.4571C118.234 14.8223 118.336 15.0648 118.413 15.2476C118.424 15.2722 118.434 15.2957 118.443 15.3184C118.533 15.1279 118.663 14.8264 118.803 14.4903L119.213 13.4376C119.503 12.7323 119.963 11.478 120.093 11.0977C120.173 10.8845 120.213 10.7607 120.213 10.6934C120.213 10.6154 120.173 10.56 119.903 10.504L119.583 10.4258C119.493 10.3363 119.493 10.101 119.633 10.045C120.153 10.0675 120.583 10.0782 121.003 10.0782C121.383 10.0782 121.723 10.0676 122.043 10.045C122.133 10.0899 122.153 10.3586 122.073 10.4258L121.773 10.4825C121.463 10.5493 121.303 10.638 121.163 10.8731C120.913 11.2426 120.623 11.8471 120.233 12.754L119.413 14.6915C119.064 15.5225 118.816 16.1768 118.616 16.7032C118.49 17.0351 118.384 17.3161 118.283 17.5585C118.193 17.6147 118.063 17.6484 117.893 17.6484C117.753 17.6484 117.653 17.6145 117.593 17.5585C117.522 17.3927 117.432 17.1388 117.341 16.8805C117.267 16.6682 117.191 16.453 117.123 16.2812L115.303 11.7247C115.006 10.9927 114.913 10.7532 114.739 10.6389C114.643 10.5765 114.524 10.5514 114.333 10.504L114.013 10.4258ZM123.853 10.4376C123.753 10.3703 123.763 10.1126 123.873 10.045C124.403 10.0675 124.943 10.0782 125.483 10.0782H127.863C128.573 10.0782 129.213 10.0676 129.363 10.045C129.367 10.1124 129.381 10.2683 129.399 10.4764C129.429 10.8219 129.472 11.3112 129.503 11.7793C129.463 11.9026 129.203 11.9249 129.093 11.8243C128.963 11.4321 128.813 11.0985 128.663 10.9415C128.453 10.7287 128.113 10.5938 127.563 10.5938H126.673C126.303 10.5938 126.303 10.6153 126.303 11.0293V11.0313V12.9903C126.303 13.3037 126.313 13.3262 126.613 13.3262H127.393C127.973 13.3262 128.093 13.2483 128.213 12.711L128.273 12.4297C128.353 12.34 128.633 12.3405 128.683 12.4415C128.663 12.7998 128.653 13.2034 128.653 13.629C128.653 14.0541 128.663 14.4565 128.683 14.8145C128.633 14.9153 128.353 14.9272 128.273 14.8262L128.213 14.5469C128.093 14.0092 127.973 13.92 127.393 13.92H126.613C126.313 13.92 126.303 13.9296 126.303 14.2657V15.5977C126.303 16.1131 126.343 16.4715 126.483 16.6621C126.623 16.8637 126.843 16.9531 127.653 16.9531C128.633 16.9531 129.013 16.9195 129.633 15.6543C129.723 15.531 129.993 15.5765 130.043 15.7109C129.993 16.2932 129.733 17.1992 129.573 17.5019C128.983 17.4794 127.903 17.4687 126.983 17.4687H125.533C124.993 17.4687 124.443 17.4793 123.603 17.5019C123.513 17.4343 123.513 17.1655 123.603 17.1093L124.133 17.0312C124.633 16.9644 124.703 16.8855 124.703 15.8554V11.6797C124.703 10.6607 124.633 10.5817 124.133 10.4922L123.853 10.4376ZM132.473 10.1446C133.313 10.0886 134.183 10.045 135.243 10.045C136.203 10.045 137.013 10.1896 137.443 10.4473C138.093 10.828 138.423 11.3888 138.423 12.1055C138.423 13.1019 137.753 13.5275 137.243 13.7852C137.123 13.8409 137.123 13.9084 137.183 14.0313C137.923 15.5316 138.383 16.371 138.923 16.83C139.213 17.0655 139.503 17.1332 139.673 17.1445C139.773 17.2002 139.773 17.3686 139.713 17.4355C139.533 17.5142 139.173 17.5351 138.833 17.5351C137.803 17.5351 137.153 17.1655 136.653 16.3593C136.303 15.7659 136.043 15.2181 135.783 14.625C135.653 14.3228 135.473 14.2325 135.193 14.2325C134.803 14.2325 134.773 14.2542 134.773 14.4786V15.8554C134.773 16.8855 134.843 16.9651 135.343 17.0546L135.653 17.1093C135.733 17.1654 135.733 17.4343 135.653 17.5019C135.053 17.4794 134.543 17.4687 134.003 17.4687C133.443 17.4687 132.953 17.4793 132.373 17.5019C132.283 17.4343 132.283 17.1655 132.373 17.1093L132.673 17.0546C133.173 16.9651 133.243 16.8855 133.243 15.8554V11.8926C133.243 10.7726 133.223 10.649 132.753 10.5821L132.453 10.5372C132.333 10.4815 132.333 10.2007 132.473 10.1446ZM149.253 10.4376C149.163 10.3703 149.163 10.1126 149.253 10.045C149.853 10.0675 150.413 10.0782 150.953 10.0782C151.483 10.0782 152.043 10.0676 152.643 10.045C152.733 10.1126 152.733 10.3703 152.643 10.4376L152.333 10.4922C151.813 10.5817 151.743 10.6605 151.743 11.7129V15.834C151.743 16.8867 151.813 16.9651 152.333 17.0546L152.643 17.1093C152.733 17.1765 152.723 17.4343 152.633 17.5019C152.023 17.4794 151.483 17.4687 150.953 17.4687C150.413 17.4687 149.853 17.4793 149.253 17.5019C149.163 17.4343 149.163 17.1766 149.253 17.1093L149.563 17.0546C150.083 16.9651 150.143 16.8867 150.143 15.834V11.7129C150.143 10.6605 150.083 10.5817 149.563 10.4922L149.253 10.4376ZM164.013 10.4376C163.913 10.3477 163.923 10.0787 164.053 10.045C164.563 10.0675 164.973 10.0782 165.633 10.0782C166.313 10.0782 166.893 10.0676 167.273 10.045C167.373 10.0899 167.393 10.3477 167.293 10.4376L166.913 10.5254C166.713 10.5704 166.643 10.6158 166.643 10.627C166.643 10.7165 166.703 10.884 166.933 11.4102L167.463 12.6094C167.575 12.8678 167.716 13.1645 167.835 13.4152C167.886 13.5233 167.934 13.6228 167.973 13.7071C168.206 13.3198 168.429 12.8823 168.645 12.4573C168.736 12.2804 168.825 12.1056 168.913 11.9376C169.343 11.1429 169.493 10.7728 169.493 10.6387C169.493 10.5715 169.383 10.527 169.113 10.4825L168.863 10.4376C168.773 10.3815 168.763 10.101 168.873 10.045C169.313 10.0675 169.723 10.0782 170.123 10.0782C170.553 10.0782 170.903 10.0676 171.223 10.045C171.353 10.0899 171.353 10.3592 171.263 10.4376L170.973 10.4922C170.773 10.5368 170.563 10.605 170.443 10.7618C170.273 10.9745 169.993 11.3776 169.453 12.3516L168.743 13.629C168.453 14.1552 168.343 14.434 168.343 15.0723V15.8554C168.343 16.8967 168.413 16.9759 168.913 17.0546L169.363 17.1113C169.443 17.1785 169.443 17.4343 169.363 17.5019C168.633 17.4794 168.083 17.4687 167.553 17.4687C167.013 17.4687 166.453 17.4793 165.793 17.5019C165.703 17.4343 165.703 17.1785 165.793 17.1113L166.173 17.0546C166.673 16.9759 166.743 16.8967 166.743 15.8554V15.2969C166.743 14.7373 166.733 14.5564 166.443 13.9629L165.113 11.209C164.883 10.75 164.783 10.5823 164.393 10.504L164.013 10.4376ZM188.583 10.4356C188.483 10.3684 188.483 10.09 188.603 10.045C189.083 10.0675 189.643 10.0782 190.183 10.0782H192.533C193.253 10.0782 193.893 10.0676 194.043 10.045C194.043 10.2355 194.043 11.0413 194.063 11.7911C194.023 11.9144 193.773 11.9255 193.643 11.836C193.523 11.377 193.433 11.1085 193.313 10.9629C193.123 10.7279 192.793 10.5938 192.223 10.5938H191.343C190.982 10.5938 190.982 10.6152 190.983 11.0192V11.0528V13.0782C190.983 13.3804 190.993 13.4141 191.293 13.4141H192.153C192.743 13.4141 192.863 13.3357 192.983 12.7872L193.043 12.5196C193.113 12.4191 193.393 12.4287 193.463 12.5293C193.443 12.8877 193.433 13.303 193.433 13.7286C193.433 14.143 193.443 14.5565 193.463 14.8926C193.393 14.9934 193.113 15.005 193.043 14.9043L192.983 14.6348C192.863 14.0974 192.743 14.0079 192.153 14.0079H191.293C190.993 14.0079 190.983 14.0419 190.983 14.3438V15.8554C190.983 16.8967 191.043 16.9759 191.553 17.0546L191.963 17.1093C192.043 17.1765 192.043 17.4343 191.963 17.5019C191.273 17.4794 190.723 17.4687 190.183 17.4687C189.673 17.4687 189.113 17.4793 188.433 17.5019C188.343 17.4343 188.343 17.1766 188.433 17.1093L188.803 17.0546C189.313 16.9759 189.373 16.8967 189.373 15.8554V11.6915C189.373 10.6498 189.313 10.5718 188.803 10.4708L188.583 10.4356ZM183.943 13.8848C183.943 11.9697 183.103 10.4141 181.713 10.4141C180.333 10.4141 179.593 11.7025 179.593 13.5723C179.593 14.9386 180.083 17.1328 181.903 17.1328C183.373 17.1328 183.943 15.6985 183.943 13.8848ZM136.723 12.2168C136.723 11.209 136.133 10.5606 135.253 10.5606C134.805 10.5606 134.803 10.5933 134.773 11.1243L134.773 11.1309V13.3145C134.773 13.7062 134.813 13.7403 135.473 13.7403C135.873 13.7403 136.113 13.6386 136.323 13.4258C136.513 13.2353 136.723 12.8775 136.723 12.2168ZM105.225 23.5836C106.042 23.1732 106.946 22.719 107.483 21.7755H108.153L115.643 43.5153C115.763 43.8646 115.906 44.3034 116.063 44.7855C116.629 46.5244 117.38 48.8282 117.873 49.5383C118.463 50.3633 119.633 50.6523 120.893 50.6523V51.7243C120.148 51.7243 119.393 51.7038 118.638 51.6833C117.883 51.6628 117.128 51.6423 116.383 51.6423C114.502 51.6423 112.658 51.6817 110.778 51.7218L110.663 51.7243V50.6523H111.363C112.343 50.6523 113.523 50.4453 113.523 49.2903C113.523 48.8363 113.213 47.6823 112.933 46.8983L110.973 40.9154H101.765L100.904 43.8043C100.394 45.5363 99.8453 47.4343 99.8453 48.7123C99.8453 50.5126 100.96 50.5707 102.217 50.6362C102.313 50.6413 102.411 50.6464 102.509 50.6523H103.412V51.7243C102.648 51.7243 101.873 51.7038 101.099 51.6833C100.325 51.6628 99.5512 51.6423 98.7873 51.6423C97.2193 51.6423 95.6123 51.6833 94.0443 51.7243V50.6523C96.4353 50.3633 96.8683 50.0323 97.8473 47.7223C98.3157 46.6129 98.696 45.4355 99.071 44.2741C99.1979 43.8809 99.3243 43.4896 99.4533 43.1033L104.473 28.3745L104.498 28.2977C104.81 27.3446 105.293 25.8666 105.293 24.6615C105.293 24.2485 105.293 23.9195 105.213 23.5895L105.225 23.5836ZM54.7876 24.0015V22.9295C56.1586 22.9705 57.5696 23.0115 58.9416 23.0115C59.3531 23.0115 59.7748 22.991 60.1966 22.9705C60.6183 22.95 61.0401 22.9295 61.4516 22.9295L71.9925 46.0733C73.1682 43.5019 74.3745 40.944 75.5808 38.3861C77.9932 33.2705 80.4058 28.1547 82.5744 22.9295C83.6324 22.9705 84.7294 23.0115 85.7874 23.0115C86.3554 23.0115 86.9337 22.991 87.5119 22.9705C88.0901 22.95 88.6684 22.9295 89.2364 22.9295V24.0015C87.9034 24.0015 87.0034 24.0855 86.4944 24.4975C85.9844 24.9105 85.7504 25.6115 85.7504 26.9725C85.7504 31.2961 85.9049 35.8018 86.0544 40.164C86.1303 42.3779 86.2049 44.5549 86.2574 46.6523C86.3364 49.7453 86.6114 50.6523 90.5314 50.6523V51.7243C89.4533 51.7243 88.3751 51.7038 87.2971 51.6833C86.2194 51.6628 85.1418 51.6423 84.0644 51.6423C82.1818 51.6423 80.3358 51.6817 78.4537 51.7219L78.3415 51.7243V50.6523C79.7135 50.6523 80.6935 50.6523 81.3594 50.2803C82.0644 49.8683 82.3784 49.0853 82.3784 47.4763L82.1034 27.7985H82.0254L72.7775 48.0113C72.3465 49.0013 71.5615 51.0243 71.2485 52.0973H70.4645C67.5747 45.261 64.3605 38.5481 61.1288 31.7987C60.6354 30.7683 60.1417 29.7371 59.6486 28.7045H59.5686L59.2556 43.6403C59.2556 43.9032 59.2462 44.3937 59.2367 44.8937C59.2267 45.4134 59.2166 45.9432 59.2166 46.2383C59.2166 48.2583 59.4116 49.3733 60.0396 49.9503C60.6656 50.5283 61.6456 50.6523 63.2126 50.6523V51.7243C62.4097 51.7243 61.5968 51.7038 60.7838 51.6833C59.9706 51.6628 59.1572 51.6423 58.3536 51.6423C56.6286 51.6423 54.8656 51.6833 53.1406 51.7243V50.6523C55.9236 50.6523 57.6496 49.9513 57.8066 44.4233C57.8537 42.7296 57.9111 41.0396 57.9685 39.3512C58.1027 35.4053 58.2366 31.4677 58.2366 27.5095C58.2366 26.0655 58.0406 25.1565 57.4926 24.6615C56.9436 24.1665 56.0806 24.0015 54.7876 24.0015ZM124.423 24.0015V22.9295L124.572 22.9328C126.37 22.9727 128.12 23.0115 129.833 23.0115C131.504 23.0115 133.183 22.9762 134.983 22.9383L135.403 22.9295V24.0015C133.323 24.0425 131.833 24.0845 131.833 26.9725V47.6813C131.833 50.5693 133.323 50.6103 135.403 50.6523V51.7243C134.442 51.7243 133.531 51.7029 132.64 51.6819C131.788 51.6619 130.954 51.6423 130.113 51.6423C128.33 51.6423 126.591 51.6788 124.754 51.7173L124.423 51.7243V50.6523C126.503 50.6103 127.993 50.5693 127.993 47.6813V26.9725C127.993 24.0845 126.503 24.0425 124.423 24.0015ZM138.683 24.0015V22.9295L138.822 22.9342C139.992 22.9735 141.119 23.0115 142.293 23.0115C142.823 23.0115 143.36 22.991 143.898 22.9705C144.435 22.95 144.973 22.9295 145.503 22.9295C146.586 24.6227 148.588 26.8756 151.143 29.7514C152.386 31.1506 153.76 32.6971 155.223 34.3984C157.233 36.7383 159.374 39.154 161.34 41.3728C162.632 42.8303 163.848 44.2029 164.903 45.4133V28.9935C164.903 25.1985 164.083 24.0425 160.163 24.0015V22.9295C161.963 22.9705 163.803 23.0115 165.613 23.0115C166.372 23.0115 167.123 22.9911 167.875 22.9706C168.63 22.9501 169.387 22.9295 170.153 22.9295V24.0015C167.763 24.0015 166.473 24.2085 166.473 28.2515V52.0973H165.573L145.073 28.4155V43.8043C145.073 49.4973 145.503 50.6523 149.733 50.6523V51.7243C148.873 51.7243 148 51.7038 147.128 51.6833C146.255 51.6628 145.383 51.6423 144.523 51.6423C142.803 51.6423 141.033 51.6833 139.313 51.7243V50.6523C141.703 50.6523 143.503 50.6523 143.503 45.4133V28.8295C143.503 25.2815 142.053 24.0015 138.683 24.0015ZM173.833 24.0015V22.9295C176.432 23.0115 179.07 23.0115 181.66 23.0115H181.753H181.886C185.61 23.0115 189.287 23.0115 193.043 22.9295V29.0755L192.253 29.2824C191.673 25.4045 189.903 24.2495 185.983 24.2495H181.403V35.9664H186.573C189.522 35.9664 189.736 33.7294 189.839 32.648C189.847 32.5635 189.855 32.4862 189.863 32.4174H190.653C190.573 33.3244 190.493 35.5534 190.493 37.0384C190.493 37.6272 190.532 38.339 190.573 39.0641C190.623 39.9644 190.675 40.8852 190.653 41.6164H189.863C189.863 37.6574 188.613 37.6574 185.595 37.6574H185.593H181.403V44.6713C181.403 49.2503 181.563 50.4043 185.443 50.4043H187.873C191.713 50.1973 193.433 49.6613 194.963 45.2473L195.903 45.4133C195.273 47.4753 194.693 49.5793 194.293 51.7243C192.333 51.7243 190.375 51.7038 188.418 51.6833C186.46 51.6628 184.503 51.6423 182.543 51.6423H182.44C179.574 51.6423 176.699 51.6423 173.833 51.7243V50.6523C177.243 50.6523 177.563 49.9913 177.563 45.9893V27.6735C177.563 24.2905 176.933 24.1255 173.833 24.0015ZM106.193 27.0955H106.113L102.314 39.2244H110.393L106.193 27.0955ZM25.5358 65.4622C18.7799 57.8182 5.104 53.2323 5.104 53.2323H18.769V57.4587C18.9623 57.3395 19.1524 57.2224 19.3395 57.1072C21.6554 55.6809 23.5032 54.5428 25.2236 53.2323H25.5358H46.0897C46.0897 53.2323 32.4138 57.8182 25.6588 65.4622C25.6418 65.4822 25.5528 65.4822 25.5358 65.4622ZM7.375 11.2656L9.957 10.1484H10.1308V15.9882C10.1308 16.6749 10.2225 16.9511 11.2363 16.9511V17.1972H7.3945V16.9511C8.5828 16.9612 8.6132 16.5611 8.6132 15.9257V11.9824V11.9801C8.6132 11.7239 8.61321 11.2753 8.2148 11.2753C8.0714 11.2753 7.7229 11.3983 7.375 11.5312V11.2656ZM17.662 11.9726C17.662 11.0197 18.349 10.1484 19.988 10.1484C21.545 10.1484 21.955 11.0506 21.955 11.6347C21.955 12.5056 21.126 12.8743 20.562 13.0585C21.443 13.581 22.097 14.297 22.097 15.2499C22.097 16.5304 21.156 17.33 19.691 17.33C18.585 17.33 17.549 16.736 17.549 15.6093C17.549 14.4927 18.399 14.0923 19.086 13.8769C18.317 13.4469 17.662 12.8226 17.662 11.9726ZM28.103 14.2871C28.103 12.4221 29.559 10.4559 32.633 10.1484V10.414C31.608 10.619 30.357 11.1735 29.906 13.0585C30.152 12.956 30.336 12.8828 30.828 12.8828C31.535 12.8828 32.683 13.2734 32.683 15.0351C32.683 15.5885 32.295 17.33 30.451 17.33C29.529 17.33 28.103 16.7454 28.103 14.2871ZM38.894 13.8066L39.888 10.2714H43.187L42.746 11.5722H39.898L39.674 12.4023C40.606 12.4532 41.239 12.5154 41.926 12.9042C42.386 13.1605 42.992 13.8071 42.992 14.8105C42.992 16.1526 41.927 17.2792 40.062 17.2792C39.273 17.2792 38.597 16.9607 38.597 16.3769C38.597 16.0902 38.791 15.7617 39.232 15.7617C39.5935 15.7617 39.9225 15.995 40.2442 16.2231C40.5516 16.4411 40.8523 16.6542 41.168 16.6542C41.516 16.6542 42.193 16.4278 42.193 15.5878C42.193 14.9628 41.64 14.4506 41.097 14.2148C40.4201 13.9118 39.6526 13.8589 38.9233 13.8087L38.894 13.8066ZM20.736 11.6953C20.736 11.1724 20.582 10.4453 19.824 10.4453C19.322 10.4453 18.984 10.8553 18.984 11.2753C18.984 12.2062 20.1577 12.7938 20.3071 12.8686C20.3107 12.8704 20.3136 12.8718 20.316 12.873L20.3178 12.8707C20.5529 12.5543 20.736 12.308 20.736 11.6953ZM31.127 15.5976C31.127 14.1222 30.962 13.3437 30.256 13.3437C30.091 13.3437 29.917 13.3552 29.804 13.4785C29.794 13.4881 29.713 14.0624 29.713 14.4003C29.713 16.4187 29.866 17.0527 30.502 17.0527C31.126 17.0527 31.127 16.4072 31.127 15.5976ZM19.3126 14.0629L19.312 14.0625L19.3028 14.0763C19.0007 14.5297 18.789 14.8474 18.789 15.5878C18.789 16.3253 19.096 17.0019 19.761 17.0019C20.673 17.0019 20.674 16.0693 20.674 15.8027C20.674 14.963 20.0094 14.5236 19.3126 14.0629Z" fill="white"></path></svg> 