<?xml version="1.0" encoding="UTF-8"?> <svg xmlns="http://www.w3.org/2000/svg" width="86" height="39" viewBox="0 0 86 39" fill="none"><path d="M83.9995 36.5248H1.99947V1.99816H83.9995V36.5248ZM1.41431 1.41196V37.1162H84.5878V1.41196" fill="#182849"></path><path d="M15.3973 14.856C15.3931 16.1299 14.788 17.4531 12.6306 17.4562C11.253 17.4489 10.7955 17.0354 10.7872 15.795V12.3196H12.5322C14.4426 12.3206 15.3962 13.6051 15.3973 14.856ZM12.5489 11.9386H10.7872V7.93664C11.2017 7.91989 11.8518 7.88953 12.2024 7.88953C14.2165 7.89267 14.8822 8.92377 14.8864 10.0616C14.8822 11.3293 14.1233 11.9333 12.5489 11.9386ZM14.6006 12.0432C15.682 11.8192 16.4367 10.9504 16.4378 10.0124C16.4388 9.21164 16.0997 8.63695 15.4182 8.15542C14.8121 7.7189 13.5402 7.50849 12.0873 7.50745C11.7732 7.50745 10.5223 7.5242 9.61474 7.55665C9.1374 7.5734 8.00057 7.63934 7.53998 7.65609H7.50649V8.03713H8.11782C9.25674 8.04655 9.34153 8.49563 9.35199 9.43565V16.2723C9.34153 17.3034 9.1196 17.5787 7.77133 17.5892H7.35889V17.9702H13.422C16.0923 17.9671 17.0104 16.1216 17.0146 14.8057C17.0146 13.5224 16.1185 12.5132 14.6006 12.0432Z" fill="#182849"></path><path d="M24.8161 7.88941C27.5148 7.89045 29.442 10.027 29.4441 13.0763C29.442 15.4054 28.168 17.7492 25.5081 17.7545C22.8754 17.7534 20.7985 15.598 20.7975 12.533C20.7985 10.5661 21.9427 7.8936 24.8161 7.88941ZM25.2443 7.40893C21.7208 7.41521 19.1865 9.74748 19.1802 13.0439C19.1812 16.1466 21.9197 18.2287 25.1616 18.2339C28.3742 18.2276 31.054 15.8807 31.0603 12.533C31.0593 9.54545 28.3721 7.41416 25.2443 7.40893Z" fill="#182849"></path><path d="M33.9084 17.9706H33.9273L33.9367 17.9559C33.9974 17.8638 34.1031 17.7895 34.2382 17.7895C34.4496 17.7874 35.6147 18.2344 36.5275 18.2344C38.4673 18.2312 39.9213 17.0211 39.9213 15.3839C39.9066 12.3147 34.6108 11.6804 34.6349 9.38682C34.6349 8.48553 35.3698 7.87419 36.4459 7.8721C37.566 7.8721 38.6086 8.62056 39.066 9.79507L39.0744 9.81601H39.4157L39.1278 7.65646H38.8158L38.8064 7.66902C38.707 7.79778 38.663 7.81871 38.5374 7.82185C37.9815 7.82395 37.6874 7.40942 36.2972 7.40942C34.6035 7.41151 33.3317 8.44156 33.3306 9.83171C33.3474 12.7533 38.641 13.484 38.618 15.8121C38.6169 17.0892 37.4717 17.7193 36.3789 17.7214C35.1091 17.7204 33.9712 16.8777 33.6279 15.4248L33.6216 15.3986H33.2427L33.5986 17.9706" fill="#182849"></path><path d="M41.9768 10.1443L41.982 10.1161C42.2322 8.66521 42.5127 8.31872 43.1502 8.31662H45.9818V16.421C45.9734 17.3013 45.7138 17.5798 44.7141 17.5892H44.0714V17.9702H49.3284V17.5892H48.6857C47.686 17.5798 47.4264 17.3013 47.418 16.421V8.31662H50.2496C50.8871 8.31872 51.1677 8.66521 51.4189 10.1161L51.4231 10.1443H51.7863L51.5163 7.40905H51.1425L51.1384 7.43627C51.1153 7.60166 50.8924 7.65609 50.6621 7.65505H42.7388C42.6268 7.65505 42.5138 7.63934 42.4206 7.60794C42.3295 7.57654 42.2761 7.5221 42.2615 7.43627L42.2563 7.40905H41.8836L41.6135 10.1443H41.9475" fill="#182849"></path><path d="M59.2724 17.7539C56.6397 17.7539 54.5639 15.5985 54.5629 12.5335C54.5639 10.5666 55.7081 7.89409 58.5805 7.88885C61.2791 7.8899 63.2063 10.0264 63.2084 13.0768C63.2063 15.4059 61.9334 17.7497 59.2724 17.7539ZM59.0097 7.40837C55.484 7.41465 52.9518 9.74692 52.9456 13.0443C52.9466 16.1471 55.684 18.2281 58.927 18.2344C62.1386 18.2281 64.8194 15.8801 64.8257 12.5335C64.8246 9.54593 62.1375 7.41465 59.0097 7.40837Z" fill="#182849"></path><path d="M70.343 17.6242V17.5897H70.3095C68.9099 17.5782 68.6901 17.3709 68.6796 16.1912V9.209L77.1639 18.0869H77.6413V8.86042C77.6475 8.23548 77.8674 8.04706 79.1057 8.03868H79.1392V7.6566H75.2169V8.03659L75.2504 8.03763C76.5714 8.0816 76.8216 8.2292 76.831 9.22366V15.6939L69.1203 7.6566H66.4866V8.03659L66.519 8.03763C67.0832 8.05438 67.4999 8.18105 67.8694 8.43333V16.5209C67.8631 17.2652 67.5689 17.5824 66.5535 17.5897H66.4541V17.9707H70.343" fill="#182849"></path><path d="M13.1469 23.8023V24.0755L13.1794 24.0786C14.0775 24.132 14.2021 24.2723 14.2136 25.3181V27.8545C14.2105 29.6853 12.9889 30.1773 11.7652 30.1815C10.1573 30.1783 9.32193 29.32 9.31879 27.8649V24.8397C9.32611 24.22 9.54908 24.087 10.1437 24.0786H10.2756V23.8023H7.40942V24.0776L7.44397 24.0786C8.18406 24.0996 8.33584 24.1729 8.34631 24.8606V28.0387C8.34945 29.612 9.43394 30.8127 11.5265 30.8169C13.9048 30.8127 14.7799 29.3493 14.782 27.9843V25.0459C14.7904 24.3571 15.0207 24.0954 15.7399 24.0786L15.7734 24.0776V23.8023H15.7388" fill="#182849"></path><path d="M22.6132 24.0439V24.0763L22.6467 24.0774C23.5198 24.1109 23.6705 24.1967 23.6799 24.8489V29.0957L18.6019 23.8031H16.8433V24.0763L16.8768 24.0774C17.2452 24.0878 17.5164 24.1705 17.7582 24.3338V29.6715C17.7519 30.1603 17.5687 30.3592 16.8988 30.3665H16.8213V30.6418H19.4153V30.3665H19.3818C18.4564 30.355 18.3266 30.2315 18.3161 29.4537V24.8687L23.906 30.7183H24.2379V24.6102C24.2452 24.203 24.375 24.0868 25.1946 24.0784H25.2281V23.8021H22.6132" fill="#182849"></path><path d="M26.7122 24.044V24.0754L26.7446 24.0775C27.3507 24.1184 27.5203 24.2492 27.5287 24.8281V29.4654C27.5182 30.1919 27.4125 30.3248 26.7446 30.3667L26.7122 30.3688V30.6431H29.4255V30.3667H29.3909C28.6466 30.3573 28.5106 30.1772 28.5011 29.5418V24.9254C28.5106 24.2042 28.7095 24.088 29.3909 24.0775H29.4255V23.8022H26.7122" fill="#182849"></path><path d="M35.2443 24.0437V24.0782H35.2778C36.021 24.0814 36.2555 24.2049 36.2565 24.5011C36.2565 24.6435 36.1927 24.8602 36.0733 25.1627L34.3848 29.5781L32.4577 24.7827C32.4137 24.6759 32.3917 24.5849 32.3917 24.5085C32.3865 24.2405 32.6723 24.096 33.4605 24.0772H33.494V23.8019H30.4321V24.0772H30.4667C31.1241 24.0835 31.2225 24.2195 31.502 24.9052L33.8719 30.8154H34.4634L36.714 24.9921C36.9778 24.3221 37.251 24.0803 37.8037 24.0772H37.8382V23.8019H35.2443" fill="#182849"></path><path d="M44.1191 28.9525L44.1118 28.9776C43.8344 29.9124 43.6313 30.1772 42.8828 30.1814L41.2059 30.1825C40.807 30.1731 40.6605 30.1092 40.6521 29.6172V27.3331H42.4578C42.8975 27.3415 43.0671 27.3938 43.1634 28.1632L43.1665 28.1925H43.4387V26.057H43.1665L43.1634 26.0874C43.1037 26.7165 42.9425 26.8673 42.5667 26.8725H40.6521V24.2639H42.9142C43.289 24.267 43.5402 24.4324 43.6868 25.3557L43.691 25.385H43.9527L43.8616 23.8022H38.57V24.0786H38.8443C39.5634 24.087 39.6713 24.3089 39.6796 24.916V29.5083C39.6702 30.1563 39.5572 30.3573 38.6904 30.3678H38.3523V30.6431H44.1976L44.3787 28.9525H44.1453" fill="#182849"></path><path d="M54.8239 24.959C54.8249 24.3707 55.3012 23.9708 56.0078 23.9698C56.7426 23.9698 57.4283 24.4597 57.7298 25.2322L57.7371 25.2542H57.9852L57.7905 23.8023H57.5696L57.5591 23.8169C57.4932 23.9007 57.4712 23.9091 57.3906 23.9122C57.0305 23.9153 56.8306 23.64 55.9104 23.64C54.7872 23.6411 53.9393 24.3257 53.9383 25.2532C53.955 27.196 57.4555 27.6817 57.4325 29.2048C57.4314 30.0391 56.684 30.4526 55.9649 30.4537C55.1306 30.4537 54.3842 29.8999 54.1581 28.9463L54.1518 28.9201H53.8796L54.1173 30.6431H54.3497L54.3601 30.6274C54.3989 30.5698 54.4648 30.5227 54.5496 30.5227C54.6825 30.5196 55.4572 30.8158 56.0622 30.8169C57.3498 30.8138 58.317 30.0109 58.317 28.9211C58.3013 26.882 54.7998 26.458 54.8239 24.959Z" fill="#182849"></path><path d="M60.2214 24.044V24.0765L60.2539 24.0775C60.8589 24.1184 61.0296 24.2503 61.0379 24.8281V29.4654C61.0275 30.1919 60.9228 30.3248 60.2539 30.3667L60.2214 30.3688V30.6431H62.9347V30.3667H62.9012C62.1559 30.3573 62.0188 30.1772 62.0094 29.5418V24.9254C62.0188 24.2042 62.2177 24.088 62.9012 24.0775H62.9347V23.8022H60.2214" fill="#182849"></path><path d="M70.6359 23.64H70.6066L70.6014 23.6682C70.5909 23.7666 70.4506 23.8033 70.2988 23.8022H65.0617C64.9895 23.8022 64.9151 23.7928 64.8555 23.7719C64.7979 23.753 64.7675 23.7195 64.7581 23.6682L64.7539 23.64H64.487L64.3059 25.4708H64.5687L64.5739 25.4436C64.7414 24.4826 64.9204 24.2649 65.3349 24.2639H67.194V29.6067C67.1857 30.1856 67.0265 30.3583 66.3681 30.3667L65.9316 30.3678V30.6431H69.43V30.3678H68.9924C68.334 30.3583 68.1749 30.1856 68.1665 29.6067V24.2628L70.0267 24.2639C70.4402 24.2649 70.6181 24.4826 70.7866 25.4436L70.7919 25.4708H71.0546L70.8735 23.64" fill="#182849"></path><path d="M76.6129 23.8018V24.0771H76.6474C77.1226 24.0792 77.3331 24.163 77.3331 24.3713C77.3341 24.4749 77.2828 24.6204 77.1729 24.8088L75.6645 27.3745L73.9529 24.7314C73.8357 24.5534 73.7729 24.4142 73.7739 24.321C73.7739 24.1661 73.954 24.0771 74.5015 24.0771H74.536V23.8008H71.5725V24.0761L71.606 24.0771C72.3074 24.1022 72.5314 24.2373 73.0694 25.0737L75.0008 28.0916V29.6157C74.9935 30.1412 74.8312 30.3579 74.1644 30.3663H73.9236V30.6416H76.9855V30.3663H76.8107C76.1533 30.3579 75.9806 30.1632 75.9733 29.5938L75.9722 27.9618L77.7758 24.9198C78.0794 24.4131 78.3778 24.1326 79.1095 24.0771L79.1409 24.075V23.8018" fill="#182849"></path><path d="M50.2957 25.7626C50.2915 27.0459 49.5304 27.5337 48.336 27.5379C48.2335 27.5379 48.1466 27.54 48.0628 27.54C47.9466 27.54 47.8357 27.5369 47.6975 27.5212V24.027C47.8755 24.0092 48.0094 24.0092 48.2052 24.0092C49.8633 24.0144 50.2894 24.766 50.2957 25.7626ZM51.8428 29.6724C51.8428 29.6734 50.46 27.9127 50.2391 27.6321C50.169 27.5494 50.1208 27.494 50.08 27.4594C50.884 27.1579 51.3833 26.5424 51.3833 25.6977C51.3801 24.5692 50.4558 23.7359 48.4439 23.7339C47.7394 23.7339 47.5206 23.7454 47.0767 23.7663C46.6319 23.7883 45.9703 23.8312 45.7128 23.8312H45.6782V24.1055H45.9514C46.5722 24.1149 46.7208 24.2719 46.7303 24.9387L46.7292 29.5017C46.7208 30.2209 46.5303 30.358 45.897 30.3674H45.6782V30.6406H48.8144V30.3674H48.5297C47.9278 30.358 47.7048 30.2272 47.6975 29.5897L47.7027 27.7923C47.8608 27.8028 48.0053 27.8132 48.2282 27.8122C48.5224 27.8122 48.8113 27.7881 49.0426 27.7473L49.0468 27.7305V27.7462C49.1473 27.7284 49.5388 28.2906 49.945 28.8035L50.5825 29.5897C51.445 30.5705 51.7057 30.76 53.1785 30.7558C53.1922 30.7558 53.2058 30.7568 53.2204 30.7568H53.2539V30.4983L53.2256 30.493C52.562 30.38 52.3254 30.2481 51.8428 29.6724Z" fill="#182849"></path></svg> 