<?xml version="1.0" encoding="UTF-8"?> <svg xmlns="http://www.w3.org/2000/svg" width="290" height="70" viewBox="0 0 290 70" fill="none"><rect x="0.423828" width="289" height="70" rx="20" fill="white"></rect><path d="M26.6718 41V29.72H36.5438V41H34.4958V31.4H28.7038V41H26.6718ZM38.9832 44.456V34.936C38.9832 34.6053 38.9725 34.2693 38.9512 33.928C38.9299 33.5867 38.8979 33.2507 38.8552 32.92H40.7912L40.9672 34.616H40.7912C40.9512 34.0507 41.2872 33.6027 41.7992 33.272C42.3219 32.9307 42.9245 32.76 43.6072 32.76C44.3219 32.76 44.9459 32.9307 45.4792 33.272C46.0125 33.6027 46.4285 34.0827 46.7272 34.712C47.0259 35.3307 47.1752 36.0773 47.1752 36.952C47.1752 37.8267 47.0259 38.5787 46.7272 39.208C46.4285 39.8373 46.0125 40.3227 45.4792 40.664C44.9459 40.9947 44.3219 41.16 43.6072 41.16C42.9352 41.16 42.3432 40.9947 41.8312 40.664C41.3192 40.3333 40.9779 39.8907 40.8072 39.336H40.9832V44.456H38.9832ZM43.0472 39.624C43.6872 39.624 44.1992 39.4053 44.5832 38.968C44.9672 38.52 45.1592 37.848 45.1592 36.952C45.1592 36.056 44.9672 35.3893 44.5832 34.952C44.1992 34.5147 43.6872 34.296 43.0472 34.296C42.4179 34.296 41.9112 34.5147 41.5272 34.952C41.1432 35.3893 40.9512 36.056 40.9512 36.952C40.9512 37.848 41.1432 38.52 41.5272 38.968C41.9112 39.4053 42.4179 39.624 43.0472 39.624ZM49.0598 41V32.92H50.8678V39.032H50.3878L54.9798 32.92H56.6278V41H54.8198V34.872H55.3158L50.7078 41H49.0598ZM58.9036 41V32.92H63.2076C64.2209 32.92 64.9622 33.1067 65.4316 33.48C65.9009 33.8427 66.1356 34.36 66.1356 35.032C66.1356 35.544 65.9649 35.9707 65.6236 36.312C65.2822 36.6533 64.8289 36.8667 64.2636 36.952V36.728C64.9569 36.7707 65.4902 36.9733 65.8636 37.336C66.2369 37.6987 66.4236 38.168 66.4236 38.744C66.4236 39.4373 66.1569 39.9867 65.6236 40.392C65.0902 40.7973 64.3329 41 63.3516 41H58.9036ZM60.7596 39.768H63.1436C63.6129 39.768 63.9702 39.672 64.2156 39.48C64.4716 39.288 64.5996 39.0053 64.5996 38.632C64.5996 38.2587 64.4716 37.976 64.2156 37.784C63.9702 37.592 63.6129 37.496 63.1436 37.496H60.7596V39.768ZM60.7596 36.264H62.9676C63.3942 36.264 63.7249 36.1733 63.9596 35.992C64.1942 35.8 64.3116 35.5333 64.3116 35.192C64.3116 34.8507 64.1942 34.5893 63.9596 34.408C63.7249 34.2267 63.3942 34.136 62.9676 34.136H60.7596V36.264ZM72.1372 41.16C70.7825 41.16 69.7212 40.7867 68.9532 40.04C68.1852 39.2933 67.8012 38.2693 67.8012 36.968C67.8012 36.1253 67.9665 35.3893 68.2972 34.76C68.6279 34.1307 69.0865 33.64 69.6732 33.288C70.2705 32.936 70.9639 32.76 71.7532 32.76C72.5319 32.76 73.1825 32.9253 73.7052 33.256C74.2279 33.5867 74.6225 34.0507 74.8892 34.648C75.1665 35.2453 75.3052 35.944 75.3052 36.744V37.272H69.4172V36.216H73.8812L73.6092 36.44C73.6092 35.6933 73.4492 35.1227 73.1292 34.728C72.8199 34.3333 72.3665 34.136 71.7692 34.136C71.1079 34.136 70.5959 34.3707 70.2332 34.84C69.8812 35.3093 69.7052 35.9653 69.7052 36.808V37.016C69.7052 37.8907 69.9185 38.5467 70.3452 38.984C70.7825 39.4107 71.3959 39.624 72.1852 39.624C72.6439 39.624 73.0705 39.5653 73.4652 39.448C73.8705 39.32 74.2545 39.1173 74.6172 38.84L75.2092 40.184C74.8252 40.4933 74.3665 40.7333 73.8332 40.904C73.2999 41.0747 72.7345 41.16 72.1372 41.16ZM78.8976 41V34.488H76.1296V32.92H83.6656V34.488H80.8816V41H78.8976ZM85.1436 37.656L84.5196 29.72H86.9836L86.3596 37.656H85.1436ZM84.6316 41V38.776H86.8716V41H84.6316ZM93.375 41V29.72H95.407V34.52H97.327L96.911 34.792L100.239 29.72H102.511L98.799 35.176L98.015 34.6C98.7403 34.7067 99.343 34.9573 99.823 35.352C100.314 35.736 100.74 36.28 101.103 36.984L103.103 41H100.879L99.327 37.752C99.0603 37.1867 98.7403 36.7867 98.367 36.552C98.0043 36.3173 97.5403 36.2 96.975 36.2H95.407V41H93.375ZM107.494 41.16C106.79 41.16 106.171 40.9947 105.638 40.664C105.104 40.3227 104.688 39.8373 104.39 39.208C104.091 38.5787 103.942 37.8267 103.942 36.952C103.942 36.0773 104.091 35.3307 104.39 34.712C104.688 34.0827 105.104 33.6027 105.638 33.272C106.171 32.9307 106.79 32.76 107.494 32.76C108.176 32.76 108.774 32.9307 109.286 33.272C109.808 33.6027 110.155 34.0507 110.326 34.616H110.15L110.326 32.92H112.246C112.214 33.2507 112.182 33.5867 112.15 33.928C112.128 34.2693 112.118 34.6053 112.118 34.936V41H110.134L110.118 39.336H110.31C110.139 39.8907 109.792 40.3333 109.27 40.664C108.747 40.9947 108.155 41.16 107.494 41.16ZM108.054 39.624C108.683 39.624 109.19 39.4053 109.574 38.968C109.958 38.52 110.15 37.848 110.15 36.952C110.15 36.056 109.958 35.3893 109.574 34.952C109.19 34.5147 108.683 34.296 108.054 34.296C107.424 34.296 106.918 34.5147 106.534 34.952C106.15 35.3893 105.958 36.056 105.958 36.952C105.958 37.848 106.144 38.52 106.518 38.968C106.902 39.4053 107.414 39.624 108.054 39.624ZM114.45 41V32.92H116.434V36.088H117.65L120.018 32.92H122.162L119.186 36.952L118.754 36.328C119.053 36.36 119.314 36.44 119.538 36.568C119.773 36.696 119.992 36.8773 120.194 37.112C120.408 37.336 120.616 37.624 120.818 37.976L122.514 41H120.386L119.01 38.568C118.872 38.3227 118.733 38.1307 118.594 37.992C118.456 37.8533 118.301 37.7573 118.13 37.704C117.96 37.6507 117.752 37.624 117.506 37.624H116.434V41H114.45ZM123.575 41V32.92H125.383V39.032H124.903L129.495 32.92H131.143V41H129.335V34.872H129.831L125.223 41H123.575ZM137.387 41.16C136.033 41.16 134.971 40.7867 134.203 40.04C133.435 39.2933 133.051 38.2693 133.051 36.968C133.051 36.1253 133.217 35.3893 133.547 34.76C133.878 34.1307 134.337 33.64 134.923 33.288C135.521 32.936 136.214 32.76 137.003 32.76C137.782 32.76 138.433 32.9253 138.955 33.256C139.478 33.5867 139.873 34.0507 140.139 34.648C140.417 35.2453 140.555 35.944 140.555 36.744V37.272H134.667V36.216H139.131L138.859 36.44C138.859 35.6933 138.699 35.1227 138.379 34.728C138.07 34.3333 137.617 34.136 137.019 34.136C136.358 34.136 135.846 34.3707 135.483 34.84C135.131 35.3093 134.955 35.9653 134.955 36.808V37.016C134.955 37.8907 135.169 38.5467 135.595 38.984C136.033 39.4107 136.646 39.624 137.435 39.624C137.894 39.624 138.321 39.5653 138.715 39.448C139.121 39.32 139.505 39.1173 139.867 38.84L140.459 40.184C140.075 40.4933 139.617 40.7333 139.083 40.904C138.55 41.0747 137.985 41.16 137.387 41.16ZM146.698 44.632L146.234 43.048C146.736 42.9413 147.157 42.8187 147.498 42.68C147.84 42.5413 148.122 42.36 148.346 42.136C148.57 41.912 148.757 41.624 148.906 41.272L149.306 40.328L149.258 41.112L145.738 32.92H147.866L150.394 39.224H149.93L152.474 32.92H154.49L150.81 41.448C150.565 42.024 150.298 42.4987 150.01 42.872C149.722 43.256 149.413 43.56 149.082 43.784C148.752 44.0187 148.389 44.2 147.994 44.328C147.6 44.456 147.168 44.5573 146.698 44.632ZM160.091 41V32.92H161.755L164.539 37.752L167.323 32.92H168.987V41H167.227V35.16H167.595L165.003 39.688H164.075L161.483 35.16H161.851V41H160.091ZM175.231 41.16C173.876 41.16 172.815 40.7867 172.047 40.04C171.279 39.2933 170.895 38.2693 170.895 36.968C170.895 36.1253 171.06 35.3893 171.391 34.76C171.722 34.1307 172.18 33.64 172.767 33.288C173.364 32.936 174.058 32.76 174.847 32.76C175.626 32.76 176.276 32.9253 176.799 33.256C177.322 33.5867 177.716 34.0507 177.983 34.648C178.26 35.2453 178.399 35.944 178.399 36.744V37.272H172.511V36.216H176.975L176.703 36.44C176.703 35.6933 176.543 35.1227 176.223 34.728C175.914 34.3333 175.46 34.136 174.863 34.136C174.202 34.136 173.69 34.3707 173.327 34.84C172.975 35.3093 172.799 35.9653 172.799 36.808V37.016C172.799 37.8907 173.012 38.5467 173.439 38.984C173.876 39.4107 174.49 39.624 175.279 39.624C175.738 39.624 176.164 39.5653 176.559 39.448C176.964 39.32 177.348 39.1173 177.711 38.84L178.303 40.184C177.919 40.4933 177.46 40.7333 176.927 40.904C176.394 41.0747 175.828 41.16 175.231 41.16ZM180.247 41V32.92H182.231V36.088H185.879V32.92H187.863V41H185.879V37.624H182.231V41H180.247ZM189.466 41L190.698 38.872C190.911 38.5093 191.173 38.2213 191.482 38.008C191.802 37.784 192.133 37.672 192.474 37.672H192.826L192.81 37.848C191.861 37.848 191.13 37.64 190.618 37.224C190.106 36.808 189.85 36.2 189.85 35.4C189.85 34.6107 190.111 34.0027 190.634 33.576C191.167 33.1387 191.946 32.92 192.97 32.92H196.986V41H195.162V38.152H194.25C193.919 38.152 193.626 38.2427 193.37 38.424C193.125 38.6053 192.917 38.84 192.746 39.128L191.69 41H189.466ZM193.354 36.856H195.162V34.216H193.354C192.81 34.216 192.399 34.3333 192.122 34.568C191.855 34.8027 191.722 35.1227 191.722 35.528C191.722 35.9547 191.855 36.2853 192.122 36.52C192.399 36.744 192.81 36.856 193.354 36.856ZM203.654 41V32.92H205.526V39.464H208.374V32.92H210.23V39.464H213.078V32.92H214.95V41H203.654ZM220.4 41.16C219.696 41.16 219.077 40.9947 218.544 40.664C218.011 40.3227 217.595 39.8373 217.296 39.208C216.997 38.5787 216.848 37.8267 216.848 36.952C216.848 36.0773 216.997 35.3307 217.296 34.712C217.595 34.0827 218.011 33.6027 218.544 33.272C219.077 32.9307 219.696 32.76 220.4 32.76C221.083 32.76 221.68 32.9307 222.192 33.272C222.715 33.6027 223.061 34.0507 223.232 34.616H223.056L223.232 32.92H225.152C225.12 33.2507 225.088 33.5867 225.056 33.928C225.035 34.2693 225.024 34.6053 225.024 34.936V41H223.04L223.024 39.336H223.216C223.045 39.8907 222.699 40.3333 222.176 40.664C221.653 40.9947 221.061 41.16 220.4 41.16ZM220.96 39.624C221.589 39.624 222.096 39.4053 222.48 38.968C222.864 38.52 223.056 37.848 223.056 36.952C223.056 36.056 222.864 35.3893 222.48 34.952C222.096 34.5147 221.589 34.296 220.96 34.296C220.331 34.296 219.824 34.5147 219.44 34.952C219.056 35.3893 218.864 36.056 218.864 36.952C218.864 37.848 219.051 38.52 219.424 38.968C219.808 39.4053 220.32 39.624 220.96 39.624ZM227.357 41V32.92H229.341V36.088H232.989V32.92H234.973V41H232.989V37.624H229.341V41H227.357ZM241.023 41.16C240.191 41.16 239.461 40.9893 238.831 40.648C238.213 40.3067 237.733 39.8213 237.391 39.192C237.05 38.552 236.879 37.7947 236.879 36.92C236.879 36.0453 237.05 35.2987 237.391 34.68C237.743 34.0613 238.229 33.5867 238.847 33.256C239.466 32.9253 240.191 32.76 241.023 32.76C241.557 32.76 242.074 32.8453 242.575 33.016C243.087 33.176 243.503 33.4107 243.823 33.72L243.215 35.112C242.927 34.8453 242.602 34.648 242.239 34.52C241.887 34.3813 241.541 34.312 241.199 34.312C240.485 34.312 239.925 34.536 239.519 34.984C239.125 35.432 238.927 36.0827 238.927 36.936C238.927 37.7893 239.125 38.4453 239.519 38.904C239.925 39.3627 240.485 39.592 241.199 39.592C241.53 39.592 241.871 39.528 242.223 39.4C242.586 39.272 242.917 39.0747 243.215 38.808L243.823 40.184C243.493 40.4933 243.071 40.7333 242.559 40.904C242.058 41.0747 241.546 41.16 241.023 41.16ZM245.529 41V32.92H247.513V35.624H249.641C250.718 35.624 251.529 35.8533 252.073 36.312C252.617 36.76 252.889 37.4107 252.889 38.264C252.889 38.8187 252.761 39.304 252.505 39.72C252.249 40.1253 251.875 40.44 251.385 40.664C250.905 40.888 250.323 41 249.641 41H245.529ZM247.513 39.688H249.369C249.913 39.688 250.329 39.576 250.617 39.352C250.905 39.1173 251.049 38.7653 251.049 38.296C251.049 37.8267 250.905 37.4853 250.617 37.272C250.339 37.048 249.923 36.936 249.369 36.936H247.513V39.688ZM253.897 41V32.92H255.881V41H253.897ZM259.597 37.656V37.016C259.597 36.5147 259.693 36.0507 259.885 35.624C260.077 35.1973 260.408 34.7333 260.877 34.232C261.229 33.8587 261.475 33.5333 261.613 33.256C261.763 32.968 261.837 32.68 261.837 32.392C261.837 32.0293 261.699 31.7467 261.421 31.544C261.155 31.3413 260.781 31.24 260.301 31.24C259.885 31.24 259.475 31.304 259.069 31.432C258.664 31.56 258.28 31.7307 257.917 31.944V30.216C258.291 30.0027 258.712 29.8427 259.181 29.736C259.661 29.6187 260.131 29.56 260.589 29.56C261.219 29.56 261.779 29.656 262.269 29.848C262.771 30.0293 263.16 30.312 263.437 30.696C263.725 31.0693 263.869 31.5493 263.869 32.136C263.869 32.488 263.805 32.8293 263.677 33.16C263.56 33.48 263.389 33.7893 263.165 34.088C262.941 34.3867 262.664 34.6853 262.333 34.984C261.811 35.4427 261.448 35.8427 261.245 36.184C261.043 36.5253 260.92 36.8667 260.877 37.208L260.813 37.656H259.597ZM259.085 41V38.776H261.325V41H259.085Z" fill="#12284C"></path></svg> 