<?xml version="1.0" encoding="UTF-8"?> <svg xmlns="http://www.w3.org/2000/svg" width="500" height="500" viewBox="0 0 500 500" fill="none"> <path d="M444.929 192.494C414.546 239.745 359.244 291.582 292.983 334.889C287.918 338.204 282.645 341.551 277.258 344.872C336.033 342.271 390.281 331.42 430.479 314.177C471.703 296.496 494.407 273.68 494.407 249.932C494.407 229.051 477.303 209.204 444.929 192.494ZM267.397 347.844L271.655 345.259C278.495 341.105 285.194 336.886 291.564 332.719C357.991 289.303 413.325 237.322 443.377 190.106L444.01 189.112L445.059 189.645C479.039 206.939 497 227.786 497 249.932C497 274.783 473.739 298.446 431.501 316.562C389.884 334.413 333.371 345.458 272.375 347.664L267.397 347.844Z" fill="#52BEDA"></path> <path d="M249.506 154.395C241.843 154.395 234.176 154.532 226.72 154.803C166.032 156.997 109.848 167.969 68.5179 185.694C27.2963 203.374 4.59445 226.187 4.59445 249.931C4.59445 271.043 22.0647 291.095 55.1174 307.917C101.975 331.787 172.826 345.479 249.506 345.479C257.041 345.479 264.588 345.346 271.944 345.083C278.684 340.987 285.283 336.827 291.564 332.719C357.428 289.67 412.383 238.207 442.604 191.311C395.744 167.838 325.487 154.395 249.506 154.395ZM249.506 348.073C172.43 348.073 101.149 334.278 53.941 310.228C19.9601 292.934 2 272.083 2 249.931C2 225.084 25.2603 201.425 67.4954 183.311C109.114 165.462 165.627 154.416 226.626 152.211C234.114 151.939 241.811 151.801 249.506 151.801C326.576 151.801 397.852 165.594 445.06 189.646L446.331 190.294L445.565 191.497C415.322 239.015 359.709 291.279 292.984 334.889C286.59 339.073 279.867 343.307 273.001 347.475L272.712 347.652L272.375 347.663C264.881 347.936 257.187 348.073 249.506 348.073Z" fill="#52BEDA"></path> <path d="M54.9944 310.762C34.2735 343.652 28.2025 370.584 37.4444 388.692C42.2311 398.075 51.01 404.638 63.5363 408.2C105.93 420.248 185.578 396.59 267.388 347.824C261.486 347.99 255.492 348.073 249.505 348.073C173.004 348.073 102.207 334.482 54.9944 310.762ZM88.582 413.87C78.9828 413.87 70.3365 412.83 62.8261 410.695C49.5785 406.928 40.2614 399.922 35.1331 389.871C25.3586 370.717 31.6869 342.536 53.4348 308.376L54.0674 307.382L55.118 307.918C101.975 331.788 172.826 345.479 249.505 345.479C257.156 345.479 264.819 345.342 272.28 345.072L277.266 344.891L273 347.478C203.503 389.609 134.953 413.867 88.582 413.87Z" fill="#52BEDA"></path> <path d="M249.506 151.801C326.001 151.801 396.795 165.393 444.006 189.113C464.726 156.225 470.799 129.293 461.568 111.182C456.781 101.797 448.003 95.2331 435.478 91.6712C393.094 79.6135 313.437 103.281 231.613 152.051C237.512 151.884 243.51 151.801 249.506 151.801ZM444.932 192.492L443.883 191.958C397.027 168.086 326.179 154.396 249.506 154.396C241.843 154.396 234.176 154.533 226.72 154.804L221.734 154.984L226 152.398C309.901 101.539 392.404 76.7213 436.187 89.1756C449.435 92.9431 458.751 99.9501 463.878 110.003C473.644 129.161 467.312 157.341 445.565 191.498L444.932 192.492Z" fill="#52BEDA"></path> <path d="M144.759 312.129V143.978C122.901 165.735 111.95 193.682 111.95 227.852C111.95 262.022 122.893 290.109 144.759 312.129Z" fill="white"></path> <path d="M343.998 197.03H384.412C381.433 183.356 375.578 171.882 366.845 162.606C358.113 153.334 348.194 146.734 337.093 142.805C333.214 141.433 329.21 140.316 325.1 139.423V177.357C325.963 177.797 326.816 178.256 327.65 178.751C335.164 183.219 340.613 189.312 343.998 197.03Z" fill="white"></path> <path d="M239.192 223.024V250.441H285.498C283.057 261.101 277.871 269.209 269.943 274.744C269.521 275.045 269.089 275.333 268.644 275.622C259.982 281.181 250.164 283.947 239.192 283.947C233.249 283.947 227.678 283.19 222.506 281.674C214.024 279.183 206.589 274.671 200.201 268.115C189.914 257.552 184.765 244.149 184.765 227.896C184.765 211.522 189.878 198.12 200.104 187.689C206.433 181.217 213.904 176.765 222.518 174.311C227.787 172.795 233.477 172.049 239.601 172.049C249.479 172.049 258.188 174.287 265.696 178.75C267.055 179.556 268.343 180.411 269.57 181.325C275.116 185.464 279.279 190.709 282.045 197.025H322.457C320.52 188.135 317.368 180.182 312.989 173.156C310.655 169.367 307.948 165.841 304.892 162.605C296.158 153.329 286.244 146.737 275.141 142.802C273.336 142.165 271.494 141.575 269.643 141.046C260.089 138.291 249.876 136.92 238.988 136.92C210.968 136.92 188.253 145.377 170.857 162.305C153.461 179.231 144.763 201.092 144.763 227.896C144.763 254.436 153.293 276.236 170.352 293.296C187.412 310.355 208.802 318.885 234.525 318.885C245.845 318.885 255.951 317.212 264.842 313.856C267.957 312.69 270.917 311.318 273.72 309.741C284.548 303.654 293.078 295.593 299.31 285.572L299.719 318.837C309.043 318.559 317.513 317.104 325.104 314.482V223.024H239.192Z" fill="white"></path> <path d="M387.05 223.024V318.885H361.665L361.256 285.572C355.037 295.593 346.506 303.654 335.667 309.741C332.371 311.606 328.821 313.146 325.104 314.433V278.666C326.981 277.751 328.821 276.765 330.59 275.622C339.252 270.076 344.883 261.679 347.446 250.441H325.104V223.024H387.05Z" fill="white"></path> </svg> 