<?xml version="1.0" encoding="UTF-8"?> <svg xmlns="http://www.w3.org/2000/svg" width="300" height="100" viewBox="0 0 300 100" fill="none"><path fill-rule="evenodd" clip-rule="evenodd" d="M6.51874 10.3575C6.49047 6.87275 6.462 3.36195 6.59927 0.000178601L50.0396 0V16.4115C50.0396 17.2041 50.0513 18.0133 50.063 18.8269C50.0917 20.8074 50.1207 22.8145 49.9822 24.675L49.95 25.1051C49.6943 28.5259 49.4925 31.2252 48.4337 33.7422C45.8529 39.8622 38.5609 43.9515 32.0215 46.1952C31.8787 46.2438 31.6472 46.3302 31.3658 46.4351C30.3415 46.8172 28.6554 47.4462 28.1757 47.4011C28.0436 47.3877 27.8672 47.3014 27.6938 47.2165C27.5585 47.1503 27.4251 47.085 27.316 47.056C26.1591 46.7458 25.1312 46.4425 24.1018 46.0805C17.6517 43.8047 10.9422 40.062 8.26243 34.0868C7.13357 31.5664 6.93718 28.7455 6.7019 25.366L6.70179 25.3644C6.66922 24.8967 6.6359 24.4181 6.59927 23.9283C6.44295 21.8447 6.47802 19.6132 6.51269 17.407C6.52736 16.4736 6.54196 15.5445 6.54196 14.6334C6.54196 13.2206 6.53037 11.7912 6.51874 10.3575ZM36.0958 9.75609C37.5629 9.83104 38.7792 9.46079 39.6539 8.9513C39.6551 8.95809 39.747 8.95413 39.7967 8.95199L39.8126 8.95132L39.8261 8.9509V23.7576C39.8261 23.9293 39.8358 24.1929 39.8473 24.5023C39.886 25.546 39.9439 27.1111 39.7115 27.429C39.4968 27.7183 38.9482 27.8882 38.5268 28.0187C38.4801 28.0331 38.435 28.0471 38.3921 28.0607C37.0688 28.4746 35.5939 28.4619 34.1783 28.4497C31.7794 28.4291 29.5512 28.4099 28.5212 30.4713C28.5212 28.6852 28.4856 26.8718 28.4499 25.0518C28.3723 21.0994 28.2941 17.1158 28.5785 13.3129C28.5902 13.1476 28.589 12.9936 28.5878 12.8461C28.586 12.6096 28.5843 12.3894 28.6358 12.1655C28.8264 11.3275 29.3193 10.4974 29.9564 10.0987C31.0962 9.38342 33.1855 9.54275 34.9714 9.67896C35.3655 9.70901 35.7447 9.73793 36.0958 9.75609ZM16.7572 23.7577V9.06716C16.8782 9.11636 16.9992 9.16817 17.1213 9.22047C17.6542 9.4487 18.2086 9.68616 18.88 9.75622C19.8727 9.85789 20.9584 9.77261 22.0224 9.68905C23.9205 9.53997 25.7494 9.39633 26.8571 10.3293C27.3275 10.724 27.7336 11.4163 27.8899 12.1084C28.1412 13.2266 28.0907 14.6456 28.0422 16.0064C28.0232 16.5404 28.0045 17.0657 28.0045 17.5601V30.3569C27.1561 28.6601 25.2948 28.2567 22.5528 28.4632C20.8672 28.5884 17.3758 28.4425 16.8145 27.4865C16.6086 27.136 16.6781 25.642 16.7267 24.6003C16.7431 24.2464 16.7572 23.9447 16.7572 23.7577ZM45.1632 14.6908C45.2995 13.4606 45.2723 11.9679 45.2205 10.673C45.6897 11.2486 45.6963 11.2437 46.1112 10.9346C46.1692 10.8913 46.2354 10.8421 46.3118 10.7876C46.2782 11.2111 46.267 11.6752 46.2557 12.1476C46.2337 13.0617 46.211 14.0069 46.0228 14.7481C45.6586 14.8016 45.4332 14.7512 45.1737 14.6932L45.1632 14.6908ZM10.7969 11.4049C10.866 11.397 10.9286 11.3328 11.0418 11.2169C11.1083 11.1487 11.1923 11.0626 11.3054 10.9596C11.3207 11.3385 11.3083 11.7847 11.2954 12.2543C11.2779 12.8874 11.2592 13.5631 11.3054 14.1738C11.3087 14.2223 11.3156 14.2899 11.3235 14.3675C11.3407 14.5357 11.3627 14.7508 11.3627 14.92C11.311 14.924 11.2499 14.9295 11.1829 14.9356C10.9803 14.954 10.7229 14.9773 10.5019 14.9773C10.4168 14.3477 10.3872 13.6706 10.3575 12.9938C10.328 12.319 10.2985 11.6447 10.2141 11.0181C10.2858 11.0742 10.348 11.124 10.4025 11.1676C10.616 11.3384 10.7114 11.4147 10.7969 11.4049ZM43.7164 16.0014V15.0259C44.3327 15.1822 45.088 15.2552 45.9539 15.2552C45.9427 15.3232 45.9399 15.3801 45.9374 15.4318C45.9334 15.5122 45.9301 15.5799 45.8966 15.6576C45.6386 16.2366 44.6957 16.1208 43.9569 16.0301C43.8738 16.0199 43.7931 16.01 43.7164 16.0014ZM10.7855 15.4287C11.532 15.3695 12.2547 15.3121 12.8573 15.1555V16.131L12.7331 16.1448C11.7113 16.2584 11.2136 16.3137 10.6185 15.7286C10.6341 15.7186 10.6254 15.5675 10.6208 15.4877C10.6195 15.4652 10.6185 15.4484 10.6185 15.442L10.7855 15.4287ZM10.819 23.7142C10.9069 23.7049 10.985 23.6022 11.1446 23.3922C11.1906 23.3317 11.2433 23.2623 11.305 23.1836C11.3259 23.7055 11.3426 24.2779 11.3596 24.8586C11.3776 25.4748 11.3958 26.1002 11.4196 26.6844C11.19 26.7027 10.794 26.7099 10.5588 26.6844C10.4704 26.0359 10.4082 25.3469 10.3464 24.6642C10.3046 24.2012 10.263 23.741 10.2137 23.2982C10.3107 23.374 10.3911 23.4402 10.4592 23.4962C10.6416 23.6464 10.7348 23.7231 10.819 23.7142ZM45.0871 25.2991C45.1038 24.7298 45.1202 24.1692 45.1404 23.657C45.2033 23.7372 45.2569 23.8077 45.3036 23.8691C45.4616 24.0771 45.5391 24.179 45.6264 24.1883C45.7101 24.1972 45.8029 24.1208 45.9847 23.9711C46.0527 23.9151 46.1333 23.8488 46.2304 23.7729C46.181 24.2174 46.1395 24.6791 46.0977 25.1435C46.0365 25.8245 45.9748 26.5115 45.8866 27.159C45.6514 27.1837 45.2554 27.1766 45.0257 27.159C45.05 26.5642 45.0687 25.926 45.0871 25.2991ZM10.68 27.2151C11.4853 27.2151 12.2443 27.1955 12.8614 27.0432L12.7393 28.1657C12.5934 28.1162 12.3474 28.0966 12.0006 28.1333C11.1737 28.217 10.8467 28.0592 10.6227 27.387L10.68 27.2151ZM43.6269 28.664L43.5808 27.5079C44.1979 27.6602 44.9557 27.6798 45.761 27.6798L45.8195 27.8517C45.5955 28.5247 45.2684 28.6817 44.4416 28.598C44.0239 28.5541 43.7545 28.5922 43.6269 28.664ZM26.3089 32.8483C26.2855 32.6979 26.2625 32.5504 26.2252 32.4227C27.2458 33.0876 29.0815 33.2996 30.1284 32.48C30.0351 32.4441 30.3465 32.4227 30.3576 32.4227C30.3208 32.5354 30.2891 32.6665 30.2561 32.8027C30.1604 33.1974 30.0542 33.6357 29.7833 33.7993C29.1024 34.2083 26.8933 34.1773 26.513 33.5713C26.392 33.3809 26.3498 33.1102 26.3089 32.8483ZM40.4709 13.3314C40.4919 11.9729 40.5136 10.5667 40.3428 9.4112C40.7845 10.1217 41.3309 10.937 42.1218 11.3046V24.0446C42.1218 24.6411 42.1102 25.2567 42.0984 25.8777C42.0662 27.5772 42.0332 29.3171 42.2364 30.8155C42.1721 30.7363 42.1084 30.6597 42.0455 30.584C41.8332 30.3285 41.629 30.0828 41.4329 29.7827C41.3525 29.6607 41.2515 29.5282 41.1449 29.3884C40.8615 29.0166 40.5385 28.5928 40.4574 28.1756C40.3 27.369 40.3546 26.4329 40.4071 25.5344C40.4325 25.0991 40.4574 24.6724 40.4574 24.2737V14.6324C40.4574 14.2107 40.4641 13.7736 40.4709 13.3314ZM16.1828 9.46851C16.2259 9.4434 16.2566 9.44486 16.2763 9.45979C16.3351 9.50456 16.2993 9.67398 16.2401 9.6405C16.0976 10.5959 16.1284 11.7183 16.1584 12.808C16.1707 13.2542 16.1828 13.6952 16.1828 14.1167V24.1018C16.1828 24.5197 16.2087 24.9656 16.2351 25.4203C16.2894 26.3573 16.346 27.3318 16.1828 28.1757C16.1095 28.5488 14.6923 30.8309 14.4611 30.9314C14.3059 30.9969 14.3676 30.5949 14.3956 30.4122C14.3989 30.3903 14.4018 30.3715 14.4038 30.3571C14.57 29.042 14.5311 27.5508 14.4932 26.0945C14.4771 25.4759 14.4611 24.8635 14.4611 24.2737V11.3622C15.0671 11.0807 15.5598 10.6359 15.8963 10.1001C15.933 10.0412 15.9622 9.94594 15.9928 9.8464C16.0412 9.68873 16.0929 9.52032 16.1828 9.46851ZM39.6299 28.2452L39.6539 28.2333C40.056 28.9841 40.5277 29.6832 40.9964 30.3778C41.2618 30.7712 41.5263 31.1631 41.7765 31.5622C40.7914 31.2714 39.0466 31.4058 37.9095 31.4934L37.76 31.5049C36.935 31.5665 36.0761 31.5505 35.2297 31.5348C34.4015 31.5194 33.585 31.5042 32.824 31.5622C32.4257 31.5918 31.9958 31.5241 31.5916 31.4604C31.1682 31.3937 30.773 31.3315 30.4719 31.3902C30.3619 31.4108 30.2351 31.5376 30.1164 31.6563C30.0374 31.7353 29.962 31.8108 29.8976 31.8487C29.5361 32.0566 29.1382 32.1552 28.6973 32.2645C28.6392 32.2788 28.5805 32.2934 28.521 32.3084C28.5823 31.252 29.0207 30.2553 29.783 29.7258C30.8291 28.9975 32.5482 29.0573 34.3158 29.1188C35.2726 29.1521 36.2436 29.1859 37.1299 29.0954C38.1314 28.9905 38.9087 28.6039 39.6299 28.2452ZM15.3762 30.8216C15.9045 30.0544 16.4286 29.2934 16.814 28.3479C16.9602 28.4067 17.1058 28.4684 17.2525 28.5305C17.8719 28.7927 18.5092 29.0625 19.2822 29.1528C20.1712 29.2544 21.1802 29.2072 22.1814 29.1603C23.8418 29.0826 25.4804 29.0059 26.513 29.6112C27.4523 30.1614 27.9309 31.0622 28.0043 32.3084C27.4987 32.1952 26.9698 32.0354 26.5703 31.7914C26.5225 31.7621 26.4469 31.6827 26.3663 31.598C26.2495 31.4753 26.1222 31.3414 26.0533 31.3329C26.0126 31.3269 25.8814 31.3887 25.7517 31.4498C25.64 31.5024 25.5295 31.5544 25.479 31.5622C23.8713 31.7789 22.0237 31.704 20.2439 31.6317C19.3789 31.5966 18.5298 31.5622 17.7322 31.5622C17.5942 31.5622 17.4555 31.5613 17.3168 31.5605C16.3246 31.5545 15.3375 31.5486 14.6911 31.8487C14.9127 31.4945 15.1449 31.1574 15.3762 30.8216Z" fill="#12284C"></path><path d="M53.121 41.7254C53.7447 41.2653 54.4586 40.7388 54.8037 40.6862C54.884 40.6733 54.872 40.7689 54.8636 40.8365L54.861 40.858C54.8244 41.1368 54.7167 41.4616 54.6067 41.793C54.5321 42.018 54.4564 42.2463 54.4013 42.4651C54.3884 42.5149 54.3694 42.5872 54.3456 42.6773C54.1381 43.465 53.572 45.6132 53.655 45.9659C53.7499 46.3709 56.1222 48.8074 56.5815 49.1216C56.191 49.2527 55.5822 49.5873 54.9347 49.9431C53.9444 50.4873 52.8637 51.0812 52.3357 51.0726C52.0615 51.0678 52.0002 50.7589 51.9906 50.5555C51.9844 50.4454 52.0111 50.3267 52.0306 50.2401L52.0379 50.2075C52.0424 50.1869 52.046 50.1689 52.048 50.1544C52.5622 49.9882 53.0133 49.7785 53.4618 49.5699C54.0097 49.3151 54.5538 49.062 55.2049 48.8924C54.8046 48.6078 52.8342 46.5787 52.7369 46.1952C52.6348 45.7965 53.3926 42.9617 53.5417 42.5798C52.7365 42.9972 51.9528 43.4314 51.1679 43.8663C49.6288 44.719 48.0852 45.5743 46.367 46.3098C46.3112 46.3335 46.2602 46.3556 46.2135 46.3759C45.9668 46.4828 45.8417 46.5371 45.7802 46.496C45.7169 46.4538 45.7209 46.3108 45.729 46.0209C45.7324 45.8966 45.7366 45.7454 45.7366 45.5636C47.8524 44.7775 49.7565 43.7196 51.6459 42.6698L51.6496 42.6677C51.8402 42.5618 52.0307 42.456 52.2211 42.3506C52.4329 42.2329 52.762 41.9902 53.121 41.7254Z" fill="#12284C"></path><path d="M2.11408 42.0935C1.93695 41.5153 1.74664 40.8941 1.83636 40.9158C1.94103 40.9393 2.05142 41.0471 2.15594 41.1492C2.22499 41.2166 2.29148 41.2816 2.35206 41.3181C2.67126 41.5108 2.98725 41.7089 3.30244 41.9065C3.86358 42.2582 4.42221 42.6084 4.99198 42.9239C6.53611 43.7794 8.11204 44.5046 9.73875 45.2531C10.0859 45.4128 10.4356 45.5737 10.7875 45.737C10.7875 45.9679 10.764 46.2466 10.7456 46.4647C10.7396 46.5359 10.7341 46.6007 10.7302 46.6552C10.2677 46.4402 9.80108 46.2414 9.34051 46.0452C9.05506 45.9236 8.77117 45.8027 8.49273 45.6797C6.76731 44.9191 5.17598 44.0747 3.67139 43.0972C3.20017 42.7902 3.09831 42.8667 3.09831 42.8667C3.11975 42.8667 3.23512 43.1753 3.26397 43.2524L3.27023 43.2691C3.42854 43.775 3.53072 44.3433 3.63241 44.9089C3.72689 45.4344 3.82094 45.9575 3.95919 46.426C3.56848 46.7966 3.22676 47.2148 2.88502 47.633C2.45337 48.1612 2.02169 48.6894 1.49124 49.122C2.06198 49.2478 2.5883 49.5163 3.10724 49.7811C3.41039 49.9358 3.71103 50.0892 4.01653 50.2121C4.62923 50.458 4.59545 50.5927 4.44332 51.1995L4.41769 51.3022C3.56797 51.0306 2.81296 50.6472 2.07063 50.2703C1.59259 50.0276 1.11981 49.7875 0.630386 49.5817C0.48535 49.5202 0.375121 49.4966 0.254131 49.4707C0.177579 49.4543 0.09671 49.4369 0 49.4085C0.446503 49.1055 2.87328 46.5934 2.98251 46.1956C3.04734 45.9556 2.68894 44.3986 2.47987 43.4903C2.42149 43.2367 2.37475 43.0337 2.35213 42.924C2.31576 42.7519 2.21715 42.43 2.11408 42.0935Z" fill="#12284C"></path><path fill-rule="evenodd" clip-rule="evenodd" d="M45.45 47.9641C47.3364 47.2807 49.2612 46.5834 50.7858 45.5067C50.7858 47.3693 51.1162 49.0774 51.4301 50.7001C51.4842 50.9799 51.5379 51.2575 51.5893 51.5326C51.6292 51.7474 51.6642 51.9606 51.6986 52.1707C51.8175 52.8957 51.9304 53.5841 52.2209 54.1725C51.013 54.4184 49.9112 54.92 48.8144 55.4193C48.1758 55.7099 47.5389 55.9999 46.8838 56.2381C43.8297 57.344 40.4149 58.1376 36.8987 58.7061C28.5198 60.0559 18.5634 59.1434 11.7057 57.0416C10.2124 56.5826 8.74798 56.0267 7.30744 55.4799L6.88567 55.3199C6.60163 55.2117 6.33056 55.0887 6.05817 54.9651C5.53149 54.726 4.99993 54.4847 4.36037 54.3444C5.16408 52.6101 5.85284 48.1275 5.85284 45.7371C12.7086 49.9135 23.3794 51.9796 34.4322 50.845C38.3372 50.4424 41.9036 49.2477 45.1049 48.0892L45.45 47.9641ZM6.5421 47.0563C17.4202 53.6826 39.1279 53.6418 49.9256 46.9417C49.9917 48.6116 50.4335 52.3277 51.0171 53.5978C50.4797 53.6567 50.1153 53.8403 49.7461 54.0262C49.5653 54.1173 49.3834 54.2089 49.1795 54.2868C48.7673 54.4423 48.3558 54.6005 47.9452 54.7584C47.2444 55.0279 46.5462 55.2964 45.8519 55.5488C42.8495 56.6356 39.4836 57.3855 35.981 57.9022C28.2877 59.0319 19.2277 58.2928 12.8547 56.467C11.4886 56.075 10.1213 55.5775 8.79002 55.0931L8.78537 55.0914C8.57193 55.0137 8.35941 54.9364 8.14798 54.8599C7.79892 54.7328 7.46924 54.5707 7.13744 54.4074C6.62572 54.1556 6.10878 53.9013 5.50807 53.7698C6.02873 52.6458 6.77014 48.6023 6.5421 47.0563Z" fill="#12284C"></path><path d="M91.7782 34.3961L102.173 16.8824C103.937 13.9841 106.079 12.8506 109.481 12.7245V11.0867H94.3613V12.7245C97.7003 12.9131 99.0231 13.6065 100.031 14.3623L90.3922 31.309L80.5643 14.2999C81.5092 13.5436 82.58 12.9131 85.9192 12.7243V11.0864H68.2162V12.7243C71.7444 12.9766 73.5084 13.9841 75.335 17.0081L85.919 34.9001V47.0596C84.9741 48.9493 81.4461 49.3898 78.548 49.5162V51.154H98.8972V49.5162C95.9989 49.3898 92.9747 49.0122 91.7782 46.1774V34.3961Z" fill="#12284C"></path><path fill-rule="evenodd" clip-rule="evenodd" d="M117.671 47.7524C117.796 49.3898 119.435 51.721 122.836 51.721C125.042 51.721 127.499 49.7682 128.884 48.1298V46.3031C127.687 47.4999 126.679 48.1298 125.671 48.1298C124.411 48.1298 123.025 47.4999 123.088 44.9168L123.277 31.6871C123.34 27.025 121.261 24.0014 115.528 24.0014C112.505 24.0014 106.267 26.2059 104.377 31.8765V32.5058L110.048 31.5613C110.173 28.3479 111.812 26.2694 113.512 26.2694C116.347 26.2694 117.671 28.9784 117.671 31.8132V36.4753L105.134 41.0114C104.252 42.46 103.811 44.2871 103.811 46.0517C103.811 49.6419 106.709 51.721 110.111 51.721C112.757 51.721 115.528 50.0201 117.671 47.7524ZM109.796 44.7282C109.796 43.342 109.985 42.46 110.237 41.4523C111.425 40.8585 113.64 39.8646 115.461 39.0478L115.462 39.0473L115.465 39.0461L115.467 39.0453C116.348 38.6499 117.137 38.2961 117.671 38.0496L117.608 46.555C115.907 47.8783 114.836 48.5076 112.946 48.5076C110.867 48.5076 109.796 46.6179 109.796 44.7282Z" fill="#12284C"></path><path d="M133.61 47.8144C133.105 48.886 132.286 49.516 129.452 49.7048V51.1542H143.437V49.705C140.854 49.5162 139.658 49.0751 139.028 47.8146V10.9605L140.854 8.69276L140.477 7.62114L128.947 10.5192V11.779C133.294 12.1573 133.61 13.0388 133.61 15.1809V47.8144Z" fill="#12284C"></path><path fill-rule="evenodd" clip-rule="evenodd" d="M146.839 39.121C146.839 46.4291 151.942 51.658 158.557 51.658C163.723 51.658 166.684 49.5162 170.275 46.2397L169.33 44.791C166.81 46.9328 165.172 48.0669 161.959 48.0669C156.604 48.0669 152.572 43.846 152.572 37.4201C152.572 36.0346 152.636 34.9001 152.761 34.2073L169.771 34.333V33.1992C169.771 27.5927 166.306 24.0639 160.069 24.0639C152.32 24.0639 146.839 30.175 146.839 39.121ZM153.013 32.5058C153.77 28.5371 155.974 26.0175 159.124 26.0175C162.022 26.0175 164.102 29.0411 164.102 32.38L153.013 32.5058Z" fill="#12284C"></path><path d="M18.1906 12.9691L18.2479 12.9118C18.1873 13.2235 18.1572 13.6388 18.4211 13.886C18.894 14.3277 19.1748 13.8857 19.462 13.4338C19.5865 13.238 19.7121 13.0403 19.855 12.9118C19.7992 13.8514 20.306 14.0856 20.7865 14.3075C21.1504 14.4756 21.4991 14.6367 21.5767 15.092C21.6716 15.6597 21.4368 16.2901 21.2454 16.8042C21.1986 16.9298 21.1544 17.0485 21.1183 17.1576C20.7557 18.2379 20.6479 18.2345 19.6807 18.2037C19.4887 18.1976 19.2627 18.1904 18.9941 18.1904C18.9957 18.1904 18.6863 18.2409 18.593 18.2489C18.6126 18.1872 18.6312 18.1282 18.6493 18.0709C18.7437 17.7714 18.8224 17.5221 18.9368 17.2149C19.0872 17.2026 19.2753 17.2061 19.4741 17.2098C19.8824 17.2173 20.3358 17.2257 20.6013 17.1003C20.7417 17.0325 20.8034 16.8424 20.86 16.6683C20.8693 16.6397 20.8785 16.6116 20.8878 16.5845C21.2507 15.519 20.2789 15.1198 19.4908 14.7961C19.356 14.7407 19.2265 14.6875 19.11 14.6335C19.0591 14.7054 19.0017 14.7814 18.9419 14.8605C18.7402 15.1273 18.5121 15.4291 18.4211 15.7236C18.3411 15.9781 18.3738 16.2413 18.4082 16.5191C18.4401 16.7757 18.4735 17.0447 18.4211 17.3307C18.3702 17.5991 18.155 17.8787 17.9675 18.1224C17.902 18.2074 17.84 18.288 17.7894 18.3623C17.6387 18.3089 17.6485 18.1712 17.6748 18.1904C17.867 17.7756 17.8217 17.4354 17.7715 17.0586C17.7387 16.8117 17.7037 16.549 17.7321 16.2394C17.7644 15.8687 18.0222 15.5443 18.2448 15.2642C18.3085 15.1841 18.3693 15.1076 18.4211 15.0347C17.5624 14.6352 17.3869 13.5982 18.1906 12.9691Z" fill="#12284C"></path><path d="M22.7254 15.0347C21.8252 14.7476 21.9629 13.8246 22.151 12.9691C22.3755 13.9943 22.8154 13.9259 23.3881 13.837C23.7673 13.7781 24.2047 13.7102 24.6763 13.9446C24.9315 14.0716 24.9621 14.7455 24.9949 15.4686C25.0292 16.2255 25.066 17.0363 25.3653 17.3307C25.3382 17.3749 25.3125 17.4177 25.2876 17.4593C25.0981 17.7755 24.9537 18.0163 24.5605 18.1904C24.5605 18.0461 24.5702 17.8395 24.5815 17.5999C24.6264 16.6463 24.6958 15.171 24.274 15.0347C23.1712 14.6775 22.6763 15.0771 22.9546 16.1248C23.0099 16.3343 23.0661 16.525 23.1172 16.6981C23.4662 17.8823 23.5742 18.2489 21.5194 18.2489C21.6544 17.7323 21.685 17.512 21.8105 17.3873C21.9357 17.263 22.1553 17.2336 22.6668 17.1003C22.6531 16.9298 22.636 16.7711 22.6198 16.6208C22.5567 16.0354 22.5071 15.5758 22.7254 15.0347Z" fill="#12284C"></path><path d="M37.9685 13.1797C38.0422 13.1048 38.1116 13.0341 38.1614 12.9691C38.321 13.0928 38.3093 13.1279 38.2851 13.201C38.2669 13.2561 38.2415 13.3328 38.2767 13.4852C38.2972 13.5736 38.4149 13.6659 38.5215 13.7496C38.5853 13.7996 38.6451 13.8465 38.6779 13.8876C39.189 14.5239 38.6035 15.2451 38.1036 15.5521C38.0733 15.529 38.2781 15.7056 38.3914 15.7813C39.2246 16.3426 39.1493 17.2025 38.5633 17.9615C38.4681 18.0837 38.4436 18.1204 38.4114 18.1293C38.3751 18.1392 38.3291 18.1136 38.1609 18.1347C38.7245 16.9197 37.6229 16.4136 36.7163 15.9971C36.6418 15.9629 36.5686 15.9293 36.4977 15.8959C36.4779 15.9335 36.4558 15.971 36.4331 16.0095C36.3263 16.1908 36.208 16.3916 36.2672 16.6995C36.2879 16.8085 36.3763 16.9231 36.4655 17.0388C36.5557 17.1558 36.6468 17.2738 36.6696 17.3884C36.8523 18.342 35.8589 18.2256 35.1772 18.1347C35.2009 18.118 35.2003 18.064 35.1997 18.0066C35.199 17.9405 35.1982 17.8699 35.2345 17.8469C35.3037 17.8013 35.4437 17.7729 35.5441 17.7526C35.5824 17.7448 35.615 17.7382 35.6356 17.7323C35.6308 17.6968 35.6259 17.6617 35.6211 17.6269C35.5329 16.9889 35.4594 16.4572 35.8661 16.0678C35.9835 15.954 36.1288 15.8561 36.2686 15.7618C36.2874 15.7492 36.3061 15.7366 36.3246 15.724C35.7616 15.3436 35.1002 14.7141 35.4064 13.6584C35.4783 13.4079 35.6142 13.2948 35.778 13.1584C35.8066 13.1346 35.836 13.1101 35.8661 13.0841C35.7838 14.4631 36.9007 14.9626 37.9321 15.3785C38.2942 14.848 38.1023 14.6785 37.8834 14.4852C37.6989 14.3222 37.4953 14.1424 37.5883 13.7153C37.6281 13.5258 37.8082 13.3426 37.9685 13.1797Z" fill="#12284C"></path><path d="M26.5131 15.0346C25.1784 15.112 25.2863 14.0095 25.6523 13.0264C25.6539 13.0391 25.7971 13.4748 25.8242 13.5434C25.9288 13.825 26.2598 13.8643 26.579 13.9022C26.8897 13.9391 27.1893 13.9747 27.2581 14.2311C27.3529 14.5846 27.2023 14.7205 27.0688 14.841C27.0023 14.9011 26.94 14.9573 26.9143 15.0347C26.7564 15.5027 26.875 16.7527 27.0289 17.0429C27.0695 17.1201 27.1146 17.1418 27.1748 17.1707C27.1997 17.1827 27.2273 17.1959 27.2581 17.2148C27.1901 17.3224 27.1351 17.4248 27.0841 17.5197C26.909 17.8457 26.7815 18.083 26.3412 18.1343C26.4086 17.6773 26.4184 17.1379 26.4283 16.5925C26.438 16.0548 26.4478 15.5112 26.5131 15.0346Z" fill="#12284C"></path><path d="M33.9729 15.0348C32.6294 15.2325 32.7788 13.9824 33.112 13.0838C33.3127 13.8276 33.6829 13.8386 34.0432 13.8493C34.2934 13.8568 34.5388 13.864 34.7192 14.1166C35.0724 14.6134 34.7098 14.8873 34.3168 15.0348C34.3352 15.2706 34.3296 15.5205 34.324 15.7701C34.3128 16.274 34.3015 16.7764 34.4887 17.1577C34.4976 17.1762 34.529 17.314 34.5411 17.3672C34.5442 17.3804 34.546 17.3885 34.546 17.3881C34.5181 17.4427 34.5044 17.4855 34.4908 17.5279C34.4764 17.5728 34.4621 17.6172 34.4314 17.6747C33.4969 19.4088 33.8326 15.7053 33.9729 15.0348Z" fill="#12284C"></path><path d="M29.554 14.4031C29.4304 13.8601 29.4032 13.589 29.6113 13.2557C29.9839 14.107 30.4528 14.0223 30.9571 13.9312C31.3388 13.8622 31.7408 13.7896 32.1366 14.1167C32.3221 14.2704 32.3543 14.9014 32.3882 15.5651C32.4222 16.2331 32.458 16.9342 32.6536 17.215C32.66 17.1903 32.8059 17.3882 32.6536 17.3882C32.6209 17.4507 32.5921 17.5083 32.5656 17.5614C32.4057 17.8814 32.3271 18.0387 31.9646 18.1344C31.9646 17.9174 31.9789 17.6608 31.9941 17.3894C32.0361 16.6356 32.0845 15.768 31.85 15.3213C31.6837 15.0064 31.2958 15.041 30.8824 15.0778C30.3283 15.1272 29.7284 15.1807 29.554 14.4031Z" fill="#12284C"></path><path d="M36.7577 20.161C36.7864 20.1161 36.8147 20.0718 36.8421 20.0279C36.9831 20.1092 36.9572 20.2121 36.9243 20.3428C36.9014 20.4338 36.8752 20.5383 36.8994 20.6583C36.9583 20.9591 37.1455 21.0896 37.3234 21.2137C37.6388 21.4336 37.9251 21.6332 37.4164 22.7251C37.1891 23.2112 37.1772 23.058 37.1564 22.7912C37.1446 22.6396 37.1299 22.4513 37.0713 22.3227C37.0295 22.231 36.8608 22.0832 36.7319 21.9702C36.6838 21.928 36.6412 21.8907 36.6128 21.863C36.0355 21.2938 36.4177 20.6943 36.7577 20.161Z" fill="#12284C"></path><path d="M24.5108 21.9144C24.1904 21.522 23.9234 21.195 24.7335 20.1995C24.7031 20.7073 24.9506 21.0099 25.1829 21.294C25.4856 21.6643 25.7626 22.003 25.3652 22.7235C25.2764 22.881 25.1766 22.9457 25.0508 23.0272C25.0059 23.0563 24.9577 23.0876 24.9055 23.1259C24.9966 22.5094 24.74 22.1951 24.5108 21.9144Z" fill="#12284C"></path><path fill-rule="evenodd" clip-rule="evenodd" d="M32.7681 22.3224C31.8176 21.9691 32.0737 21.1121 32.423 20.3714C32.4975 20.4423 32.5127 20.5715 32.5287 20.7073C32.5511 20.8983 32.5751 21.1022 32.7681 21.1749C33.3273 21.3836 33.846 21.3624 34.2946 21.344C35.109 21.3106 35.6921 21.2867 35.8664 22.6662C35.9532 23.3517 35.8603 23.9402 35.767 24.5312C35.7094 24.8958 35.6517 25.2613 35.6359 25.6512C34.7828 25.5548 33.8356 25.5704 32.9761 25.5845C32.6836 25.5893 32.4014 25.5939 32.1364 25.5939C32.17 25.2913 32.1941 25.0092 32.2167 24.7431C32.2968 23.8036 32.3599 23.063 32.7681 22.3224ZM32.7667 24.2163C32.7308 23.5187 32.8266 22.954 32.9972 22.38C35.244 22.38 35.3493 22.4164 35.3493 24.676C34.6389 24.4591 33.4931 24.4408 32.7667 24.676C32.7739 24.5739 32.7755 24.4172 32.7667 24.2163Z" fill="#12284C"></path><path fill-rule="evenodd" clip-rule="evenodd" d="M20.6589 22.3797C19.7747 22.0193 19.9132 21.2139 20.3151 20.486C20.404 21.273 21.0947 21.3006 21.8317 21.33C22.6543 21.3628 23.5347 21.3979 23.7 22.4943C23.8129 23.2434 23.7093 23.8828 23.6067 24.5164C23.5462 24.8896 23.4861 25.2608 23.4707 25.6512C22.4023 25.5667 21.0941 25.5667 20.0273 25.6512C20.0478 25.3849 20.0611 25.1259 20.0739 24.876C20.1256 23.8651 20.1699 23.0004 20.6589 22.3797ZM20.6009 24.7333C20.526 23.7869 20.6402 23.0345 20.9448 22.38C22.1889 22.5483 22.7232 22.5451 22.9597 22.8089C23.1894 23.065 23.1383 23.5727 23.1835 24.7333C22.4372 24.5436 21.3975 24.534 20.6009 24.7333Z" fill="#12284C"></path><path d="M7.25793 52.5183C7.55077 51.4406 7.85699 50.3138 8.03306 49.1783C8.15456 49.2347 8.27118 49.2951 8.38818 49.3558C8.49768 49.4125 8.60752 49.4694 8.72201 49.5234C8.64478 49.8321 8.56497 50.1705 8.48263 50.5197C8.32018 51.2086 8.14784 51.9394 7.96582 52.5669C7.88576 52.8437 8.5675 52.8541 9.08068 52.8619C9.40558 52.8669 9.66291 52.8708 9.61655 52.9407C9.57508 53.0025 9.47556 53.1404 9.37605 53.2784C9.27657 53.4163 9.17711 53.5541 9.13566 53.6159C9.20981 53.6358 9.04013 53.6593 9.00983 53.6545C8.79634 53.6071 8.5473 53.4856 8.29549 53.3626C8.06858 53.2518 7.8394 53.1399 7.63192 53.0802C7.51291 53.0457 7.41528 53.0351 7.31054 53.0238C7.25317 53.0176 7.19367 53.0112 7.12736 53.0005C7.17026 52.841 7.21394 52.6802 7.25793 52.5183Z" fill="#12284C"></path><path d="M47.9164 49.3453C48.0917 49.3122 48.2673 49.279 48.4339 49.2356C48.4486 49.2834 48.5731 49.5574 48.6816 49.796C48.7558 49.9594 48.8226 50.1062 48.8414 50.1526C48.9642 50.4566 48.7929 50.3526 48.5132 50.1825C48.0756 49.9166 47.3725 49.4893 47.1147 50.2111C47.1147 50.2111 47.1168 50.5599 47.4573 50.7281C47.6907 50.8433 47.9541 50.9062 48.2124 50.968C48.7196 51.0893 49.2071 51.2059 49.4095 51.7036C49.7443 52.5321 49.1756 53.1456 48.5473 53.3681L48.5268 53.3753C48.0793 53.5333 47.4067 53.7709 47.2292 53.4827C47.1265 53.3203 47.0122 53.0659 46.9448 52.9157L46.9415 52.9083C46.9063 52.8305 46.8922 52.7688 46.8747 52.6925C46.8628 52.6406 46.8494 52.5821 46.8268 52.5072C47.2255 52.7671 49.2577 53.609 48.7666 52.1459C48.7267 52.0279 48.6272 51.9593 48.5411 51.9067C48.2929 51.7585 47.9585 51.6767 47.6262 51.5954C46.8245 51.3991 46.0355 51.206 46.5016 50.0928C46.7201 49.5713 47.3164 49.4587 47.9164 49.3453Z" fill="#12284C"></path><path d="M10.5307 51.3008C10.6378 50.9514 10.7353 50.633 10.7873 50.3843C10.8416 50.402 10.8924 50.4188 10.9409 50.4349C11.1474 50.5032 11.3128 50.558 11.5336 50.6135C11.5083 50.6965 11.4689 50.8126 11.4216 50.9521C11.1138 51.8603 10.4683 53.7648 11.1325 54.0557C12.5403 54.6723 12.7981 52.5357 12.9353 51.3988C12.9472 51.3007 12.9581 51.2101 12.9688 51.1293C13.085 51.163 13.18 51.1878 13.2722 51.2119C13.3761 51.239 13.4767 51.2653 13.6004 51.3025C13.5611 51.4525 13.5217 51.6189 13.4799 51.7953C13.1385 53.236 12.6406 55.3366 10.7873 54.5154C10.5218 54.3966 10.163 54.135 10.0984 53.8265C9.95797 53.1705 10.272 52.1454 10.5307 51.3008Z" fill="#12284C"></path><path fill-rule="evenodd" clip-rule="evenodd" d="M43.8031 50.8745C43.9539 50.8041 44.127 50.7232 44.2438 50.7281C44.2438 50.7281 45.0271 51.6959 45.2193 51.9901C45.5147 52.4448 45.8633 52.8563 46.2118 53.2677C46.4004 53.4903 46.589 53.713 46.7691 53.9423C46.7319 53.9528 46.6926 53.9622 46.6518 53.9719C46.5622 53.9933 46.4652 54.0164 46.3667 54.0569C46.3059 54.0818 46.2531 54.1048 46.2067 54.1251C45.955 54.2352 45.8921 54.2627 45.7662 54.0358L45.7527 54.0114C45.6215 53.7747 45.3395 53.266 45.137 53.1213C45.137 53.1213 44.282 53.3464 43.9224 53.4963C43.8474 53.9005 43.7853 54.4151 43.7853 54.8592C43.5174 54.9294 43.2719 55.0092 43.0391 55.0897C43.072 54.9276 43.1054 54.7666 43.1388 54.6061C43.3778 53.456 43.6122 52.328 43.6122 50.9573C43.6652 50.9389 43.7317 50.9078 43.8031 50.8745ZM43.9827 52.9263C44.0784 52.4088 44.1016 52.0206 44.1023 51.5621L44.8972 52.6721L43.9827 52.9263Z" fill="#12284C"></path><path d="M39.4137 52.101C40.2972 52.0691 41.2652 51.8719 42.2268 51.4669C42.3504 51.718 42.4332 51.8848 42.572 52.1583C42.5618 52.1765 42.5849 52.2118 42.6222 52.269C42.6584 52.3243 42.708 52.4001 42.7539 52.5009C42.7484 52.4992 42.7377 52.4947 42.7239 52.4889C42.6726 52.4671 42.5784 52.4273 42.5533 52.4474C42.326 52.3022 41.6283 52.0872 41.3062 52.1533C41.2823 52.1581 41.931 54.8471 42.0961 55.1931C42.1523 55.3108 42.2006 55.3574 42.1914 55.3848C42.1751 55.4335 41.9771 55.4214 41.3186 55.6404L41.3027 55.5563C41.1055 54.5154 40.92 53.5365 40.5387 52.3912C39.9503 52.5611 39.6904 52.7684 39.4137 53.1886C39.4137 53.1886 39.2738 53.0283 39.2954 52.7588C39.3018 52.6581 39.3285 52.5415 39.3551 52.4254C39.3811 52.3117 39.407 52.1984 39.4137 52.101Z" fill="#12284C"></path><path d="M14.2959 51.4937C14.2912 51.4743 14.2897 51.4684 14.2942 51.4868C14.3342 51.4986 14.375 51.5107 14.4164 51.5229C14.6833 51.602 14.9778 51.6892 15.2635 51.7609C15.3083 51.9693 15.3433 52.1523 15.3733 52.3094C15.5481 53.223 15.5555 53.2619 16.3536 52.3353C16.6133 52.0333 16.7654 52.085 17.0368 52.1772C17.1344 52.2104 17.2474 52.2489 17.3863 52.278C16.9276 52.5446 16.5103 52.8446 16.0934 53.1441C15.9893 53.219 15.8852 53.2938 15.7805 53.3681C15.8775 54.0926 16.1064 54.6507 16.3418 55.2248C16.4235 55.4241 16.506 55.6253 16.584 55.836C16.2109 55.7587 15.9964 55.7203 15.6074 55.6629C15.5622 55.4826 15.5232 55.3019 15.4862 55.1303C15.2777 54.1638 15.1317 53.4869 14.288 54.8032C14.0016 55.2464 13.8104 55.1562 13.4935 55.0065C13.3914 54.9583 13.2762 54.904 13.1406 54.8593C13.7511 54.5011 14.2799 54.0864 14.8162 53.6658C14.8697 53.6239 14.9232 53.5819 14.977 53.5399C14.8936 53.1359 14.7858 52.8517 14.6734 52.5551C14.66 52.5198 14.6466 52.4844 14.6331 52.4486C14.6007 52.3639 14.5596 52.2761 14.5189 52.1891C14.4441 52.0296 14.3706 51.8725 14.354 51.741C14.3505 51.7202 14.3094 51.55 14.2959 51.4937Z" fill="#12284C"></path><path d="M38.48 52.2897C38.5612 52.2857 38.6438 52.2817 38.7199 52.2817C38.8594 53.539 39.099 54.8999 39.3789 56.0154C39.2905 56.0375 39.1783 56.0758 39.0655 56.1143C38.9339 56.1593 38.8015 56.2045 38.7049 56.2247C38.704 56.2228 38.6155 56.2433 38.54 56.2608C38.4856 56.2734 38.4379 56.2845 38.4346 56.2845C38.3651 55.8161 38.3115 55.353 38.2589 54.8987C38.1599 54.0435 38.0645 53.2194 37.8739 52.4498C37.911 52.443 37.9806 52.4142 38.0552 52.3833C38.1555 52.3418 38.2646 52.2966 38.315 52.2966C38.3674 52.2953 38.4233 52.2925 38.48 52.2897Z" fill="#12284C"></path><path d="M18.508 56.2994C18.7527 55.1656 19.0337 53.7247 19.2243 52.5071C19.7216 52.6429 20.283 52.7172 20.903 52.7992C21.0295 52.8159 21.1585 52.833 21.2899 52.851C21.2967 52.8791 21.304 52.9084 21.3114 52.9386C21.3645 53.1528 21.4289 53.4134 21.4618 53.6545C21.4618 53.6545 21.5063 53.8897 21.5191 53.9423C21.3668 53.7478 21.1568 53.568 20.9448 53.4253C20.7653 53.3049 20.1884 53.0997 19.9468 53.0304C19.8416 53.0008 19.7417 53.6891 19.6827 54.2289C20.0216 54.2791 20.2477 54.2815 20.6009 54.2289C20.6009 54.23 20.6009 54.235 20.6008 54.2427C20.6005 54.2836 20.5996 54.3994 20.6009 54.4008C20.6009 54.4026 20.6103 54.4584 20.6218 54.5264C20.6349 54.6037 20.6506 54.6967 20.6582 54.7446C20.6582 54.7446 20.7052 54.9089 20.7155 54.9751C20.1197 54.7346 19.8711 54.6143 19.7479 54.6922C19.5975 54.7874 19.6341 55.1781 19.4535 56.0067C20.2429 56.1127 21.0095 56.0075 21.5764 55.7787C21.5339 55.9031 21.5053 55.9675 21.4725 56.041C21.469 56.0489 21.4654 56.057 21.4618 56.0652C21.4346 56.1247 21.4112 56.1783 21.3902 56.2265C21.2232 56.6101 21.2079 56.6453 20.6072 56.51C20.0849 56.392 19.1825 56.2994 18.508 56.2994Z" fill="#12284C"></path><path fill-rule="evenodd" clip-rule="evenodd" d="M35.6352 52.6791C35.7322 52.6714 35.8209 52.6697 35.9018 52.6728C37.1147 52.7196 36.5776 53.9154 36.1523 54.458C36.6234 55.2347 37.3879 55.8653 38.1605 56.3517C38.1461 56.3868 38.1032 56.5236 38.1032 56.5236C36.9662 56.6353 36.1001 55.7752 35.5779 54.9165C35.4714 54.9277 35.384 54.9338 35.3023 54.9395C35.1858 54.9476 35.0806 54.955 34.9475 54.9751C34.9659 55.4559 35.0357 56.0809 35.1194 56.6383C35.0011 56.6551 34.8665 56.6793 34.7319 56.7036C34.5662 56.7334 34.4007 56.7632 34.266 56.779C34.2545 56.4941 34.2473 56.2108 34.2401 55.9288C34.2242 55.2987 34.2084 54.6753 34.1439 54.0557C34.1247 53.875 34.0875 53.6752 34.0498 53.4726C34.0218 53.3219 33.9934 53.1698 33.972 53.0229C34.2616 52.9993 34.5403 52.9233 34.8158 52.8482C35.0895 52.7735 35.3602 52.6997 35.6352 52.6791ZM34.7911 53.2415C35.0198 53.1927 35.209 53.1757 35.3617 53.1829C36.4309 53.2335 35.7554 54.4883 34.9419 54.6069C34.8949 54.6132 34.7911 53.2415 34.7911 53.2415Z" fill="#12284C"></path><path d="M22.1635 53.1984C22.2245 53.0984 22.2853 52.9987 22.3224 52.9083C23.1707 53.1579 24.151 53.2766 25.1915 53.1961C25.229 53.4736 25.2553 53.6568 25.2999 53.9598C25.2845 53.974 25.2954 54.0154 25.3129 54.0821C25.3299 54.1463 25.353 54.234 25.3647 54.3435C25.3603 54.3402 25.3519 54.3328 25.3411 54.3232C25.2994 54.2862 25.2213 54.2169 25.1915 54.2276C25.0209 54.018 24.4263 53.5944 24.1002 53.5562C24.0763 53.553 23.8426 56.3083 23.8897 56.6894C23.906 56.8188 23.937 56.8783 23.9197 56.9014C23.8887 56.9427 23.7045 56.8688 23.0113 56.8688L23.0261 56.7589C23.1659 55.7189 23.2979 54.7369 23.2979 53.5399C22.6863 53.5144 22.3732 53.6298 21.9785 53.9423C21.9785 53.9423 21.8949 53.7451 22.0009 53.4963C22.0388 53.4029 22.1012 53.3005 22.1635 53.1984Z" fill="#12284C"></path><path d="M31.859 53.1589C32.1381 53.1198 32.4018 53.0828 32.6513 53.0802C33.0156 53.0754 33.075 53.1853 33.1683 53.4253C33.2221 53.566 33.2427 53.6759 33.2645 53.7923C33.2825 53.8882 33.3013 53.9885 33.3403 54.1143C32.8738 53.7483 32.4828 53.5972 31.6185 53.5972C31.6185 53.5972 31.6655 54.6234 31.6758 54.7446C32.1725 54.6888 32.4145 54.6418 32.751 54.4855C32.8201 54.9526 32.9292 55.1635 32.8681 55.2419C32.7982 55.3317 32.5048 55.2476 31.6721 55.1757C31.657 56.7724 31.7307 56.7499 33.2048 56.3008L33.2256 56.2944C33.5876 56.1839 33.7428 56.1328 33.7755 56.1755C33.8191 56.2323 33.6463 56.4551 33.4561 56.9248C32.5088 56.9248 31.7082 56.9927 30.9308 57.098C30.9308 56.9456 30.931 56.7936 30.9313 56.6419C30.9334 55.4837 30.9355 54.3461 30.8149 53.2534C31.1851 53.2534 31.5325 53.2047 31.859 53.1589Z" fill="#12284C"></path><path d="M26.9641 53.6608C26.9011 53.5356 26.7984 53.2534 26.7984 53.2534C27.1587 53.302 27.2964 53.302 27.6592 53.2533C27.9765 54.2053 28.3314 55.127 28.8066 55.8932C29.1239 55.1094 29.3547 54.3168 29.5516 53.3679C29.5888 53.3647 29.6305 53.3608 29.6755 53.3566C29.8855 53.337 30.1689 53.3106 30.4137 53.3106C30.0805 54.0275 29.7574 54.7597 29.4831 55.5195C29.4261 55.6769 29.3772 55.8382 29.3282 56C29.2325 56.3159 29.1362 56.6333 28.9785 56.926C28.608 57.6142 28.4738 57.2961 28.2754 56.8258C28.2407 56.7436 28.204 56.6567 28.1638 56.5697C27.9507 56.1079 27.7696 55.6338 27.5916 55.168C27.392 54.6454 27.1963 54.1333 26.9641 53.6608Z" fill="#12284C"></path></svg> 