<?xml version="1.0" encoding="UTF-8"?> <svg xmlns="http://www.w3.org/2000/svg" width="30" height="30" viewBox="0 0 30 30" fill="none"><circle cx="15" cy="15" r="15" fill="#52BEDA"></circle><path d="M21.75 9.75C21.75 8.92275 21.0773 8.25 20.25 8.25H9.75C8.92275 8.25 8.25 8.92275 8.25 9.75V20.25C8.25 21.0773 8.92275 21.75 9.75 21.75H20.25C21.0773 21.75 21.75 21.0773 21.75 20.25V9.75ZM9.75 20.25V9.75H20.25L20.2515 20.25H9.75Z" fill="white"></path><path d="M11.25 11.25H12.7485V12.75H11.25V11.25ZM14.25 11.25H18.75V12.75H14.25V11.25ZM11.25 14.25H12.7485V15.75H11.25V14.25ZM14.25 14.25H18.75V15.75H14.25V14.25ZM11.25 17.25H12.7485V18.75H11.25V17.25ZM14.25 17.25H18.75V18.75H14.25V17.25Z" fill="white"></path></svg> 