<?xml version="1.0" encoding="UTF-8"?> <svg xmlns="http://www.w3.org/2000/svg" width="106" height="94" viewBox="0 0 106 94" fill="none"><path d="M102.087 46.4904C96.5815 36.4615 85.8567 29.6504 73.5281 29.6504C55.5835 29.6504 41.0447 44.0583 41.0447 61.8284C41.0447 79.5986 55.5835 94.0007 73.5223 94.0007C74.0822 94.0007 74.642 93.9891 75.1961 93.9602C75.441 93.9487 75.6801 93.9256 75.9192 93.9082C76.2283 93.8851 76.5374 93.8678 76.8406 93.8389C93.2165 92.1925 106 78.4894 106 61.8284C106 56.2767 104.577 51.0485 102.081 46.4904H102.087Z" fill="url(#paint0_linear_106_111)"></path><path d="M91.9734 55.4179L74.5828 46.9025C73.8772 46.5559 73.1715 46.5559 72.4717 46.9025C71.6377 47.3127 70.7979 47.7229 69.9582 48.133L59.2217 53.3844C57.8221 54.0718 56.4166 54.7593 55.0169 55.441C54.5154 55.6894 54.1946 56.1169 54.0663 56.7177C53.8681 57.6478 54.2646 58.5317 55.0461 58.9188L55.2385 59.0112C57.3205 60.0337 59.3967 61.0505 61.4903 62.0672C61.4845 64.1874 61.4786 66.3134 61.4903 68.4393C61.4903 68.757 61.5253 69.069 61.5603 69.3694C61.5778 69.5485 61.6011 69.7276 61.6128 69.9067L61.6361 70.0222C62.0268 71.2758 63.0474 72.8703 63.0941 72.9396L63.3215 73.188C63.4498 73.3209 63.5781 73.4538 63.7064 73.5809C64.8611 74.7016 66.1966 75.5104 67.7829 76.0361C69.7249 76.6831 71.6552 77.0066 73.5681 77.0066C75.7084 77.0066 77.8253 76.6022 79.9015 75.7877C81.4703 75.1753 82.7591 74.2799 83.8496 73.0494L83.8905 73.0031C84.6428 72.2232 85.3134 70.3342 85.3893 70.1262L85.4184 69.9933C85.4359 69.7969 85.4592 69.6063 85.4826 69.4156C85.5234 69.0863 85.5642 68.7455 85.5642 68.3989C85.5817 66.2671 85.5759 64.1065 85.5642 62.0846C85.5642 62.073 85.5642 62.0672 85.5642 62.0615C85.7917 61.9632 86.0133 61.8477 86.2349 61.7379L87.4946 61.1198V62.4427C87.4946 65.3544 87.4946 68.266 87.4946 71.1776C87.4946 71.5069 87.5296 71.79 87.6054 72.0268C87.8736 72.8761 88.591 73.3036 89.4016 73.0956C90.0606 72.9223 90.5096 72.2059 90.5213 71.3047C90.5271 70.8599 90.5213 70.415 90.5213 69.9644V69.4849V67.5959C90.5213 64.95 90.5213 62.3041 90.5213 59.6582C90.5213 59.6524 90.5213 59.6409 90.5213 59.6351C90.8945 59.4676 91.2561 59.2827 91.6235 59.1036L91.9734 58.9303C92.4516 58.6935 93.0232 58.1966 93.029 57.1568C93.029 56.3769 92.6499 55.7414 91.9734 55.4063V55.4179ZM73.4165 63.9448C70.6055 62.5641 67.7887 61.1834 64.9777 59.8084L59.6066 57.1799C59.6533 57.1568 59.6999 57.1337 59.7466 57.1105L62.7675 55.6432C66.3191 53.9159 69.8765 52.1943 73.4281 50.4554C73.5622 50.3919 73.6206 50.3919 73.743 50.4554C77.5279 52.3214 81.3186 54.1758 85.1093 56.0302L87.4421 57.1741L84.8527 58.4393C81.1087 60.2706 77.3646 62.1019 73.6264 63.939C73.5331 63.9852 73.4981 63.9794 73.4165 63.939V63.9448ZM82.5317 68.2833C82.5433 68.9534 82.3742 69.5138 82.0009 70.0338C81.5052 70.727 80.8812 71.2643 79.9831 71.7784C78.7409 72.489 77.353 72.9454 75.755 73.1649C73.084 73.5289 70.6871 73.2862 68.4244 72.4254C67.2055 71.9633 66.2841 71.3856 65.5259 70.623C65.3218 70.4208 65.1352 70.1608 64.9777 69.9413C64.657 69.4792 64.4995 68.9361 64.5112 68.2833C64.5287 67.0701 64.5229 65.8627 64.5229 64.6496V63.5693L65.9692 64.2741C68.1036 65.3197 70.2381 66.3596 72.3725 67.411C73.1424 67.7865 73.9122 67.7923 74.6703 67.4225C76.8806 66.3422 79.0908 65.2619 81.307 64.1816L82.5491 63.575V64.5051C82.5491 64.8922 82.5491 65.2793 82.5433 65.6663C82.5375 66.5444 82.5317 67.4225 82.5433 68.3006L82.5317 68.2833Z" fill="white"></path><g filter="url(#filter0_b_106_111)"><ellipse cx="33.0521" cy="32.7413" rx="33.0521" ry="32.7413" fill="#DBEAED" fill-opacity="0.6"></ellipse></g><path d="M36.0643 47.8868V54.3513H30.3957V47.8463C26.3892 47.2975 22.5052 45.6511 19.6476 43.3287L22.6743 37.2859C25.7419 39.9029 30.3899 41.7631 33.5041 41.7631C35.8077 41.7631 37.254 40.9197 37.254 39.3541C37.254 34.3281 21.5196 37.3668 21.5196 26.8931C21.5196 22.2021 24.9312 18.9497 30.3899 18.0658V11.8555H36.0584V18.0253C39.5576 18.4066 42.8817 19.5851 45.3953 21.1911L42.4502 27.3148C39.2951 25.5412 35.2886 24.149 32.8159 24.149C30.9381 24.149 29.7017 24.8249 29.7017 26.1767C29.7017 31.0756 45.4361 28.2911 45.4361 38.9324C45.4361 44.1259 41.4296 47.1704 36.0526 47.8868H36.0643Z" fill="url(#paint1_linear_106_111)"></path><path style="mix-blend-mode:overlay" d="M0.38501 32.7874C0.38501 15.0173 14.9238 0.609375 32.8685 0.609375C45.197 0.609375 55.9277 7.42049 61.4271 17.4494C55.9277 7.42049 45.197 0.609375 32.8626 0.609375C14.9238 0.609375 0.38501 15.0173 0.38501 32.7874C0.38501 50.5575 14.9297 64.9597 32.8626 64.9597C33.4225 64.9597 33.9824 64.9481 34.5364 64.9192C33.9824 64.9481 33.4283 64.9597 32.8626 64.9597C14.9238 64.9597 0.38501 50.5518 0.38501 32.7874Z" fill="url(#paint2_linear_106_111)"></path><path style="mix-blend-mode:overlay" d="M0.38501 32.7874C0.38501 15.0173 14.9238 0.609375 32.8685 0.609375C45.197 0.609375 55.9277 7.42049 61.4271 17.4494C55.9277 7.42049 45.197 0.609375 32.8626 0.609375C14.9238 0.609375 0.38501 15.0173 0.38501 32.7874C0.38501 50.5575 14.9297 64.9597 32.8626 64.9597C33.4225 64.9597 33.9824 64.9481 34.5364 64.9192C33.9824 64.9481 33.4283 64.9597 32.8626 64.9597C14.9238 64.9597 0.38501 50.5518 0.38501 32.7874Z" fill="url(#paint3_linear_106_111)"></path><path style="mix-blend-mode:overlay" d="M0.38501 32.7874C0.38501 15.0173 14.9238 0.609375 32.8685 0.609375C45.197 0.609375 55.9277 7.42049 61.4271 17.4494C55.9277 7.42049 45.197 0.609375 32.8626 0.609375C14.9238 0.609375 0.38501 15.0173 0.38501 32.7874C0.38501 50.5575 14.9297 64.9597 32.8626 64.9597C33.4225 64.9597 33.9824 64.9481 34.5364 64.9192C33.9824 64.9481 33.4283 64.9597 32.8626 64.9597C14.9238 64.9597 0.38501 50.5518 0.38501 32.7874Z" fill="url(#paint4_linear_106_111)"></path><defs><filter id="filter0_b_106_111" x="-17.04" y="-17.04" width="100.184" height="99.5624" filterUnits="userSpaceOnUse" color-interpolation-filters="sRGB"><feFlood flood-opacity="0" result="BackgroundImageFix"></feFlood><feGaussianBlur in="BackgroundImageFix" stdDeviation="8.52"></feGaussianBlur><feComposite in2="SourceAlpha" operator="in" result="effect1_backgroundBlur_106_111"></feComposite><feBlend mode="normal" in="SourceGraphic" in2="effect1_backgroundBlur_106_111" result="shape"></feBlend></filter><linearGradient id="paint0_linear_106_111" x1="41.0385" y1="61.8255" x2="106" y2="61.8255" gradientUnits="userSpaceOnUse"><stop stop-color="#7450FA"></stop><stop offset="1" stop-color="#65C8D0"></stop></linearGradient><linearGradient id="paint1_linear_106_111" x1="19.6451" y1="33.1034" x2="45.4361" y2="33.1034" gradientUnits="userSpaceOnUse"><stop stop-color="#7450FA"></stop><stop offset="1" stop-color="#65C8D0"></stop></linearGradient><linearGradient id="paint2_linear_106_111" x1="51.0522" y1="50.8002" x2="8.00375" y2="7.34308" gradientUnits="userSpaceOnUse"><stop stop-color="white" stop-opacity="0"></stop><stop offset="1" stop-color="white"></stop></linearGradient><linearGradient id="paint3_linear_106_111" x1="51.5538" y1="51.297" x2="7.32105" y2="6.64443" gradientUnits="userSpaceOnUse"><stop stop-color="white" stop-opacity="0"></stop><stop offset="1" stop-color="white"></stop></linearGradient><linearGradient id="paint4_linear_106_111" x1="50.6382" y1="50.39" x2="8.57174" y2="7.92428" gradientUnits="userSpaceOnUse"><stop stop-color="white" stop-opacity="0"></stop><stop offset="1" stop-color="white"></stop></linearGradient></defs></svg> 