<?xml version="1.0" encoding="UTF-8"?> <svg xmlns="http://www.w3.org/2000/svg" width="368" height="160" viewBox="0 0 368 160" fill="none"><g clip-path="url(#clip0_1242_1255)"><path d="M122.439 33.9123L84.9587 97.0626V139.543C89.2731 149.765 100.178 151.126 110.628 151.582V157.487H37.2541V151.582C47.7038 151.126 60.4249 149.538 63.8318 142.724V98.8798L25.6687 34.3657C19.0823 23.4619 12.7218 19.829 0 18.9193V13.0136H63.8325V18.9193C51.7923 19.6001 47.9313 21.8736 44.5243 24.6005L79.9612 85.9314L114.717 24.8257C111.082 22.1003 106.312 19.6001 94.2728 18.92V13.0144H148.79V18.92C136.524 19.3749 128.8 23.4619 122.439 33.9123ZM196.947 159.532C184.682 159.532 178.774 151.126 178.32 145.222C170.596 153.399 160.603 159.532 151.062 159.532C138.795 159.532 128.344 152.035 128.344 139.09C128.344 132.727 129.935 126.139 133.116 120.916L178.32 104.56V87.7493C178.32 77.5277 173.55 67.7595 163.327 67.7595C157.194 67.7595 151.288 75.2542 150.834 86.8411L130.388 90.2465V87.9774C137.203 67.5306 159.693 59.5818 170.595 59.5818C191.267 59.5818 198.763 70.4842 198.537 87.2944L197.856 134.998C197.629 144.312 202.625 146.583 207.169 146.583C210.803 146.583 214.437 144.312 218.755 139.996V146.583C213.758 152.491 204.899 159.532 196.947 159.532ZM151.516 122.505C150.607 126.139 149.926 129.319 149.926 134.317C149.926 141.131 153.788 147.945 161.283 147.945C168.098 147.945 171.96 145.676 178.094 140.905L178.32 110.236C172.415 112.962 157.877 119.325 151.516 122.505ZM220.8 157.487V152.262C231.022 151.581 233.973 149.31 235.793 145.446V27.7771C235.793 20.0535 234.656 16.8747 218.982 15.5109V10.9683L260.554 0.518555L261.915 4.38255L255.329 12.5595V145.447C257.6 149.991 261.915 151.582 271.229 152.263V157.488H220.8V157.487ZM325.746 159.305C301.895 159.305 283.495 140.451 283.495 114.1C283.495 81.8421 303.259 59.807 331.2 59.807C353.688 59.807 366.182 72.531 366.182 92.7467V96.8352L304.849 96.3818C304.396 98.8798 304.166 102.97 304.166 107.966C304.166 131.136 318.705 146.356 338.015 146.356C349.599 146.356 355.506 142.267 364.591 134.544L367.999 139.768C355.052 151.582 344.374 159.305 325.746 159.305ZM327.793 66.8513C316.433 66.8513 308.485 75.9365 305.758 90.2465L345.74 89.7931C345.74 77.7537 338.241 66.8513 327.793 66.8513Z" fill="white"></path></g><defs><clipPath id="clip0_1242_1255"><rect width="368" height="159.013" fill="white" transform="translate(0 0.518555)"></rect></clipPath></defs></svg> 