<?xml version="1.0" encoding="UTF-8"?> <svg xmlns="http://www.w3.org/2000/svg" width="40" height="40" viewBox="0 0 40 40" fill="none"> <rect x="1" y="1" width="37" height="37" rx="6" fill="#000057"></rect> <path d="M9.00111 19.5196C9.00111 16.8501 9.00111 14.1807 9.00111 11.5113C9.00111 11.1019 9.00222 11.1064 9.41933 11.0975C10.9565 11.0652 12.4936 11.0141 14.0308 11.0007C15.5257 10.9874 16.9939 11.1531 18.3275 11.9094C20.3963 13.0829 21.2438 14.9126 21.0859 17.2305C20.9636 19.0291 20.1972 20.5051 18.6801 21.535C17.7035 22.1979 16.5879 22.476 15.4322 22.5616C14.5569 22.6273 13.676 22.6184 12.7962 22.6173C12.5303 22.6173 12.4503 22.6851 12.4525 22.9565C12.4647 24.4948 12.4592 26.0341 12.458 27.5724C12.458 27.9739 12.4325 27.9973 12.032 27.9984C11.1611 27.9995 10.2902 27.9995 9.42044 27.9984C9.00334 27.9984 9 27.9951 9 27.5824C9.00111 24.8952 9.00111 22.2068 9.00111 19.5196ZM12.4692 16.8746C12.4692 17.6999 12.4747 18.5241 12.4658 19.3494C12.4636 19.5541 12.5381 19.6386 12.7372 19.6319C13.4491 19.6097 14.1654 19.6308 14.8717 19.5574C15.6336 19.4784 16.3699 19.2627 16.9238 18.6787C17.6557 17.9068 17.8003 16.9803 17.5189 15.9915C17.2408 15.0116 16.5245 14.4877 15.5602 14.2663C14.6081 14.0472 13.6426 14.1507 12.6816 14.1496C12.4903 14.1496 12.4669 14.2697 12.4669 14.4287C12.4714 15.244 12.4692 16.0593 12.4692 16.8746Z" fill="#9999F8"></path> <path d="M26.7715 16.8225C26.8794 16.7191 26.9639 16.6401 27.0462 16.56C28.0684 15.5612 29.2552 14.9216 30.7134 14.8727C31.0838 14.8605 31.116 14.8916 31.1171 15.2542C31.1193 16.1529 31.1182 17.0516 31.1171 17.9503C31.1171 18.3585 31.0993 18.3752 30.6989 18.3797C29.7546 18.3897 28.8392 18.5432 27.9638 18.9091C27.8615 18.9514 27.7614 19.0003 27.6613 19.047C27.1586 19.2828 26.9216 19.6165 26.9328 20.2327C26.975 22.6786 26.9506 25.1245 26.9494 27.5703C26.9494 27.9986 26.9483 27.9997 26.5157 27.9997C25.5992 27.9997 24.6826 28.0008 23.7661 27.9997C23.3902 27.9997 23.3513 27.9608 23.3513 27.5859C23.3501 25.0377 23.3602 22.4895 23.3468 19.9424C23.339 18.4609 23.2945 16.9782 23.2645 15.4967C23.2578 15.1463 23.2634 15.133 23.6093 15.133C24.4057 15.1318 25.2021 15.1307 25.9985 15.133C26.4089 15.1341 26.499 15.1986 26.5813 15.609C26.6536 15.9872 26.7003 16.372 26.7715 16.8225Z" fill="#9999F8"></path> </svg> 