<?xml version="1.0" encoding="UTF-8"?> <svg xmlns="http://www.w3.org/2000/svg" width="44" height="44" viewBox="0 0 44 44" fill="none"><rect width="44" height="44" rx="8" fill="white"></rect><path d="M30 12H18C16.897 12 16 12.897 16 14V26C16 27.103 16.897 28 18 28H30C31.103 28 32 27.103 32 26V14C32 12.897 31.103 12 30 12ZM18 26V14H30L30.002 26H18Z" fill="#182849"></path><path d="M14 18.0004H12V30.0004C12 31.1034 12.897 32.0004 14 32.0004H26V30.0004H14V18.0004ZM22.933 21.5194L21.207 19.7934L19.793 21.2074L23.067 24.4814L28.769 17.6414L27.231 16.3594L22.933 21.5194Z" fill="#182849"></path></svg> 