<?xml version="1.0" encoding="UTF-8"?> <svg xmlns="http://www.w3.org/2000/svg" width="239" height="119" viewBox="0 0 239 119" fill="none"><path d="M140.637 51.0587C136.34 57.7407 128.52 65.0712 119.149 71.1954C118.433 71.6642 117.687 72.1375 116.926 72.6071C125.237 72.2392 132.909 70.7047 138.593 68.2665C144.423 65.7661 147.634 62.5395 147.634 59.1812C147.634 56.2284 145.215 53.4218 140.637 51.0587ZM115.531 73.0273L116.133 72.6619C117.101 72.0744 118.048 71.4778 118.949 70.8884C128.342 64.7488 136.168 57.3981 140.417 50.7211L140.507 50.5805L140.655 50.6559C145.46 53.1015 148 56.0495 148 59.1812C148 62.6955 144.711 66.0418 138.738 68.6037C132.853 71.128 124.861 72.69 116.235 73.0019L115.531 73.0273Z" fill="#12284C"></path><path d="M113.001 45.6728C111.917 45.6728 110.833 45.6922 109.778 45.7305C101.196 46.0408 93.2512 47.5923 87.4065 50.0989C81.5772 52.5991 78.3669 55.8252 78.3669 59.1828C78.3669 62.1683 80.8374 65.004 85.5115 67.3829C92.1379 70.7585 102.157 72.6946 113.001 72.6946C114.066 72.6946 115.134 72.6759 116.174 72.6387C117.127 72.0594 118.06 71.4711 118.948 70.8902C128.262 64.8025 136.034 57.5249 140.307 50.8932C133.681 47.5738 123.745 45.6728 113.001 45.6728ZM113.001 73.0615C102.101 73.0615 92.0211 71.1107 85.3452 67.7097C80.5398 65.2641 78 62.3155 78 59.1828C78 55.6691 81.2893 52.3234 87.2619 49.7618C93.1473 47.2378 101.139 45.6758 109.765 45.3639C110.824 45.3254 111.913 45.3059 113.001 45.3059C123.899 45.3059 133.979 47.2565 140.655 50.6577L140.835 50.7494L140.726 50.9196C136.449 57.6391 128.585 65.0301 119.149 71.197C118.245 71.7888 117.294 72.3875 116.323 72.977L116.282 73.0019L116.235 73.0035C115.175 73.0421 114.087 73.0615 113.001 73.0615Z" fill="#12284C"></path><path d="M85.4934 67.7844C82.5632 72.4354 81.7047 76.244 83.0116 78.8048C83.6885 80.1316 84.9299 81.0597 86.7013 81.5634C92.6964 83.2673 103.96 79.9217 115.529 73.0254C114.694 73.0489 113.846 73.0607 113 73.0607C102.182 73.0607 92.1699 71.1387 85.4934 67.7844ZM90.2431 82.3652C88.8857 82.3652 87.663 82.2183 86.6009 81.9164C84.7275 81.3836 83.4099 80.3928 82.6847 78.9715C81.3025 76.2628 82.1974 72.2777 85.2728 67.447L85.3623 67.3064L85.5109 67.3822C92.137 70.7578 102.156 72.6938 113 72.6938C114.082 72.6938 115.166 72.6744 116.221 72.6363L116.926 72.6107L116.322 72.9765C106.494 78.9345 96.8007 82.3649 90.2431 82.3652Z" fill="#12284C"></path><path d="M113.002 45.3053C123.819 45.3053 133.83 47.2273 140.507 50.5816C143.437 45.9309 144.295 42.1223 142.99 39.5612C142.313 38.234 141.072 37.3058 139.301 36.8021C133.307 35.0969 122.042 38.4438 110.471 45.3406C111.305 45.317 112.154 45.3053 113.002 45.3053ZM140.638 51.0596L140.489 50.9839C133.863 47.6082 123.844 45.6722 113.002 45.6722C111.918 45.6722 110.834 45.6916 109.779 45.7298L109.074 45.7554L109.678 45.3896C121.542 38.1975 133.209 34.6879 139.401 36.4492C141.274 36.9819 142.592 37.9728 143.317 39.3945C144.698 42.1037 143.802 46.0886 140.727 50.9189L140.638 51.0596Z" fill="#12284C"></path><path d="M98.1885 67.9766V44.1976C95.0974 47.2744 93.5488 51.2264 93.5488 56.0587C93.5488 60.8907 95.0963 64.8627 98.1885 67.9766Z" fill="#12284C"></path><path d="M126.362 51.7012H132.077C131.656 49.7676 130.828 48.1449 129.593 46.8332C128.358 45.522 126.955 44.5886 125.386 44.0331C124.837 43.8391 124.271 43.6812 123.689 43.5548V48.9192C123.811 48.9815 123.932 49.0463 124.05 49.1164C125.113 49.7482 125.883 50.6099 126.362 51.7012Z" fill="#12284C"></path><path d="M111.543 55.3775V59.2547H118.091C117.746 60.7622 117.013 61.9088 115.892 62.6915C115.832 62.7339 115.771 62.7747 115.708 62.8156C114.483 63.6016 113.095 63.9929 111.543 63.9929C110.703 63.9929 109.915 63.8858 109.183 63.6714C107.984 63.3191 106.932 62.6812 106.029 61.754C104.574 60.2602 103.846 58.3649 103.846 56.0664C103.846 53.751 104.569 51.8557 106.015 50.3806C106.91 49.4654 107.967 48.8358 109.185 48.4888C109.93 48.2744 110.735 48.1689 111.601 48.1689C112.998 48.1689 114.229 48.4855 115.291 49.1166C115.483 49.2305 115.665 49.3515 115.839 49.4806C116.623 50.066 117.212 50.8077 117.603 51.7009H123.318C123.044 50.4437 122.598 49.319 121.979 48.3255C121.649 47.7897 121.266 47.291 120.834 46.8334C119.599 45.5217 118.197 44.5895 116.627 44.033C116.371 43.9429 116.111 43.8595 115.849 43.7847C114.498 43.395 113.054 43.2012 111.514 43.2012C107.552 43.2012 104.34 44.3972 101.88 46.791C99.4195 49.1846 98.1895 52.2759 98.1895 56.0664C98.1895 59.8196 99.3956 62.9023 101.808 65.3149C104.221 67.7272 107.245 68.9336 110.883 68.9336C112.484 68.9336 113.913 68.697 115.17 68.2224C115.611 68.0574 116.029 67.8634 116.426 67.6405C117.957 66.7797 119.163 65.6398 120.044 64.2226L120.102 68.9268C121.421 68.8875 122.619 68.6817 123.692 68.3109V55.3775H111.543Z" fill="#12284C"></path><path d="M132.451 55.3775V68.9336H128.862L128.804 64.2226C127.924 65.6398 126.718 66.7797 125.185 67.6405C124.719 67.9043 124.217 68.1219 123.691 68.304V63.246C123.957 63.1167 124.217 62.9772 124.467 62.8156C125.692 62.0313 126.488 60.8438 126.851 59.2547H123.691V55.3775H132.451Z" fill="#12284C"></path><rect x="186.5" y="37.5" width="45" height="45" rx="22.5" fill="#407BFF"></rect><rect x="186.5" y="37.5" width="45" height="45" rx="22.5" stroke="white" stroke-width="5" stroke-linejoin="round"></rect><path d="M209 50C207.022 50 205.089 50.5865 203.444 51.6853C201.8 52.7841 200.518 54.3459 199.761 56.1732C199.004 58.0004 198.806 60.0111 199.192 61.9509C199.578 63.8907 200.53 65.6725 201.929 67.0711C203.327 68.4696 205.109 69.422 207.049 69.8079C208.989 70.1937 211 69.9957 212.827 69.2388C214.654 68.4819 216.216 67.2002 217.315 65.5557C218.414 63.9112 219 61.9778 219 60C219 58.6868 218.741 57.3864 218.239 56.1732C217.736 54.9599 217 53.8575 216.071 52.9289C215.142 52.0003 214.04 51.2638 212.827 50.7612C211.614 50.2587 210.313 50 209 50ZM209 68C207.418 68 205.871 67.5308 204.555 66.6518C203.24 65.7727 202.214 64.5233 201.609 63.0615C201.003 61.5997 200.845 59.9911 201.154 58.4393C201.462 56.8874 202.224 55.462 203.343 54.3431C204.462 53.2243 205.887 52.4624 207.439 52.1537C208.991 51.845 210.6 52.0035 212.061 52.609C213.523 53.2145 214.773 54.2398 215.652 55.5554C216.531 56.871 217 58.4177 217 60C217 62.1217 216.157 64.1566 214.657 65.6569C213.157 67.1571 211.122 68 209 68Z" fill="white"></path><path d="M209 59C207 59 207 58.37 207 58C207 57.63 207.7 57 209 57C210.3 57 210.39 57.64 210.4 58H212.4C212.386 57.3188 212.141 56.6624 211.705 56.139C211.269 55.6155 210.668 55.2561 210 55.12V54H208V55.09C206 55.42 205 56.71 205 58C205 59.12 205.52 61 209 61C211 61 211 61.68 211 62C211 62.32 210.38 63 209 63C207.16 63 207 62.14 207 62H205C205 62.92 205.66 64.55 208 64.92V66H210V64.92C212 64.58 213 63.29 213 62C213 60.88 212.48 59 209 59Z" fill="white"></path><rect x="4" y="4" width="24" height="24" rx="5" fill="white"></rect><rect x="4" y="33" width="24" height="24" rx="5" fill="white"></rect><rect x="4" y="62" width="24" height="24" rx="5" fill="white"></rect><rect x="4" y="91" width="24" height="24" rx="5" fill="white"></rect><path d="M13.3494 15.4698C14.1992 14.62 15.6812 14.62 16.5309 15.4698L17.0612 16L18.1217 14.9395L17.5914 14.4093C16.8842 13.7013 15.9422 13.3105 14.9402 13.3105C13.9382 13.3105 12.9962 13.7013 12.2889 14.4093L10.6974 16C9.99563 16.7041 9.60156 17.6576 9.60156 18.6517C9.60156 19.6457 9.99563 20.5993 10.6974 21.3033C11.0453 21.6517 11.4586 21.9279 11.9136 22.1161C12.3686 22.3043 12.8563 22.4007 13.3487 22.3998C13.8412 22.4008 14.329 22.3045 14.7841 22.1163C15.2393 21.9281 15.6527 21.6518 16.0007 21.3033L16.5309 20.773L15.4704 19.7125L14.9402 20.2428C14.5175 20.6636 13.9454 20.8998 13.349 20.8998C12.7527 20.8998 12.1806 20.6636 11.7579 20.2428C11.3368 19.8203 11.1003 19.2482 11.1003 18.6517C11.1003 18.0552 11.3368 17.483 11.7579 17.0605L13.3494 15.4698Z" fill="#52BEDA"></path><path d="M15.9999 10.6961L15.4697 11.2263L16.5302 12.2868L17.0604 11.7566C17.4831 11.3358 18.0552 11.0996 18.6515 11.0996C19.2479 11.0996 19.82 11.3358 20.2427 11.7566C20.6638 12.179 20.9003 12.7512 20.9003 13.3477C20.9003 13.9442 20.6638 14.5164 20.2427 14.9388L18.6512 16.5296C17.8014 17.3793 16.3194 17.3793 15.4697 16.5296L14.9394 15.9993L13.8789 17.0598L14.4092 17.5901C15.1164 18.2981 16.0584 18.6888 17.0604 18.6888C18.0624 18.6888 19.0044 18.2981 19.7117 17.5901L21.3032 15.9993C22.0049 15.2953 22.399 14.3418 22.399 13.3477C22.399 12.3536 22.0049 11.4001 21.3032 10.6961C20.5993 9.99393 19.6457 9.59961 18.6515 9.59961C17.6573 9.59961 16.7037 9.99393 15.9999 10.6961Z" fill="#52BEDA"></path><path d="M13.3494 44.4698C14.1992 43.62 15.6812 43.62 16.5309 44.4698L17.0612 45L18.1217 43.9395L17.5914 43.4093C16.8842 42.7013 15.9422 42.3105 14.9402 42.3105C13.9382 42.3105 12.9962 42.7013 12.2889 43.4093L10.6974 45C9.99563 45.7041 9.60156 46.6576 9.60156 47.6517C9.60156 48.6457 9.99563 49.5993 10.6974 50.3033C11.0453 50.6517 11.4586 50.9279 11.9136 51.1161C12.3686 51.3043 12.8563 51.4007 13.3487 51.3998C13.8412 51.4008 14.329 51.3045 14.7841 51.1163C15.2393 50.9281 15.6527 50.6518 16.0007 50.3033L16.5309 49.773L15.4704 48.7125L14.9402 49.2428C14.5175 49.6636 13.9454 49.8998 13.349 49.8998C12.7527 49.8998 12.1806 49.6636 11.7579 49.2428C11.3368 48.8203 11.1003 48.2482 11.1003 47.6517C11.1003 47.0552 11.3368 46.483 11.7579 46.0605L13.3494 44.4698Z" fill="#52BEDA"></path><path d="M15.9999 39.6961L15.4697 40.2263L16.5302 41.2868L17.0604 40.7566C17.4831 40.3358 18.0552 40.0996 18.6515 40.0996C19.2479 40.0996 19.82 40.3358 20.2427 40.7566C20.6638 41.179 20.9003 41.7512 20.9003 42.3477C20.9003 42.9442 20.6638 43.5164 20.2427 43.9388L18.6512 45.5296C17.8014 46.3793 16.3194 46.3793 15.4697 45.5296L14.9394 44.9993L13.8789 46.0598L14.4092 46.5901C15.1164 47.2981 16.0584 47.6888 17.0604 47.6888C18.0624 47.6888 19.0044 47.2981 19.7117 46.5901L21.3032 44.9993C22.0049 44.2953 22.399 43.3418 22.399 42.3477C22.399 41.3536 22.0049 40.4001 21.3032 39.6961C20.5993 38.9939 19.6457 38.5996 18.6515 38.5996C17.6573 38.5996 16.7037 38.9939 15.9999 39.6961Z" fill="#52BEDA"></path><path d="M13.3494 73.4698C14.1992 72.62 15.6812 72.62 16.5309 73.4698L17.0612 74L18.1217 72.9395L17.5914 72.4093C16.8842 71.7013 15.9422 71.3105 14.9402 71.3105C13.9382 71.3105 12.9962 71.7013 12.2889 72.4093L10.6974 74C9.99563 74.7041 9.60156 75.6576 9.60156 76.6517C9.60156 77.6457 9.99563 78.5993 10.6974 79.3033C11.0453 79.6517 11.4586 79.9279 11.9136 80.1161C12.3686 80.3043 12.8563 80.4007 13.3487 80.3998C13.8412 80.4008 14.329 80.3045 14.7841 80.1163C15.2393 79.9281 15.6527 79.6518 16.0007 79.3033L16.5309 78.773L15.4704 77.7125L14.9402 78.2428C14.5175 78.6636 13.9454 78.8998 13.349 78.8998C12.7527 78.8998 12.1806 78.6636 11.7579 78.2428C11.3368 77.8203 11.1003 77.2482 11.1003 76.6517C11.1003 76.0552 11.3368 75.483 11.7579 75.0605L13.3494 73.4698Z" fill="#52BEDA"></path><path d="M15.9999 68.6961L15.4697 69.2263L16.5302 70.2868L17.0604 69.7566C17.4831 69.3358 18.0552 69.0996 18.6515 69.0996C19.2479 69.0996 19.82 69.3358 20.2427 69.7566C20.6638 70.179 20.9003 70.7512 20.9003 71.3477C20.9003 71.9442 20.6638 72.5164 20.2427 72.9388L18.6512 74.5296C17.8014 75.3793 16.3194 75.3793 15.4697 74.5296L14.9394 73.9993L13.8789 75.0598L14.4092 75.5901C15.1164 76.2981 16.0584 76.6888 17.0604 76.6888C18.0624 76.6888 19.0044 76.2981 19.7117 75.5901L21.3032 73.9993C22.0049 73.2953 22.399 72.3418 22.399 71.3477C22.399 70.3536 22.0049 69.4001 21.3032 68.6961C20.5993 67.9939 19.6457 67.5996 18.6515 67.5996C17.6573 67.5996 16.7037 67.9939 15.9999 68.6961Z" fill="#52BEDA"></path><path d="M13.3494 102.47C14.1992 101.62 15.6812 101.62 16.5309 102.47L17.0612 103L18.1217 101.94L17.5914 101.409C16.8842 100.701 15.9422 100.311 14.9402 100.311C13.9382 100.311 12.9962 100.701 12.2889 101.409L10.6974 103C9.99563 103.704 9.60156 104.658 9.60156 105.652C9.60156 106.646 9.99563 107.599 10.6974 108.303C11.0453 108.652 11.4586 108.928 11.9136 109.116C12.3686 109.304 12.8563 109.401 13.3487 109.4C13.8412 109.401 14.329 109.304 14.7841 109.116C15.2393 108.928 15.6527 108.652 16.0007 108.303L16.5309 107.773L15.4704 106.713L14.9402 107.243C14.5175 107.664 13.9454 107.9 13.349 107.9C12.7527 107.9 12.1806 107.664 11.7579 107.243C11.3368 106.82 11.1003 106.248 11.1003 105.652C11.1003 105.055 11.3368 104.483 11.7579 104.061L13.3494 102.47Z" fill="#52BEDA"></path><path d="M15.9999 97.6961L15.4697 98.2263L16.5302 99.2868L17.0604 98.7566C17.4831 98.3358 18.0552 98.0996 18.6515 98.0996C19.2479 98.0996 19.82 98.3358 20.2427 98.7566C20.6638 99.179 20.9003 99.7512 20.9003 100.348C20.9003 100.944 20.6638 101.516 20.2427 101.939L18.6512 103.53C17.8014 104.379 16.3194 104.379 15.4697 103.53L14.9394 102.999L13.8789 104.06L14.4092 104.59C15.1164 105.298 16.0584 105.689 17.0604 105.689C18.0624 105.689 19.0044 105.298 19.7117 104.59L21.3032 102.999C22.0049 102.295 22.399 101.342 22.399 100.348C22.399 99.3536 22.0049 98.4001 21.3032 97.6961C20.5993 96.9939 19.6457 96.5996 18.6515 96.5996C17.6573 96.5996 16.7037 96.9939 15.9999 97.6961Z" fill="#52BEDA"></path><path opacity="0.3" d="M32.6675 17.3144C32.565 17.2219 32.407 17.23 32.3144 17.3325C32.2219 17.435 32.23 17.593 32.3325 17.6856L32.5 17.5L32.6675 17.3144ZM68.5128 50.2497C68.6506 50.2426 68.7567 50.1251 68.7497 49.9872L68.6349 47.7402C68.6278 47.6023 68.5103 47.4962 68.3724 47.5033C68.2345 47.5103 68.1285 47.6278 68.1355 47.7657L68.2376 49.7631L66.2402 49.8651C66.1023 49.8722 65.9962 49.9897 66.0033 50.1276C66.0103 50.2655 66.1278 50.3715 66.2657 50.3645L68.5128 50.2497ZM32.5 17.5L32.3325 17.6856L68.3325 50.1856L68.5 50L68.6675 49.8144L32.6675 17.3144L32.5 17.5Z" fill="#12284C"></path><path opacity="0.3" d="M32.6675 105.186C32.565 105.278 32.407 105.27 32.3144 105.168C32.2219 105.065 32.23 104.907 32.3325 104.814L32.5 105L32.6675 105.186ZM68.5128 72.2503C68.6506 72.2574 68.7567 72.3749 68.7497 72.5128L68.6349 74.7598C68.6278 74.8977 68.5103 75.0038 68.3724 74.9967C68.2345 74.9897 68.1285 74.8722 68.1355 74.7343L68.2376 72.7369L66.2402 72.6349C66.1023 72.6278 65.9962 72.5103 66.0033 72.3724C66.0103 72.2345 66.1278 72.1285 66.2657 72.1355L68.5128 72.2503ZM32.5 105L32.3325 104.814L68.3325 72.3144L68.5 72.5L68.6675 72.6856L32.6675 105.186L32.5 105Z" fill="#12284C"></path><path opacity="0.3" d="M32.5791 44.7628C32.4481 44.7192 32.3065 44.79 32.2628 44.9209C32.2192 45.0519 32.29 45.1935 32.4209 45.2372L32.5 45L32.5791 44.7628ZM68.6118 57.2236C68.7353 57.1619 68.7854 57.0117 68.7236 56.8882L67.7174 54.8757C67.6556 54.7522 67.5055 54.7022 67.382 54.7639C67.2585 54.8257 67.2084 54.9758 67.2702 55.0993L68.1646 56.8882L66.3757 57.7826C66.2522 57.8444 66.2022 57.9945 66.2639 58.118C66.3257 58.2415 66.4758 58.2916 66.5993 58.2298L68.6118 57.2236ZM32.5 45L32.4209 45.2372L68.4209 57.2372L68.5 57L68.5791 56.7628L32.5791 44.7628L32.5 45Z" fill="#12284C"></path><path opacity="0.3" d="M154.5 59.75C154.362 59.75 154.25 59.8619 154.25 60C154.25 60.1381 154.362 60.25 154.5 60.25V60V59.75ZM176.677 60.1768C176.774 60.0791 176.774 59.9209 176.677 59.8232L175.086 58.2322C174.988 58.1346 174.83 58.1346 174.732 58.2322C174.635 58.3299 174.635 58.4882 174.732 58.5858L176.146 60L174.732 61.4142C174.635 61.5118 174.635 61.6701 174.732 61.7678C174.83 61.8654 174.988 61.8654 175.086 61.7678L176.677 60.1768ZM154.5 60V60.25H176.5V60V59.75H154.5V60Z" fill="#12284C"></path><path opacity="0.3" d="M32.5791 75.2372C32.4481 75.2808 32.3065 75.21 32.2628 75.0791C32.2192 74.9481 32.29 74.8065 32.4209 74.7628L32.5 75L32.5791 75.2372ZM68.6118 62.7764C68.7353 62.8381 68.7854 62.9883 68.7236 63.1118L67.7174 65.1243C67.6556 65.2478 67.5055 65.2978 67.382 65.2361C67.2585 65.1743 67.2084 65.0242 67.2702 64.9007L68.1646 63.1118L66.3757 62.2174C66.2522 62.1556 66.2022 62.0055 66.2639 61.882C66.3257 61.7585 66.4758 61.7084 66.5993 61.7702L68.6118 62.7764ZM32.5 75L32.4209 74.7628L68.4209 62.7628L68.5 63L68.5791 63.2372L32.5791 75.2372L32.5 75Z" fill="#12284C"></path></svg> 