<?xml version="1.0" encoding="UTF-8"?> <svg xmlns="http://www.w3.org/2000/svg" width="39" height="40" viewBox="0 0 39 40" fill="none"><path d="M19.9305 1H19.921C9.44489 1 0.925781 9.52148 0.925781 20C0.925781 24.1562 2.26528 28.0084 4.5429 31.1363L2.17503 38.1948L9.47814 35.8602C12.4825 37.8504 16.0664 38.9999 19.9305 38.9999C30.4066 38.9999 38.9257 30.4761 38.9257 20C38.9257 9.52386 30.4066 1 19.9305 1ZM30.9861 27.8303C30.5277 29.1247 28.7085 30.1982 27.2573 30.5117C26.2646 30.7231 24.9678 30.8917 20.6026 29.0819C15.019 26.7687 11.4233 21.0948 11.143 20.7267C10.8746 20.3586 8.88676 17.7223 8.88676 14.9958C8.88676 12.2693 10.2714 10.9417 10.8295 10.3717C11.2879 9.90385 12.0455 9.6901 12.7723 9.6901C13.0074 9.6901 13.2188 9.70198 13.4088 9.71148C13.9669 9.73523 14.2471 9.76848 14.6152 10.6496C15.0736 11.754 16.1899 14.4805 16.3229 14.7607C16.4582 15.041 16.5936 15.421 16.4036 15.7891C16.2255 16.1691 16.0687 16.3377 15.7885 16.6607C15.5082 16.9837 15.2422 17.2307 14.962 17.5775C14.7055 17.8791 14.4157 18.2021 14.7387 18.7602C15.0617 19.3065 16.178 21.1281 17.8215 22.5911C19.9424 24.4792 21.6619 25.0824 22.277 25.3389C22.7354 25.5289 23.2816 25.4838 23.6165 25.1276C24.0416 24.6692 24.5665 23.9092 25.1008 23.1611C25.4808 22.6243 25.9606 22.5578 26.4641 22.7478C26.9771 22.9259 29.6917 24.2678 30.2498 24.5457C30.808 24.8259 31.1761 24.9589 31.3115 25.1941C31.4445 25.4292 31.4445 26.5336 30.9861 27.8303Z" fill="#182849"></path></svg> 