<?xml version="1.0" encoding="UTF-8"?> <svg xmlns="http://www.w3.org/2000/svg" width="20" height="20" viewBox="0 0 20 20" fill="none"><g clip-path="url(#clip0_2820_5153)"><mask id="mask0_2820_5153" style="mask-type:luminance" maskUnits="userSpaceOnUse" x="0" y="0" width="20" height="20"><path d="M20 0H0V20H20V0Z" fill="white"></path></mask><g mask="url(#mask0_2820_5153)"><mask id="mask1_2820_5153" style="mask-type:luminance" maskUnits="userSpaceOnUse" x="0" y="0" width="20" height="20"><path d="M20 0H0V20H20V0Z" fill="white"></path></mask><g mask="url(#mask1_2820_5153)"><path fill-rule="evenodd" clip-rule="evenodd" d="M0.25 10C0.25 4.61523 4.61523 0.25 10 0.25C15.3848 0.25 19.75 4.61523 19.75 10C19.75 15.3848 15.3848 19.75 10 19.75C4.61523 19.75 0.25 15.3848 0.25 10Z" fill="url(#paint0_linear_2820_5153)"></path><path fill-rule="evenodd" clip-rule="evenodd" d="M13.5303 7.96967C13.8232 8.26256 13.8232 8.73744 13.5303 9.03033L9.78033 12.7803C9.48744 13.0732 9.01256 13.0732 8.71967 12.7803L6.46967 10.5303C6.17678 10.2374 6.17678 9.76256 6.46967 9.46967C6.76256 9.17678 7.23744 9.17678 7.53033 9.46967L9.25 11.1893L12.4697 7.96967C12.7626 7.67678 13.2374 7.67678 13.5303 7.96967Z" fill="white"></path></g></g></g><defs><linearGradient id="paint0_linear_2820_5153" x1="2.28125" y1="3.39516" x2="21.1674" y2="6.86106" gradientUnits="userSpaceOnUse"><stop stop-color="#407BFF"></stop><stop offset="1" stop-color="#416CCD"></stop></linearGradient><clipPath id="clip0_2820_5153"><rect width="20" height="20" fill="white"></rect></clipPath></defs></svg> 