<?xml version="1.0" encoding="UTF-8"?> <svg xmlns="http://www.w3.org/2000/svg" width="39" height="39" viewBox="0 0 39 39" fill="none"><path d="M19.9305 0.5H19.921C9.44489 0.5 0.925781 9.02148 0.925781 19.5C0.925781 23.6562 2.26528 27.5084 4.5429 30.6363L2.17503 37.6948L9.47814 35.3602C12.4825 37.3504 16.0664 38.4999 19.9305 38.4999C30.4066 38.4999 38.9257 29.9761 38.9257 19.5C38.9257 9.02386 30.4066 0.5 19.9305 0.5ZM30.9861 27.3303C30.5277 28.6247 28.7085 29.6982 27.2573 30.0117C26.2646 30.2231 24.9678 30.3917 20.6026 28.5819C15.019 26.2687 11.4233 20.5948 11.143 20.2267C10.8746 19.8586 8.88676 17.2223 8.88676 14.4958C8.88676 11.7693 10.2714 10.4417 10.8295 9.87173C11.2879 9.40385 12.0455 9.1901 12.7723 9.1901C13.0074 9.1901 13.2188 9.20198 13.4088 9.21148C13.9669 9.23523 14.2471 9.26848 14.6152 10.1496C15.0736 11.254 16.1899 13.9805 16.3229 14.2607C16.4582 14.541 16.5936 14.921 16.4036 15.2891C16.2255 15.6691 16.0687 15.8377 15.7885 16.1607C15.5082 16.4837 15.2422 16.7307 14.962 17.0775C14.7055 17.3791 14.4157 17.7021 14.7387 18.2602C15.0617 18.8065 16.178 20.6281 17.8215 22.0911C19.9424 23.9792 21.6619 24.5824 22.277 24.8389C22.7354 25.0289 23.2816 24.9838 23.6165 24.6276C24.0416 24.1692 24.5665 23.4092 25.1008 22.6611C25.4808 22.1243 25.9606 22.0578 26.4641 22.2478C26.9771 22.4259 29.6917 23.7678 30.2498 24.0457C30.808 24.3259 31.1761 24.4589 31.3115 24.6941C31.4445 24.9292 31.4445 26.0336 30.9861 27.3303Z" fill="white"></path></svg> 