<?xml version="1.0" encoding="UTF-8"?> <svg xmlns="http://www.w3.org/2000/svg" viewBox="5806.5 5590.25 44.26416015625 35.5517578125"><path fill="url(#tSvgGradient5b8b98e7f2)" fill-opacity="1" stroke="" stroke-opacity="1" stroke-width="1" fill-rule="evenodd" id="tSvg4b54f7ddb5" d="M 5845.348 5594.482 C 5811.916 5594.482 5811.916 5594.482 5811.916 5594.482 C 5809.484 5594.482 5807.5 5596.466 5807.5 5598.898 C 5807.5 5620.386 5807.5 5620.386 5807.5 5620.386 C 5807.5 5622.81 5809.484 5624.802 5811.916 5624.802 C 5845.348 5624.802 5845.348 5624.802 5845.348 5624.802 C 5847.772 5624.802 5849.764 5622.818 5849.764 5620.386 C 5849.764 5598.898 5849.764 5598.898 5849.764 5598.898 C 5849.764 5596.474 5847.78 5594.482 5845.348 5594.482Z M 5817.404 5605.538 C 5817.404 5606.202 5816.86 5606.746 5816.196 5606.746 C 5812.94 5606.746 5812.94 5606.746 5812.94 5606.746 C 5812.276 5606.746 5811.732 5606.202 5811.732 5605.538 C 5811.732 5602.73 5811.732 5602.73 5811.732 5602.73 C 5811.732 5602.066 5812.276 5601.522 5812.94 5601.522 C 5816.196 5601.522 5816.196 5601.522 5816.196 5601.522 C 5816.86 5601.522 5817.404 5602.066 5817.404 5602.73 C 5817.404 5605.538 5817.404 5605.538 5817.404 5605.538"></path><path fill="url(#tSvgGradientbe71dfba0a)" fill-opacity="1" stroke="" stroke-opacity="1" stroke-width="1" fill-rule="evenodd" id="tSvg18bdebf3155" d="M 5814.668 5591.25 C 5814.66 5591.25 5814.66 5591.25 5814.66 5591.25 C 5813.9487 5591.25 5813.372 5591.82666 5813.372 5592.538 C 5813.372 5596.994 5813.372 5596.994 5813.372 5596.994 C 5813.372 5597.7053 5813.9487 5598.282 5814.66 5598.282 C 5814.668 5598.282 5814.668 5598.282 5814.668 5598.282 C 5815.3793 5598.282 5815.956 5597.7053 5815.956 5596.994 C 5815.956 5592.538 5815.956 5592.538 5815.956 5592.538 C 5815.956 5591.82666 5815.3793 5591.25 5814.668 5591.25Z"></path><path fill="url(#tSvgGradient1acc38048d)" fill-opacity="1" stroke="" stroke-opacity="1" stroke-width="1" fill-rule="evenodd" id="tSvg402f5f6d7f" d="M 5819.324 5591.25 C 5819.316 5591.25 5819.316 5591.25 5819.316 5591.25 C 5818.6047 5591.25 5818.028 5591.82666 5818.028 5592.538 C 5818.028 5596.994 5818.028 5596.994 5818.028 5596.994 C 5818.028 5597.7053 5818.6047 5598.282 5819.316 5598.282 C 5819.324 5598.282 5819.324 5598.282 5819.324 5598.282 C 5820.0353 5598.282 5820.612 5597.7053 5820.612 5596.994 C 5820.612 5592.538 5820.612 5592.538 5820.612 5592.538 C 5820.612 5591.82666 5820.0353 5591.25 5819.324 5591.25Z"></path><path fill="url(#tSvgGradient1dda9d857d)" fill-opacity="1" stroke="" stroke-opacity="1" stroke-width="1" fill-rule="evenodd" id="tSvg3e948d5dd4" d="M 5823.98 5591.25 C 5823.972 5591.25 5823.972 5591.25 5823.972 5591.25 C 5823.2607 5591.25 5822.684 5591.82666 5822.684 5592.538 C 5822.684 5596.994 5822.684 5596.994 5822.684 5596.994 C 5822.684 5597.7053 5823.2607 5598.282 5823.972 5598.282 C 5823.98 5598.282 5823.98 5598.282 5823.98 5598.282 C 5824.6913 5598.282 5825.268 5597.7053 5825.268 5596.994 C 5825.268 5592.538 5825.268 5592.538 5825.268 5592.538 C 5825.268 5591.82666 5824.6913 5591.25 5823.98 5591.25Z"></path><path fill="url(#tSvgGradient13124ae84de)" fill-opacity="1" stroke="" stroke-opacity="1" stroke-width="1" fill-rule="evenodd" id="tSvgd5486a1166" d="M 5828.636 5591.25 C 5828.628 5591.25 5828.628 5591.25 5828.628 5591.25 C 5827.9166 5591.25 5827.34 5591.82666 5827.34 5592.538 C 5827.34 5596.994 5827.34 5596.994 5827.34 5596.994 C 5827.34 5597.7053 5827.9166 5598.282 5828.628 5598.282 C 5828.636 5598.282 5828.636 5598.282 5828.636 5598.282 C 5829.3473 5598.282 5829.924 5597.7053 5829.924 5596.994 C 5829.924 5592.538 5829.924 5592.538 5829.924 5592.538 C 5829.924 5591.82666 5829.3473 5591.25 5828.636 5591.25Z"></path><path fill="url(#tSvgGradient1306bd81101)" fill-opacity="1" stroke="" stroke-opacity="1" stroke-width="1" fill-rule="evenodd" id="tSvg17bef378abb" d="M 5833.292 5591.25 C 5833.284 5591.25 5833.284 5591.25 5833.284 5591.25 C 5832.5726 5591.25 5831.996 5591.82666 5831.996 5592.538 C 5831.996 5596.994 5831.996 5596.994 5831.996 5596.994 C 5831.996 5597.7053 5832.5726 5598.282 5833.284 5598.282 C 5833.292 5598.282 5833.292 5598.282 5833.292 5598.282 C 5834.0033 5598.282 5834.58 5597.7053 5834.58 5596.994 C 5834.58 5592.538 5834.58 5592.538 5834.58 5592.538 C 5834.58 5591.82666 5834.0033 5591.25 5833.292 5591.25Z"></path><path fill="url(#tSvgGradient1be754cdca)" fill-opacity="1" stroke="" stroke-opacity="1" stroke-width="1" fill-rule="evenodd" id="tSvg4c05f6700e" d="M 5837.948 5591.25 C 5837.94 5591.25 5837.94 5591.25 5837.94 5591.25 C 5837.2287 5591.25 5836.652 5591.82666 5836.652 5592.538 C 5836.652 5596.994 5836.652 5596.994 5836.652 5596.994 C 5836.652 5597.7053 5837.2287 5598.282 5837.94 5598.282 C 5837.948 5598.282 5837.948 5598.282 5837.948 5598.282 C 5838.6593 5598.282 5839.236 5597.7053 5839.236 5596.994 C 5839.236 5592.538 5839.236 5592.538 5839.236 5592.538 C 5839.236 5591.82666 5838.6593 5591.25 5837.948 5591.25Z"></path><path fill="url(#tSvgGradient1614b1f276)" fill-opacity="1" stroke="" stroke-opacity="1" stroke-width="1" fill-rule="evenodd" id="tSvg10d66a8b439" d="M 5842.612 5591.25 C 5842.604 5591.25 5842.604 5591.25 5842.604 5591.25 C 5841.8926 5591.25 5841.316 5591.82666 5841.316 5592.538 C 5841.316 5596.994 5841.316 5596.994 5841.316 5596.994 C 5841.316 5597.7053 5841.8926 5598.282 5842.604 5598.282 C 5842.612 5598.282 5842.612 5598.282 5842.612 5598.282 C 5843.3233 5598.282 5843.9 5597.7053 5843.9 5596.994 C 5843.9 5592.538 5843.9 5592.538 5843.9 5592.538 C 5843.9 5591.82666 5843.3233 5591.25 5842.612 5591.25Z"></path><path fill="url(#tSvgGradient173620b5193)" fill-opacity="1" stroke="" stroke-opacity="1" stroke-width="1" fill-rule="evenodd" id="tSvg1112100771d" d="M 5823.228 5601.514 C 5819.972 5601.514 5819.972 5601.514 5819.972 5601.514 C 5819.3049 5601.514 5818.764 5602.0549 5818.764 5602.722 C 5818.764 5605.53 5818.764 5605.53 5818.764 5605.53 C 5818.764 5606.1972 5819.3049 5606.738 5819.972 5606.738 C 5823.228 5606.738 5823.228 5606.738 5823.228 5606.738 C 5823.8952 5606.738 5824.436 5606.1972 5824.436 5605.53 C 5824.436 5602.722 5824.436 5602.722 5824.436 5602.722 C 5824.436 5602.0549 5823.8952 5601.514 5823.228 5601.514Z"></path><path fill="url(#tSvgGradientf460832a26)" fill-opacity="1" stroke="" stroke-opacity="1" stroke-width="1" fill-rule="evenodd" id="tSvg154ff616fdc" d="M 5830.26 5601.514 C 5827.004 5601.514 5827.004 5601.514 5827.004 5601.514 C 5826.3368 5601.514 5825.796 5602.0549 5825.796 5602.722 C 5825.796 5605.53 5825.796 5605.53 5825.796 5605.53 C 5825.796 5606.1972 5826.3368 5606.738 5827.004 5606.738 C 5830.26 5606.738 5830.26 5606.738 5830.26 5606.738 C 5830.9272 5606.738 5831.468 5606.1972 5831.468 5605.53 C 5831.468 5602.722 5831.468 5602.722 5831.468 5602.722 C 5831.468 5602.0549 5830.9272 5601.514 5830.26 5601.514Z"></path><path fill="url(#tSvgGradient50e5beb74f)" fill-opacity="1" stroke="" stroke-opacity="1" stroke-width="1" fill-rule="evenodd" id="tSvg16ab1554c5b" d="M 5837.292 5601.514 C 5834.036 5601.514 5834.036 5601.514 5834.036 5601.514 C 5833.3688 5601.514 5832.828 5602.0549 5832.828 5602.722 C 5832.828 5605.53 5832.828 5605.53 5832.828 5605.53 C 5832.828 5606.1972 5833.3688 5606.738 5834.036 5606.738 C 5837.292 5606.738 5837.292 5606.738 5837.292 5606.738 C 5837.9592 5606.738 5838.5 5606.1972 5838.5 5605.53 C 5838.5 5602.722 5838.5 5602.722 5838.5 5602.722 C 5838.5 5602.0549 5837.9592 5601.514 5837.292 5601.514Z"></path><path fill="url(#tSvgGradient3b150376c5)" fill-opacity="1" stroke="" stroke-opacity="1" stroke-width="1" fill-rule="evenodd" id="tSvg56f31f3c2d" d="M 5844.324 5601.514 C 5841.068 5601.514 5841.068 5601.514 5841.068 5601.514 C 5840.4009 5601.514 5839.86 5602.0549 5839.86 5602.722 C 5839.86 5605.53 5839.86 5605.53 5839.86 5605.53 C 5839.86 5606.1972 5840.4009 5606.738 5841.068 5606.738 C 5844.324 5606.738 5844.324 5606.738 5844.324 5606.738 C 5844.9912 5606.738 5845.532 5606.1972 5845.532 5605.53 C 5845.532 5602.722 5845.532 5602.722 5845.532 5602.722 C 5845.532 5602.0549 5844.9912 5601.514 5844.324 5601.514Z"></path><path fill="url(#tSvgGradientfb14e3a0f5)" fill-opacity="1" stroke="" stroke-opacity="1" stroke-width="1" fill-rule="evenodd" id="tSvg133be815c9f" d="M 5816.196 5608.17 C 5812.94 5608.17 5812.94 5608.17 5812.94 5608.17 C 5812.27285 5608.17 5811.73201 5608.7109 5811.73201 5609.378 C 5811.73201 5612.186 5811.73201 5612.186 5811.73201 5612.186 C 5811.73201 5612.8532 5812.27285 5613.394 5812.94 5613.394 C 5816.196 5613.394 5816.196 5613.394 5816.196 5613.394 C 5816.8632 5613.394 5817.404 5612.8532 5817.404 5612.186 C 5817.404 5609.378 5817.404 5609.378 5817.404 5609.378 C 5817.404 5608.7109 5816.8632 5608.17 5816.196 5608.17Z"></path><path fill="url(#tSvgGradient1058b10b1d4)" fill-opacity="1" stroke="" stroke-opacity="1" stroke-width="1" fill-rule="evenodd" id="tSvgc9cbfe920" d="M 5823.228 5608.17 C 5819.972 5608.17 5819.972 5608.17 5819.972 5608.17 C 5819.3049 5608.17 5818.764 5608.7109 5818.764 5609.378 C 5818.764 5612.186 5818.764 5612.186 5818.764 5612.186 C 5818.764 5612.8532 5819.3049 5613.394 5819.972 5613.394 C 5823.228 5613.394 5823.228 5613.394 5823.228 5613.394 C 5823.8952 5613.394 5824.436 5612.8532 5824.436 5612.186 C 5824.436 5609.378 5824.436 5609.378 5824.436 5609.378 C 5824.436 5608.7109 5823.8952 5608.17 5823.228 5608.17Z"></path><path fill="url(#tSvgGradientbc3e3da886)" fill-opacity="1" stroke="" stroke-opacity="1" stroke-width="1" fill-rule="evenodd" id="tSvg14d116b11ca" d="M 5830.26 5608.17 C 5827.004 5608.17 5827.004 5608.17 5827.004 5608.17 C 5826.3368 5608.17 5825.796 5608.7109 5825.796 5609.378 C 5825.796 5612.186 5825.796 5612.186 5825.796 5612.186 C 5825.796 5612.8532 5826.3368 5613.394 5827.004 5613.394 C 5830.26 5613.394 5830.26 5613.394 5830.26 5613.394 C 5830.9272 5613.394 5831.468 5612.8532 5831.468 5612.186 C 5831.468 5609.378 5831.468 5609.378 5831.468 5609.378 C 5831.468 5608.7109 5830.9272 5608.17 5830.26 5608.17Z"></path><path fill="url(#tSvgGradientfaa9638901)" fill-opacity="1" stroke="" stroke-opacity="1" stroke-width="1" fill-rule="evenodd" id="tSvg153800552ac" d="M 5837.292 5608.17 C 5834.036 5608.17 5834.036 5608.17 5834.036 5608.17 C 5833.3688 5608.17 5832.828 5608.7109 5832.828 5609.378 C 5832.828 5612.186 5832.828 5612.186 5832.828 5612.186 C 5832.828 5612.8532 5833.3688 5613.394 5834.036 5613.394 C 5837.292 5613.394 5837.292 5613.394 5837.292 5613.394 C 5837.9592 5613.394 5838.5 5612.8532 5838.5 5612.186 C 5838.5 5609.378 5838.5 5609.378 5838.5 5609.378 C 5838.5 5608.7109 5837.9592 5608.17 5837.292 5608.17Z"></path><path fill="url(#tSvgGradient1289d48814f)" fill-opacity="1" stroke="" stroke-opacity="1" stroke-width="1" fill-rule="evenodd" id="tSvg17a54b73675" d="M 5844.324 5608.17 C 5841.068 5608.17 5841.068 5608.17 5841.068 5608.17 C 5840.4009 5608.17 5839.86 5608.7109 5839.86 5609.378 C 5839.86 5612.186 5839.86 5612.186 5839.86 5612.186 C 5839.86 5612.8532 5840.4009 5613.394 5841.068 5613.394 C 5844.324 5613.394 5844.324 5613.394 5844.324 5613.394 C 5844.9912 5613.394 5845.532 5612.8532 5845.532 5612.186 C 5845.532 5609.378 5845.532 5609.378 5845.532 5609.378 C 5845.532 5608.7109 5844.9912 5608.17 5844.324 5608.17Z"></path><path fill="url(#tSvgGradientff82cfc32d)" fill-opacity="1" stroke="" stroke-opacity="1" stroke-width="1" fill-rule="evenodd" id="tSvg147d685bb5d" d="M 5816.196 5614.826 C 5812.94 5614.826 5812.94 5614.826 5812.94 5614.826 C 5812.27285 5614.826 5811.73201 5615.3668 5811.73201 5616.034 C 5811.73201 5618.842 5811.73201 5618.842 5811.73201 5618.842 C 5811.73201 5619.5092 5812.27285 5620.05 5812.94 5620.05 C 5816.196 5620.05 5816.196 5620.05 5816.196 5620.05 C 5816.8632 5620.05 5817.404 5619.5092 5817.404 5618.842 C 5817.404 5616.034 5817.404 5616.034 5817.404 5616.034 C 5817.404 5615.3668 5816.8632 5614.826 5816.196 5614.826Z"></path><path fill="url(#tSvgGradientbbc71bce03)" fill-opacity="1" stroke="" stroke-opacity="1" stroke-width="1" fill-rule="evenodd" id="tSvg13d827c445f" d="M 5823.228 5614.826 C 5819.972 5614.826 5819.972 5614.826 5819.972 5614.826 C 5819.3049 5614.826 5818.764 5615.3668 5818.764 5616.034 C 5818.764 5618.842 5818.764 5618.842 5818.764 5618.842 C 5818.764 5619.5092 5819.3049 5620.05 5819.972 5620.05 C 5823.228 5620.05 5823.228 5620.05 5823.228 5620.05 C 5823.8952 5620.05 5824.436 5619.5092 5824.436 5618.842 C 5824.436 5616.034 5824.436 5616.034 5824.436 5616.034 C 5824.436 5615.3668 5823.8952 5614.826 5823.228 5614.826Z"></path><path fill="url(#tSvgGradient12e2d0bfb49)" fill-opacity="1" stroke="" stroke-opacity="1" stroke-width="1" fill-rule="evenodd" id="tSvg133ae6e8606" d="M 5830.26 5614.826 C 5827.004 5614.826 5827.004 5614.826 5827.004 5614.826 C 5826.3368 5614.826 5825.796 5615.3668 5825.796 5616.034 C 5825.796 5618.842 5825.796 5618.842 5825.796 5618.842 C 5825.796 5619.5092 5826.3368 5620.05 5827.004 5620.05 C 5830.26 5620.05 5830.26 5620.05 5830.26 5620.05 C 5830.9272 5620.05 5831.468 5619.5092 5831.468 5618.842 C 5831.468 5616.034 5831.468 5616.034 5831.468 5616.034 C 5831.468 5615.3668 5830.9272 5614.826 5830.26 5614.826Z"></path><path fill="url(#tSvgGradient1396928240b)" fill-opacity="1" stroke="" stroke-opacity="1" stroke-width="1" fill-rule="evenodd" id="tSvg136db234349" d="M 5837.292 5614.826 C 5834.036 5614.826 5834.036 5614.826 5834.036 5614.826 C 5833.3688 5614.826 5832.828 5615.3668 5832.828 5616.034 C 5832.828 5618.842 5832.828 5618.842 5832.828 5618.842 C 5832.828 5619.5092 5833.3688 5620.05 5834.036 5620.05 C 5837.292 5620.05 5837.292 5620.05 5837.292 5620.05 C 5837.9592 5620.05 5838.5 5619.5092 5838.5 5618.842 C 5838.5 5616.034 5838.5 5616.034 5838.5 5616.034 C 5838.5 5615.3668 5837.9592 5614.826 5837.292 5614.826Z"></path><path fill="url(#tSvgGradient9352235104)" fill-opacity="1" stroke="" stroke-opacity="1" stroke-width="1" fill-rule="evenodd" id="tSvg9cd4665f62" d="M 5844.324 5614.826 C 5841.068 5614.826 5841.068 5614.826 5841.068 5614.826 C 5840.4009 5614.826 5839.86 5615.3668 5839.86 5616.034 C 5839.86 5618.842 5839.86 5618.842 5839.86 5618.842 C 5839.86 5619.5092 5840.4009 5620.05 5841.068 5620.05 C 5844.324 5620.05 5844.324 5620.05 5844.324 5620.05 C 5844.9912 5620.05 5845.532 5619.5092 5845.532 5618.842 C 5845.532 5616.034 5845.532 5616.034 5845.532 5616.034 C 5845.532 5615.3668 5844.9912 5614.826 5844.324 5614.826Z"></path><defs><linearGradient id="tSvgGradient9c68d3a220" x1="0.9999958599483391" x2="0.0002514575539899656" y1="0.5000019228303924" y2="0.5000019228303924" gradientTransform=""><stop offset="0.00" stop-color="hsl(252.71999999999997,94.44%,64.71000000000001%)" stop-opacity="1.00"></stop><stop offset="1.00" stop-color="hsl(184.49999999999997,53.23%,60.589999999999996%)" stop-opacity="1.00"></stop></linearGradient><linearGradient id="tSvgGradient15dbbb85001" x1="0.00015577881898751805" x2="0.9998429296569848" y1="0.49977931680947446" y2="0.49977931680947446" gradientTransform=""><stop offset="0.00" stop-color="hsl(252.71999999999997,94.44%,64.71000000000001%)" stop-opacity="1.00"></stop><stop offset="1.00" stop-color="hsl(184.49999999999997,53.23%,60.589999999999996%)" stop-opacity="1.00"></stop></linearGradient><linearGradient id="tSvgGradient1303d55b379" x1="0.0035569892264902593" x2="1.0958236558983723" y1="0.4936833225314432" y2="0.4936833225314432" gradientTransform=""><stop offset="0.00" stop-color="hsl(252.71999999999997,94.44%,64.71000000000001%)" stop-opacity="1.00"></stop><stop offset="1.00" stop-color="hsl(184.49999999999997,53.23%,60.589999999999996%)" stop-opacity="1.00"></stop></linearGradient><linearGradient id="tSvgGradient11aae8effc7" x1="-0.4372523719554438" x2="1.0083946868339007" y1="0.5002427312399728" y2="0.5002427312399728" gradientTransform=""><stop offset="0.00" stop-color="hsl(252.71999999999997,94.44%,64.71000000000001%)" stop-opacity="1.00"></stop><stop offset="1.00" stop-color="hsl(184.49999999999997,53.23%,60.589999999999996%)" stop-opacity="1.00"></stop></linearGradient><linearGradient id="tSvgGradient128a5ee28c" x1="0.00005048955608928686" x2="1.0000675229127876" y1="0.5000278878439349" y2="0.5000278878439349" gradientTransform=""><stop offset="0.00" stop-color="hsl(252.71999999999997,94.44%,64.71000000000001%)" stop-opacity="1.00"></stop><stop offset="1.00" stop-color="hsl(184.49999999999997,53.23%,60.589999999999996%)" stop-opacity="1.00"></stop></linearGradient><linearGradient id="tSvgGradient5b8b98e7f2" x1="0" x2="0.9999962105895567" y1="0.5000050889765624" y2="0.5000050889765624" gradientTransform=""><stop offset="0" stop-color="hsl(252.71999999999997,94.44%,64.71000000000001%)" stop-opacity="1"></stop><stop offset="1" stop-color="hsl(184.49999999999997,53.23%,60.589999999999996%)" stop-opacity="1"></stop></linearGradient><linearGradient id="tSvgGradientbe71dfba0a" x1="-0.000027210884238294102" x2="0.9968828420258231" y1="0.5005527010138102" y2="0.5005527010138102" gradientTransform=""><stop offset="0" stop-color="hsl(252.71999999999997,94.44%,64.71000000000001%)" stop-opacity="1"></stop><stop offset="1" stop-color="hsl(184.49999999999997,53.23%,60.589999999999996%)" stop-opacity="1"></stop></linearGradient><linearGradient id="tSvgGradient1acc38048d" x1="0.00006500377938523044" x2="0.9969750566894466" y1="0.5005527010138102" y2="0.5005527010138102" gradientTransform=""><stop offset="0" stop-color="hsl(252.71999999999997,94.44%,64.71000000000001%)" stop-opacity="1"></stop><stop offset="1" stop-color="hsl(184.49999999999997,53.23%,60.589999999999996%)" stop-opacity="1"></stop></linearGradient><linearGradient id="tSvgGradient1dda9d857d" x1="-0.000031746031670005415" x2="0.999974300831455" y1="0.5005527010138102" y2="0.5005527010138102" gradientTransform=""><stop offset="0" stop-color="hsl(252.71999999999997,94.44%,64.71000000000001%)" stop-opacity="1"></stop><stop offset="1" stop-color="hsl(184.49999999999997,53.23%,60.589999999999996%)" stop-opacity="1"></stop></linearGradient><linearGradient id="tSvgGradient13124ae84de" x1="0.00006046863195351913" x2="1.0000665154950785" y1="0.5005527010138102" y2="0.5005527010138102" gradientTransform=""><stop offset="0" stop-color="hsl(252.71999999999997,94.44%,64.71000000000001%)" stop-opacity="1"></stop><stop offset="1" stop-color="hsl(184.49999999999997,53.23%,60.589999999999996%)" stop-opacity="1"></stop></linearGradient><linearGradient id="tSvgGradient1306bd81101" x1="-0.00003628117910171673" x2="0.9999697656840233" y1="0.5005527010138102" y2="0.5005527010138102" gradientTransform=""><stop offset="0" stop-color="hsl(252.71999999999997,94.44%,64.71000000000001%)" stop-opacity="1"></stop><stop offset="1" stop-color="hsl(184.49999999999997,53.23%,60.589999999999996%)" stop-opacity="1"></stop></linearGradient><linearGradient id="tSvgGradient1be754cdca" x1="0.000055933484521807815" x2="1.0000619803476467" y1="0.5005527010138102" y2="0.5005527010138102" gradientTransform=""><stop offset="0" stop-color="hsl(252.71999999999997,94.44%,64.71000000000001%)" stop-opacity="1"></stop><stop offset="1" stop-color="hsl(184.49999999999997,53.23%,60.589999999999996%)" stop-opacity="1"></stop></linearGradient><linearGradient id="tSvgGradient1614b1f276" x1="0.000031746031670005415" x2="0.9969417989417314" y1="0.5005527010138102" y2="0.5005527010138102" gradientTransform=""><stop offset="0" stop-color="hsl(252.71999999999997,94.44%,64.71000000000001%)" stop-opacity="1"></stop><stop offset="1" stop-color="hsl(184.49999999999997,53.23%,60.589999999999996%)" stop-opacity="1"></stop></linearGradient><linearGradient id="tSvgGradient173620b5193" x1="-0.000028236914578743134" x2="0.9999938016528387" y1="0.5007702374275774" y2="0.5007702374275774" gradientTransform=""><stop offset="0" stop-color="hsl(252.71999999999997,94.44%,64.71000000000001%)" stop-opacity="1"></stop><stop offset="1" stop-color="hsl(184.49999999999997,53.23%,60.589999999999996%)" stop-opacity="1"></stop></linearGradient><linearGradient id="tSvgGradientf460832a26" x1="0.000017906336136901182" x2="1.0000399449035544" y1="0.5007702374275774" y2="0.5007702374275774" gradientTransform=""><stop offset="0" stop-color="hsl(252.71999999999997,94.44%,64.71000000000001%)" stop-opacity="1"></stop><stop offset="1" stop-color="hsl(184.49999999999997,53.23%,60.589999999999996%)" stop-opacity="1"></stop></linearGradient><linearGradient id="tSvgGradient50e5beb74f" x1="-0.000022038567417426953" x2="1" y1="0.5007702374275774" y2="0.5007702374275774" gradientTransform=""><stop offset="0" stop-color="hsl(252.71999999999997,94.44%,64.71000000000001%)" stop-opacity="1"></stop><stop offset="1" stop-color="hsl(184.49999999999997,53.23%,60.589999999999996%)" stop-opacity="1"></stop></linearGradient><linearGradient id="tSvgGradient3b150376c5" x1="0.000024102608188813612" x2="0.9999600585349326" y1="0.5007702374275774" y2="0.5007702374275774" gradientTransform=""><stop offset="0" stop-color="hsl(252.71999999999997,94.44%,64.71000000000001%)" stop-opacity="1"></stop><stop offset="1" stop-color="hsl(184.49999999999997,53.23%,60.589999999999996%)" stop-opacity="1"></stop></linearGradient><linearGradient id="tSvgGradientfb14e3a0f5" x1="0.000013471074330494752" x2="1.0000337465565534" y1="0.5007690438358836" y2="0.5007690438358836" gradientTransform=""><stop offset="0" stop-color="hsl(252.71999999999997,94.44%,64.71000000000001%)" stop-opacity="1"></stop><stop offset="1" stop-color="hsl(184.49999999999997,53.23%,60.589999999999996%)" stop-opacity="1"></stop></linearGradient><linearGradient id="tSvgGradient1058b10b1d4" x1="-0.000028236914578743134" x2="0.9999938016528387" y1="0.5007690438358836" y2="0.5007690438358836" gradientTransform=""><stop offset="0" stop-color="hsl(252.71999999999997,94.44%,64.71000000000001%)" stop-opacity="1"></stop><stop offset="1" stop-color="hsl(184.49999999999997,53.23%,60.589999999999996%)" stop-opacity="1"></stop></linearGradient><linearGradient id="tSvgGradientbc3e3da886" x1="0.000017906336136901182" x2="1.0000399449035544" y1="0.5007690438358836" y2="0.5007690438358836" gradientTransform=""><stop offset="0" stop-color="hsl(252.71999999999997,94.44%,64.71000000000001%)" stop-opacity="1"></stop><stop offset="1" stop-color="hsl(184.49999999999997,53.23%,60.589999999999996%)" stop-opacity="1"></stop></linearGradient><linearGradient id="tSvgGradientfaa9638901" x1="-0.000022038567417426953" x2="1" y1="0.5007690438358836" y2="0.5007690438358836" gradientTransform=""><stop offset="0" stop-color="hsl(252.71999999999997,94.44%,64.71000000000001%)" stop-opacity="1"></stop><stop offset="1" stop-color="hsl(184.49999999999997,53.23%,60.589999999999996%)" stop-opacity="1"></stop></linearGradient><linearGradient id="tSvgGradient1289d48814f" x1="0.000024102608188813612" x2="0.9999600585349326" y1="0.5007690438358836" y2="0.5007690438358836" gradientTransform=""><stop offset="0" stop-color="hsl(252.71999999999997,94.44%,64.71000000000001%)" stop-opacity="1"></stop><stop offset="1" stop-color="hsl(184.49999999999997,53.23%,60.589999999999996%)" stop-opacity="1"></stop></linearGradient><linearGradient id="tSvgGradientff82cfc32d" x1="0.000013471074330494752" x2="1.0000337465565534" y1="0.4992364928024306" y2="0.4992364928024306" gradientTransform=""><stop offset="0" stop-color="hsl(252.71999999999997,94.44%,64.71000000000001%)" stop-opacity="1"></stop><stop offset="1" stop-color="hsl(184.49999999999997,53.23%,60.589999999999996%)" stop-opacity="1"></stop></linearGradient><linearGradient id="tSvgGradientbbc71bce03" x1="-0.000028236914578743134" x2="0.9999938016528387" y1="0.4992364928024306" y2="0.4992364928024306" gradientTransform=""><stop offset="0" stop-color="hsl(252.71999999999997,94.44%,64.71000000000001%)" stop-opacity="1"></stop><stop offset="1" stop-color="hsl(184.49999999999997,53.23%,60.589999999999996%)" stop-opacity="1"></stop></linearGradient><linearGradient id="tSvgGradient12e2d0bfb49" x1="0.000017906336136901182" x2="1.0000399449035544" y1="0.4992364928024306" y2="0.4992364928024306" gradientTransform=""><stop offset="0" stop-color="hsl(252.71999999999997,94.44%,64.71000000000001%)" stop-opacity="1"></stop><stop offset="1" stop-color="hsl(184.49999999999997,53.23%,60.589999999999996%)" stop-opacity="1"></stop></linearGradient><linearGradient id="tSvgGradient1396928240b" x1="-0.000022038567417426953" x2="1" y1="0.4992364928024306" y2="0.4992364928024306" gradientTransform=""><stop offset="0" stop-color="hsl(252.71999999999997,94.44%,64.71000000000001%)" stop-opacity="1"></stop><stop offset="1" stop-color="hsl(184.49999999999997,53.23%,60.589999999999996%)" stop-opacity="1"></stop></linearGradient><linearGradient id="tSvgGradient9352235104" x1="0.000024102608188813612" x2="0.9999600585349326" y1="0.4992364928024306" y2="0.4992364928024306" gradientTransform=""><stop offset="0" stop-color="hsl(252.71999999999997,94.44%,64.71000000000001%)" stop-opacity="1"></stop><stop offset="1" stop-color="hsl(184.49999999999997,53.23%,60.589999999999996%)" stop-opacity="1"></stop></linearGradient></defs></svg> 