<?xml version="1.0" encoding="UTF-8"?> <svg xmlns="http://www.w3.org/2000/svg" width="600" height="600" viewBox="0 0 600 600" fill="none"> <rect width="600" height="600" fill="#F4F4F5"></rect> <g clip-path="url(#clip0_588_406)"> <path d="M238.439 253.912L200.959 317.063V359.543C205.273 369.765 216.178 371.126 226.628 371.582V377.487H153.254V371.582C163.704 371.126 176.425 369.538 179.832 362.724V318.88L141.669 254.366C135.082 243.462 128.722 239.829 116 238.919V233.014H179.833V238.919C167.792 239.6 163.931 241.874 160.524 244.6L195.961 305.931L230.717 244.826C227.082 242.1 222.312 239.6 210.273 238.92V233.014H264.79V238.92C252.524 239.375 244.8 243.462 238.439 253.912ZM312.947 379.532C300.682 379.532 294.774 371.126 294.32 365.222C286.596 373.399 276.603 379.532 267.062 379.532C254.795 379.532 244.344 372.035 244.344 359.09C244.344 352.727 245.935 346.139 249.116 340.916L294.32 324.56V307.749C294.32 297.528 289.55 287.76 279.327 287.76C273.194 287.76 267.288 295.254 266.834 306.841L246.388 310.247V307.977C253.203 287.531 275.693 279.582 286.595 279.582C307.267 279.582 314.763 290.484 314.537 307.294L313.856 354.998C313.629 364.312 318.625 366.583 323.169 366.583C326.803 366.583 330.437 364.312 334.755 359.996V366.583C329.758 372.491 320.899 379.532 312.947 379.532ZM267.516 342.505C266.607 346.139 265.926 349.319 265.926 354.317C265.926 361.131 269.788 367.945 277.283 367.945C284.098 367.945 287.96 365.676 294.094 360.905L294.32 330.236C288.415 332.962 273.877 339.325 267.516 342.505ZM336.8 377.487V372.262C347.022 371.581 349.973 369.31 351.793 365.446V247.777C351.793 240.053 350.656 236.875 334.982 235.511V230.968L376.554 220.519L377.915 224.383L371.329 232.56V365.447C373.6 369.991 377.915 371.582 387.229 372.263V377.488H336.8V377.487ZM441.746 379.305C417.895 379.305 399.495 360.451 399.495 334.1C399.495 301.842 419.259 279.807 447.2 279.807C469.688 279.807 482.182 292.531 482.182 312.747V316.835L420.849 316.382C420.396 318.88 420.166 322.97 420.166 327.966C420.166 351.136 434.705 366.356 454.015 366.356C465.599 366.356 471.506 362.267 480.591 354.544L483.999 359.768C471.052 371.582 460.374 379.305 441.746 379.305ZM443.793 286.851C432.433 286.851 424.485 295.936 421.758 310.247L461.74 309.793C461.74 297.754 454.241 286.851 443.793 286.851Z" fill="#00356B"></path> </g> <defs> <clipPath id="clip0_588_406"> <rect width="368" height="159.013" fill="white" transform="translate(116 220.519)"></rect> </clipPath> </defs> </svg> 