<?xml version="1.0" encoding="UTF-8"?> <svg xmlns="http://www.w3.org/2000/svg" viewBox="0 0 100.00 100.00" data-guides="{&quot;vertical&quot;:[],&quot;horizontal&quot;:[]}"><defs></defs><path fill="#f8f8f8" width="100" height="100" id="tSvg9a19631329" title="Rectangle 4" fill-opacity="1" stroke="none" stroke-opacity="1" d="M0.0003 0.0003H100.0003V100.0003H0.0003Z" style="transform-origin: 50px 50px;"></path><path fill="#12284C" stroke="none" fill-opacity="1" stroke-width="1" stroke-opacity="1" id="tSvg29e60acd95" title="Path 7" d="M15.0617 80.0288C15.255 80.2825 15.6708 80.5724 16.16 80.5724C16.6494 80.5724 16.884 80.2825 16.884 79.915C16.884 79.6129 16.7752 79.4076 16.293 79.0874C16.1923 79.021 16.0916 78.9545 15.9909 78.8881C15.3205 78.4532 15.1634 78.0374 15.1634 77.5964C15.1634 76.9199 15.6828 76.3581 16.5708 76.3581C16.8185 76.3581 17.0228 76.3884 17.18 76.4125C17.3853 76.4488 17.5121 76.4669 17.5605 76.4669C17.5423 76.5333 17.5061 76.932 17.5061 77.2522C17.3853 77.1132 17.0954 76.8534 16.5588 76.8534C16.142 76.8534 15.8882 77.1132 15.8882 77.4334C15.8882 77.7112 15.9547 77.9045 16.4319 78.2186C16.5305 78.283 16.6292 78.3475 16.7279 78.4119C17.4709 78.9012 17.6571 79.2516 17.6571 79.7459C17.6571 80.0721 17.5061 80.5493 17.0712 80.8322C16.7691 81.0254 16.3886 81.0919 16.0997 81.0919C15.701 81.0919 15.2238 80.9892 15.0003 80.8322C15.0245 80.7294 15.0668 80.2885 15.0607 80.0288C15.061 80.0288 15.0613 80.0288 15.0617 80.0288ZM19.0344 80.4395C18.4545 79.92 18.2854 79.2143 18.2854 78.6585C18.2854 78.2116 18.4062 77.5299 18.974 77.0044C19.4149 76.6058 20.0119 76.3581 20.8999 76.3581C21.7084 76.3581 22.2097 76.5393 22.4574 76.5937C22.4151 76.7447 22.3607 77.089 22.3547 77.3598C22.0889 77.088 21.5513 76.8524 20.8335 76.8524C20.2415 76.8524 19.8862 77.0457 19.6505 77.2572C19.27 77.6015 19.1431 78.0726 19.1431 78.58C19.1431 79.5395 19.723 80.5301 21.1234 80.5301C21.6187 80.5301 22.113 80.4395 22.4393 80.2039C22.3909 80.3731 22.3245 80.7173 22.3063 80.8926C22.0708 80.9892 21.5462 81.0919 21.0328 81.0919C20.2727 81.0919 19.5841 80.9167 19.0344 80.4395ZM23.4007 78.1945C23.4007 77.3306 23.3705 76.6974 23.3222 76.4498C23.3946 76.4558 23.5578 76.4619 23.6967 76.4619C23.9141 76.4619 24.1135 76.4498 24.2041 76.4377C24.186 76.6551 24.1558 77.2109 24.1558 78.1038C24.1558 78.136 24.1558 78.1683 24.1558 78.2005C24.1558 78.2186 24.1619 78.2247 24.1799 78.2247C24.9407 78.2247 25.7015 78.2247 26.4623 78.2247C26.4804 78.2247 26.4865 78.2186 26.4865 78.2005C26.4865 78.1683 26.4865 78.136 26.4865 78.1038C26.4865 77.2411 26.4563 76.6793 26.426 76.4498C26.5106 76.4558 26.6435 76.4619 26.8066 76.4619C27.006 76.4619 27.1811 76.4558 27.302 76.4377C27.2778 76.6672 27.2476 77.3367 27.2476 78.1945C27.2476 78.5485 27.2476 78.9026 27.2476 79.2566C27.2476 79.9804 27.2717 80.7234 27.302 81.0013C27.2294 80.9952 27.0543 80.9892 26.9224 80.9892C26.7472 80.9892 26.4694 81.0073 26.4271 81.0134C26.4633 80.7536 26.4875 80.0298 26.4875 79.2566C26.4875 79.1076 26.4875 78.9586 26.4875 78.8096C26.4875 78.7915 26.4814 78.7854 26.4633 78.7854C25.7005 78.7854 24.9377 78.7854 24.1749 78.7854C24.1629 78.7854 24.1568 78.7975 24.1568 78.8096C24.1568 78.9586 24.1568 79.1076 24.1568 79.2566C24.1568 79.9804 24.187 80.7234 24.2172 81.0013C24.1508 80.9952 24.0179 80.9892 23.8729 80.9892C23.6433 80.9892 23.4319 81.0013 23.3414 81.0134C23.3715 80.7476 23.4017 80.0298 23.4017 79.2566C23.4017 78.9026 23.4017 78.5485 23.4017 78.1945C23.4013 78.1945 23.401 78.1945 23.4007 78.1945ZM28.204 78.7623C28.204 77.5551 29.0124 76.3591 30.6434 76.3591C32.0982 76.3591 32.9982 77.379 32.9982 78.6112C32.9982 79.9996 32.0992 81.0929 30.5649 81.0929C28.9168 81.0929 28.205 79.8375 28.205 78.7623C28.2046 78.7623 28.2043 78.7623 28.204 78.7623ZM32.1405 78.7985C32.1405 77.7243 31.5193 76.8303 30.4924 76.8303C29.6527 76.8303 29.0557 77.4767 29.0617 78.581C29.0617 79.7277 29.6779 80.6147 30.7219 80.6147C31.3079 80.6147 32.1405 80.222 32.1405 78.7975C32.1405 78.7978 32.1405 78.7982 32.1405 78.7985ZM33.7241 78.7623C33.7241 77.5551 34.5325 76.3591 36.1635 76.3591C37.6182 76.3591 38.5183 77.379 38.5183 78.6112C38.5183 79.9996 37.6192 81.0929 36.085 81.0929C34.4369 81.0929 33.7251 79.8375 33.7251 78.7623C33.7247 78.7623 33.7244 78.7623 33.7241 78.7623ZM37.6605 78.7985C37.6605 77.7243 37.0393 76.8303 36.0124 76.8303C35.1728 76.8303 34.5758 77.4767 34.5819 78.581C34.5819 79.7277 35.198 80.6147 36.242 80.6147C36.8279 80.6147 37.6605 80.222 37.6605 78.7975C37.6605 78.7978 37.6605 78.7982 37.6605 78.7985ZM39.6137 78.1955C39.6137 77.3316 39.5774 76.6441 39.5351 76.4508C39.6016 76.4568 39.7949 76.4629 39.9157 76.4629C40.1392 76.4629 40.3566 76.4568 40.4292 76.4387C40.405 76.6743 40.3687 77.3316 40.3687 78.1653C40.3687 78.5072 40.3687 78.8492 40.3687 79.1911C40.3687 80.2774 40.3808 80.4224 40.411 80.4465C40.4352 80.4767 40.4955 80.4888 40.568 80.4949C40.6949 80.507 40.8882 80.513 41.1419 80.513C41.7329 80.513 42.0541 80.4647 42.2282 80.374C42.1618 80.5251 42.0832 80.8815 42.047 81.0083C42.0168 81.0264 41.9262 81.0265 41.6362 81.0265C40.7482 81.0265 40.3929 80.9902 39.97 80.9902C39.7586 80.9902 39.6379 80.9962 39.5533 81.0023C39.5774 80.7848 39.6137 80.1394 39.6137 79.2576C39.6137 78.9036 39.6137 78.5495 39.6137 78.1955ZM44.7291 78.7633C44.7291 77.5561 45.5375 76.3602 47.1684 76.3602C48.6232 76.3602 49.5233 77.38 49.5233 78.6122C49.5233 80.0006 48.6242 81.0939 47.0899 81.0939C45.4418 81.0939 44.7301 79.8385 44.7301 78.7633C44.7297 78.7633 44.7294 78.7633 44.7291 78.7633ZM48.6655 78.7995C48.6655 77.7253 48.0443 76.8313 47.0174 76.8313C46.1777 76.8313 45.5807 77.4777 45.5867 78.582C45.5867 79.7287 46.2029 80.6157 47.2469 80.6157C47.8329 80.6157 48.6655 80.223 48.6655 78.7985C48.6655 78.7988 48.6655 78.7992 48.6655 78.7995ZM50.5864 78.1965C50.5864 77.2059 50.5502 76.639 50.5139 76.4458C50.6286 76.4578 50.8401 76.4639 51.0153 76.4639C51.5002 76.4639 51.9851 76.4639 52.4701 76.4639C52.6815 76.4699 52.917 76.4518 53.0197 76.4276C52.9835 76.6511 52.9714 76.9471 52.9654 77.0739C52.8687 77.0316 52.772 77.0074 52.4278 76.9834C52.2284 76.9713 51.7693 76.9592 51.3777 76.9592C51.3656 76.9592 51.3536 76.9652 51.3536 76.9834C51.3536 77.4354 51.3475 77.9428 51.3475 78.3958C51.3475 78.42 51.3536 78.432 51.3717 78.432C51.4864 78.432 52.1197 78.426 52.319 78.42C52.6875 78.4139 52.7962 78.3897 52.8687 78.3716C52.8445 78.4562 52.8143 78.8418 52.8083 79.0422C52.7177 78.9938 52.5787 78.9636 52.3311 78.9455C52.1378 78.9334 51.6968 78.9213 51.3656 78.9213C51.3536 78.9213 51.3475 78.9334 51.3475 78.9576C51.3475 79.0583 51.3475 79.1589 51.3475 79.2596C51.3475 79.8274 51.3717 80.805 51.4079 81.0043C51.3536 80.9982 51.2508 80.9922 51.0153 80.9922C50.8643 80.9922 50.6045 81.0043 50.527 81.0164C50.5572 80.811 50.5874 80.1405 50.5874 79.2596C50.5874 78.9056 50.5874 78.5515 50.5874 78.1975C50.587 78.1972 50.5867 78.1968 50.5864 78.1965ZM56.0239 78.1965C56.0239 77.3327 55.9997 76.6813 55.9515 76.4518C56.042 76.4578 56.187 76.4639 56.3078 76.4639C56.6098 76.4639 56.924 76.4458 57.2975 76.4458C58.4149 76.4458 58.6737 77.0437 58.6737 77.4958C58.6737 77.9478 58.3777 78.2922 58.0818 78.4431C58.6555 78.6183 59.0835 79.0109 59.0835 79.6441C59.0835 80.3811 58.5157 81.0325 57.387 81.0325C56.9582 81.0325 56.5726 80.9962 56.4518 80.9902C56.3128 80.9902 56.0773 81.0023 55.9685 81.0083C55.9987 80.7486 56.0229 80.0308 56.0229 79.2576C56.0229 78.9036 56.0229 78.5495 56.0229 78.1955C56.0232 78.1958 56.0235 78.1962 56.0239 78.1965ZM56.7719 78.2871C56.7719 78.3051 56.7779 78.3172 56.7961 78.3233C56.9109 78.3354 57.3216 78.3414 57.3991 78.3414C57.52 78.3414 57.6045 78.3354 57.677 78.2811C57.8884 78.13 57.979 77.8763 57.979 77.6599C57.979 77.2129 57.6951 76.8927 57.1283 76.8927C56.9471 76.8927 56.8202 76.9048 56.79 76.9169C56.7779 76.9229 56.7719 76.935 56.7719 76.9532C56.7719 77.3978 56.7719 77.8425 56.7719 78.2871ZM57.9609 79.0472C57.7616 78.8659 57.5079 78.8116 57.2371 78.7995C57.08 78.7935 56.8384 78.7935 56.79 78.7995C56.7779 78.8056 56.7719 78.8116 56.7719 78.8236C56.7719 78.9666 56.7719 79.1096 56.7719 79.2526C56.7719 80.0127 56.784 80.4173 56.7961 80.4355C56.8444 80.4898 57.0498 80.5684 57.4122 80.5684C57.8592 80.5684 58.2811 80.2966 58.2811 79.7287C58.2811 79.5113 58.2388 79.2757 57.9609 79.0462C57.9609 79.0465 57.9609 79.0469 57.9609 79.0472ZM60.2101 76.4639C60.4577 76.4639 60.657 76.4578 60.7657 76.4397C60.7356 76.6511 60.7054 77.3387 60.7054 78.1965C60.7054 78.464 60.7054 78.7314 60.7054 78.9989C60.7054 79.7479 60.8564 80.055 61.1221 80.2784C61.3819 80.5019 61.7021 80.5321 61.9316 80.5321C62.1611 80.5321 62.4813 80.4717 62.6866 80.2603C62.9947 79.9643 63.0491 79.5899 63.0491 78.8418C63.0491 78.6267 63.0491 78.4116 63.0491 78.1965C63.0491 77.3327 63.0068 76.6813 62.9706 76.4518C63.0491 76.4578 63.2061 76.4639 63.2968 76.4639C63.49 76.4639 63.6653 76.4518 63.7125 76.4397C63.6764 76.6511 63.6401 77.3387 63.6401 78.1965C63.6401 78.4139 63.6401 78.6314 63.6401 78.8488C63.6401 79.5556 63.5918 80.2492 63.0421 80.7083C62.6796 81.0224 62.2095 81.0949 61.8048 81.0949C61.3275 81.0949 60.808 80.9982 60.4708 80.6902C60.1627 80.4183 59.9453 80.0257 59.9453 79.1569C59.9453 78.8371 59.9453 78.5173 59.9453 78.1975C59.9453 77.3336 59.909 76.64 59.8667 76.4528C59.9453 76.4588 60.0842 76.4649 60.2111 76.4649C60.2107 76.4646 60.2104 76.4642 60.2101 76.4639ZM64.5643 80.0318C64.7576 80.2855 65.1734 80.5754 65.6626 80.5754C66.1519 80.5754 66.3865 80.2855 66.3865 79.918C66.3865 79.6159 66.2778 79.4106 65.7956 79.0904C65.6949 79.024 65.5942 78.9575 65.4935 78.8911C64.823 78.4562 64.666 78.0404 64.666 77.5994C64.666 76.9229 65.1855 76.3612 66.0735 76.3612C66.3211 76.3612 66.5255 76.3914 66.6825 76.4155C66.8879 76.4518 67.0147 76.4699 67.0631 76.4699C67.0449 76.5363 67.0087 76.935 67.0087 77.2552C66.8879 77.1162 66.598 76.8565 66.0614 76.8565C65.6445 76.8565 65.3908 77.1162 65.3908 77.4364C65.3908 77.7143 65.4573 77.9075 65.9345 78.2217C66.0331 78.2861 66.1318 78.3505 66.2305 78.4149C66.9734 78.9042 67.1598 79.2546 67.1598 79.7489C67.1598 80.0751 67.0087 80.5523 66.5738 80.8352C66.2718 81.0285 65.8912 81.0949 65.6022 81.0949C65.2036 81.0949 64.7264 80.9922 64.5039 80.8352C64.528 80.7325 64.5703 80.2915 64.5643 80.0318ZM68.254 78.1965C68.254 77.3327 68.236 76.6451 68.1877 76.4518C68.2541 76.4639 68.4293 76.4639 68.55 76.4639C68.8158 76.4639 69.0092 76.4518 69.0685 76.4397C69.0444 76.6692 69.0142 77.3387 69.0142 78.1965C69.0142 78.5505 69.0142 78.9046 69.0142 79.2586C69.0142 79.9824 69.0384 80.8221 69.0806 81.0033C69.0142 80.9972 68.8631 80.9912 68.7061 80.9912C68.5248 80.9912 68.2772 81.0033 68.1987 81.0154C68.2289 80.7737 68.253 80.0318 68.253 79.2586C68.253 78.9046 68.253 78.5505 68.253 78.1965C68.2533 78.1965 68.2536 78.1965 68.254 78.1965ZM70.7649 80.9912C70.6924 80.9912 70.3964 81.0033 70.3421 81.0154C70.4025 80.4657 70.4387 77.7555 70.4387 76.6995C70.4387 76.3853 70.4568 76.3612 70.4931 76.3612C70.5173 76.3612 70.5717 76.3974 70.6985 76.5182C71.362 77.1575 73.1369 79.0351 73.7712 79.5848C73.7651 78.9082 73.753 77.2119 73.6866 76.4518C73.747 76.4578 73.91 76.4639 74.0128 76.4639C74.1758 76.4639 74.3993 76.4518 74.4477 76.4397C74.3993 76.8142 74.3511 78.2811 74.3571 79.7479C74.3571 80.0436 74.3571 80.3392 74.3571 80.6349C74.3571 81.0637 74.339 81.1121 74.2967 81.1121C74.2483 81.1121 74.1034 80.9791 73.6876 80.5865C73.0774 80.0127 71.8039 78.5941 71.0247 77.8461C71.0368 79.0593 71.0609 80.5321 71.1214 81.0033C71.0066 80.9912 70.8798 80.9912 70.7649 80.9912ZM75.5873 78.1965C75.5873 77.2059 75.5571 76.633 75.5088 76.4518C75.6115 76.4639 75.8169 76.4639 75.9861 76.4639C76.4569 76.4639 76.9277 76.4639 77.3985 76.4639C77.5677 76.4639 77.8395 76.4639 77.9532 76.4276C77.929 76.5484 77.8928 76.8142 77.8928 77.1031C77.8023 77.0487 77.6633 77.0125 77.331 76.9824C77.1317 76.9703 76.7572 76.9582 76.3656 76.9582C76.3595 76.9582 76.3414 76.9642 76.3414 76.9763C76.3414 77.4229 76.3414 77.8696 76.3414 78.3162C76.3414 78.3344 76.3535 78.3464 76.3656 78.3464C76.4804 78.3464 77.0954 78.3464 77.2949 78.3404C77.6512 78.3283 77.772 78.3102 77.8446 78.2861C77.8083 78.4794 77.7841 78.8056 77.7902 78.9687C77.6874 78.9143 77.5788 78.878 77.3251 78.8599C77.1257 78.8478 76.5045 78.8357 76.3656 78.8357C76.3535 78.8357 76.3414 78.8478 76.3414 78.8599C76.3414 78.9706 76.3414 79.0814 76.3414 79.1921C76.3414 80.2603 76.3535 80.4234 76.3837 80.4475C76.4018 80.4657 76.4683 80.4838 76.5226 80.4898C76.6857 80.508 76.8488 80.514 77.1025 80.514C77.621 80.514 77.9291 80.4717 78.1344 80.3751C78.0741 80.5684 78.0136 80.8523 77.9895 81.0093C77.9653 81.0275 77.8867 81.0335 77.6512 81.0335C76.8367 81.0335 76.3656 80.9912 76.0393 80.9912C75.7977 80.9912 75.6105 80.9972 75.5259 81.0093C75.544 80.7858 75.5863 80.1394 75.5863 79.2586C75.5863 78.9046 75.5863 78.5505 75.5863 78.1965C75.5866 78.1965 75.5869 78.1965 75.5873 78.1965ZM79.0154 80.0318C79.2086 80.2855 79.6245 80.5754 80.1137 80.5754C80.603 80.5754 80.8376 80.2855 80.8376 79.918C80.8376 79.6159 80.7289 79.4106 80.2467 79.0904C80.146 79.024 80.0453 78.9575 79.9446 78.8911C79.2741 78.4562 79.1171 78.0404 79.1171 77.5994C79.1171 76.9229 79.6366 76.3612 80.5236 76.3612C80.7712 76.3612 80.9756 76.3914 81.1326 76.4155C81.338 76.4518 81.4648 76.4699 81.5132 76.4699C81.495 76.5363 81.4588 76.935 81.4588 77.2552C81.3379 77.1162 81.0481 76.8565 80.5115 76.8565C80.0946 76.8565 79.8409 77.1162 79.8409 77.4364C79.8409 77.7143 79.9074 77.9075 80.3846 78.2217C80.4829 78.2861 80.5812 78.3505 80.6796 78.4149C81.4225 78.9042 81.6088 79.2546 81.6088 79.7489C81.6088 80.0751 81.4578 80.5523 81.0229 80.8352C80.7209 81.0285 80.3402 81.0949 80.0513 81.0949C79.6527 81.0949 79.1755 80.9922 78.9529 80.8352C78.9771 80.7325 79.0194 80.2915 79.0133 80.0318C79.014 80.0318 79.0147 80.0318 79.0154 80.0318ZM82.4363 80.0318C82.6297 80.2855 83.0454 80.5754 83.5347 80.5754C84.024 80.5754 84.2586 80.2855 84.2586 79.918C84.2586 79.6159 84.1499 79.4106 83.6677 79.0904C83.567 79.024 83.4663 78.9575 83.3656 78.8911C82.6951 78.4562 82.538 78.0404 82.538 77.5994C82.538 76.9229 83.0575 76.3612 83.9455 76.3612C84.1932 76.3612 84.3975 76.3914 84.5545 76.4155C84.76 76.4518 84.8868 76.4699 84.9351 76.4699C84.917 76.5363 84.8808 76.935 84.8808 77.2552C84.76 77.1162 84.47 76.8565 83.9334 76.8565C83.5166 76.8565 83.2629 77.1162 83.2629 77.4364C83.2629 77.7143 83.3294 77.9075 83.8065 78.2217C83.9048 78.2861 84.0031 78.3505 84.1015 78.4149C84.8445 78.9042 85.0318 79.2546 85.0318 79.7489C85.0318 80.0751 84.8808 80.5523 84.4459 80.8352C84.1438 81.0285 83.7632 81.0949 83.4744 81.0949C83.0757 81.0949 82.5985 80.9922 82.376 80.8352C82.4002 80.7325 82.4424 80.2915 82.4363 80.0318ZM76.131 61.8569C76.0696 61.8569 76.0494 61.877 76.0283 61.9182C75.3951 63.6962 74.4557 66.3108 74.2101 67.2712C74.0057 67.2299 73.8215 67.2299 73.3936 67.2299C72.9657 67.2299 72.4745 67.2712 72.3103 67.2913C72.8207 66.208 73.597 64.411 74.4144 62.4286C75.7631 59.0845 77.1118 55.7405 78.4606 52.3964C78.7063 51.8034 78.808 51.5587 78.9309 51.5587C79.0325 51.5587 79.1352 51.7219 79.4211 52.3964C79.6456 52.9068 81.648 57.4835 83.4049 61.6314C84.325 63.817 85.4687 66.4738 86.0003 67.2702C85.6328 67.25 85.2845 67.2289 85.06 67.2289C84.5495 67.2289 83.9767 67.249 83.732 67.2903C83.4049 66.3499 82.2813 63.5713 81.5867 61.9162C81.5665 61.875 81.5665 61.8549 81.5051 61.8549C79.714 61.8549 77.923 61.8549 76.132 61.8549C76.1316 61.8556 76.1313 61.8562 76.131 61.8569ZM81.0753 60.6719C81.1155 60.6719 81.1366 60.6517 81.1155 60.5904C80.3121 58.6084 79.5087 56.6264 78.7053 54.6444C77.963 56.6264 77.2207 58.6084 76.4784 60.5904C76.4582 60.6517 76.4784 60.6719 76.5186 60.6719C78.0375 60.6719 79.5564 60.6719 81.0753 60.6719ZM59.8214 51.9071C60.3933 51.9071 60.8634 51.887 61.108 51.8457C61.0266 52.479 60.945 54.87 60.945 57.7704C60.945 58.7171 60.945 59.6637 60.945 60.6104C60.945 63.3076 61.538 64.3697 62.3957 65.1671C63.3562 66.0862 64.6227 66.2292 65.5831 66.2292C66.5436 66.2292 67.7698 65.9846 68.545 65.1258C69.587 64.0223 69.8327 62.5314 69.8327 60.1816C69.8327 59.3779 69.8327 58.5741 69.8327 57.7704C69.8327 54.8489 69.7099 52.6017 69.6081 51.8658C69.8327 51.9071 70.2213 51.9071 70.4256 51.9071C70.8546 51.9071 71.3046 51.8658 71.4063 51.8457C71.3247 52.479 71.223 54.87 71.223 57.7704C71.223 58.5604 71.223 59.3503 71.223 60.1403C71.223 62.5304 70.9985 64.7784 69.282 66.2906C68.0557 67.3738 66.4822 67.5783 65.1341 67.5783C63.786 67.5783 62.0283 67.2309 60.9248 66.209C59.904 65.2486 59.1881 63.9207 59.1881 60.979C59.1881 59.9098 59.1881 58.8406 59.1881 57.7714C59.1881 54.8499 59.1066 52.3772 58.9838 51.8668C59.1671 51.9081 59.5153 51.9081 59.8214 51.9081C59.8214 51.9078 59.8214 51.9074 59.8214 51.9071ZM56.8414 67.4534C55.5809 67.4534 54.3758 67.1815 52.8244 66.1889C54.992 64.6043 56.2564 62.3069 56.2564 59.2423C56.2564 54.8499 53.1717 51.5597 48.4923 51.5597C43.2209 51.5597 40.5036 55.6663 40.5036 59.7125C40.5036 63.227 42.7719 67.5783 48.2476 67.5783C49.0238 67.5783 50.2018 67.4806 51.2508 66.9651C52.8435 68.0786 54.5923 69.1911 56.1699 69.1911C56.2062 69.0833 56.3602 68.58 56.476 68.29C56.5887 68.0081 56.785 67.5722 56.8414 67.4534ZM48.6564 66.4134C45.0199 66.4134 42.4658 63.5532 42.4457 59.2625C42.4457 55.4831 44.6324 52.7035 48.146 52.7035C51.6596 52.7035 54.3165 55.4206 54.3165 59.6702C54.3165 64.6758 51.0878 66.4124 48.6564 66.4124C48.6564 66.4127 48.6564 66.4131 48.6564 66.4134ZM26.5358 51.9071C27.1086 51.9071 27.5778 51.887 27.8235 51.8457C27.7419 52.479 27.6603 54.87 27.6603 57.7704C27.6603 58.7171 27.6603 59.6637 27.6603 60.6104C27.6603 63.3076 28.2523 64.3697 29.1111 65.1671C30.0705 66.0862 31.3381 66.2292 32.2985 66.2292C33.2589 66.2292 34.4852 65.9846 35.2614 65.1258C36.3034 64.0223 36.548 62.5314 36.548 60.1816C36.548 59.3779 36.548 58.5741 36.548 57.7704C36.548 54.8489 36.4263 52.6017 36.3235 51.8658C36.548 51.9071 36.9367 51.9071 37.141 51.9071C37.5709 51.9071 38.02 51.8658 38.1226 51.8457C38.0411 52.479 37.9384 54.87 37.9384 57.7704C37.9384 58.5604 37.9384 59.3503 37.9384 60.1403C37.9384 62.5304 37.7139 64.7784 35.9973 66.2906C34.7711 67.3738 33.1986 67.5783 31.8495 67.5783C30.5004 67.5783 28.7446 67.2309 27.6403 66.209C26.6183 65.2486 25.9035 63.9207 25.9035 60.979C25.9035 59.9098 25.9035 58.8406 25.9035 57.7714C25.9035 54.8499 25.822 52.3772 25.6992 51.8668C25.8834 51.9081 26.2308 51.9081 26.5368 51.9081C26.5364 51.9078 26.5361 51.9074 26.5358 51.9071ZM15.4281 57.7704C15.4281 54.4602 15.3467 52.4578 15.2238 51.8658C15.5711 51.886 16.0614 51.9071 16.4691 51.9071C18.0628 51.9071 19.6565 51.9071 21.2502 51.9071C21.7617 51.9071 22.4967 51.8658 22.8439 51.8044C22.7625 52.3148 22.7212 53.0507 22.7 53.4182C22.4352 53.2955 22.1493 53.234 21.1275 53.1524C20.4942 53.1111 19.0223 53.0498 17.2655 53.0498C17.2453 53.0498 17.2041 53.0699 17.2041 53.1313C17.184 54.9092 17.1628 56.8704 17.1628 58.6473C17.1628 58.7289 17.183 58.75 17.2443 58.75C17.5101 58.75 20.0442 58.7299 20.615 58.7087C21.7396 58.6886 22.1483 58.6272 22.3516 58.5657C22.2903 58.8315 22.2087 59.7105 22.1886 60.2612C21.9228 60.1181 21.5553 60.0367 20.8405 59.9954C20.1459 59.9541 18.6538 59.9138 17.2242 59.9138C17.183 59.9138 17.1628 59.9339 17.1628 60.0165C17.1628 60.4591 17.1628 60.9018 17.1628 61.3444C17.1628 62.7538 17.2443 66.6157 17.347 67.2692C17.1628 67.249 16.9182 67.2279 16.4068 67.2279C16.0594 67.2279 15.4463 67.2692 15.2419 67.2893C15.3235 66.6762 15.4261 64.2449 15.4261 61.3646C15.4261 60.1659 15.4261 58.9671 15.4261 57.7684C15.4267 57.7691 15.4274 57.7697 15.4281 57.7704ZM85.7748 44.7571C62.1836 44.7571 38.5924 44.7571 15.0013 44.7571C15.0013 45.0927 15.0013 45.4282 15.0013 45.7638C38.5924 45.7638 62.1836 45.7638 85.7748 45.7638C85.7748 45.4282 85.7748 45.0927 85.7748 44.7571ZM56.8363 26.3184C56.8363 22.5703 56.784 19.4041 56.5988 18.7174C56.8363 18.7708 57.3901 18.7708 57.7072 18.7708C58.3928 18.7708 58.9999 18.7446 59.2909 18.6913C59.2113 19.6678 59.1056 22.5974 59.1056 26.3446C59.1056 27.893 59.1056 29.4413 59.1056 30.9897C59.1056 34.3412 59.1851 37.8518 59.3432 38.6169C59.1056 38.5908 58.6837 38.5646 58.3143 38.5646C57.7868 38.5646 56.9159 38.5908 56.6511 38.6441C56.7568 37.7471 56.8353 34.4218 56.8353 30.9908C56.8353 29.4337 56.8353 27.8765 56.8353 26.3194C56.8356 26.3191 56.8359 26.3187 56.8363 26.3184ZM59.4489 28.3239C59.4228 28.2716 59.4228 28.1658 59.4751 28.1124C60.5835 27.1359 63.329 24.3654 65.3868 22.0166C67.0228 20.2488 67.9993 19.0084 68.1313 18.7174C68.395 18.7436 68.6588 18.7708 69.0555 18.7708C70.0048 18.7708 70.8233 18.7174 71.2461 18.6913C70.8505 19.0084 69.9001 19.6678 67.7889 21.7266C66.9966 22.5713 62.3001 27.2689 61.7454 27.902C63.3814 29.829 67.2342 33.8137 68.7917 35.3711C71.3247 37.8518 72.2228 38.327 72.6969 38.485C72.5127 38.6169 71.6419 38.6965 71.1667 38.6965C69.5569 38.6965 68.5802 38.327 66.9171 36.532C64.3307 33.9456 61.7705 30.9103 59.4479 28.3239C59.4482 28.3239 59.4485 28.3239 59.4489 28.3239ZM37.428 18.7708C38.1669 18.7708 38.774 18.7446 39.0912 18.6913C38.9854 19.5097 38.8797 22.5974 38.8797 26.3446C38.8797 27.5675 38.8797 28.7903 38.8797 30.0132C38.8797 33.4966 39.6449 34.8688 40.7533 35.8987C41.9937 37.0867 43.6297 37.2709 44.87 37.2709C46.1103 37.2709 47.6939 36.9537 48.6967 35.8454C50.0427 34.4198 50.3598 32.4939 50.3598 29.4585C50.3598 28.4205 50.3598 27.3826 50.3598 26.3446C50.3598 22.5703 50.2018 19.6678 50.0699 18.7174C50.3598 18.7708 50.8623 18.7708 51.126 18.7708C51.6797 18.7708 52.2606 18.7174 52.3925 18.6913C52.2868 19.5097 52.1549 22.5974 52.1549 26.3446C52.1549 27.3651 52.1549 28.3856 52.1549 29.4061C52.1549 32.4938 51.865 35.3973 49.647 37.3495C48.0634 38.7478 46.0318 39.0125 44.29 39.0125C42.5484 39.0125 40.2781 38.5636 38.8536 37.2447C37.5336 36.0044 36.6105 34.2889 36.6105 30.4884C36.6105 29.1071 36.6105 27.7259 36.6105 26.3446C36.6105 22.5703 36.5047 19.3769 36.3467 18.7174C36.5843 18.7708 37.0333 18.7708 37.429 18.7708C37.4286 18.7708 37.4283 18.7708 37.428 18.7708ZM15.3818 26.2922C15.3818 21.3571 15.25 19.3255 15.1442 18.7184C15.408 18.7446 15.9889 18.7718 16.4108 18.7718C17.044 18.7718 18.5492 18.6661 20.2908 18.6661C23.7219 18.6661 27.7328 19.0889 30.3463 21.7538C31.6662 23.126 32.8532 25.2905 32.8532 28.4306C32.8532 31.8082 31.5596 34.29 30.0826 35.8464C28.8161 37.1401 26.3354 38.9079 21.7426 38.9079C20.6342 38.9079 19.6313 38.8555 18.681 38.776C17.4145 38.6441 16.3584 38.5122 15.2238 38.5918C15.2762 37.4833 15.3818 35.0813 15.3818 31.1499C15.3818 29.531 15.3818 27.9121 15.3818 26.2932C15.3818 26.2929 15.3818 26.2925 15.3818 26.2922ZM17.6521 30.2246C17.6521 33.0224 17.6783 35.1859 17.7045 35.8987C17.7307 36.4262 17.7568 36.7172 17.8635 36.7957C18.233 37.0857 19.8167 37.4028 21.9802 37.4028C24.1438 37.4028 26.2287 36.8753 27.7066 35.6078C29.2108 34.3412 30.3987 32.0448 30.3987 29.0891C30.3987 26.8188 29.8974 24.7871 28.5251 23.0979C26.7039 20.8809 23.6162 20.0363 20.2385 20.0363C19.2619 20.0363 18.2058 20.142 17.8101 20.2478C17.7307 20.3 17.7045 20.3534 17.7045 20.432C17.6521 20.9333 17.6521 23.4935 17.6521 26.2118C17.6521 27.5491 17.6521 28.8863 17.6521 30.2236C17.6521 30.2239 17.6521 30.2243 17.6521 30.2246ZM75.533 26.3446C75.533 22.07 75.4273 19.4574 75.2692 18.7184C75.5863 18.7718 76.2981 18.7718 76.8256 18.7718C78.7784 18.7718 80.7312 18.7718 82.6841 18.7718C83.2377 18.7718 84.32 18.7456 84.7953 18.6399C84.7157 19.0356 84.5838 19.9326 84.5838 20.8034C84.2667 20.6192 83.7392 20.4863 82.4726 20.3816C81.6813 20.302 80.15 20.2498 77.8807 20.2498C77.8545 20.2498 77.7751 20.2759 77.7751 20.3554C77.7751 22.6337 77.7751 24.912 77.7751 27.1903C77.7751 27.2699 77.8274 27.3221 77.8807 27.3221C78.224 27.3221 81.338 27.3221 82.077 27.2959C83.4492 27.2437 84.0824 27.1641 84.3462 27.0845C84.2143 27.6917 84.1086 28.7467 84.1358 29.2753C83.7663 29.0911 83.3445 28.9853 82.3417 28.9058C81.4447 28.8524 78.357 28.8001 77.8817 28.8001C77.8294 28.8001 77.7761 28.8524 77.7761 28.9058C77.7761 29.539 77.7761 30.1723 77.7761 30.8055C77.7761 36.0044 77.8284 36.7434 77.9613 36.8753C78.0408 36.9548 78.3308 37.0071 78.5684 37.0333C79.1755 37.0857 79.9668 37.1652 81.1013 37.1652C83.6082 37.1652 84.7429 36.9809 85.4818 36.6105C85.2966 37.1913 85.0861 38.1418 84.9805 38.6693C84.8747 38.6955 84.6371 38.7217 83.6344 38.7217C79.9668 38.7217 77.9875 38.5636 76.9847 38.5636C76.2196 38.5636 75.6125 38.5898 75.3226 38.6159C75.4021 37.6928 75.533 34.7107 75.533 30.9897C75.533 29.4417 75.533 27.8936 75.533 26.3456C75.533 26.3453 75.533 26.3449 75.533 26.3446Z"></path></svg> 