<?xml version="1.0" encoding="UTF-8"?> <svg xmlns="http://www.w3.org/2000/svg" width="777" height="196" viewBox="0 0 777 196" fill="none"> <path d="M376.927 125.512C375.504 127.427 373.512 129.014 370.95 130.273C368.39 131.532 365.063 132.162 360.972 132.162C357.629 132.162 354.64 131.727 352.008 130.859C349.375 129.99 347.143 128.731 345.312 127.082C343.478 125.432 342.084 123.429 341.124 121.071C340.163 118.713 339.683 116.026 339.683 113.01V112C339.683 108.844 340.163 106.06 341.124 103.647C342.084 101.236 343.478 99.2061 345.312 97.5565C347.143 95.9083 349.375 94.6667 352.008 93.8333C354.64 92.9999 357.629 92.5825 360.972 92.5825C366.629 92.5825 371.226 93.7349 374.765 96.0412C378.304 98.3461 380.465 101.822 381.248 106.468H375.593C375.236 105.084 374.64 103.816 373.804 102.663C372.968 101.511 371.919 100.535 370.656 99.7378C369.394 98.9403 367.953 98.3195 366.335 97.8755C364.715 97.4329 362.929 97.2109 360.972 97.2109C358.375 97.2109 356.091 97.5831 354.116 98.3275C352.142 99.0719 350.495 100.119 349.181 101.467C347.863 102.815 346.877 104.419 346.218 106.28C345.561 108.144 345.232 110.21 345.232 112.479C345.232 114.643 345.561 116.647 346.218 118.489C346.877 120.334 347.863 121.922 349.181 123.251C350.495 124.581 352.142 125.628 354.116 126.389C356.091 127.154 358.375 127.534 360.972 127.534C363.462 127.534 365.633 127.251 367.482 126.683C369.331 126.115 370.906 125.335 372.204 124.342C373.503 123.349 374.533 122.206 375.299 120.911C376.064 119.617 376.571 118.242 376.82 116.788H356.597V112H382.156V130.939H376.927V125.512Z" fill="white"></path> <path d="M420.839 126.31V130.992H389.146V93.7531H394.375V126.31H420.839Z" fill="white"></path> <path d="M445.81 97.2641C443.356 97.2641 441.123 97.5831 439.115 98.2211C437.104 98.8605 435.396 99.8096 433.991 101.068C432.586 102.327 431.501 103.906 430.737 105.803C429.971 107.7 429.589 109.925 429.589 112.48C429.589 114.927 429.971 117.08 430.737 118.943C431.501 120.805 432.586 122.366 433.991 123.624C435.396 124.883 437.104 125.84 439.115 126.497C441.123 127.154 443.356 127.481 445.81 127.481C448.265 127.481 450.497 127.163 452.506 126.523C454.516 125.885 456.223 124.936 457.628 123.678C459.033 122.419 460.119 120.857 460.884 118.996C461.649 117.134 462.03 114.962 462.03 112.48C462.03 110.033 461.649 107.869 460.884 105.989C460.119 104.11 459.033 102.523 457.628 101.228C456.223 99.9345 454.516 98.9496 452.506 98.2756C450.497 97.6017 448.265 97.2641 445.81 97.2641ZM424.04 112C424.148 108.63 424.742 105.723 425.828 103.276C426.913 100.829 428.406 98.8166 430.31 97.2375C432.213 95.661 434.471 94.4899 437.086 93.727C439.7 92.9653 442.608 92.5838 445.81 92.5838C449.011 92.5838 451.92 92.9826 454.535 93.7801C457.148 94.5777 459.407 95.774 461.31 97.3704C463.213 98.9668 464.708 100.979 465.793 103.409C466.878 105.839 467.473 108.701 467.581 112V112.958C467.473 116.256 466.878 119.121 465.793 121.549C464.708 123.979 463.213 125.974 461.31 127.535C459.407 129.096 457.148 130.256 454.535 131.019C451.92 131.781 449.011 132.162 445.81 132.162C442.608 132.162 439.7 131.781 437.086 131.019C434.471 130.256 432.213 129.086 430.31 127.507C428.406 125.929 426.913 123.934 425.828 121.523C424.742 119.112 424.148 116.256 424.04 112.958V112Z" fill="white"></path> <path d="M478.145 126.31H497.726C499.541 126.31 501.017 126.16 502.155 125.858C503.294 125.558 504.174 125.113 504.796 124.529C505.419 123.943 505.846 123.244 506.078 122.428C506.308 121.611 506.424 120.708 506.424 119.715C506.424 118.686 506.318 117.781 506.104 117C505.891 116.221 505.464 115.547 504.824 114.98C504.183 114.412 503.284 113.987 502.13 113.702C500.973 113.419 499.453 113.277 497.566 113.277H478.145V126.31ZM478.145 108.595H495.753C497.282 108.595 498.598 108.525 499.701 108.383C500.803 108.242 501.702 107.976 502.395 107.585C503.09 107.196 503.604 106.653 503.943 105.962C504.282 105.271 504.45 104.392 504.45 103.329C504.45 102.266 504.263 101.406 503.89 100.749C503.516 100.094 502.965 99.5964 502.235 99.2588C501.507 98.9225 500.59 98.7005 499.487 98.5942C498.385 98.4878 497.104 98.4347 495.646 98.4347H478.145V108.595ZM512.08 120.14C512.08 124.005 510.861 126.781 508.425 128.465C505.988 130.15 502.422 130.992 497.726 130.992H472.916V93.7531H496.233C498.332 93.7531 500.226 93.886 501.915 94.1518C503.604 94.4177 505.055 94.8962 506.264 95.5887C507.474 96.2799 508.407 97.2024 509.065 98.3549C509.724 99.5074 510.053 100.988 510.053 102.797C510.053 104.713 509.644 106.281 508.825 107.505C508.007 108.728 506.959 109.713 505.678 110.458C507.775 111.202 509.367 112.312 510.453 113.782C511.537 115.254 512.08 117.374 512.08 120.14Z" fill="white"></path> <path d="M528.461 115.033H546.655L537.585 96.6252L528.461 115.033ZM526.113 119.714L520.564 130.993H514.747L533.156 93.754H542.014L560.422 130.993H554.552L549.003 119.714H526.113Z" fill="white"></path> <path d="M596.385 126.31V130.992H564.691V93.7531H569.92V126.31H596.385Z" fill="white"></path> <path d="M376.927 189.35C375.504 191.265 373.512 192.852 370.95 194.11C368.39 195.369 365.063 196 360.972 196C357.629 196 354.64 195.565 352.008 194.697C349.375 193.828 347.143 192.568 345.312 190.92C343.478 189.27 342.084 187.267 341.124 184.909C340.163 182.549 339.683 179.864 339.683 176.848V175.838C339.683 172.681 340.163 169.898 341.124 167.484C342.084 165.074 343.478 163.043 345.312 161.394C347.143 159.745 349.375 158.503 352.008 157.67C354.64 156.836 357.629 156.42 360.972 156.42C366.629 156.42 371.226 157.573 374.765 159.879C378.304 162.184 380.465 165.66 381.248 170.306H375.593C375.236 168.921 374.64 167.654 373.804 166.5C372.968 165.348 371.919 164.373 370.656 163.576C369.394 162.778 367.953 162.157 366.335 161.713C364.715 161.271 362.929 161.047 360.972 161.047C358.375 161.047 356.091 161.421 354.116 162.165C352.142 162.91 350.495 163.956 349.181 165.304C347.863 166.653 346.877 168.256 346.218 170.118C345.561 171.982 345.232 174.048 345.232 176.317C345.232 178.479 345.561 180.484 346.218 182.326C346.877 184.171 347.863 185.758 349.181 187.089C350.495 188.418 352.142 189.465 354.116 190.227C356.091 190.99 358.375 191.372 360.972 191.372C363.462 191.372 365.633 191.087 367.482 190.521C369.331 189.953 370.906 189.173 372.204 188.179C373.503 187.187 374.533 186.043 375.299 184.749C376.064 183.453 376.571 182.08 376.82 180.625H356.597V175.838H382.156V194.777H376.927V189.35Z" fill="white"></path> <path d="M424.788 190.149V194.829H389.145V157.591H423.028V162.273H394.374V172.327H417.639V177.008H394.374V190.149H424.788Z" fill="white"></path> <path d="M435.886 161.048V194.83H430.657V157.591H439.782L464.006 191.371V157.591H469.181V194.83H460.003L435.886 161.048Z" fill="white"></path> <path d="M512.295 190.149V194.829H476.652V157.591H510.534V162.273H481.881V172.327H505.145V177.008H481.881V190.149H512.295Z" fill="white"></path> <path d="M523.394 176.529H541.322C544.416 176.529 546.719 175.926 548.232 174.721C549.744 173.514 550.498 171.76 550.498 169.453C550.498 167.184 549.787 165.421 548.365 164.16C546.941 162.903 544.79 162.273 541.908 162.273H523.394V176.529ZM523.394 181.212V194.829H518.165V157.59H543.083C545.038 157.59 546.817 157.848 548.419 158.362C550.019 158.877 551.38 159.64 552.5 160.649C553.621 161.66 554.492 162.928 555.114 164.454C555.737 165.98 556.049 167.752 556.049 169.774C555.942 172.753 555.222 175.111 553.888 176.848C552.553 178.587 550.713 179.811 548.365 180.519L556.635 194.777H550.498L542.763 181.212H523.394Z" fill="white"></path> <path d="M573.549 178.87H591.744L582.674 160.463L573.549 178.87ZM571.202 183.552L565.653 194.83H559.836L578.245 157.591H587.103L605.511 194.83H599.641L594.092 183.552H571.202Z" fill="white"></path> <path d="M628.934 162.274V194.83H623.705V162.274H607.112V157.591H645.581V162.274H628.934Z" fill="white"></path> <path d="M684.799 190.149V194.829H650.383V190.149H664.843V162.273H650.383V157.591H684.799V162.273H670.072V190.149H684.799Z" fill="white"></path> <path d="M711.37 161.102C708.916 161.102 706.682 161.421 704.673 162.059C702.664 162.698 700.956 163.646 699.551 164.905C698.146 166.165 697.062 167.743 696.296 169.64C695.531 171.538 695.15 173.763 695.15 176.318C695.15 178.764 695.531 180.918 696.296 182.779C697.062 184.642 698.146 186.202 699.551 187.461C700.956 188.721 702.664 189.678 704.673 190.333C706.682 190.991 708.916 191.317 711.37 191.317C713.825 191.317 716.056 191.001 718.066 190.361C720.076 189.723 721.783 188.774 723.188 187.514C724.593 186.257 725.678 184.695 726.444 182.834C727.209 180.972 727.592 178.798 727.592 176.318C727.592 173.869 727.209 171.707 726.444 169.827C725.678 167.946 724.593 166.36 723.188 165.064C721.783 163.771 720.076 162.787 718.066 162.114C716.056 161.44 713.825 161.102 711.37 161.102ZM689.6 175.838C689.706 172.468 690.302 169.56 691.387 167.114C692.473 164.666 693.966 162.653 695.87 161.075C697.772 159.499 700.031 158.328 702.645 157.565C705.26 156.802 708.169 156.422 711.37 156.422C714.571 156.422 717.48 156.82 720.095 157.618C722.708 158.414 724.966 159.612 726.87 161.208C728.773 162.803 730.267 164.817 731.353 167.247C732.438 169.677 733.034 172.539 733.14 175.838V176.796C733.034 180.094 732.438 182.959 731.353 185.387C730.267 187.817 728.773 189.812 726.87 191.372C724.966 192.932 722.708 194.094 720.095 194.857C717.48 195.617 714.571 196 711.37 196C708.169 196 705.26 195.617 702.645 194.857C700.031 194.094 697.772 192.923 695.87 191.345C693.966 189.767 692.473 187.772 691.387 185.359C690.302 182.949 689.706 180.094 689.6 176.796V175.838Z" fill="white"></path> <path d="M743.705 161.048V194.83H738.476V157.591H747.601L771.824 191.371V157.591H777V194.83H767.822L743.705 161.048Z" fill="white"></path> <path d="M35.4454 188.562V7.4402C11.8298 30.8761 0 60.9782 0 97.7851C0 134.589 11.8218 164.843 35.4454 188.562Z" fill="white"></path> <path d="M250.696 64.5838H294.359C291.139 49.8557 284.814 37.4964 275.38 27.5058C265.946 17.5178 255.229 10.409 243.237 6.1767C239.044 4.69991 234.72 3.49561 230.279 2.53456V43.3943C231.211 43.8688 232.134 44.3619 233.035 44.8963C241.153 49.7082 247.038 56.272 250.696 64.5838Z" fill="white"></path> <path d="M137.468 92.7455V122.279H187.496C184.858 133.759 179.255 142.494 170.689 148.456C170.235 148.779 169.767 149.09 169.285 149.401C159.927 155.388 149.322 158.368 137.468 158.368C131.047 158.368 125.029 157.552 119.44 155.919C110.276 153.237 102.244 148.377 95.3427 141.315C84.2289 129.936 78.6666 115.501 78.6666 97.9933C78.6666 80.3569 84.1902 65.9213 95.2387 54.6852C102.076 47.7133 110.147 42.9187 119.453 40.2762C125.146 38.6425 131.293 37.8396 137.91 37.8396C148.58 37.8396 157.992 40.2496 166.102 45.0574C167.57 45.9254 168.961 46.8453 170.287 47.8303C176.278 52.2885 180.777 57.9379 183.766 64.7409H227.424C225.332 55.165 221.927 46.5994 217.195 39.032C214.674 34.9499 211.749 31.1522 208.448 27.6669C199.011 17.675 188.301 10.5742 176.305 6.33652C174.356 5.64929 172.367 5.01524 170.365 4.44499C160.045 1.47679 149.01 0 137.246 0C106.975 0 82.4356 9.10931 63.641 27.3426C44.8464 45.5759 35.4497 69.1221 35.4497 97.9933C35.4497 126.58 44.665 150.063 63.0957 168.437C81.5264 186.812 104.635 196 132.424 196C144.655 196 155.573 194.199 165.179 190.583C168.545 189.327 171.743 187.849 174.77 186.152C186.468 179.594 195.685 170.912 202.416 160.118L202.859 195.948C212.932 195.65 222.082 194.083 230.284 191.257V92.7455H137.468Z" fill="white"></path> <path d="M297.209 92.5829V195.837H269.784L269.341 159.956C262.622 170.749 253.407 179.432 241.695 185.989C238.134 187.998 234.3 189.656 230.284 191.043V152.517C232.312 151.532 234.3 150.469 236.21 149.238C245.57 143.264 251.652 134.219 254.421 122.116H230.284V92.5829H297.209Z" fill="white"></path> </svg> 