<?xml version="1.0" encoding="UTF-8"?> <svg xmlns="http://www.w3.org/2000/svg" width="200" height="71" viewBox="0 0 200 71" fill="none"><rect x="0.423828" y="0.691406" width="199" height="70" rx="20" fill="white"></rect><path d="M26.3038 36.0434C26.3038 34.8594 26.5172 33.8354 26.9438 32.9714C27.3812 32.1074 28.0052 31.4407 28.8158 30.9714C29.6265 30.4914 30.5918 30.2514 31.7118 30.2514C32.8212 30.2514 33.7812 30.4914 34.5918 30.9714C35.4025 31.4407 36.0265 32.1074 36.4638 32.9714C36.9118 33.8354 37.1358 34.8541 37.1358 36.0274C37.1358 37.2114 36.9118 38.2407 36.4638 39.1154C36.0265 39.9794 35.4025 40.6514 34.5918 41.1314C33.7812 41.6114 32.8212 41.8514 31.7118 41.8514C30.5918 41.8514 29.6265 41.6114 28.8158 41.1314C28.0158 40.6514 27.3972 39.9794 26.9598 39.1154C26.5225 38.2407 26.3038 37.2167 26.3038 36.0434ZM28.4638 36.0434C28.4638 37.3127 28.7358 38.3047 29.2798 39.0194C29.8238 39.7341 30.6345 40.0914 31.7118 40.0914C32.7572 40.0914 33.5625 39.7341 34.1278 39.0194C34.6932 38.3047 34.9758 37.3127 34.9758 36.0434C34.9758 34.7634 34.6932 33.7714 34.1278 33.0674C33.5732 32.3634 32.7678 32.0114 31.7118 32.0114C30.6345 32.0114 29.8238 32.3634 29.2798 33.0674C28.7358 33.7714 28.4638 34.7634 28.4638 36.0434ZM39.3936 38.3474L38.7696 30.4114H41.2336L40.6096 38.3474H39.3936ZM38.8816 41.6914V39.4674H41.1216V41.6914H38.8816ZM52.873 41.8514C51.6996 41.8514 50.6916 41.6167 49.849 41.1474C49.017 40.6674 48.377 39.9954 47.929 39.1314C47.481 38.2567 47.257 37.2274 47.257 36.0434C47.257 34.8594 47.481 33.8354 47.929 32.9714C48.377 32.1074 49.017 31.4407 49.849 30.9714C50.6916 30.4914 51.6996 30.2514 52.873 30.2514C53.6623 30.2514 54.3716 30.3634 55.001 30.5874C55.641 30.8114 56.1903 31.1421 56.649 31.5794L55.977 33.2114C55.4756 32.8061 54.9903 32.5181 54.521 32.3474C54.0623 32.1661 53.5343 32.0754 52.937 32.0754C51.7956 32.0754 50.921 32.4221 50.313 33.1154C49.7156 33.7981 49.417 34.7741 49.417 36.0434C49.417 37.3127 49.7156 38.2941 50.313 38.9874C50.921 39.6807 51.7956 40.0274 52.937 40.0274C53.5343 40.0274 54.0623 39.9421 54.521 39.7714C54.9903 39.5901 55.4756 39.2914 55.977 38.8754L56.649 40.5074C56.1903 40.9341 55.641 41.2647 55.001 41.4994C54.3716 41.7341 53.6623 41.8514 52.873 41.8514ZM58.0888 45.3234L57.6248 43.7394C58.1262 43.6327 58.5475 43.5101 58.8888 43.3714C59.2302 43.2327 59.5128 43.0514 59.7368 42.8274C59.9608 42.6034 60.1475 42.3154 60.2968 41.9634L60.6968 41.0194L60.6488 41.8034L57.1288 33.6114H59.2568L61.7848 39.9154H61.3208L63.8648 33.6114H65.8808L62.2008 42.1394C61.9555 42.7154 61.6888 43.1901 61.4008 43.5634C61.1128 43.9474 60.8035 44.2514 60.4728 44.4754C60.1422 44.7101 59.7795 44.8914 59.3848 45.0194C58.9902 45.1474 58.5582 45.2487 58.0888 45.3234ZM67.0911 41.6914V33.6114H74.6591V41.6914H72.6751V35.1474H69.0751V41.6914H67.0911ZM80.9028 41.8514C79.5482 41.8514 78.4868 41.4781 77.7188 40.7314C76.9508 39.9847 76.5668 38.9607 76.5668 37.6594C76.5668 36.8167 76.7322 36.0807 77.0628 35.4514C77.3935 34.8221 77.8522 34.3314 78.4388 33.9794C79.0362 33.6274 79.7295 33.4514 80.5188 33.4514C81.2975 33.4514 81.9482 33.6167 82.4708 33.9474C82.9935 34.2781 83.3882 34.7421 83.6548 35.3394C83.9322 35.9367 84.0708 36.6354 84.0708 37.4354V37.9634H78.1828V36.9074H82.6468L82.3748 37.1314C82.3748 36.3847 82.2148 35.8141 81.8948 35.4194C81.5855 35.0247 81.1322 34.8274 80.5348 34.8274C79.8735 34.8274 79.3615 35.0621 78.9988 35.5314C78.6468 36.0007 78.4708 36.6567 78.4708 37.4994V37.7074C78.4708 38.5821 78.6842 39.2381 79.1108 39.6754C79.5482 40.1021 80.1615 40.3154 80.9508 40.3154C81.4095 40.3154 81.8362 40.2567 82.2308 40.1394C82.6362 40.0114 83.0202 39.8087 83.3828 39.5314L83.9748 40.8754C83.5908 41.1847 83.1322 41.4247 82.5988 41.5954C82.0655 41.7661 81.5002 41.8514 80.9028 41.8514ZM85.9832 45.1474V35.6274C85.9832 35.2967 85.9725 34.9607 85.9512 34.6194C85.9299 34.2781 85.8979 33.9421 85.8552 33.6114H87.7912L87.9672 35.3074H87.7912C87.9512 34.7421 88.2872 34.2941 88.7992 33.9634C89.3219 33.6221 89.9245 33.4514 90.6072 33.4514C91.3219 33.4514 91.9459 33.6221 92.4792 33.9634C93.0125 34.2941 93.4285 34.7741 93.7272 35.4034C94.0259 36.0221 94.1752 36.7687 94.1752 37.6434C94.1752 38.5181 94.0259 39.2701 93.7272 39.8994C93.4285 40.5287 93.0125 41.0141 92.4792 41.3554C91.9459 41.6861 91.3219 41.8514 90.6072 41.8514C89.9352 41.8514 89.3432 41.6861 88.8312 41.3554C88.3192 41.0247 87.9779 40.5821 87.8072 40.0274H87.9832V45.1474H85.9832ZM90.0472 40.3154C90.6872 40.3154 91.1992 40.0967 91.5832 39.6594C91.9672 39.2114 92.1592 38.5394 92.1592 37.6434C92.1592 36.7474 91.9672 36.0807 91.5832 35.6434C91.1992 35.2061 90.6872 34.9874 90.0472 34.9874C89.4179 34.9874 88.9112 35.2061 88.5272 35.6434C88.1432 36.0807 87.9512 36.7474 87.9512 37.6434C87.9512 38.5394 88.1432 39.2114 88.5272 39.6594C88.9112 40.0967 89.4179 40.3154 90.0472 40.3154ZM96.5295 43.8194L95.7135 43.1794C96.0548 42.8274 96.2895 42.4967 96.4175 42.1874C96.5561 41.8887 96.6255 41.5687 96.6255 41.2274L97.0575 41.6914H95.5535V39.4674H97.7935V40.9394C97.7935 41.4834 97.6975 41.9794 97.5055 42.4274C97.3241 42.8861 96.9988 43.3501 96.5295 43.8194ZM107.961 41.8514C107.129 41.8514 106.398 41.6807 105.769 41.3394C105.15 40.9981 104.67 40.5127 104.329 39.8834C103.987 39.2434 103.817 38.4861 103.817 37.6114C103.817 36.7367 103.987 35.9901 104.329 35.3714C104.681 34.7527 105.166 34.2781 105.785 33.9474C106.403 33.6167 107.129 33.4514 107.961 33.4514C108.494 33.4514 109.011 33.5367 109.513 33.7074C110.025 33.8674 110.441 34.1021 110.761 34.4114L110.153 35.8034C109.865 35.5367 109.539 35.3394 109.177 35.2114C108.825 35.0727 108.478 35.0034 108.137 35.0034C107.422 35.0034 106.862 35.2274 106.457 35.6754C106.062 36.1234 105.865 36.7741 105.865 37.6274C105.865 38.4807 106.062 39.1367 106.457 39.5954C106.862 40.0541 107.422 40.2834 108.137 40.2834C108.467 40.2834 108.809 40.2194 109.161 40.0914C109.523 39.9634 109.854 39.7661 110.153 39.4994L110.761 40.8754C110.43 41.1847 110.009 41.4247 109.497 41.5954C108.995 41.7661 108.483 41.8514 107.961 41.8514ZM112.466 41.6914V33.6114H120.034V41.6914H118.05V35.1474H114.45V41.6914H112.466ZM125.494 41.8514C124.79 41.8514 124.171 41.6861 123.638 41.3554C123.104 41.0141 122.688 40.5287 122.39 39.8994C122.091 39.2701 121.942 38.5181 121.942 37.6434C121.942 36.7687 122.091 36.0221 122.39 35.4034C122.688 34.7741 123.104 34.2941 123.638 33.9634C124.171 33.6221 124.79 33.4514 125.494 33.4514C126.176 33.4514 126.774 33.6221 127.286 33.9634C127.808 34.2941 128.155 34.7421 128.326 35.3074H128.15L128.326 33.6114H130.246C130.214 33.9421 130.182 34.2781 130.15 34.6194C130.128 34.9607 130.118 35.2967 130.118 35.6274V41.6914H128.134L128.118 40.0274H128.31C128.139 40.5821 127.792 41.0247 127.27 41.3554C126.747 41.6861 126.155 41.8514 125.494 41.8514ZM126.054 40.3154C126.683 40.3154 127.19 40.0967 127.574 39.6594C127.958 39.2114 128.15 38.5394 128.15 37.6434C128.15 36.7474 127.958 36.0807 127.574 35.6434C127.19 35.2061 126.683 34.9874 126.054 34.9874C125.424 34.9874 124.918 35.2061 124.534 35.6434C124.15 36.0807 123.958 36.7474 123.958 37.6434C123.958 38.5394 124.144 39.2114 124.518 39.6594C124.902 40.0967 125.414 40.3154 126.054 40.3154ZM136.226 41.8514C135.394 41.8514 134.664 41.6807 134.034 41.3394C133.416 40.9981 132.936 40.5127 132.594 39.8834C132.253 39.2434 132.082 38.4861 132.082 37.6114C132.082 36.7367 132.253 35.9901 132.594 35.3714C132.946 34.7527 133.432 34.2781 134.05 33.9474C134.669 33.6167 135.394 33.4514 136.226 33.4514C136.76 33.4514 137.277 33.5367 137.778 33.7074C138.29 33.8674 138.706 34.1021 139.026 34.4114L138.418 35.8034C138.13 35.5367 137.805 35.3394 137.442 35.2114C137.09 35.0727 136.744 35.0034 136.402 35.0034C135.688 35.0034 135.128 35.2274 134.722 35.6754C134.328 36.1234 134.13 36.7741 134.13 37.6274C134.13 38.4807 134.328 39.1367 134.722 39.5954C135.128 40.0541 135.688 40.2834 136.402 40.2834C136.733 40.2834 137.074 40.2194 137.426 40.0914C137.789 39.9634 138.12 39.7661 138.418 39.4994L139.026 40.8754C138.696 41.1847 138.274 41.4247 137.762 41.5954C137.261 41.7661 136.749 41.8514 136.226 41.8514ZM140.732 41.6914V33.6114H142.54V39.7234H142.06L146.652 33.6114H148.3V41.6914H146.492V35.5634H146.988L142.38 41.6914H140.732ZM154.367 41.8514C153.098 41.8514 152.085 41.4674 151.327 40.6994C150.581 39.9314 150.207 38.8061 150.207 37.3234V35.9474C150.207 34.4221 150.554 33.1954 151.247 32.2674C151.941 31.3394 152.986 30.7261 154.383 30.4274L157.343 29.7554L157.887 31.3234L154.559 32.0594C154.005 32.1767 153.546 32.4007 153.183 32.7314C152.821 33.0514 152.549 33.4354 152.367 33.8834C152.186 34.3314 152.095 34.8114 152.095 35.3234V36.1714H151.823C151.941 35.6914 152.138 35.2754 152.415 34.9234C152.693 34.5607 153.045 34.2781 153.471 34.0754C153.898 33.8727 154.383 33.7714 154.927 33.7714C155.61 33.7714 156.207 33.9314 156.719 34.2514C157.242 34.5607 157.653 35.0141 157.951 35.6114C158.25 36.1981 158.399 36.9021 158.399 37.7234C158.399 38.5661 158.229 39.2967 157.887 39.9154C157.557 40.5341 157.087 41.0141 156.479 41.3554C155.882 41.6861 155.178 41.8514 154.367 41.8514ZM154.303 40.3314C154.965 40.3314 155.477 40.1234 155.839 39.7074C156.213 39.2807 156.399 38.6461 156.399 37.8034C156.399 36.9821 156.213 36.3581 155.839 35.9314C155.466 35.4941 154.954 35.2754 154.303 35.2754C153.653 35.2754 153.141 35.4887 152.767 35.9154C152.394 36.3421 152.207 36.9501 152.207 37.7394C152.207 38.6034 152.394 39.2541 152.767 39.6914C153.141 40.1181 153.653 40.3314 154.303 40.3314ZM164.006 41.8514C163.174 41.8514 162.454 41.6807 161.846 41.3394C161.238 40.9981 160.764 40.5127 160.422 39.8834C160.092 39.2541 159.926 38.5074 159.926 37.6434C159.926 36.7794 160.092 36.0381 160.422 35.4194C160.764 34.7901 161.238 34.3047 161.846 33.9634C162.454 33.6221 163.174 33.4514 164.006 33.4514C164.838 33.4514 165.558 33.6221 166.166 33.9634C166.785 34.3047 167.26 34.7901 167.59 35.4194C167.932 36.0381 168.102 36.7794 168.102 37.6434C168.102 38.5074 167.932 39.2541 167.59 39.8834C167.26 40.5127 166.785 40.9981 166.166 41.3394C165.558 41.6807 164.838 41.8514 164.006 41.8514ZM164.006 40.3154C164.636 40.3154 165.137 40.0967 165.51 39.6594C165.884 39.2114 166.07 38.5394 166.07 37.6434C166.07 36.7474 165.884 36.0807 165.51 35.6434C165.137 35.2061 164.636 34.9874 164.006 34.9874C163.377 34.9874 162.876 35.2061 162.502 35.6434C162.129 36.0807 161.942 36.7474 161.942 37.6434C161.942 38.5394 162.129 39.2114 162.502 39.6594C162.876 40.0967 163.377 40.3154 164.006 40.3154ZM170.673 44.5714H169.073C169.628 43.3447 170.038 42.1501 170.305 40.9874C170.582 39.8141 170.721 38.6461 170.721 37.4834C170.721 36.3207 170.582 35.1581 170.305 33.9954C170.038 32.8327 169.628 31.6381 169.073 30.4114H170.673C171.185 31.1901 171.596 31.9581 171.905 32.7154C172.214 33.4727 172.438 34.2461 172.577 35.0354C172.716 35.8141 172.785 36.6301 172.785 37.4834C172.785 38.3367 172.716 39.1581 172.577 39.9474C172.438 40.7367 172.214 41.5101 171.905 42.2674C171.596 43.0247 171.185 43.7927 170.673 44.5714Z" fill="#12284C"></path></svg> 