<?xml version="1.0" encoding="UTF-8"?> <svg xmlns="http://www.w3.org/2000/svg" width="91" height="75" viewBox="0 0 91 75" fill="none"><path d="M56.8787 10.9979C65.5895 8.23253 73.8268 16.3724 71.2779 25.2266C79.7025 28.7596 80.8233 40.3501 73.2379 45.4874C77.4341 53.6659 70.9144 63.2844 61.8412 62.2996C59.8461 71.2973 48.7365 74.4421 42.4212 67.7972C35.1678 73.4032 24.6666 68.6038 24.0644 59.4073C14.9471 58.9993 9.96762 48.5004 15.36 41.0561C8.64424 34.8246 11.5173 23.5391 20.3816 21.3298C19.2103 12.1908 28.5908 5.39976 36.7791 9.45901C41.7002 1.68851 53.1994 2.56893 56.8795 10.998L56.8787 10.9979Z" fill="#407BFF"></path><path d="M26.3563 43.2246V31.9446H28.4203V43.2246H26.3563ZM30.9031 43.2246V31.9446H38.5031V33.5606H32.8871V36.6806H38.1351V38.3126H32.8871V41.5926H38.5031V43.2246H30.9031ZM40.4188 43.2246V31.9446H42.4828V41.4806H47.7948V43.2246H40.4188ZM49.9498 43.2246V33.6406H46.2218V31.9446H55.7418V33.6406H52.0138V43.2246H49.9498ZM60.761 43.3846C59.8543 43.3846 59.017 43.2726 58.249 43.0486C57.4917 42.8139 56.841 42.4939 56.297 42.0886L56.937 40.4726C57.2997 40.7286 57.6783 40.9473 58.073 41.1286C58.4677 41.2993 58.889 41.4326 59.337 41.5286C59.785 41.6139 60.2597 41.6566 60.761 41.6566C61.6037 41.6566 62.2117 41.5179 62.585 41.2406C62.9583 40.9633 63.145 40.6006 63.145 40.1526C63.145 39.7579 63.017 39.4593 62.761 39.2566C62.505 39.0433 62.0463 38.8673 61.385 38.7286L59.577 38.3606C58.5423 38.1473 57.769 37.7899 57.257 37.2886C56.745 36.7873 56.489 36.1153 56.489 35.2726C56.489 34.5686 56.6757 33.9553 57.049 33.4326C57.4223 32.9099 57.945 32.5046 58.617 32.2166C59.289 31.9286 60.073 31.7846 60.969 31.7846C61.769 31.7846 62.5103 31.9019 63.193 32.1366C63.8757 32.3606 64.4463 32.6859 64.905 33.1126L64.265 34.6486C63.8063 34.2646 63.305 33.9819 62.761 33.8006C62.217 33.6086 61.609 33.5126 60.937 33.5126C60.1797 33.5126 59.5877 33.6619 59.161 33.9606C58.745 34.2486 58.537 34.6486 58.537 35.1606C58.537 35.5553 58.665 35.8699 58.921 36.1046C59.1877 36.3393 59.6357 36.5206 60.265 36.6486L62.057 37.0006C63.1237 37.2139 63.913 37.5659 64.425 38.0566C64.937 38.5366 65.193 39.1873 65.193 40.0086C65.193 40.6806 65.0117 41.2726 64.649 41.7846C64.2863 42.2859 63.7743 42.6806 63.113 42.9686C62.4517 43.2459 61.6677 43.3846 60.761 43.3846Z" fill="white"></path></svg> 