<?xml version="1.0" encoding="UTF-8"?> <svg xmlns="http://www.w3.org/2000/svg" viewBox="5612.513671875 5116.5673828125 779.0556640625 198.60302734375"><path fill="black" fill-opacity="1" stroke="" stroke-opacity="1" stroke-width="1" fill-rule="evenodd" id="tSvg1345e00f461" d="M 5990.467513513514 5243.465567567568 C 5989.044513513514 5245.386567567568 5987.052513513514 5246.978567567568 5984.490513513514 5248.2415675675675 C 5981.930513513515 5249.504567567567 5978.603513513514 5250.136567567568 5974.511513513514 5250.136567567568 C 5971.168513513514 5250.136567567568 5968.179513513514 5249.700567567567 5965.547513513514 5248.829567567567 C 5962.914513513514 5247.957567567568 5960.682513513514 5246.694567567568 5958.850513513515 5245.040567567567 C 5957.016513513514 5243.385567567568 5955.622513513515 5241.376567567568 5954.660513513514 5239.010567567568 C 5953.700513513514 5236.645567567568 5953.220513513515 5233.950567567567 5953.220513513515 5230.925567567568 C 5953.220513513515 5229.912567567568 5953.220513513515 5229.912567567568 5953.220513513515 5229.912567567568 C 5953.220513513515 5226.746567567568 5953.700513513514 5223.953567567568 5954.660513513514 5221.533567567568 C 5955.622513513515 5219.114567567567 5957.016513513514 5217.078967567568 5958.850513513515 5215.424267567568 C 5960.682513513514 5213.770967567568 5962.914513513514 5212.525667567567 5965.547513513514 5211.689667567567 C 5968.179513513514 5210.853667567568 5971.168513513514 5210.434967567568 5974.511513513514 5210.434967567568 C 5980.168513513514 5210.434967567568 5984.766513513514 5211.5909675675675 5988.306513513514 5213.904267567567 C 5991.844513513514 5216.216267567567 5994.006513513515 5219.702567567568 5994.788513513514 5224.362567567568 C 5989.134513513514 5224.362567567568 5989.134513513514 5224.362567567568 5989.134513513514 5224.362567567568 C 5988.776513513514 5222.974567567568 5988.180513513515 5221.702567567568 5987.344513513514 5220.546567567568 C 5986.5105135135145 5219.390567567568 5985.459513513514 5218.412567567568 5984.196513513514 5217.612567567568 C 5982.9345135135145 5216.812267567568 5981.4925135135145 5216.189667567567 5979.875513513514 5215.7442675675675 C 5978.255513513514 5215.300267567567 5976.468513513514 5215.077667567568 5974.511513513514 5215.077667567568 C 5971.914513513514 5215.077667567568 5969.628513513514 5215.450967567567 5967.655513513514 5216.197667567568 C 5965.680513513515 5216.944267567567 5964.034513513514 5217.994567567567 5962.719513513514 5219.346567567567 C 5961.402513513514 5220.698567567568 5960.415513513514 5222.3085675675675 5959.756513513515 5224.176567567568 C 5959.098513513514 5226.044567567567 5958.770513513514 5228.1165675675675 5958.770513513514 5230.392567567567 C 5958.770513513514 5232.562567567567 5959.098513513514 5234.573567567568 5959.756513513515 5236.421567567568 C 5960.415513513514 5238.272567567567 5961.402513513514 5239.864567567567 5962.719513513514 5241.197567567568 C 5964.034513513514 5242.532567567568 5965.680513513515 5243.581567567568 5967.655513513514 5244.345567567568 C 5969.628513513514 5245.112567567568 5971.914513513514 5245.493567567568 5974.511513513514 5245.493567567568 C 5977.002513513514 5245.493567567568 5979.172513513514 5245.209567567567 5981.022513513514 5244.640567567568 C 5982.871513513514 5244.070567567567 5984.446513513514 5243.288567567568 5985.744513513514 5242.292567567568 C 5987.043513513514 5241.296567567568 5988.074513513514 5240.149567567568 5988.839513513514 5238.850567567568 C 5989.604513513515 5237.552567567567 5990.111513513514 5236.173567567567 5990.360513513514 5234.714567567567 C 5970.136513513514 5234.714567567567 5970.136513513514 5234.714567567567 5970.136513513514 5234.714567567567 C 5970.136513513514 5234.714567567567 5970.136513513514 5229.912567567568 5970.136513513514 5229.912567567568 C 5970.136513513514 5229.912567567568 5995.696513513514 5229.912567567568 5995.696513513514 5229.912567567568 C 5995.696513513514 5229.912567567568 5995.696513513514 5248.909567567567 5995.696513513514 5248.909567567567 C 5995.696513513514 5248.909567567567 5990.467513513514 5248.909567567567 5990.467513513514 5248.909567567567 C 5990.467513513514 5248.909567567567 5990.467513513514 5243.465567567568 5990.467513513514 5243.465567567568"></path><path fill="black" fill-opacity="1" stroke="" stroke-opacity="1" stroke-width="1" fill-rule="evenodd" id="tSvg1610ba2bd5d" d="M 6034.383513513514 5244.266567567567 C 6034.383513513514 5248.962567567568 6034.383513513514 5248.962567567568 6034.383513513514 5248.962567567568 C 6034.383513513514 5248.962567567568 6002.687513513514 5248.962567567568 6002.687513513514 5248.962567567568 C 6002.687513513514 5248.962567567568 6002.687513513514 5211.608867567567 6002.687513513514 5211.608867567567 C 6002.687513513514 5211.608867567567 6007.9165135135145 5211.608867567567 6007.9165135135145 5211.608867567567 C 6007.9165135135145 5211.608867567567 6007.9165135135145 5244.266567567567 6007.9165135135145 5244.266567567567 C 6007.9165135135145 5244.266567567567 6034.383513513514 5244.266567567567 6034.383513513514 5244.266567567567"></path><path fill="black" fill-opacity="1" stroke="" stroke-opacity="1" stroke-width="1" fill-rule="evenodd" id="tSvg626e689add" d="M 6059.355513513514 5215.130767567567 C 6056.901513513514 5215.130767567567 6054.667513513514 5215.4506675675675 6052.659513513514 5216.090767567567 C 6050.649513513515 5216.732067567567 6048.941513513514 5217.6835675675675 6047.535513513514 5218.946567567567 C 6046.130513513514 5220.209567567567 6045.046513513515 5221.793567567567 6044.281513513514 5223.695567567567 C 6043.515513513515 5225.598567567567 6043.134513513514 5227.830567567567 6043.134513513514 5230.3935675675675 C 6043.134513513514 5232.847567567567 6043.515513513515 5235.007567567567 6044.281513513514 5236.8755675675675 C 6045.046513513515 5238.743567567568 6046.130513513514 5240.309567567568 6047.535513513514 5241.571567567567 C 6048.941513513514 5242.834567567567 6050.649513513515 5243.794567567567 6052.659513513514 5244.453567567568 C 6054.667513513514 5245.111567567567 6056.901513513514 5245.439567567568 6059.355513513514 5245.439567567568 C 6061.810513513514 5245.439567567568 6064.042513513514 5245.121567567568 6066.051513513514 5244.479567567568 C 6068.062513513514 5243.839567567567 6069.7695135135145 5242.887567567567 6071.174513513514 5241.6255675675675 C 6072.579513513514 5240.362567567568 6073.665513513514 5238.795567567568 6074.430513513515 5236.929567567568 C 6075.194513513514 5235.062567567567 6075.5775135135145 5232.882567567567 6075.5775135135145 5230.3935675675675 C 6075.5775135135145 5227.938567567568 6075.194513513514 5225.767567567567 6074.430513513515 5223.882567567567 C 6073.665513513514 5221.997567567568 6072.579513513514 5220.405567567567 6071.174513513514 5219.106567567567 C 6069.7695135135145 5217.809567567568 6068.062513513514 5216.821367567568 6066.051513513514 5216.1453675675675 C 6064.042513513514 5215.469367567567 6061.810513513514 5215.130767567567 6059.355513513514 5215.130767567567Z M 6037.583513513514 5229.9115675675675 C 6037.691513513514 5226.531567567567 6038.286513513514 5223.615567567567 6039.371513513514 5221.1615675675675 C 6040.457513513515 5218.706567567568 6041.950513513514 5216.6880675675675 6043.854513513515 5215.104067567568 C 6045.757513513514 5213.522767567568 6048.015513513515 5212.348067567567 6050.630513513514 5211.582767567567 C 6053.245513513514 5210.818767567567 6056.153513513515 5210.436067567567 6059.355513513514 5210.436067567567 C 6062.557513513514 5210.436067567567 6065.466513513515 5210.836067567568 6068.081513513514 5211.636067567568 C 6070.694513513514 5212.436067567567 6072.953513513514 5213.637367567568 6074.857513513514 5215.237367567567 C 6076.759513513514 5216.838667567567 6078.254513513514 5218.8575675675675 6079.339513513514 5221.294567567567 C 6080.4255135135145 5223.731567567567 6081.0195135135145 5226.603567567568 6081.127513513514 5229.9115675675675 C 6081.127513513514 5230.873567567567 6081.127513513514 5230.873567567567 6081.127513513514 5230.873567567567 C 6081.0195135135145 5234.181567567567 6080.4255135135145 5237.054567567568 6079.339513513514 5239.490567567567 C 6078.254513513514 5241.927567567567 6076.759513513514 5243.929567567568 6074.857513513514 5245.494567567567 C 6072.953513513514 5247.059567567568 6070.694513513514 5248.223567567567 6068.081513513514 5248.989567567567 C 6065.466513513515 5249.753567567567 6062.557513513514 5250.135567567568 6059.355513513514 5250.135567567568 C 6056.153513513515 5250.135567567568 6053.245513513514 5249.753567567567 6050.630513513514 5248.989567567567 C 6048.015513513515 5248.223567567567 6045.757513513514 5247.050567567568 6043.854513513515 5245.466567567568 C 6041.950513513514 5243.883567567567 6040.457513513515 5241.882567567567 6039.371513513514 5239.463567567567 C 6038.286513513514 5237.045567567568 6037.691513513514 5234.181567567567 6037.583513513514 5230.873567567567 C 6037.583513513514 5229.9115675675675 6037.583513513514 5229.9115675675675 6037.583513513514 5229.9115675675675"></path><path fill="black" fill-opacity="1" stroke="" stroke-opacity="1" stroke-width="1" fill-rule="evenodd" id="tSvgf4ed8c7997" d="M 6091.692513513514 5244.266567567567 C 6111.275513513514 5244.266567567567 6111.275513513514 5244.266567567567 6111.275513513514 5244.266567567567 C 6113.090513513514 5244.266567567567 6114.566513513514 5244.115567567567 6115.704513513514 5243.812567567567 C 6116.843513513514 5243.511567567568 6117.723513513514 5243.064567567568 6118.346513513514 5242.479567567568 C 6118.968513513514 5241.891567567567 6119.395513513514 5241.190567567567 6119.627513513514 5240.371567567568 C 6119.8585135135145 5239.552567567567 6119.9745135135145 5238.646567567567 6119.9745135135145 5237.650567567567 C 6119.9745135135145 5236.618567567568 6119.8675135135145 5235.7105675675675 6119.654513513514 5234.927567567567 C 6119.440513513514 5234.146567567567 6119.014513513514 5233.470567567568 6118.374513513514 5232.900567567567 C 6117.732513513514 5232.331567567568 6116.834513513514 5231.904567567568 6115.679513513514 5231.619567567567 C 6114.522513513514 5231.3355675675675 6113.002513513514 5231.1925675675675 6111.115513513514 5231.1925675675675 C 6091.692513513514 5231.1925675675675 6091.692513513514 5231.1925675675675 6091.692513513514 5231.1925675675675 C 6091.692513513514 5231.1925675675675 6091.692513513514 5244.266567567567 6091.692513513514 5244.266567567567 M 6091.692513513514 5226.496567567568 C 6109.302513513514 5226.496567567568 6109.302513513514 5226.496567567568 6109.302513513514 5226.496567567568 C 6110.831513513514 5226.496567567568 6112.147513513514 5226.426567567568 6113.250513513514 5226.283567567568 C 6114.352513513514 5226.142567567567 6115.2515135135145 5225.8755675675675 6115.944513513514 5225.483567567568 C 6116.639513513514 5225.092567567567 6117.154513513514 5224.548567567567 6117.4925135135145 5223.855567567567 C 6117.831513513514 5223.162567567568 6117.999513513514 5222.280567567567 6117.999513513514 5221.214567567567 C 6117.999513513514 5220.147567567567 6117.812513513514 5219.284567567567 6117.439513513515 5218.626567567568 C 6117.066513513514 5217.968567567567 6116.514513513514 5217.470267567567 6115.784513513514 5217.131567567568 C 6115.056513513514 5216.794267567568 6114.139513513514 5216.571567567567 6113.036513513514 5216.464867567567 C 6111.9345135135145 5216.358267567567 6110.652513513514 5216.304867567567 6109.195513513514 5216.304867567567 C 6091.692513513514 5216.304867567567 6091.692513513514 5216.304867567567 6091.692513513514 5216.304867567567 C 6091.692513513514 5216.304867567567 6091.692513513514 5226.496567567568 6091.692513513514 5226.496567567568 M 6125.630513513514 5238.0765675675675 C 6125.630513513514 5241.954567567567 6124.411513513514 5244.738567567568 6121.975513513515 5246.427567567567 C 6119.538513513514 5248.118567567568 6115.971513513514 5248.962567567568 6111.275513513514 5248.962567567568 C 6086.463513513514 5248.962567567568 6086.463513513514 5248.962567567568 6086.463513513514 5248.962567567568 C 6086.463513513514 5248.962567567568 6086.463513513514 5211.608867567567 6086.463513513514 5211.608867567567 C 6086.463513513514 5211.608867567567 6109.7825135135145 5211.608867567567 6109.7825135135145 5211.608867567567 C 6111.880513513514 5211.608867567567 6113.775513513514 5211.742267567567 6115.464513513514 5212.008867567568 C 6117.154513513514 5212.275567567567 6118.604513513515 5212.755567567568 6119.814513513515 5213.450267567568 C 6121.023513513514 5214.1435675675675 6121.956513513514 5215.068867567567 6122.615513513514 5216.224867567567 C 6123.274513513515 5217.380867567567 6123.603513513514 5218.8665675675675 6123.603513513514 5220.680567567568 C 6123.603513513514 5222.602567567567 6123.194513513514 5224.175567567568 6122.375513513514 5225.403567567568 C 6121.556513513514 5226.630567567568 6120.508513513514 5227.618567567568 6119.227513513514 5228.364567567567 C 6121.324513513514 5229.111567567567 6122.9165135135145 5230.224567567568 6124.003513513514 5231.699567567567 C 6125.087513513514 5233.175567567568 6125.630513513514 5235.302567567567 6125.630513513514 5238.0765675675675Z"></path><path fill="black" fill-opacity="1" stroke="" stroke-opacity="1" stroke-width="1" fill-rule="evenodd" id="tSvg176de980db7" d="M 6142.012513513514 5232.953567567568 C 6160.208513513514 5232.953567567568 6160.208513513514 5232.953567567568 6160.208513513514 5232.953567567568 C 6160.208513513514 5232.953567567568 6151.137513513514 5214.489667567567 6151.137513513514 5214.489667567567 C 6151.137513513514 5214.489667567567 6142.012513513514 5232.953567567568 6142.012513513514 5232.953567567568 M 6139.664513513514 5237.649567567568 C 6134.115513513514 5248.962567567568 6134.115513513514 5248.962567567568 6134.115513513514 5248.962567567568 C 6134.115513513514 5248.962567567568 6128.297513513514 5248.962567567568 6128.297513513514 5248.962567567568 C 6128.297513513514 5248.962567567568 6146.708513513514 5211.609667567567 6146.708513513514 5211.609667567567 C 6146.708513513514 5211.609667567567 6155.567513513514 5211.609667567567 6155.567513513514 5211.609667567567 C 6155.567513513514 5211.609667567567 6173.976513513514 5248.962567567568 6173.976513513514 5248.962567567568 C 6173.976513513514 5248.962567567568 6168.105513513514 5248.962567567568 6168.105513513514 5248.962567567568 C 6168.105513513514 5248.962567567568 6162.556513513514 5237.649567567568 6162.556513513514 5237.649567567568 C 6162.556513513514 5237.649567567568 6139.664513513514 5237.649567567568 6139.664513513514 5237.649567567568"></path><path fill="black" fill-opacity="1" stroke="" stroke-opacity="1" stroke-width="1" fill-rule="evenodd" id="tSvg6cbdc9718a" d="M 6209.941513513514 5244.266567567567 C 6209.941513513514 5248.962567567568 6209.941513513514 5248.962567567568 6209.941513513514 5248.962567567568 C 6209.941513513514 5248.962567567568 6178.245513513514 5248.962567567568 6178.245513513514 5248.962567567568 C 6178.245513513514 5248.962567567568 6178.245513513514 5211.608867567567 6178.245513513514 5211.608867567567 C 6178.245513513514 5211.608867567567 6183.4745135135145 5211.608867567567 6183.4745135135145 5211.608867567567 C 6183.4745135135145 5211.608867567567 6183.4745135135145 5244.266567567567 6183.4745135135145 5244.266567567567 C 6183.4745135135145 5244.266567567567 6209.941513513514 5244.266567567567 6209.941513513514 5244.266567567567"></path><path fill="black" fill-opacity="1" stroke="" stroke-opacity="1" stroke-width="1" fill-rule="evenodd" id="tSvg9633bdf59a" d="M 5990.467513513514 5307.5005675675675 C 5989.044513513514 5309.421567567568 5987.052513513514 5311.013567567567 5984.490513513514 5312.274567567568 C 5981.930513513515 5313.537567567568 5978.603513513514 5314.170567567568 5974.511513513514 5314.170567567568 C 5971.168513513514 5314.170567567568 5968.179513513514 5313.734567567568 5965.547513513514 5312.864567567567 C 5962.914513513514 5311.992567567568 5960.682513513514 5310.728567567568 5958.850513513515 5309.074567567567 C 5957.016513513514 5307.420567567568 5955.622513513515 5305.410567567567 5954.660513513514 5303.045567567568 C 5953.700513513514 5300.678567567567 5953.220513513515 5297.985567567567 5953.220513513515 5294.9605675675675 C 5953.220513513515 5293.946567567567 5953.220513513515 5293.946567567567 5953.220513513515 5293.946567567567 C 5953.220513513515 5290.780567567567 5953.700513513514 5287.988567567568 5954.660513513514 5285.568567567568 C 5955.622513513515 5283.149567567568 5957.016513513514 5281.112567567568 5958.850513513515 5279.458567567567 C 5960.682513513514 5277.804567567568 5962.914513513514 5276.5585675675675 5965.547513513514 5275.722567567567 C 5968.179513513514 5274.886567567568 5971.168513513514 5274.4695675675675 5974.511513513514 5274.4695675675675 C 5980.168513513514 5274.4695675675675 5984.766513513514 5275.6255675675675 5988.306513513514 5277.938567567568 C 5991.844513513514 5280.2505675675675 5994.006513513515 5283.737567567568 5994.788513513514 5288.397567567567 C 5989.134513513514 5288.397567567567 5989.134513513514 5288.397567567567 5989.134513513514 5288.397567567567 C 5988.776513513514 5287.008567567567 5988.180513513515 5285.737567567568 5987.344513513514 5284.580567567567 C 5986.5105135135145 5283.4245675675675 5985.459513513514 5282.446567567567 5984.196513513514 5281.646567567567 C 5982.9345135135145 5280.846567567567 5981.4925135135145 5280.224567567568 5979.875513513514 5279.778567567568 C 5978.255513513514 5279.334567567567 5976.468513513514 5279.110567567567 5974.511513513514 5279.110567567567 C 5971.914513513514 5279.110567567567 5969.628513513514 5279.485567567567 5967.655513513514 5280.2325675675675 C 5965.680513513515 5280.978567567568 5964.034513513514 5282.028567567568 5962.719513513514 5283.380567567568 C 5961.402513513514 5284.733567567568 5960.415513513514 5286.341567567568 5959.756513513515 5288.209567567567 C 5959.098513513514 5290.078567567568 5958.770513513514 5292.150567567567 5958.770513513514 5294.426567567568 C 5958.770513513514 5296.596567567567 5959.098513513514 5298.606567567567 5959.756513513515 5300.454567567567 C 5960.415513513514 5302.305567567568 5961.402513513514 5303.897567567567 5962.719513513514 5305.2325675675675 C 5964.034513513514 5306.565567567567 5965.680513513515 5307.6165675675675 5967.655513513514 5308.380567567568 C 5969.628513513514 5309.145567567568 5971.914513513514 5309.528567567568 5974.511513513514 5309.528567567568 C 5977.002513513514 5309.528567567568 5979.172513513514 5309.242567567568 5981.022513513514 5308.6745675675675 C 5982.871513513514 5308.105567567567 5984.446513513514 5307.322567567568 5985.744513513514 5306.325567567567 C 5987.043513513514 5305.330567567567 5988.074513513514 5304.182567567567 5988.839513513514 5302.885567567568 C 5989.604513513515 5301.5855675675675 5990.111513513514 5300.208567567567 5990.360513513514 5298.748567567567 C 5970.136513513514 5298.748567567567 5970.136513513514 5298.748567567567 5970.136513513514 5298.748567567567 C 5970.136513513514 5298.748567567567 5970.136513513514 5293.946567567567 5970.136513513514 5293.946567567567 C 5970.136513513514 5293.946567567567 5995.696513513514 5293.946567567567 5995.696513513514 5293.946567567567 C 5995.696513513514 5293.946567567567 5995.696513513514 5312.944567567568 5995.696513513514 5312.944567567568 C 5995.696513513514 5312.944567567568 5990.467513513514 5312.944567567568 5990.467513513514 5312.944567567568 C 5990.467513513514 5312.944567567568 5990.467513513514 5307.5005675675675 5990.467513513514 5307.5005675675675"></path><path fill="black" fill-opacity="1" stroke="" stroke-opacity="1" stroke-width="1" fill-rule="evenodd" id="tSvg164a7a6c13a" d="M 6038.331513513514 5308.300567567568 C 6038.331513513514 5312.995567567567 6038.331513513514 5312.995567567567 6038.331513513514 5312.995567567567 C 6038.331513513514 5312.995567567567 6002.686513513514 5312.995567567567 6002.686513513514 5312.995567567567 C 6002.686513513514 5312.995567567567 6002.686513513514 5275.6435675675675 6002.686513513514 5275.6435675675675 C 6002.686513513514 5275.6435675675675 6036.571513513514 5275.6435675675675 6036.571513513514 5275.6435675675675 C 6036.571513513514 5275.6435675675675 6036.571513513514 5280.339567567567 6036.571513513514 5280.339567567567 C 6036.571513513514 5280.339567567567 6007.915513513514 5280.339567567567 6007.915513513514 5280.339567567567 C 6007.915513513514 5280.339567567567 6007.915513513514 5290.4245675675675 6007.915513513514 5290.4245675675675 C 6007.915513513514 5290.4245675675675 6031.182513513514 5290.4245675675675 6031.182513513514 5290.4245675675675 C 6031.182513513514 5290.4245675675675 6031.182513513514 5295.119567567567 6031.182513513514 5295.119567567567 C 6031.182513513514 5295.119567567567 6007.915513513514 5295.119567567567 6007.915513513514 5295.119567567567 C 6007.915513513514 5295.119567567567 6007.915513513514 5308.300567567568 6007.915513513514 5308.300567567568 C 6007.915513513514 5308.300567567568 6038.331513513514 5308.300567567568 6038.331513513514 5308.300567567568"></path><path fill="black" fill-opacity="1" stroke="" stroke-opacity="1" stroke-width="1" fill-rule="evenodd" id="tSvg2e7d9e8cb9" d="M 6049.431513513514 5279.111567567567 C 6049.431513513514 5312.996567567568 6049.431513513514 5312.996567567568 6049.431513513514 5312.996567567568 C 6049.431513513514 5312.996567567568 6044.201513513514 5312.996567567568 6044.201513513514 5312.996567567568 C 6044.201513513514 5312.996567567568 6044.201513513514 5275.6435675675675 6044.201513513514 5275.6435675675675 C 6044.201513513514 5275.6435675675675 6053.3275135135145 5275.6435675675675 6053.3275135135145 5275.6435675675675 C 6053.3275135135145 5275.6435675675675 6077.552513513514 5309.5275675675675 6077.552513513514 5309.5275675675675 C 6077.552513513514 5309.5275675675675 6077.552513513514 5275.6435675675675 6077.552513513514 5275.6435675675675 C 6077.552513513514 5275.6435675675675 6082.728513513514 5275.6435675675675 6082.728513513514 5275.6435675675675 C 6082.728513513514 5275.6435675675675 6082.728513513514 5312.996567567568 6082.728513513514 5312.996567567568 C 6082.728513513514 5312.996567567568 6073.549513513514 5312.996567567568 6073.549513513514 5312.996567567568 C 6073.549513513514 5312.996567567568 6049.431513513514 5279.111567567567 6049.431513513514 5279.111567567567"></path><path fill="black" fill-opacity="1" stroke="" stroke-opacity="1" stroke-width="1" fill-rule="evenodd" id="tSvgea4e3d07b9" d="M 6125.845513513515 5308.300567567568 C 6125.845513513515 5312.995567567567 6125.845513513515 5312.995567567567 6125.845513513515 5312.995567567567 C 6125.845513513515 5312.995567567567 6090.200513513514 5312.995567567567 6090.200513513514 5312.995567567567 C 6090.200513513514 5312.995567567567 6090.200513513514 5275.6435675675675 6090.200513513514 5275.6435675675675 C 6090.200513513514 5275.6435675675675 6124.084513513514 5275.6435675675675 6124.084513513514 5275.6435675675675 C 6124.084513513514 5275.6435675675675 6124.084513513514 5280.339567567567 6124.084513513514 5280.339567567567 C 6124.084513513514 5280.339567567567 6095.429513513514 5280.339567567567 6095.429513513514 5280.339567567567 C 6095.429513513514 5280.339567567567 6095.429513513514 5290.4245675675675 6095.429513513514 5290.4245675675675 C 6095.429513513514 5290.4245675675675 6118.694513513514 5290.4245675675675 6118.694513513514 5290.4245675675675 C 6118.694513513514 5290.4245675675675 6118.694513513514 5295.119567567567 6118.694513513514 5295.119567567567 C 6118.694513513514 5295.119567567567 6095.429513513514 5295.119567567567 6095.429513513514 5295.119567567567 C 6095.429513513514 5295.119567567567 6095.429513513514 5308.300567567568 6095.429513513514 5308.300567567568 C 6095.429513513514 5308.300567567568 6125.845513513515 5308.300567567568 6125.845513513515 5308.300567567568"></path><path fill="black" fill-opacity="1" stroke="" stroke-opacity="1" stroke-width="1" fill-rule="evenodd" id="tSvgf069158253" d="M 6136.944513513514 5294.639567567568 C 6154.874513513514 5294.639567567568 6154.874513513514 5294.639567567568 6154.874513513514 5294.639567567568 C 6157.968513513514 5294.639567567568 6160.271513513514 5294.034567567567 6161.784513513514 5292.8265675675675 C 6163.296513513515 5291.615567567567 6164.051513513514 5289.855567567567 6164.051513513514 5287.542567567568 C 6164.051513513514 5285.266567567567 6163.339513513514 5283.496567567568 6161.918513513514 5282.2325675675675 C 6160.494513513514 5280.971567567567 6158.342513513514 5280.339567567567 6155.460513513514 5280.339567567567 C 6136.944513513514 5280.339567567567 6136.944513513514 5280.339567567567 6136.944513513514 5280.339567567567 C 6136.944513513514 5280.339567567567 6136.944513513514 5294.639567567568 6136.944513513514 5294.639567567568 M 6136.944513513514 5299.336567567568 C 6136.944513513514 5312.995567567567 6136.944513513514 5312.995567567567 6136.944513513514 5312.995567567567 C 6136.944513513514 5312.995567567567 6131.715513513514 5312.995567567567 6131.715513513514 5312.995567567567 C 6131.715513513514 5312.995567567567 6131.715513513514 5275.642567567567 6131.715513513514 5275.642567567567 C 6131.715513513514 5275.642567567567 6156.6355135135145 5275.642567567567 6156.6355135135145 5275.642567567567 C 6158.590513513514 5275.642567567567 6160.370513513514 5275.9025675675675 6161.971513513514 5276.416567567568 C 6163.571513513514 5276.932567567567 6164.932513513514 5277.698567567568 6166.052513513514 5278.7105675675675 C 6167.174513513514 5279.724567567568 6168.044513513514 5280.996567567568 6168.668513513514 5282.5275675675675 C 6169.290513513514 5284.0585675675675 6169.602513513514 5285.8355675675675 6169.602513513514 5287.863567567568 C 6169.495513513514 5290.851567567567 6168.775513513514 5293.216567567568 6167.440513513514 5294.959567567567 C 6166.106513513514 5296.703567567568 6164.266513513514 5297.931567567567 6161.918513513514 5298.642567567567 C 6170.188513513514 5312.943567567568 6170.188513513514 5312.943567567568 6170.188513513514 5312.943567567568 C 6170.188513513514 5312.943567567568 6164.051513513514 5312.943567567568 6164.051513513514 5312.943567567568 C 6164.051513513514 5312.943567567568 6156.315513513514 5299.336567567568 6156.315513513514 5299.336567567568 C 6156.315513513514 5299.336567567568 6136.944513513514 5299.336567567568 6136.944513513514 5299.336567567568"></path><path fill="black" fill-opacity="1" stroke="" stroke-opacity="1" stroke-width="1" fill-rule="evenodd" id="tSvg4ee2cac022" d="M 6187.103513513514 5296.987567567568 C 6205.299513513514 5296.987567567568 6205.299513513514 5296.987567567568 6205.299513513514 5296.987567567568 C 6205.299513513514 5296.987567567568 6196.228513513514 5278.524567567568 6196.228513513514 5278.524567567568 C 6196.228513513514 5278.524567567568 6187.103513513514 5296.987567567568 6187.103513513514 5296.987567567568 M 6184.755513513514 5301.684567567568 C 6179.206513513514 5312.996567567568 6179.206513513514 5312.996567567568 6179.206513513514 5312.996567567568 C 6179.206513513514 5312.996567567568 6173.388513513514 5312.996567567568 6173.388513513514 5312.996567567568 C 6173.388513513514 5312.996567567568 6191.799513513514 5275.6435675675675 6191.799513513514 5275.6435675675675 C 6191.799513513514 5275.6435675675675 6200.658513513514 5275.6435675675675 6200.658513513514 5275.6435675675675 C 6200.658513513514 5275.6435675675675 6219.067513513514 5312.996567567568 6219.067513513514 5312.996567567568 C 6219.067513513514 5312.996567567568 6213.196513513514 5312.996567567568 6213.196513513514 5312.996567567568 C 6213.196513513514 5312.996567567568 6207.647513513514 5301.684567567568 6207.647513513514 5301.684567567568 C 6207.647513513514 5301.684567567568 6184.755513513514 5301.684567567568 6184.755513513514 5301.684567567568"></path><path fill="black" fill-opacity="1" stroke="" stroke-opacity="1" stroke-width="1" fill-rule="evenodd" id="tSvg1667ee0254b" d="M 6242.4925135135145 5280.340567567568 C 6242.4925135135145 5312.996567567568 6242.4925135135145 5312.996567567568 6242.4925135135145 5312.996567567568 C 6242.4925135135145 5312.996567567568 6237.263513513514 5312.996567567568 6237.263513513514 5312.996567567568 C 6237.263513513514 5312.996567567568 6237.263513513514 5280.340567567568 6237.263513513514 5280.340567567568 C 6237.263513513514 5280.340567567568 6220.667513513514 5280.340567567568 6220.667513513514 5280.340567567568 C 6220.667513513514 5280.340567567568 6220.667513513514 5275.642567567567 6220.667513513514 5275.642567567567 C 6220.667513513514 5275.642567567567 6259.140513513514 5275.642567567567 6259.140513513514 5275.642567567567 C 6259.140513513514 5275.642567567567 6259.140513513514 5280.340567567568 6259.140513513514 5280.340567567568 C 6259.140513513514 5280.340567567568 6242.4925135135145 5280.340567567568 6242.4925135135145 5280.340567567568"></path><path fill="black" fill-opacity="1" stroke="" stroke-opacity="1" stroke-width="1" fill-rule="evenodd" id="tSvga18dee8cc0" d="M 6298.361513513514 5308.300567567568 C 6298.361513513514 5312.995567567567 6298.361513513514 5312.995567567567 6298.361513513514 5312.995567567567 C 6298.361513513514 5312.995567567567 6263.942513513514 5312.995567567567 6263.942513513514 5312.995567567567 C 6263.942513513514 5312.995567567567 6263.942513513514 5308.300567567568 6263.942513513514 5308.300567567568 C 6263.942513513514 5308.300567567568 6278.404513513514 5308.300567567568 6278.404513513514 5308.300567567568 C 6278.404513513514 5308.300567567568 6278.404513513514 5280.339567567567 6278.404513513514 5280.339567567567 C 6278.404513513514 5280.339567567567 6263.942513513514 5280.339567567567 6263.942513513514 5280.339567567567 C 6263.942513513514 5280.339567567567 6263.942513513514 5275.6435675675675 6263.942513513514 5275.6435675675675 C 6263.942513513514 5275.6435675675675 6298.361513513514 5275.6435675675675 6298.361513513514 5275.6435675675675 C 6298.361513513514 5275.6435675675675 6298.361513513514 5280.339567567567 6298.361513513514 5280.339567567567 C 6298.361513513514 5280.339567567567 6283.633513513514 5280.339567567567 6283.633513513514 5280.339567567567 C 6283.633513513514 5280.339567567567 6283.633513513514 5308.300567567568 6283.633513513514 5308.300567567568 C 6283.633513513514 5308.300567567568 6298.361513513514 5308.300567567568 6298.361513513514 5308.300567567568"></path><path fill="black" fill-opacity="1" stroke="" stroke-opacity="1" stroke-width="1" fill-rule="evenodd" id="tSvg7b7b303369" d="M 6324.935513513514 5279.165567567567 C 6322.480513513514 5279.165567567567 6320.247513513515 5279.485567567567 6318.238513513515 5280.1255675675675 C 6316.228513513514 5280.766567567567 6314.520513513514 5281.717567567567 6313.115513513514 5282.979567567568 C 6311.710513513514 5284.243567567568 6310.6265135135145 5285.8265675675675 6309.860513513514 5287.729567567568 C 6309.095513513515 5289.633567567567 6308.714513513514 5291.865567567567 6308.714513513514 5294.427567567567 C 6308.714513513514 5296.881567567568 6309.095513513515 5299.042567567568 6309.860513513514 5300.909567567567 C 6310.6265135135145 5302.7775675675675 6311.710513513514 5304.342567567567 6313.115513513514 5305.605567567567 C 6314.520513513514 5306.869567567567 6316.228513513514 5307.829567567567 6318.238513513515 5308.486567567567 C 6320.247513513515 5309.146567567567 6322.480513513514 5309.473567567567 6324.935513513514 5309.473567567567 C 6327.390513513514 5309.473567567567 6329.622513513515 5309.155567567567 6331.631513513515 5308.514567567568 C 6333.642513513514 5307.874567567567 6335.348513513514 5306.922567567567 6336.754513513514 5305.658567567568 C 6338.159513513514 5304.397567567567 6339.244513513514 5302.830567567567 6340.0105135135145 5300.963567567567 C 6340.775513513514 5299.097567567567 6341.156513513514 5296.915567567567 6341.156513513514 5294.427567567567 C 6341.156513513514 5291.971567567567 6340.775513513514 5289.802567567567 6340.0105135135145 5287.917567567568 C 6339.244513513514 5286.030567567567 6338.159513513514 5284.439567567568 6336.754513513514 5283.139567567568 C 6335.348513513514 5281.842567567567 6333.642513513514 5280.855567567567 6331.631513513515 5280.179567567568 C 6329.622513513515 5279.503567567567 6327.390513513514 5279.165567567567 6324.935513513514 5279.165567567567Z M 6303.163513513514 5293.946567567567 C 6303.270513513514 5290.566567567567 6303.866513513514 5287.649567567568 6304.951513513514 5285.195567567567 C 6306.036513513514 5282.739567567567 6307.530513513514 5280.721567567567 6309.4345135135145 5279.138567567567 C 6311.336513513515 5277.557567567567 6313.595513513515 5276.382567567567 6316.210513513514 5275.617567567568 C 6318.824513513514 5274.851567567567 6321.732513513514 5274.470567567568 6324.935513513514 5274.470567567568 C 6328.136513513515 5274.470567567568 6331.046513513515 5274.870567567567 6333.660513513514 5275.670567567568 C 6336.274513513514 5276.4695675675675 6338.5325135135145 5277.670567567568 6340.436513513514 5279.271567567567 C 6342.339513513514 5280.871567567568 6343.834513513514 5282.891567567567 6344.919513513514 5285.329567567567 C 6346.004513513514 5287.766567567567 6346.5995135135145 5290.637567567567 6346.707513513515 5293.946567567567 C 6346.707513513515 5294.907567567568 6346.707513513515 5294.907567567568 6346.707513513515 5294.907567567568 C 6346.5995135135145 5298.215567567568 6346.004513513514 5301.089567567567 6344.919513513514 5303.525567567567 C 6343.834513513514 5305.962567567568 6342.339513513514 5307.963567567567 6340.436513513514 5309.5275675675675 C 6338.5325135135145 5311.093567567567 6336.274513513514 5312.258567567567 6333.660513513514 5313.023567567568 C 6331.046513513515 5313.7865675675675 6328.136513513515 5314.170567567568 6324.935513513514 5314.170567567568 C 6321.732513513514 5314.170567567568 6318.824513513514 5313.7865675675675 6316.210513513514 5313.023567567568 C 6313.595513513515 5312.258567567567 6311.336513513515 5311.083567567567 6309.4345135135145 5309.501567567568 C 6307.530513513514 5307.918567567567 6306.036513513514 5305.917567567568 6304.951513513514 5303.497567567568 C 6303.866513513514 5301.079567567567 6303.270513513514 5298.215567567568 6303.163513513514 5294.907567567568 C 6303.163513513514 5293.946567567567 6303.163513513514 5293.946567567567 6303.163513513514 5293.946567567567"></path><path fill="black" fill-opacity="1" stroke="" stroke-opacity="1" stroke-width="1" fill-rule="evenodd" id="tSvg937336e1e3" d="M 6357.272513513514 5279.111567567567 C 6357.272513513514 5312.996567567568 6357.272513513514 5312.996567567568 6357.272513513514 5312.996567567568 C 6357.272513513514 5312.996567567568 6352.043513513514 5312.996567567568 6352.043513513514 5312.996567567568 C 6352.043513513514 5312.996567567568 6352.043513513514 5275.6435675675675 6352.043513513514 5275.6435675675675 C 6352.043513513514 5275.6435675675675 6361.168513513514 5275.6435675675675 6361.168513513514 5275.6435675675675 C 6361.168513513514 5275.6435675675675 6385.393513513514 5309.5275675675675 6385.393513513514 5309.5275675675675 C 6385.393513513514 5309.5275675675675 6385.393513513514 5275.6435675675675 6385.393513513514 5275.6435675675675 C 6385.393513513514 5275.6435675675675 6390.569513513514 5275.6435675675675 6390.569513513514 5275.6435675675675 C 6390.569513513514 5275.6435675675675 6390.569513513514 5312.996567567568 6390.569513513514 5312.996567567568 C 6390.569513513514 5312.996567567568 6381.391513513514 5312.996567567568 6381.391513513514 5312.996567567568 C 6381.391513513514 5312.996567567568 6357.272513513514 5279.111567567567 6357.272513513514 5279.111567567567"></path><path fill="#70D8C1" fill-opacity="1" stroke="" stroke-opacity="1" stroke-width="1" fill-rule="evenodd" id="tSvge63a14443f" d="M 5648.961513513515 5306.709567567567 C 5648.961513513515 5125.0306275675675 5648.961513513515 5125.0306275675675 5648.961513513515 5125.0306275675675 C 5625.344213513515 5148.538667567567 5613.513513513514 5178.733267567567 5613.513513513514 5215.653267567567 C 5613.513513513514 5252.570567567567 5625.336213513514 5282.917567567568 5648.961513513515 5306.709567567567Z"></path><path fill="#52BEDA" fill-opacity="1" stroke="" stroke-opacity="1" stroke-width="1" fill-rule="evenodd" id="tSvgd807445e3b" d="M 5864.228513513514 5182.350167567567 C 5907.8945135135145 5182.350167567567 5907.8945135135145 5182.350167567567 5907.8945135135145 5182.350167567567 C 5904.674513513514 5167.576867567567 5898.348513513514 5155.179467567567 5888.914513513514 5145.158167567568 C 5879.479513513515 5135.139467567567 5868.762513513514 5128.008867567568 5856.768513513514 5123.763497567567 C 5852.575513513514 5122.282167567568 5848.2515135135145 5121.074167567567 5843.810513513514 5120.1101575675675 C 5843.810513513514 5161.0954675675675 5843.810513513514 5161.0954675675675 5843.810513513514 5161.0954675675675 C 5844.7425135135145 5161.571467567567 5845.664513513514 5162.066167567567 5846.566513513514 5162.602167567567 C 5854.6845135135145 5167.428867567567 5860.570513513514 5174.012867567568 5864.228513513514 5182.350167567567Z"></path><path fill="black" fill-opacity="1" stroke="" stroke-opacity="1" stroke-width="1" fill-rule="evenodd" id="tSvg704c915e97" d="M 5750.991513513514 5210.598267567568 C 5750.991513513514 5240.222567567567 5750.991513513514 5240.222567567567 5750.991513513514 5240.222567567567 C 5750.991513513514 5240.222567567567 5801.023513513514 5240.222567567567 5801.023513513514 5240.222567567567 C 5798.384513513514 5251.738567567568 5792.7825135135145 5260.499567567567 5784.215513513514 5266.479567567568 C 5783.7605135135145 5266.803567567567 5783.292513513514 5267.115567567567 5782.811513513514 5267.427567567567 C 5773.4525135135145 5273.432567567567 5762.846513513514 5276.422567567567 5750.991513513514 5276.422567567567 C 5744.570513513514 5276.422567567567 5738.551513513514 5275.603567567568 5732.962513513514 5273.966567567568 C 5723.798513513514 5271.275567567567 5715.764513513514 5266.400567567567 5708.863613513514 5259.316567567567 C 5697.748913513514 5247.903567567568 5692.1863135135145 5233.423567567567 5692.1863135135145 5215.862267567568 C 5692.1863135135145 5198.171567567568 5697.710313513514 5183.691567567567 5708.7596135135145 5172.420867567567 C 5715.596513513514 5165.427567567567 5723.668513513514 5160.618267567567 5732.975513513515 5157.967567567567 C 5738.668513513514 5156.328867567568 5744.816513513514 5155.523567567568 5751.4345135135145 5155.523567567568 C 5762.104513513515 5155.523567567568 5771.516513513514 5157.940867567568 5779.627513513514 5162.763567567567 C 5781.095513513515 5163.634267567568 5782.487513513514 5164.556867567568 5783.812513513514 5165.544867567567 C 5789.804513513514 5170.016867567568 5794.302513513514 5175.6835675675675 5797.292513513514 5182.507567567567 C 5840.954513513514 5182.507567567567 5840.954513513514 5182.507567567567 5840.954513513514 5182.507567567567 C 5838.862513513514 5172.902267567568 5835.455513513514 5164.310267567567 5830.7245135135145 5156.7195675675675 C 5828.203513513514 5152.624867567568 5825.278513513515 5148.815567567567 5821.976513513514 5145.319567567568 C 5812.539513513514 5135.2968675675675 5801.828513513514 5128.174267567568 5789.831513513514 5123.9235575675675 C 5787.882513513514 5123.234227567567 5785.892513513514 5122.598217567567 5783.891513513514 5122.026217567567 C 5773.570513513514 5119.048887567567 5762.534513513514 5117.5675675675675 5750.770513513514 5117.5675675675675 C 5720.496513513514 5117.5675675675675 5695.955613513514 5126.704877567568 5677.159613513514 5144.9942675675675 C 5658.363613513514 5163.283567567568 5648.966313513514 5186.902267567568 5648.966313513514 5215.862267567568 C 5648.966313513514 5244.5365675675675 5658.182313513515 5268.090567567568 5676.614313513514 5286.522567567567 C 5695.046313513514 5304.954567567567 5718.156513513514 5314.170567567568 5745.947513513514 5314.170567567568 C 5758.179513513514 5314.170567567568 5769.098513513514 5312.363567567568 5778.704513513514 5308.736567567567 C 5782.071513513514 5307.476567567567 5785.268513513514 5305.994567567567 5788.296513513515 5304.291567567568 C 5799.995513513514 5297.714567567567 5809.211513513515 5289.004567567567 5815.944513513514 5278.178567567567 C 5816.387513513514 5314.118567567568 5816.387513513514 5314.118567567568 5816.387513513514 5314.118567567568 C 5826.460513513514 5313.819567567568 5835.611513513514 5312.247567567568 5843.814513513515 5309.412567567568 C 5843.814513513515 5210.598267567568 5843.814513513515 5210.598267567568 5843.814513513515 5210.598267567568 C 5843.814513513515 5210.598267567568 5750.991513513514 5210.598267567568 5750.991513513514 5210.598267567568"></path><path fill="#52BEDA" fill-opacity="1" stroke="" stroke-opacity="1" stroke-width="1" fill-rule="evenodd" id="tSvg168b6708e18" d="M 5910.743513513515 5210.4353675675675 C 5910.743513513515 5314.007567567567 5910.743513513515 5314.007567567567 5910.743513513515 5314.007567567567 C 5910.743513513515 5314.007567567567 5883.317513513514 5314.007567567567 5883.317513513514 5314.007567567567 C 5883.317513513514 5314.007567567567 5882.874513513514 5278.015567567568 5882.874513513514 5278.015567567568 C 5876.154513513514 5288.841567567568 5866.938513513514 5297.551567567568 5855.226513513514 5304.128567567567 C 5851.665513513514 5306.1435675675675 5847.830513513514 5307.807567567567 5843.814513513515 5309.197567567568 C 5843.814513513515 5270.553567567567 5843.814513513515 5270.553567567567 5843.814513513515 5270.553567567567 C 5845.842513513514 5269.565567567567 5847.830513513514 5268.499567567567 5849.741513513514 5267.264567567568 C 5859.101513513514 5261.272567567567 5865.183513513514 5252.199567567567 5867.953513513514 5240.059567567568 C 5843.814513513515 5240.059567567568 5843.814513513515 5240.059567567568 5843.814513513515 5240.059567567568 C 5843.814513513515 5240.059567567568 5843.814513513515 5210.4353675675675 5843.814513513515 5210.4353675675675 C 5843.814513513515 5210.4353675675675 5910.743513513515 5210.4353675675675 5910.743513513515 5210.4353675675675"></path><defs> </defs></svg> 