<?xml version="1.0" encoding="UTF-8"?> <svg xmlns="http://www.w3.org/2000/svg" width="1000" height="1000" viewBox="0 0 1000 1000" fill="none"><g clip-path="url(#clip0_2719_3063)"><path fill-rule="evenodd" clip-rule="evenodd" d="M262.182 499.902C262.182 578.718 208.756 642.798 143.083 642.798C77.3991 642.798 24 578.718 24 499.902C24 421.104 77.3991 357 143.083 357C208.756 357 262.182 421.104 262.182 499.902Z" fill="#12284C"></path><path fill-rule="evenodd" clip-rule="evenodd" d="M145.354 402.748C145.354 407.235 145.381 418.747 145.354 422.91C145.354 424.778 146.051 426.112 146.934 427.073C147.459 427.609 147.911 427.961 148.357 428.225C148.519 428.368 149.229 428.634 149.482 428.634C149.848 428.693 150.322 428.739 150.914 428.715C152.348 428.61 153.764 428.117 155.042 426.723C157.765 423.75 163.538 417.579 166.003 414.928C166.729 414.151 165.962 414.027 165.343 414.048C160.287 414.186 154.875 419.013 151.194 422.315C150.736 417.35 149.975 406.268 146.307 402.065C145.871 401.597 145.354 401.618 145.354 402.748ZM140.704 402.065C137.014 406.268 136.355 417.353 135.933 422.315C132.24 419.013 126.823 414.188 121.775 414.048C121.159 414.027 120.373 414.148 121.094 414.928C123.554 417.579 129.326 423.75 132.066 426.723C133.341 428.117 134.751 428.61 136.067 428.69C136.794 428.736 137.246 428.69 137.62 428.631C137.87 428.631 138.581 428.362 138.75 428.222C139.213 427.958 139.649 427.606 140.085 427.178C141.062 426.11 141.759 424.775 141.743 422.907C141.743 418.744 141.759 407.232 141.759 402.746C141.772 401.618 141.116 401.597 140.704 402.065ZM97.8162 505.292C98.1472 501.498 95.5826 498.236 91.9765 497.542C91.4841 497.504 90.9916 497.461 90.5261 497.399C74.8963 495.9 59.4441 491.428 45.1087 483.882C44.7777 483.691 44.479 484.046 44.6405 484.369C45.5312 486.072 48.0904 488.042 51.9979 490.809C56.4543 493.992 70.9969 501.027 83.3758 503.467C88.1337 504.412 92.9642 505.023 97.8162 505.292ZM109.576 523.352C109.767 521.955 109.506 520.106 108.815 518.443C108.551 517.214 107.674 516.089 106.551 515.206C104.74 513.766 102.423 512.91 100.647 512.851C84.5438 511.944 68.8575 506.304 54.9231 496.514C54.2234 496.027 53.9624 496.352 54.5086 497.03C56.9414 500.004 59.3391 503.142 62.45 505.564C71.8796 512.927 82.8457 517.318 94.0083 519.288C96.398 519.714 98.8334 520.026 101.253 520.228C101.794 520.249 102.154 520.228 102.243 520.392C102.348 520.537 102.356 520.943 102.211 521.46C102.006 523.815 101.882 526.218 101.882 528.616C101.882 539.716 104.38 551.043 110.088 561.441C111.974 564.867 114.719 567.739 117.281 570.591C117.862 571.248 118.204 571.043 117.843 570.3C110.486 555.123 107.609 539.038 109.576 523.352ZM123.295 535.863C123.328 535.394 123.365 534.897 123.392 534.442C123.336 530.838 120.537 527.779 116.786 527.429H116.643C116.072 532.146 115.82 536.91 115.935 541.692C116.169 554.019 120.906 569.281 123.311 574.143C125.402 578.387 126.923 581.215 128.481 582.346C128.793 582.572 129.167 582.346 129.054 581.999C124.006 566.834 122.02 551.191 123.295 535.863ZM138.643 539.574C138.643 539.555 138.847 537.771 138.855 537.746C139.757 532.017 137.768 526.261 134.194 522.203C128.287 515.47 118.441 514.918 114.528 510.65C110.653 506.363 112.168 495.55 106.202 489.337C102.453 485.416 97.1649 482.935 91.2499 482.792L89.6111 482.727C72.6384 482.523 57.0625 479.361 40.9241 472.859C40.3616 472.636 39.6889 473.15 40.141 473.782C41.6211 475.755 44.7508 478.588 50.2514 480.903C67.4474 488.188 90.8274 489.907 90.8947 489.907C100.841 490.402 105.201 499.183 107.472 506.812C108.249 509.417 109.412 511.866 110.755 513.419C112.065 514.999 114.269 516.839 116.839 518.096C124.113 521.643 132.908 527.162 131.638 536.845C131.638 536.885 128.478 559.719 132.73 577.564C134.097 583.293 136.137 586.799 137.865 588.562C138.419 589.114 139.046 588.562 138.912 587.984C135.273 571.315 135.795 555.946 138.643 539.574ZM91.7397 470.752C89.5411 471.263 84.5223 472.534 81.2391 473.906C80.7063 474.116 80.5825 475.058 81.266 475.327C84.9474 476.783 93.3867 477.727 96.1181 476.637C100.114 475.077 99.2371 468.494 97.1623 465.706C88.0664 452.776 82.9103 437.291 82.0653 420.51C82.0357 419.67 81.6374 419.67 81.4437 420.51C80.5852 424.226 79.5949 428.018 79.5949 431.898C79.5922 446.277 84.3581 459.633 91.7397 470.752ZM93.9464 446.605C96.1154 450.854 98.5831 454.915 101.307 458.814C104.493 456.697 105.478 452.698 103.831 449.501C103.559 449.105 103.309 448.699 103.04 448.303C94.7026 435.424 88.7849 420.8 85.9701 405.125C85.9028 404.756 85.4641 404.734 85.3 405.084C84.4953 406.788 84.5222 410.006 84.7402 414.683C84.9744 420.101 88.3382 435.633 93.9464 446.605ZM109.138 443.917C114.813 451.836 110.588 460.634 106.029 467.159C100.443 475.074 107.308 485.112 106.977 479.245C106.514 470.607 117.423 465.521 118.898 455.281C119.654 449.966 118.403 444.366 114.899 439.751L113.976 438.475C103.796 425.351 96.7774 411.438 92.0169 395.047C91.8527 394.495 91.0481 394.29 90.8275 395.047C90.1977 397.382 89.8963 401.532 91.4114 407.21C96.2177 424.899 109.111 443.876 109.138 443.917ZM189.991 465.706C187.927 468.494 187.044 475.077 191.046 476.637C193.777 477.725 202.219 476.783 205.89 475.327C206.571 475.058 206.442 474.116 205.898 473.906C202.644 472.534 197.609 471.263 195.395 470.752C202.806 459.633 207.566 446.274 207.566 431.898C207.566 428.018 206.571 424.226 205.718 420.51C205.527 419.67 205.134 419.67 205.091 420.51C204.243 437.291 199.1 452.776 189.991 465.706ZM183.325 449.501C181.662 452.698 182.647 456.697 185.726 458.75C188.573 454.915 191.016 450.854 193.193 446.605C198.829 435.633 202.179 420.101 202.413 414.686C202.628 410.009 202.647 406.788 201.845 405.087C201.681 404.737 201.253 404.759 201.194 405.127C198.363 420.803 192.456 435.426 184.1 448.306L183.325 449.501ZM180.161 479.245C179.832 485.112 186.716 475.074 181.116 467.159C176.544 460.634 172.329 451.836 177.997 443.917C178.037 443.876 190.952 424.899 195.726 407.216C197.257 401.535 196.966 397.388 196.31 395.052C196.105 394.296 195.301 394.5 195.136 395.052C190.362 411.443 183.374 425.354 173.156 438.481C173.156 438.481 172.243 439.756 172.235 439.756C168.723 444.369 167.483 449.972 168.247 455.286C169.711 465.521 180.64 470.607 180.161 479.245ZM143.083 633.492C82.0196 633.492 32.3476 573.549 32.3476 499.904C32.3476 426.258 82.0222 366.335 143.083 366.335C204.143 366.335 253.818 426.258 253.818 499.904C253.821 573.546 204.146 633.492 143.083 633.492ZM143.083 362.25C79.8182 362.25 28.3621 423.997 28.3621 499.904C28.3621 575.804 79.8182 637.55 143.083 637.55C206.347 637.55 257.795 575.804 257.795 499.904C257.795 423.997 206.35 362.25 143.083 362.25ZM121.038 498.979C118.131 498.979 115.637 496.492 115.147 495.427C113.707 502.157 117.396 505.314 122.776 506.301C121.856 504.124 121.258 501.826 121.04 499.512V498.979H121.038ZM121.188 493.766C121.323 491.675 121.355 489.111 121.42 487.122C116.597 486.586 113.516 482.916 112.878 482.012C109.926 486.748 113.293 492.676 121.188 493.766ZM165.645 499.407C165.44 501.702 164.848 504.003 163.901 506.169C169.286 505.192 172.733 502.033 171.326 495.303C170.82 496.368 168.559 498.855 165.648 498.855V499.407H165.645ZM173.815 481.912C173.169 482.795 170.107 486.465 165.273 486.995C165.352 488.968 165.381 491.573 165.513 493.648C173.398 492.558 176.77 486.629 173.815 481.912ZM149.092 470.034C165.077 479.224 170.927 470.752 170.927 470.752C170.927 470.752 176.77 477.725 166.716 480.435C156.092 483.301 148.898 476.82 147.187 475.572C144.019 473.231 143.357 466.75 149.092 470.034ZM157.666 461.705C163.799 465.434 165.847 465.539 165.847 465.539C165.847 465.539 165.634 471.939 156.479 468.432C153.258 467.181 143.465 461.683 145.123 459.388C147.894 455.529 152.706 458.645 157.666 461.705ZM137.615 470.034C121.63 479.224 116.019 470.752 116.019 470.752C116.019 470.752 109.934 477.725 119.988 480.435C130.612 483.301 137.806 476.82 139.517 475.572C142.685 473.231 143.344 466.75 137.615 470.034ZM129.038 461.705C122.9 465.434 121.105 465.539 121.105 465.539C121.105 465.539 121.064 471.939 130.219 468.432C133.443 467.181 143.217 461.683 141.581 459.388C138.791 455.529 133.995 458.645 129.038 461.705ZM161.807 496.721C161.538 493.992 161.178 489.07 161.081 486.465C153.559 486.465 145.586 480.722 143.357 477.127C141.129 480.722 133.142 486.465 125.626 486.465C125.521 489.07 125.168 493.992 124.891 496.721C124.377 501.705 126.153 506.877 129.461 510.588C131.175 512.515 133.306 514.385 135.674 515.47C135.865 515.55 136.099 515.634 136.331 515.739L137.461 516.231C138.094 516.56 138.468 517.055 139.079 517.501C140.833 518.772 143.285 518.691 143.349 518.691C143.43 518.691 145.876 518.772 147.628 517.501C148.244 517.055 148.608 516.56 149.262 516.231L150.386 515.739C150.626 515.634 150.839 515.553 151.046 515.47C153.408 514.385 155.532 512.515 157.243 510.588C160.559 506.877 162.324 501.702 161.807 496.721ZM152.152 494.689C147.862 494.689 146.961 493.4 146.961 493.4C146.961 493.4 148.042 489.808 152.144 489.808C156.229 489.808 157.757 492.803 157.757 492.803C157.631 493.255 157.991 494.689 152.152 494.689ZM143.446 511.099C139.843 511.099 136.912 508.107 136.912 507.246C136.912 506.385 149.988 506.385 149.988 507.246C149.991 508.107 147.058 511.099 143.446 511.099ZM134.547 494.689C128.726 494.689 129.078 493.255 128.947 492.803C128.947 492.803 130.475 489.808 134.579 489.808C138.656 489.808 139.778 493.4 139.778 493.4C139.778 493.4 138.847 494.689 134.547 494.689ZM143.446 500.187C145.322 500.187 146.829 500.97 146.829 501.603C146.829 502.24 145.319 503.023 143.446 503.023C141.595 503.023 140.085 502.24 140.085 501.603C140.085 500.97 141.595 500.187 143.446 500.187ZM203.823 503.47C216.154 501.029 230.723 493.992 235.18 490.811C239.079 488.045 241.649 486.075 242.494 484.372C242.658 484.049 242.37 483.693 242.042 483.885C227.709 491.43 212.268 495.903 196.638 497.402C196.156 497.461 195.667 497.507 195.188 497.544C191.576 498.241 189.006 501.503 189.348 505.295C194.192 505.023 199.02 504.412 203.823 503.47ZM169.315 570.3C168.947 571.043 169.315 571.248 169.875 570.591C172.44 567.741 175.185 564.867 177.071 561.441C182.784 551.043 185.274 539.719 185.274 528.616C185.274 526.221 185.139 523.815 184.945 521.46C184.811 520.943 184.811 520.537 184.905 520.392C184.999 520.228 185.344 520.249 185.895 520.228C188.325 520.026 190.745 519.714 193.15 519.288C204.313 517.316 215.268 512.927 224.711 505.564C227.817 503.142 230.212 500.004 232.631 497.03C233.18 496.352 232.933 496.024 232.246 496.514C218.285 506.304 202.615 511.947 186.509 512.851C184.738 512.91 182.424 513.769 180.61 515.206C179.474 516.089 178.613 517.214 178.344 518.443C177.655 520.106 177.394 521.955 177.582 523.352C179.558 539.038 176.684 555.123 169.315 570.3ZM158.121 581.999C157.994 582.346 158.379 582.572 158.688 582.346C160.255 581.215 161.767 578.387 163.861 574.143C166.261 569.281 170.987 554.019 171.229 541.692C171.347 536.91 171.094 532.146 170.524 527.429H170.381C166.624 527.779 163.799 530.838 163.758 534.442C163.799 534.897 163.834 535.392 163.871 535.863C165.142 551.191 163.145 566.834 158.121 581.999ZM148.244 587.984C148.121 588.562 148.745 589.114 149.302 588.562C151.027 586.799 153.069 583.293 154.418 577.564C158.686 559.719 155.534 536.885 155.534 536.845C154.237 527.162 163.043 521.643 170.322 518.096C172.895 516.839 175.093 514.999 176.406 513.419C177.744 511.866 178.912 509.417 179.687 506.812C181.961 499.183 186.323 490.405 196.264 489.907C196.32 489.907 219.709 488.19 236.905 480.903C242.394 478.588 245.54 475.752 247.018 473.782C247.454 473.15 246.792 472.633 246.24 472.862C230.115 479.366 214.523 482.526 197.54 482.73L195.911 482.795C189.988 482.937 184.714 485.418 180.949 489.339C175.002 495.553 176.517 506.366 172.634 510.653C168.721 514.921 158.874 515.472 152.967 522.205C149.396 526.264 147.399 532.023 148.301 537.749C148.301 537.771 148.532 539.558 148.532 539.576C151.371 555.946 151.891 571.315 148.244 587.984ZM216.848 579.17C216.635 578.966 216.396 579.006 216.221 579.044C215.599 579.17 214.843 579.229 214.227 579.151C211.377 578.775 208.772 578.592 205.89 578.244C206.442 576.495 206.538 573.358 204.27 571.264C201.953 569.151 198.896 570.244 196.98 572.453C196.159 573.403 195.422 574.466 194.601 575.454C194.125 576.008 193.053 577.117 192.628 577.48C192.3 577.752 191.904 578.016 191.643 578.344C191.315 578.713 191.207 579.122 191.603 579.496C192.028 579.883 192.356 579.614 192.849 579.063C193.683 578.218 193.834 578.344 194.585 579.041L207.279 590.712L209.197 587.884L203.419 582.569L203.664 582.262C204.02 581.848 204.205 581.646 204.429 581.21L210.847 581.907C212.949 582.176 214.547 582.69 216.191 580.777C216.619 580.292 217.053 579.375 216.848 579.17ZM202.324 574.307C203.882 575.701 205.589 577.919 202.935 580.997C202.685 581.277 202.548 581.441 202.357 581.606L196.364 576.113C196.143 575.909 196.051 575.723 196.374 575.352L197.034 574.595C199.033 572.273 200.594 572.722 202.324 574.307ZM50.3509 542.94C49.8988 541.624 49.5382 539.331 50.1249 537.012L52.127 537.176C51.4139 539.038 51.5054 541.347 51.8364 542.389C52.6599 544.848 54.3956 546.183 56.5027 545.44C57.5549 545.055 57.8671 543.863 58.1012 542.572C58.4968 540.564 58.4861 538.446 59.2799 536.56C59.8693 535.066 60.8004 533.691 62.9021 532.929C65.8166 531.904 68.6314 534.14 69.7455 537.464C70.1115 538.567 70.3726 540.023 70.6444 541.915C69.3338 542.467 68.3462 542.814 67.555 543.08C67.1594 543.244 66.71 543.352 66.5082 542.714C66.379 542.3 66.4328 541.95 67.7784 541.172C68.3462 540.849 68.7687 539.819 68.1147 537.851C67.4204 535.715 65.9484 534.385 63.9436 535.08C62.5604 535.575 62.3639 538.917 62.2401 540.211C62.0975 541.651 61.9118 543.285 61.2498 544.665C60.6416 545.914 59.5463 546.982 57.9478 547.558C54.4898 548.783 51.5081 546.428 50.3509 542.94ZM78.5454 560.825C78.3812 560.871 78.1767 560.825 77.5201 560.911L77.1325 559.52L74.5653 554.162L58.7229 562.187L56.9602 559.291L73.104 551.086C72.407 549.506 71.0588 546.759 71.0588 546.759C70.2811 545.16 70.0738 545.734 68.9597 546.062C68.4377 546.205 67.9075 546.285 67.7138 545.895C67.4527 545.325 67.6869 545.098 68.2009 544.832C68.8198 544.504 69.6137 544.127 70.3995 543.764C71.3198 543.328 71.6212 543.764 71.9172 544.506C72.2778 545.327 72.5954 546.046 73.1013 547.211C74.6029 550.699 76.3145 554.143 77.9453 557.55C78.2547 558.183 78.7068 558.758 79.097 559.313C79.1966 559.498 79.3231 559.622 79.3904 559.768C79.4576 559.932 79.6299 560.462 79.1024 560.734C78.836 560.868 78.8064 560.849 78.5454 560.825ZM90.6337 578.247C90.335 577.938 89.8425 577.897 89.2801 578.056L71.4598 583.088L69.8747 581.385C73.7256 574.469 76.1853 569.937 79.4684 564.315C79.7375 563.888 79.9528 563.659 79.6541 563.185C79.0621 562.346 79.132 562.079 79.4603 561.813C79.8317 561.501 80.2865 561.603 80.6121 562.114C81.0023 562.876 81.8258 564.03 82.2268 564.66C82.7192 565.438 82.3882 566.057 81.9926 566.713L73.7848 580.457L88.2978 576.275C89.2263 575.987 87.3802 574.262 88.1337 573.667C88.5024 573.384 88.8603 573.549 89.2155 574.081C89.6353 574.8 90.1035 575.516 90.5018 576.073C90.8974 576.606 91.2795 576.996 91.8124 577.631C92.2376 578.105 92.2107 578.578 91.8393 578.858C91.6079 579.044 91.371 578.966 90.6337 578.247ZM103.136 599.905C106.64 595.249 105.4 589.318 100.636 585.505C99.4631 584.563 98.6773 583.987 97.9857 583.473C97.4179 583.064 96.842 582.652 96.3038 582.203C95.7252 581.748 95.0094 581.092 94.6676 580.685C94.3743 580.376 94.0863 579.988 93.758 579.719C93.3894 579.429 92.9157 579.41 92.6036 579.824C92.2349 580.29 92.6708 580.618 93.166 581.051C94.046 581.853 93.8845 581.999 93.2844 582.817L82.7192 596.829C84.2908 597.916 85.2758 598.554 86.5729 599.867C87.1514 600.459 87.6412 601.019 88.0233 601.307C93.4674 605.672 99.3689 604.916 103.136 599.905ZM100.044 598.002C97.0035 602.042 93.1525 603.664 89.0513 600.357C87.9695 599.499 87.1918 598.777 86.659 598.043C86.328 597.607 86.3683 597.55 86.8204 596.931L96.0105 584.762C96.4249 584.211 96.6779 584.211 97.1326 584.601L99.1456 586.218C104.294 590.327 102.727 594.41 100.044 598.002ZM114.199 596.442C113.774 596.296 113.64 596.81 113.457 597.179L105.924 612.545L102.846 611.251L110.497 595.64C111.013 594.614 110.941 594.819 110.128 594.205C109.759 593.917 109.218 593.672 109.471 593.18C109.705 592.685 110.128 592.601 110.685 592.935C111.344 593.344 112.496 594.041 113.075 594.329C113.653 594.657 114.67 595.091 115.416 595.395C115.976 595.64 116.161 596.051 115.935 596.544C115.744 596.931 115.26 596.786 114.199 596.442ZM136.67 602.41C136.207 602.475 135.809 602.72 135.478 603.212L124.377 618.942L122.092 618.64C120.93 610.758 120.088 605.877 119.234 599.337C119.186 598.864 119.218 598.535 118.694 598.371C117.722 598.107 117.62 597.838 117.709 597.424C117.824 596.95 118.241 596.705 118.785 596.931C119.56 597.238 120.898 597.607 121.584 597.854C122.418 598.164 122.55 598.842 122.649 599.596L124.606 615.392L133.387 602.758C133.936 601.956 131.444 601.791 131.675 600.85C131.802 600.376 132.168 600.298 132.757 600.481C133.513 600.723 136.546 600.973 137.367 600.973C137.997 600.992 138.274 601.216 138.193 601.775C138.131 602.166 137.752 602.284 136.67 602.41ZM162.981 598.718C161.867 599.251 161.791 599.598 162.187 601.097C162.65 602.887 166.525 617.55 166.525 617.55L163.008 618.471L159.181 603.479L155.298 618.43L153.696 618.971L144.864 605.879L145.873 620.839L142.792 621.719L141.678 604.628C141.554 602.887 141.299 602.497 140.271 602.413C139.41 602.332 139.038 602.104 138.974 601.635C138.858 600.911 139.477 600.815 139.789 600.796C140.629 600.769 142.827 600.874 143.554 600.833C144.173 600.815 144.504 600.893 144.996 601.611L154.081 615.457L158.199 599.644C158.419 598.866 158.909 598.495 159.477 598.333C160.222 598.142 162.033 597.445 162.817 597.241C163.123 597.16 163.874 597.117 163.971 597.776C164.036 598.266 163.707 598.371 162.981 598.718ZM191.113 581.81C190.758 582.51 190.852 583.497 190.989 584.073L194.875 601.921L193.123 603.46C186.713 599.009 182.453 596.587 177.233 592.811C176.848 592.521 176.641 592.276 176.178 592.566C175.333 593.099 175.064 593.019 174.84 592.666C174.571 592.257 174.673 591.786 175.206 591.517C175.944 591.129 177.136 590.387 177.747 590.018C178.543 589.566 179.103 589.953 179.733 590.387L192.518 599.334L189.138 584.316C188.947 583.349 187.144 585.136 186.638 584.337C186.377 583.904 186.568 583.594 187.104 583.25C188.045 582.636 189.66 580.946 190.521 579.926C190.946 579.453 191.463 579.577 191.74 579.991C191.877 580.233 191.579 580.89 191.113 581.81ZM222.593 559.663C219.908 557.916 217.47 558.982 215.613 560.93C215.774 558.944 214.991 557.259 213.185 556.11C211.151 554.794 208.091 555.822 206.372 558.67C205.79 559.617 205.362 560.599 204.773 561.565C204.388 562.222 203.691 563.231 203.328 563.659C203.037 563.987 202.709 564.315 202.505 564.684C202.217 565.136 202.34 565.626 202.736 565.895C203.094 566.1 203.266 566.014 203.82 565.177C204.499 564.17 204.665 564.315 205.505 564.848L206.143 565.282L220.134 574.286C220.134 574.286 221.326 571.964 221.614 571.517C222.211 570.594 222.803 570.206 223.417 569.154C225.508 565.731 225.524 561.546 222.593 559.663ZM211.966 559.348C213.568 560.376 214.66 561.815 213.121 564.356L212.523 565.362L207.001 561.789C206.573 561.501 206.417 561.42 206.66 561.032L206.921 560.58C208.099 558.632 210.021 558.078 211.966 559.348ZM221.095 562.714C223.021 563.947 223.775 566.016 222.534 568.091C222.039 568.931 221.393 569.711 220.764 570.341C220.57 570.532 220.567 570.532 220.395 570.427L213.694 566.1L214.243 565.193C216.396 561.643 218.823 561.237 221.095 562.714ZM214.321 546.242C214.187 546.694 214.7 546.84 215.048 547.004L230.414 554.385L229.265 557.609L213.638 550.082C212.647 549.606 212.852 549.649 212.27 550.534C212.026 550.922 211.802 551.474 211.304 551.231C210.82 551.008 210.723 550.575 211.016 550.004C211.415 549.299 212.031 548.112 212.316 547.496C212.585 546.858 212.984 545.814 213.272 545.058C213.498 544.439 213.89 544.235 214.364 544.48C214.73 544.665 214.622 545.158 214.321 546.242ZM235.368 542.321C234.943 543.632 233.917 545.691 232.088 547.165L230.607 545.812C232.246 544.746 233.522 542.857 233.861 541.81C234.644 539.35 234.055 537.192 231.921 536.5C230.869 536.129 229.9 536.91 228.969 537.79C227.475 539.146 226.275 540.849 224.523 541.875C223.18 542.695 221.646 543.209 219.509 542.512C216.592 541.522 215.637 537.997 216.684 534.63C217.05 533.527 217.671 532.216 218.562 530.526C219.937 530.898 220.925 531.226 221.716 531.492C222.136 531.638 222.54 531.821 222.349 532.458C222.211 532.873 221.964 533.115 220.433 532.911C219.776 532.787 218.847 533.347 218.204 535.333C217.537 537.469 217.932 539.477 219.927 540.133C221.342 540.626 223.441 538.061 224.275 537.114C225.233 536.048 226.339 534.837 227.677 534.186C228.899 533.548 230.4 533.365 231.985 533.896C235.473 535.066 236.479 538.815 235.368 542.321Z" fill="white"></path><path d="M481.147 427.773H469.952L471.82 431.656C472.99 434.016 473.181 435.703 472.137 437.883L434.847 524.218L442.99 523.029L458.429 485.165H494.382L510.329 524.557L521.696 523.029L482.867 428.97C482.485 428.13 481.823 427.773 481.147 427.773ZM460.286 480.808L477.07 441.764L492.514 480.808H460.286Z" fill="#12284C"></path><path d="M364.551 431.833C364.551 415.848 381.37 407.084 394.427 407.084C407.995 407.084 416.698 412.466 417.88 419.032C419.236 427.116 419.729 427.458 420.746 427.458C421.927 427.458 421.927 427.116 421.927 424.928C421.927 419.718 421.766 412.988 421.432 406.4C412.772 404.737 402.411 403.397 395.627 403.397C366.927 403.397 356.59 420.528 356.889 436.088C357.134 448.873 361.564 457.56 374.551 463.82C383.375 468.093 393.03 472.506 401.599 476.115C412.086 480.572 420.321 485.017 420.321 495.919C420.321 512.741 404.855 522.2 388.423 522.2C381.109 522.2 364.152 517.824 357.715 512.275L355.331 517.138C364.47 523.362 380.608 525.9 388.423 525.9C409.26 525.9 428.773 513.438 428.773 492.24C428.773 451.85 364.551 461.11 364.551 431.833Z" fill="#12284C"></path><path d="M565.701 428.572C559.923 428.572 550.94 429.242 545.173 429.242C541.446 429.242 536.015 428.9 533.289 428.4C530.569 427.897 528.561 427.584 527.509 427.584C526.494 427.584 525.84 428.071 525.84 429.242C525.84 430.095 526.023 431.255 529.043 431.408C536.847 431.747 537.2 433.615 537.2 440.3V524.374L548.368 523.029V437.948C548.368 433.612 549.073 432.784 553.141 432.784C575.704 432.784 582.48 441.468 582.48 456.922C582.48 469.202 576.879 478.96 560.437 478.96C556.718 478.96 553.144 476.944 552.469 476.944C551.963 476.944 551.433 477.945 551.433 478.279C551.433 479.961 557.038 482.994 561.282 482.994C580.795 482.994 593.661 471.056 593.661 453.72C593.658 437.781 578.572 428.572 565.701 428.572Z" fill="#12284C"></path><path d="M964.621 524.939L975.972 523.416L937.121 429.347C936.79 428.502 936.106 428.168 935.415 428.168H924.236L926.085 432.041C927.288 434.403 927.463 436.072 926.443 438.278L892.258 517.375C878.2 515.962 846.133 514.802 835.925 514.877L892.344 432.162L891.494 429.123H839.881C828.708 429.123 827.158 428.128 826.655 428.128C825.987 428.128 825.656 428.792 825.481 429.64L824.109 436.034C823.945 436.701 824.448 437.199 824.784 437.199C825.304 437.199 828.374 433.682 833.966 433.682H879.034L820.788 519.083C820.274 519.576 820.274 519.923 820.274 520.604C820.274 521.279 820.629 521.6 821.482 521.6C829.879 518.72 882.255 521.067 897.266 523.411L912.896 485.238H948.526L964.621 524.939ZM931.378 442.143L946.771 480.919H914.666L931.378 442.143Z" fill="#12284C"></path><path d="M815.39 427.458C813.18 427.458 806.394 428.795 803.676 428.795C800.777 428.795 792.997 427.458 790.618 427.458C789.604 427.458 788.926 427.961 788.926 429.126C788.926 429.971 789.109 431.163 792.152 431.317C799.946 431.656 800.277 433.507 800.277 440.246V506.543L745.503 430.493C745.01 429.804 744.496 429.301 744.149 428.792C739.889 428.456 729.049 428.128 723.271 427.455C722.273 427.28 721.74 427.958 721.74 429.123C721.74 429.968 721.74 431.161 724.808 431.314C732.623 431.653 732.954 433.505 732.954 440.243V524.372L738.194 522.87V441.589H738.358L799.103 524.374L805.71 523.029V440.246C805.71 433.507 806.052 431.656 813.853 431.317C816.905 431.163 817.096 429.971 817.096 429.126C817.096 427.961 816.388 427.458 815.39 427.458Z" fill="#12284C"></path><path d="M711.189 507.232C710.349 507.232 709.162 507.563 707.984 513.952C706.945 520.179 704.566 519.339 702.214 519.851C698.624 520.502 690.825 520.677 686.081 520.677C681.326 520.677 678.457 520.34 675.069 519.851C670.812 519.164 670.656 517.975 670.656 512.434V477.943H699.515H700.505L700.4 474.221H699.512H670.653V435.033C670.653 433.349 671.662 432.671 674.205 432.671H692.02C692.852 432.671 695.906 432.671 697.453 433.012C699.824 433.507 702.211 432.835 703.218 439.073C704.407 445.453 705.583 445.803 706.444 445.803C707.47 445.803 707.47 445.453 707.47 443.779C707.47 440.246 707.295 435.859 707.104 431.489C706.939 428.131 706.272 428.131 703.218 428.3C698.804 428.462 695.236 428.629 689.13 428.795C683.871 428.97 671.153 429.126 666.735 429.126C663.005 429.126 658.263 428.795 655.54 428.3C652.827 427.775 650.803 427.458 649.778 427.458C648.761 427.458 648.091 428.133 648.091 429.301C648.091 430.133 648.091 431.164 651.124 431.317C658.922 431.656 659.445 433.507 659.445 440.246V524.374L668.796 523.734C673.174 523.734 684.568 523.89 689.8 524.054C695.903 524.218 703.543 524.557 707.978 524.719C711.038 524.891 711.7 524.719 711.859 521.358C712.034 516.971 712.209 512.765 712.209 509.232C712.211 507.563 712.211 507.232 711.189 507.232Z" fill="#12284C"></path><path d="M632.921 428.459C628.836 428.795 623.408 429.126 620.19 429.126C616.966 429.126 610.515 428.795 606.43 428.459C604.743 428.297 604.417 428.795 604.417 429.804C604.417 430.647 605.262 431.656 610.873 432.67C613.723 433.184 614.251 436.707 614.251 440.066V524.218L625.456 523.185V440.066C625.456 436.877 625.793 433.187 629.173 432.67C633.575 431.992 634.953 430.647 634.953 429.804C634.953 428.795 634.592 428.3 632.921 428.459Z" fill="#12284C"></path><path d="M734.205 595.473C732.402 595.473 728.629 594.601 725.597 594.811L721.504 595.083V561.414C721.504 558.855 721.504 558.325 718.624 558.188C717.279 558.121 717.02 557.849 717.02 557.316C717.02 556.716 717.348 556.374 718.01 556.374C718.756 556.374 719.639 556.576 720.354 556.716C721.439 556.912 723.387 557.044 724.792 557.044C726.138 557.044 727.483 556.98 728.821 556.915C730.516 556.848 732.397 556.778 735.287 556.778C746.697 556.778 755.158 564.173 755.158 575.338C755.161 587.276 747.314 595.473 734.205 595.473ZM733.807 558.723H728.823C727.292 558.723 726.633 559.332 726.633 561.086V590.513C726.633 592.588 726.692 592.722 728.102 593.129C729.843 593.659 731.996 593.799 734.687 593.799C745.36 593.799 749.523 586.342 749.523 576.124C749.523 567.184 747.034 558.723 733.807 558.723Z" fill="#12284C"></path><path d="M773.054 558.723C771.827 558.92 771.827 560.273 771.827 561.355V594.601L766.724 595.007V561.355C766.724 560.214 766.657 558.922 765.648 558.723C763.498 558.392 762.82 558.325 762.82 557.655C762.82 557.044 763.113 556.716 763.974 556.775C765.589 556.912 768.137 557.044 769.415 557.044C770.691 557.044 772.847 556.915 774.453 556.775C775.336 556.716 775.613 557.044 775.613 557.655C775.613 558.249 774.72 558.462 773.054 558.723Z" fill="#12284C"></path><path d="M834.085 595.884C833.821 596.148 832.069 596.288 830.928 596.089C828.442 595.674 826.824 595.141 825.078 592.515L822.193 588.223L813.054 573.513C811.647 573.777 811.313 573.917 808.485 573.917H806.684V594.474L801.299 595.217V552.684C801.299 549.452 801.235 548.782 797.535 548.586C795.993 548.519 795.664 548.451 795.664 547.776C795.664 546.907 796.189 546.769 796.786 546.769C797.386 546.769 798.414 546.979 799.76 547.165C801.103 547.375 804.117 547.639 805.931 547.639C808.953 547.639 812.053 547.235 815.07 547.235C821.797 547.235 827.564 551.207 827.564 558.252C827.564 565.05 822.392 570.822 818.218 572.16L826.555 585.795C828.977 589.697 830.315 592.31 833.956 594.878C834.418 595.214 834.48 595.612 834.082 595.952V595.884H834.085ZM811.367 548.987H808.412C807.279 548.987 806.687 549.861 806.687 551.274V571.899C807.753 572.028 808.218 572.109 809.566 572.109C820.169 572.109 821.797 564.574 821.797 559.259C821.797 553.018 819.303 548.987 811.367 548.987Z" fill="#12284C"></path><path d="M858.347 595.47C846.87 595.47 838.342 587.275 838.342 575.922C838.342 563.963 848.412 556.371 858.347 556.371C868.767 556.371 878.38 563.427 878.38 575.922C878.377 587.275 869.846 595.47 858.347 595.47ZM858.347 558.252C850.29 558.252 843.98 564.17 843.98 575.855C843.98 586.14 848.805 593.605 858.347 593.605C868.638 593.605 872.731 586.14 872.731 575.855C872.731 563.901 865.732 558.252 858.347 558.252Z" fill="#12284C"></path><path d="M933.06 558.185C929.777 558.328 929.833 559.598 930.164 562.623C930.571 566.175 934.007 594.533 934.007 594.533L928.297 595.077L924.928 563.828L912.366 592.784L910.022 593.193L895.842 563.696L893.428 594.531L888.579 595.134C891.539 556.495 891.203 562.878 891.348 561.35C891.609 558.912 891.348 558.32 888.445 558.177C887.037 558.11 886.83 557.585 886.83 557.119C886.83 556.366 887.374 556.299 887.914 556.366C889.532 556.568 893.297 556.705 894.709 556.839C895.64 556.904 896.055 557.119 896.722 558.457L911.432 588.877L924.338 558.578C924.863 557.308 925.676 556.901 926.612 556.837C928.087 556.702 931.79 556.635 933.332 556.428C933.94 556.363 934.677 556.565 934.677 557.232C934.675 557.722 934.475 558.118 933.06 558.185Z" fill="#12284C"></path><path d="M971.464 595.139L965.151 579.682H951.314L945.261 594.536L941.217 595.08L956.209 560.677C956.55 559.875 956.488 559.399 956.071 558.527L955.14 556.501H960.097C960.514 556.501 960.921 556.772 961.114 557.181L976.642 594.469L971.464 595.139ZM958.488 562.886L952.385 577.674H964.139L958.488 562.886Z" fill="#12284C"></path><path d="M396.599 549.186C395.041 549.45 395.041 551.403 394.973 552.612C394.973 553.085 394.634 569.942 393.636 577.806C392.89 583.382 390.468 595.674 376.774 595.674C363.003 595.674 359.43 584.937 358.509 577.674C357.958 573.78 357.764 561.955 357.764 555.838C357.764 553.898 357.635 552.612 357.635 552.612C357.567 551.129 357.567 549.391 356.289 549.186C353.2 548.645 352.791 548.583 352.791 548.112C352.791 547.302 353.264 547.232 354.128 547.302C356.152 547.44 358.894 547.574 360.519 547.574C362.115 547.574 364.338 547.44 366.348 547.302C367.247 547.232 367.702 547.302 367.702 548.112C367.702 548.581 367.094 548.782 364.613 549.186C363.2 549.45 362.928 550.935 363.006 552.612C363.006 552.612 363.2 568.064 363.598 575.653C364.276 587.477 369.322 593.6 376.776 593.6C385.966 593.6 390.199 586.067 390.877 576.196C391.421 568.403 391.421 561.274 391.421 554.1V552.609C391.421 551.126 391.351 549.388 390.067 549.183C386.978 548.642 386.574 548.581 386.574 548.11C386.574 547.3 387.043 547.23 387.928 547.3C389.933 547.437 392.008 547.571 393.639 547.571C395.256 547.571 396.33 547.437 398.345 547.3C399.214 547.23 399.683 547.3 399.683 548.11C399.68 548.583 399.08 548.785 396.599 549.186Z" fill="#12284C"></path><path d="M442.264 558.185C439.387 558.328 439.387 558.855 439.387 561.417V564.703V594.469L436.295 595.139L412.654 563.166V594.399L409.887 595.212V562.623V561.414C409.887 558.855 409.887 558.325 406.994 558.182C405.59 558.115 405.455 557.843 405.455 557.378C405.455 556.77 405.724 556.304 406.472 556.371C408.741 556.643 412.051 556.77 413.843 556.907L436.564 588.013V564.698V561.412C436.564 558.853 436.564 558.322 433.668 558.18C432.331 558.112 432.059 557.916 432.059 557.375C432.059 556.708 432.457 556.369 433.068 556.369C433.999 556.369 437.099 556.904 438.249 556.904C439.317 556.904 442.003 556.369 442.885 556.369C443.493 556.369 443.892 556.708 443.892 557.375C443.892 557.921 443.623 558.118 442.264 558.185Z" fill="#12284C"></path><path d="M460.819 558.723C459.621 558.92 459.621 560.273 459.621 561.355V594.601L454.497 595.007V561.355C454.497 560.214 454.427 558.922 453.424 558.723C451.273 558.392 450.603 558.325 450.603 557.655C450.603 557.044 450.875 556.716 451.734 556.775C453.354 556.912 455.91 557.044 457.186 557.044C458.464 557.044 460.617 556.915 462.231 556.775C463.106 556.716 463.364 557.044 463.364 557.655C463.364 558.249 462.511 558.462 460.819 558.723Z" fill="#12284C"></path><path d="M504.764 558.465C503.542 558.661 502.869 559.668 502.409 560.806L488.978 594.603L485.404 595.01L471.906 561.482C471.57 560.736 471.284 559.601 470.832 558.922C470.56 558.468 470.151 558.255 469.279 558.188C467.934 558.123 467.676 557.924 467.676 557.383C467.676 556.775 468.079 556.309 468.749 556.377C470.351 556.578 473.039 556.648 474.452 556.775C475.926 556.912 476.333 557.986 476.744 559.13L488.297 589.7L499.783 560.736C500.122 559.94 499.589 558.858 498.647 558.729C496.091 558.33 495.76 557.924 495.76 557.596C495.76 557.047 495.951 556.721 496.901 556.775C498.51 556.912 500.195 557.047 501.465 557.047C502.751 557.047 503.806 556.912 505.426 556.775C506.373 556.718 506.567 557.047 506.567 557.596C506.562 557.983 506.163 558.185 504.764 558.465Z" fill="#12284C"></path><path d="M533.593 593.602C533.534 595.142 533.061 595.276 531.712 595.212C526.54 595.01 521.371 594.469 516.188 594.808L512.167 595.08V561.358C512.167 558.793 512.1 558.25 509.188 558.121C507.869 558.051 507.651 557.849 507.651 557.319C507.651 556.716 507.993 556.377 508.677 556.377C509.403 556.377 510.278 556.573 511.021 556.716C512.097 556.912 513.973 557.044 515.391 557.044C520.232 557.044 524.998 556.915 529.823 556.716C531.177 556.649 531.634 556.716 531.71 558.252C531.774 560.007 531.844 561.759 531.844 563.096C531.844 564.111 531.634 564.237 531.115 564.237C529.963 564.237 530.232 560.139 529.083 559.404C528.222 558.861 525.73 558.667 525.184 558.667H518.346C517.331 558.667 517.272 558.861 517.272 559.264V574.929H524.441C525.324 574.929 527.21 574.859 527.407 573.718C527.88 571.237 528.082 570.763 528.682 570.763C529.428 570.763 529.492 571.237 529.428 571.904C529.299 573.444 529.153 574.587 529.153 575.804C529.153 577.007 529.299 578.218 529.428 579.757C529.492 580.432 529.428 580.911 528.682 580.911C528.082 580.911 527.88 580.43 527.407 577.951C527.21 576.807 525.588 576.676 524.441 576.676H517.275V590.376C517.275 592.518 517.334 592.795 518.747 592.997C520.033 593.207 521.177 593.336 523.053 593.336C524.261 593.336 530.095 593.271 530.905 592.728C532.054 591.999 531.777 587.693 532.985 587.693C533.537 587.693 533.723 587.822 533.723 588.826C533.723 590.166 533.666 591.853 533.593 593.602Z" fill="#12284C"></path><path d="M570.986 595.809C568.553 595.809 566.745 594.948 565.332 592.924L562.972 589.496L555.399 577.946C554.269 578.207 553.868 578.207 552.582 578.207H551.166V594.536L546.056 595.139V561.414C546.056 558.922 545.991 558.325 543.109 558.188C541.764 558.121 541.556 557.849 541.556 557.383C541.556 556.716 541.963 556.374 542.566 556.374C543.292 556.374 544.175 556.576 544.926 556.716C545.994 556.912 549.086 557.044 550.496 557.044C552.918 557.044 555.399 556.775 557.811 556.775C563.193 556.775 568.222 559.88 568.222 565.575C568.222 571.829 563.128 575.653 560.163 576.74C568.769 589.563 566.877 586.746 570.192 591.781C570.66 592.515 571.656 593.602 572.474 594.334C572.942 594.733 573.405 594.811 573.405 595.349C573.405 595.809 571.933 595.809 570.986 595.809ZM554.869 558.53H552.921C551.575 558.53 551.169 559.186 551.169 560.136V576.336C551.974 576.396 552.38 576.471 553.454 576.471C561.853 576.471 562.786 570.755 562.786 566.519C562.784 561.541 561.169 558.53 554.869 558.53Z" fill="#12284C"></path><path d="M589.606 595.473C587.114 595.473 582.886 594.73 579.735 592.593L580.744 590.239C583.088 592.26 587.38 593.605 589.606 593.605C594.719 593.605 598.677 591.041 598.677 586.005C598.677 583.331 596.331 581.772 594.245 580.564C590.878 578.616 587.262 577.273 584.374 574.582C582.149 572.569 580.41 570.163 580.41 565.855C580.41 560.217 585.717 556.377 592.176 556.377C594.307 556.377 596.998 556.775 600.017 557.383C600.163 559.738 600.163 561.818 600.163 563.427C600.163 564.17 600.163 564.576 599.487 564.576C598.817 564.576 598.613 564.17 598.206 561.689C597.878 559.88 595.932 558.395 591.834 558.395C587.383 558.395 583.564 560.483 583.564 565.244C583.564 566.724 584.425 567.599 585.518 568.605C587.194 570.22 589.945 571.355 592.025 572.372C594.584 573.573 597.205 574.926 599.164 576.926C600.897 578.745 602.041 581.38 602.041 584.593C602.036 591.511 596.328 595.473 589.606 595.473Z" fill="#12284C"></path><path d="M619.565 558.723C618.368 558.92 618.368 560.273 618.368 561.355V594.601L613.239 595.007V561.355C613.239 560.214 613.188 558.922 612.173 558.723C610.031 558.392 609.347 558.325 609.347 557.655C609.347 557.044 609.622 556.716 610.491 556.775C612.108 556.912 614.649 557.044 615.93 557.044C617.224 557.044 619.361 556.915 620.986 556.775C621.858 556.716 622.111 557.044 622.111 557.655C622.114 558.249 621.261 558.462 619.565 558.723Z" fill="#12284C"></path><path d="M660.849 559.668L658.702 559.259H646.692V594.603L641.56 595.139V559.259C638.406 559.189 632.095 559.259 632.095 559.259C629.286 559.259 628.936 559.878 628.68 561.28C628.543 561.955 628.68 564.234 627.671 564.234H627.534C626.864 564.234 626.724 563.831 626.724 563.093C626.724 561.756 626.724 560.004 626.791 558.252C626.861 556.713 627.327 556.646 628.68 556.713C630.427 556.772 631.904 556.847 634.318 556.909C641.503 557.181 648.836 557.038 656.021 557.038C657.892 557.038 660.029 556.371 660.973 556.371C661.253 556.371 661.716 556.498 661.716 557.038C661.719 558.048 661.382 558.185 660.849 559.668Z" fill="#12284C"></path><path fill-rule="evenodd" clip-rule="evenodd" d="M681.571 553.979H683.47L675.556 546.067C674.681 545.203 674.103 544.837 673.5 544.837C672.523 544.837 671.603 545.534 671.603 546.834C671.603 547.636 671.998 548.072 673.933 549.267L681.571 553.979ZM678.89 562.886L672.763 577.674H684.539L678.89 562.886ZM691.845 595.142L685.532 579.684H671.694L665.645 594.539L661.608 595.083L676.592 560.68C676.928 559.878 676.861 559.402 676.463 558.53L675.524 556.503H680.494C680.884 556.503 681.296 556.775 681.514 557.184L697.028 594.469L691.845 595.142Z" fill="#12284C"></path></g><defs><clipPath id="clip0_2719_3063"><rect width="952.642" height="285.798" fill="white" transform="translate(24 357)"></rect></clipPath></defs></svg> 