<?xml version="1.0" encoding="UTF-8"?> <svg xmlns="http://www.w3.org/2000/svg" width="300" height="100" viewBox="0 0 300 100" fill="none"><path d="M19.9518 0H25.6785V1.0786H24.5999C24.4113 1.0786 24.0824 1.29626 23.6084 1.72674C23.1344 2.15721 22.8974 2.49579 22.8974 2.71828V19.1634C22.8974 19.3907 23.1344 19.7196 23.6084 20.1549C24.0824 20.5902 24.4113 20.8079 24.5999 20.8079H25.6785V21.8817H17.2287V20.7982H18.3073C18.4959 20.7982 18.82 20.5806 19.2746 20.1452C19.7293 19.7099 19.9566 19.381 19.9566 19.1537V3.23098L12.0146 22.2734L4.08225 2.90208V19.1585C4.08225 19.3859 4.30958 19.7148 4.7594 20.1501C5.20923 20.5854 5.53813 20.803 5.72676 20.803H6.80053V21.8768H0V20.7982H1.0786C1.30593 20.7982 1.64451 20.5806 2.09917 20.1452C2.55383 19.7099 2.77632 19.381 2.77632 19.1537V2.71828C2.77632 2.49579 2.54899 2.16205 2.09917 1.72674C1.64935 1.29142 1.30593 1.0786 1.0786 1.0786H0V0H6.34587L12.9239 16.3822H13.0932L19.9518 0ZM33.5577 19.6664C34.5228 19.7239 35.4847 19.5094 36.334 19.0473C37.0386 18.5648 37.6201 17.9237 38.0317 17.1755H38.941C38.5369 18.5805 37.7636 19.8515 36.7016 20.8563C35.5366 21.8225 34.048 22.31 32.5371 22.2202C31.6387 22.2528 30.7452 22.0747 29.928 21.7001C29.1108 21.3255 28.3926 20.7649 27.8309 20.063C26.6525 18.6071 26.0301 16.7795 26.0752 14.907C26.0226 13.9048 26.1705 12.9023 26.5102 11.958C26.8499 11.0137 27.3745 10.1466 28.0534 9.40756C28.6607 8.75448 29.3978 8.23553 30.2174 7.88403C31.037 7.53253 31.9211 7.35623 32.8128 7.36644C33.7825 7.3442 34.7467 7.51861 35.6472 7.87914C36.4645 8.2274 37.213 8.71879 37.8576 9.33017L35.7923 12.5757L34.941 12.6289C35.1342 11.663 35.0759 10.6636 34.7717 9.72679C34.591 9.29081 34.2693 8.92805 33.858 8.69655C33.4468 8.46505 32.9697 8.37819 32.5033 8.44988C31.8952 8.41124 31.2876 8.5319 30.7405 8.79995C30.1934 9.068 29.7256 9.47416 29.3835 9.9783C28.6534 11.1913 28.2984 12.5931 28.363 14.0074C28.3221 15.4728 28.8155 16.903 29.7511 18.0316C30.2214 18.5733 30.808 19.0018 31.4672 19.2849C32.1264 19.568 32.841 19.6984 33.5577 19.6664ZM47.6134 21.8768H39.0523V20.7982H40.1454C40.3727 20.7982 40.7113 20.5806 41.1659 20.1452C41.6206 19.7099 41.8431 19.381 41.8431 19.1537V2.71828C41.8431 2.49579 41.6206 2.16205 41.1659 1.72674C40.7113 1.29142 40.3582 1.0786 40.1454 1.0786H39.0523V0H47.6134V1.0786H46.5348C46.3075 1.0786 45.9689 1.29626 45.5142 1.72674C45.0596 2.15721 44.8371 2.49579 44.8371 2.71828V11.676L52.6582 2.94561C52.8081 2.75697 52.6582 2.39905 52.2616 1.87184C51.8649 1.34463 51.5409 1.0786 51.3522 1.0786H50.3026V0H58.235V1.0786H57.1564C56.6236 1.26179 56.1345 1.55327 55.7199 1.93472C54.9605 2.51997 54.5107 2.90208 54.3559 3.04234L49.0354 8.76427L56.6872 18.9215C57.0585 19.3542 57.4864 19.7349 57.9593 20.0533C58.3391 20.4026 58.7968 20.6563 59.2942 20.7934H60.8807C61.2563 20.7155 61.5961 20.5167 61.8481 20.2275C62.264 19.8454 62.472 19.5261 62.472 19.2601V10.3169C62.472 10.0896 62.264 9.78483 61.8481 9.40756C61.5961 9.11832 61.2563 8.91955 60.8807 8.84166H60.0246V7.76305H65.0694V19.2698C65.0694 19.5358 65.287 19.855 65.7224 20.2371C65.9727 20.5115 66.2968 20.7079 66.6559 20.803H68.4164C68.6051 20.803 68.9001 20.6144 69.3209 20.2371C69.7417 19.8599 69.9449 19.5358 69.9449 19.2698V10.3169C69.9449 10.0896 69.7369 9.78483 69.3209 9.40756C68.905 9.03029 68.6051 8.84166 68.4164 8.84166H67.5071V7.76305H71.986L72.5519 10.6409C73.3209 9.82885 74.1451 9.07089 75.0187 8.37249C75.9058 7.70553 76.9954 7.36397 78.1045 7.40513C78.6253 7.39569 79.1427 7.4915 79.6256 7.68681C80.1085 7.88213 80.5469 8.17292 80.9147 8.54178C81.3018 8.92551 81.6049 9.38551 81.8047 9.89259C82.0045 10.3997 82.0968 10.9428 82.0755 11.4874V19.2698C82.0755 19.5358 82.2835 19.855 82.6995 20.2371C83.1155 20.6193 83.4153 20.803 83.604 20.803H84.5133V21.8768H77.0888V20.7982H77.8724C78.2476 20.7193 78.5871 20.5207 78.8397 20.2323C79.2557 19.8502 79.4637 19.531 79.4637 19.2649V11.676C79.4913 11.0411 79.2886 10.4176 78.8929 9.92026C78.6807 9.68469 78.4173 9.50077 78.1231 9.38256C77.8288 9.26436 77.5115 9.21501 77.1952 9.23828C76.074 9.27243 74.9922 9.6601 74.1045 10.3459C73.0694 11.0811 72.5519 11.6954 72.5519 12.1887V19.2698C72.5519 19.5358 72.7599 19.855 73.1758 20.2371C73.4278 20.5264 73.7676 20.7252 74.1432 20.803H74.9364V21.8768H54.6558L47.0475 10.9408L44.8371 13.3205V19.1585C44.8371 19.3859 45.0596 19.7148 45.5142 20.1501C45.9689 20.5854 46.3075 20.803 46.5348 20.803H47.6134V21.8768ZM55.2072 46.5445L55.1394 46.4767C55.8601 47.0813 56.5905 47.6859 57.3257 48.2905C58.0609 48.8951 58.8444 49.4804 59.6764 50.0511H60.9775V51.1829H58.5978C57.6289 51.1994 56.6662 51.0269 55.7634 50.6751C54.7991 50.2434 53.917 49.6477 53.1564 48.9145C52.2985 49.7784 51.264 50.4467 50.1237 50.8734C48.8044 51.3322 47.4137 51.5517 46.0173 51.5215C44.2423 51.5308 42.524 50.8968 41.1805 49.7367C40.4852 49.1757 39.9288 48.4618 39.5546 47.6506C39.1805 46.8393 38.9986 45.9526 39.0232 45.0596C39.0089 43.7312 39.3424 42.4222 39.9906 41.2627C40.6194 40.1488 41.5008 39.1979 42.5638 38.4864C42.0552 37.8406 41.6264 37.1358 41.2869 36.3872C40.952 35.6002 40.7871 34.7514 40.8032 33.8962C40.7627 33.2298 40.8681 32.5625 41.112 31.941C41.356 31.3195 41.7326 30.7587 42.2155 30.2977C43.2957 29.3982 44.6767 28.9419 46.0801 29.0208C46.8887 28.9935 47.6957 29.1081 48.4647 29.3593C48.969 29.5668 49.5062 29.683 50.0511 29.7027C50.2607 29.7079 50.4701 29.6884 50.6751 29.6447C50.8467 29.5884 50.9891 29.4667 51.0717 29.3061H52.0391V34.4622H51.0717C50.9215 33.3974 50.4091 32.417 49.6207 31.6858C49.1812 31.161 48.63 30.7409 48.0074 30.4564C47.3848 30.1719 46.7065 30.0301 46.0221 30.0413C45.028 29.9867 44.0455 30.2771 43.2409 30.8636C42.9033 31.1393 42.6351 31.4903 42.4579 31.8885C42.2806 32.2867 42.1993 32.7209 42.2204 33.1562C42.2147 34.0089 42.517 34.835 43.0716 35.4827C43.682 36.1943 44.4623 36.74 45.3401 37.0692C46.7363 38.5847 48.247 40.1051 49.8722 41.6303C51.4973 43.1555 53.0467 44.5823 54.5203 45.9108C54.9237 45.2642 55.2209 44.5571 55.4006 43.8165C55.5778 43.0228 55.6639 42.2114 55.657 41.3981C55.6766 40.9614 55.6031 40.5255 55.4414 40.1194C55.2796 39.7132 55.0332 39.3462 54.7186 39.0426C54.026 38.4316 53.121 38.1172 52.1987 38.1671V37.0692H59.9762V38.0897H59.1298C58.9412 38.0897 58.5687 38.409 58.0222 39.0571C57.6148 39.4384 57.3288 39.9314 57.1999 40.4743V40.5323C57.1624 41.6209 56.9719 42.6988 56.634 43.7343C56.3089 44.7371 55.8274 45.6823 55.2072 46.5348V46.5445ZM47.7827 49.8335C48.6771 49.8455 49.5675 49.7116 50.4187 49.4369C51.1738 49.1835 51.8888 48.8236 52.5421 48.3679L52.3728 48.2567C50.7605 46.8185 49.1741 45.3449 47.6134 43.8359C46.0527 42.3268 44.5404 40.7387 43.0765 39.0716C42.536 39.6379 42.096 40.2922 41.7754 41.0063C41.438 41.8714 41.2832 42.7969 41.3207 43.7246C41.3426 44.5358 41.5388 45.3327 41.896 46.0613C42.2532 46.7899 42.763 47.4331 43.3909 47.9471C44.5597 49.1126 46.1325 49.7829 47.7827 49.819V49.8335ZM63.4249 4.30958C62.9497 4.31386 62.4922 4.12948 62.1528 3.79688C61.9785 3.63977 61.8399 3.44705 61.7464 3.23177C61.653 3.01648 61.6068 2.78365 61.6111 2.54899V2.49579C61.5973 2.24709 61.6387 1.99842 61.7324 1.76761C61.826 1.53681 61.9696 1.3296 62.1528 1.16083C62.5268 0.850935 62.9972 0.681347 63.4829 0.681347C63.9686 0.681347 64.4391 0.850935 64.813 1.16083C64.9962 1.3296 65.1398 1.53681 65.2335 1.76761C65.3271 1.99842 65.3685 2.24709 65.3548 2.49579H65.2967C65.3354 2.49579 65.3548 2.49579 65.3548 2.54899C65.359 2.78365 65.3129 3.01648 65.2194 3.23177C65.126 3.44705 64.9874 3.63977 64.813 3.79688C64.4906 4.12229 64.0523 4.30665 63.5942 4.30958H63.4249ZM77.8724 49.7077C79.4276 49.7974 80.9724 49.4019 82.2932 48.5759C83.4369 47.715 84.3506 46.5853 84.9534 45.2869H86.0949C85.4689 47.128 84.3025 48.7377 82.7479 49.906C81.149 51.0506 79.2187 51.6385 77.2533 51.5796C75.8209 51.6309 74.396 51.3523 73.0885 50.7653C71.781 50.1782 70.626 49.2984 69.7127 48.1938C67.8189 45.9346 66.8115 43.0636 66.8783 40.1164C66.802 37.2486 67.7235 34.4432 69.4854 32.1792C70.3404 31.1023 71.4384 30.2433 72.6894 29.6724C73.9404 29.1016 75.3088 28.8352 76.6825 28.895C77.7064 28.8716 78.726 29.0355 79.691 29.3787C80.5027 29.6989 81.3675 29.863 82.24 29.8624C82.5121 29.8757 82.7835 29.826 83.0332 29.7173C83.2438 29.6092 83.435 29.467 83.5991 29.2965H84.3924V37.0111H83.425C83.2615 35.4544 82.6518 33.9781 81.6693 32.7596C81.1446 31.9512 80.4201 31.2918 79.566 30.8452C78.7119 30.3987 77.7571 30.1801 76.7938 30.2106C75.9723 30.1669 75.1506 30.293 74.38 30.5809C73.6095 30.8689 72.9065 31.3125 72.3149 31.8841C71.0651 33.3885 70.3807 35.2826 70.3802 37.2385V37.1272C70.3415 37.5432 70.3125 37.9592 70.2931 38.3751C70.2931 38.7911 70.2641 39.2216 70.2641 39.6762C70.2641 40.2034 70.2641 40.7451 70.3221 41.2917C70.3802 41.8383 70.3995 42.3413 70.4334 42.7959C70.5842 44.6349 71.365 46.3655 72.6438 47.6956C73.3252 48.3794 74.1429 48.9119 75.0438 49.2586C75.9446 49.6053 76.9084 49.7583 77.8724 49.7077ZM95.7685 17.9106C95.8021 18.5009 95.7051 19.0913 95.4844 19.6397C95.2637 20.1882 94.9247 20.6812 94.4916 21.0836C93.5882 21.8618 92.423 22.268 91.2316 22.2202C90.4536 22.2437 89.6797 22.0985 88.9631 21.7946C88.3979 21.5191 87.7781 21.3737 87.1493 21.369C86.9333 21.348 86.7162 21.3972 86.5302 21.5092L86.0756 21.8768H85.4178V16.8901H86.269C86.427 17.862 86.8933 18.7573 87.5992 19.4439C88.0477 19.9693 88.6102 20.3853 89.2439 20.6602C89.8776 20.9352 90.5657 21.0618 91.2558 21.0304C91.9648 21.0673 92.6705 20.9101 93.2969 20.5757C93.5383 20.422 93.7339 20.2062 93.8632 19.9509C93.9926 19.6956 94.0509 19.4102 94.0321 19.1247C94.058 18.7843 93.99 18.4434 93.8357 18.139C93.6813 17.8345 93.4465 17.5782 93.1566 17.3979C92.5834 17.0455 91.9872 16.732 91.3719 16.4596C90.8398 16.2371 90.361 16.0291 89.9208 15.8405C89.4807 15.6519 88.9825 15.4439 88.4166 15.2166C87.6157 14.8466 86.8869 14.3372 86.2642 13.7123C85.9737 13.3964 85.7489 13.0259 85.6028 12.6224C85.4566 12.2188 85.3921 11.7903 85.4129 11.3616C85.3776 10.8241 85.4611 10.2854 85.6575 9.78379C85.854 9.28221 86.1586 8.83007 86.5496 8.45955C87.2768 7.944 88.1206 7.61711 89.0054 7.5082C89.8901 7.3993 90.788 7.5118 91.6185 7.83561C92.1041 8.07714 92.6385 8.20452 93.1808 8.20804C93.3464 8.21343 93.5112 8.18376 93.6645 8.12098C93.8046 8.05872 93.9166 7.94669 93.9789 7.80658H94.7141V12.1597H93.8628C93.7252 11.2999 93.3189 10.5058 92.702 9.89124C92.3232 9.42801 91.8422 9.05895 91.2966 8.81304C90.7511 8.56714 90.156 8.45111 89.5581 8.47406C88.9024 8.42042 88.249 8.6022 87.7152 8.98676C87.5239 9.14435 87.371 9.34337 87.2679 9.56878C87.1648 9.79419 87.1144 10.0401 87.1203 10.2879C87.1028 10.5485 87.1507 10.8093 87.2597 11.0467C87.3687 11.284 87.5352 11.4904 87.7443 11.647C88.2803 12.0193 88.8484 12.343 89.442 12.6144C89.974 12.8368 90.4722 13.0448 90.9462 13.2335L92.5037 13.8574C93.3166 14.199 94.0644 14.6784 94.7141 15.2746C95.0727 15.6076 95.3548 16.0145 95.541 16.467C95.7272 16.9196 95.8131 17.4072 95.7927 17.8961L95.7685 17.9106ZM99.4783 38.6557C100.199 39.3594 100.762 40.2087 101.129 41.147C101.496 42.0852 101.659 43.0909 101.607 44.097C101.658 45.1074 101.495 46.1172 101.128 47.0601C100.761 48.0029 100.199 48.8574 99.4783 49.5675C98.1762 50.8608 96.414 51.5845 94.5787 51.5796C92.7232 51.5932 90.9382 50.8695 89.6161 49.5675C88.8963 48.857 88.335 48.0023 87.969 47.0595C87.603 46.1167 87.4407 45.1071 87.4928 44.097C87.4384 43.1364 87.5819 42.1748 87.9143 41.2719C88.2468 40.369 88.7611 39.544 89.4254 38.8479C90.0897 38.1519 90.8898 37.5996 91.7763 37.2255C92.6627 36.8513 93.6165 36.6631 94.5787 36.6726C96.4171 36.6593 98.1865 37.3719 99.5025 38.6557H99.4783ZM98.7963 46.4332V46.5445C98.835 46.1285 98.8592 45.7125 98.8786 45.2966C98.8979 44.8806 98.9076 44.4646 98.9076 44.0487C98.9076 43.6327 98.9076 43.2313 98.8786 42.8346C98.8496 42.438 98.835 42.0656 98.7963 41.727C98.7082 40.6923 98.2795 39.7159 97.5775 38.9507C97.1774 38.5868 96.7072 38.3085 96.1956 38.133C95.6841 37.9575 95.142 37.8885 94.6028 37.9301C94.075 37.8928 93.5452 37.9641 93.046 38.1396C92.5469 38.3152 92.089 38.5912 91.7008 38.9507C91.0063 39.6979 90.5779 40.6534 90.4819 41.669V41.5964C90.4067 41.9892 90.3598 42.3868 90.3416 42.7863C90.3416 43.2022 90.3126 43.6182 90.3126 44.0293C90.3126 44.4405 90.3126 44.8516 90.3416 45.2482C90.3585 45.6206 90.4054 45.991 90.4819 46.3558C90.594 47.3671 91.0203 48.3177 91.7008 49.0741C92.0805 49.4492 92.5356 49.7393 93.0359 49.9253C93.5362 50.1112 94.0703 50.1887 94.6028 50.1527C95.1493 50.2007 95.6997 50.1319 96.2175 49.9509C96.7354 49.77 97.2088 49.481 97.6065 49.1031C98.269 48.3572 98.6846 47.4246 98.7963 46.4332ZM103.444 22.2492C102.55 22.2662 101.664 22.0785 100.853 21.7004C100.043 21.3224 99.3291 20.7639 98.7673 20.0679C97.5418 18.6199 96.8866 16.7746 96.9245 14.878C96.8659 12.9335 97.5332 11.0369 98.7963 9.5575C99.357 8.87313 100.068 8.32758 100.875 7.96345C101.681 7.59932 102.56 7.42645 103.444 7.45834C104.131 7.42008 104.817 7.52986 105.457 7.78022C106.097 8.03058 106.676 8.41567 107.154 8.90937C108.042 9.85913 108.557 11.0974 108.605 12.3967L108.663 13.4173L99.251 14.1718C99.2701 15.5304 99.7473 16.8427 100.605 17.8961C101.036 18.4752 101.602 18.9403 102.254 19.2513C102.905 19.5623 103.623 19.7098 104.344 19.6809C105.318 19.7357 106.289 19.5215 107.149 19.0618C107.85 18.6048 108.426 17.9796 108.823 17.2432H109.674C109.314 18.6409 108.566 19.9085 107.517 20.8998C106.375 21.8389 104.92 22.3107 103.444 22.2202V22.2492ZM103.386 8.5321C102.768 8.4805 102.147 8.59178 101.586 8.85486C101.024 9.11793 100.541 9.52362 100.184 10.0315C99.5461 10.9618 99.1824 12.053 99.1349 13.1803L106.221 12.5757C106.342 11.6273 106.234 10.6636 105.906 9.76549C105.597 8.92711 104.757 8.50631 103.386 8.50308V8.5321ZM120.504 50.1285C120.731 50.1285 121.041 49.9302 121.437 49.5336C121.834 49.137 122.032 48.8274 122.032 48.6001V40.8612C122.058 40.2573 121.867 39.6641 121.495 39.1877C121.276 38.955 121.006 38.7754 120.707 38.6622C120.408 38.5491 120.087 38.5055 119.769 38.5347C118.765 38.568 117.799 38.9262 117.017 39.5553C116.091 40.2389 115.628 40.8064 115.628 41.2578V48.6243C115.628 48.8516 115.827 49.1612 116.223 49.5578C116.62 49.9544 116.915 50.1527 117.104 50.1527H117.955V51.2313H110.7V50.1527H111.493C111.72 50.1527 112.03 49.9544 112.426 49.5578C112.823 49.1612 113.021 48.8516 113.021 48.6243V40.8854C113.052 40.2582 112.851 39.6416 112.455 39.1538C112.238 38.9257 111.972 38.7487 111.678 38.6358C111.383 38.5228 111.067 38.4768 110.753 38.5009C109.723 38.5346 108.735 38.9146 107.948 39.5795C107.022 40.2953 106.559 40.8999 106.559 41.3933V48.6485C106.559 48.8758 106.758 49.1854 107.154 49.582C107.551 49.9786 107.865 50.1769 108.093 50.1769H108.886V51.2555H101.631V50.1769H102.482C102.671 50.1769 102.966 49.9786 103.357 49.582C103.749 49.1854 103.952 48.8758 103.952 48.6485V39.6182C103.952 39.3957 103.754 39.091 103.357 38.7137C102.961 38.3364 102.671 38.1478 102.482 38.1478H101.631V37.0692H105.984L106.55 39.7923C107.382 38.9217 108.138 38.1929 108.818 37.6061C109.647 36.972 110.679 36.6609 111.72 36.7306C112.611 36.7127 113.484 36.9805 114.211 37.4948C114.573 37.7562 114.876 38.0905 115.101 38.4762C115.326 38.8619 115.468 39.2905 115.517 39.7343C116.383 38.9023 117.181 38.201 117.897 37.6351C118.717 37.0359 119.717 36.7355 120.731 36.7838C121.758 36.7586 122.754 37.1352 123.508 37.8334C123.898 38.2207 124.201 38.6868 124.397 39.2006C124.593 39.7144 124.677 40.264 124.644 40.8129V48.5517C124.644 48.7791 124.842 49.0886 125.239 49.4852C125.636 49.8819 125.926 50.0802 126.115 50.0802H126.966V51.1588H119.711V50.0802L120.504 50.1285ZM111.038 10.4668C110.802 10.0968 110.504 9.76963 110.158 9.49946C109.674 9.0835 109.355 8.87552 109.191 8.87552H108.567V7.76305H116.218V8.84166H115.314C115.125 8.84166 114.879 9.03029 114.579 9.40756C114.325 9.67144 114.166 10.0113 114.124 10.3749L117.51 17.3447L120.63 10.4281C120.631 10.2381 120.594 10.0497 120.521 9.8743C120.448 9.6989 120.34 9.54013 120.204 9.40756C119.882 9.03029 119.625 8.84166 119.435 8.84166H118.501V7.76305H124.228V8.84166H123.604C123.416 8.84166 123.121 9.03997 122.724 9.43658C122.413 9.7195 122.154 10.0552 121.96 10.4281L117.123 20.687L112.963 28.6822L111.73 28.0534L116.035 20.2855L111.038 10.4668ZM136.717 36.7113C137.507 36.6801 138.293 36.8448 139.005 37.1908C139.716 37.5368 140.331 38.0533 140.794 38.6943C141.83 40.2291 142.34 42.0591 142.245 43.9084C142.321 45.8551 141.742 47.7711 140.601 49.3498C140.13 50.0232 139.502 50.5716 138.771 50.9474C138.04 51.3233 137.229 51.5154 136.407 51.507C135.368 51.5595 134.336 51.3128 133.433 50.796C132.634 50.2555 131.981 49.5261 131.532 48.6727V55.4732C131.532 55.7392 131.74 56.0584 132.156 56.4405C132.572 56.8226 132.876 57.0064 133.065 57.0064H133.979V58.0415H126.511V56.9629H127.42C127.787 56.8857 128.116 56.6861 128.354 56.397C128.67 56.1633 128.883 55.8167 128.949 55.4297V39.6182C128.949 39.3957 128.751 39.091 128.354 38.7137C128.116 38.4246 127.787 38.225 127.42 38.1478H126.511V37.0111H131.101L131.556 39.9616C132.072 38.9668 132.821 38.1108 133.737 37.4658C134.631 36.915 135.667 36.6391 136.717 36.6726V36.7113ZM139.551 46.2881L139.662 45.1563C139.701 44.7803 139.72 44.4025 139.72 44.0245C139.721 43.6931 139.702 43.362 139.662 43.033C139.624 42.7089 139.585 42.3993 139.551 42.0946C139.458 41.1025 139.061 40.1633 138.415 39.4054C138.104 39.0802 137.728 38.8255 137.311 38.6586C136.893 38.4916 136.445 38.4164 135.996 38.438C135.473 38.416 134.951 38.5026 134.463 38.6924C133.976 38.8822 133.532 39.1711 133.162 39.5408C132.423 40.318 131.879 41.2596 131.575 42.2881V45.9737C131.569 46.5024 131.672 47.0266 131.877 47.5141C132.081 48.0016 132.384 48.442 132.765 48.8081C133.142 49.1944 133.594 49.4994 134.093 49.7041C134.592 49.9087 135.128 50.0088 135.667 49.9979H135.725C136.228 50.0364 136.733 49.9621 137.203 49.7805C137.673 49.5989 138.097 49.3146 138.444 48.9483C139.078 48.1612 139.463 47.2032 139.551 46.1962V46.2881ZM171.576 48.6146C171.576 48.8419 171.784 49.1515 172.2 49.5481C172.615 49.9447 172.915 50.143 173.104 50.143H173.955V51.2216H166.531V50.143H167.353C167.547 50.143 167.837 49.9447 168.262 49.5481C168.688 49.1515 168.886 48.8419 168.886 48.6146V40.9241C168.906 40.3046 168.717 39.6964 168.349 39.1974C168.148 38.9534 167.891 38.7614 167.599 38.6376C167.308 38.5139 166.991 38.462 166.676 38.4864C165.551 38.5231 164.468 38.9198 163.585 39.6182C162.544 40.3792 162.025 40.9838 162.028 41.432V48.5759C162.028 48.8419 162.236 49.1612 162.652 49.5433C162.904 49.8325 163.243 50.0313 163.619 50.1092H164.451V51.1878H152.417L152.02 48.2422C151.424 49.0257 150.761 49.7556 150.037 50.4236C149.301 51.1154 148.324 51.4921 147.314 51.4732C146.838 51.4766 146.367 51.3827 145.928 51.1972C145.49 51.0117 145.094 50.7386 144.765 50.3945C144.405 50.03 144.124 49.5956 143.938 49.1181C143.753 48.6406 143.667 48.1301 143.687 47.6182C143.632 47.0171 143.75 46.413 144.026 45.8762C144.302 45.3393 144.724 44.8918 145.244 44.5856C146.192 44.037 147.213 43.6266 148.277 43.3667L151.962 42.6267L152.02 40.9289C152.063 40.0732 151.779 39.2332 151.227 38.5783C150.859 38.2504 150.427 38.0027 149.958 37.8511C149.49 37.6996 148.994 37.6474 148.504 37.698C148.029 37.6408 147.546 37.7163 147.111 37.9161C146.676 38.1158 146.304 38.432 146.037 38.8298C145.825 39.2977 145.728 39.8094 145.753 40.3226C145.778 40.8357 145.925 41.3354 146.182 41.7802H145.162L143.227 38.9459C144.002 38.1838 144.925 37.5892 145.939 37.1989C146.954 36.8087 148.037 36.6312 149.123 36.6774C150.511 36.63 151.879 37.0172 153.036 37.785C153.552 38.1391 153.968 38.6192 154.246 39.1796C154.524 39.7401 154.653 40.3623 154.623 40.987V48.5808C154.623 48.8081 154.831 49.108 155.247 49.4852C155.663 49.8625 155.962 50.056 156.151 50.056H157.854C158.23 49.9778 158.57 49.7771 158.821 49.4852C159.237 49.108 159.445 48.8081 159.445 48.5808V39.6182C159.445 39.3957 159.237 39.091 158.821 38.7137C158.569 38.4244 158.229 38.2257 157.854 38.1478H157.002V37.0111H161.481L162.047 39.9616C162.805 39.1555 163.613 38.3978 164.465 37.6931C165.359 37.0165 166.461 36.6742 167.58 36.7258C168.1 36.7164 168.616 36.8117 169.098 37.0062C169.58 37.2006 170.018 37.4902 170.386 37.8576C170.775 38.2413 171.079 38.7018 171.28 39.2099C171.48 39.7179 171.573 40.2622 171.551 40.808L171.576 48.6146ZM152.02 43.5892L148.635 44.4405C147.908 44.5587 147.245 44.9284 146.763 45.4852C146.412 45.9932 146.233 46.5997 146.25 47.2168V47.27C146.246 47.5587 146.299 47.8454 146.406 48.1135C146.513 48.3817 146.672 48.626 146.874 48.8323C147.07 49.0422 147.307 49.2085 147.571 49.3202C147.836 49.4319 148.121 49.4865 148.407 49.4804H148.49C149.249 49.4498 149.973 49.1497 150.531 48.634C151.106 48.1738 151.597 47.6174 151.982 46.9894L152.02 43.5892ZM188.069 37.0692V38.1478H187.387C187.237 38.1478 186.961 38.3461 186.565 38.7427C186.264 39.0296 185.989 39.3419 185.743 39.6762L180.983 49.9931L176.732 57.9303L175.542 57.3063L179.793 49.5384L174.807 39.7343C174.569 39.3654 174.271 39.0385 173.926 38.7669C173.443 38.3509 173.143 38.143 172.993 38.143H172.311V37.0692H179.963V38.1478H179.111C178.923 38.1478 178.666 38.3364 178.347 38.7137C178.081 38.9724 177.911 39.3133 177.863 39.6811L181.249 46.6557L184.383 39.6617C184.384 39.4797 184.346 39.2996 184.273 39.133C184.2 38.9665 184.092 38.817 183.958 38.6943C183.639 38.3171 183.382 38.1284 183.194 38.1284H182.289V37.0692H188.069Z" fill="#12284C"></path></svg> 