<?xml version="1.0" encoding="UTF-8"?> <svg xmlns="http://www.w3.org/2000/svg" width="25" height="25" viewBox="0 0 25 25" fill="none"> <path d="M22.4498 7.91687C22.3359 7.49428 22.1133 7.10888 21.8041 6.79904C21.495 6.48921 21.1101 6.26574 20.6878 6.15087C19.1218 5.72087 12.8568 5.71387 12.8568 5.71387C12.8568 5.71387 6.59278 5.70687 5.02578 6.11787C4.6037 6.23802 4.2196 6.46465 3.91034 6.77601C3.60108 7.08737 3.37706 7.473 3.25978 7.89587C2.84678 9.46187 2.84277 12.7099 2.84277 12.7099C2.84277 12.7099 2.83877 15.9739 3.24877 17.5239C3.47877 18.3809 4.15378 19.0579 5.01178 19.2889C6.59378 19.7189 12.8418 19.7259 12.8418 19.7259C12.8418 19.7259 19.1068 19.7329 20.6728 19.3229C21.0953 19.2082 21.4805 18.9853 21.7904 18.6761C22.1003 18.3669 22.3242 17.9821 22.4398 17.5599C22.8538 15.9949 22.8568 12.7479 22.8568 12.7479C22.8568 12.7479 22.8768 9.48287 22.4498 7.91687ZM10.8528 15.7189L10.8578 9.71887L16.0648 12.7239L10.8528 15.7189Z" fill="white"></path> </svg> 