<?xml version="1.0" encoding="UTF-8"?> <svg xmlns="http://www.w3.org/2000/svg" width="40" height="40" viewBox="0 0 40 40" fill="none"> <rect x="1" y="1" width="37" height="37" rx="6" fill="black"></rect> <path d="M33.283 19.6458C33.2857 27.1729 27.1748 33.2908 19.6477 33.2977C12.1336 33.3045 6.0041 27.1757 6 19.6519C5.9959 12.1336 12.126 5.99795 19.6415 6C27.1666 6.00137 33.2803 12.1172 33.283 19.6458ZM6.88687 19.6519C6.88892 26.6845 12.6122 32.4083 19.6422 32.407C26.6776 32.4056 32.3941 26.6906 32.3989 19.6533C32.4037 12.62 26.6872 6.89617 19.6531 6.89002C12.6142 6.88523 6.88482 12.6125 6.88687 19.6519Z" fill="white"></path> <path d="M6.88672 19.6518C6.88467 12.6124 12.6141 6.88516 19.653 6.89063C26.6871 6.8961 32.4035 12.62 32.3987 19.6539C32.3939 26.6912 26.6775 32.4062 19.642 32.4076C12.6127 32.4083 6.88877 26.6844 6.88672 19.6518ZM14.7967 17.4504C14.8152 17.3512 14.8255 17.2725 14.8453 17.1966C14.9355 16.8505 15.0053 16.4968 15.1243 16.1609C15.3533 15.5158 15.8074 15.2264 16.4877 15.2503C16.8795 15.264 17.2638 15.3324 17.6112 15.5124C18.3141 15.8756 19.0184 16.2389 19.6995 16.6411C20.6205 17.1857 21.5942 17.486 22.6712 17.4572C23.7386 17.4285 24.6015 17.0386 25.154 16.0945C25.5663 15.3899 25.645 14.6114 25.5944 13.8124C25.5875 13.7036 25.5233 13.7022 25.4433 13.7029C25.033 13.7043 24.6227 13.7091 24.2125 13.7002C24.0743 13.6967 24.047 13.7474 24.0319 13.8739C23.993 14.2002 23.9656 14.5348 23.8712 14.8467C23.7222 15.342 23.3803 15.641 22.8415 15.6779C22.3478 15.7114 21.8684 15.6355 21.4253 15.4275C20.4872 14.9876 19.5497 14.545 18.6321 14.0648C17.7992 13.629 16.9274 13.4416 15.9968 13.4936C15.4204 13.5257 14.9034 13.7152 14.4692 14.0969C13.5495 14.9062 13.2951 15.9837 13.2698 17.1474C13.2692 17.1802 13.3218 17.239 13.356 17.2438C13.8271 17.3156 14.301 17.3806 14.7967 17.4504ZM18.5398 17.4463C18.5398 17.5482 18.5398 17.616 18.5398 17.6837C18.5398 20.9037 18.5398 24.1238 18.5398 27.3439C18.5398 27.3781 18.5425 27.4123 18.5398 27.4465C18.5309 27.5436 18.576 27.5765 18.6697 27.5758C19.188 27.573 19.7063 27.5737 20.2246 27.5724C20.2513 27.5724 20.2773 27.5587 20.3128 27.5484C20.3128 27.4711 20.3128 27.3972 20.3128 27.3234C20.3128 24.548 20.3128 21.7726 20.3128 18.9972C20.3128 18.7461 20.308 18.4957 20.3149 18.2446C20.3176 18.142 20.2827 18.09 20.1856 18.0579C20.0291 18.0066 19.8766 17.9423 19.722 17.8848C19.3398 17.7425 18.9569 17.6009 18.5398 17.4463Z" fill="black"></path> <path d="M14.7968 17.4505C14.3011 17.3807 13.8272 17.3157 13.3547 17.2439C13.3205 17.2384 13.2679 17.1802 13.2686 17.1474C13.2939 15.9838 13.5489 14.9063 14.4679 14.097C14.9021 13.7153 15.4197 13.5251 15.9955 13.4936C16.9261 13.4423 17.798 13.6291 18.6308 14.0649C19.5484 14.5451 20.4859 14.9877 21.4241 15.4276C21.8678 15.6356 22.3472 15.7122 22.8402 15.678C23.379 15.641 23.7216 15.3421 23.87 14.8468C23.9636 14.5341 23.9917 14.2003 24.0306 13.874C24.0457 13.7467 24.0737 13.6968 24.2112 13.7002C24.6214 13.7091 25.0317 13.7043 25.442 13.703C25.5213 13.703 25.5863 13.7037 25.5931 13.8124C25.6437 14.6115 25.5651 15.39 25.1527 16.0946C24.6002 17.0386 23.7373 17.4286 22.6699 17.4573C21.593 17.4867 20.6199 17.1864 19.6982 16.6412C19.0178 16.2389 18.3128 15.8757 17.6099 15.5124C17.2625 15.3325 16.8783 15.2641 16.4865 15.2504C15.8068 15.2265 15.3521 15.5158 15.123 16.1609C15.0033 16.4968 14.9336 16.8505 14.844 17.1967C14.8255 17.2726 14.8153 17.3513 14.7968 17.4505Z" fill="white"></path> <path d="M18.5396 17.4463C18.9567 17.6009 19.3397 17.7425 19.7226 17.8848C19.8771 17.9423 20.0296 18.0073 20.1862 18.0579C20.284 18.0893 20.3181 18.142 20.3154 18.2446C20.3086 18.495 20.3134 18.7461 20.3134 18.9971C20.3134 21.7725 20.3134 24.5479 20.3134 27.3233C20.3134 27.3972 20.3134 27.4704 20.3134 27.5484C20.2778 27.5587 20.2511 27.5723 20.2252 27.5723C19.7068 27.5744 19.1885 27.573 18.6702 27.5758C18.5765 27.5765 18.5307 27.5436 18.5403 27.4465C18.5437 27.4123 18.5403 27.3781 18.5403 27.3439C18.5403 24.1238 18.5403 20.9037 18.5403 17.6837C18.5396 17.6159 18.5396 17.5482 18.5396 17.4463Z" fill="white"></path> </svg> 