<?xml version="1.0" encoding="UTF-8"?> <svg xmlns="http://www.w3.org/2000/svg" width="30" height="30" viewBox="0 0 30 30" fill="none"><circle cx="15" cy="15" r="15" fill="#52BEDA"></circle><path d="M21 8.25H9C8.17275 8.25 7.5 8.92275 7.5 9.75V20.25C7.5 21.0773 8.17275 21.75 9 21.75H21C21.8273 21.75 22.5 21.0773 22.5 20.25V9.75C22.5 8.92275 21.8273 8.25 21 8.25ZM9 20.25V9.75H21L21.0015 20.25H9Z" fill="white"></path><path d="M10.5 11.25H19.5V12.75H10.5V11.25ZM10.5 14.25H19.5V15.75H10.5V14.25ZM10.5 17.25H15V18.75H10.5V17.25Z" fill="white"></path></svg> 