<?xml version="1.0" encoding="UTF-8"?> <svg xmlns="http://www.w3.org/2000/svg" width="149" height="76" viewBox="0 0 149 76" fill="none"><g opacity="0.4"><path d="M23.2883 71.9134C19.3272 64.6015 22.0945 55.4405 29.4517 51.5038C36.8088 47.5671 46.0266 50.3174 49.9877 57.6293L44.8978 60.3577C42.4514 55.8319 36.7508 54.1309 32.197 56.5623C27.6433 58.9936 25.9317 64.6593 28.3856 69.1945L23.2958 71.9229L23.2883 71.9134Z" fill="#00C1DE"></path><path d="M122.294 24.8755L125.369 22.1203L128.452 25.5171L133.218 20.6753L137.786 25.7021L142.552 20.8603L148.593 27.5094L145.528 30.2624L142.433 26.8576L137.659 31.7116L133.091 26.6845L128.335 31.5244L122.294 24.8755Z" fill="#407BFF"></path><path d="M3.43182 13.06L7.50383 12.3146L8.33878 16.8132L14.9506 15.1707L16.1916 21.8312L22.8034 20.1887L24.4441 28.9982L20.3819 29.7469L19.5408 25.2353L12.9156 26.8838L11.6747 20.2231L5.07263 21.8692L3.43182 13.06Z" fill="#407BFF"></path><path d="M97.7072 29.8012C91.7785 34.4444 83.1502 33.4372 78.4783 27.545C73.8065 21.6528 74.8197 13.0775 80.759 8.426C86.6983 3.77454 95.3161 4.79005 99.9963 10.6928C104.677 16.5956 103.647 25.1498 97.7072 29.8012ZM84.1034 12.644C80.51 15.4583 79.8905 20.65 82.7222 24.2213C85.5539 27.7927 90.7779 28.4083 94.3714 25.5941C97.9648 22.7798 98.5841 17.5878 95.7525 14.0165C92.9208 10.4451 87.6969 9.82977 84.1034 12.644Z" fill="#00C1DE"></path><path d="M106.895 71.4606L89 60.6943L107.33 50.6749L106.895 71.4606ZM95.6988 60.8281L103.67 65.6226L103.864 56.362L95.6935 60.8215L95.6988 60.8281Z" fill="#407BFF"></path></g></svg> 